<?xml version="1.0" encoding="utf-8"?>
<!-- Generator: Adobe Illustrator 17.0.0, SVG Export Plug-In . SVG Version: 6.00 Build 0)  -->
<!DOCTYPE svg PUBLIC "-//W3C//DTD SVG 1.1//EN" "http://www.w3.org/Graphics/SVG/1.1/DTD/svg11.dtd">
<svg version="1.1" id="Layer_2" xmlns="http://www.w3.org/2000/svg" xmlns:xlink="http://www.w3.org/1999/xlink" x="0px" y="0px"
	 width="147.383px" height="67.759px" viewBox="0 0 147.383 67.759" enable-background="new 0 0 147.383 67.759"
	 xml:space="preserve">
<path fill="#C9202C" d="M147.383,64.759c0,1.657-0.911,3-2.035,3H62.798c-1.124,0-2.035-1.343-2.035-3V3c0-1.657,0.911-3,2.035-3
	h82.551c1.124,0,2.035,1.343,2.035,3V64.759z"/>
<g>
	<g>
		<path fill="#0F0808" d="M0.081,14.906C1.87,21.725,5.502,28.18,10.663,33.013c2.996,2.806,7.556-1.841,4.475-4.475
			C10.19,24.31,7.32,18.812,4.772,12.929C3.586,10.192-0.634,12.179,0.081,14.906L0.081,14.906z"/>
	</g>
</g>
<g>
	<g>
		<path fill="#0F0808" d="M8.604,55.94c3.29-14.821,10.651-28.367,11.199-43.785c0.095-2.67-4.15-2.679-4.148,0
			c0.009,15.04-6.805,28.551-9.491,43.112C5.871,56.852,8.247,57.547,8.604,55.94L8.604,55.94z"/>
	</g>
</g>
<g>
	<g>
		<path fill="#0F0808" d="M28.922,32.958C16.631,28.097,16.363,51.556,26.339,55.3c5.947,2.232,12.782-1.286,12.845-7.857
			c0.056-5.85-5.163-14.385-10.558-16.724c-2.93-1.27-5.022,2.324-2.484,4.25c3.52,2.67,6.348,5.401,7.857,9.683
			c1.572,4.46-1.012,7.456-5.831,6.344c-6.575-1.517-7.528-17.089,0.596-16.864C29.484,34.152,29.512,33.192,28.922,32.958
			L28.922,32.958z"/>
	</g>
</g>
<g>
	<g>
		<path fill="#0F0808" d="M39.397,32.155c-0.376,4.231-0.329,8.443,0.257,12.659c0.498,3.586,1.377,9.066,5.328,10.528
			c4.317,1.598,8.383-2.556,9.264-6.435c0.71-3.129,0.091-6.542-0.497-9.637c-0.482-2.535-0.883-6.802-2.475-8.87
			c-1.291-1.678-3.725-1.13-3.931,1.065c-0.161,1.713,0.865,3.499,1.326,5.134c0.666,2.362,1.224,4.768,1.519,7.206
			c0.246,2.036,0.438,4.757-0.969,6.433c-1.018,1.212-2.631,1.872-3.797,0.679c-2.29-2.344-2.641-7.246-3.025-10.3
			c-0.352-2.806-0.568-5.644-0.82-8.462C41.451,30.752,39.522,30.752,39.397,32.155L39.397,32.155z"/>
	</g>
</g>
<g>
	<g>
		<path fill="#FFFFFF" d="M65.516,15.363c4.477,0.428,8.966,0.647,13.448,1.012c4.434,0.361,9.009,1.218,13.448,0.86
			c2.491-0.201,3.303-3.917,0.617-4.558c-8.498-2.028-18.847-1.707-27.513-0.97C63.154,11.907,63.172,15.138,65.516,15.363
			L65.516,15.363z"/>
	</g>
</g>
<g>
	<g>
		<path fill="#FFFFFF" d="M76.326,14.914c0.461,12.414,1.526,24.812,1.436,37.241c-0.014,1.996,3.131,1.995,3.094,0
			c-0.232-12.465-1.715-24.826-2.702-37.241C78.062,13.754,76.282,13.724,76.326,14.914L76.326,14.914z"/>
	</g>
</g>
<g>
	<g>
		<path fill="#FFFFFF" d="M83.117,31.466c0.536,5.855,2.833,24.493,12.513,21.758c4.556-1.288,5.042-6.203,4.751-10.251
			c-0.303-4.205-1.112-10.201-3.817-13.589c-1.065-1.334-3.476-0.238-3.361,1.392c0.254,3.585,6.736,16.883,1.402,18.729
			c-5.535,1.916-8.645-14.881-9.485-18.311C84.851,30.095,83.011,30.307,83.117,31.466L83.117,31.466z"/>
	</g>
</g>
<g>
	<g>
		<path fill="#FFFFFF" d="M100.463,24.821c1.315,5.826,1.85,11.788,3.373,17.584c1.172,4.459,3.369,11.444,9.006,11.546
			c6.189,0.113,11.744-9.053,9.795-14.467c-2.434-6.762-13.292-8.08-19.136-6.186c-2.917,0.945-1.726,5.407,1.271,4.61
			c3.963-1.053,13.814-1.711,14.244,4.414c0.305,4.342-5.885,10.372-9.219,5.677c-4.882-6.876-4.448-16.098-7.504-23.684
			C101.845,23.203,100.187,23.6,100.463,24.821L100.463,24.821z"/>
	</g>
</g>
<g>
	<g>
		<path fill="#FFFFFF" d="M125.926,42.827c5.231,1.925,9.952-0.5,10.593-6.183c0.618-5.478-4.499-7.958-8.898-5.235
			c-5.201,3.22-3.276,10.984-0.722,15.22c3.414,5.663,10.582,8.227,15.897,3.493c1.753-1.562-0.485-4.203-2.428-3.147
			c-3.607,1.96-6.398,1.667-9.164-1.469c-2.243-2.543-3.444-6.52-2.369-9.781c1.014-3.077,4.522-2.57,4.801,0.494
			c0.404,4.444-3.509,5.726-7.148,4.573C125.173,40.377,124.669,42.365,125.926,42.827L125.926,42.827z"/>
	</g>
</g>
</svg>
