<?xml version="1.0" encoding="utf-8"?>
<!-- Generator: Adobe Illustrator 17.0.0, SVG Export Plug-In . SVG Version: 6.00 Build 0)  -->
<!DOCTYPE svg PUBLIC "-//W3C//DTD SVG 1.1//EN" "http://www.w3.org/Graphics/SVG/1.1/DTD/svg11.dtd">
<svg version="1.1" id="Layer_1" xmlns="http://www.w3.org/2000/svg" xmlns:xlink="http://www.w3.org/1999/xlink" x="0px" y="0px"
	 width="66.794px" height="66.357px" viewBox="0 0 66.794 66.357" enable-background="new 0 0 66.794 66.357" xml:space="preserve">
<g id="ears">
	<circle fill="#333333" cx="58.442" cy="9" r="7.915"/>
	<circle fill="#333333" cx="7.915" cy="9" r="7.915"/>
	<path display="none" fill="#E5AB37" d="M62.803,2.978c0,0-6.75,1.25-6.312,5.75L52.053,5.29
		C52.053,5.291,55.741-1.022,62.803,2.978z"/>
	<path display="none" fill="#E5AB37" d="M3.553,2.978c0,0,6.75,1.25,6.312,5.75l4.438-3.438C14.303,5.291,10.616-1.022,3.553,2.978z
		"/>
</g>
<g id="Layer_3">
	<g id="face">
	</g>
</g>
<g id="Layer_5">
	<g>
		<path fill="#333333" d="M3.991,37.978h58.375h4.078c0.227-1.568,0.35-3.169,0.35-4.8C66.794,14.854,51.94,0,33.616,0
			S0.438,14.854,0.438,33.178c0,1.631,0.123,3.232,0.35,4.8H3.991z M47.095,30.291c1.289,0,2.333,1.045,2.333,2.333
			c0,1.289-1.045,2.333-2.333,2.333c-1.289,0-2.333-1.045-2.333-2.333C44.762,31.335,45.806,30.291,47.095,30.291z M19.345,30.291
			c1.289,0,2.333,1.045,2.333,2.333c0,1.289-1.045,2.333-2.333,2.333c-1.289,0-2.333-1.045-2.333-2.333
			C17.012,31.335,18.056,30.291,19.345,30.291z"/>
		<path fill="#333333" d="M1.098,39.791c3.065,15.156,16.458,26.566,32.517,26.566s29.452-11.41,32.517-26.566H1.098z"/>
	</g>
</g>
</svg>
