<?xml version="1.0" encoding="utf-8"?>
<!-- Generator: Adobe Illustrator 17.0.0, SVG Export Plug-In . SVG Version: 6.00 Build 0)  -->
<!DOCTYPE svg PUBLIC "-//W3C//DTD SVG 1.1//EN" "http://www.w3.org/Graphics/SVG/1.1/DTD/svg11.dtd">
<svg version="1.1" xmlns="http://www.w3.org/2000/svg" xmlns:xlink="http://www.w3.org/1999/xlink" x="0px" y="0px"
	 width="115.589px" height="243.916px" viewBox="0 0 115.589 243.916" enable-background="new 0 0 115.589 243.916"
	 xml:space="preserve">
<g id="Layer_1">
	<g>
		<g>
			<path fill="#FFFFFF" d="M0.733,241.898c0.01,0,0.021,0,0.031,0c0.645,0,0.645-1,0-1c-0.01,0-0.021,0-0.031,0
				c0.167,0.167,0.333,0.333,0.5,0.5c-0.065-1.169,0.071-2.332,0.083-3.5c0.007-0.645-0.993-0.644-1,0
				c-0.012,1.168-0.148,2.331-0.083,3.5C0.248,241.67,0.449,241.898,0.733,241.898c0.01,0,0.021,0,0.031,0c0.645,0,0.645-1,0-1
				c-0.01,0-0.021,0-0.031,0C0.088,240.898,0.088,241.898,0.733,241.898L0.733,241.898z"/>
		</g>
	</g>
	<g>
		<g>
			<path fill="#FFFFFF" d="M0.902,238.33c1.021-0.545,2.043-1.068,3.108-1.522c1.309-0.558,2.594-1.712,3.97-2.032
				c1.576-0.367,0.658-2.874,1.858-3.773c1.581-1.185,2.038-2.78,3.288-4.356c1.355-1.709,3.387-3.299,4.172-5.366
				c0.229-0.604-0.738-0.863-0.964-0.266c-0.785,2.068-3.196,3.838-4.49,5.652c-0.463,0.65-0.943,1.266-1.283,1.989
				c-0.554,1.179-0.997,1.12-1.766,1.888c-0.955,0.955-0.381,2.712-1.649,3.422c-2.223,1.245-4.504,2.3-6.75,3.5
				C-0.171,237.771,0.334,238.634,0.902,238.33L0.902,238.33z"/>
		</g>
	</g>
	<g>
		<g>
			<path fill="#FFFFFF" d="M14.317,185.565c-0.171,6.091,0.188,11.985,0.577,18.061c0.203,3.166,0.45,6.327,0.831,9.477
				c0.352,2.906,0.427,5.824,0.759,8.712c0.073,0.633,1.073,0.64,1,0c-0.332-2.893-0.375-5.804-0.759-8.712
				c-0.415-3.144-0.624-6.314-0.831-9.477c-0.398-6.076-0.747-11.971-0.577-18.061C15.335,184.92,14.335,184.922,14.317,185.565
				L14.317,185.565z"/>
		</g>
	</g>
	<g>
		<g>
			<path fill="#FFFFFF" d="M15.299,185.432c-0.553-2.931,0.756-6.593,1.098-9.509c0.451-3.847,1.086-7.68,1.503-11.525
				c0.069-0.641-0.931-0.634-1,0c-0.417,3.846-1.115,7.671-1.503,11.525c-0.31,3.073-1.643,6.697-1.062,9.775
				C14.454,186.331,15.418,186.062,15.299,185.432L15.299,185.432z"/>
		</g>
	</g>
	<g>
		<g>
			<path fill="#FFFFFF" d="M17.587,164.835c0.746-0.848,1.904-1.055,2.899-1.505c1.317-0.596,2.6-1.683,4.081-1.848
				c0.633-0.071,0.64-1.071,0-1c-1.489,0.166-2.891,1.026-4.185,1.744c-1.175,0.653-2.581,0.855-3.502,1.902
				C16.456,164.61,17.16,165.32,17.587,164.835L17.587,164.835z"/>
		</g>
	</g>
	<g>
		<g>
			<path fill="#FFFFFF" d="M24.983,160.898c0.108-5.17,0.93-10.344,1.333-15.5c0.189-2.412,0.898-4.795,1.175-7.202
				c0.319-2.768,0.288-5.719,1.057-8.415c0.177-0.621-0.788-0.885-0.964-0.266c-0.565,1.98-0.709,4.122-0.906,6.167
				c-0.287,2.978-0.741,5.886-1.254,8.835c-0.47,2.701-0.413,5.507-0.784,8.228c-0.365,2.68-0.601,5.451-0.657,8.154
				C23.97,161.544,24.97,161.542,24.983,160.898L24.983,160.898z"/>
		</g>
	</g>
	<g>
		<g>
			<path fill="#FFFFFF" d="M27.796,129.045c-0.028,0.028-0.056,0.056-0.083,0.083c0.236,0,0.471,0,0.707,0
				c-0.325-0.393-0.31-1.082-0.416-1.561c-0.138-0.622-0.638-1.088-0.687-1.752c-0.047-0.639-1.048-0.644-1,0
				c0.061,0.82,0.587,1.401,0.757,2.17c0.148,0.668,0.187,1.304,0.64,1.851c0.174,0.21,0.528,0.179,0.707,0
				c0.028-0.028,0.056-0.056,0.083-0.083C28.96,129.296,28.253,128.588,27.796,129.045L27.796,129.045z"/>
		</g>
	</g>
	<g>
		<g>
			<path fill="#FFFFFF" d="M27.253,125.795c0.04,0.051,0.063-1.043,0.063-0.98c0-0.661,0-1.321,0-1.982
				c0-1.345,0.134-2.675,0.167-4.018c0.016-0.645-0.984-0.644-1,0c-0.041,1.671-0.167,3.326-0.167,5.001
				c0,0.771-0.283,2.03,0.23,2.686C26.943,127.01,27.645,126.297,27.253,125.795L27.253,125.795z"/>
		</g>
	</g>
	<g>
		<g>
			<path fill="#FFFFFF" d="M27.483,119.065c-0.109-0.819-0.493-1.568-0.789-2.337c-0.401-1.044-0.805-2.125-1.063-3.213
				c-0.148-0.627-1.113-0.361-0.964,0.266c0.209,0.884,0.556,1.72,0.833,2.583c0.277,0.864,0.862,1.801,0.982,2.7
				C26.567,119.695,27.568,119.703,27.483,119.065L27.483,119.065z"/>
		</g>
	</g>
	<g>
		<g>
			<path fill="#FFFFFF" d="M25.155,113.903c0.343-0.296,0.173-1.198,0.159-1.579c-0.039-1.087-0.04-2.171-0.04-3.259
				c0-0.161-0.25-0.161-0.25,0c0,0.9-0.028,1.805,0.014,2.704c0.018,0.376,0.261,1.681-0.06,1.958
				C24.856,113.832,25.033,114.008,25.155,113.903L25.155,113.903z"/>
		</g>
	</g>
	<g>
		<g>
			<path fill="#FFFFFF" d="M25.549,109.448c0.149-1.098,1.177-2.008,1.958-2.73c0.977-0.904,2.276-0.998,3.474-0.471
				c0.584,0.257,1.094-0.605,0.505-0.863c-1.289-0.566-2.77-0.677-4.005,0.083c-1.176,0.724-2.704,2.294-2.896,3.715
				C24.499,109.812,25.462,110.084,25.549,109.448L25.549,109.448z"/>
		</g>
	</g>
	<g>
		<g>
			<path fill="#FFFFFF" d="M31.254,106.273c1.189,0.098,2.329-0.303,3.495-0.505c1.185-0.205,2.509,2.068,3.277,2.796
				c0.467,0.443,1.176-0.263,0.707-0.707c-0.989-0.938-1.825-2.488-3.104-3.048c-1.237-0.542-3.053,0.574-4.375,0.464
				C30.611,105.22,30.616,106.221,31.254,106.273L31.254,106.273z"/>
		</g>
	</g>
	<g>
		<g>
			<path fill="#FFFFFF" d="M38.449,108.818c0.3-0.082,0.626,0,0.93,0.018c0.431,0.025,0.882-0.104,1.312-0.125
				c0.733-0.036,1.396-0.281,2.065-0.568c0.591-0.254,0.081-1.115-0.505-0.863c-0.746,0.32-1.427,0.382-2.218,0.494
				c-0.616,0.087-1.254-0.081-1.85,0.081C37.562,108.023,37.826,108.988,38.449,108.818L38.449,108.818z"/>
		</g>
	</g>
	<g>
		<g>
			<path fill="#FFFFFF" d="M42.858,107.482c-0.607-0.673-0.609-1.707-1.351-2.266c-0.516-0.388-1.013,0.481-0.505,0.863
				c0.244,0.184,0.316,0.683,0.446,0.95c0.202,0.417,0.39,0.812,0.703,1.16C42.583,108.67,43.288,107.96,42.858,107.482
				L42.858,107.482z"/>
		</g>
	</g>
	<g>
		<g>
			<path fill="#FFFFFF" d="M41.498,105.901c0.248-0.409,0.562-0.781,0.946-1.071c0.507-0.384,0.01-1.253-0.505-0.863
				c-0.525,0.397-0.963,0.865-1.304,1.429C40.3,105.949,41.165,106.451,41.498,105.901L41.498,105.901z"/>
		</g>
	</g>
	<g>
		<g>
			<path fill="#FFFFFF" d="M39.635,102.276c0.2,0.438,0.589,0.71,0.97,0.983c0.473,0.339,0.933,0.718,1.397,1.072
				c0.514,0.391,1.011-0.479,0.505-0.863c-0.367-0.279-0.732-0.543-1.087-0.837c-0.326-0.27-0.738-0.457-0.921-0.858
				C40.231,101.185,39.369,101.694,39.635,102.276L39.635,102.276z"/>
		</g>
	</g>
	<g>
		<g>
			<path fill="#FFFFFF" d="M41.838,104.045c-0.021,0.021-0.042,0.042-0.062,0.062c0.236,0.236,0.471,0.471,0.707,0.707
				c0.094-0.119,0.219-0.194,0.312-0.312c0.245-0.31,0.152-0.691-0.221-0.836c-0.095-0.026-0.181-0.072-0.256-0.137
				c-0.524-0.378-1.022,0.49-0.505,0.863c0.155,0.112,0.317,0.169,0.494,0.238c-0.074-0.279-0.147-0.557-0.221-0.836
				c-0.094,0.119-0.219,0.194-0.312,0.312c-0.389,0.493,0.239,1.175,0.707,0.707c0.021-0.021,0.042-0.042,0.062-0.062
				C43.001,104.296,42.294,103.588,41.838,104.045L41.838,104.045z"/>
		</g>
	</g>
	<g>
		<g>
			<path fill="#FFFFFF" d="M36.817,102.461c0.588,0.025,1.162,0.163,1.75,0.188c0.602,0.026,1.21,0,1.812,0c0.645,0,0.645-1,0-1
				c-0.604,0-1.208,0-1.812,0c-0.586,0-1.164-0.163-1.75-0.188C36.171,101.433,36.174,102.434,36.817,102.461L36.817,102.461z"/>
		</g>
	</g>
	<g>
		<g>
			<path fill="#FFFFFF" d="M32.334,97.219c0.177,0.795,1.044,1.476,1.554,2.071c0.45,0.525,0.9,1.05,1.35,1.575
				c0.373,0.435,0.6,0.948,1.038,1.325c0.486,0.419,1.196-0.285,0.707-0.707c-0.637-0.55-1.156-1.463-1.712-2.113
				c-0.375-0.438-0.75-0.875-1.125-1.312c-0.266-0.311-0.755-0.692-0.846-1.104C33.159,96.324,32.195,96.59,32.334,97.219
				L32.334,97.219z"/>
		</g>
	</g>
	<g>
		<g>
			<path fill="#FFFFFF" d="M33.236,96.828c-0.422-1.513-0.273-3.31-0.295-4.867c-0.021-1.522-0.093-3.041,0-4.562
				c0.039-0.644-0.961-0.641-1,0c-0.107,1.75-0.015,3.504,0.01,5.256c0.02,1.437-0.068,3.047,0.321,4.44
				C32.445,97.714,33.41,97.45,33.236,96.828L33.236,96.828z"/>
		</g>
	</g>
	<g>
		<g>
			<path fill="#FFFFFF" d="M27.713,82.689c0.707,0.898,1.45,1.794,2.206,2.65c0.363,0.412,0.797,0.75,1.161,1.163
				c0.272,0.309,0.739,0.732,0.93,1.085c0.307,0.567,1.17,0.062,0.863-0.505c-0.382-0.705-1.177-1.442-1.766-1.976
				c-0.995-0.903-1.856-2.069-2.688-3.125C28.021,81.476,27.319,82.189,27.713,82.689L27.713,82.689z"/>
		</g>
	</g>
	<g>
		<g>
			<path fill="#FFFFFF" d="M23.709,65.531c0.997,2.503,0.859,5.279,1.781,7.781c1.079,2.929,1.257,6.279,2.219,9.281
				c0.196,0.612,1.162,0.35,0.964-0.266c-0.962-3.003-1.14-6.352-2.219-9.281c-0.922-2.502-0.785-5.279-1.781-7.781
				C24.438,64.674,23.471,64.932,23.709,65.531L23.709,65.531z"/>
		</g>
	</g>
	<g>
		<g>
			<path fill="#FFFFFF" d="M20.439,64.268c0.52,0.292,1.022,0.614,1.548,0.896c0.628,0.337,1.323,0.522,1.952,0.854
				c0.57,0.301,1.075-0.562,0.505-0.863c-0.562-0.297-1.167-0.486-1.744-0.75c-0.612-0.28-1.17-0.672-1.756-1
				C20.381,63.089,19.877,63.952,20.439,64.268L20.439,64.268z"/>
		</g>
	</g>
	<g>
		<g>
			<path fill="#FFFFFF" d="M21.123,63.709c-1.041-2.429-1.396-5.106-2.387-7.568c-0.238-0.59-1.205-0.333-0.964,0.266
				c1.025,2.546,1.411,5.295,2.488,7.807C20.513,64.804,21.374,64.294,21.123,63.709L21.123,63.709z"/>
		</g>
	</g>
	<g>
		<g>
			<path fill="#FFFFFF" d="M15.692,56.648c0.376,0.007,0.75,0.041,1.125,0.059c0.383,0.018,0.747-0.011,1.117,0.111
				c0.614,0.202,0.876-0.764,0.266-0.964c-0.342-0.112-0.697-0.136-1.055-0.142c-0.485-0.008-0.968-0.054-1.453-0.063
				C15.046,55.636,15.047,56.636,15.692,56.648L15.692,56.648z"/>
		</g>
	</g>
	<g>
		<g>
			<path fill="#FFFFFF" d="M14.817,59.773c0.044-0.569,0.352-1.089,0.545-1.617c0.218-0.596,0.305-1.202,0.637-1.756
				c0.332-0.555-0.533-1.057-0.863-0.505c-0.336,0.561-0.499,1.177-0.677,1.801c-0.204,0.712-0.583,1.325-0.641,2.077
				C13.767,60.417,14.767,60.412,14.817,59.773L14.817,59.773z"/>
		</g>
	</g>
	<g>
		<g>
			<path fill="#FFFFFF" d="M13.754,59.711c0.352,2.852,0.222,5.873,0.083,8.737c-0.167,3.433,0.078,7.012,0.229,10.45
				c0.028,0.642,1.028,0.645,1,0c-0.139-3.162-0.334-6.428-0.269-9.588c0.066-3.176,0.347-6.436-0.044-9.6
				C14.676,59.079,13.675,59.072,13.754,59.711L13.754,59.711z"/>
		</g>
	</g>
	<g>
		<g>
			<path fill="#FFFFFF" d="M14.502,78.404c-0.042,0.021-0.083,0.042-0.125,0.062c-0.239,0.12-0.316,0.464-0.179,0.684
				c0.314,0.507,0.851,0.74,1.367,0.992c0.577,0.282,1.084-0.58,0.505-0.863c-0.329-0.161-0.807-0.308-1.008-0.633
				c-0.06,0.228-0.12,0.456-0.179,0.684c0.042-0.021,0.083-0.042,0.125-0.062C15.583,78.979,15.077,78.117,14.502,78.404
				L14.502,78.404z"/>
		</g>
	</g>
	<g>
		<g>
			<path fill="#FFFFFF" d="M14.858,82.002c0.645-0.572,1.351-1.307,1.334-2.229c-0.012-0.644-1.012-0.645-1,0
				c0.012,0.625-0.613,1.141-1.041,1.521C13.667,81.724,14.377,82.428,14.858,82.002L14.858,82.002z"/>
		</g>
	</g>
	<g>
		<g>
			<path fill="#FFFFFF" d="M13.772,81.719c0.152,0.73,0.306,1.226,1.128,1.314c0.321,0.034,0.645-0.051,0.96,0.027
				c-0.139-0.21-0.195-0.247-0.17-0.11c0.001,0.099,0.003,0.198,0.007,0.297c0.009,0.301,0.05,0.6,0.058,0.901
				c0.016,0.644,1.016,0.645,1,0c-0.011-0.434-0.041-0.874-0.073-1.307c-0.024-0.331-0.181-0.591-0.492-0.719
				c-0.319-0.132-0.678-0.092-1.013-0.084c-0.092,0.002-0.184,0-0.276-0.006c-0.127-0.028-0.141-0.027-0.043,0.002
				c-0.074-0.18-0.081-0.393-0.12-0.582C14.605,80.822,13.641,81.09,13.772,81.719L13.772,81.719z"/>
		</g>
	</g>
	<g>
		<g>
			<path fill="#FFFFFF" d="M16.192,83.773c-0.042,0-0.083,0-0.125,0c-0.458,0-0.632,0.534-0.354,0.854
				c0.545,0.625,1.315,0.804,1.99,1.254c0.408,0.272,0.794,0.569,1.215,0.819c0.422,0.25,0.914,0.358,1.295,0.677
				c0.491,0.411,1.202-0.293,0.707-0.707c-0.656-0.549-1.507-0.859-2.226-1.328c-0.406-0.265-0.797-0.544-1.228-0.767
				c-0.406-0.21-0.733-0.297-1.046-0.655c-0.118,0.285-0.236,0.569-0.354,0.854c0.042,0,0.083,0,0.125,0
				C16.836,84.773,16.836,83.773,16.192,83.773L16.192,83.773z"/>
		</g>
	</g>
	<g>
		<g>
			<path fill="#FFFFFF" d="M20.129,86.961c0.095,3.152,0.609,6.227,0.611,9.393c0.002,2.547-0.1,5.433,0.3,7.945
				c0.485,3.045,0.864,6.196,0.969,9.275c0.09,2.644,0.129,5.732,1.5,8.076c0.325,0.556,1.19,0.053,0.863-0.505
				c-1.558-2.663-1.287-6.259-1.433-9.235c-0.137-2.805-0.655-5.6-0.997-8.386c-0.283-2.305-0.139-4.839-0.203-7.171
				c-0.087-3.149-0.517-6.253-0.611-9.393C21.11,86.318,20.11,86.316,20.129,86.961L20.129,86.961z"/>
		</g>
	</g>
	<g>
		<g>
			<path fill="#FFFFFF" d="M16.879,122.211c2.423,0.291,4.898-0.289,7.312-0.375c0.643-0.023,0.645-1.023,0-1
				c-2.416,0.086-4.89,0.666-7.312,0.375C16.24,121.134,16.247,122.135,16.879,122.211L16.879,122.211z"/>
		</g>
	</g>
	<g>
		<g>
			<path fill="#FFFFFF" d="M5.194,122.08c0.297-0.16,0.851,0.057,1.171,0.104c0.403,0.059,0.805,0.03,1.208,0
				c0.894-0.067,1.791-0.167,2.681-0.223c0.64-0.04,0.644-1.041,0-1c-1.013,0.064-2.025,0.174-3.041,0.25
				c-0.845,0.063-1.736-0.419-2.524,0.005C4.121,121.522,4.626,122.386,5.194,122.08L5.194,122.08z"/>
		</g>
	</g>
	<g>
		<g>
			<path fill="#FFFFFF" d="M17.379,123.836c0-0.671,0.039-1.331,0.062-2c0.022-0.645-0.978-0.643-1,0
				c-0.023,0.669-0.062,1.329-0.062,2C16.379,124.481,17.379,124.481,17.379,123.836L17.379,123.836z"/>
		</g>
	</g>
	<g>
		<g>
			<path fill="#FFFFFF" d="M14.567,126.273c0,0.021,0,0.042,0,0.062c0,0.406,0.566,0.703,0.854,0.354
				c0.715-0.867,1.633-1.6,2.066-2.658c0.244-0.597-0.723-0.854-0.964-0.266c-0.181,0.442-0.504,0.816-0.859,1.128
				c-0.36,0.317-0.647,0.72-0.95,1.088c0.285,0.118,0.569,0.236,0.854,0.354c0-0.021,0-0.042,0-0.062
				C15.567,125.629,14.567,125.629,14.567,126.273L14.567,126.273z"/>
		</g>
	</g>
	<g>
		<g>
			<path fill="#FFFFFF" d="M14.504,126.336c0,0.311,0,0.621-0.045,0.93c-0.091,0.63,0.873,0.902,0.964,0.266
				c0.058-0.4,0.08-0.792,0.08-1.195C15.505,125.691,14.505,125.691,14.504,126.336L14.504,126.336z"/>
		</g>
	</g>
	<g>
		<g>
			<path fill="#FFFFFF" d="M14.334,127.531c0.224,0.673,0.673,1.185,1.091,1.744c0.456,0.61,0.779,1.265,1.35,1.789
				c0.474,0.435,1.183-0.27,0.707-0.707c-0.455-0.417-0.755-0.915-1.084-1.43c-0.358-0.56-0.885-1.018-1.1-1.662
				C15.096,126.657,14.13,126.918,14.334,127.531L14.334,127.531z"/>
		</g>
	</g>
	<g>
		<path fill="none" stroke="#FFFFFF" stroke-miterlimit="10" d="M20.317,143.728c-1.175-0.804-2.798-1.765-2.688-3.517
			c0.052-0.831-0.09-1.658-0.207-2.477c-0.324-2.282-0.724-4.622-0.11-6.865c0.043-0.156-0.199-0.222-0.241-0.066
			c-0.8,2.923,0.009,5.632,0.303,8.602c0.105,1.057-0.199,1.705,0.42,2.612c0.538,0.788,1.612,1.391,2.396,1.928
			C20.324,144.035,20.449,143.818,20.317,143.728L20.317,143.728z"/>
	</g>
	<g>
		<path fill="none" stroke="#FFFFFF" stroke-miterlimit="10" d="M10.084,147.399c0.797,1.069,1.724,2.068,2.582,3.088
			c0.398,0.473,0.844,0.898,1.267,1.348c0.481,0.512,0.758,1.126,1.295,1.589c0.121,0.105,0.299-0.071,0.177-0.177
			c-0.845-0.73-1.552-1.833-2.33-2.661c-0.959-1.02-1.939-2.192-2.776-3.314C10.204,147.145,9.987,147.27,10.084,147.399
			L10.084,147.399z"/>
	</g>
	<g>
		<path fill="none" stroke="#FFFFFF" stroke-miterlimit="10" d="M15.412,153.581c2.534-0.585,5.129-0.917,7.562-1.875
			c0.148-0.058,0.084-0.3-0.066-0.241c-2.433,0.957-5.03,1.291-7.562,1.875C15.189,153.377,15.255,153.618,15.412,153.581
			L15.412,153.581z"/>
	</g>
	<g>
		<g>
			<path fill="#FFFFFF" d="M23.567,151.523c-0.021-0.327,0.151-0.648,0.213-0.967c0.064-0.33,0.114-0.659,0.17-0.989
				c0.091-0.539,0.145-1.035-0.076-1.547c-0.255-0.591-1.116-0.081-0.863,0.505c0.161,0.374-0.063,1.162-0.145,1.544
				c-0.102,0.473-0.33,0.966-0.298,1.454C22.608,152.164,23.608,152.168,23.567,151.523L23.567,151.523z"/>
		</g>
	</g>
	<g>
		<path fill="none" stroke="#FFFFFF" stroke-miterlimit="10" d="M10.25,147.494c0.389-1.785,0.127-3.17-0.638-4.784
			c-0.854-1.801-1.085-3.795-1.875-5.625c-0.064-0.148-0.279-0.02-0.216,0.126c0.607,1.406,0.87,2.879,1.321,4.327
			c0.641,2.057,1.665,3.599,1.167,5.89C9.974,147.585,10.215,147.652,10.25,147.494L10.25,147.494z"/>
	</g>
	<g>
		<path fill="none" stroke="#FFFFFF" stroke-miterlimit="10" d="M7.817,137.273c-0.218-4.056,1.442-7.973,1.625-12
			c0.007-0.161-0.243-0.161-0.25,0c-0.183,4.022-1.843,7.943-1.625,12C7.575,137.434,7.825,137.435,7.817,137.273L7.817,137.273z"/>
	</g>
	<g>
		<g>
			<path fill="#FFFFFF" d="M9.67,125.689c0.177-0.138,0.472-0.206,0.673-0.316c0.221-0.121,0.422-0.3,0.577-0.496
				c0.397-0.499-0.306-1.212-0.707-0.707c-0.331,0.417-0.846,0.498-1.25,0.812C8.454,125.378,9.168,126.08,9.67,125.689
				L9.67,125.689z"/>
		</g>
	</g>
	<g>
		<g>
			<path fill="#FFFFFF" d="M11.067,124.648c0.012-1.11,0.027-2.203,0-3.312c-0.015-0.644-1.016-0.645-1,0
				c0.027,1.109,0.012,2.202,0,3.312C10.06,125.293,11.06,125.293,11.067,124.648L11.067,124.648z"/>
		</g>
	</g>
	<g>
		<g>
			<path fill="#FFFFFF" d="M2.192,89.086c0,5.606,0.351,11.179,0.849,16.76c0.473,5.309,0.679,10.617,1.419,15.873
				c0.09,0.636,1.053,0.365,0.964-0.266c-0.728-5.17-0.944-10.386-1.384-15.607c-0.47-5.586-0.849-11.151-0.849-16.76
				C3.192,88.441,2.192,88.441,2.192,89.086L2.192,89.086z"/>
		</g>
	</g>
	<g>
		<g>
			<path fill="#FFFFFF" d="M2.819,89.268c0.739-0.447,1.491-0.843,2.25-1.25c0.476-0.255,0.893-0.629,1.352-0.914
				c0.472-0.293,1.016-0.26,1.461-0.586c0.515-0.377,0.017-1.245-0.505-0.863c-0.33,0.241-0.778,0.252-1.14,0.429
				c-0.509,0.249-0.968,0.577-1.423,0.914c-0.75,0.555-1.697,0.922-2.5,1.407C1.763,88.737,2.266,89.602,2.819,89.268L2.819,89.268z
				"/>
		</g>
	</g>
	<g>
		<g>
			<path fill="#FFFFFF" d="M6.709,83.453c-0.169,0.426,0.084,0.783,0.242,1.172c0.2,0.492,0.289,1.025,0.445,1.531
				c0.19,0.614,1.155,0.352,0.964-0.266c-0.128-0.414-0.232-0.837-0.349-1.255c-0.053-0.191-0.409-0.741-0.339-0.917
				C7.911,83.118,6.944,82.861,6.709,83.453L6.709,83.453z"/>
		</g>
	</g>
	<g>
		<g>
			<path fill="#FFFFFF" d="M6.942,84.023c0.652-0.023,1.219-0.357,1.82-0.58c0.599-0.223,0.34-1.19-0.266-0.964
				c-0.482,0.179-1.041,0.526-1.555,0.545C6.299,83.046,6.296,84.046,6.942,84.023L6.942,84.023z"/>
		</g>
	</g>
	<g>
		<g>
			<path fill="#FFFFFF" d="M9.049,83.015c-0.364-1.943-0.698-3.599-0.439-5.58c0.253-1.94,0.297-3.925,0.689-5.842
				c0.129-0.629-0.835-0.897-0.964-0.266c-0.449,2.199-0.484,4.466-0.812,6.688c-0.271,1.828,0.226,3.466,0.562,5.266
				C8.203,83.915,9.167,83.646,9.049,83.015L9.049,83.015z"/>
		</g>
	</g>
	<g>
		<g>
			<path fill="#FFFFFF" d="M6.192,71.273c0.371-0.018,0.731,0.285,1.06,0.432c0.471,0.21,0.953,0.361,1.432,0.55
				c0.6,0.238,0.858-0.729,0.266-0.964c-0.509-0.202-1.02-0.348-1.507-0.605c-0.388-0.205-0.799-0.435-1.251-0.413
				C5.55,70.305,5.547,71.305,6.192,71.273L6.192,71.273z"/>
		</g>
	</g>
	<g>
		<g>
			<path fill="#FFFFFF" d="M6.504,70.648c0.023-2.144-0.175-4.019-0.456-6.141c-0.098-0.743-0.311-1.456-0.499-2.179
				c-0.246-0.945,1.15-1.787,1.621-2.389c0.393-0.501-0.31-1.214-0.707-0.707c-0.684,0.873-2.281,1.553-1.988,2.869
				c0.64,2.879,1.061,5.582,1.029,8.547C5.497,71.294,6.497,71.293,6.504,70.648L6.504,70.648z"/>
		</g>
	</g>
	<g>
		<g>
			<path fill="#FFFFFF" d="M4.252,57.955c0.878,0.655,1.493,1.593,2.375,2.25c0.518,0.386,1.015-0.483,0.505-0.863
				c-0.878-0.655-1.493-1.593-2.375-2.25C4.239,56.706,3.741,57.575,4.252,57.955L4.252,57.955z"/>
		</g>
	</g>
	<g>
		<g>
			<path fill="#FFFFFF" d="M4.879,57.336c0-1.226-0.017-2.451-0.026-3.677c-0.004-0.592,0.522-0.578,0.904-0.767
				c0.578-0.285,1.119-0.633,1.688-0.938c0.569-0.304,0.064-1.168-0.505-0.863c-0.681,0.364-1.316,0.793-2.04,1.07
				C4.562,52.29,4.211,52.477,4.022,52.8c-0.28,0.477-0.17,1.158-0.152,1.677c0.034,0.951,0.009,1.907,0.009,2.858
				C3.879,57.981,4.879,57.981,4.879,57.336L4.879,57.336z"/>
		</g>
	</g>
	<g>
		<g>
			<path fill="#FFFFFF" d="M3.322,36.838c1.309,2.401,2.397,5.159,2.737,7.879c0.271,2.17,0.064,4.762,0.9,6.814
				c0.24,0.589,1.208,0.332,0.964-0.266c-0.943-2.314-0.553-5.194-1-7.625c-0.461-2.506-1.522-5.079-2.738-7.307
				C3.877,35.767,3.013,36.272,3.322,36.838L3.322,36.838z"/>
		</g>
	</g>
	<g>
		<g>
			<path fill="#FFFFFF" d="M4.061,37.151c0.612-0.83,1.359-1.716,1.738-2.682c0.236-0.601-0.732-0.859-0.964-0.266
				c-0.152,0.388-0.439,0.759-0.685,1.093c-0.327,0.443-0.625,0.907-0.952,1.35C2.814,37.166,3.682,37.663,4.061,37.151
				L4.061,37.151z"/>
		</g>
	</g>
	<g>
		<g>
			<path fill="#FFFFFF" d="M3.322,31.026c0.555,1.181,1.07,2.381,1.625,3.563c0.274,0.583,1.136,0.075,0.863-0.505
				c-0.555-1.181-1.07-2.381-1.625-3.563C3.912,29.938,3.05,30.446,3.322,31.026L3.322,31.026z"/>
		</g>
	</g>
	<g>
		<g>
			<path fill="#FFFFFF" d="M4.137,30.756c1.196-0.491,2.781-0.335,4.076-0.587c1.459-0.284,2.79,0.07,4.229-0.02
				c0.64-0.04,0.644-1.04,0-1c-1.328,0.083-2.567-0.274-3.913-0.044c-1.478,0.253-3.268,0.116-4.657,0.686
				C3.283,30.033,3.54,31.001,4.137,30.756L4.137,30.756z"/>
		</g>
	</g>
	<g>
		<g>
			<path fill="#FFFFFF" d="M13.004,29.273c0.154-1.674,0.591-3.439,1.232-4.992c0.246-0.596-0.722-0.853-0.964-0.266
				c-0.677,1.64-1.106,3.49-1.268,5.258C11.945,29.916,12.946,29.91,13.004,29.273L13.004,29.273z"/>
		</g>
	</g>
	<g>
		<g>
			<path fill="#FFFFFF" d="M13.879,24.711c1.196,0.02,2.318,0.06,3.481-0.253c0.925-0.249,2.3-0.538,3.269-0.434
				c0.641,0.069,0.634-0.932,0-1c-0.869-0.093-1.831,0.195-2.695,0.315c-1.391,0.193-2.638,0.396-4.055,0.373
				C13.234,23.7,13.235,24.7,13.879,24.711L13.879,24.711z"/>
		</g>
	</g>
	<g>
		<g>
			<path fill="#FFFFFF" d="M20.795,23.814c0.021-0.021,0.042-0.042,0.062-0.062c-0.279-0.074-0.557-0.147-0.836-0.221
				c0.596,2.204,0.249,4.608,0.938,6.812c0.192,0.613,1.157,0.351,0.964-0.266c-0.689-2.206-0.34-4.604-0.938-6.812
				c-0.098-0.364-0.571-0.486-0.836-0.221c-0.021,0.021-0.042,0.042-0.062,0.062C19.632,23.564,20.339,24.271,20.795,23.814
				L20.795,23.814z"/>
		</g>
	</g>
	<g>
		<g>
			<path fill="#FFFFFF" d="M21.694,30.705c2.191-0.962,4.615-1.407,6.818-2.325c-0.205-0.116-0.41-0.233-0.615-0.349
				c0.377,1.266,0.986,2.662,1.941,3.596c0.461,0.451,1.169-0.256,0.707-0.707c-0.821-0.802-1.364-2.082-1.684-3.154
				c-0.07-0.236-0.359-0.456-0.615-0.349c-2.288,0.953-4.778,1.425-7.057,2.425C20.6,30.1,21.109,30.962,21.694,30.705
				L21.694,30.705z"/>
		</g>
	</g>
	<g>
		<g>
			<path fill="#FFFFFF" d="M30.92,31.439c0.518-0.63,1.647-0.936,2.368-1.266c1.001-0.458,1.96-1.073,2.974-1.481
				c0.59-0.238,0.333-1.205-0.266-0.964c-1.103,0.444-2.126,1.087-3.213,1.582c-0.82,0.373-1.981,0.705-2.57,1.422
				C29.807,31.226,30.51,31.938,30.92,31.439L30.92,31.439z"/>
		</g>
	</g>
	<g>
		<g>
			<path fill="#FFFFFF" d="M35.689,28.58c0.394,0.195,0.695,0.509,1.05,0.762c0.31,0.221,0.666,0.367,0.896,0.684
				c0.375,0.517,1.243,0.018,0.863-0.505c-0.276-0.38-0.591-0.629-0.992-0.867c-0.465-0.276-0.824-0.695-1.312-0.938
				C35.618,27.431,35.111,28.294,35.689,28.58L35.689,28.58z"/>
		</g>
	</g>
	<g>
		<g>
			<path fill="#FFFFFF" d="M38.324,30.506c0.608-0.183,1.398-0.12,2.036-0.195c0.782-0.091,1.538-0.38,2.331-0.288
				c0.64,0.075,0.633-0.926,0-1c-0.812-0.095-1.535,0.197-2.331,0.288c-0.737,0.083-1.597,0.017-2.302,0.23
				C37.443,29.727,37.705,30.692,38.324,30.506L38.324,30.506z"/>
		</g>
	</g>
	<g>
		<g>
			<path fill="#FFFFFF" d="M41.254,26.211c0.025,1.144,0.37,2.196,0.768,3.258c0.224,0.598,1.191,0.339,0.964-0.266
				c-0.365-0.974-0.709-1.941-0.732-2.992C42.24,25.567,41.24,25.566,41.254,26.211L41.254,26.211z"/>
		</g>
	</g>
	<g>
		<g>
			<path fill="#FFFFFF" d="M41.496,26.568c0.779,0.13,1.316-0.456,1.948-0.8c0.566-0.309,0.061-1.173-0.505-0.863
				c-0.19,0.104-0.365,0.231-0.544,0.353c-0.129,0.088-0.465,0.375-0.633,0.347C41.131,25.499,40.861,26.462,41.496,26.568
				L41.496,26.568z"/>
		</g>
	</g>
	<g>
		<g>
			<path fill="#FFFFFF" d="M41.317,19.711c0.05,0.857,0.328,1.629,0.598,2.437c0.325,0.976,0.498,2.059,0.67,3.071
				c0.108,0.635,1.072,0.365,0.964-0.266c-0.139-0.813-0.319-1.631-0.5-2.438c-0.213-0.949-0.675-1.822-0.732-2.805
				C42.279,19.07,41.279,19.066,41.317,19.711L41.317,19.711z"/>
		</g>
	</g>
	<g>
		<g>
			<path fill="#FFFFFF" d="M40.637,20.131c0.371-0.135,0.854,0.117,1.242,0.143c0.644,0.043,0.64-0.958,0-1
				c-0.519-0.034-0.984-0.298-1.508-0.107C39.77,19.385,40.03,20.352,40.637,20.131L40.637,20.131z"/>
		</g>
	</g>
	<g>
		<g>
			<path fill="#FFFFFF" d="M39.772,15.969c0.131,0.435-0.022,1.026,0.013,1.484c0.056,0.71,0.144,1.42,0.156,2.133
				c0.011,0.644,1.011,0.645,1,0c-0.013-0.713-0.098-1.423-0.156-2.133c-0.047-0.573,0.118-1.197-0.049-1.75
				C40.55,15.087,39.585,15.35,39.772,15.969L39.772,15.969z"/>
		</g>
	</g>
	<g>
		<g>
			<path fill="#FFFFFF" d="M40.254,15.336c-0.021,0-0.042,0-0.062,0c0.044,0.327,0.089,0.655,0.133,0.982
				c0.345-0.09,0.702-0.064,1.055-0.107c0.632-0.077,0.639-1.078,0-1c-0.443,0.054-0.885,0.029-1.32,0.143
				c-0.55,0.144-0.43,0.982,0.133,0.982c0.021,0,0.042,0,0.062,0C40.899,16.336,40.899,15.336,40.254,15.336L40.254,15.336z"/>
		</g>
	</g>
	<g>
		<g>
			<path fill="#FFFFFF" d="M41.623,15.838c0.256-0.579,0.152-1.193,0.1-1.808c-0.098-1.169-0.094-2.335-0.094-3.507
				c0-0.645-1-0.645-1,0c0,0.808-0.037,1.626,0.031,2.431c0.049,0.579,0.348,1.818,0.1,2.379
				C40.501,15.918,41.363,16.427,41.623,15.838L41.623,15.838z"/>
		</g>
	</g>
	<g>
		<g>
			<path fill="#FFFFFF" d="M41.549,10.719c0.503-1.699,1.894-3.012,3.013-4.326c1.278-1.501,2.831-2.327,4.508-3.251
				c0.565-0.311,0.06-1.175-0.505-0.863c-1.791,0.987-3.288,1.856-4.71,3.407c-1.266,1.38-2.728,2.937-3.27,4.767
				C40.401,11.073,41.366,11.336,41.549,10.719L41.549,10.719z"/>
		</g>
	</g>
	<g>
		<g>
			<path fill="#FFFFFF" d="M48.817,3.086c0.514-0.068,0.85-0.388,1.188-0.762c0.426-0.471,0.826-0.956,1.228-1.447
				c0.405-0.494-0.298-1.206-0.707-0.707c-0.31,0.378-0.599,0.772-0.938,1.125C49.42,1.47,49.06,2.054,48.817,2.086
				C48.187,2.169,48.179,3.17,48.817,3.086L48.817,3.086z"/>
		</g>
	</g>
	<g>
		<g>
			<path fill="#FFFFFF" d="M50.754,1.148c0.986-0.013,1.823,0.706,2.742,0.982c0.619,0.186,0.882-0.779,0.266-0.964
				c-1.032-0.31-1.885-1.032-3.008-1.018C50.11,0.157,50.109,1.157,50.754,1.148L50.754,1.148z"/>
		</g>
	</g>
	<g>
		<g>
			<path fill="#FFFFFF" d="M52.942,1.586c-0.006,0.635-0.038,1.255,0.08,1.883c0.119,0.633,1.083,0.364,0.964-0.266
				c-0.1-0.533-0.05-1.079-0.045-1.617C53.948,0.941,52.948,0.941,52.942,1.586L52.942,1.586z"/>
		</g>
	</g>
	<g>
		<g>
			<path fill="#FFFFFF" d="M53.809,3.756c5.307,2.015,6.056,6.557,7.338,11.463c0.163,0.623,1.128,0.359,0.964-0.266
				c-0.755-2.888-1.199-5.528-2.675-8.18c-1.076-1.935-3.36-3.222-5.362-3.982C53.47,2.562,53.212,3.529,53.809,3.756L53.809,3.756z
				"/>
		</g>
	</g>
	<g>
		<g>
			<path fill="#FFFFFF" d="M61.022,15.219c0.173,0.68,1.063,1.017,1.566,1.408c0.502,0.391,1.216-0.311,0.707-0.707
				c-0.221-0.172-0.444-0.338-0.675-0.495c-0.138-0.094-0.587-0.287-0.634-0.472C61.828,14.328,60.863,14.593,61.022,15.219
				L61.022,15.219z"/>
		</g>
	</g>
	<g>
		<g>
			<path fill="#FFFFFF" d="M62.361,20.265c-0.106-0.587,0.273-1.388,0.457-1.941c0.197-0.593,0.34-1.239,0.618-1.799
				c0.286-0.576-0.577-1.082-0.863-0.505c-0.321,0.648-0.474,1.359-0.718,2.037c-0.285,0.791-0.609,1.63-0.457,2.473
				C61.511,21.165,62.475,20.896,62.361,20.265L62.361,20.265z"/>
		</g>
	</g>
	<g>
		<g>
			<path fill="#FFFFFF" d="M61.334,20.14c-0.128,0.579-0.142,1.167-0.143,1.758c-0.001,0.645,0.999,0.645,1,0
				c0-0.5-0.001-1.001,0.107-1.492C62.437,19.778,61.473,19.511,61.334,20.14L61.334,20.14z"/>
		</g>
	</g>
	<g>
		<g>
			<path fill="#FFFFFF" d="M61.147,22.031c0.145,0.507,0.448,0.898,0.78,1.298c0.376,0.452,0.581,1.014,0.895,1.509
				c0.345,0.543,1.21,0.041,0.863-0.505c-0.28-0.441-0.464-0.952-0.777-1.369c-0.29-0.387-0.661-0.722-0.798-1.199
				C61.934,21.146,60.969,21.41,61.147,22.031L61.147,22.031z"/>
		</g>
	</g>
	<g>
		<g>
			<path fill="#FFFFFF" d="M62.567,29.273c0.05-0.863,0.403-1.66,0.607-2.492c0.161-0.656,0.235-1.349,0.575-1.943
				c0.32-0.561-0.544-1.064-0.863-0.505c-0.388,0.68-0.489,1.432-0.675,2.182c-0.23,0.925-0.587,1.798-0.643,2.758
				C61.529,29.918,62.529,29.914,62.567,29.273L62.567,29.273z"/>
		</g>
	</g>
	<g>
		<g>
			<path fill="#FFFFFF" d="M61.504,29.148c0.022,0.404,0.142,0.727,0.396,1.041c0.407,0.501,1.11-0.211,0.707-0.707
				c-0.078-0.096-0.097-0.216-0.104-0.334C62.47,28.507,61.47,28.504,61.504,29.148L61.504,29.148z"/>
		</g>
	</g>
	<g>
		<g>
			<path fill="#FFFFFF" d="M62.381,29.592c-0.042-0.021-0.083-0.042-0.125-0.062c-0.084,0.311-0.168,0.621-0.252,0.932
				c1.055,0.059,1.927,0.199,2.993,0.082c0.853-0.094,2.289-0.351,3.124-0.162c0.628,0.142,0.895-0.822,0.266-0.964
				c-0.965-0.219-2.024,0.102-3.008,0.107c-0.52,0.003-1.038,0.099-1.556,0.136c-0.593,0.042-1.223-0.165-1.819-0.199
				c-0.489-0.027-0.694,0.711-0.252,0.932c0.042,0.021,0.083,0.042,0.125,0.062C62.452,30.743,62.958,29.88,62.381,29.592
				L62.381,29.592z"/>
		</g>
	</g>
	<g>
		<g>
			<path fill="#FFFFFF" d="M68.002,29.342c-0.042,0.021-0.083,0.042-0.125,0.062c-0.393,0.196-0.283,0.81,0.119,0.914
				c0.486,0.125,0.933-0.333,1.262-0.623c0.384-0.337,0.739-0.706,1.099-1.069c0.455-0.458-0.252-1.165-0.707-0.707
				c-0.257,0.259-0.512,0.518-0.776,0.77c-0.156,0.15-0.317,0.295-0.481,0.435c-0.061,0.052-0.122,0.1-0.186,0.146
				c-0.161,0.116-0.14,0.032,0.055,0.082c0.04,0.305,0.08,0.609,0.119,0.914c0.042-0.021,0.083-0.042,0.125-0.062
				C69.083,29.917,68.577,29.054,68.002,29.342L68.002,29.342z"/>
		</g>
	</g>
	<g>
		<g>
			<path fill="#FFFFFF" d="M69.684,28.693c1.12,0.323,2.269-0.075,3.414-0.068c1.616,0.009,3.169-0.007,4.781,0.086
				c0.645,0.037,0.641-0.963,0-1c-1.286-0.074-2.458-0.137-3.75-0.062c-0.685,0.039-1.375-0.035-2.062,0
				c-0.74,0.038-1.364,0.298-2.117,0.08C69.328,27.549,69.065,28.515,69.684,28.693L69.684,28.693z"/>
		</g>
	</g>
	<g>
		<g>
			<path fill="#FFFFFF" d="M77.385,28.276c0.128,0.267,0.244,0.538,0.374,0.804c0.131,0.265,0.338,0.491,0.45,0.764
				c0.241,0.588,1.209,0.331,0.964-0.266c-0.254-0.62-0.634-1.199-0.925-1.807C77.969,27.19,77.107,27.697,77.385,28.276
				L77.385,28.276z"/>
		</g>
	</g>
	<g>
		<g>
			<path fill="#FFFFFF" d="M78.213,29.17c-0.021,0.021-0.042,0.042-0.062,0.062c-0.314,0.314-0.078,0.844,0.354,0.854
				c0.411,0.009,0.794,0.025,1.195-0.08c0.623-0.164,0.359-1.128-0.266-0.964c-0.31,0.081-0.612,0.052-0.93,0.045
				c0.118,0.285,0.236,0.569,0.354,0.854c0.021-0.021,0.042-0.042,0.062-0.062C79.376,29.421,78.669,28.713,78.213,29.17
				L78.213,29.17z"/>
		</g>
	</g>
	<g>
		<g>
			<path fill="#FFFFFF" d="M79.924,29.781c0.171-0.421,0.678-0.668,0.996-0.967c0.471-0.442-0.238-1.148-0.707-0.707
				c-0.491,0.461-0.991,0.758-1.254,1.408C78.717,30.114,79.685,30.371,79.924,29.781L79.924,29.781z"/>
		</g>
	</g>
	<g>
		<g>
			<path fill="#FFFFFF" d="M80.629,28.961c0.676,0.051,1.374-0.104,2.008-0.33c0.603-0.215,0.343-1.182-0.266-0.964
				c-0.559,0.2-1.146,0.34-1.742,0.295C79.985,27.912,79.99,28.913,80.629,28.961L80.629,28.961z"/>
		</g>
	</g>
	<g>
		<g>
			<path fill="#FFFFFF" d="M83.004,28.273c0-0.625,0-1.25,0-1.875c0-0.645-1-0.645-1,0c0,0.625,0,1.25,0,1.875
				C82.004,28.918,83.004,28.918,83.004,28.273L83.004,28.273z"/>
		</g>
	</g>
	<g>
		<g>
			<path fill="#FFFFFF" d="M82.387,27.193c2.862-0.592,6.026-0.239,8.93-0.295c0.644-0.012,0.645-1.012,0-1
				c-2.989,0.057-6.245-0.28-9.195,0.33C81.49,26.359,81.758,27.323,82.387,27.193L82.387,27.193z"/>
		</g>
	</g>
	<g>
		<g>
			<path fill="#FFFFFF" d="M91.942,26.273c0.022-0.676,0.169-1.33,0.295-1.992c0.097-0.512,0.128-1.007,0.312-1.5
				c0.227-0.605-0.74-0.864-0.964-0.266c-0.215,0.572-0.249,1.166-0.362,1.76c-0.126,0.665-0.259,1.319-0.281,1.997
				C90.921,26.919,91.921,26.917,91.942,26.273L91.942,26.273z"/>
		</g>
	</g>
	<g>
		<g>
			<path fill="#FFFFFF" d="M92.137,23.318c0.641-0.173,1.455-0.045,2.117-0.045c0.709,0,1.416-0.054,2.125-0.062
				c0.644-0.007,0.645-1.007,0-1c-0.807,0.009-1.612,0.062-2.418,0.062c-0.685,0-1.425-0.099-2.089,0.08
				C91.249,22.521,91.513,23.486,92.137,23.318L92.137,23.318z"/>
		</g>
	</g>
	<g>
		<g>
			<path fill="#FFFFFF" d="M95.879,22.773c0.078,0.758,0.392,1.49,0.679,2.191c0.227,0.557,0.338,1.164,0.78,1.601
				c0.459,0.453,1.166-0.253,0.707-0.707c-0.33-0.326-0.432-0.936-0.605-1.36c-0.218-0.533-0.501-1.146-0.561-1.724
				C96.814,22.138,95.813,22.132,95.879,22.773L95.879,22.773z"/>
		</g>
	</g>
	<g>
		<g>
			<path fill="#FFFFFF" d="M97.629,26.836c0.42-0.052,0.797,0.154,1.18,0.295c0.402,0.148,0.988,0.146,1.406,0.22
				c0.931,0.165,1.771,0.487,2.657,0.78c0.614,0.203,0.875-0.763,0.266-0.964c-0.433-0.143-0.742-0.359-1.188-0.459
				c-0.603-0.135-1.214-0.276-1.822-0.384c-0.446-0.079-0.877-0.093-1.303-0.25c-0.399-0.147-0.767-0.291-1.195-0.238
				C96.998,25.915,96.99,26.916,97.629,26.836L97.629,26.836z"/>
		</g>
	</g>
	<g>
		<g>
			<path fill="#FFFFFF" d="M101.879,31.711c0,0.042,0,0.083,0,0.125c0,0.645,1,0.645,1,0c0-0.042,0-0.083,0-0.125
				C102.879,31.066,101.879,31.066,101.879,31.711L101.879,31.711z"/>
		</g>
	</g>
	<g>
		<g>
			<path fill="#FFFFFF" d="M102.817,32.086c0.065-0.53,0.131-1.059,0.194-1.589c0.108-0.914,0.04-1.953,0.288-2.84
				c0.174-0.622-0.791-0.886-0.964-0.266c-0.215,0.77-0.191,1.667-0.26,2.463c-0.065,0.746-0.166,1.489-0.257,2.232
				C101.738,32.725,102.739,32.717,102.817,32.086L102.817,32.086z"/>
		</g>
	</g>
	<g>
		<g>
			<path fill="#FFFFFF" d="M102.192,32.711c0.525-0.026,1.168,0.262,1.677,0.399c0.626,0.168,1.323,0.189,1.884,0.533
				c0.551,0.338,1.053-0.527,0.505-0.863c-0.597-0.366-1.224-0.373-1.875-0.562c-0.393-0.114-0.816-0.167-1.195-0.318
				c-0.325-0.13-0.646-0.205-0.995-0.188C101.55,31.743,101.547,32.743,102.192,32.711L102.192,32.711z"/>
		</g>
	</g>
	<g>
		<g>
			<path fill="#FFFFFF" d="M105.584,33.015c-0.33,1.221,0.106,2.972,0.305,4.172c0.403,2.432,1.191,4.804,1.695,7.219
				c0.132,0.631,1.096,0.363,0.964-0.266c-0.347-1.662-0.773-3.317-1.17-4.968c-0.383-1.593-1.284-4.21-0.83-5.891
				C106.717,32.658,105.752,32.394,105.584,33.015L105.584,33.015z"/>
		</g>
	</g>
	<g>
		<g>
			<path fill="#FFFFFF" d="M105.006,45.955c0.563-0.242,1.206-0.263,1.787-0.462c0.513-0.176,1.053-0.332,1.526-0.6
				c0.561-0.318,0.057-1.182-0.505-0.863c-1.029,0.584-2.247,0.605-3.312,1.062C103.911,45.345,104.421,46.207,105.006,45.955
				L105.006,45.955z"/>
		</g>
	</g>
	<g>
		<g>
			<path fill="#FFFFFF" d="M104.067,45.523c0.035,1.75,0.342,3.436,0.683,5.149c0.147,0.737-0.009,2.396,0.651,2.955
				c0.489,0.414,1.2-0.29,0.707-0.707c-0.297-0.251-0.31-2.115-0.394-2.514c-0.34-1.616-0.614-3.229-0.647-4.883
				C105.054,44.879,104.054,44.878,104.067,45.523L104.067,45.523z"/>
		</g>
	</g>
	<g>
		<g>
			<path fill="#FFFFFF" d="M105.502,53.643c0.524,0.244,1.06,0.41,1.619,0.55c0.592,0.149,1.215,0.077,1.812,0.25
				c0.621,0.18,0.884-0.785,0.266-0.964c-1.069-0.31-2.158-0.217-3.193-0.7C105.426,52.509,104.918,53.37,105.502,53.643
				L105.502,53.643z"/>
		</g>
	</g>
	<g>
		<g>
			<path fill="#FFFFFF" d="M108.567,54.086c0.001,1.278-0.096,2.761,0.205,4.008c0.151,0.627,1.116,0.361,0.964-0.266
				c-0.139-0.577-0.084-1.242-0.128-1.833c-0.047-0.635-0.042-1.273-0.042-1.909C109.566,53.441,108.566,53.441,108.567,54.086
				L108.567,54.086z"/>
		</g>
	</g>
	<g>
		<g>
			<path fill="#FFFFFF" d="M104.881,59.58c0.345-0.178,0.702-0.138,1.068-0.2c0.458-0.077,0.899-0.206,1.35-0.318
				c0.385-0.096,0.771-0.18,1.155-0.286c0.354-0.097,0.629-0.326,0.995-0.396c0.633-0.121,0.364-1.085-0.266-0.964
				c-0.379,0.073-0.631,0.272-0.995,0.396c-0.486,0.167-0.996,0.246-1.492,0.37c-0.763,0.19-1.615,0.172-2.319,0.534
				C103.803,59.012,104.309,59.875,104.881,59.58L104.881,59.58z"/>
		</g>
	</g>
	<g>
		<g>
			<path fill="#FFFFFF" d="M103.692,59.148c-0.242,4.248,0.202,8.574,1.205,12.695c0.152,0.626,1.117,0.361,0.964-0.266
				c-0.978-4.019-1.406-8.287-1.17-12.43C104.728,58.504,103.728,58.507,103.692,59.148L103.692,59.148z"/>
		</g>
	</g>
	<g>
		<g>
			<path fill="#FFFFFF" d="M105.317,72.273c0.431,0.013,0.83,0.115,1.242,0.232c0.622,0.177,0.885-0.788,0.266-0.964
				c-0.498-0.141-0.989-0.252-1.508-0.268C104.671,71.254,104.673,72.254,105.317,72.273L105.317,72.273z"/>
		</g>
	</g>
	<g>
		<g>
			<path fill="#FFFFFF" d="M106.067,72.086c0.052,0.626,0.287,1.237,0.474,1.837c0.198,0.636,0.331,1.291,0.544,1.921
				c0.205,0.608,1.171,0.347,0.964-0.266c-0.187-0.553-0.265-1.134-0.464-1.683c-0.199-0.549-0.47-1.232-0.518-1.809
				C107.013,71.448,106.013,71.443,106.067,72.086L106.067,72.086z"/>
		</g>
	</g>
	<g>
		<g>
			<path fill="#FFFFFF" d="M106.629,76.711c0.509-0.068,0.834-0.338,1.229-0.646c0.507-0.397-0.206-1.1-0.707-0.707
				c-0.139,0.109-0.337,0.329-0.521,0.354C106,75.795,105.991,76.796,106.629,76.711L106.629,76.711z"/>
		</g>
	</g>
	<g>
		<g>
			<path fill="#FFFFFF" d="M106.022,76.015c-0.441,1.228,0.259,2.708,0.546,3.907c0.337,1.405,0.268,3.189,0.879,4.478
				c0.276,0.582,1.138,0.075,0.863-0.505c-0.146-0.307-0.179-1.214-0.232-1.551c-0.117-0.748-0.275-1.484-0.452-2.22
				c-0.252-1.052-1.026-2.771-0.641-3.843C107.205,75.673,106.238,75.413,106.022,76.015L106.022,76.015z"/>
		</g>
	</g>
	<g>
		<g>
			<path fill="#FFFFFF" d="M107.814,84.455c0.395,0.193,0.841,0.235,1.27,0.313c0.592,0.108,1.141,0.296,1.724,0.425
				c0.628,0.139,0.895-0.825,0.266-0.964c-0.438-0.097-0.842-0.276-1.287-0.35c-0.445-0.074-1.059-0.087-1.469-0.287
				C107.742,83.31,107.235,84.172,107.814,84.455L107.814,84.455z"/>
		</g>
	</g>
	<g>
		<g>
			<path fill="#FFFFFF" d="M110.317,84.836c-0.17,3.837,0.657,7.961,1.346,11.727c0.785,4.291,1.734,8.571,2.859,12.781
				c0.147,0.548,0.982,0.432,0.982-0.133c0-0.021,0-0.042,0-0.062c0-0.645-1-0.645-1,0c0,0.021,0,0.042,0,0.062
				c0.327-0.044,0.655-0.089,0.982-0.133c-0.985-3.683-1.714-7.394-2.5-11.125c-0.864-4.102-1.855-8.918-1.67-13.117
				C111.345,84.191,110.345,84.194,110.317,84.836L110.317,84.836z"/>
		</g>
	</g>
	<g>
		<g>
			<path fill="#FFFFFF" d="M110.545,121.377c1.272-1.364,1.624-3.855,2.391-5.539c0.987-2.168,1.699-4.426,2.613-6.619
				c0.248-0.595-0.72-0.852-0.964-0.266c-0.88,2.111-1.541,4.303-2.512,6.381c-0.709,1.518-1.1,4.12-2.234,5.336
				C109.399,121.141,110.104,121.849,110.545,121.377L110.545,121.377z"/>
		</g>
	</g>
	<g>
		<g>
			<path fill="#FFFFFF" d="M106.377,121.58c0.482,0.242,0.983,0.15,1.502,0.131c0.344-0.013,0.7-0.145,1.033-0.224
				c0.404-0.095,0.811,0.014,1.217,0.036c0.645,0.036,0.641-0.964,0-1c-0.608-0.034-1.108-0.089-1.708,0.052
				c-0.386,0.091-1.15,0.337-1.54,0.141C106.307,120.428,105.8,121.291,106.377,121.58L106.377,121.58z"/>
		</g>
	</g>
	<g>
		<g>
			<path fill="#FFFFFF" d="M105.942,124.461c0,0.019,0,0.037,0,0.056c0,0.645,1,0.645,1,0c0-1.125,0.218-2.248,0.312-3.368
				c0.054-0.643-0.946-0.638-1,0c-0.094,1.121-0.312,2.242-0.312,3.368c0,0.645,1,0.645,1,0c0-0.019,0-0.037,0-0.056
				C106.942,123.816,105.942,123.816,105.942,124.461L105.942,124.461z"/>
		</g>
	</g>
	<g>
		<g>
			<path fill="#FFFFFF" d="M106.127,124.893c0.512,0.349,1.08,0.591,1.682,0.738c0.626,0.153,0.892-0.811,0.266-0.964
				c-0.525-0.128-0.996-0.333-1.443-0.637C106.097,123.665,105.597,124.532,106.127,124.893L106.127,124.893z"/>
		</g>
	</g>
	<g>
		<g>
			<path fill="#FFFFFF" d="M107.442,125.211c-0.201,2.446,0.339,5.128,0.594,7.562c0.176,1.677,0.082,3.645,0.849,5.19
				c0.287,0.578,1.149,0.071,0.863-0.505c-0.874-1.761-0.698-4.508-0.893-6.435c-0.189-1.876-0.569-3.93-0.414-5.812
				C108.494,124.568,107.494,124.573,107.442,125.211L107.442,125.211z"/>
		</g>
	</g>
	<g>
		<g>
			<path fill="#FFFFFF" d="M106.111,148.656c0.819-3.806,2.119-7.484,3.625-11.062c0.25-0.594-0.718-0.851-0.964-0.266
				c-1.506,3.58-2.806,7.256-3.625,11.062C105.012,149.019,105.976,149.287,106.111,148.656L106.111,148.656z"/>
		</g>
	</g>
	<g>
		<g>
			<path fill="#FFFFFF" d="M92.525,146.689c0.91,0.714,1.582,1.768,2.348,2.634c0.775,0.877,1.603,1.594,2.464,2.366
				c0.479,0.429,1.188-0.276,0.707-0.707c-0.861-0.771-1.69-1.495-2.464-2.366c-0.772-0.87-1.43-1.914-2.348-2.634
				C92.731,145.589,92.018,146.292,92.525,146.689L92.525,146.689z"/>
		</g>
	</g>
	<g>
		<g>
			<path fill="#FFFFFF" d="M97.944,151.83c1.421-0.697,3.199-0.928,4.693-1.512c1.143-0.446,2.346-1.076,3.369-1.738
				c0.539-0.349,0.039-1.215-0.505-0.863c-1.265,0.818-2.729,1.481-4.128,2.026c-1.278,0.498-2.713,0.625-3.935,1.224
				C96.86,151.251,97.367,152.113,97.944,151.83L97.944,151.83z"/>
		</g>
	</g>
	<g>
		<g>
			<path fill="#FFFFFF" d="M93.254,146.211c0.016-0.505,0.126-0.993,0.207-1.49c0.075-0.456,0.074-0.919,0.15-1.377
				c0.104-0.631-0.86-0.901-0.964-0.266c-0.086,0.522-0.097,1.052-0.182,1.571c-0.085,0.522-0.195,1.031-0.211,1.562
				C92.234,146.856,93.234,146.854,93.254,146.211L93.254,146.211z"/>
		</g>
	</g>
	<g>
		<g>
			<path fill="#FFFFFF" d="M92.713,143.502c0.753,0.778,2.102,0.92,3.096,1.129c0.629,0.132,0.897-0.832,0.266-0.964
				c-0.522-0.11-1.195-0.125-1.67-0.379c-0.322-0.172-0.723-0.223-0.984-0.492C92.971,142.331,92.264,143.039,92.713,143.502
				L92.713,143.502z"/>
		</g>
	</g>
	<g>
		<g>
			<path fill="#FFFFFF" d="M95.272,144.344c0.083,0.598,0.298,1.164,0.438,1.75c0.15,0.627,1.114,0.361,0.964-0.266
				c-0.14-0.586-0.355-1.152-0.438-1.75C96.148,143.442,95.185,143.713,95.272,144.344L95.272,144.344z"/>
		</g>
	</g>
	<g>
		<g>
			<path fill="#FFFFFF" d="M95.834,146.156c0.165,0.549,0.778,0.812,1.205,1.138c0.644,0.492,1.282,0.952,2.025,1.286
				c0.583,0.262,1.092-0.6,0.505-0.863c-0.535-0.24-1.023-0.539-1.497-0.884c-0.238-0.173-0.469-0.357-0.703-0.536
				c-0.101-0.077-0.542-0.312-0.57-0.407C96.614,145.274,95.648,145.537,95.834,146.156L95.834,146.156z"/>
		</g>
	</g>
	<g>
		<g>
			<path fill="#FFFFFF" d="M99.733,148.564c0.347-0.423,0.929-0.706,1.348-1.063c0.463-0.393,0.996-0.504,1.355-1.038
				c0.361-0.537-0.506-1.037-0.863-0.505c-0.26,0.388-0.84,0.541-1.198,0.836c-0.427,0.351-0.996,0.634-1.348,1.063
				C98.62,148.352,99.323,149.063,99.733,148.564L99.733,148.564z"/>
		</g>
	</g>
	<g>
		<g>
			<path fill="#FFFFFF" d="M101.4,144.982c-0.427,0.353-0.17,0.83-0.004,1.236c0.24,0.589,1.208,0.331,0.964-0.266
				c-0.038-0.093-0.077-0.185-0.12-0.275c-0.123-0.256,0.016-0.112-0.133,0.012C102.605,145.279,101.894,144.575,101.4,144.982
				L101.4,144.982z"/>
		</g>
	</g>
	<g>
		<g>
			<path fill="#FFFFFF" d="M96.272,143.969c0.092,0.628,0.179,1.509,0.622,2.008c0.513,0.579,1.284,0.699,1.921,1.103
				c1.319,0.837,2.307-0.438,3.168-1.328c0.449-0.463-0.258-1.171-0.707-0.707c-0.255,0.263-0.503,0.531-0.761,0.79
				c-0.545,0.547-0.831,0.613-1.461,0.213c-0.376-0.239-0.812-0.33-1.203-0.534c-0.465-0.243-0.547-1.356-0.614-1.811
				C97.143,143.067,96.179,143.338,96.272,143.969L96.272,143.969z"/>
		</g>
	</g>
	<g>
		<g>
			<path fill="#FFFFFF" d="M96.879,143.398c-0.042,0-0.083,0-0.125,0c0.118,0.285,0.236,0.569,0.354,0.854
				c0.903-0.747,2.098-1.148,2.703-2.226c0.316-0.563-0.548-1.067-0.863-0.505c-0.54,0.961-1.735,1.352-2.547,2.024
				c-0.348,0.288-0.053,0.854,0.354,0.854c0.042,0,0.083,0,0.125,0C97.524,144.398,97.524,143.398,96.879,143.398L96.879,143.398z"
				/>
		</g>
	</g>
	<g>
		<g>
			<path fill="#FFFFFF" d="M99.611,141.781c0.684-2.927,0.911-5.978,1.438-8.938c0.112-0.63-0.851-0.9-0.964-0.266
				c-0.526,2.954-0.754,6.016-1.438,8.938C98.5,142.143,99.464,142.409,99.611,141.781L99.611,141.781z"/>
		</g>
	</g>
	<g>
		<g>
			<path fill="#FFFFFF" d="M99.26,131.151c0.353,0.666,0.214,1.463,0.625,2.125c0.339,0.547,1.204,0.045,0.863-0.505
				c-0.395-0.637-0.271-1.455-0.625-2.125C99.821,130.076,98.958,130.581,99.26,131.151L99.26,131.151z"/>
		</g>
	</g>
	<g>
		<g>
			<path fill="#FFFFFF" d="M100.049,131.156c0.166-0.645,0.864-1.042,1.324-1.475c0.581-0.548,0.966-1.323,1.485-1.929
				c0.417-0.487-0.287-1.198-0.707-0.707c-0.602,0.704-1.053,1.556-1.75,2.17c-0.55,0.485-1.125,0.934-1.316,1.675
				C98.923,131.515,99.888,131.78,100.049,131.156L100.049,131.156z"/>
		</g>
	</g>
	<g>
		<g>
			<path fill="#FFFFFF" d="M102.861,127.515c-0.455-1.433-1.447-2.417-2.175-3.682c-0.322-0.559-1.186-0.055-0.863,0.505
				c0.682,1.184,1.649,2.102,2.075,3.443C102.091,128.394,103.057,128.132,102.861,127.515L102.861,127.515z"/>
		</g>
	</g>
	<g>
		<g>
			<path fill="#FFFFFF" d="M99.942,121.273c-0.012,0.964-0.169,1.916-0.25,2.875c-0.054,0.643,0.946,0.638,1,0
				c0.081-0.959,0.238-1.911,0.25-2.875C100.95,120.628,99.95,120.629,99.942,121.273L99.942,121.273z"/>
		</g>
	</g>
	<g>
		<g>
			<path fill="#FFFFFF" d="M93.15,117.689c0.902,0.787,1.155,2.802,2.454,2.994c0.829,0.123,1.684,0.573,2.516,0.759
				c0.711,0.159,1.408,0.258,2.133,0.33c0.642,0.064,0.636-0.937,0-1c-1.525-0.151-2.943-0.542-4.383-1.054
				c-0.912-0.324-1.255-2.076-2.013-2.737C93.374,116.56,92.664,117.265,93.15,117.689L93.15,117.689z"/>
		</g>
	</g>
	<g>
		<g>
			<path fill="#FFFFFF" d="M93.924,117.719c0.512-1.937,0.306-4.257,0.393-6.258c0.125-2.88,0.339-5.755,0.46-8.634
				c0.13-3.086,0.459-6.108,0.953-9.158c0.388-2.398,0.41-4.998,1.069-7.325c0.176-0.622-0.789-0.885-0.964-0.266
				c-0.582,2.056-0.553,4.281-0.91,6.378c-0.432,2.534-0.825,5.074-1.019,7.638c-0.212,2.807-0.312,5.637-0.447,8.449
				c-0.134,2.792,0.216,6.204-0.498,8.91C92.795,118.077,93.759,118.342,93.924,117.719L93.924,117.719z"/>
		</g>
	</g>
	<g>
		<g>
			<path fill="#FFFFFF" d="M96.449,86.506c1.048-0.354,2.038-0.791,2.846-1.566c0.466-0.447-0.242-1.153-0.707-0.707
				c-0.681,0.654-1.521,1.011-2.404,1.309C95.576,85.746,95.837,86.712,96.449,86.506L96.449,86.506z"/>
		</g>
	</g>
	<g>
		<g>
			<path fill="#FFFFFF" d="M98.334,82.406c0.124,0.725,0.281,1.442,0.295,2.18c0.012,0.644,1.012,0.645,1,0
				c-0.015-0.826-0.191-1.634-0.33-2.445C99.19,81.506,98.226,81.776,98.334,82.406L98.334,82.406z"/>
		</g>
	</g>
	<g>
		<g>
			<path fill="#FFFFFF" d="M98.129,81.586c-0.042,0-0.083,0-0.125,0c-0.604,0-0.628,0.78-0.133,0.982
				c0.263,0.107,0.537,0.13,0.812,0.188c0.629,0.131,0.897-0.833,0.266-0.964c-0.276-0.057-0.55-0.08-0.812-0.188
				c-0.044,0.327-0.089,0.655-0.133,0.982c0.042,0,0.083,0,0.125,0C98.774,82.586,98.774,81.586,98.129,81.586L98.129,81.586z"/>
		</g>
	</g>
	<g>
		<g>
			<path fill="#FFFFFF" d="M98.549,81.953c-0.083-0.29-0.104-0.566-0.107-0.867c-0.167,0.167-0.333,0.333-0.5,0.5
				c0.438,0.013,0.874,0.049,1.312,0.062c0.27,0.008,0.503-0.234,0.5-0.5c-0.004-0.354-0.012-0.753-0.196-1.068
				c-0.245-0.418-0.724-0.364-1.114-0.551c0.083,0.144,0.165,0.288,0.248,0.432c-0.031-0.685-0.141-0.967,0.408-1.436
				c0.462-0.394,0.557-0.784,0.529-1.377c-0.03-0.642-1.03-0.645-1,0c0.032,0.681-0.655,0.778-0.861,1.318
				c-0.185,0.486-0.1,0.987-0.077,1.494c0.007,0.167,0.087,0.355,0.248,0.432c0.532,0.255,0.808,0.108,0.815,0.756
				c0.167-0.167,0.333-0.333,0.5-0.5c-0.438-0.013-0.874-0.049-1.312-0.062c-0.271-0.008-0.502,0.234-0.5,0.5
				c0.004,0.391,0.035,0.756,0.143,1.133C97.761,82.838,98.726,82.574,98.549,81.953L98.549,81.953z"/>
		</g>
	</g>
	<g>
		<g>
			<path fill="#FFFFFF" d="M97.334,74.906c0.192,0.502,0.405,0.993,0.655,1.469c0.231,0.441,0.38,0.913,0.646,1.338
				c0.342,0.545,1.207,0.043,0.863-0.505c-0.237-0.377-0.349-0.803-0.562-1.188c-0.247-0.445-0.455-0.906-0.637-1.381
				C98.07,74.045,97.103,74.303,97.334,74.906L97.334,74.906z"/>
		</g>
	</g>
	<g>
		<g>
			<path fill="#FFFFFF" d="M96.754,56.461c0.004,6.182,0.539,12.32,0.438,18.5c-0.011,0.645,0.989,0.644,1,0
				c0.101-6.18-0.434-12.318-0.438-18.5C97.754,55.816,96.754,55.816,96.754,56.461L96.754,56.461z"/>
		</g>
	</g>
	<g>
		<g>
			<path fill="#FFFFFF" d="M93.567,66.398c0.006-1.693,0.297-3.335,0.521-5.009c0.187-1.394,0.356-2.725,1.702-3.542
				c0.578-0.351,1.073-0.703,1.568-1.158c0.476-0.437-0.233-1.143-0.707-0.707c-1.135,1.043-2.94,1.462-3.316,3.096
				c-0.52,2.257-0.76,4.988-0.768,7.32C92.564,67.043,93.564,67.043,93.567,66.398L93.567,66.398z"/>
		</g>
	</g>
	<g>
		<g>
			<path fill="#FFFFFF" d="M85.684,70.381c0.797,0.134,1.638-0.377,2.348-0.707c0.646-0.3,1.244-0.661,1.93-0.874
				c0.609-0.189,1.186-0.388,1.732-0.719c0.55-0.334,0.048-1.199-0.505-0.863c-0.818,0.496-1.771,0.632-2.618,1.062
				c-0.521,0.265-1.032,0.545-1.575,0.763c-0.257,0.103-0.755,0.424-1.047,0.375C85.319,69.31,85.049,70.274,85.684,70.381
				L85.684,70.381z"/>
		</g>
	</g>
	<g>
		<g>
			<path fill="#FFFFFF" d="M91.256,68.33c0.474-0.319,0.988-0.565,1.49-0.837c0.221-0.12,0.494-0.249,0.674-0.428
				c0.228-0.228,0.146-0.627,0.146-0.916c0-0.645-1-0.645-1,0c0,0.188,0,0.375,0,0.562c0.083-0.144,0.165-0.288,0.248-0.432
				c-0.66,0.444-1.402,0.744-2.062,1.188C90.22,67.824,90.72,68.691,91.256,68.33L91.256,68.33z"/>
		</g>
	</g>
	<g>
		<g>
			<path fill="#FFFFFF" d="M83.754,83.586c0.645,0,0.645-1,0-1S83.109,83.586,83.754,83.586L83.754,83.586z"/>
		</g>
	</g>
	<g>
		<g>
			<path fill="#FFFFFF" d="M84.317,83.086c0.019-4.495,1.69-8.728,2-13.188c0.045-0.644-0.955-0.64-1,0
				c-0.311,4.461-1.981,8.689-2,13.188C83.314,83.731,84.314,83.731,84.317,83.086L84.317,83.086z"/>
		</g>
	</g>
	<g>
		<g>
			<path fill="#FFFFFF" d="M77.319,89.018c1.241-0.809,2.31-1.922,3.384-2.937c1.177-1.112,2.412-2.161,3.593-3.266
				c0.472-0.442-0.237-1.147-0.707-0.707c-1.07,1.002-2.157,2.021-3.272,2.973c-1.174,1.004-2.202,2.227-3.502,3.073
				C76.276,88.505,76.777,89.371,77.319,89.018L77.319,89.018z"/>
		</g>
	</g>
	<g>
		<g>
			<path fill="#FFFFFF" d="M76.567,88.836c-0.383,3.01,0.671,6.386-0.232,9.367c-0.188,0.619,0.778,0.881,0.964,0.266
				c0.929-3.064-0.127-6.531,0.268-9.633C77.648,88.197,76.647,88.205,76.567,88.836L76.567,88.836z"/>
		</g>
	</g>
	<g>
		<g>
			<path fill="#FFFFFF" d="M68.986,103.906c0.228-0.652-0.017-1.611-0.125-2.266c-0.105-0.635-1.069-0.365-0.964,0.266
				c0.077,0.468,0.287,1.272,0.125,1.734C67.808,104.251,68.775,104.511,68.986,103.906L68.986,103.906z"/>
		</g>
	</g>
	<g>
		<g>
			<path fill="#FFFFFF" d="M68.252,102.08c0.929,0.612,2.024,0.608,3.057,0.925c0.618,0.19,0.88-0.775,0.266-0.964
				c-0.942-0.29-1.973-0.268-2.818-0.825C68.216,100.861,67.716,101.727,68.252,102.08L68.252,102.08z"/>
		</g>
	</g>
	<g>
		<g>
			<path fill="#FFFFFF" d="M71.444,103.018c0.967-0.716,1.906-1.474,2.875-2.188c0.899-0.662,1.946-1.348,2.664-2.203
				c0.411-0.49-0.292-1.202-0.707-0.707c-0.732,0.873-1.853,1.599-2.765,2.27c-0.868,0.639-1.705,1.322-2.572,1.964
				C70.427,102.533,70.925,103.402,71.444,103.018L71.444,103.018z"/>
		</g>
	</g>
	<g>
		<g>
			<path fill="#FFFFFF" d="M68.434,104.381c0.515,0.072,1.005,0.132,1.516,0c0.624-0.162,0.359-1.126-0.266-0.964
				c-0.329,0.085-0.651,0.047-0.984,0C68.069,103.328,67.797,104.291,68.434,104.381L68.434,104.381z"/>
		</g>
	</g>
	<g>
		<g>
			<path fill="#FFFFFF" d="M69.067,103.898c-0.007,0.427-0.237,0.588-0.524,0.883c-0.301,0.309-0.618,0.637-0.77,1.047
				c-0.226,0.606,0.741,0.865,0.964,0.266c0.132-0.354,0.59-0.682,0.85-0.947c0.354-0.362,0.473-0.75,0.481-1.248
				C70.076,103.253,69.076,103.254,69.067,103.898L69.067,103.898z"/>
		</g>
	</g>
	<g>
		<g>
			<path fill="#FFFFFF" d="M68.004,106.586c1.75,0.226,3.428,0.229,5.19,0.229c0.871,0,0.88-0.347,1.304,0.352
				c0.406,0.668,0.849,1.292,1.34,1.897c0.172,0.212,0.529,0.177,0.707,0c0.414-0.411,0.796-0.82,1.25-1.188
				c-0.236,0-0.471,0-0.707,0c0.021,0.021,0.042,0.042,0.062,0.062c0.245,0.245,0.772,0.162,0.836-0.221
				c0.099-0.597,0.068-1.088,0.018-1.695c-0.053-0.638-1.053-0.643-1,0c0.058,0.475,0.064,0.952,0.018,1.43
				c0.279-0.074,0.557-0.147,0.836-0.221c-0.021-0.021-0.042-0.042-0.062-0.062c-0.208-0.208-0.495-0.171-0.707,0
				c-0.454,0.368-0.836,0.776-1.25,1.188c0.236,0,0.471,0,0.707,0c-0.622-0.767-1.223-1.61-1.609-2.524
				c-0.081-0.19-0.377-0.3-0.565-0.23c-0.919,0.345-1.889,0.159-2.841,0.188c-1.209,0.037-2.326-0.051-3.526-0.206
				C67.366,105.503,67.374,106.504,68.004,106.586L68.004,106.586z"/>
		</g>
	</g>
	<g>
		<g>
			<path fill="#FFFFFF" d="M77.317,106.711c0.96-0.057,1.798-0.423,2.695-0.737c0.41-0.144,0.847-0.179,1.271-0.269
				c0.425-0.091,0.84-0.431,1.224-0.625c0.576-0.29,0.07-1.153-0.505-0.863c-0.749,0.377-1.459,0.554-2.256,0.793
				c-0.823,0.247-1.554,0.649-2.429,0.701C76.676,105.749,76.672,106.749,77.317,106.711L77.317,106.711z"/>
		</g>
	</g>
	<g>
		<g>
			<path fill="#FFFFFF" d="M81.9,105.002c0.962,0.912,2.092,1.6,3.126,2.422c0.982,0.78,1.948,1.393,3.1,1.906
				c0.584,0.26,1.093-0.601,0.505-0.863c-1.202-0.536-2.186-1.185-3.216-2.003c-0.93-0.739-1.943-1.349-2.808-2.169
				C82.14,103.852,81.432,104.558,81.9,105.002L81.9,105.002z"/>
		</g>
	</g>
	<g>
		<g>
			<path fill="#FFFFFF" d="M87.897,108.89c-0.193,1.275,0.044,2.642,0.097,3.93c0.057,1.362-0.186,2.738,0.028,4.086
				c0.101,0.636,1.064,0.365,0.964-0.266c-0.195-1.235,0.032-2.571,0.008-3.82c-0.022-1.181-0.31-2.497-0.133-3.664
				C88.957,108.526,87.993,108.255,87.897,108.89L87.897,108.89z"/>
		</g>
	</g>
	<g>
		<g>
			<path fill="#FFFFFF" d="M84.442,120.711c0,0.021,0,0.042,0,0.062c0,0.342,0.44,0.672,0.752,0.432
				c1.463-1.128,2.448-2.766,3.789-4.016c0.473-0.44-0.236-1.146-0.707-0.707c-1.272,1.185-2.201,2.79-3.586,3.859
				c0.251,0.144,0.502,0.288,0.752,0.432c0-0.021,0-0.042,0-0.062C85.442,120.066,84.442,120.066,84.442,120.711L84.442,120.711z"/>
		</g>
	</g>
	<g>
		<g>
			<path fill="#FFFFFF" d="M84.692,120.523c0.167,6.949,1.101,13.859,1.265,20.799c0.083,3.493-0.137,6.972,0.027,10.467
				c0.084,1.782,0.123,3.564,0.25,5.344c0.076,1.058,0.629,2.668,0.151,3.638c-0.284,0.576,0.578,1.083,0.863,0.505
				c0.879-1.785-0.083-4.913-0.166-6.815c-0.163-3.745-0.195-7.46-0.129-11.207c0.134-7.565-1.08-15.158-1.262-22.73
				C85.676,119.88,84.676,119.878,84.692,120.523L84.692,120.523z"/>
		</g>
	</g>
	<g>
		<g>
			<path fill="#FFFFFF" d="M76.834,121.265c-0.249,1.149-0.146,2.243-0.044,3.408c0.128,1.459-0.285,2.94-0.012,4.39
				c0.802,4.255,0.602,8.688,0.945,13.006c0.638,8.029-0.083,16.3,1.485,24.212c0.051,0.257,0.37,0.431,0.615,0.349
				c0.016-0.005,0.031-0.01,0.047-0.016c0.333-0.111,0.429-0.43,0.299-0.734c-0.016-0.036-0.031-0.073-0.047-0.109
				c-0.253-0.591-1.115-0.081-0.863,0.505c0.016,0.036,0.031,0.073,0.047,0.109c0.1-0.245,0.199-0.49,0.299-0.734
				c-0.016,0.005-0.031,0.01-0.047,0.016c0.205,0.116,0.41,0.233,0.615,0.349c-1.546-7.799-0.86-16.024-1.45-23.946
				c-0.263-3.526-0.258-7.066-0.535-10.585c-0.128-1.62-0.534-3.13-0.435-4.773c0.104-1.708-0.319-3.504,0.045-5.18
				C77.935,120.903,76.971,120.635,76.834,121.265L76.834,121.265z"/>
		</g>
	</g>
	<g>
		<g>
			<path fill="#FFFFFF" d="M86.606,161.455c0.284,0.123,0.521,0.31,0.792,0.458c0.306,0.168,0.736,0.208,1.067,0.328
				c0.918,0.333,1.829,0.223,2.769,0.323c0.641,0.068,0.634-0.932,0-1c-0.766-0.082-1.502-0.025-2.273-0.204
				c-0.663-0.154-1.239-0.504-1.85-0.769C86.525,160.338,86.016,161.199,86.606,161.455L86.606,161.455z"/>
		</g>
	</g>
	<g>
		<g>
			<path fill="#FFFFFF" d="M90.692,162.086c0.188,1.728,0.79,3.217,1.374,4.837c0.71,1.967,1.125,4.052,1.944,5.978
				c0.252,0.592,1.113,0.082,0.863-0.505c-0.685-1.611-1.142-3.405-1.639-5.084c-0.527-1.781-1.338-3.35-1.542-5.226
				C91.622,161.452,90.622,161.445,90.692,162.086L90.692,162.086z"/>
		</g>
	</g>
	<g>
		<g>
			<path fill="#FFFFFF" d="M94.084,172.64c-0.693,3.51-0.086,7.434-0.161,11.008c-0.089,4.191-0.157,8.404-0.431,12.588
				c-0.288,4.393-0.306,8.758-0.208,13.157c0.092,4.121,0.118,8.769-1.075,12.747c-0.186,0.619,0.779,0.882,0.964,0.266
				c2.206-7.353,0.807-15.669,1.149-23.221c0.195-4.302,0.206-8.619,0.433-12.912c0.111-2.09,0.185-4.156,0.185-6.25
				c0-2.314-0.343-4.838,0.107-7.117C95.173,172.277,94.209,172.008,94.084,172.64L94.084,172.64z"/>
		</g>
	</g>
	<g>
		<g>
			<path fill="#FFFFFF" d="M92.26,222.463c0.32,0.509,0.735,0.932,1.132,1.381c0.391,0.443,0.655,0.975,1.071,1.407
				c0.448,0.465,1.155-0.243,0.707-0.707c-0.371-0.384-0.598-0.852-0.938-1.25c-0.375-0.441-0.8-0.844-1.109-1.336
				C92.781,221.414,91.915,221.916,92.26,222.463L92.26,222.463z"/>
		</g>
	</g>
	<g>
		<g>
			<path fill="#FFFFFF" d="M94.254,227.523c0,0.008,0,0.016,0,0.025c0,0.645,1,0.645,1,0c0-0.862,0-1.725,0-2.587
				c0-0.645-1-0.645-1,0c0,0.862,0,1.725,0,2.587c0,0.645,1,0.645,1,0c0-0.008,0-0.016,0-0.025
				C95.254,226.879,94.254,226.879,94.254,227.523L94.254,227.523z"/>
		</g>
	</g>
	<g>
		<g>
			<path fill="#FFFFFF" d="M94.067,227.648c-0.074,0.878,0.942,1.672,1.377,2.334c0.701,1.066,1.036,2.398,1.832,3.395
				c0.284,0.356,0.854,0.047,0.854-0.354c0-0.021,0-0.042,0-0.062c0-0.645-1-0.645-1,0c0,0.021,0,0.042,0,0.062
				c0.285-0.118,0.569-0.236,0.854-0.354c-0.559-0.7-1.004-1.824-1.372-2.644c-0.213-0.474-0.53-0.896-0.843-1.306
				c-0.207-0.272-0.733-0.695-0.701-1.071C95.121,227.005,94.121,227.011,94.067,227.648L94.067,227.648z"/>
		</g>
	</g>
	<g>
		<g>
			<path fill="#FFFFFF" d="M97.736,240.078c-0.242-1.004-0.045-2.226-0.045-3.253c0-1.226,0-2.451,0-3.677c0-0.645-1-0.645-1,0
				c0,1.404,0,2.807,0,4.211c0,0.982-0.151,2.023,0.08,2.984C96.923,240.971,97.887,240.705,97.736,240.078L97.736,240.078z"/>
		</g>
	</g>
	<g>
		<g>
			<path fill="#FFFFFF" d="M96.358,242.314c0.534-0.677,1.023-1.382,1.391-2.164c0.273-0.58-0.589-1.088-0.863-0.505
				c-0.33,0.701-0.755,1.353-1.234,1.961C95.256,242.108,95.958,242.821,96.358,242.314L96.358,242.314z"/>
		</g>
	</g>
	<g>
		<g>
			<path fill="#FFFFFF" d="M95.689,242.393c0.684,0.398,1.218,0.999,1.875,1.438c0.538,0.359,1.038-0.508,0.505-0.863
				c-0.658-0.439-1.188-1.038-1.875-1.438C95.635,241.204,95.132,242.069,95.689,242.393L95.689,242.393z"/>
		</g>
	</g>
	<g>
		<g>
			<path fill="#FFFFFF" d="M64.059,242.568c0.159,0.026,0.251,0.109,0.381,0.2c0.529,0.371,1.028-0.496,0.505-0.863
				c-0.198-0.139-0.377-0.261-0.619-0.3C63.694,241.5,63.423,242.464,64.059,242.568L64.059,242.568z"/>
		</g>
	</g>
	<g>
		<g>
			<path fill="#FFFFFF" d="M64.549,242.031c0.106-0.618,0.27-1.215,0.46-1.812c0.207-0.65,0.314-1.359,0.677-1.944
				c0.341-0.549-0.524-1.051-0.863-0.505c-0.323,0.52-0.469,1.092-0.613,1.682c-0.191,0.78-0.488,1.514-0.625,2.312
				C63.476,242.396,64.44,242.666,64.549,242.031L64.549,242.031z"/>
		</g>
	</g>
	<g>
		<g>
			<path fill="#FFFFFF" d="M65.004,238.648c0.88-0.107,1.596-0.614,2.448-0.833c1.084-0.278,2.035-0.585,3.177-0.605
				c0.644-0.011,0.645-1.011,0-1c-0.985,0.018-1.949,0.134-2.883,0.455c-0.83,0.285-1.885,0.878-2.742,0.982
				C64.372,237.725,64.365,238.726,65.004,238.648L65.004,238.648z"/>
		</g>
	</g>
	<g>
		<g>
			<path fill="#FFFFFF" d="M70.674,237.031c0.749-1.998,1.84-3.783,2.887-5.631c0.318-0.562-0.546-1.066-0.863-0.505
				c-1.093,1.928-2.207,3.786-2.988,5.869C69.483,237.37,70.449,237.629,70.674,237.031L70.674,237.031z"/>
		</g>
	</g>
	<g>
		<g>
			<path fill="#FFFFFF" d="M73.736,231.344c-0.142,0.135-0.159,0.169-0.053,0.102c0.055-0.03,0.147-0.039,0.207-0.054
				c0.165-0.041,0.335-0.066,0.503-0.093c0.27-0.044,0.561-0.075,0.801-0.218c0.552-0.331,0.05-1.196-0.505-0.863
				c-0.438,0.263-1.773,0.012-1.917,0.861C72.665,231.709,73.629,231.979,73.736,231.344L73.736,231.344z"/>
		</g>
	</g>
	<g>
		<g>
			<path fill="#FFFFFF" d="M75.504,230.773c-0.014-1.379-0.178-2.749-0.25-4.125c-0.033-0.642-1.034-0.645-1,0
				c0.072,1.376,0.236,2.746,0.25,4.125C74.51,231.418,75.511,231.418,75.504,230.773L75.504,230.773z"/>
		</g>
	</g>
	<g>
		<g>
			<path fill="#FFFFFF" d="M74.986,227.094c0.059-0.265,0.363-0.535,0.521-0.752c0.236-0.323,0.509-0.617,0.788-0.902
				c0.439-0.449,0.904-1.006,1.129-1.596c0.23-0.604-0.737-0.862-0.964-0.266c-0.236,0.619-0.894,1.155-1.324,1.641
				c-0.39,0.441-0.982,1.023-1.113,1.609C73.881,227.456,74.845,227.723,74.986,227.094L74.986,227.094z"/>
		</g>
	</g>
	<g>
		<g>
			<path fill="#FFFFFF" d="M76.067,211.273c-0.452-7.031-0.55-13.909-0.008-20.937c0.568-7.367-0.623-14.583-0.367-21.938
				c0.022-0.645-0.978-0.643-1,0c-0.245,7.046,0.94,13.979,0.435,21.031c-0.525,7.345-0.532,14.493-0.06,21.844
				C75.108,211.914,76.108,211.918,76.067,211.273L76.067,211.273z"/>
		</g>
	</g>
	<g>
		<g>
			<path fill="#FFFFFF" d="M75.674,168.906c0.248-0.596,1.579-1.071,2.118-1.355c0.881-0.463,1.734-0.894,2.378-1.675
				c0.407-0.493-0.296-1.205-0.707-0.707c-0.768,0.93-1.89,1.32-2.899,1.922c-0.722,0.431-1.511,0.723-1.855,1.549
				C74.461,169.236,75.429,169.493,75.674,168.906L75.674,168.906z"/>
		</g>
	</g>
	<g>
		<g>
			<path fill="#FFFFFF" d="M77.317,223.648c-0.488-4.576-1.28-9.006-1.25-13.625c0.004-0.645-0.996-0.645-1,0
				c-0.03,4.641,0.759,9.021,1.25,13.625C76.384,224.283,77.385,224.289,77.317,223.648L77.317,223.648z"/>
		</g>
	</g>
	<g>
		<g>
			<path fill="#FFFFFF" d="M48.129,118.523c-0.005-0.856-0.06-1.709-0.125-2.562c-0.049-0.639-1.049-0.644-1,0
				c0.065,0.853,0.12,1.706,0.125,2.562C47.132,119.168,48.132,119.168,48.129,118.523L48.129,118.523z"/>
		</g>
	</g>
	<g>
		<g>
			<path fill="#FFFFFF" d="M47.377,119.143c0.558,0.401,0.95,0.969,1.461,1.422c0.471,0.417,1.026,0.747,1.511,1.151
				c0.988,0.822,1.885,1.777,2.965,2.49c0.54,0.357,1.04-0.51,0.505-0.863c-1.11-0.734-2.033-1.727-3.049-2.573
				c-0.483-0.402-1.021-0.731-1.492-1.149c-0.492-0.436-0.855-0.953-1.396-1.341C47.356,117.902,46.858,118.77,47.377,119.143
				L47.377,119.143z"/>
		</g>
	</g>
	<g>
		<g>
			<path fill="#FFFFFF" d="M53.317,124.148c1.443,0.063,2.76,0.207,4.195-0.08c0.632-0.126,0.364-1.09-0.266-0.964
				c-1.347,0.269-2.58,0.103-3.93,0.045C52.672,123.12,52.674,124.121,53.317,124.148L53.317,124.148z"/>
		</g>
	</g>
	<g>
		<g>
			<path fill="#FFFFFF" d="M57.699,124.131c2.182-0.699,4.263-1.55,6.307-2.613c0.572-0.298,0.067-1.161-0.505-0.863
				c-1.966,1.022-3.971,1.84-6.068,2.512C56.822,123.362,57.084,124.328,57.699,124.131L57.699,124.131z"/>
		</g>
	</g>
	<g>
		<g>
			<path fill="#FFFFFF" d="M64.061,121.463c0.872-1.733,1.322-3.713,2.312-5.375c0.331-0.555-0.534-1.058-0.863-0.505
				c-0.996,1.67-1.438,3.637-2.312,5.375C62.908,121.533,63.771,122.039,64.061,121.463L64.061,121.463z"/>
		</g>
	</g>
	<g>
		<g>
			<path fill="#FFFFFF" d="M65.752,115.217c-0.042,0.021-0.083,0.042-0.125,0.062c-0.502,0.251-0.142,1.127,0.385,0.914
				c2.279-0.92,4.816-0.924,7.125-1.875c0.588-0.242,0.33-1.21-0.266-0.964c-2.309,0.951-4.846,0.955-7.125,1.875
				c0.128,0.305,0.257,0.609,0.385,0.914c0.042-0.021,0.083-0.042,0.125-0.062C66.833,115.792,66.327,114.929,65.752,115.217
				L65.752,115.217z"/>
		</g>
	</g>
	<g>
		<g>
			<path fill="#FFFFFF" d="M73.444,113.467c-0.042-0.021-0.083-0.042-0.125-0.062c-0.357-0.178-0.718,0.045-0.752,0.432
				c-0.123,1.39-0.131,2.902,0.784,3.974c0.674,0.789,1.467,1.391,2.034,2.279c0.458,0.717,0.71,1.457,1.492,1.867
				c0.571,0.299,1.076-0.564,0.505-0.863c-0.759-0.397-1.109-1.52-1.595-2.184c-0.349-0.476-0.794-0.864-1.227-1.26
				c-1.079-0.987-1.118-2.4-0.993-3.811c-0.251,0.144-0.502,0.288-0.752,0.432c0.042,0.021,0.083,0.042,0.125,0.062
				C73.514,114.618,74.021,113.755,73.444,113.467L73.444,113.467z"/>
		</g>
	</g>
	<g>
		<g>
			<path fill="#FFFFFF" d="M35.379,120.398c0.111,1.755,0.71,3.508,0.955,5.258c0.089,0.636,1.053,0.365,0.964-0.266
				c-0.232-1.655-0.815-3.334-0.92-4.992C36.339,119.758,35.338,119.754,35.379,120.398L35.379,120.398z"/>
		</g>
	</g>
	<g>
		<g>
			<path fill="#FFFFFF" d="M35.944,120.893c1-0.588,2.065-1.035,3.052-1.658c1.103-0.696,2.111-1.525,3.112-2.358
				c0.496-0.413-0.215-1.116-0.707-0.707c-0.938,0.781-1.888,1.53-2.909,2.201c-0.977,0.642-2.051,1.07-3.052,1.658
				C34.884,120.356,35.387,121.22,35.944,120.893L35.944,120.893z"/>
		</g>
	</g>
	<g>
		<g>
			<path fill="#FFFFFF" d="M41.574,116.881c0.732-0.294,1.663-0.292,2.447-0.443c1.018-0.197,2.139-0.413,3.17-0.351
				c0.644,0.038,0.641-0.962,0-1c-1.027-0.061-2.059,0.174-3.07,0.33c-0.913,0.142-1.955,0.155-2.812,0.5
				C40.718,116.153,40.976,117.121,41.574,116.881L41.574,116.881z"/>
		</g>
	</g>
	<g>
		<g>
			<path fill="#FFFFFF" d="M46.572,115.776c0.213,0.294,0.319,0.589,0.387,0.943c0.121,0.633,1.085,0.364,0.964-0.266
				c-0.083-0.431-0.229-0.825-0.488-1.182C47.061,114.754,46.193,115.252,46.572,115.776L46.572,115.776z"/>
		</g>
	</g>
	<g>
		<g>
			<path fill="#FFFFFF" d="M35.233,129.502c0.998-1.101,1.544-2.412,2.066-3.783c0.23-0.604-0.737-0.862-0.964-0.266
				c-0.459,1.205-0.932,2.374-1.809,3.342C34.094,129.271,34.799,129.981,35.233,129.502L35.233,129.502z"/>
		</g>
	</g>
	<g>
		<g>
			<path fill="#FFFFFF" d="M34.067,129.523c-0.104,2.459,0.086,4.914-0.002,7.376c-0.097,2.706-0.561,5.398-0.716,8.104
				c-0.299,5.216-0.08,10.546,0.031,15.771c0.014,0.644,1.014,0.645,1,0c-0.111-5.245-0.217-10.529-0.031-15.771
				c0.096-2.711,0.542-5.398,0.716-8.104c0.159-2.456-0.101-4.917,0.002-7.376C35.094,128.878,34.094,128.881,34.067,129.523
				L34.067,129.523z"/>
		</g>
	</g>
	<g>
		<g>
			<path fill="#FFFFFF" d="M33.334,160.844c0.085,0.311,0.258,0.527,0.513,0.722c0.433,0.329,0.802,0.72,1.176,1.111
				c0.782,0.818,1.417,1.755,2.189,2.575c0.443,0.471,1.149-0.238,0.707-0.707c-0.642-0.682-1.2-1.473-1.812-2.188
				c-0.296-0.346-0.639-0.665-0.96-0.988c-0.172-0.173-0.781-0.543-0.849-0.792C34.13,159.956,33.165,160.221,33.334,160.844
				L33.334,160.844z"/>
		</g>
	</g>
	<g>
		<g>
			<path fill="#FFFFFF" d="M37.692,165.523c0.645,0,0.645-1,0-1C37.047,164.523,37.047,165.523,37.692,165.523L37.692,165.523z"/>
		</g>
	</g>
	<g>
		<g>
			<path fill="#FFFFFF" d="M37.459,164.64c-1.267,3.8-0.599,8.423-0.701,12.367c-0.059,2.291-1.024,4.505-1.317,6.766
				c-0.298,2.297-0.466,4.611-0.746,6.912c-0.625,5.123-0.689,10.305-0.976,15.452c-0.271,4.859-1.172,9.566-1.653,14.386
				c-0.064,0.642,0.937,0.635,1,0c0.416-4.172,1.215-8.243,1.528-12.443c0.385-5.155,0.449-10.326,0.902-15.477
				c0.433-4.935,1.221-9.72,2.177-14.572c0.837-4.243-0.649-8.929,0.75-13.125C38.628,164.293,37.662,164.032,37.459,164.64
				L37.459,164.64z"/>
		</g>
	</g>
	<g>
		<g>
			<path fill="#FFFFFF" d="M32.084,220.453c-0.482,2.753,0.317,6.265,0.938,8.953c0.145,0.628,1.109,0.362,0.964-0.266
				c-0.588-2.546-1.392-5.823-0.938-8.422C33.159,220.088,32.195,219.819,32.084,220.453L32.084,220.453z"/>
		</g>
	</g>
	<g>
		<g>
			<path fill="#FFFFFF" d="M32.772,229.469c0.286,1.221,1.163,2.369,1.627,3.55c0.388,0.989,0.819,1.971,1.236,2.944
				c0.253,0.591,1.115,0.081,0.863-0.505c-0.437-1.019-0.881-2.058-1.287-3.093c-0.412-1.049-1.223-2.088-1.475-3.163
				C33.589,228.575,32.625,228.841,32.772,229.469L32.772,229.469z"/>
		</g>
	</g>
	<g>
		<g>
			<path fill="#FFFFFF" d="M36.379,241.273c-0.016,0.338-0.006,0.438,0.08,0.758c0.144,0.534,1.025,0.44,0.982-0.133
				c-0.163-2.202-0.828-4.327-0.875-6.562c-0.014-0.644-1.014-0.645-1,0c0.021,0.987,0.12,1.969,0.268,2.945
				c0.18,1.19,0.519,2.425,0.607,3.617c0.327-0.044,0.655-0.089,0.982-0.133c-0.015-0.164-0.03-0.328-0.045-0.492
				C37.409,240.628,36.409,240.631,36.379,241.273L36.379,241.273z"/>
		</g>
	</g>
	<g>
		<g>
			<path fill="#FFFFFF" d="M18.394,147.13c0.159-0.214,0.414-0.399,0.587-0.616c0.205-0.257,0.413-0.512,0.626-0.762
				c0.408-0.477,0.909-0.977,1.162-1.56c0.253-0.585-0.608-1.095-0.863-0.505c-0.493,1.138-1.651,1.966-2.375,2.938
				C17.145,147.143,18.013,147.64,18.394,147.13L18.394,147.13z"/>
		</g>
	</g>
	<g>
		<g>
			<path fill="#FFFFFF" d="M15.906,145.755c0.434,0.592,1.141,1.061,1.742,1.471c0.534,0.365,1.034-0.502,0.505-0.863
				c-0.439-0.299-1.063-0.676-1.383-1.112C16.392,144.736,15.524,145.234,15.906,145.755L15.906,145.755z"/>
		</g>
	</g>
	<g>
		<g>
			<path fill="#FFFFFF" d="M16.817,145.398c0.082-0.62,0.096-1.271,0.104-1.896c0.008-0.645-0.992-0.644-1,0
				c-0.008,0.625-0.022,1.276-0.104,1.896C15.732,146.036,16.733,146.028,16.817,145.398L16.817,145.398z"/>
		</g>
	</g>
	<g>
		<g>
			<path fill="#FFFFFF" d="M14.296,141.94c0,0.007,0,0.014,0,0.021c0,0.645,1,0.645,1,0c0-0.007,0-0.014,0-0.021
				C15.296,141.295,14.296,141.295,14.296,141.94L14.296,141.94z"/>
		</g>
	</g>
	<g>
		<g>
			<path fill="#FFFFFF" d="M14.385,142.192c0.177,0.332,0.477,0.484,0.757,0.714c0.354,0.291,0.663,0.628,1.047,0.882
				c0.54,0.357,1.04-0.51,0.505-0.863c-0.26-0.172-0.484-0.399-0.714-0.609c-0.213-0.195-0.596-0.372-0.732-0.628
				C14.945,141.118,14.082,141.624,14.385,142.192L14.385,142.192z"/>
		</g>
	</g>
	<g>
		<g>
			<path fill="#FFFFFF" d="M13.817,142.419c0.342-0.005,0.679,0.05,1.021,0.062c0.645,0.023,0.643-0.977,0-1
				c-0.342-0.012-0.678-0.068-1.021-0.062C13.172,141.429,13.171,142.429,13.817,142.419L13.817,142.419z"/>
		</g>
	</g>
	<g>
		<g>
			<path fill="#FFFFFF" d="M14.4,142.607c-0.005-0.175-0.034-0.361,0.003-0.534c0.136-0.629-0.828-0.896-0.964-0.266
				c-0.058,0.27-0.047,0.526-0.039,0.8C13.419,143.25,14.419,143.252,14.4,142.607L14.4,142.607z"/>
		</g>
	</g>
	<g>
		<g>
			<path fill="#FFFFFF" d="M13.522,142.865c0.059,0.32,0.333,0.516,0.582,0.693c0.398,0.283,0.827,0.535,1.231,0.814
				c0.532,0.368,1.031-0.5,0.505-0.863c-0.215-0.148-0.423-0.306-0.637-0.455c-0.124-0.086-0.689-0.305-0.716-0.454
				C14.369,141.965,13.405,142.234,13.522,142.865L13.522,142.865z"/>
		</g>
	</g>
	<g>
		<g>
			<path fill="#FFFFFF" d="M16.067,145.232c-0.012-0.438-0.05-0.937-0.164-1.362c-0.166-0.623-1.13-0.358-0.964,0.266
				c0.089,0.335,0.118,0.75,0.128,1.096C15.084,145.875,16.084,145.877,16.067,145.232L16.067,145.232z"/>
		</g>
	</g>
	<g>
		<g>
			<path fill="#FFFFFF" d="M15.252,145.788c0.234,0.122,0.477,0.19,0.724,0.28c0.608,0.22,0.867-0.746,0.266-0.964
				c-0.162-0.059-0.331-0.098-0.485-0.179C15.185,144.627,14.68,145.49,15.252,145.788L15.252,145.788z"/>
		</g>
	</g>
	<g>
		<g>
			<path fill="#FFFFFF" d="M17.174,148.307c-0.192-0.775-0.055-1.621-0.045-2.409c0.009-0.645-0.991-0.644-1,0
				c-0.012,0.885-0.135,1.804,0.08,2.675C16.364,149.199,17.329,148.933,17.174,148.307L17.174,148.307z"/>
		</g>
	</g>
	<g>
		<g>
			<path fill="#FFFFFF" d="M16.712,149.128c0.398,0.038,0.854,0.186,1.237,0.303c0.492,0.151,1.039,0.126,1.51,0.337
				c0.583,0.261,1.093-0.601,0.505-0.863c-0.512-0.229-1.035-0.257-1.573-0.386c-0.555-0.133-1.109-0.336-1.679-0.391
				C16.07,148.066,16.076,149.067,16.712,149.128L16.712,149.128z"/>
		</g>
	</g>
	<g>
		<g>
			<path fill="#FFFFFF" d="M20.069,149.872c0.558-0.373,1.069-0.872,1.56-1.328c0.473-0.44-0.236-1.146-0.707-0.707
				c-0.425,0.396-0.873,0.848-1.357,1.172C19.031,149.365,19.531,150.231,20.069,149.872L20.069,149.872z"/>
		</g>
	</g>
	<g>
		<g>
			<path fill="#FFFFFF" d="M21.005,148.481c0.197,0.255,0.668,0.313,0.958,0.363c0.204,0.035,0.411,0.052,0.617,0.063
				c0.144,0.008,0.473-0.056,0.588,0.027c0.525,0.377,1.023-0.491,0.505-0.863c-0.259-0.186-0.625-0.16-0.929-0.162
				c-0.229-0.002-0.451-0.018-0.677-0.057c-0.073-0.013-0.391-0.125-0.354-0.078C21.318,147.264,20.616,147.978,21.005,148.481
				L21.005,148.481z"/>
		</g>
	</g>
	<g>
		<g>
			<path fill="#FFFFFF" d="M0.483,241.982c5.989-0.184,11.843,0.95,17.813,0.859c5.807-0.089,11.565-0.32,17.353-0.692
				c0.64-0.041,0.644-1.041,0-1c-5.789,0.372-11.547,0.585-17.353,0.692c-5.967,0.11-11.825-1.042-17.813-0.859
				C-0.16,241.001-0.162,242.001,0.483,241.982L0.483,241.982z"/>
		</g>
	</g>
	<g>
		<g>
			<path fill="#FFFFFF" d="M64.231,242.58c1.431,0.916,3.677,0.806,5.316,0.996c2.93,0.34,6.015,0.013,8.955-0.059
				c6.556-0.16,13.098-0.465,19.647-0.369c0.645,0.009,0.644-0.991,0-1c-5.63-0.082-11.201,0.331-16.833,0.333
				c-2.797,0.001-5.592,0.124-8.388,0.162c-1.683,0.023-3.316-0.004-4.979-0.311c-1.092-0.201-2.227,0.016-3.214-0.616
				C64.191,241.368,63.69,242.234,64.231,242.58L64.231,242.58z"/>
		</g>
	</g>
	<g display="none">
		<g display="inline">
			<path fill="#FFFFFF" d="M44.146,17.898c-0.961,1.366-0.774,2.404,0.094,3.782c0.453,0.72,1.413,1.659,2.276,1.018
				c0.832-0.619,0.426-1.915,0.092-2.656c-0.298-0.661-0.72-1.334-1.188-1.89c-0.386-0.459-0.963-0.314-1.449-0.124
				c-0.148,0.058-0.084,0.3,0.066,0.241c1.161-0.453,1.579,0.548,2.058,1.348c0.473,0.789,0.882,1.702,0.48,2.603
				c-0.642,1.438-2.116-0.641-2.449-1.208c-0.647-1.101-0.462-1.996,0.236-2.988C44.455,17.892,44.238,17.767,44.146,17.898
				L44.146,17.898z"/>
		</g>
	</g>
	<g display="none">
		<g display="inline">
			<path fill="#FFFFFF" d="M50.853,17.56c-1.085,1.014-1.211,2.148-0.682,3.526c0.285,0.743,1.173,2.126,2.185,1.836
				c2.426-0.695,0.577-5.609-1.603-5.336c-0.158,0.02-0.16,0.27,0,0.25c1.068-0.134,1.613,0.866,2.034,1.68
				c0.407,0.786,0.981,3.514-0.934,3.117c-0.874-0.181-1.368-1.345-1.609-2.082c-0.361-1.104-0.038-2.046,0.784-2.814
				C51.148,17.626,50.971,17.45,50.853,17.56L50.853,17.56z"/>
		</g>
	</g>
</g>
<g id="eyes">
	<g>
		<g>
			<path fill="#FFFFFF" d="M45.705,20.719c-0.2-0.485-0.443-1.529-1.102-1.523c-0.163,0.001-0.359,0.091-0.432,0.248
				c-0.299,0.646,0.251,1.399,0.651,1.871c0.418,0.492,1.122-0.219,0.707-0.707c-0.14-0.165-0.252-0.336-0.353-0.527
				c-0.108-0.204-0.025-0.384-0.142-0.132c-0.144,0.083-0.288,0.165-0.432,0.248c0.019,0,0.038,0,0.058-0.001
				c-0.118-0.049-0.236-0.098-0.354-0.146c0.203,0.243,0.315,0.647,0.434,0.936C44.982,21.572,45.95,21.315,45.705,20.719
				L45.705,20.719z"/>
		</g>
	</g>
	<g>
		<g>
			<path fill="#FFFFFF" d="M43.942,19.758c-0.007,0.688,0.273,1.225,0.605,1.81c0.292,0.515,0.612,1.019,1.184,1.235
				c0.408,0.154,0.805-0.151,0.9-0.536c0.089-0.361-0.036-0.762-0.128-1.11c-0.164-0.623-1.129-0.358-0.964,0.266
				c0.036,0.137,0.072,0.273,0.101,0.412c0.015,0.074,0.017,0.147,0.017,0.222c0.114-0.073,0.227-0.145,0.341-0.218
				c-0.098-0.054-0.175-0.128-0.232-0.223c-0.379-0.54-0.829-1.177-0.822-1.857C44.948,19.113,43.948,19.113,43.942,19.758
				L43.942,19.758z"/>
		</g>
	</g>
	<g>
		<g>
			<path fill="#FFFFFF" d="M46.733,21.885c0.4-0.763-0.266-1.878-0.961-2.247c-0.326-0.173-0.759,0.039-0.752,0.432
				c0.003,0.178,0.029,0.375,0.002,0.552c0.228-0.102,0.242-0.146,0.043-0.132c-0.08,0.009-0.16,0.021-0.24,0.036
				c-0.177,0.03-0.292,0.195-0.349,0.349c-0.063,0.17-0.058,0.306,0.019,0.472c0.027,0.078,0.069,0.146,0.126,0.205
				c0.103,0.127,0.008,0.142,0.025-0.028c0.167-0.167,0.333-0.333,0.5-0.5c0.291,0.033-0.014-0.11-0.13-0.272
				c-0.142-0.198-0.246-0.418-0.349-0.637c-0.111-0.236-0.173-0.476-0.134-0.739c0.111-0.251,0.03-0.233-0.243,0.054
				c0.054,0.059,0.107,0.12,0.158,0.181c0.419,0.492,1.122-0.219,0.707-0.707c-0.301-0.353-0.593-0.57-1.072-0.482
				c-0.516,0.095-0.585,0.917-0.548,1.309c0.074,0.789,0.703,2.19,1.61,2.292c0.291,0.033,0.475-0.254,0.5-0.5
				c0.028-0.274-0.183-0.456-0.288-0.682c0.017,0.128,0.034,0.257,0.05,0.385c0.011-0.029,0.021-0.057,0.032-0.086
				c-0.116,0.116-0.233,0.233-0.349,0.349c0.309-0.052,0.544-0.003,0.754-0.299c0.23-0.324,0.183-0.744,0.176-1.121
				c-0.251,0.144-0.502,0.288-0.752,0.432c0.221,0.117,0.688,0.714,0.602,0.878C45.57,21.951,46.433,22.456,46.733,21.885
				L46.733,21.885z"/>
		</g>
	</g>
	<g>
		<g>
			<path fill="#FFFFFF" d="M46.158,19.859c-0.145-0.363-0.284-0.73-0.532-1.037c-0.107-0.133-0.226-0.26-0.371-0.352
				c-0.164-0.105-0.379-0.14-0.53-0.253c0.077,0.188,0.153,0.376,0.23,0.565c0.007-0.026,0.013-0.052,0.02-0.078
				c-0.116,0.116-0.233,0.233-0.349,0.349c-0.137,0.047,0.024,0.105,0.119,0.205c0.116,0.121,0.214,0.258,0.313,0.394
				c0.224,0.308,0.401,0.657,0.562,1c0.274,0.583,1.136,0.075,0.863-0.505c-0.294-0.625-0.663-1.209-1.141-1.711
				c-0.376-0.394-1.172-0.635-1.351,0.08c-0.059,0.238,0.044,0.426,0.23,0.565c0.203,0.152,0.434,0.16,0.618,0.349
				c0.174,0.178,0.265,0.47,0.355,0.696C45.43,20.716,46.398,20.459,46.158,19.859L46.158,19.859z"/>
		</g>
	</g>
	<g>
		<g>
			<path fill="#FFFFFF" d="M50.666,18.021c-0.349,0.665-0.686,1.256-0.673,2.025c0.012,0.739,0.525,1.456,0.931,2.033
				c0.758,1.076,2.03,0.731,2.234-0.532c0.102-0.627-0.762-0.89-0.964-0.266c0.227-0.062,0.205-0.213-0.067-0.453
				c-0.064-0.169-0.127-0.338-0.189-0.507c-0.163-0.441-0.246-0.862-0.293-1.329c-0.311,0.084-0.621,0.168-0.932,0.252
				c0.337,0.636,0.813,2.064,1.663,2.134c0.16,0.013,0.362-0.102,0.432-0.248c0.206-0.434,0.074-0.855-0.106-1.281
				c-0.231-0.545-0.416-1.14-0.703-1.656c-0.262,0.202-0.524,0.404-0.785,0.606c0.323,0.381,0.674,0.788,0.855,1.257
				c0.105,0.273,0.591,1.518,0.068,1.61c-0.634,0.112-0.365,1.076,0.266,0.964c0.971-0.171,1.04-1.085,0.894-1.918
				c-0.182-1.035-0.711-1.836-1.376-2.621c-0.378-0.446-1.053,0.124-0.785,0.606c0.117,0.211,0.197,0.46,0.291,0.681
				c0.083,0.197,0.594,1.09,0.519,1.247c0.144-0.083,0.288-0.165,0.432-0.248c0.251,0.021-0.191-0.526-0.257-0.64
				c-0.191-0.327-0.365-0.663-0.542-0.998c-0.223-0.422-0.983-0.249-0.932,0.252c0.097,0.956,0.31,2.238,0.982,2.979
				c0.561,0.619,1.297,0.301,1.532-0.424c-0.321-0.089-0.643-0.177-0.964-0.266c-0.143,0.881-0.687-0.117-0.893-0.458
				c-0.521-0.859-0.185-1.507,0.229-2.297C51.829,17.955,50.966,17.45,50.666,18.021L50.666,18.021z"/>
		</g>
	</g>
	<g>
		<g>
			<path fill="#FFFFFF" d="M51.014,19.592c0.058,0.134,0.076,0.142,0.053,0.025c0-0.094,0-0.188,0-0.281
				c0-0.175-0.031-0.32,0.072-0.466c0.374-0.528-0.494-1.026-0.863-0.505c-0.315,0.445-0.37,1.522,0.031,1.934
				C50.757,20.762,51.463,20.054,51.014,19.592L51.014,19.592z"/>
		</g>
	</g>
</g>
</svg>
