<?xml version="1.0" encoding="utf-8"?>
<!-- Generator: Adobe Illustrator 17.0.0, SVG Export Plug-In . SVG Version: 6.00 Build 0)  -->
<!DOCTYPE svg PUBLIC "-//W3C//DTD SVG 1.1//EN" "http://www.w3.org/Graphics/SVG/1.1/DTD/svg11.dtd">
<svg version="1.1" id="Layer_1" xmlns="http://www.w3.org/2000/svg" xmlns:xlink="http://www.w3.org/1999/xlink" x="0px" y="0px"
	 width="255.273px" height="289.291px" viewBox="64.244 49.178 255.273 289.291"
	 enable-background="new 64.244 49.178 255.273 289.291" xml:space="preserve">
<g id="Layer_4">
	<g>
		<g>
			<path fill="#FFFFFF" d="M179.232,270.34c-0.06-0.368-0.121-0.736-0.181-1.104c0,1.329,0,2.658,0,3.988
				c0.797-5.83,4.549-11.692,7.759-16.479c3.888-5.799,5.92-12.459,9.667-18.292c-4.659-1.262-9.317-2.524-13.976-3.785
				c-0.504,6.894-2.849,13.926-3.962,20.768c-1.114,6.848-3.48,15.619,0.986,21.684c3.004,4.079,7.835,4.886,11.779,1.518
				c6.526-5.572,7.975-15.469,9.712-23.397c1.502-6.856,4.869-15.42-0.379-21.543c-3.591-4.19-11.418-2.008-12.535,3.31
				c-1.956,9.309-3.375,18.9-3.282,28.434c0.06,6.182,0.761,13.882,6.664,17.355c9.706,5.71,16.206-6.822,18.738-13.992
				c3.534-10.006,4.628-23.156,2.011-33.464c-1.719-6.768-13.332-7.571-14.464,0c-1.981,13.239-3.37,31.275,5.595,42.297
				c2.187,2.689,6.299,2.585,9.089,1.173c6.107-3.092,8.235-9.526,8.987-15.888c0.862-7.298,1.079-14.311-0.207-21.582
				c-1.473-8.328-15.35-6.404-14.732,1.994c0.654,8.886,3.318,17.311,5.939,25.772c1.885,6.083,5.775,14.8,13.561,14.061
				c3.254-0.309,6.434-2.049,7.232-5.506c1.621-7.024-0.871-12.829-2-19.654c-4.569,1.926-9.139,3.853-13.708,5.779
				c2.267,4.397,4.084,8.95,5.911,13.542c1.51,3.795,4.955,6.413,9.226,5.238c3.615-0.994,6.752-5.421,5.238-9.226
				c-2.302-5.786-4.567-11.585-7.423-17.125c-4.179-8.106-15.005-2.063-13.708,5.779c0.611,3.694,2.862,7.944,2,11.679
				c2.411-1.835,4.821-3.671,7.232-5.506c2.126-0.202,3.689,2.78,2.454,0.764c-0.446-0.728-0.603-1.132-0.909-1.931
				c-0.606-1.585-1.062-3.23-1.516-4.864c-1.734-6.235-4.049-12.292-4.528-18.802c-4.911,0.665-9.821,1.329-14.732,1.994
				c0.851,4.811,0.355,9.488-0.008,14.311c-0.092,1.228-0.219,2.397-0.455,3.603c-0.165,0.762-0.381,1.51-0.646,2.244
				c-0.155,0.478,1.162-0.61-0.778,0.372c3.03,0.391,6.059,0.782,9.089,1.173c-2.336-2.872-1.947-7.915-2.137-11.363
				c-0.298-5.421-0.407-10.955,0.399-16.34c-4.821,0-9.643,0-14.464,0c1.634,6.433,0.58,13.48-0.603,19.917
				c-0.576,3.137-1.471,6.198-2.83,9.083c-1.907,4.05,1.356-3.465,6.174,3.056c0.783,1.059-0.165-0.522-0.284-0.984
				c-2.11-8.212,0.506-20.682,2.339-29.405c-4.178,1.103-8.357,2.206-12.535,3.31c-2.613-3.049-1.436-4.031-2.215,0.294
				c-0.504,2.797-1.029,5.586-1.638,8.362c-1.031,4.703-1.621,11.775-5.48,15.07c3.926,0.506,7.853,1.012,11.779,1.518
				c-1.15-1.562-0.185-4.935,0.05-6.977c0.383-3.325,1.075-6.609,1.737-9.885c1.194-5.903,2.797-12.013,3.237-18.02
				c0.576-7.87-10.21-9.648-13.976-3.785c-2.005,3.122-3.391,6.498-4.879,9.884c-1.741,3.962-4.208,7.527-6.596,11.114
				c-4.048,6.079-8.496,15.047-7.281,22.447C166.333,283.855,180.786,279.799,179.232,270.34L179.232,270.34z"/>
		</g>
	</g>
	<g>
		<g>
			<path fill="#FFFFFF" d="M180.476,316.215c-0.443-0.975-0.648-5.378-0.911-7.208c-0.75-5.226-1.41-10.396-1.732-15.673
				c-0.3-4.904-0.252-9.806,0.181-14.699c0.255-2.877-0.005-7.606,1.461-10.183c-4.569-0.597-9.139-1.194-13.708-1.792
				c1.998,10.778,2.427,21.977,4.188,32.839c1.472,9.082,3.345,20.811,13.05,24.4c3.352,1.24,6.592-0.882,8.47-3.447
				c4.69-6.404,3.837-15.646,3.725-23.188c-0.138-9.32-1.027-18.61-0.368-27.931c-4.911,0.665-9.821,1.329-14.732,1.994
				c1.572,8.526,2.494,17.18,3.633,25.772c1.083,8.171,1.983,17.411,6.123,24.686c2.305,4.051,8.54,5.108,11.779,1.518
				c4.84-5.363,3.838-13.341,3.862-20.113c0.031-8.366-0.281-16.868,0.668-25.19c-3.762,2.159-7.524,4.317-11.285,6.476
				c-1.915-3.563-2.508-3.835-1.78-0.816c0.248,1.163,0.479,2.33,0.693,3.5c0.441,2.322,0.785,4.663,1.135,7
				c0.391,2.605,0.77,5.209,1.197,7.809c0.918,5.586,2.591,13.902,9.214,15.263c3.72,0.765,8.456-1.029,9.226-5.238
				c2.13-11.646-0.086-23.387,1.667-35c-4.821,0-9.643,0-14.464,0c3.128,10.747,2.938,22.868,8.423,32.792
				c1.762,3.187,5.155,3.949,8.47,3.447c11.93-1.808,7.484-23.233,6.238-30.893c-1.167-7.175-13.327-7.206-14.464,0
				c-1.05,6.65,0.451,12.532,0.872,19.122c0.387,6.048,1.149,11.756,6.575,15.348c2.799,1.853,6.796,1.103,9.089-1.173
				c4.161-4.129,5.056-9.592,5.351-15.221c0.376-7.155,0.594-14.276-0.154-21.416c-0.988-9.422-15.532-9.798-15,0
				c0.438,8.061,1.01,16.117,1.476,24.174c0.389,6.709,1.992,16.382,10.69,16.326c3.511-0.023,6.117-2.308,7.232-5.506
				c3.407-9.771,2.618-21.809,1.935-31.994c-0.534-7.963-13.203-10.786-14.732-1.994c-1.054,6.062,0.279,12.866,1.098,18.919
				c0.808,5.964,0.953,10.793,4.83,15.712c2.535,3.216,7.972,2.635,10.607,0c3.144-3.144,2.529-7.399,0-10.607
				c-0.583-0.739-0.694-7.012-0.913-8.811c-0.379-3.121-1.613-8.609-1.159-11.225c-4.911-0.665-9.821-1.329-14.732-1.994
				c0.595,8.862,1.566,19.506-1.399,28.006c2.411-1.835,4.821-3.671,7.232-5.506c3.603-0.023,5.422,4.519,4.814,2.364
				c0.035,0.125-0.385-2.116-0.344-1.76c-0.219-1.896-0.274-3.815-0.3-5.722c-0.095-6.794-0.968-13.597-1.337-20.382c-5,0-10,0-15,0
				c0.594,5.671,0.63,11.309,0.333,17c-0.121,2.333,0.633,7.274-1.137,9.03c3.03-0.391,6.059-0.782,9.089-1.173
				c2.143,1.419,1.219,1.877,1.006-0.144c-0.142-1.345-0.164-2.701-0.292-4.047c-0.41-4.344-1.961-8.95-1.268-13.34
				c-4.821,0-9.643,0-14.464,0c0.398,2.449,0.527,3.599,0.821,7.09c0.166,1.966,0.236,3.936,0.227,5.908
				c-0.004,0.875-0.072,1.745-0.151,2.616c0.078-0.727,0.034-0.685-0.132,0.126c0.536-1.571,1.694-2.67,3.474-3.299
				c2.823,1.149,5.647,2.298,8.47,3.447c-2.127-3.849-2.631-8.244-3.244-12.542c-0.79-5.544-2.103-11.292-3.667-16.667
				c-1.916-6.585-13.298-7.726-14.464,0c-1.753,11.615,0.437,23.496-1.667,35c3.075-1.746,6.151-3.492,9.226-5.238
				c2.721,2.697,3.593,3.22,2.614,1.569c0.294,0.52,0.256,0.311-0.115-0.627c-0.387-1.253-0.637-2.552-0.895-3.836
				c-0.395-1.966-0.647-3.957-0.978-5.934c-0.697-4.171-1.237-8.36-2.028-12.517c-0.805-4.234-1.088-7.719-5.473-9.899
				c-5.456-2.712-10.628,0.71-11.285,6.476c-0.75,6.576-0.533,13.168-0.574,19.774c-0.019,3.043-0.089,6.087-0.119,9.131
				c-0.018,1.859-0.095,3.715-0.184,5.571c-0.163,3.42-0.301,1.374,0.74,0.22c3.926,0.506,7.853,1.012,11.779,1.518
				c-3.338-5.866-3.599-14.295-4.577-20.875c-1.288-8.66-2.078-17.384-3.667-26c-1.621-8.79-14.169-5.969-14.732,1.994
				c-0.53,7.502-0.109,14.982,0.251,22.482c0.175,3.637,0.163,7.294,0.162,10.935c-0.001,3.41,0.35,7.301-1.723,10.131
				c2.823-1.149,5.647-2.298,8.47-3.447c1.653,0.611,1.275,1.051,0.617-0.723c-0.755-2.037-1.34-4.104-1.864-6.211
				c-1.142-4.596-1.754-9.375-2.472-14.052c-1.312-8.543-1.469-17.287-3.043-25.776c-1.214-6.545-10.68-7.114-13.708-1.792
				c-2.293,4.03-2.814,8.665-3.01,13.227c-0.279,6.474-1.002,12.703-0.68,19.225c0.297,6.015,1.049,12.005,1.978,17.951
				c0.562,3.595,0.881,8.468,2.713,12.501c1.691,3.723,7.01,4.595,10.261,2.691C181.578,324.254,182.166,319.937,180.476,316.215
				L180.476,316.215z"/>
		</g>
	</g>
	<g>
		<g>
			<path fill="#FFFFFF" d="M81.03,249.637c12.909,12.477,25.359,30.042,43.864,34.285c19.003,4.357,39.669-4.206,55.225-14.446
				c8.041-5.293,0.535-18.288-7.571-12.952c-12.843,8.454-29.421,16.2-45.221,12.577c-6.766-1.551-12.154-7.063-17.232-11.447
				c-6.651-5.742-12.155-12.531-18.458-18.624C84.682,232.308,74.064,242.904,81.03,249.637L81.03,249.637z"/>
		</g>
	</g>
	<g>
		<g>
			<path fill="#FFFFFF" d="M158.191,273.548c0.675-0.675,1.349-1.349,2.024-2.024c3.673,2.823,7.345,5.647,11.017,8.47
				c7.357-19.686,15.804-38.333,26.537-56.445c10.941-18.462,24.339-34.875,37.04-52.097c2.432-3.298,0.554-8.361-2.691-10.261
				c-3.811-2.232-7.84-0.592-10.261,2.691c-13.071,17.723-26.698,34.645-37.956,53.642c-11.072,18.684-19.548,38.185-27.133,58.482
				c-2.23,5.967,5.806,12.26,11.017,8.47c1.389-1.01,2.432-1.877,3.357-3.357C176.285,272.891,163.303,265.367,158.191,273.548
				L158.191,273.548z"/>
		</g>
	</g>
	<g>
		<g>
			<path fill="#FFFFFF" d="M204,165c0.024-1.775,0.093-3.536,0.209-5.308c0.285-2.808,0.19-2.362-0.283,1.338
				c0.179-1.184,0.385-2.364,0.618-3.538c0.756-4.063,1.959-8.011,3.242-11.933c0.52-1.59,1.086-3.159,1.681-4.722
				c-3.658,9.614-0.066,0.335,1.221-2.931c2.854-7.243,1.852-16.281-2.1-22.858c-6.994-11.638-22.358-15.948-34.205-8.969
				c-14.416,8.493-24.633,21.737-32.969,35.969c-8.11,13.846-15.707,29.882-14.669,46.378c0.772,12.273,5.974,23.285,16.521,30.104
				c9.797,6.335,22.404,6.881,33.154,2.755c16.305-6.257,29.758-17.263,41.444-30.065c12.551-13.748,22.89-29.115,24.736-48.024
				c1.117-11.442-6.79-25.691-17.325-30.286c-14.221-6.204-28.6-3.581-40.2,6.691c-14.008,12.405-18.388,32.054-19.335,49.916
				c-1.028,19.399,5.356,39.091,21.347,50.808c18.076,13.244,42.383,4.452,58.715-7.065c1.264-0.891,2.495-1.828,3.723-2.767
				c-1.659,1.269,12.965-9.947,3.755-2.922c5.325-4.062,10.467-8.118,15.011-13.048c10.465-11.352,16.083-23.816,17.376-39.192
				c1.143-13.6-12.237-25-25-25c-14.492,0-23.859,11.426-25,25c-0.258,2.821-0.158,2.178,0.3-1.93
				c-0.286,1.666-2.177,6.412,0.655-0.209c-0.646,1.511-1.576,2.909-2.435,4.303c-0.756,1.227-4.387,5.575-0.136,0.393
				c-2.151,2.623-4.638,4.96-7.164,7.212c-1.016,0.906-5.652,4.492-0.171,0.311c-2.236,1.706-4.435,3.425-6.64,5.159
				c7.371-5.801,0.263-0.311-1.546,0.933c-2.133,1.466-4.352,2.797-6.616,4.05c-1.14,0.632-2.319,1.189-3.498,1.741
				c6.951-3.253,3.04-1.298,1.227-0.704c-1.161,0.38-2.355,0.626-3.551,0.861c7.5-1.479,4.356-0.538,2.021-0.59
				c4.76,0.804,5.869,0.926,3.327,0.365c-4.326-1.013,5.717,3.006,1.847,0.631c1.053,0.798,2.107,1.596,3.16,2.394
				c-1.692-1.789-1.276-1.152,1.248,1.91c-1.033-1.411-2.881-6.075-0.206,0.593c-0.86-2.145-2.388-12.08-1.396-3.82
				c-0.377-3.134-0.453-6.268-0.354-9.419c0.055-1.754,0.225-3.502,0.396-5.247c-0.695,7.063-0.075,1.185,0.222-0.298
				c0.344-1.719,0.829-3.404,1.317-5.085c0.574-1.978,3.178-6.192-0.121-0.107c0.664-1.225,1.399-2.403,2.151-3.575
				c2.786-4.343-3.903,4.352-0.324,0.68c-0.965,0.716-1.929,1.431-2.894,2.147c2.263-1.302,1.538-1.056-2.175,0.74
				c-7.353,2.512-15.548-2.669-19.527-8.489c-1.323-2.176-2.052-4.538-2.187-7.086c-0.062-6.319,0.467-3.416-0.393-0.811
				c2.179-6.594,0.942-2.194,0.141-0.545c-0.694,1.431-1.49,2.793-2.301,4.161c-0.869,1.467-1.842,2.87-2.81,4.273
				c-3.372,4.89,3.493-4.26-0.238,0.382c-2.156,2.682-4.485,5.224-6.826,7.743c-2.371,2.551-4.846,4.992-7.404,7.356
				c-1.29,1.192-2.638,2.317-3.988,3.44c5.076-4.223,0.565-0.483-0.529,0.284c-2.645,1.854-5.467,3.424-8.349,4.872
				c-4.804,2.414,5.544-1.956,0.315-0.248c-0.493,0.128-0.987,0.256-1.48,0.384c2.518-0.712,5.024-0.665,7.517,0.142
				c3.761,0.586,6.793,4.03,8.769,6.954c0.513,1.261,1.026,2.522,1.539,3.783c-0.651-2.545-0.591-1.525,0.181,3.059
				c-0.311-2.524,1.211-10.214-0.316-2.146c0.64-3.382,1.749-6.664,2.954-9.88c-2.396,6.395-0.379,1.015,0.247-0.286
				c0.737-1.53,1.562-3.017,2.383-4.503c3.105-5.62,6.552-11.134,10.35-16.311c-4.141,5.645-0.852,1.229,0.128,0.105
				c1.046-1.2,2.181-2.316,3.318-3.428c1.084-1.06,5.425-4.385-0.199-0.15c1.271-0.957,2.64-1.769,4.008-2.575
				c-11.402-2.99-22.803-5.979-34.205-8.969c0.081,0.135,0.163,0.271,0.244,0.406c-1.138-4.206-2.275-8.412-3.413-12.618
				c-0.21-6.412,1.292-6.501,0.229-3.458c0.675-1.584,1.349-3.169,2.024-4.753c-0.913,2.034-1.781,4.087-2.604,6.159
				c-1.518,3.613-2.748,7.344-3.854,11.103c-2.634,8.951-3.915,18.567-4.039,27.877c-0.181,13.629,11.509,25,25,25
				C192.765,190,203.819,178.625,204,165L204,165z"/>
		</g>
	</g>
	<g>
		<g>
			<path fill="#FFFFFF" d="M121.56,196.687c-0.064,0.285-0.129,0.57-0.193,0.855c2.139-7.173,7.196-12.086,15.172-14.738
				c1.844-0.26,3.688-0.52,5.532-0.779c5.556,1.047,7.136,1.201,4.739,0.461c7.252,2.379,5.302,2.379,3.13,1.038
				c-1.65-1.018-4.535-3.638,2.072,1.694c-2.996-2.418-5.689-5.283-8.123-8.26c5.688,6.958,3.827,5.112,2.697,3.423
				c-3.003-4.49,1.548,5.461,0.172,0.58c1.819,6.451,0.354,3.477,0.257,0.903c-0.064-1.704-0.02-3.418-0.031-5.123
				c-0.022-3.654-0.052-7.306,0-10.959c0.026-1.851,0.113-3.7,0.207-5.548c0.072-1.239,0.165-2.476,0.281-3.711
				c-0.583,3.866-0.673,4.534-0.269,2.004c0.463-2.849,1.166-5.645,2.005-8.404c0.506-1.664,2.673-6.194-0.414,0.604
				c0.592-1.304,1.335-2.528,2.083-3.745c2.704-4.402-3.897,4.386-0.351,0.617c3.51-3.73-4.883,3.057-0.429,0.333
				c4.483-2.743-5.547,1.876-0.516,0.307c1.906-0.595,3.901-0.926,5.862-1.276c6.612-1.18,12.773-2.495,19.106-4.832
				c7.339-2.708,14.404-6.149,21.838-8.598c3.484-1.148,7.006-2.163,10.554-3.091c1.772-0.463,3.561-0.849,5.352-1.231
				c1.309-0.279,7.55-1.235,0.567-0.298c3.54-0.475,7.104-0.569,10.671-0.589c1.529-0.009,3.055,0.106,4.578,0.221
				c2.729,0.291,2.027,0.189-2.105-0.308c1.003,0.17,2.001,0.366,2.993,0.589c2.986,0.629,5.884,1.61,8.728,2.701
				c-6.782-2.603-1.921-0.719-0.445,0.038c1.356,0.696,2.652,1.501,3.946,2.305c1.319,0.82,5.533,4.129-0.117-0.334
				c1.202,0.949,2.319,2,3.433,3.048c1.121,1.055,2.145,2.207,3.167,3.356c0.674,0.782,1.324,1.583,1.95,2.404
				c-2.178-2.888-2.496-3.24-0.954-1.056c0.929,1.351,1.715,2.793,2.497,4.23c2.731,5.02-1.916-5.36,0.059-0.016
				c0.563,1.523,0.954,3.102,1.343,4.675c1.384,5.601-0.458-5.968,0.067-0.177c0.155,1.709,0.074,3.444,0.012,5.154
				c-0.217,5.965,1.182-5.629-0.118,0.133c-1.249,5.536,2.296-4.358,0.311-0.068c-0.394,0.793-0.836,1.558-1.328,2.294
				c2.667-3.196,3.107-3.884,1.321-2.065c4.291-4.148,10.14-5.957,15.843-4.538c1.212,0.475,2.424,0.949,3.637,1.424
				c3.234,2.708,3.923,3.163,2.067,1.365c4.551,4.619,2.044,2.759,0.832,0.716c-0.638-1.075-1.145-2.227-1.655-3.366
				c2.662,5.948,0.281,0.31-0.122-0.882c-0.581-1.718-1.038-3.477-1.501-5.23c-0.46-1.745-0.826-3.514-1.198-5.279
				c-0.239-1.176-0.465-2.354-0.678-3.535c0.465,3.873,0.542,4.47,0.233,1.79c-1.135-9.988-2.376-20.23-9.921-27.775
				c-6.677-6.677-17.133-9.601-26.281-7.085c-6.095,1.676-11.098,5.614-15.318,10.154c-10.68,11.493-18.15,26.203-26.654,39.275
				c-10.489,16.122-20.928,35.728-10.932,54.738c4.301,8.179,12.215,14.027,20.52,17.69c2.828,1.247,12.326,5.201,3.98,1.677
				c3.041,1.284,6.074,2.585,9.129,3.835c3.19,1.306,6.446,2.275,9.844,2.848c11.718,1.974,20.938-0.013,31.701-4.574
				c6.227-2.639,11.929-6.783,17.524-10.526c7.022-4.697,14.18-9.725,19.725-16.153c7.587-8.795,11.141-18.557,12.301-29.964
				c1.389-13.657-3.004-27.44-7.831-40.033C291.416,114.567,279.96,90.214,257,93c-6.913,0.839-12.556,2.201-17.678,7.322
				C234.655,104.99,232,111.396,232,118c0,12.383,11.439,26.646,25,25c4.497-0.365,1.911-1.293-7.759-2.783
				c-3.335-2.885-4.085-3.398-2.252-1.539c-4.609-4.904-0.223,0.153,0.736,1.89c0.743,1.345,3.771,8.542,0.967,1.701
				c0.763,1.861,1.471,3.745,2.185,5.625c1.413,3.722,2.696,7.484,3.804,11.308c0.574,1.979,1.023,3.989,1.44,6.006
				c0.466,2.715,0.401,2.015-0.195-2.1c0.111,1.003,0.188,2.009,0.232,3.018c0.119,1.991-0.757,8.815,0.456,0.73
				c-0.304,2.028-2.859,7.834,0.289,0.948c-1.291,2.19-0.831,1.809,1.379-1.14c-0.727,0.883-1.493,1.73-2.298,2.542
				c-0.979,1.034-7.078,5.971-1.606,1.788c-7.166,5.477-15.08,10.651-23.226,14.53c3.559-1.437,4.07-1.744,1.532-0.919
				c-2.683,0.566-2.03,0.49,1.959-0.23c-2.753-0.125-2.195,0.01,1.673,0.403c-1.116-0.225-2.218-0.504-3.308-0.835
				c-1.434-0.399-8.782-3.378-2.057-0.527c-2.422-1.023-4.845-2.045-7.267-3.067c3.737,1.6,4.378,1.863,1.924,0.789
				c-1.839-0.811-3.575-1.782-5.271-2.855c4.344,2.748,6.378,7.236,6.683,12.273c-0.778,4.29-0.884,5.106-0.317,2.448
				c0.272-1.017,0.607-2.013,1.005-2.988c-2.439,6.625,0.478-0.524,1.226-1.911c4.519-8.386,9.981-16.473,15.195-24.442
				c2.702-4.13,5.453-8.226,8.125-12.375c0.813-1.263,5.354-7.209,0.857-1.483c0.671-0.833,1.379-1.632,2.125-2.398
				c2.056-1.905,1.439-1.457-1.852,1.344c-6.421,0.84-12.843,1.68-19.264,2.52c-1.338-0.622-2.677-1.243-4.015-1.865
				c-2.99-2.99-5.979-5.979-8.969-8.969c-3.121-4.846-1.725-4.817-0.91-2.121c0.461,1.524,1.034,7.171,0.095-0.399
				c0.625,5.039,1.247,10.053,2.231,15.036c1.76,8.91,4.916,17.406,8.903,25.561c4.704,9.622,13.002,16.268,22.757,20.137
				c12.197,4.838,25.954-0.059,34.947-8.754c14.4-13.922,16.049-37.931,10.816-56.143c-5.071-17.648-17.499-31.864-32.245-42.213
				c-27.895-19.577-65.072-14.497-94.717-2.358c-6.689,2.739-13.331,5.537-20.274,7.582c-6.336,1.867-13.004,1.916-19.25,4.215
				c-18.441,6.788-29.758,22.634-33.963,41.449c-2.792,12.494-2.558,25.207-2.526,37.908c0.033,13.301,4.393,23.792,12.958,33.669
				c6.34,7.31,13.981,12.73,22.875,16.415c15.423,6.389,33.421-4.837,36.94-20.438c2.997-13.282-3.873-27.015-17.461-30.753
				C139.647,175.742,124.559,183.394,121.56,196.687L121.56,196.687z"/>
		</g>
	</g>
	<g>
		<g>
			<path fill="#FFFFFF" d="M158.678,135.322c6.878,8.629,5.203,10.563,4.096,5.698c-0.527-2.316-1.45-4.572-1.975-6.914
				c-1.019-4.541-1.971-8.964-3.483-13.378c-1.31-3.824-2.896-7.549-4.055-11.424c-0.3-1.139-0.543-2.29-0.729-3.454
				c0.476,3.726,0.569,4.166,0.281,1.319c-0.192-2.844-0.538-5.672-1.039-8.484c-0.518-2.768-0.442-2.22,0.226,1.646
				c-15.529,4.206-31.058,8.412-46.587,12.618c4.499,6.8,7.977,14.222,14.151,19.805c11.536,10.433,27.47,12.874,41.107,4.814
				c8.123-4.801,13.627-12.726,18.791-20.37c1.204-1.782,4.637-6.223-1.118,1.144c5.859-7.105,5.14-6.81-2.156,0.885
				c-13.991,0.683-17.944,1.386-11.861,2.107c6.395,0.917,9.935,1.074,16.387-0.165c1.785-0.343,8.562-1.428,0.919-0.667
				c4.093-0.407,8.251-0.139,12.358-0.407c2.464-0.161,4.923-0.417,7.385-0.61c1.723-0.135,9.674,0.335,2.323-0.789
				c4.319,0.66,8.432,2.683,12.485,4.216c4.484,1.695,9.119,3.008,13.776,4.123c5.908,1.413,12.183,2.637,18.257,2.449
				c7.895-0.244,14.341-2.789,21.347-6.187c10.268-4.98,19.048-12.52,25.353-22.013c7.549-11.366,2.278-27.617-8.969-34.205
				c-12.555-7.354-26.318-2.108-34.205,8.969c-7.027,9.869-4.75,20.916-3.187,31.931c0.669,4.713,2.647,9.567,5.48,13.345
				c1.88,2.506,3.72,4.879,5.746,7.223c-2.347-3.272-2.805-3.804-1.373-1.596c-1.535-3.826-1.871-4.449-1.008-1.868
				c2.282,7.331,5.035,14.506,7.122,21.891c0.982,3.477,1.801,6.994,2.519,10.535c0.277,1.366,1.079,7.547,0.21,0.482
				c0.286,2.326,0.375,4.667,0.411,7.008c0.215,13.624,11.21,25,25,25c13.466,0,25.215-11.371,25-25
				c-0.247-15.678-4.494-30.367-9.486-45.039c-1.084-3.186-2.013-6.407-3.013-9.618c-2.017-6.48-4.84-10.933-9.117-16.061
				c-1.039-1.245-4.18-5.317,0.306,0.663c0.394,1.025,0.788,2.05,1.183,3.075c-0.302-1.1-0.557-2.211-0.765-3.333
				c-0.307-1.48-0.829-7.311-0.035-0.053c-0.776-7.096-5.335,11.589-1.819,6.65c-14.391-8.412-28.782-16.824-43.174-25.236
				c-2.863,4.311,3.97-4.382,0.224-0.55c-1.144,1.17-5.356,4.069,0.274-0.007c-2.86,2.07-6.027,3.718-9.196,5.255
				c0.98-0.418,1.961-0.836,2.941-1.254c-2.687,0.687-1.944,0.684,2.23-0.008c-1.006,0.069-2.012,0.061-3.017-0.023
				c4.038,0.565,4.586,0.603,1.643,0.112c-4.214-0.749-8.349-1.917-12.43-3.19c-8.631-2.691-16.472-6.786-25.75-7.05
				c-8.413-0.24-16.929,0.821-25.349,1.072c-4.872,0.145-9.777,0.899-14.475,2.186c-6.527,1.788,12.546,1.102,5.643,0.072
				c-6.202-0.925-10.05-1.229-16.283,0.248c-2.434,0.577-6.078,2.242-8.351,3.992c-2.287,1.335-4.293,2.979-6.017,4.933
				c-4.764,6.14-5.217,6.743-1.357,1.807c-2.632,3.369-5.073,6.688-7.464,10.202c-0.673,0.989-1.372,1.959-2.079,2.924
				c4.827-6.592,1.45-1.981,0.02-0.544c-3.171,3.187,5.271-3.479,1.582-1.299c5.558-3.285,11.726-2.782,17.327-0.046
				c-4.107-2.006,4.5,4.15,1.252,0.767c5.196,5.412,1.306,1.692,0.063-0.302c-1.572-2.522-2.952-5.152-4.593-7.632
				c-6.23-9.417-16.963-14.589-28.233-11.489c-10.245,2.818-19.006,13.1-18.354,24.107c0.124,2.791,0.455,5.562,0.992,8.313
				c0.395,2.713,0.335,2.221-0.179-1.475c0.364,4.591,0.988,9.178,1.826,13.705c0.935,5.052,3.354,9.908,5.014,14.753
				c1.709,4.987,2.467,10.173,3.771,15.263c1.912,7.462,5.072,13.729,9.898,19.785c8.507,10.673,26.534,8.821,35.355,0
				C163.345,166.01,166,159.604,166,153C166,145.779,163.002,140.747,158.678,135.322L158.678,135.322z"/>
		</g>
	</g>
	<g>
		<g>
			<path fill="#FFFFFF" d="M117.333,84.5c-0.222,0-0.444,0-0.667,0c2.411,1.835,4.821,3.671,7.232,5.506
				c-1.072-6.992-0.965-14.555-3-21.333c-1.766-5.883-10.659-7.823-13.708-1.792c-3.964,7.842-2.53,18.647-1.69,27.119
				c4.911-0.665,9.821-1.329,14.732-1.994c-2.389-7.512-2.49-16.444-6.089-23.458c-2.844-5.542-12.55-4.575-13.708,1.792
				c-1.447,7.955,1.077,16.281,3,23.988c4.821-1.329,9.643-2.658,14.464-3.988c-2.379-7.147-2.854-17.001-1-24.346
				c-2.411,1.835-4.821,3.671-7.232,5.506c-1.557-0.039,2.586,2.058,3.128,2.396c2.403,1.496,4.78,3.008,7.221,4.444
				c4.486,2.639,9.595,4.435,14.657,5.559c7.464,1.658,12.345-6.877,7.297-12.535c-3.524-3.951-8.268-6.278-12.966-8.535
				c-4.255-2.045-10.283-3.201-12.861-7.614c-2.159,3.762-4.317,7.524-6.476,11.285c2.39-0.211,6.854,3.041,9.145,4.04
				c5.009,2.184,9.763,4.647,14.502,7.37c4.382,2.518,8.363,5.444,12.567,8.233c1.73,1.147,3.108,2.228,5.073,3.006
				c2.265,0.897,4.273,0.447,6.515,0.591c-1.262-0.341-2.524-0.683-3.785-1.024c0.399,0.253,0.799,0.507,1.198,0.76
				c8.193,5.201,15.711-7.785,7.571-12.952c-2.013-1.278-3.753-1.705-6.119-1.857c-2.42,0.319-2.659,0.355-0.715,0.107
				c-1.221-0.73-2.341-1.699-3.528-2.486c-4.789-3.176-9.397-6.308-14.404-9.159c-4.587-2.612-9.368-4.655-14.173-6.81
				c-4.375-1.962-8.857-5.259-13.847-4.819c-5.512,0.486-9.542,6.039-6.476,11.285c2.677,4.581,7.367,8.345,12.159,10.386
				c5.361,2.284,12.045,4.349,16.014,8.798c2.432-4.178,4.865-8.357,7.297-12.535c-5.703-1.266-10.518-3.591-15.455-6.664
				c-4.252-2.646-8.332-6.141-13.538-6.271c-3.27-0.081-6.433,2.341-7.232,5.506c-2.49,9.864-2.209,22.679,1,32.321
				c3.038,9.128,16.821,5.456,14.464-3.988c-1.14-4.568-3.865-11.257-3-16.012c-4.569,0.597-9.139,1.194-13.708,1.792
				c0.974,1.899,1.145,5.394,1.577,7.542c0.841,4.176,1.707,8.266,3,12.333c2.453,7.714,15.601,6.767,14.732-1.994
				c-0.319-3.22-0.611-6.43-0.667-9.667c-0.044-2.558-0.676-7.932,0.309-9.881c-4.569-0.597-9.139-1.194-13.708-1.792
				c2.013,6.708,1.936,14.391,3,21.333c0.498,3.246,4.192,5.506,7.232,5.506c0.222,0,0.444,0,0.667,0
				C127.006,99.5,127.006,84.5,117.333,84.5L117.333,84.5z"/>
		</g>
	</g>
	<g>
		<g>
			<path fill="#FFFFFF" d="M108.524,98.215c-9.479,14.576-20.504,27.129-20.696,45.415c-0.09,8.518,1.419,17.334,2.384,25.791
				c1.004,8.796,2.838,17.068,6.529,25.144c6.033,13.2,17.491,23.601,30.483,29.731c7.665,3.617,15.646,5.33,23.974,6.637
				c9.439,1.482,18.559,3.189,27.809,5.632c5.352,1.414,10.98-3.667,9.226-9.226c-0.779-2.469-1.954-4.465-3.391-6.592
				c-0.408-0.719-0.83-1.429-1.267-2.131c-0.446-0.73-1.108-3.442-1.075-1.284c-3.165,2.411-6.329,4.821-9.494,7.232
				c4.002,1.174,7.071,4.857,11.069,6.36c1.973,0.742,4.264,1.065,5.954,2.378c2.273,1.766,4.354,3.848,6.55,5.714
				c4.261,3.62,8.188,7.586,12.413,11.249c3.895,3.376,7.69,5.778,11.037,9.704c5.291,6.205,13.831-0.583,12.535-7.297
				c-0.62-3.213-2.64-5.506-4.423-8.125c-2.814-4.133-5.06-8.602-8-12.667c-2.544-3.518-6.045-6.6-9.579-9.099
				c-1.751-1.238-3.527-2.301-5.445-3.259c-0.831-0.425-1.696-0.758-2.594-0.999c-1.824-0.732-1.507-0.28,0.952,1.356
				c-2.823,3.673-5.647,7.345-8.47,11.017c7.361,2.466,11.822,9.173,16.001,15.302c4.608,6.759,8.806,16.431,16.759,19.672
				c2.523,1.028,5.426-0.307,7.297-1.929c6.274-5.437,0.24-17.945-2.41-23.895c-2.034-4.568-4.387-8.944-6.908-13.26
				c-1.883-3.226-4.482-6.629-4.913-10.455c-4.659,1.262-9.317,2.524-13.976,3.785c1.333,3,2.667,6,4,9
				c1.661,3.737,7.031,4.583,10.261,2.691c3.814-2.234,4.351-6.525,2.691-10.261c-1.333-3-2.667-6-4-9
				c-2.97-6.681-14.796-3.496-13.976,3.785c0.844,7.492,4.155,13.221,7.892,19.622c2.182,3.737,4.269,7.593,5.937,11.591
				c1.257,3.015,3.287,7.468,2.998,10.747c0.732-1.768,1.464-3.536,2.197-5.303c-0.133,0.116-0.267,0.231-0.4,0.347
				c2.432-0.643,4.865-1.286,7.297-1.929c3.461,1.41-0.567-1.902-1.4-3.055c-1.322-1.827-2.523-3.745-3.739-5.643
				c-2.238-3.493-4.546-6.928-7.022-10.257c-5.447-7.325-11.824-13.08-20.599-16.019c-6.119-2.05-12.076,5.618-8.47,11.017
				c2.035,3.047,4.591,4.443,8.013,5.537c2.906,0.93,5.495,3.602,7.616,5.663c2.993,2.909,4.969,6.664,7.085,10.221
				c1.288,2.166,4.4,5.383,4.864,7.787c4.178-2.432,8.357-4.865,12.535-7.297c-3.391-3.977-7.043-6.402-11.037-9.704
				c-4.754-3.93-9.054-8.394-13.758-12.392c-4.813-4.09-8.741-7.954-14.909-9.82c-5.112-1.546-8.71-5.813-13.939-7.347
				c-4.64-1.361-9.569,2.405-9.494,7.232c0.092,5.884,4.655,8.882,6.268,13.994c3.075-3.075,6.151-6.151,9.226-9.226
				c-8.022-2.119-15.941-3.938-24.161-5.094c-7.373-1.037-14.753-2.178-21.773-4.73c-11.553-4.201-20.975-12.903-26.583-23.73
				c-3.331-6.43-4.645-13.7-5.459-20.833c-0.847-7.422-1.809-14.942-2.156-22.402c-0.731-15.691,10.582-27.175,18.615-39.528
				C126.767,97.65,113.775,90.14,108.524,98.215L108.524,98.215z"/>
		</g>
	</g>
	<g>
		<g>
			<path fill="#FFFFFF" d="M104.309,185.381c-3.344-5.416-6.908-11.256-7.512-17.767c-0.608-6.551-0.316-14.036,0.619-20.536
				c1.742-12.115,4.655-26.162,13.221-35.442c6.548-7.095-4.033-17.729-10.607-10.607c-10.968,11.883-15.097,28.283-17.339,43.878
				c-1.138,7.918-1.469,16.498-0.729,24.475c0.793,8.547,4.972,16.404,9.396,23.569C96.427,201.164,109.406,193.637,104.309,185.381
				L104.309,185.381z"/>
		</g>
	</g>
	<g>
		<g>
			<path fill="#FFFFFF" d="M84.833,177.833c-0.32,4.301,2.759,9.271,5.211,12.577c1.577,2.125,3.29,4.118,4.839,6.266
				c1.157,1.605,3.51,3.454,4.218,5.318c3.672-2.823,7.345-5.647,11.017-8.47c-3.347-2.104-8.615-8.702-10.053-13.018
				c-3.043-9.129-17.532-5.215-14.464,3.988c2.71,8.131,9.683,17.416,16.947,21.982c5.274,3.315,13.392-2.219,11.017-8.47
				c-1.539-4.052-4.19-6.766-6.673-10.208c-1.544-2.141-3.277-4.124-4.846-6.24c-0.604-0.805-1.126-1.661-1.564-2.566
				c-0.139-0.329-0.278-0.657-0.417-0.986c-0.924-2.334-1.002-2.391-0.232-0.173C100.551,168.179,85.546,168.248,84.833,177.833
				L84.833,177.833z"/>
		</g>
	</g>
	<g>
		<g>
			<path fill="#FFFFFF" d="M89.191,193.452c1.494,2.56,2.968,5.14,5.23,7.101c1.916,1.661,5.502,2.724,6.937,4.732
				c3.42-3.42,6.841-6.841,10.261-10.261c-1.983-1.446-3.308-3.493-5.5-4.833c-6.389-3.907-14.198,3.864-10.261,10.261
				c2.014,3.273,4.116,6.284,7.006,8.851c3.03-3.926,6.059-7.853,9.089-11.779c-1.88-1.277-3.813-3.117-5.143-4.976
				c-3.926,3.03-7.853,6.059-11.779,9.089c3.347,3.83,6.92,7.774,10.735,11.136c3.711,3.271,8.019,5.848,11.811,9.051
				c7.138,6.029,14.31,10.579,23.598,11.908c4.044,0.579,8.04-0.928,9.226-5.238c0.979-3.56-1.184-8.646-5.238-9.226
				c-2.991-0.428-6.978-0.97-9.461-2.707c-3.442-2.407-6.777-4.717-9.99-7.434c-3.395-2.871-7.27-5.139-10.591-8.066
				c-3.372-2.972-6.523-6.646-9.481-10.031c-5.572-6.376-16.744,2.145-11.779,9.089c2.914,4.076,6.372,7.538,10.524,10.357
				c7.056,4.791,15.437-6.141,9.089-11.779c-1.986-1.764-3.28-3.572-4.661-5.815c-3.42,3.42-6.841,6.841-10.261,10.261
				c1.976,1.209,3.576,3.43,5.5,4.833c6.007,4.38,14.549-4.259,10.261-10.261c-2.079-2.911-4.08-4.913-7.191-6.691
				c-2.63-1.503-3.465-2.553-4.976-5.143C97.271,177.534,84.304,185.08,89.191,193.452L89.191,193.452z"/>
		</g>
	</g>
	<g>
		<g>
			<path fill="#FFFFFF" d="M132.697,230.97c5.667,4.477,13.001,5.001,19.81,6.929c3.453,0.978,7.281,0.792,10.827,0.768
				c3.948-0.027,7.883,0.267,11.833,0.167c9.655-0.245,9.679-15.245,0-15c-5.693,0.144-11.457-0.038-17.149-0.203
				c-2.943-0.085-5.998-1.532-8.857-2.196c-1.338-0.311-4.864-0.287-5.857-1.071c-3.205-2.532-7.465-3.141-10.607,0
				C130.06,223,129.483,228.431,132.697,230.97L132.697,230.97z"/>
		</g>
	</g>
	<g>
		<g>
			<path fill="#FFFFFF" d="M168.333,272.833c0.492-5.794,4.118-10.839,5.732-16.34c2.385-8.126-9.669-13.322-13.708-5.779
				c-1.925,3.594-3.974,6.959-5.423,10.792c-2.997,7.93,10.261,13.522,13.708,5.779c2.353-5.284,4.611-10.609,7.581-15.586
				c2.442-4.093,4.518-8.696,5.509-13.372c1.999-9.435-12.46-13.448-14.464-3.988c-0.855,4.035-2.646,7.525-4.744,11.042
				c-2.707,4.537-4.689,9.518-6.833,14.333c4.569,1.926,9.139,3.853,13.708,5.779c0.959-2.538,2.633-4.823,3.911-7.208
				c-4.569-1.926-9.139-3.853-13.708-5.779c-0.931,3.174-2.58,5.704-3.728,8.796c-1.369,3.687-2.207,7.617-2.54,11.531
				C152.514,282.477,167.521,282.397,168.333,272.833L168.333,272.833z"/>
		</g>
	</g>
	<g>
		<g>
			<path fill="#FFFFFF" d="M93.101,195.327c0.71,2.35,1.824,4.373,2.881,6.562c-0.341-1.262-0.683-2.524-1.024-3.785
				c-0.142-2.478-0.162,3.669-0.292,2.062c0.172,2.131,0.516,3.8,1.649,5.64c1.713,2.782,4.063,5.783,6.637,7.774
				c6.397,4.949,13.632,8.564,20.095,13.395c3.283,2.453,8.37,0.538,10.261-2.691c2.242-3.828,0.577-7.819-2.691-10.261
				c-7.187-5.372-17.068-8.833-21.898-16.677c0.341,1.262,0.683,2.524,1.024,3.785c0.052,0.645,0.265-2.132,0.214-3.029
				c-0.151-2.647-1.667-4.361-2.393-6.765C104.776,182.105,90.296,186.043,93.101,195.327L93.101,195.327z"/>
		</g>
	</g>
	<g>
		<g>
			<path fill="#FFFFFF" d="M140.175,222.595c0.577,1.348,1.022,2.751,1.551,4.119c0.36,0.929,1.494,2.557,1.197,3.288
				c-0.321,0.79-0.395,1.622-0.167,2.454c0.152,0.551,1.494,2.013,1.447,1.792c0.084-0.642,0.168-1.284,0.252-1.926
				c-0.251,0.491-0.548,0.911-0.78,1.416c-0.647,1.408-0.197,3.264,1.494,3.672c2.342,0.565,4.921,1.056,7.331,1.256
				c3.215,0.267,3.189-4.735,0-5c-1.917-0.159-4.127-0.625-6.002-1.077c0.498,1.224,0.996,2.448,1.494,3.672
				c0.526-1.144,1.325-1.982,1.032-3.342c-0.122-0.569-0.299-1.085-0.73-1.506c-0.847-0.828-0.722,0.34-0.28-0.749
				c0.488-1.201-0.371-3.025-0.856-4.093c-0.971-2.135-1.742-4.341-2.667-6.5C143.226,217.115,138.92,219.665,140.175,222.595
				L140.175,222.595z"/>
		</g>
	</g>
	<g>
		<g>
			<path fill="#FFFFFF" d="M159.238,236.659c1.032,0.782,2.231,1.252,3.493,1.514c0.58,0.121,1.594,0.141,1.908,0.526
				c-0.214-0.368-0.429-0.735-0.643-1.103c0.031,0.078,0.062,0.157,0.093,0.235c1.025-1.025,2.05-2.05,3.075-3.075
				c-1.372-0.463-2.707-0.85-4.165-0.923c-0.499-0.025-1.027,0.103-1.52,0.163c-0.231,0.027-0.462,0.045-0.694,0.053
				c-0.689,0.038-0.106-0.103,0.148,0.183c-2.143-2.418-5.666,1.132-3.536,3.536c1.036,1.169,2.609,1.37,4.081,1.229
				c0.558-0.054,1.19-0.245,1.754-0.169c0.889,0.12,1.757,0.465,2.602,0.75c1.696,0.572,3.768-1.316,3.075-3.075
				c-1.314-3.337-4.75-2.344-7.149-4.161c-1.089-0.825-2.793-0.174-3.42,0.897C157.591,234.52,158.154,235.838,159.238,236.659
				L159.238,236.659z"/>
		</g>
	</g>
	<g>
		<g>
			<path fill="#FFFFFF" d="M158.667,235.333c0.106,1.548,1.049,2.668,2.322,3.471c1.473,0.93,3.271,0.955,4.613-0.203
				c1.032-0.891,0.91-2.625,0-3.536c-1.016-1.016-2.505-0.89-3.536,0c0.411-0.355,0.767-0.507,1.309-0.552
				c-0.409,0.035,0.7,0.137,0.274,0.042c-0.186-0.041-0.568-0.228,0.178,0.1c-0.109-0.048-0.212-0.108-0.314-0.168
				c-0.158-0.092-0.513-0.379,0.113,0.114c-0.091-0.072-0.174-0.153-0.257-0.234c-0.317-0.313,0.364,0.526,0.125,0.179
				c-0.126-0.219-0.083-0.101,0.128,0.354c-0.071-0.245-0.056-0.1,0.045,0.434c-0.093-1.359-1.067-2.5-2.5-2.5
				C159.874,232.833,158.574,233.972,158.667,235.333L158.667,235.333z"/>
		</g>
	</g>
	<g>
		<g>
			<path fill="#FFFFFF" d="M83.341,251.428c4.83,9.373,9.666,21.148,19.397,26.397c2.838,1.531,5.362-2.786,2.524-4.317
				c-8.745-4.717-13.248-16.152-17.603-24.603C86.181,246.038,81.867,248.568,83.341,251.428L83.341,251.428z"/>
		</g>
	</g>
	<g>
		<g>
			<path fill="#FFFFFF" d="M90.899,262.101c9.731,9.79,19.314,17.342,32.303,22.428c5.909,2.314,13.381,2.435,19.642,2.75
				c3.135,0.158,6.222-0.405,9.19-1.366c1.547-0.501,5.405-2.724,6.713-0.322c1.079,1.982,2.056,4.127,2.843,6.24
				c1.607-0.443,3.214-0.886,4.821-1.329c-0.111-0.278-0.222-0.556-0.333-0.833c-1.182-2.955-6.02-1.667-4.821,1.329
				c0.111,0.278,0.222,0.556,0.333,0.833c1.174,2.936,5.957,1.722,4.821-1.329c-1.462-3.928-3.202-10.18-7.913-11.079
				c-2.633-0.503-5.405,0.767-7.793,1.669c-4.276,1.615-8.766,1.239-13.205,0.741c-3.818-0.428-7.575-0.723-11.335-1.577
				c-4.16-0.946-8.238-3.547-12.007-5.489c-7.774-4.005-13.634-10.076-19.723-16.202C92.159,256.276,88.624,259.813,90.899,262.101
				L90.899,262.101z"/>
		</g>
	</g>
	<g>
		<g>
			<path fill="#FFFFFF" d="M156.256,277.835c-0.744,4.465-0.063,9.219-0.305,13.757c-0.212,3.979-0.092,9.268,1.891,12.836
				c1.114,2.005,3.886,1.355,4.569-0.597c1.391-3.974,0.916-9.163,0.923-13.331c-1.667,0-3.333,0-5,0
				c0.601,8.944,3.168,17.889,4.923,26.665c1.607-0.443,3.214-0.886,4.821-1.329c-1.412-5.449-0.782-13.448-4.085-18.097
				c-1.046-1.473-3.329-1.751-4.317,0c-1.937,3.432-0.986,8.316-0.688,12.043c0.325,4.069-0.161,9.408,1.688,13.147
				c1.362,2.754,4.96,0.653,4.569-1.926c-0.515-3.4-1.408-6.72-2.284-10.043c-0.58-2.201-0.633-4.56-1.801-6.554
				c-1.313-2.242-4.506-1.149-4.659,1.262c-0.369,5.839-0.581,12.413,0.589,18.165c0.593,2.916,4.72,2.003,4.911-0.665
				c0.216-3.018-0.664-6.185-1.089-9.165c-0.407-2.851-4.911-2.076-4.911,0.665c0,2.882-0.454,6.161,0.089,8.998
				c0.606,3.165,5.425,1.821,4.821-1.329c-0.442-2.308,0.089-5.321,0.089-7.669c-1.637,0.222-3.274,0.443-4.911,0.665
				c0.363,2.543,1.094,5.273,0.911,7.835c1.637-0.222,3.274-0.443,4.911-0.665c-1.067-5.246-0.747-11.512-0.411-16.835
				c-1.553,0.421-3.106,0.841-4.659,1.262c1.144,1.954,1.179,4.909,1.748,7.069c0.726,2.755,1.407,5.515,1.833,8.333
				c1.523-0.642,3.046-1.284,4.569-1.926c-1.117-2.26-0.668-6.413-0.825-8.905c-0.188-2.973-1.733-8.478-0.175-11.238
				c-1.439,0-2.878,0-4.317,0c1.492,2.101,1.468,5.614,1.915,8.069c0.539,2.963,0.91,5.912,1.667,8.833
				c0.816,3.148,5.448,1.802,4.821-1.329c-1.662-8.311-4.175-16.874-4.744-25.335c-0.214-3.186-4.995-3.253-5,0
				c-0.006,3.693,0.488,8.481-0.744,12.002c1.523-0.199,3.046-0.398,4.569-0.597c-1.55-2.79-1.343-7.281-1.208-10.313
				c0.178-3.999-0.527-8.504,0.127-12.427C161.603,276.012,156.785,274.66,156.256,277.835L156.256,277.835z"/>
		</g>
	</g>
	<g>
		<g>
			<path fill="#FFFFFF" d="M160,329.5c-0.169-6.253-0.747-12.467-0.431-18.732c0.389-7.705,1.06-15.405,1.597-23.101
				c0.225-3.22-4.777-3.198-5,0c-0.5,7.167-1,14.333-1.5,21.5c-0.475,6.804,0.15,13.54,0.333,20.333
				C155.087,332.718,160.087,332.726,160,329.5L160,329.5z"/>
		</g>
	</g>
	<g>
		<g>
			<path fill="#FFFFFF" d="M159.411,298.831c0.961-6.497,0.419-12.588-1.5-18.829c-0.945-3.072-5.772-1.761-4.821,1.329
				c1.642,5.339,2.325,10.589,1.5,16.171C154.123,300.655,158.94,302.012,159.411,298.831L159.411,298.831z"/>
		</g>
	</g>
	<g>
		<g>
			<path fill="#FFFFFF" d="M104.066,272.268c3.309,3.439,5.524,6.886,9.673,9.558c3.727,2.4,8.335,3.51,12.544,4.731
				c4.508,1.307,8.725,1.572,13.385,1.277c5.507-0.349,11.162-2.848,16.238,0.659c2.661,1.838,5.157-2.498,2.524-4.317
				c-7.427-5.131-16.66-0.935-24.826-1.197c-4.587-0.148-9.499-2.233-13.792-3.721c-5.687-1.971-8.307-6.468-12.209-10.524
				C105.362,266.405,101.831,269.945,104.066,272.268L104.066,272.268z"/>
		</g>
	</g>
	<g>
		<g>
			<path fill="#FFFFFF" d="M155.583,268.917c-0.063,0.309-0.062,0.322,0.003,0.039c0.094-0.269,0.085-0.264-0.028,0.016
				c0.112-0.253,0.249-0.482,0.399-0.714c0.075-0.114,0.152-0.227,0.232-0.338c-0.185,0.232-0.188,0.242-0.008,0.029
				c0.089-0.098,0.183-0.19,0.283-0.277c-0.256,0.19-0.268,0.213-0.036,0.071c1.186-0.667,1.577-2.26,0.897-3.42
				c-0.697-1.19-2.232-1.565-3.42-0.897c-1.876,1.054-3.211,3.372-3.322,5.492c-0.071,1.362,1.191,2.5,2.5,2.5
				C154.5,271.417,155.512,270.277,155.583,268.917L155.583,268.917z"/>
		</g>
	</g>
	<g>
		<g>
			<path fill="#FFFFFF" d="M87.506,260.248c0.421,2.017,1.389,3.464,2.502,5.181c1.324,2.041,2.14,4.307,3.771,6.175
				c3.215,3.683,6.864,7.466,11.21,9.805c1.594,0.858,5.258,2.002,6.662,0.218c2.458-3.12-0.397-6.202-2.325-8.806
				c-1.896-2.56-6.239-0.071-4.317,2.524c0.556,0.75,1.111,1.5,1.667,2.25c0.876,1.182,2.799,0.07,1.274-0.376
				c-2.262-0.661-4.097-2.587-5.764-4.154c-2.199-2.067-4.341-4.118-5.984-6.671c-1.38-2.145-3.356-5-3.873-7.476
				C91.669,255.763,86.849,257.102,87.506,260.248L87.506,260.248z"/>
		</g>
	</g>
	<g>
		<g>
			<path fill="#FFFFFF" d="M108.732,282.101c4.698,4.82,12.858,7.194,19.434,7.732c4.141,0.339,8.829,0.169,12.915-0.673
				c3.239-0.667,13.01-4.705,15.734-1.726c2.181,2.384,5.707-1.162,3.536-3.536c-4.837-5.288-13.452-1.194-19.266,0.166
				c-8.654,2.023-22.226,1.264-28.818-5.499C110.014,276.253,106.481,279.792,108.732,282.101L108.732,282.101z"/>
		</g>
	</g>
	<g>
		<g>
			<path fill="#FFFFFF" d="M157.917,283.917c-4.193,0.531-8.546,0.851-12.665,1.839c-4.726,1.134-10.639,3.403-15.24,1.085
				c-2.872-1.446-5.404,2.867-2.524,4.317c5.339,2.689,8.784,1.058,14.28,0.539c2.559-0.241,4.939-1.271,7.48-1.621
				c2.882-0.396,5.782-0.795,8.669-1.161C161.071,288.517,161.11,283.512,157.917,283.917L157.917,283.917z"/>
		</g>
	</g>
	<g>
		<g>
			<path fill="#FFFFFF" d="M101.732,279.518c2.96,3.454,6.877,5.962,11.142,7.488c4.436,1.587,9.476,4.021,14.209,4.494
				c3.208,0.321,3.177-4.682,0-5c-4.025-0.402-7.724-3.092-11.669-3.994c-3.945-0.903-7.545-3.488-10.147-6.524
				C103.166,273.53,99.646,277.084,101.732,279.518L101.732,279.518z"/>
		</g>
	</g>
	<g>
		<g>
			<path fill="#FFFFFF" d="M88.839,262.581c3.696,9.118,8.041,17.671,17.829,21.329c3.026,1.131,4.321-3.703,1.329-4.821
				c-7.768-2.903-11.427-10.658-14.337-17.837C92.466,258.304,87.627,259.592,88.839,262.581L88.839,262.581z"/>
		</g>
	</g>
	<g>
		<g>
			<path fill="#FFFFFF" d="M66.425,236.012c1.065,2.009,2.407,2.925,4.48,3.814c3.2,1.371,5.839,3.155,8.714,5.091
				c2.978,2.006,6.886,2.727,8.873-0.822c2.139-3.821-1.969-7.892-5.198-9.174c-2.241-0.889-4.554-1.068-6.95-1.109
				c-0.482-0.008-6.601-1.308-6.685-1.491C68.578,229.98,65,231.238,65,233.583c0,2.18,0.648,3.19,1.841,4.928
				c1.14-1.14,2.28-2.28,3.42-3.42c-0.006-0.169-0.012-0.337-0.018-0.506c-1.607,0.443-3.214,0.886-4.821,1.329
				c2.288,5.543,7.022,4.896,10.893,8.687c2.492,2.44,7.392,4.874,9.778,0.563c1.96-3.542,0.933-7.063-1.789-9.86
				c-1.521-1.563-3.912-2.242-5.974-2.631c-2.722-0.513-5.541-1.552-8.331-1.423c0.589,1.423,1.179,2.845,1.768,4.268
				c0.316-0.306,4.321,0.391,5.124,0.451c3.15,0.237,6.351,1.37,9.199,2.698c4.422,2.062,8.015,7.625,11.225,11.184
				c2.164,2.399,5.689-1.148,3.536-3.536c-4.148-4.599-8.117-10.517-14.103-12.81c-3.253-1.246-6.382-2.198-9.856-2.537
				c-3.062-0.299-6.273-1.301-8.66,1.013c-1.523,1.476-0.427,4.369,1.768,4.268c1.985-0.092,3.611,0.803,5.548,1.102
				c0.918,0.122,1.835,0.25,2.751,0.387c0.629,0.244,1.258,0.488,1.887,0.733c2.428,1.348,2.592,2.521,0.492,3.519
				c-1.346-1.082-1.982-2.125-3.583-2.899c-2.045-0.988-5.9-2.202-6.851-4.506c-1.219-2.953-5.398-1.896-4.821,1.329
				c0.289,1.616,0.974,2.595,2.316,3.494c2.049,1.373,4.832-1.366,3.42-3.42c-0.57-0.83-1.159-1.334-1.159-2.405
				c-1.553,0.421-3.106,0.841-4.659,1.262c1.006,2.179,2.479,2.675,4.825,2.741c2.571,0.073,4.793,1.203,7.417,1.247
				c1.768,0.03,3.311,0.398,4.861,1.247c4.364,2.392,0.135,0.813-0.932,0.094c-1.802-1.214-3.532-2.486-5.441-3.531
				c-1.774-0.971-4.281-1.18-5.328-3.156C69.231,230.639,64.915,233.165,66.425,236.012L66.425,236.012z"/>
		</g>
	</g>
	<g>
		<g>
			<path fill="#FFFFFF" d="M89.512,244.341c-1.291-0.974-2.375-2.336-3.491-3.498c-1.245-1.296-2.889-1.84-4.003-3.278
				c-0.836-1.079-2.663-0.872-3.536,0c-1.054,1.054-0.834,2.459,0,3.536c1.231,1.589,3.013,2.247,4.363,3.653
				c1.324,1.378,2.613,2.751,4.143,3.905c1.091,0.823,2.792,0.175,3.42-0.897C91.158,246.482,90.597,245.16,89.512,244.341
				L89.512,244.341z"/>
		</g>
	</g>
	<g>
		<g>
			<path fill="#FFFFFF" d="M101.012,250.258c-0.178-0.101-0.349-0.295,0.288,0.234c-0.098-0.081-0.186-0.174-0.273-0.266
				c-0.405-0.427,0.292,0.426,0.077,0.109c-0.033-0.05-0.062-0.102-0.089-0.156c0.758,1.366-0.07,2.446-2.484,3.24
				c-0.437-0.214-0.548-0.256-0.333-0.126c-0.363-0.292-0.452-0.355-0.266-0.188c0.102,0.094,0.2,0.189,0.307,0.277
				c0.63,0.512,1.329,0.914,2.176,0.867c1.107-0.06,2.12-0.717,2.411-1.835c0.148-0.57,0.138-1.109-0.013-1.677
				c-0.064-0.242-0.26-0.64-0.324-0.784c-0.102-0.231-0.057-0.123,0.134,0.325c-0.302-0.92-0.645-0.127-1.029,2.38
				c-1.14-0.299-2.28-0.598-3.42-0.897c-0.147-0.357-0.169-0.408-0.065-0.152c0.099,0.248,0.203,0.493,0.315,0.735
				c0.562,1.242,2.338,1.531,3.42,0.897c1.265-0.741,1.459-2.179,0.897-3.42c0.147,0.357,0.169,0.408,0.065,0.152
				c-0.099-0.248-0.203-0.493-0.315-0.735c-0.254-0.561-0.924-0.992-1.494-1.149c-0.696-0.191-1.294-0.041-1.926,0.252
				c-0.865,0.401-1.482,1.493-1.407,2.439c0.053,0.664,0.159,0.911,0.427,1.513c0.1,0.227,0.056,0.121-0.132-0.319
				c0.205,0.494-0.277,0.354,0.046-0.888c0.804-0.612,1.607-1.224,2.411-1.835c0.494-0.027,0.921,0.242,1.282,0.535
				c-0.081-0.066-0.155-0.142-0.23-0.214c-0.275-0.261-0.577-0.524-0.919-0.691c-1.378-0.673-3.081-0.416-3.907,0.981
				c-1.007,1.703,0.314,3.841,1.846,4.715c1.184,0.675,2.727,0.287,3.42-0.897C102.592,252.512,102.194,250.932,101.012,250.258
				L101.012,250.258z"/>
		</g>
	</g>
	<g>
		<g>
			<path fill="#FFFFFF" d="M108.508,262.762c2.902,4.792,6.673,5.977,11.991,6.97c5.834,1.09,11.338,2.486,17.334,2.935
				c5.431,0.407,11.713,0.159,16.439-2.768c4.641-2.875,7.557-7.826,9.138-12.9c0.962-3.087-3.865-4.397-4.821-1.329
				c-1.275,4.091-3.403,7.301-6.841,9.912c-3.516,2.671-10.745,2.597-14.954,1.888c-4.059-0.684-8.202-0.532-12.151-1.759
				c-4.45-1.383-9.123-1.024-11.818-5.471C111.158,257.485,106.833,259.996,108.508,262.762L108.508,262.762z"/>
		</g>
	</g>
	<g>
		<g>
			<path fill="#FFFFFF" d="M161.839,320.915c0.922,4.74,3.058,9.002,5.335,13.181c1.309-1.01,2.618-2.02,3.926-3.03
				c-1.626-1.339-3.161-2.812-4.749-4.201c-1.601-1.4-2.495-3.28-3.61-5.043c-1.352-2.138-4.545-1.232-4.659,1.262
				c-0.182,3.978,3.577,9.198,7.169,10.661c2.56,1.043,3.848-2.488,2.432-4.178c-1.587-1.895-5.332-6.926-8.189-4.069
				c-3.459,3.459,2.948,8.668,5.326,10.413c0.642-1.523,1.284-3.046,1.926-4.569c-1.77-0.421-2.993-1.907-4.313-3.024
				c-2.001-1.692-4.563-0.056-4.178,2.432c0.252,1.627,1.609,2.365,2.252,3.764c1.14-1.14,2.28-2.28,3.42-3.421
				c-0.972-0.538-1.854-1.36-2.661-2.109c-2.359-2.19-5.903,1.337-3.536,3.536c1.124,1.044,2.324,2.145,3.673,2.891
				c2.329,1.288,4.436-1.212,3.42-3.421c-0.4-0.869-1.606-1.653-1.748-2.569c-1.393,0.811-2.786,1.622-4.178,2.432
				c2.007,1.698,3.852,3.674,6.52,4.31c2.893,0.689,4.154-2.935,1.926-4.569c-0.486-0.357-3.909-2.877-3.671-3.663
				c-0.383,0.498-0.766,0.996-1.149,1.494c0.071-0.033,0.142-0.067,0.213-0.1c-0.642,0.084-1.284,0.168-1.926,0.252
				c1.143,0.282,2.659,2.716,3.337,3.526c0.811-1.393,1.622-2.786,2.432-4.178c-1.141-0.465-3.573-4.197-3.498-5.839
				c-1.553,0.421-3.106,0.841-4.659,1.262c1.187,1.877,2.261,3.734,3.724,5.423c1.513,1.746,3.631,3.363,5.417,4.833
				c2.14,1.761,5.349-0.42,3.926-3.03c-2.078-3.812-3.99-7.661-4.831-11.986C166.046,316.422,161.227,317.765,161.839,320.915
				L161.839,320.915z"/>
		</g>
	</g>
	<g>
		<g>
			<path fill="#FFFFFF" d="M155.925,331.345c1.166,2.126,3.049,2.866,4.891,4.339c0.811-1.393,1.622-2.786,2.432-4.178
				c-0.308-0.256-0.615-0.512-0.923-0.768c-1.309,1.01-2.618,2.02-3.926,3.03c2.524,2.336,5.217,4.482,8.768,4.482
				c5.763,0,11.846,0.287,17.583-0.333c3.17-0.343,3.204-5.346,0-5c-3.531,0.382-7.013,0.238-10.554,0.096
				c-5.009-0.201-8.246,0.936-12.262-2.78c-2.04-1.888-5.459,0.54-3.926,3.03c0.997,1.619,2.135,2.399,3.911,3.066
				c2.288,0.859,4.368-2.63,2.432-4.178c-1.086-0.869-3.458-2.139-4.109-3.327C158.692,325.994,154.374,328.517,155.925,331.345
				L155.925,331.345z"/>
		</g>
	</g>
	<g>
		<g>
			<path fill="#FFFFFF" d="M175.768,332.482c-2.969-2.497-5.588-6.43-5.684-10.399c-1.553,0.421-3.106,0.841-4.659,1.262
				c2.5,3.939,6.506,11.881,12.009,11.814c1.177-0.014,2.03-0.766,2.411-1.835c1.007-2.832-2.357-6.54-3.267-8.905
				c-1.393,0.811-2.786,1.622-4.178,2.432c2.15,2.713,3.679,6.395,7.27,7.393c2.001,0.556,3.354-1.262,3.075-3.075
				c-0.429-2.787-2.869-5.272-2.494-8.169c-1.254,0.72-2.508,1.439-3.762,2.159c3.09,2.352,3.365,8.352,8.343,7.502
				c4.504-0.769,0.921-10.247,0.669-12.411c-1.553,0.421-3.106,0.841-4.659,1.262c2.015,3.772,2.475,11.139,7.909,11.405
				c6.067,0.297,3.094-12.942,2.75-15.75c-0.381-3.108-5-3.312-5,0c0,3.873,1.069,7.514,2.841,10.928
				c1.485,2.863,5.8,0.334,4.317-2.524c-1.371-2.642-2.159-5.415-2.159-8.405c-1.667,0-3.333,0-5,0
				c0.255,2.078,0.468,4.156,0.64,6.243c0.065,0.962,0.133,1.925,0.203,2.887c-0.411,1.326,0.069,1.824,1.441,1.494
				c-1.795-2.519-2.161-6.061-3.625-8.802c-1.114-2.086-4.953-1.257-4.659,1.262c0.208,1.784,0.491,3.521,0.851,5.282
				c0.126,0.732,0.287,1.456,0.482,2.172c0.063,1.479,0.801,1.37,2.214-0.327c-1.661-2.317-2.723-4.775-5.036-6.536
				c-1.703-1.297-3.552,0.541-3.762,2.159c-0.451,3.486,2.167,6.214,2.673,9.498c1.025-1.025,2.05-2.05,3.075-3.075
				c-2.068-0.574-3.759-4.46-5.063-6.107c-1.536-1.938-5.057,0.15-4.178,2.432c0.437,1.136,3.367,5.966,3.267,6.247
				c0.804-0.612,1.607-1.224,2.411-1.835c-2.802,0.034-6.37-7.255-7.692-9.338c-1.289-2.031-4.721-1.314-4.659,1.262
				c0.129,5.284,3.133,10.556,7.149,13.934C174.682,338.079,178.238,334.561,175.768,332.482L175.768,332.482z"/>
		</g>
	</g>
	<g>
		<g>
			<path fill="#FFFFFF" d="M236.915,337.827c2.519-0.876,4.203-2.197,5.827-4.316c0.754-0.983,1.078-2.093,2-2.945
				c0.931-0.86,1.445-1.912,1.592-3.151c0.161-1.356-1.259-2.5-2.5-2.5c-1.484,0-2.34,1.147-2.5,2.5
				c-0.011,0.092-0.022,0.183-0.033,0.275c0.114-0.421,0.228-0.841,0.341-1.262c-0.279,0.503-0.628,0.78-1.05,1.17
				c-0.756,0.699-1.154,1.674-1.611,2.571c-0.715,1.402-1.958,2.336-3.395,2.836C232.56,334.058,233.861,338.89,236.915,337.827
				L236.915,337.827z"/>
		</g>
	</g>
	<g>
		<g>
			<path fill="#FFFFFF" d="M244.994,330.998c0.528-1.848,2.057-2.917,2.077-5.069c0.028-3.036-0.199-6.069-0.417-9.096
				c-0.226-3.155-0.881-7.262-4.544-7.727c-0.868-0.11-1.725,0.561-2.159,1.238c-2.692,4.199-0.835,11.197-1.768,15.929
				c-0.261,0.739-0.522,1.478-0.783,2.217c-1.94,1.239-1.962,2.019-0.067,2.342c0.02-2.135,1.289-4.58,2.123-6.449
				c1.038-2.324,2.11-4.923,1.659-7.514c-0.611-3.512-3.505-5.7-6.445-2.845c-1.775,1.724-2.471,5.607-3.248,7.81
				c-0.56,1.59-0.917,3.285-1.333,4.917c-0.238,0.933-1.165,3.825-0.921,3.754c0.941,0.383,1.882,0.766,2.823,1.149
				c-0.48-0.987,1.305-5.579,1.554-6.751c0.413-1.946,0.46-3.847,0.287-5.821c-0.201-2.3-3.406-3.637-4.659-1.262
				c-0.976,1.851-1.223,3.807-1.656,5.847c-0.532,2.503-1.721,4.788-2.346,7.25c1.607,0,3.214,0,4.821,0
				c-0.779-5.194-0.249-10.479-1-15.667c-0.387-2.672-4.092-2.077-4.821,0c-1.732,4.932-2.299,10.559-2.756,15.748
				c1.637-0.222,3.274-0.443,4.911-0.665c-1.857-5.255-3.199-11.535-7.726-15.186c-0.169-0.13-0.337-0.261-0.506-0.391
				c-1.113-1.137-1.947-0.727-2.502,1.232c1.079,0.972,1.81,2.669,2.498,3.938c0.897,1.656,1.425,3.629,3.23,4.48
				c0.985,0.464,2.237,0.492,3.03-0.391c1.992-2.22,0.539-4.052,1.143-6.52c-0.582,0.582-1.164,1.164-1.746,1.746
				c2.627-1.082,5.257-2.18,7.917-3.177c-3.962,1.486-8.195,1.579-12.369,1.591c-4.946,0.014-12.96-3.42-17.3,0.475
				c-2.058,1.847-3.027,5.684,0.457,6.642c5.125,1.41,8.645-6.22,13.214-5.692c3.2,0.37,3.164-4.634,0-5
				c-2.408-0.279-3.543,0.446-5.587,1.807c-0.765,0.509-5.553,4.39-6.195,4.062c0.413,0.72,0.825,1.439,1.238,2.159
				c-0.081-1.451,8.915,0.197,10.319,0.349c3.685,0.4,7.439,0.201,11.12-0.118c5.027-0.436,8.488-2.358,8.83-7.67
				c0.292-4.528-4.774-3.571-7.307-2.542c-1.981,0.805-5.234,1.398-6.77,2.935c-1.522,1.522,0.235,4.597-0.5,5.417
				c1.01-0.13,2.02-0.261,3.03-0.391c-0.698-0.329-1.585-2.961-2.044-3.808c-0.974-1.798-2.138-3.347-3.655-4.714
				c-2.019-1.819-4.692-2.217-6.738-0.389c-2.089,1.867,0.008,4.921,1.543,6.213c2.047,1.722,3.812,2.53,5.14,5.036
				c1.505,2.838,2.346,6.211,3.415,9.236c0.962,2.723,4.662,2.16,4.911-0.665c0.416-4.734,0.993-9.909,2.577-14.419
				c-1.607,0-3.214,0-4.821,0c0.75,5.176,0.221,10.471,1,15.667c0.378,2.523,4.249,2.257,4.821,0
				c0.367-1.445,0.988-2.819,1.472-4.228c0.829-2.415,0.841-5.429,2.026-7.674c-1.553-0.421-3.106-0.841-4.659-1.262
				c0.405,4.625-3.256,10.785-1.159,15.095c0.48,0.987,1.811,1.443,2.823,1.149c4.769-1.385,4.979-9.986,6.333-13.826
				c0.202-0.548,0.403-1.097,0.605-1.645c1.213-1.487,0.78-2.341-1.299-2.561c0.692,2.039-1.27,5.085-1.968,6.772
				c-0.997,2.41-2.5,5.83-1.756,8.535c1.391,5.057,6.377,2.699,8.493-0.399c1.733-2.537,2.407-5.3,2.699-8.345
				c0.279-2.919-0.934-8.496,0.665-10.99c-0.72,0.413-1.439,0.825-2.159,1.238c-1.904-0.241-0.669,1.048-0.456,2.727
				c0.19,1.495,0.211,3.038,0.294,4.542c0.1,1.833,0.44,4.047-0.357,5.78c-0.461,1.002-1.12,1.469-1.419,2.514
				C239.285,332.776,244.11,334.093,244.994,330.998L244.994,330.998z"/>
		</g>
	</g>
	<g>
		<g>
			<path fill="#FFFFFF" d="M180.738,335.075c3.157,1.824,5.624,2.832,9.238,1.996c2.045-0.473,4.896,0.468,7.048,0.62
				c2.696,0.191,5.533-0.145,8.26-0.047c4.454,0.159,8.964-0.148,13.395-0.579c4.996-0.486,10.02,0.919,15.07,0.435
				c3.18-0.305,3.21-5.308,0-5c-3.909,0.375-7.775,0.006-11.667-0.407c-4.311-0.458-9.006,0.377-13.333,0.574
				c-3.909,0.178-7.809-0.169-11.725,0.025c-2.062,0.102-4.264-0.695-6.358-0.775c-2.651-0.101-4.877,0.302-7.405-1.159
				C180.465,329.142,177.948,333.463,180.738,335.075L180.738,335.075z"/>
		</g>
	</g>
	<g>
		<g>
			<path fill="#FFFFFF" d="M225.831,330.839c-9.335-2.456-18.151-0.552-27.665-0.933c-0.904-0.036-7.611,0.273-6.993-2.097
				c-1.637,0.37-1.794,0.922-0.473,1.657c0.453,0.371,0.898,0.752,1.333,1.144c1.524,1.352,3.13,2.49,5.214,2.051
				c1.458-0.307,1.923-1.795,1.746-3.075c-0.624-4.503-8.711-4.185-10.508-7.684c-0.299,1.14-0.598,2.28-0.897,3.42
				c1.693-1.04,9.75,5.997,11.097,7.033c1.721,1.323,3.712,2.666,5.826,1.47c1.051-0.595,1.328-1.712,1.149-2.823
				c-0.384-2.375-3.31-5.602-2.333-7.921c-1.224,0.498-2.448,0.996-3.673,1.494c-0.63-0.936-0.979-0.799-1.047,0.409
				c-0.672,0.845-1.436,1.595-2.293,2.248c1.393,0.368,2.786,0.735,4.178,1.103c-0.467-1.196,1.533-4.1,4.025-5.018
				c1.302-0.48,4.975-2.095,5.733-1.823c-0.368-1.393-0.735-2.786-1.103-4.178c-3.418,2.917-13.911,9.997-8.25,15.452
				c0.829,0.798,2.025,0.94,3.03,0.391c5.395-2.948,8.426-11.018,14.986-12.081c-0.811-0.214-1.622-0.429-2.432-0.643
				c0.168,0.135,0.336,0.27,0.504,0.405c-0.214-0.811-0.429-1.622-0.643-2.432c-1.09,2.861-15.091,8.733-9.709,14.115
				c4.897,4.897,11.56-6.878,15.772-7.168c-0.833-0.833-1.667-1.667-2.5-2.5c0.14,1.215-0.826,4.361-1.733,5.168
				c0.811-0.214,1.622-0.429,2.432-0.643c-2.201-0.678-2.209-3.427-2.023-5.296c0.32-3.208-4.684-3.177-5,0
				c-0.449,4.512,1.005,8.672,5.693,10.117c3.867,1.192,5.897-7.03,5.629-9.347c-0.147-1.277-1.027-2.602-2.5-2.5
				c-1.966,0.136-3.574,0.806-5.122,2.045c-1.089,0.871-7.172,6.442-7.621,6.197c0.413,0.72,0.825,1.439,1.238,2.159
				c-0.403-4.434,8.741-7.023,10.263-11.018c0.284-0.746-0.015-1.928-0.643-2.432c-6.426-5.164-14.578,9.057-19.117,11.537
				c1.01,0.13,2.02,0.261,3.03,0.391c-1.506-1.451,6.994-7.309,8.25-8.381c1.543-1.317,0.518-3.597-1.103-4.178
				c-3.415-1.224-9.961,1.964-12.74,3.954c-2.37,1.696-4.275,6.201-3.168,9.038c0.71,1.818,2.657,2.388,4.178,1.103
				c2.116-1.787,7.158-8.463,2.327-10.51c-1.62-0.686-2.992-0.121-3.673,1.494c-1.498,3.558,1.786,7.191,2.333,10.579
				c0.383-0.941,0.766-1.882,1.149-2.823c1.329-0.752-0.355-1.144-1.143-1.75c-2.239-1.722-4.55-3.375-6.917-4.917
				c-2.503-1.631-6.014-3.588-8.863-1.836c-1.207,0.742-1.53,2.188-0.897,3.42c1.017,1.98,3.079,2.957,4.966,3.994
				c0.32,0.176,5.004,2.242,5.039,2.496c0.582-1.025,1.164-2.05,1.746-3.075c1.476-0.311-0.005-0.459-0.734-1.107
				c-0.824-0.731-1.623-1.453-2.396-2.24c-1.067-1.086-2.389-1.479-3.862-1.074c-2.911,0.801-3.673,5.911-2.36,8.152
				c2.48,4.234,9.166,3.238,13.259,3.402c8.543,0.342,16.254-1.529,24.677,0.688C227.624,336.482,228.947,331.659,225.831,330.839
				L225.831,330.839z"/>
		</g>
	</g>
	<g>
		<g>
			<path fill="#FFFFFF" d="M245.518,310.316c1.449,1.242,0.592,1.922,0.566-0.399c-0.019-1.695,0.099-3.387,0.083-5.083
				c-0.029-3.134-1.036-6.324-1.487-9.415c-0.909-6.218-1.45-12.926-5.354-18.014c-1.725-2.248-5.084-0.973-4.569,1.926
				c0.915,5.16,1.645,10.26,2.269,15.477c0.638,5.335,1.977,10.289,3.065,15.523c0.656,3.156,5.475,1.817,4.821-1.329
				c-1.121-5.393-2.45-10.551-3.109-16.054c-0.605-5.057-1.338-9.948-2.225-14.946c-1.523,0.642-3.046,1.284-4.569,1.926
				c4.099,5.341,4.352,13.649,5.357,20.202c0.567,3.696,0.687,6.997,0.728,10.713c0.011,1.021,0.05,2.288,0.888,3.007
				C244.416,315.937,247.97,312.417,245.518,310.316L245.518,310.316z"/>
		</g>
	</g>
	<g>
		<g>
			<path fill="#FFFFFF" d="M247.333,312.5c0.039-2.523,0.026-5.02-0.042-7.542c-0.07-2.581-1.016-4.85-1.168-7.414
				c-0.248-4.195,0.499-8.223-1.215-12.222c-1.111-2.592-5.633-0.694-4.569,1.926c1.856,4.572,0.926,9.379,1.833,14.083
				c0.61,3.164,5.429,1.821,4.821-1.329c-0.914-4.741,0.044-9.46-1.833-14.083c-1.523,0.642-3.046,1.284-4.569,1.926
				c1.594,3.719,0.008,8.098,0.716,11.951c0.795,4.326,1.095,8.279,1.026,12.704C242.283,315.726,247.283,315.721,247.333,312.5
				L247.333,312.5z"/>
		</g>
	</g>
	<g>
		<g>
			<path fill="#FFFFFF" d="M247.333,278.917c0.213-3.39-0.415-6.566-0.833-9.917c-0.317-2.543,0.006-5.126-0.371-7.696
				c-0.213-1.454-1.605-3.102-2.264-4.396c-0.718-1.41-1.855-3.037-3.645-3.037c-4.39,0-4.469,6.543-4.703,9.529
				c-0.448,5.697,0.558,11.493,4.465,15.784c1.17,1.285,3.902,0.763,4.178-1.103c0.278-1.878-0.044-3.548-0.417-5.413
				c-0.695-3.476-0.871-7.134-1.077-10.669c-0.187-3.204-5.188-3.222-5,0c0.154,2.643,0.385,5.276,0.688,7.906
				c0.239,2.075,1.288,4.804,0.985,6.846c1.393-0.368,2.786-0.735,4.178-1.103c-3.087-3.391-3.114-7.9-3-12.249
				c0.037-1.408,0.205-3.593,0.787-4.951c-2.134-0.513-2.696-0.125-1.686,1.164c0.15,0.386,0.308,0.769,0.473,1.149
				c1.315,2.465,1.477,4.066,1.39,6.988c-0.111,3.754,1.09,7.374,0.852,11.167C242.131,282.138,247.132,282.119,247.333,278.917
				L247.333,278.917z"/>
		</g>
	</g>
	<g>
		<g>
			<path fill="#FFFFFF" d="M230.923,262.498c2.971,9.994,9.684,18.708,11.583,28.917c1.607-0.443,3.214-0.886,4.821-1.329
				c-0.782-3.845,0.01-8.127,0.256-12.002c0.205-3.221-4.797-3.202-5,0c-0.28,4.412-0.966,8.96-0.077,13.331
				c0.645,3.172,5.406,1.811,4.821-1.329c-1.913-10.284-8.602-18.89-11.583-28.917C234.827,258.086,230.001,259.4,230.923,262.498
				L230.923,262.498z"/>
		</g>
	</g>
	<g>
		<g>
			<path fill="#FFFFFF" d="M226.841,234.428c2.502,4.784,3.952,10.475,5.748,15.569c1.064,3.019,5.896,1.72,4.821-1.329
				c-1.946-5.521-3.536-11.571-6.252-16.764C229.664,229.047,225.349,231.575,226.841,234.428L226.841,234.428z"/>
		</g>
	</g>
	<g>
		<g>
			<path fill="#FFFFFF" d="M243.262,254.758c-1.072-0.793-2.527-3.458-3.197-4.624c-0.652-1.136-1.182-2.36-1.792-3.521
				c-0.094-0.18-1.807-2.714-1.529-1.861c-0.214,0.811-0.429,1.622-0.643,2.432c0.734-0.76,0.947-1.399,1.066-2.434
				c-1.423,0.589-2.845,1.179-4.268,1.768c1.813,2.127,2.94,4.579,4.419,6.935c2.026,3.227,3.952,5.801,4.771,9.628
				c0.675,3.152,5.495,1.815,4.821-1.329c-0.773-3.613-2.4-6.862-4.572-9.83c-2.141-2.926-3.537-6.163-5.904-8.94
				c-1.578-1.851-4.048-0.157-4.268,1.768c-0.014,0.122-0.028,0.243-0.042,0.365c0.244-0.589,0.488-1.179,0.732-1.768
				c-0.097,0.101-0.194,0.201-0.292,0.302c-0.6,0.621-0.92,1.584-0.643,2.432c0.258,0.792,0.561,1.337,1.143,1.936
				c1.234,1.272,1.905,3.072,2.682,4.64c1.081,2.182,3.044,4.978,4.991,6.418C243.335,260.995,245.824,256.652,243.262,254.758
				L243.262,254.758z"/>
		</g>
	</g>
	<g>
		<g>
			<path fill="#FFFFFF" d="M247.661,270.252c-0.165-0.972-0.009-2.021,0.006-3.002c0.021-1.378-0.39-2.847-0.756-4.165
				c-0.861-3.103-5.685-1.783-4.821,1.329c0.3,1.08,0.588,2.152,0.571,3.28c-0.02,1.327-0.044,2.569,0.179,3.887
				c0.228,1.345,1.863,2.08,3.075,1.746C247.326,272.939,247.888,271.594,247.661,270.252L247.661,270.252z"/>
		</g>
	</g>
	<g>
		<g>
			<path fill="#FFFFFF" d="M235.661,244.335c-0.244-1.317-0.964-2.38-0.911-3.752c-1.553,0.421-3.106,0.841-4.659,1.262
				c0.598,0.935,1.071,1.831,1.808,2.673c1.402,1.602,4.42,0.367,4.268-1.768c-0.094-1.321-1.356-3.104-1.089-4.335
				c-1.607,0-3.214,0-4.821,0c0.296,0.708,0.358,1.437,0.583,2.167c0.645,2.085,3.412,2.461,4.569,0.597
				c0.56-0.902,0.602-1.938,0.597-2.974c-0.009-2.067,0.658-3.9,1.155-5.873c0.787-3.128-4.035-4.455-4.821-1.329
				c-0.36,1.433-0.828,2.815-1.077,4.275c-0.125,0.735,0.063,3.001-0.171,3.378c1.523,0.199,3.046,0.398,4.569,0.597
				c-0.233-0.753-0.279-1.439-0.583-2.167c-0.856-2.052-4.238-2.69-4.821,0c-0.191,0.883-0.303,1.852-0.083,2.746
				c0.231,0.941,0.926,1.968,0.994,2.919c1.423-0.589,2.845-1.179,4.268-1.768c-0.43-0.491-0.673-1.11-1.026-1.661
				c-1.353-2.116-4.56-1.249-4.659,1.262c-0.074,1.888,0.758,3.294,1.089,5.081C231.426,248.832,236.244,247.487,235.661,244.335
				L235.661,244.335z"/>
		</g>
	</g>
	<g>
		<g>
			<path fill="#FFFFFF" d="M235.827,238.831c0.272-0.754,2.902-1.58,3.608-1.865c1.589-0.641,3.203-1.22,4.812-1.806
				c3.005-1.093,1.708-5.927-1.329-4.821c-2.503,0.911-4.929,2.109-7.417,3c-2.182,0.782-3.696,1.942-4.496,4.163
				C229.91,240.543,234.743,241.841,235.827,238.831L235.827,238.831z"/>
		</g>
	</g>
	<g>
		<g>
			<path fill="#FFFFFF" d="M240.75,235.25c10.722,1.198,18.585-4.474,26.898-10.389c3.995-2.843,7.843-5.848,11.37-9.26
				c1.747-1.691,3.382-3.504,5.093-5.232c0.887-0.896,6.278-6.225,7.261-5.709c-0.383-0.941-0.766-1.882-1.149-2.823
				c-0.46,2.854-6.711,6.746-8.76,8.485c-3.781,3.211-7.256,6.877-11.226,9.853c-4.351,3.262-12.822,4.64-15.243,10.062
				c-0.705,1.579-0.117,3.04,1.494,3.672c2.597,1.02,5.857-1.611,7.939-2.833c4.223-2.48,8.435-5.184,12.458-7.978
				c8.458-5.877,15.847-12.841,21.689-21.335c1.833-2.664-2.503-5.161-4.317-2.524c-5.081,7.387-11.407,13.299-18.603,18.603
				c-3.014,2.221-6.229,4.076-9.367,6.104c-1.069,0.691-7.222,5.632-8.469,5.142c0.498,1.224,0.996,2.448,1.494,3.673
				c1.281-2.869,6.802-4.749,9.418-6.03c3.622-1.774,6.481-4.083,9.428-6.805c3.525-3.256,7.215-6.311,10.816-9.479
				c2.165-1.904,5.58-4.242,6.07-7.28c0.174-1.082-0.085-2.265-1.149-2.823c-6.618-3.473-15.857,9.249-19.681,12.949
				c-4.445,4.3-9.738,7.736-14.774,11.292c-5.722,4.04-11.575,6.462-18.691,5.666C237.548,229.892,237.583,234.896,240.75,235.25
				L240.75,235.25z"/>
		</g>
	</g>
	<g>
		<g>
			<path fill="#FFFFFF" d="M233.816,236.351c3.25,3.135,4.977,2.443,9.099,1.56c5.484-1.175,10.283-2.789,15.5-4.833
				c2.967-1.163,1.677-5.999-1.329-4.821c-3.472,1.361-6.837,3.149-10.542,3.75c-1.682,0.273-3.302,0.691-4.958,1.083
				c-2.028,0.481-2.764,1.145-4.234-0.274C235.031,230.578,231.491,234.109,233.816,236.351L233.816,236.351z"/>
		</g>
	</g>
	<g>
		<g>
			<path fill="#FFFFFF" d="M233.399,233.982c-1.065,1.094-0.981,2.89,0.198,3.868c0.315,0.261,0.645,0.503,0.987,0.727
				c0.259,0.169,0.783,0.647-0.019-0.059c0.849,0.749,2.013,0.986,3.03,0.391c1.183-0.693,1.573-2.237,0.897-3.42
				c-0.345-0.603-0.896-1.062-1.577-1.232c-1.321-0.33-2.708,0.41-3.075,1.746c-0.355,1.29,0.424,2.745,1.746,3.075
				c0.014,0.003,0.028,0.007,0.042,0.01c-0.498-0.383-0.996-0.766-1.494-1.149c0.014,0.024,0.028,0.049,0.042,0.073
				c1.309-1.01,2.618-2.02,3.926-3.03c-0.312-0.275-0.647-0.499-0.993-0.723c-0.112-0.073-0.223-0.148-0.333-0.225
				c-0.202-0.148-0.104-0.073,0.293,0.226c-0.399-0.331,0.205-0.386,0.476,0.882c0,0.443,0,0.886,0,1.329
				c0.003-0.01,0.005-0.021,0.008-0.031c-0.214,0.368-0.429,0.735-0.643,1.103c0.008-0.009,0.017-0.017,0.025-0.026
				c0.95-0.976,0.973-2.562,0-3.536C235.981,233.029,234.349,233.006,233.399,233.982L233.399,233.982z"/>
		</g>
	</g>
	<g>
		<g>
			<path fill="#FFFFFF" d="M264.665,231.494c4.942-0.794,9.333-4.886,13.514-7.419c4.528-2.743,9.145-6.136,13.173-9.578
				c6.977-5.963,13.832-16.714,12.982-26.164c-0.178-1.974-2.7-3.565-4.268-1.768c-3.302,3.785-4.41,9.983-6.808,14.423
				c-1.532,2.837,2.785,5.361,4.317,2.524c1.341-2.483,2.343-5.131,3.583-7.667c0.827-1.69,1.267-4.397,2.442-5.744
				c-1.423-0.589-2.845-1.179-4.268-1.768c0.8,8.894-6.301,18.169-12.728,23.663c-3.282,2.806-7.309,5.427-10.95,7.762
				c-3.592,2.304-8.056,6.229-12.319,6.915C260.158,227.183,261.511,232.001,264.665,231.494L264.665,231.494z"/>
		</g>
	</g>
	<g>
		<g>
			<path fill="#FFFFFF" d="M276.331,225.994c3.335-1.164,6.29-4.011,8.961-6.288c3.664-3.123,7.898-5.273,10.745-9.256
				c3.222-4.506,6.972-7.982,9.513-12.939c1.779-3.471,4.688-8.236,3.564-12.275c-0.31-1.113-1.289-1.779-2.411-1.835
				c-3.074-0.155-5.21,4.329-3.218,6.681c3.24,3.826,6.539-0.383,6.931-3.833c-1.637,0.222-3.274,0.443-4.911,0.665
				c1.203,4.744-5.087,12.282-7.903,15.741c-3.793,4.659-7.849,8.559-12.454,12.41c-2.476,2.071,1.08,5.589,3.536,3.536
				c5.586-4.671,10.43-9.556,14.786-15.409c3.498-4.7,8.418-11.449,6.857-17.606c-0.743-2.932-4.611-1.976-4.911,0.665
				c0.429,0.717,0.858,1.434,1.287,2.151c-0.804-0.612-1.607-1.224-2.411-1.835c0.882,3.168-3.298,8.912-4.702,11.589
				c-1.149,2.192-3.34,3.881-4.942,5.744c-1.254,1.458-2.247,3.149-3.429,4.664c-2.057,2.636-5.41,4.285-7.984,6.398
				c-2.295,1.883-5.338,5.201-8.233,6.212C271.978,222.228,273.279,227.059,276.331,225.994L276.331,225.994z"/>
		</g>
	</g>
	<g>
		<g>
			<path fill="#FFFFFF" d="M311.75,184.917c0.055-0.566,0.554-1.176,0.825-1.655c0.528-0.93,0.998-1.89,1.5-2.833
				c-1.523-0.642-3.046-1.284-4.569-1.926c-0.468,2.749-1.249,5.515-2,8.167c-0.894,3.155,3.71,4.294,4.821,1.329
				c0.752-2.005,1.344-4.07,2.083-6.083c1.114-3.034-3.72-4.33-4.821-1.329c-0.739,2.014-1.332,4.078-2.083,6.083
				c1.607,0.443,3.214,0.886,4.821,1.329c0.756-2.667,1.532-5.416,2-8.167c0.448-2.634-3.148-4.596-4.569-1.926
				c-1.183,2.222-2.758,4.461-3.008,7.012c-0.133,1.359,1.238,2.5,2.5,2.5C310.713,187.417,311.617,186.272,311.75,184.917
				L311.75,184.917z"/>
		</g>
	</g>
	<g>
		<g>
			<path fill="#FFFFFF" d="M315.242,178.595c0.338-0.791,0.708-1.573,0.835-2.431c0.104-0.697,0.119-1.293-0.252-1.926
				c-0.327-0.559-0.869-0.977-1.494-1.149c-1.192-0.328-2.875,0.396-3.075,1.746c-0.044,0.296-0.112,0.58-0.201,0.865
				c-0.049,0.156-0.42,1.048-0.13,0.371c-0.277,0.649-0.448,1.215-0.252,1.926c0.172,0.625,0.59,1.167,1.149,1.494
				C312.886,180.115,314.706,179.849,315.242,178.595L315.242,178.595z"/>
		</g>
	</g>
	<g>
		<g>
			<path fill="#FFFFFF" d="M305.173,117.415c1.185,2.852,2.844,5.212,4.419,7.847c2.481,4.151,2.709,10.24,3.325,14.905
				c1.061,8.034,2.012,15.695,1,23.833c-0.397,3.194,4.608,3.156,5,0c1.099-8.843-0.104-17.048-1.253-25.75
				c-0.514-3.892-1.07-7.783-2.139-11.566c-1.117-3.954-3.981-6.869-5.531-10.599C308.775,113.153,303.935,114.437,305.173,117.415
				L305.173,117.415z"/>
		</g>
	</g>
	<g>
		<g>
			<path fill="#FFFFFF" d="M295.006,107.581c0.827,1.987,2.481,3.44,4.143,4.77c0.906,0.725,2.002,1.093,2.889,1.833
				c1.192,0.995,2.194,2.226,3.278,3.334c1.961,2.006,5.509-0.626,3.926-3.03c-1.041-1.581-1.976-3.239-3-4.833
				c-1.736-2.703-6.066-0.198-4.317,2.524c1.024,1.594,1.959,3.253,3,4.833c1.309-1.01,2.618-2.02,3.926-3.03
				c-1.568-1.604-3.033-3.21-4.839-4.558c-0.692-0.516-1.498-0.714-2.15-1.317c-0.486-0.449-1.79-1.269-2.034-1.855
				c-0.523-1.257-1.636-2.142-3.075-1.746C295.562,104.833,294.482,106.321,295.006,107.581L295.006,107.581z"/>
		</g>
	</g>
	<g>
		<g>
			<path fill="#FFFFFF" d="M276.351,68.268c1.871-2.159,4.623-3.508,6.879-5.224c1.442-1.097,3.106-2.39,4.934-2.717
				c-1.055-0.804-2.11-1.607-3.165-2.411c-0.087,1.215-2.707,3.915-3.381,4.994c-1.333,2.134-2.522,4.495-3.196,6.924
				c-0.508,1.831,1.24,3.59,3.075,3.075c5.836-1.638,8.518-8.833,13.764-11.585c-1.224-0.941-2.448-1.882-3.673-2.823
				c-0.937,3.612-8.07,17.85-2.886,20.886c6.087,3.566,8.406-13.368,6.999-16.641c-0.435-1.013-1.844-1.418-2.823-1.149
				c-4.059,1.115-6.821,6.197-9.204,9.39c1.439,0.841,2.878,1.682,4.317,2.524c1.57-2.712,3.268-5.248,5.276-7.661
				c0.959-0.868,0.872-1.042-0.262-0.52c0.516,1.924,0.682,3.854,0.827,5.835c0.325,4.435-0.057,11.126,2.508,15.012
				c1.237,1.874,4.968,1.403,4.659-1.262c-0.6-5.172-1.162-10.305-1.583-15.5c-0.258-3.179-4.912-3.26-5,0
				c-0.129,4.768,0.045,9.667,0.728,14.39c0.874,6.038,1.059,12.459,2.611,18.358c0.821,3.119,5.603,1.799,4.821-1.329
				c-0.028-0.111-0.056-0.222-0.083-0.333c-0.782-3.127-5.604-1.8-4.821,1.329c0.028,0.111,0.056,0.222,0.083,0.333
				c1.607-0.443,3.214-0.886,4.821-1.329c-1.242-4.721-1.296-9.833-2.056-14.67c-0.868-5.533-1.257-11.146-1.105-16.749
				c-1.667,0-3.333,0-5,0c0.422,5.195,0.983,10.328,1.583,15.5c1.553-0.421,3.106-0.841,4.659-1.262
				c-2.325-3.523-1.647-10.045-1.945-14.125c-0.183-2.505-0.291-6.578-2.208-8.495c-5.038-5.038-10.987,6.768-12.831,9.954
				c-1.657,2.862,2.438,5.042,4.317,2.524c1.44-1.93,3.743-6.413,6.216-7.092c-0.941-0.383-1.882-0.766-2.823-1.149
				c0.365,0.85-2.249,9.421-1.42,9.459c0.72,0.413,1.439,0.825,2.159,1.238c-0.498-0.934,0.68-4.301,0.914-5.275
				c0.886-3.693,2.421-7.189,3.373-10.861c0.567-2.187-1.743-3.836-3.673-2.823c-1.936,1.016-3.411,2.678-5.003,4.166
				c-2.058,1.923-4.776,6.133-7.567,6.916c1.025,1.025,2.05,2.05,3.075,3.075c1.3-4.685,6.418-8.51,6.756-13.248
				c0.125-1.748-1.68-2.676-3.165-2.411c-2.258,0.403-4.33,1.893-6.128,3.221c-2.65,1.955-5.726,3.507-7.891,6.005
				C270.715,67.156,274.236,70.709,276.351,68.268L276.351,68.268z"/>
		</g>
	</g>
	<g>
		<g>
			<path fill="#FFFFFF" d="M303,99.417c0.14-6.467-0.539-12.201-1.589-18.581c-0.884-5.368-1.078-10.838-2-16.167
				c-0.549-3.173-5.367-1.823-4.821,1.329c0.829,4.79,0.851,9.735,1.702,14.558c1.125,6.376,1.849,12.385,1.709,18.861
				C297.93,102.643,302.93,102.636,303,99.417L303,99.417z"/>
		</g>
	</g>
	<g>
		<g>
			<path fill="#FFFFFF" d="M293.077,59.502c-0.22-0.926-0.409-2.805,0.44-3.484c-0.589,0.244-1.178,0.488-1.768,0.732
				c0.684-0.008,1.505,0.324,2.204,0.404c-0.78-0.672-1.015-0.604-0.706,0.203c0.091,0.707,0.203,1.313,0.412,1.997
				c0.82,2.678,2.213,4.553,2.257,7.479c0.048,3.221,5.048,3.226,5,0c-0.044-2.942-0.745-5.34-2.055-7.958
				c-1.138-2.275-0.529-5.727-3.623-6.579c-2.059-0.566-4.637-1.105-6.018,0.988c-1.437,2.179-1.551,5.083-0.965,7.547
				C289.002,63.967,293.823,62.637,293.077,59.502L293.077,59.502z"/>
		</g>
	</g>
	<g>
		<g>
			<path fill="#FFFFFF" d="M248.244,82.831c0.729-2.042,2.962-9.8,5.839-10.165c-0.72-1.254-1.439-2.508-2.159-3.762
				c-1.716,3.432-4.399,6.59-4.341,10.678c0.034,2.39,3.483,3.542,4.659,1.262c1.895-3.674,3.53-7.849,6.346-10.935
				c2.3-2.521,6.857-3.697,9.865-5.159c3.312-1.609,7.027-2.182,10.352-3.781c3.13-1.505,7.667-4.79,11.354-4.205
				c-0.582-1.025-1.164-2.05-1.746-3.075c0.015-0.045-4.351,1.677-4.765,1.861c-2.637,1.176-5.246,2.435-7.803,3.775
				c-4.835,2.533-9.253,5.788-13.529,9.157c-2.532,1.994,1.033,5.507,3.536,3.536c4.881-3.845,10.028-7.236,15.628-9.942
				c3.345-1.616,10.482-3.154,11.754-7.057c0.388-1.19-0.442-2.868-1.746-3.075c-3.186-0.506-6.744,0.587-9.62,1.924
				c-4.741,2.203-9.616,3.793-14.376,5.881c-3.703,1.625-8.426,3.154-11.513,5.825c-3.831,3.315-5.779,8.338-8.054,12.748
				c1.553,0.421,3.106,0.841,4.659,1.262c-0.044-3.136,2.36-5.558,3.659-8.155c0.746-1.491-0.121-4.02-2.159-3.762
				c-6.366,0.806-8.782,8.576-10.661,13.835C242.335,84.546,247.168,85.845,248.244,82.831L248.244,82.831z"/>
		</g>
	</g>
	<g>
		<g>
			<path fill="#FFFFFF" d="M237.577,78.998c0.039-0.752,0.206-1.474,0.5-2.167c-1.343-0.324-1.839-0.019-1.488,0.917
				c0.221,1.039,0.527,2.154,1.31,2.937c1.936,1.936,4.934,0.271,6.608-1.062c1.526-1.216,4.069-3.09,3.449-5.409
				c-0.239-0.893-0.473-1.812-1.361-2.288c-0.412-0.221-3.794-0.984-3.77-0.936c-0.72,1.254-1.439,2.508-2.159,3.762
				c-1.215,0.135,0.993,1.276,1.595,1.442c1.241,0.341,2.539,0.167,3.667-0.45c1.805-0.987,3.786-0.651,5.568-1.577
				c2.103-1.092,3.714-3.055,5.919-3.921c-0.941-1.224-1.882-2.448-2.823-3.673c-0.525,0.754-11.218,4.771-11.432,4.574
				c0.214,0.811,0.429,1.622,0.643,2.432c-0.256,0.412,0.003,0.384,0.779-0.084c2.679-0.82,2.205-4.911-0.665-4.911
				c-0.056,0-0.111,0-0.167,0c-3.224,0-3.224,5,0,5c0.056,0,0.111,0,0.167,0c-0.222-1.637-0.443-3.274-0.665-4.911
				c-1.956,0.599-3.907,1.341-4.271,3.576c-0.352,2.163,1.571,3.731,3.602,3.918c3.651,0.336,6.442-2.442,9.915-3.173
				c2.327-0.49,5.048-1.94,6.411-3.899c1.202-1.728-0.805-4.465-2.823-3.672c-3.137,1.232-5.478,4.398-8.919,4.577
				c-1.208,0.063-3.135,1.586-3.982,0.795c-0.701-0.654-1.531-1.154-2.518-1.045c-1.903,0.211-3.088,1.954-2.159,3.762
				c0.514,1,1.538,1.92,2.671,2.159c0.777,0.164,1.531,0.259,2.321,0.344c-0.241-1.493-0.692-1.782-1.351-0.867
				c-0.659,1.141-1.487,1.564-2.482,1.268c0.72,0.413,1.439,0.825,2.159,1.238c-1.126-2.099-0.723-5.603-4.19-5.603
				c-3.208,0-4.498,2.897-4.879,5.617C232.314,80.821,237.131,82.18,237.577,78.998L237.577,78.998z"/>
		</g>
	</g>
	<g>
		<g>
			<path fill="#FFFFFF" d="M229.066,72.101c3.682,3.285,9.589,7.37,14.849,5.726c1.165-0.364,1.697-1.255,1.835-2.411
				c0.637-5.312-11.898-5.79-14.835-4.07c-5.476,3.208,1.529,9.195,5.847,6.979c1.06-0.544,1.332-1.752,1.149-2.823
				c-0.718-4.191-7.599-5.797-11.002-6.474c-2.032-0.405-3.842-0.11-5.827-0.772c-1.886-0.629-8.262,0.466-9.166-0.959
				c-0.299,1.14-0.598,2.28-0.897,3.42c1.576-0.843,6.213-0.527,7.734-0.307c2.785,0.403,5.594,0.62,8.382,1.07
				c5.511,0.89,10.792,2.356,16.118,4.013c2.428,0.755,4.166-2.445,2.432-4.178c-0.028-0.028-0.056-0.056-0.083-0.083
				c-2.282-2.282-5.817,1.254-3.536,3.536c0.028,0.028,0.056,0.056,0.083,0.083c0.811-1.393,1.622-2.786,2.432-4.178
				c-6.488-2.018-12.879-3.497-19.585-4.57c-4.787-0.766-12.019-2.1-16.502,0.298c-1.169,0.625-1.607,2.302-0.897,3.42
				c2.256,3.554,6.401,3.052,10.059,2.94c2.243-0.069,3.902,1.392,6.135,1.125c1.54-0.184,8.959,0.969,9.298,2.946
				c0.383-0.941,0.766-1.882,1.149-2.823c-1.955,1.004,1.119,1.584,2.343,1.622c1.701,0.053,3.952,1.596,4.169-0.214
				c0.612-0.804,1.224-1.607,1.835-2.411c-3.403,1.063-7.709-2.411-9.984-4.44C230.204,66.426,226.655,69.95,229.066,72.101
				L229.066,72.101z"/>
		</g>
	</g>
	<g>
		<g>
			<path fill="#FFFFFF" d="M239.083,72.083c0,0.028,0,0.056,0,0.083c0,0.844,0.467,1.762,1.238,2.159
				c0.519,0.267,1.024,0.465,1.598,0.557c0.312,0.043,0.623,0.084,0.935,0.124c-0.354-0.046,0.36,0.295-0.024,0.026
				c0.93,0.654,2.071,0.715,3.169,0.718c1.363,0.004,2.5-1.14,2.5-2.5c0-1.365-1.137-2.496-2.5-2.5
				c-0.102,0-1.031-0.051-0.669,0.006c0.247,0.114,0.255,0.1,0.023-0.041c-0.228-0.179-0.486-0.304-0.773-0.376
				c-0.48-0.177-0.946-0.228-1.455-0.296c-0.315-0.038-0.363-0.047-0.144-0.025c-0.296-0.082-0.341-0.086-0.137-0.01
				c0.413,0.72,0.825,1.439,1.238,2.159c0-0.028,0-0.056,0-0.083c0-1.363-1.137-2.5-2.5-2.5
				C240.221,69.583,239.083,70.721,239.083,72.083L239.083,72.083z"/>
		</g>
	</g>
	<g>
		<g>
			<path fill="#FFFFFF" d="M156.101,76.601c1.993-1.766,4.425-1.18,6.813-1.69c2.071-0.443,4.03-1.144,6.056-1.747
				c4.407-1.313,9.509-0.957,14.059-1.941c5.12-1.107,10.172-2.008,15.41-2.377c2.478-0.174,4.965-0.17,7.447-0.147
				c0.048,0,4.14,0.024,4.179,0.069c0.169-1.309,0.337-2.618,0.506-3.926c-3.944,2.31-10.466,2.377-14.885,3.198
				c-5.842,1.086-11.69,2.138-17.518,3.3c-3.161,0.63-1.819,5.449,1.329,4.821c6.475-1.291,12.973-2.455,19.464-3.661
				c4.418-0.821,10.18-1.025,14.133-3.341c1.463-0.857,1.554-2.722,0.506-3.926c-1.897-2.181-7.075-1.528-9.578-1.551
				c-6.398-0.059-12.741,0.747-19.005,1.984c-5.78,1.141-11.618,1.562-17.377,2.677c-3.175,0.615-6.143,1.612-9.389,2.087
				c-2.388,0.349-3.899,1.053-5.687,2.637C150.148,75.208,153.697,78.731,156.101,76.601L156.101,76.601z"/>
		</g>
	</g>
	<g>
		<g>
			<path fill="#FFFFFF" d="M157.934,76.018c0.517-0.463,1.525-0.444,2.168-0.693c1.108-0.429,1.874-0.899,2.665-1.785
				c-0.474,0.153-0.557,0.185-0.251,0.096c0.35-0.043,0.693-0.083,1.045-0.105c0.873-0.054,1.816-0.16,2.533-0.706
				c2.229-1.697,0.98-5.146-1.926-4.569c-0.978,0.194-1.894,0.544-2.84,0.851c-1.024,0.332-2.116,0.344-3.16,0.566
				c-3.153,0.669-1.816,5.488,1.329,4.821c0.836-0.177,1.734-0.278,2.583-0.417c1.167-0.191,2.251-0.769,3.417-1
				c-0.642-1.523-1.284-3.046-1.926-4.569c-0.003,0.002-0.831,0.098-1.055,0.127c-1.005,0.131-2.204,0.218-2.951,1.013
				c-0.763,0.813-1.133,1.005-2.243,1.252c-1.138,0.253-2.066,0.814-2.924,1.581C151.991,74.636,155.539,78.16,157.934,76.018
				L157.934,76.018z"/>
		</g>
	</g>
	<g>
		<g>
			<path fill="#FFFFFF" d="M111.583,55.083c3.93,0.41,7.674,2.006,11.295,3.465c3.523,1.42,6.946,2.054,10.323,3.97
				c6.344,3.6,16.934,6.93,19.221,14.396c0.942,3.074,5.768,1.762,4.821-1.329c-2.837-9.259-12.568-12.108-20.232-16.661
				c-3.715-2.207-7.267-3.616-11.42-4.752c-4.771-1.305-8.975-3.564-14.008-4.089C108.378,49.749,108.41,54.752,111.583,55.083
				L111.583,55.083z"/>
		</g>
	</g>
	<g>
		<g>
			<path fill="#FFFFFF" d="M106.244,97.669c-2.3-9.201-0.923-18.631-0.327-27.919c0.207-3.221-4.795-3.201-5,0
				c-0.626,9.754-1.907,19.595,0.506,29.248C102.204,102.125,107.026,100.798,106.244,97.669L106.244,97.669z"/>
		</g>
	</g>
	<g>
		<g>
			<path fill="#FFFFFF" d="M104.083,85.417c-0.328-5.269,0.578-10.328,0.978-15.562c0.389-5.076,0.245-10.856,3.264-15.176
				c1.852-2.65-2.485-5.145-4.317-2.524c-2.82,4.036-3.328,9.12-3.675,13.928c-0.466,6.465-1.654,12.841-1.25,19.333
				C99.283,88.619,104.284,88.638,104.083,85.417L104.083,85.417z"/>
		</g>
	</g>
	<g>
		<g>
			<path fill="#FFFFFF" d="M107.167,55.417c-0.021-0.158-0.027-0.316-0.017-0.475c-0.038,0.236-0.023,0.201,0.044-0.104
				c-0.046,0.113-0.119,0.206-0.218,0.28c0.24-0.29,0.475-0.487,0.692-0.823c0.712-1.104,0.51-2.186-0.018-3.299
				c0.114,0.421,0.228,0.841,0.341,1.262c0.003-0.03,0.006-0.06,0.009-0.09c-0.114,0.421-0.228,0.841-0.341,1.262
				c0.019-0.028,0.039-0.056,0.058-0.085c-0.299,0.299-0.598,0.598-0.897,0.897c-0.276,0.187-1.104,0.165-0.374,0.203
				c0.532,0.028-0.526-0.106,0.129,0.029c0.402,0.083,0.812,0.123,1.22,0.17c-0.435-0.05,0.424,0.137,0.54,0.185
				c1.261,0.524,2.748-0.556,3.075-1.746c0.396-1.438-0.489-2.553-1.746-3.075c-0.315-0.131-0.621-0.197-0.958-0.246
				c-0.303-0.045-0.607-0.084-0.911-0.118c0.234,0.041,0.27,0.044,0.109,0.009c-0.589-0.137-1.212-0.218-1.817-0.216
				c-1.101,0.003-2.061,0.474-2.687,1.386c-0.312,0.455-0.355,0.904-0.409,1.436c0.001,0.451,0.115,0.872,0.341,1.262
				c0.109,0.233,0.084,0.171-0.076-0.187c0-0.443,0-0.886,0-1.329c0.158-0.675,0.458-0.751,0.06-0.27s-0.658,0.937-0.86,1.532
				c-0.231,0.682-0.35,1.434-0.289,2.153c0.117,1.357,1.049,2.5,2.5,2.5C105.941,57.917,107.283,56.776,107.167,55.417
				L107.167,55.417z"/>
		</g>
	</g>
</g>
<g id="Layer_2">
	<g>
		<path d="M65.414,231.185c-4.942,9.895,7.777,10.512,13.037,15.648c7.281,7.11,9.422,18.436,14.32,27.086
			c2.072,3.659,4.829,6.787,8.338,9.105c4.723,3.12,11.071,3.889,16.24,6.06c5.361,2.251,10.579,3.998,16.417,4.279
			c7.208,0.347,14.357-3.633,21.356-2.595c1.005,0.149,1.437-1.387,0.424-1.537c-4.135-0.609-7.694,0.56-11.694,1.549
			c-6.587,1.627-13.376,1.247-19.808-0.764c-4.915-1.537-9.571-3.768-14.503-5.307c-6.499-2.027-10.951-4.667-14.757-10.374
			c-4.734-7.1-6.798-15.629-11.204-22.921c-1.921-3.18-4.419-5.908-7.426-8.08c-4.938-3.567-13.538-2.742-10.204-11.923
			C66.063,231.099,65.561,230.89,65.414,231.185L65.414,231.185z"/>
	</g>
	<g>
		<path d="M64.785,232.429c11.972-4.159,23.45,0.038,31.379,9.531c5.851,7.006,9.929,15.132,17.699,20.352
			c7.267,4.882,18.125,6.094,26.672,6.181c6.013,0.061,12.608-0.336,15.527-6.401c0.47-0.977-0.989-1.833-1.457-0.852
			c-3.872,8.122-17.393,5.876-24.536,4.724c-4.785-0.772-9.782-2.072-14.136-4.217c-4.83-2.379-8.439-6.933-11.631-11.119
			c-4.643-6.088-8.454-12.414-14.977-16.727c-7.375-4.877-16.656-5.295-24.777-2.331C64.015,231.765,64.239,232.619,64.785,232.429
			L64.785,232.429z"/>
	</g>
	<g>
		<path d="M155.202,262.548c-0.895-1.588,1.79-6.43,2.39-8.016c1.875-4.958,4.766-9.801,9.043-13.016
			c0.608-0.457,0.012-1.497-0.603-1.032c-4.548,3.433-7.596,8.424-9.477,13.762c-0.485,1.377-3.36,7.497-1.673,8.623
			C155.084,263.004,155.313,262.744,155.202,262.548L155.202,262.548z"/>
	</g>
	<g>
		<path d="M155.246,264c0.443-5.012,2.728-9.533,4.833-14.029c1.806-3.859,3.737-7.49,7.229-10.112
			c0.62-0.466,0.014-1.525-0.615-1.052c-6.815,5.118-11.623,16.891-11.939,25.193C154.742,264.321,155.219,264.311,155.246,264
			L155.246,264z"/>
	</g>
	<g>
		<path d="M165.667,239.158c-8.135-0.397-16.058-1.171-23.791-3.836c-7.532-2.596-14.623-6.466-21.512-10.425
			c-13.598-7.813-23.595-18.104-30.48-32.228c-7.422-15.225-9.454-32.258-6.578-48.859c1.367-7.89,3.212-15.867,5.468-23.55
			c2.497-8.504,6.866-14.855,13.522-20.629c0.869-0.754-0.397-2.009-1.26-1.26c-5.905,5.127-10.168,10.675-12.863,18.038
			c-3.145,8.59-4.876,17.965-6.564,26.933c-2.987,15.87-1.11,32.373,5.405,47.175c6.46,14.675,16.139,25.66,29.739,34.07
			c6.764,4.183,13.931,7.847,21.306,10.814c9.023,3.631,17.951,4.472,27.607,4.109C165.894,239.501,165.893,239.169,165.667,239.158
			L165.667,239.158z"/>
	</g>
	<g>
		<path d="M102.017,98.903c-2.218-8.167-2.355-16.538-1.848-24.934c0.475-7.863,0.152-15.548,3.963-22.697
			c0.335-0.628-0.524-1.09-0.931-0.544c-4.455,5.975-3.869,14.549-4.155,21.605c-0.37,9.127-0.579,17.961,2.271,26.763
			C101.46,99.54,102.14,99.358,102.017,98.903L102.017,98.903z"/>
	</g>
	<g>
		<path d="M103.405,50.26c5.095-0.974,9.519,0.612,14.381,1.833c5.022,1.261,9.539,2.891,14.188,5.215
			c4.485,2.242,8.865,4.693,13.285,7.057c3.375,1.805,6.747,3.078,9.195,6.182c0.547,0.693,1.691-0.209,1.215-0.937
			c-2.045-3.128-5.277-4.516-8.547-6.097c-5.426-2.623-10.623-5.718-16.042-8.366c-7.861-3.842-19.055-7.375-27.817-5.407
			C102.92,49.817,103.067,50.324,103.405,50.26L103.405,50.26z"/>
	</g>
	<g>
		<path d="M154.442,71.729c3.235-1.132,6.188-2.404,9.644-2.781c3.749-0.409,7.488-0.836,11.232-1.3
			c7.373-0.914,14.797-1.893,22.221-2.203c7.761-0.325,15.592-0.584,23.346,0.011c4.549,0.349,8.898,1.823,13.331,2.768
			c3.965,0.845,7.89,1.263,11.638,2.931c1.108,0.493,2.075-1.143,0.958-1.639c-6.26-2.78-13.72-3.635-20.397-5.081
			c-8.224-1.781-16.976-1.262-25.328-0.984c-8.168,0.272-16.298,1.158-24.394,2.264c-3.749,0.512-7.494,0.998-11.242,1.503
			c-4.382,0.59-7.207,2.107-11.226,3.723C153.745,71.131,153.935,71.906,154.442,71.729L154.442,71.729z"/>
	</g>
	<g>
		<path d="M245.559,71.226c-0.12,0.103-0.239,0.205-0.359,0.308c-0.162,0.14,0.05,0.412,0.228,0.295
			c7.254-4.766,14.81-8.256,22.906-11.35c7.548-2.884,15.219-6.075,23.08-7.995c7.425-1.813,7.115,4.363,7.793,9.382
			c0.658,4.871,1.324,9.744,1.878,14.629c0.87,7.668,2.584,17.831,0.01,25.256c-0.405,1.167,1.357,1.581,1.808,0.498
			c1.699-4.082,1.108-8.782,1-13.109c-0.136-5.455-0.721-10.898-1.406-16.307c-0.711-5.615-1.509-11.221-2.247-16.833
			c-0.234-1.78-0.686-4.699-2.855-5.259c-3.897-1.006-7.664,0.179-11.363,1.452c-5.53,1.903-11.017,3.862-16.441,6.054
			c-8.065,3.26-18.522,7.03-23.817,13.193C245.903,71.292,245.708,71.097,245.559,71.226L245.559,71.226z"/>
	</g>
	<g>
		<path d="M236,239.586c30.197-2.417,59.04-18.875,74.087-45.5c8.278-14.647,10.325-32.985,9.106-49.521
			c-1.22-16.55-8.389-31.919-18.756-44.668c-0.881-1.083-2.455,0.473-1.541,1.541c21.499,25.14,25.167,64.246,8.912,93.153
			c-14.983,26.645-43,39.347-71.963,43.845C235.192,238.536,235.345,239.638,236,239.586L236,239.586z"/>
	</g>
	<g>
		<path d="M248.453,309.329c-0.017-0.295-0.029-0.594-0.047-0.889c-0.545-8.872-0.486-17.884-0.533-26.774
			c-0.041-7.756,1.109-15.365-0.927-22.978c-0.933-3.491-3.105-6.495-5.057-9.472c-0.784-1.195-6.539-7.777-5.941-9.472
			c0.114-0.322-0.367-0.501-0.536-0.226c-0.819,1.338-0.091,2.399,0.836,3.577c3.349,4.255,6.743,9.416,8.765,14.438
			c2.007,4.983,1.648,10.748,1.424,16.001c-0.217,5.086-0.326,10.128-0.236,15.219c0.186,10.54,0.852,21.055,1.072,31.58
			c0.011,0.53,0.031,1.076,0.057,1.627c0.198,0.014,0.396,0.03,0.594,0.045C247.956,317.762,248.082,313.54,248.453,309.329z"/>
	</g>
	<g>
		<path d="M117.667,270.988c-0.222,0-0.444,0-0.667,0c-0.015,0-0.015,0.023,0,0.023c0.222,0,0.444,0,0.667,0
			C117.682,271.012,117.682,270.988,117.667,270.988L117.667,270.988z"/>
	</g>
	<g>
		<path d="M153.98,325.563c0.15,0.46,0.267,0.936,0.311,1.437c0.138,1.558,0.431,2.939,1.024,4.296
			c0.066-5.681,0.023-11.367,0.038-17.046c0.021-7.673,0.588-15.673-0.608-23.272c-0.012-0.079-0.146-0.079-0.158,0
			c-1.099,6.977-0.633,14.287-0.614,21.333C153.986,316.726,153.972,321.145,153.98,325.563z"/>
	</g>
	<g>
		<path d="M248.282,311.496c-0.218-7.314-0.551-14.62-0.726-21.829c-0.007-0.287-0.438-0.287-0.445,0
			c-0.328,13.536-1.266,27.409-0.838,41.047c0.025-0.097,0.053-0.194,0.073-0.293c0.146-0.598,0.392-1.104,0.692-1.546
			c0.376-1.063,0.653-2.144,0.875-3.237C247.91,320.9,247.961,316.19,248.282,311.496z"/>
	</g>
	<g>
		<path d="M204.447,337.077c-14.442,0.014-29.017-0.488-43.482-0.063c0.908,0.463,1.808,0.938,2.736,1.363
			c12.915,0.267,25.905-0.135,38.788-0.123c12.056,0.012,24.148,0.285,36.211,0.088c0.503-0.464,1.077-0.851,1.697-1.141
			c0.066-0.059,0.126-0.121,0.197-0.179C228.554,336.779,216.483,337.065,204.447,337.077z"/>
	</g>
	<g>
		<path d="M164.667,337.266c-4.5-0.106-8.293-5.165-10.146-8.723c-0.01-0.019-0.024-0.028-0.035-0.044
			c0.21,1.191,0.556,2.298,1.117,3.404c2.199,3.099,5.471,6.14,9.065,5.831C164.964,337.709,164.973,337.273,164.667,337.266z"/>
	</g>
	<g>
		<path d="M247.037,328.874c0.259-0.734,0.472-1.476,0.655-2.224c-0.209-0.148-0.533-0.153-0.67,0.119
			c-1.291,2.57-2.719,4.852-4.74,6.925c-1.518,1.557-2.974,3.479-5.208,3.967c-0.396,0.086-0.295,0.686,0.093,0.691
			c2.22,0.028,4.081-2.165,5.491-3.624c1.444-1.494,2.812-3.083,3.878-4.858C246.675,329.508,246.836,329.17,247.037,328.874z"/>
	</g>
</g>
</svg>
