<?xml version="1.0" encoding="utf-8"?>
<!-- Generator: Adobe Illustrator 17.0.0, SVG Export Plug-In . SVG Version: 6.00 Build 0)  -->
<!DOCTYPE svg PUBLIC "-//W3C//DTD SVG 1.1//EN" "http://www.w3.org/Graphics/SVG/1.1/DTD/svg11.dtd">
<svg version="1.1" id="Layer_1" xmlns="http://www.w3.org/2000/svg" xmlns:xlink="http://www.w3.org/1999/xlink" x="0px" y="0px"
	 width="82.952px" height="82.667px" viewBox="0 0 82.952 82.667" enable-background="new 0 0 82.952 82.667" xml:space="preserve">
<g>
	<path fill="#FFFFFF" d="M1.095,49.5c3.792,18.916,20.491,33.167,40.523,33.167c20.032,0,36.731-14.251,40.523-33.167H1.095z"/>
	<path fill="#FFFFFF" d="M82.513,47.333c0.285-1.959,0.439-3.962,0.439-6C82.952,18.506,64.446,0,41.618,0
		C18.79,0,0.285,18.506,0.285,41.333c0,2.038,0.154,4.041,0.439,6H82.513z M69.868,30c2.9,0,5.25,2.351,5.25,5.25
		c0,2.9-2.35,5.25-5.25,5.25c-2.899,0-5.25-2.35-5.25-5.25C64.618,32.351,66.969,30,69.868,30z M14.202,30
		c2.899,0,5.25,2.351,5.25,5.25c0,2.9-2.351,5.25-5.25,5.25c-2.9,0-5.25-2.35-5.25-5.25C8.952,32.351,11.302,30,14.202,30z"/>
</g>
<circle fill="#FFFFFF" cx="9.559" cy="13.459" r="9.559"/>
<circle fill="#FFFFFF" cx="73.393" cy="13.459" r="9.559"/>
</svg>
