<?xml version="1.0" encoding="utf-8"?>
<!-- Generator: Adobe Illustrator 17.0.0, SVG Export Plug-In . SVG Version: 6.00 Build 0)  -->
<!DOCTYPE svg PUBLIC "-//W3C//DTD SVG 1.1//EN" "http://www.w3.org/Graphics/SVG/1.1/DTD/svg11.dtd">
<svg version="1.1" xmlns="http://www.w3.org/2000/svg" xmlns:xlink="http://www.w3.org/1999/xlink" x="0px" y="0px"
	 width="272.189px" height="212.558px" viewBox="0 0 272.189 212.558" enable-background="new 0 0 272.189 212.558"
	 xml:space="preserve">
<g id="Layer_4">
	<g>
		<g>
			<path fill="#FFFFFF" d="M53.758,37.557c-5.741,6.927-3.703,31.57,8.408,30.814c3.668-0.229,5.896-2.2,7.232-5.506
				c1.732-4.284-0.639-9.673-0.836-14.004c-4.659,1.262-9.317,2.524-13.976,3.785c4.316,7.565,6.844,15.276,12.572,22.057
				c3.083,3.65,6.45,7.037,9.475,10.742c3.014,3.691,5.719,7.43,9.893,9.891c5.435,3.206,13.185-2.099,11.017-8.47
				c-2.792-8.207-9.958-10.792-15.636-16.45c-3.081-3.07-5.856-6.405-9.487-8.875c-4.049-2.755-8.259-3.785-13.05-4.402
				c-9.971-1.284-18.428,2.231-27.33,6.104c-7.778,3.384-17.386,9.645-20.212,18.123c-3.128,9.383,10.898,12.674,14.464,3.988
				c3.454-8.415,8.166-16.111,13.437-23.511c5.496-7.715,12.126-16.228,20.116-21.507c-3.03-3.926-6.059-7.853-9.089-11.779
				c-4.696,6.001-9.434,11.957-13.799,18.206c-3.351,4.797-7.882,12.507-2.675,17.72c7.043,7.05,15.911-1.441,21.083-6.427
				c7.163-6.903,13.037-15.042,19.997-22.143c-3.926-0.506-7.853-1.012-11.779-1.518c0.078,0.169,0.156,0.339,0.234,0.508
				c-0.341-1.262-0.683-2.524-1.024-3.785c0.358-2.792-0.312-0.035-0.716,0.998c-0.627,1.601-1.234,3.208-1.83,4.821
				c-1.409,3.812-2.964,7.578-4.152,11.466c-1.959,6.415-3.508,16.369,3.428,20.432c7.383,4.325,13.874-3.26,15.953-9.63
				c1.229-3.765,1.467-7.65,1.955-11.558c0.2-1.6,0.324-3.177,0.378-4.788c0.022-0.67,0.369-3.604-0.268-1.506
				c-4.911-0.665-9.821-1.329-14.732-1.994c-0.254,7.008,1.304,14.602,2.518,21.494c1.013,5.754,4.435,13.686,9.697,16.732
				c4.807,2.783,11.455-0.725,11.285-6.476c-0.207-7.046-4.023-13.904-4.75-21c-4.659,1.262-9.317,2.524-13.976,3.785
				c1.347,2.402,1.922,5.094,2.744,7.708c1.033,3.287,2.717,6.544,4.22,9.638c2.904,5.976,6.707,12.615,12.726,15.844
				c7.525,4.036,15.037-5.534,9.089-11.779c-2.068-2.172-3.764-4.424-5.327-6.982c-3.926,3.03-7.853,6.059-11.779,9.089
				c3.872,3.77,7.034,7.85,11.414,11.152c4.195,3.163,9.646,5.959,13.336,9.598c2.432-4.178,4.865-8.357,7.297-12.535
				c-7.248-2.617-13.502-12.412-21.988-10c-2.906,0.826-5.922,3.96-5.506,7.232c1.753,13.805,11.538,25.688,20.447,35.803
				c3.03-3.926,6.059-7.853,9.089-11.779c1.69,1.015-1.245-1.121-1.732-1.577c-2.077-1.945-4.143-3.846-6.099-5.918
				c-4.048-4.289-7.226-9.238-10.901-13.832c-4.677-5.847-15.008,0.433-12.535,7.297c1.569,4.356,2.999,8.723,4.064,13.232
				c1.05,4.448,0.887,9.02,1.418,13.524c0.857,7.26,9.63,10.426,13.976,3.785c1.925-2.941,2.616-6.562,3.592-9.897
				c0.937-3.199,1.285-7.457,2.908-10.353c-4.569-0.597-9.139-1.194-13.708-1.792c3.803,9.172,6.499,20.703,18.232,22.006
				c-1.262-0.341-2.524-0.683-3.785-1.024c0.188,0.115,0.375,0.229,0.562,0.344c4.267,2.607,9.589,0.042,11.017-4.482
				c1.133-3.589,0.04-7.531-0.902-11.038c-0.556-2.067-0.981-4.164-1.418-6.259c-0.206-1.088-0.37-2.183-0.492-3.284
				c-0.287-1.051-0.37-0.805-0.25,0.738c-4.569,0.597-9.139,1.194-13.708,1.792c4.233,6.35,8.843,16.626,17.232,18.197
				c4.342,0.813,10.018-2.013,9.494-7.232c-0.82-8.165-8.05-13.651-10.518-21.244c-4.178,2.432-8.357,4.865-12.535,7.297
				c5.304,6.08,8.795,13.744,16.81,16.679c5.33,1.952,10.907-4.045,9.226-9.226c-2.233-6.88-8.777-12.094-13.006-17.792
				c-2.159,3.762-4.317,7.524-6.476,11.285c0.095-0.001,0.191-0.001,0.286-0.002c-1.262-0.341-2.524-0.683-3.785-1.024
				c-1.603-0.887,0.371,0.382,0.707,0.725c0.836,0.852,1.607,1.771,2.388,2.673c1.965,2.271,4.348,4.206,6.601,6.181
				c7.241,6.348,17.894-4.218,10.607-10.607c-2.696-2.363-5.323-4.728-7.684-7.425c-2.404-2.746-5.196-5.545-9.119-5.522
				c-5.2,0.031-9.995,6.545-6.476,11.285c2.095,2.822,4.263,5.578,6.549,8.248c1.351,1.578,4.293,3.952,4.945,5.96
				c3.075-3.075,6.151-6.151,9.226-9.226c-0.949-0.347-3.274-3.752-4.137-4.929c-1.967-2.681-3.864-5.383-6.053-7.892
				c-4.938-5.661-14.81,0.298-12.535,7.297c2.406,7.404,7.939,13.115,10.918,20.166c-0.341-1.262-0.683-2.524-1.024-3.785
				c0.029,0.292,0.059,0.584,0.088,0.876c3.165-2.411,6.329-4.821,9.494-7.232c-3.162-0.592-6.587-8.783-8.268-11.303
				c-3.514-5.27-11.911-4.752-13.708,1.792c-0.838,3.053-0.074,5.886,0.454,8.886c0.375,2.131,0.847,4.236,1.296,6.352
				c0.209,0.984,1.383,4.382,1.312,4.606c3.673-1.494,7.345-2.988,11.017-4.482c-1.729-1.057-3.379-1.26-5.348-1.479
				c1.262,0.341,2.524,0.683,3.785,1.024c-4.26-2.603-4.765-7.593-6.553-11.907c-2.323-5.602-10.214-8.028-13.708-1.792
				c-1.819,3.247-2.524,6.996-3.483,10.565c-0.801,2.98-1.335,7.114-3.017,9.685c4.659,1.262,9.317,2.524,13.976,3.785
				c-0.548-4.64-0.432-9.375-1.268-13.994c-1.042-5.755-2.771-11.256-4.75-16.75c-4.178,2.432-8.357,4.865-12.535,7.297
				c6.509,8.136,12.57,18.147,21.768,23.673c7.595,4.563,14.562-5.565,9.089-11.779c-3.246-3.685-6.392-7.362-9.077-11.482
				c-2.547-3.908-6.37-8.945-6.976-13.715c-1.835,2.411-3.671,4.821-5.506,7.232c0.293-0.083,0.586-0.167,0.88-0.25
				c-1.329,0-2.658,0-3.988,0c2.477,1.042,5.315,3.587,7.679,5.118c3.035,1.965,6.029,3.9,9.442,5.132
				c7.261,2.622,12.41-7.494,7.297-12.535c-3.664-3.613-8.474-5.988-12.629-8.997c-4.694-3.399-8.035-7.775-12.121-11.753
				c-6.046-5.888-16.295,1.701-11.779,9.089c2.207,3.61,4.754,6.954,7.673,10.018c3.03-3.926,6.059-7.853,9.089-11.779
				c-3.89-2.087-6.237-8.183-8.091-11.997c-2.493-5.129-3.421-10.823-6.219-15.812c-3.461-6.171-14.757-3.844-13.976,3.785
				c0.391,3.823,1.093,7.518,2.018,11.244c0.705,2.84,2.651,6.999,2.732,9.756c3.762-2.159,7.524-4.317,11.285-6.476
				c0.801,0.892,0.865,0.872,0.191-0.059c-0.546-0.916-1.013-1.871-1.4-2.865c-0.845-2.128-1.504-4.336-1.901-6.586
				c-0.894-5.078-1.862-10.605-1.675-15.763c0.315-8.677-12.323-9.923-14.732-1.994c-0.817,2.691-0.218,5.924-0.46,8.706
				c-0.174,1.998-0.398,4.047-0.725,6.026c-0.189,0.956-0.444,1.893-0.765,2.813c-0.963,1.476-1.128,1.836-0.494,1.079
				c1.262-0.341,2.524-0.683,3.785-1.024c-0.37-0.035-0.74-0.07-1.109-0.105c1.768,0.732,3.536,1.464,5.303,2.197
				c0.685,1.695,1.001,1.796,0.947,0.303c0.183-1.705,0.567-3.311,1-4.968c0.881-3.371,2.356-6.597,3.562-9.859
				c1.954-5.286,4.979-10.139,2.414-15.708c-2.041-4.431-8.636-4.724-11.779-1.518c-4.591,4.683-8.744,9.752-13.067,14.678
				c-2.238,2.55-4.552,5.045-6.93,7.465c-1.181,1.201-2.456,2.287-3.753,3.357c-4.812,3.97,7.831-2.572,5.774,8.852
				c0.314-1.746,2.959-5.13,4.492-7.238c3.273-4.498,6.662-8.877,10.091-13.258c2.11-2.697,3.034-5.912,1.173-9.089
				c-1.98-3.38-6.846-4.947-10.261-2.691c-9.246,6.108-16.888,15.091-23.4,23.953c-6.935,9.437-12.603,19.203-17.047,30.029
				c4.821,1.329,9.643,2.658,14.464,3.988c-0.704,2.111,1.716-1.425,1.845-1.565c1.01-1.11,1.989-2.207,3.194-3.12
				c2.394-1.814,5.205-3.191,7.973-4.326c3.124-1.281,6.1-2.777,9.333-3.778c3.309-1.024,7.326-0.687,10.733-0.425
				c5.136,0.395,8.67,5.499,11.93,8.884c1.932,2.007,4.158,3.625,6.446,5.198c1.631,1.122,4.651,2.629,5.332,4.632
				c3.673-2.823,7.345-5.647,11.017-8.47c-2.823-1.665-4.836-5.036-6.857-7.546c-2.637-3.276-5.497-6.346-8.33-9.45
				c-5.442-5.962-7.455-13.447-11.372-20.313c-3.61-6.328-14.32-3.767-13.976,3.785c0.114,2.492,0.455,4.934,0.862,7.394
				c0.081,0.708,0.218,1.403,0.411,2.086c0.047,0.959-0.513,2.05,0.099,0.537c2.411-1.835,4.821-3.671,7.232-5.506
				c-0.109,0.007-0.218,0.014-0.327,0.02c1.768,0.732,3.536,1.464,5.303,2.197c-1.064-1.07-0.946-3.99-1.081-5.977
				c-0.045-0.656-0.062-1.316-0.093-1.972c-0.029-0.668-0.038-1.336-0.027-2.004c0.228-2.222-0.298-1.379-1.577,2.53
				C70.487,40.776,59.936,30.102,53.758,37.557L53.758,37.557z"/>
		</g>
	</g>
	<g>
		<g>
			<path fill="#FFFFFF" d="M51.758,149.807c-0.083,0.073-0.167,0.146-0.25,0.219c1.768-0.732,3.536-1.464,5.303-2.197
				c-0.083,0.01-0.167,0.021-0.25,0.031c1.768,4.268,3.536,8.536,5.303,12.803c9.992-8.176,19.598-16.769,29.38-25.188
				c4.668-4.018,9.388-7.973,13.99-12.067c2.227-1.981,4.183-4.23,6.38-6.245c1.47-1.348,3.06-2.362,3.923-4.268
				c2.902-6.413-3.3-14.499-10.261-10.261c-5.789,3.524-10.474,8.141-15.41,12.712c-5.57,5.158-10.987,10.472-16.114,16.071
				c-4.39,4.795-8.665,10.009-10.907,16.195c-2.259,6.234-1.516,11.328-0.016,17.492c0-1.329,0-2.658,0-3.988
				c1.568-3.513,3.738-5.047,6.508-4.6c-0.495-0.119-0.985-0.261-1.467-0.425c-1.242-0.389-2.217-0.872-3.399-1.434
				c-2.277-1.083-4.504-2.297-6.654-3.614c-6.084-3.726-8.697-13.227-12.279-19.218c-3.876-6.483-13.803-3.651-13.976,3.785
				c-0.129,5.547,2.698,11.582,4.518,16.744c2.049,5.813,5.029,10.543,8.006,15.792c3.42-3.42,6.841-6.841,10.261-10.261
				c-9.65-6.774-17.067-17.347-20.817-28.402c-2.063-6.082-3.31-12.501-4.096-18.864c-0.382-3.091-0.594-6.193-0.714-9.304
				c-0.054-1.394,0.14-2.778,0.068-4.166c-0.013-0.256,0.142-3.149-0.244-1.294c-4.911-0.665-9.821-1.329-14.732-1.994
				c-0.387,10.252,0.973,21.447,3.294,31.426c1.025,4.406,2.729,8.621,4.578,12.735c0.883,1.966,1.996,3.811,3.152,5.624
				c0.667,1,1.333,2,2,3c0.333,0.5,0.667,1,1,1.5c1.479,1.957,1.56,2.026,0.244,0.208c3.672-2.823,7.345-5.647,11.017-8.47
				c-3.48-1.837-5.755-6.451-7.537-9.792c-2.738-5.132-5.358-10.329-7.09-15.892c-3.118-10.014-0.25-21.914,2.074-31.846
				c-4.911-0.665-9.821-1.329-14.732-1.994c-0.65,14.285-0.182,27.872,2.909,41.893c1.485,6.737,3.885,13.307,6.985,19.467
				c2.382,4.732,6.336,10.768,11.07,13.366c6.761,3.711,13.703-3.609,10.261-10.261c-2.76-5.335-5.665-10.463-7.674-16.15
				c-1.915-5.42-3.047-11.166-4.07-16.809c-4.569,1.926-9.139,3.853-13.708,5.779c4.646,7.406,7.713,15.646,11.784,23.363
				c4.08,7.734,10.216,15.243,16.889,20.905c7.328,6.218,17.993-4.339,10.607-10.607c-5.819-4.937-10.91-11.183-14.544-17.869
				c-4.171-7.675-7.131-15.945-11.784-23.363c-4.7-7.492-15.198-2.435-13.708,5.779c2.407,13.269,7.093,24.628,13.256,36.542
				c3.42-3.42,6.841-6.841,10.261-10.261c-2.89-1.586-5.029-6.673-6.449-9.496c-2.53-5.026-3.906-10.714-5.11-16.174
				c-2.654-12.036-2.533-23.869-1.976-36.104c0.385-8.47-12.809-10.214-14.732-1.994c-3.153,13.474-5.755,28-1.552,41.498
				c2.096,6.732,5.594,13.139,8.901,19.337c2.706,5.072,6.888,10.885,12.098,13.635c6.336,3.345,11.879-2.091,11.017-8.47
				c-0.457-3.383-3.834-6.846-5.627-9.656c-2.283-3.579-3.673-7.552-4.873-11.594c-2.684-9.036-3.587-19.859-3.232-29.256
				c0.317-8.4-13.002-10.319-14.732-1.994c-1.231,5.926-0.308,12.821,0.354,18.751c0.865,7.753,2.287,15.406,4.632,22.852
				c4.709,14.952,14.893,28.37,27.71,37.367c6.42,4.507,13.764-4.085,10.261-10.261c-2.066-3.643-4.294-6.647-5.863-10.617
				c-0.911-2.304-1.7-4.645-2.474-6.998c-0.693-2.107-2.19-5.146-2.138-7.35c-4.659,1.262-9.317,2.524-13.976,3.785
				c5.378,8.994,8.755,19.145,18.169,24.911c5.839,3.576,13.635,8.167,20.701,6.784c6.089-1.191,6.824-8.173,4.822-12.831
				c-1.894-4.406,3.305-10.698,5.838-13.706c4.79-5.687,10.191-10.887,15.577-15.999c4.828-4.583,9.435-9.488,15.153-12.969
				c-3.42-3.42-6.841-6.841-10.261-10.261c0.469-1.036-1.111,0.836-1.577,1.232c-2.269,1.928-4.169,4.251-6.38,6.245
				c-4.572,4.125-9.312,8.064-13.99,12.067c-9.804,8.392-19.388,17.011-29.38,25.188c-4.832,3.954-1.062,13.599,5.303,12.803
				c2.442-0.305,3.929-0.806,5.803-2.447C69.657,154.032,59.004,143.467,51.758,149.807L51.758,149.807z"/>
		</g>
	</g>
	<g>
		<g>
			<path fill="#FFFFFF" d="M128.364,102.164c3.828-4.856,9.003-8.905,13.467-13.179c4.92-4.711,9.811-9.455,14.797-14.095
				c4.907-4.566,10.153-8.883,14.713-13.8c3.624-3.908,8.789-7.312,10.201-12.736c1.229-4.72-2.306-9.482-7.232-9.494
				c-6.073-0.015-11.295,5.41-16.098,8.607c-6.407,4.266-12.748,8.587-18.995,13.086c-5.927,4.269-11.845,8.572-17.587,13.088
				c-5.101,4.013-9.734,8.281-16.314,9.486c-8.716,1.597-6.049,14.294,1.994,14.732c5.538,0.301,10.412-2.803,14.946-5.633
				c5.39-3.365,10.378-7.451,15.277-11.481c5.182-4.263,10.146-8.789,15.14-13.268c4.501-4.036,9.124-9.199,14.422-12.141
				c-1.262,0.341-2.524,0.683-3.785,1.024c0.272-0.036,0.544-0.073,0.816-0.109c-1.768-0.732-3.536-1.464-5.303-2.197
				c0.098,0.107,0.197,0.215,0.295,0.322c-0.732-1.768-1.464-3.536-2.197-5.303c-0.027,0.2-0.053,0.4-0.08,0.6
				c0.341-1.262,0.683-2.524,1.024-3.785c-1.602,3.756-5.46,6.665-8.332,9.446c-4.032,3.903-8.083,7.741-11.776,11.974
				c-5.541,6.351,1.394,15.992,9.089,11.779c4.506-2.467,8.046-6.668,11.908-10c4.251-3.668,8.635-6.867,13.092-10.25
				c3.249-2.467,4.945-6.414,2.691-10.261c-1.88-3.209-6.997-5.169-10.261-2.691c-4.515,3.427-9.101,6.534-13.408,10.25
				c-3.666,3.163-7.358,7.682-11.592,10c3.03,3.926,6.059,7.853,9.089,11.779c6.689-7.667,15.922-13.909,21.423-22.518
				c2.346-3.672,3.122-8.155-0.062-11.626c-3.669-4-8.989-2.543-12.794,0.302c-8.618,6.444-16.335,14.219-24.42,21.306
				c-3.953,3.465-7.992,6.841-12.197,9.997c-3.092,2.321-8.983,7.705-13.004,7.486c0.665,4.911,1.329,9.821,1.994,14.732
				c12.193-2.234,21.72-12.527,31.357-19.623c6.113-4.502,12.235-9.062,18.592-13.216c3.279-2.142,6.526-4.335,9.79-6.5
				c1.629-1.081,3.321-2.076,4.82-3.339c0.533-0.45,1.893-1.05,0.447-1.053c-2.411-3.165-4.821-6.329-7.232-9.494
				c0.535-0.852,0.378-0.766-0.471,0.258c-1.074,1.121-2.164,2.215-3.284,3.294c-2.192,2.113-4.266,4.325-6.486,6.411
				c-4.464,4.193-9.035,8.269-13.499,12.462c-4.527,4.253-8.98,8.586-13.467,12.882c-4.03,3.858-8.658,7.498-12.114,11.883
				c-2.528,3.208-3.144,7.463,0,10.607C120.392,104.798,125.829,105.38,128.364,102.164L128.364,102.164z"/>
		</g>
	</g>
	<g>
		<g>
			<path fill="#FFFFFF" d="M105.567,129.092c8.173,2.03,15.409,9.289,21.394,14.85c3.382,3.142,6.809,6.25,10.244,9.335
				c3.547,3.185,7.105,6.947,11.07,9.558c5.641,3.716,12.669-2.375,11.017-8.47c-2.413-8.904-10.975-16.645-16.716-23.516
				c-3.32-3.973-6.034-8.473-8.483-13.022c-1.616-3.003-3.753-7.312-3.411-10.83c-0.341,1.262-0.683,2.524-1.024,3.785
				c0.126-0.296,0.252-0.592,0.378-0.888c-2.823,1.149-5.647,2.298-8.47,3.447c-2.994-3.268-3.738-3.5-2.232-0.697
				c0.75,1.65,1.5,3.3,2.25,4.95c1.216,2.675,2.405,5.36,3.67,8.012c2.732,5.725,6.113,11.103,10.043,16.079
				c3.496,4.426,7.487,8.27,11.818,11.871c4.014,3.338,7.425,7.228,12.452,9.035c4.817,1.731,9.268-2.694,9.494-7.232
				c0.305-6.128-5.838-11.155-9.796-15.075c-4.938-4.89-9.351-10.04-12.603-16.21c-3.079-5.842-3.453-12.376-3.399-18.839
				c0.051-6.178,1.805-12.905-0.976-18.661c-4.208-8.708-17.141-1.097-12.952,7.571c-0.469-1.142-0.637-0.991-0.505,0.455
				c-0.242,3.898-0.199,0.227-0.335,3.707c-0.136,3.477-0.263,6.947-0.229,10.427c0.067,6.943,1.352,13.706,4.137,20.068
				c2.603,5.945,6.34,11.099,10.543,16.014c3.68,4.305,9.819,8.305,12.183,13.466c-0.341-1.262-0.683-2.524-1.024-3.785
				c-0.014,0.288-0.029,0.576-0.043,0.863c3.165-2.411,6.329-4.821,9.494-7.232c-1.135-0.408-2.351-2.221-3.19-3.071
				c-1.914-1.938-4.361-3.522-6.406-5.344c-4.224-3.762-7.741-8.008-10.811-12.744c-3.13-4.828-5.486-10.072-7.86-15.294
				c-2.44-5.368-3.813-10.522-9.732-12.797c-2.817-1.083-7.262,0.612-8.47,3.447c-4.114,9.655,2.538,21.041,7.601,29.159
				c3.113,4.99,6.849,9.514,10.673,13.968c2.974,3.465,8.24,8.365,9.47,12.902c3.673-2.823,7.345-5.647,11.017-8.47
				c-3.262-2.149-6.379-5.727-9.318-8.366c-3.887-3.491-7.707-7.059-11.566-10.582c-7.155-6.534-15.792-13.919-25.408-16.308
				C100.165,112.295,96.183,126.761,105.567,129.092L105.567,129.092z"/>
		</g>
	</g>
	<g>
		<g>
			<path fill="#FFFFFF" d="M144.864,94.664c3.47-2.749,5.228-7.25,7.952-10.674c1.565-1.967,3.136-3.937,4.752-5.863
				c1.68-2.003,4.485-3.063,6.752-4.262c4.558-2.411,9.282-1.795,13.692,0.545c2.411,1.279,4.461,3.09,6.494,4.881
				c0.629,0.554,4.361,3.163,4.322,3.063c2.929,7.512,14.818,7.001,14.732-1.994c-0.093-9.663-8.372-14.186-16.908-15.564
				c-4.553-0.735-9.231-1.096-13.826-1.441c-5.382-0.404-11.864-0.959-17.01,1.023c-6.572,2.531-7.693,12.391,0,14.464
				c6.33,1.706,13.051,0.745,19.428,2.872c6.253,2.085,10.49,7.801,16.572,10.128c9.05,3.462,12.927-11.044,3.988-14.464
				c-2.093-0.801-4.592-3.638-6.532-4.985c-3.147-2.183-6.477-3.76-10.04-5.143c-6.282-2.439-13.149-1.179-19.428-2.872
				c0,4.821,0,9.643,0,14.464c5.892-2.27,13.912-0.376,20.038,0.153c2.029,0.175,3.98,0.423,5.971,0.865
				c1.07,0.237,2.023,0.528,2.978,1.034c0.038,0.02-0.231-0.59-0.231-0.535c4.911-0.665,9.821-1.329,14.732-1.994
				c-2.396-6.143-8.35-10.232-13.521-14.084c-6.558-4.885-14.32-7.775-22.565-6.722c-7.159,0.915-15.242,4.688-20.246,9.959
				c-2.521,2.656-4.728,5.784-6.96,8.683c-1.904,2.472-3.305,5.922-5.743,7.854c-3.21,2.543-2.64,7.967,0,10.607
				C137.396,97.802,141.663,97.2,144.864,94.664L144.864,94.664z"/>
		</g>
	</g>
	<g>
		<g>
			<path fill="#FFFFFF" d="M139.758,134.414c12.208,13.653,37.089,13.846,51.089,3.173c17.295-13.185,18.453-35.286,16.965-55.226
				c-4.659,1.262-9.317,2.524-13.976,3.785c2.098,4.841,1.435,11.406,1.402,16.542c-0.042,6.582-2.023,12.06-4.439,18.113
				c-2.392,5.994-5.594,11.54-8.999,17.01c-1.272,2.044-2.454,4.47-4.523,5.824c-0.34,0.223-1.079,0.645-1.564,0.697
				c0.81,0.445,1.619,0.891,2.429,1.336c-0.34-1.002-0.791-1.95-1.354-2.842c-0.897,3.42-1.794,6.841-2.691,10.261
				c-0.917,0.482-0.763,0.574,0.465,0.274c1.748-0.195,3.314-0.541,4.985-1.064c2.621-0.821,5.137-2.17,7.551-3.46
				c5.063-2.706,9.251-7.727,11.941-12.691c2.121-3.914,0.478-10.162-4.482-11.017c-4.583-0.79-7.868,0.784-11.667,3.238
				c-3.962,2.559-8.027,5.023-11.862,7.768c-7.791,5.576-0.313,18.595,7.571,12.952c2.504-1.792,5.118-3.392,7.731-5.017
				c2.364-1.47,4.691-3.656,7.321-4.633c-1.329,0-2.658,0-3.988,0c0.302,0.052,0.604,0.104,0.906,0.156
				c-1.494-3.672-2.988-7.345-4.482-11.017c-1.919,3.541-4.386,6.148-7.954,8.055c-3.758,2.008-7.767,1.824-11.605,3.505
				c-3.78,1.655-4.531,7.026-2.691,10.261c2.007,3.529,3.303,7.027,7.661,8.29c3.946,1.143,7.802,0.484,11.495-1.174
				c8.45-3.793,13.103-13.89,17.296-21.616c9.163-16.885,14.472-38.93,6.5-57.321c-2.968-6.848-14.512-3.398-13.976,3.785
				c1.06,14.196,2.065,30.383-8.696,41.419c-8.125,8.333-25.795,8.924-33.75,0.027C143.904,116.582,133.332,127.228,139.758,134.414
				L139.758,134.414z"/>
		</g>
	</g>
	<g>
		<g>
			<path fill="#FFFFFF" d="M47.585,170.146c7.733,15.866,24.423,25.78,39.691,33.191c7.249,3.519,15.875-5.85,9.089-11.779
				c-5.512-4.816-8.344-9.63-11.152-16.359c-1.338-3.206-2.601-6.398-3.599-9.729c-1.172-3.908-0.335-7.218-0.802-11.108
				c-0.697-5.815-8.002-10.8-12.803-5.303c-2.34,2.679-3.038,5.292-2.947,8.803c0.126,4.823-0.264,9.605-0.244,14.419
				c0.035,8.626,3.54,14.537,10.959,18.807c7.303,4.203,15.413-5.873,9.089-11.779c-3.563-3.328-2.818-12.842-2.665-17.231
				c0.203-5.796,1.445-13.579,4.837-18.431c-4.659-1.262-9.317-2.524-13.976-3.785c-0.858,8.263-4.329,16.207-5.25,24.5
				c-0.814,7.324,10.928,10.403,13.976,3.785c1.879-4.081,3.134-8.313,4.642-12.531c1.446-4.043,4.013-7.877,6.358-11.441
				c5.414-8.23,12.407-14.649,19.827-21.01c7.356-6.305-3.305-16.865-10.607-10.607c-7.61,6.522-14.272,13.181-20.235,21.271
				c-2.993,4.061-5.54,8.411-7.734,12.949c-2.156,4.459-3.144,9.327-5.203,13.797c4.659,1.262,9.317,2.524,13.976,3.785
				c0.918-8.262,4.386-16.175,5.25-24.5c0.843-8.119-10.155-9.251-13.976-3.785c-5.254,7.515-6.635,18.839-6.946,27.737
				c-0.288,8.245,0.684,20.093,7.119,26.102c3.03-3.926,6.059-7.853,9.089-11.779c-3.496-2.012-3.519-3.267-3.535-7.274
				c-0.01-2.468,0.265-4.967,0.335-7.437c0.027-1.243,0.024-2.485-0.007-3.727c-0.052-3.758,0.597-2.461-1.525-0.032
				c-4.268-1.768-8.536-3.536-12.803-5.303c0.472,3.937-0.165,7.69,0.525,11.707c0.794,4.622,2.683,9.037,4.499,13.329
				c3.827,9.046,7.427,16.219,14.923,22.768c3.03-3.926,6.059-7.853,9.089-11.779c-13.012-6.316-27.694-14.236-34.309-27.809
				C56.3,153.88,43.366,161.488,47.585,170.146L47.585,170.146z"/>
		</g>
	</g>
	<g>
		<g>
			<path fill="#FFFFFF" d="M48.561,150.86c5.379-0.598,10.847-0.608,16.186-1.498c6.307-1.051,12.131-3.406,17.981-5.916
				c10.248-4.397,22.395-10.307,30.137-18.533c6.622-7.036-3.965-17.663-10.607-10.607c-6.519,6.926-16.955,11.487-25.451,15.448
				c-4.606,2.148-9.448,3.85-14.427,4.873c-4.455,0.916-9.283,0.728-13.819,1.232c-4.062,0.451-7.5,3.07-7.5,7.5
				C41.061,147.106,44.489,151.313,48.561,150.86L48.561,150.86z"/>
		</g>
	</g>
	<g>
		<g>
			<path fill="#FFFFFF" d="M104.811,133.86c0.494,0.037,0.988,0.074,1.481,0.111c-1.262-0.341-2.524-0.683-3.785-1.024
				c4.419,1.971,7.597,5.705,12.244,7.571c4.086,1.64,8.543,3.197,12.217,5.662c5.316,3.567,7.103,12.314,7.343,18.18
				c0.395,9.638,15.396,9.676,15,0c-0.427-10.432-3.779-20.903-11.331-28.377c-4.285-4.24-10.494-6.458-15.968-8.672
				c-6.22-2.515-10.218-7.928-17.201-8.451C95.157,118.136,95.227,133.141,104.811,133.86L104.811,133.86z"/>
		</g>
	</g>
	<g>
		<g>
			<path fill="#FFFFFF" d="M82.258,201.664c5.585,6.377,16.416,4.251,23.736,3.359c10.093-1.23,20.209-3.244,29.412-7.691
				c8.012-3.871,15.506-9.366,22.209-15.168c3.655-3.163,6.875-6.848,10.008-10.515c3.359-3.932,5.978-8.469,9.492-12.235
				c-3.926-3.03-7.853-6.059-11.779-9.089c-2.341,4.915-5.276,9.406-8.451,13.817c-3.228,4.486-6.213,10.058-10.126,13.915
				c4.178,1.103,8.357,2.206,12.535,3.309c-0.361-1.656,0.191-4.559,0.106-6.402c-0.129-2.814-0.268-5.633-0.268-8.45
				c0-4.397,1.157-8.336-1.094-12.439c-1.97-3.591-6.799-4.699-10.261-2.691c-5.127,2.974-7.968,9.501-11.075,14.323
				c-3.5,5.431-7.658,10.97-12.443,15.35c3.926,3.03,7.853,6.059,11.779,9.089c2.778-5.448,6.784-10.367,10.143-15.469
				c3.11-4.724,8.088-9.962,8.381-15.817c0.484-9.672-14.519-9.625-15,0c0.132-2.639-2.801,2.812-3.226,3.465
				c-1.732,2.661-3.458,5.326-5.217,7.969c-2.695,4.048-5.82,7.942-8.033,12.281c-3.886,7.62,5.394,14.934,11.779,9.089
				c3.981-3.644,7.431-8.201,10.693-12.482c2.216-2.909,4.162-6.002,6.136-9.077c0.871-1.357,1.777-2.69,2.616-4.066
				c0.205-0.336,1.906-2.206,1.036-1.702c-3.42-0.897-6.841-1.794-10.261-2.691c-1.222-2.228-0.681,0.242-0.774,1.465
				c-0.224,2.93-0.196,5.819,0,8.75c0.296,4.438-0.426,9.168,0.518,13.494c1.229,5.632,8.691,7.098,12.535,3.31
				c4.061-4.002,6.991-9.394,10.316-14.018c3.89-5.41,7.729-10.71,10.606-16.75c3.492-7.33-5.635-15.671-11.779-9.089
				c-5.174,5.542-9.124,12.064-14.307,17.655c-5.524,5.958-11.898,10.499-18.768,14.755c-6.461,4.003-13.089,6.029-20.492,7.595
				c-4.089,0.865-8.222,1.405-12.379,1.799c-1.623,0.154-3.248,0.278-4.875,0.375c-0.965,0.065-1.925,0.029-2.881-0.107
				c-1.168-0.372-1.148-0.312,0.06,0.179C86.48,183.767,75.914,194.42,82.258,201.664L82.258,201.664z"/>
		</g>
	</g>
	<g>
		<g>
			<path fill="#FFFFFF" d="M106.567,207.842c9.822,3.579,22.634-1.774,31.794-5.379c10.166-4,19.562-9.587,28.383-15.998
				c8.848-6.431,16.271-13.932,23-22.52c7.618-9.723,11.925-19.617,14.799-31.592c2.257-9.402-12.207-13.391-14.464-3.988
				c-2.273,9.472-5.227,17.304-11.093,25.161c-5.292,7.088-11.449,13.562-18.459,18.974c-7.167,5.532-15.07,10.362-23.251,14.227
				c-4.077,1.926-8.375,3.346-12.673,4.684c-4.19,1.304-9.728,3.541-14.048,1.966C101.445,190.059,97.555,204.559,106.567,207.842
				L106.567,207.842z"/>
		</g>
	</g>
	<g>
		<g>
			<path fill="#FFFFFF" d="M75.537,36.396c2.343-3.583,8.244-5.769,11.809-7.809c8.399-4.806,0.887-17.658-7.571-12.952
				c-4.795,2.668-9.866,4.758-14.75,7.25c-4.023,2.052-7.305,5.21-11,7.75c3.03,3.926,6.059,7.853,9.089,11.779
				c1.802-1.729,4.186-2.642,6.482-3.569c3.302-1.333,6.364-3.025,9.458-4.778c5.954-3.373,12.448-7.189,19.381-7.925
				c8.115-0.861,16.201-2.161,24.375-2.281c3.178-0.047,5.892,1.031,8.86,2.012c3.676,1.215,7.485,1.944,11.146,3.22
				c9.159,3.191,13.061-11.303,3.988-14.464c-7.098-2.473-14.891-5.09-22.388-5.725c-9.048-0.767-18.622,1.457-27.605,2.411
				c-8.502,0.902-16.352,4.804-23.744,8.905c-6.732,3.735-14.955,6.209-20.56,11.588c-6.061,5.817,1.977,16.668,9.089,11.779
				c3.718-2.556,7.066-5.511,11-7.75c4.757-2.708,9.959-4.584,14.75-7.25c-2.524-4.317-5.047-8.635-7.571-12.952
				c-6.199,3.547-13.174,7.048-17.191,13.191C57.274,36.947,70.267,44.455,75.537,36.396L75.537,36.396z"/>
		</g>
	</g>
	<g>
		<g>
			<path fill="#FFFFFF" d="M119.008,22.164c1.718,1.875,3.817,2.782,6.018,3.923c2.721,1.41,5.579,3.669,7.982,5.577
				c4.806,3.816,8.112,9.345,13.268,12.673c4.424,2.855,11.957-0.806,11.285-6.476c-0.929-7.839-7.788-12.166-13.604-16.652
				c-2.808-2.166-5.638-4.95-8.611-6.824c-4.025-2.537-7.78-2.127-12.279-1.506c-7.962,1.099-6.297,12.352,0,14.464
				c4.107,1.378,6.317,6.978,9.19,10.071c3.857,4.151,2.256,8.514,2.303,13.697c0.089,9.668,15.089,9.677,15,0
				c-0.039-4.279,0.561-8.209-0.018-12.494c-0.528-3.912-3.32-7.811-5.681-10.801c-4.96-6.281-8.922-12.293-16.807-14.938
				c0,4.821,0,9.643,0,14.464c0.94-0.13,1.461,0.956,2.703,2.071c1.617,1.453,3.582,2.59,5.362,3.829
				c2.902,2.021,6.626,4.437,8.368,7.579c-0.341-1.262-0.683-2.524-1.024-3.785c0.033,0.275,0.065,0.549,0.098,0.824
				c3.762-2.159,7.524-4.317,11.285-6.476c-1.474-0.951-2.552-2.791-3.732-4.077c-2.417-2.634-5.016-5.072-7.813-7.293
				c-2.257-1.792-4.644-3.389-7.034-4.995c-1.509-1.014-4.487-2.19-5.653-3.462C123.066,4.411,112.487,15.048,119.008,22.164
				L119.008,22.164z"/>
		</g>
	</g>
	<g>
		<g>
			<path fill="#FFFFFF" d="M91.537,59.075c-1.946-3.115-2.271-7.418-3.088-10.974c-0.611-2.66-1.134-8.221,0.088-10.705
				c-4.569-1.926-9.139-3.853-13.708-5.779c-0.623,3.425-1.208,6.837-1.534,10.306c-0.327,3.49,0.747,6.936,0.516,10.312
				c-0.662,9.66,14.343,9.596,15,0c0.159-2.326-0.476-4.674-0.625-7c-0.208-3.238,0.533-6.474,1.107-9.631
				c1.427-7.849-9.712-13.904-13.708-5.779c-2.772,5.636-3.033,13.001-2.131,19.154c0.855,5.831,1.977,12.617,5.131,17.667
				C83.696,74.828,96.677,67.304,91.537,59.075L91.537,59.075z"/>
		</g>
	</g>
	<g>
		<g>
			<path fill="#FFFFFF" d="M80.436,36.985c2.637-0.33,4.394-3.065,6.268-4.732c2.968-2.64,6.633-4.325,9.75-6.75
				c2.437-1.896-0.67-4.947-3.03-3.926c-5.09,2.201-12.816,10.01-11.524,16.198c0.48,2.3,3.429,2.22,4.569,0.597
				c1.54-2.192,1.579-5.108,3.359-7.244c-1.423-0.589-2.845-1.179-4.268-1.768c-0.52,3.978-1.539,7.865-1.936,11.875
				c-0.266,2.692-1.157,6.306-0.1,8.915c0.884,2.182,4.083,2.567,4.821,0c2.584-8.989,4.835-18.874,11.732-25.647
				c2.326-2.284-1.123-5.622-3.536-3.536c-3.07,2.655-4.64,6.613-6.516,10.131c-1.191,2.234,1.185,4.615,3.42,3.42
				c4.529-2.42,7.662-7.497,12.125-10.125c-1.224-0.941-2.448-1.882-3.672-2.823c-0.657,1.898-6.259,4.936-7.749,6.071
				c-2.091,1.592-3.927,3.218-5.499,5.332c-1.927,2.591,2.417,5.079,4.317,2.524c2.568-3.453,7.104-6.259,10.603-8.728
				c1.647-1.162,2.452-1.857,3.149-3.869c0.736-2.125-1.868-3.886-3.672-2.823c-4.448,2.62-7.638,7.727-12.125,10.125
				c1.14,1.14,2.28,2.28,3.42,3.42c1.643-3.082,3.055-6.802,5.734-9.119c-1.179-1.179-2.357-2.357-3.536-3.536
				c-7.556,7.42-10.183,17.994-13.018,27.853c1.607,0,3.214,0,4.821,0c-1.082-2.671,0.218-7.793,0.639-10.483
				c0.47-3.01,1.181-5.962,1.576-8.977c0.28-2.137-2.945-3.355-4.268-1.768c-2.089,2.507-2.361,5.723-4.141,8.256
				c1.523,0.199,3.046,0.398,4.569,0.597c-0.736-3.526,6.479-9.364,9.226-10.552c-1.01-1.309-2.02-2.618-3.03-3.926
				c-2.534,1.971-5.456,3.486-8.043,5.412c-1.066,0.794-2.057,1.649-3.05,2.532c-0.438,0.426-0.877,0.852-1.315,1.278
				c-1.8,1.383-1.825,1.648-0.075,0.796C77.28,32.38,77.242,37.384,80.436,36.985L80.436,36.985z"/>
		</g>
	</g>
	<g>
		<g>
			<path fill="#FFFFFF" d="M94.097,66.696c-0.413-1.252-0.793-2.166-1.377-3.347c-1.439,0.841-2.878,1.682-4.317,2.524
				c1.201,2.226,2.567,4.906,4.772,6.272c2.013,1.246,4.042-0.79,3.672-2.823c-0.402-2.212-1.791-4.179-2.625-6.25
				c-1.523,0.642-3.046,1.284-4.569,1.926c1.803,3.831,4.922,7.531,7.708,10.703c3.362,3.827,8.227,8.621,12.939,10.694
				c2.13,0.937,4.851-1.084,3.42-3.42c-1.814-2.962-4.897-5.484-7.266-8.006c-2.531-2.695-6.229-4.908-8.359-7.869
				c-1.865-2.591-6.205-0.099-4.317,2.524c4.263,5.925,11.742,9.534,15.625,15.875c1.14-1.14,2.28-2.28,3.42-3.42
				c-4.01-1.764-7.814-5.734-10.896-8.814c-2.957-2.955-6.161-6.971-7.957-10.789c-1.2-2.549-5.628-0.702-4.569,1.926
				c0.823,2.043,2.232,4.089,2.625,6.25c1.224-0.941,2.448-1.882,3.672-2.823c-1.278-0.791-2.296-3.214-2.978-4.478
				c-1.542-2.857-5.734-0.343-4.317,2.524c0.291,0.718,0.582,1.435,0.873,2.153C90.28,71.072,95.109,69.767,94.097,66.696
				L94.097,66.696z"/>
		</g>
	</g>
	<g>
		<g>
			<path fill="#FFFFFF" d="M97.799,73.894c5.254,2.249,13.652,4.791,18.899,1.25c1.957-1.321,1.368-4.737-1.262-4.659
				c-2.679,0.08-5.065,1.135-7.835,0.714c-1.91-0.29-4.245,1.66-2.823,3.672c1.869,2.646,2.686,6.546,5.397,8.397
				c0.906,0.618,2.294,0.376,3.03-0.391c0.838-0.874,1.01-1.625,1.158-2.805c0.534-1.424,1.314-2.697,2.342-3.82
				c0.276-0.333,0.552-0.667,0.828-1c1.332-0.971,1.25-1.289-0.247-0.954c-0.582-1.025-1.164-2.05-1.746-3.075
				c-0.457,2.001-1.996,4.077-2.639,6.097c-0.676,2.124,1.833,3.903,3.672,2.823c2.578-1.513,4.176-4.563,6.35-6.625
				c2.821-2.676,5.669-5.284,8.775-7.625c2.061-1.553,0.942-5.688-1.926-4.569c-3.624,1.414-8.768,4.492-11.228,7.518
				c-1.441,1.772-0.476,4.017,1.768,4.268c3.225,0.36,6.48-3.534,8.691-5.382c4.709-3.937,8.567-8.601,12.952-12.85
				c-1.309-1.01-2.618-2.02-3.926-3.03c-3.626,4.949-8.395,9.501-11.5,14.75c-1.297,2.192,1.256,4.635,3.42,3.42
				c5.88-3.298,11.167-9.494,15.756-14.391c1.86-1.985-0.69-5.71-3.03-3.926c-3.589,2.736-6.617,6.888-10.375,9.25
				c1.14,0.299,2.28,0.598,3.42,0.897c-0.936-1.963,1.955-7.499,2.216-9.738c0.373-3.199-4.631-3.163-5,0
				c-0.47,4.036-3.463,8.219-1.534,12.262c0.574,1.203,2.338,1.577,3.42,0.897c3.826-2.405,6.732-6.472,10.375-9.25
				c-1.01-1.309-2.02-2.618-3.03-3.926c-4.262,4.548-9.291,10.55-14.744,13.609c1.14,1.14,2.28,2.28,3.42,3.42
				c3.071-5.192,7.913-9.854,11.5-14.75c1.727-2.357-1.953-4.942-3.926-3.03c-3.154,3.057-5.976,6.426-9.151,9.473
				c-1.493,1.433-6.882,7.526-8.956,7.295c0.589,1.423,1.179,2.845,1.768,4.268c1.734-2.132,6.423-5.218,9.022-6.232
				c-0.642-1.523-1.284-3.046-1.926-4.569c-2.469,1.861-4.787,3.722-7.006,5.891c-1.778,1.738-3.671,3.307-5.375,5.125
				c-0.831,0.886-1.708,2.626-2.744,3.234c1.224,0.941,2.448,1.882,3.672,2.823c0.671-2.107,2.153-3.971,2.639-6.097
				c0.329-1.438-0.434-2.56-1.746-3.075c-2.065-0.811-3.37,0.886-4.618,2.24c-1.1,1.194-2.057,2.547-3,3.865
				c-0.396,0.553-1.635,4.08-1.328,3.76c1.01-0.13,2.02-0.261,3.03-0.391c-1.357-0.926-2.552-5.115-3.603-6.603
				c-0.941,1.224-1.882,2.448-2.823,3.672c3.345,0.508,5.888-0.438,9.165-0.536c-0.421-1.553-0.841-3.106-1.262-4.659
				c-3.4,2.295-10.407,0.224-13.851-1.25C97.393,68.322,94.843,72.628,97.799,73.894L97.799,73.894z"/>
		</g>
	</g>
	<g>
		<g>
			<path fill="#FFFFFF" d="M113.777,21.372c0.301,0.687,0.903,1.129,1.491,1.553c0.193,0.14,0.413,0.25,0.62,0.369
				c-0.339-0.195,0.353,0.517,0.437,0.618c1.105,1.339,2.815,1.781,4.486,1.823c3.226,0.08,3.218-4.92,0-5
				c-0.49-0.012-0.338-0.006-0.678-0.088c-0.409-0.152-0.371-0.104,0.114,0.145c-0.217-0.183-0.395-0.425-0.574-0.643
				c-0.381-0.461-0.741-0.852-1.261-1.173c-0.136-0.077-0.271-0.155-0.405-0.234c-0.535-0.311,0.044,0.004,0.089,0.106
				c-0.547-1.249-2.348-1.525-3.42-0.897C113.398,18.699,113.23,20.124,113.777,21.372L113.777,21.372z"/>
		</g>
	</g>
	<g>
		<g>
			<path fill="#FFFFFF" d="M98.561,28.61c1.637-0.016,3.025-0.723,4.336-1.647c1.529-1.077,3.049-2.141,4.676-3.069
				c2.799-1.597,0.281-5.918-2.524-4.317c-1.258,0.718-2.479,1.502-3.669,2.329c-0.772,0.536-1.844,1.695-2.819,1.704
				C95.338,23.642,95.335,28.642,98.561,28.61L98.561,28.61z"/>
		</g>
	</g>
	<g>
		<g>
			<path fill="#FFFFFF" d="M34.027,70.473c-3.534,4.587-5.718,10.235-7.819,15.59c-1.54,3.927-4.574,10.451-2.431,14.558
				c0.816,1.563,2.731,1.445,3.926,0.506c3.067-2.409,3.939-8.741,5.162-12.175c2.532-7.109,5.759-13.985,9.854-20.331
				c-1.439-0.841-2.878-1.682-4.317-2.524c-3.926,7.36-7.416,14.696-10.397,22.498c-2.876,7.527-5.469,13.929-1.728,21.525
				c0.963,1.956,4.076,1.424,4.569-0.597c1.031-4.228-0.66-8.908,0-13.25c-1.637-0.222-3.274-0.443-4.911-0.665
				c0.389,6.546,0.698,13.689,4.341,19.387c1.241,1.941,4.89,1.366,4.659-1.262c-0.422-4.789-2.858-9.08-3.714-13.79
				c-1.607,0.443-3.214,0.886-4.821,1.329c0.083,0.25,0.167,0.5,0.25,0.75c0.727,2.182,4.305,2.583,4.821,0
				c0.529-2.647,0.64-5.352,0.839-8.04c-1.667,0-3.333,0-5,0c0.257,4.626-0.866,9.675,1.091,14.012
				c1.089,2.413,4.572,1.021,4.659-1.262c0.22-5.785-0.139-11.415,0.5-17.25c0.351-3.203-4.653-3.169-5,0
				c-0.639,5.832-0.28,11.462-0.5,17.25c1.553-0.421,3.106-0.841,4.659-1.262c-1.424-3.155-0.22-8.101-0.409-11.488
				c-0.18-3.237-4.763-3.204-5,0c-0.165,2.228-0.221,4.513-0.661,6.71c1.607,0,3.214,0,4.821,0c-0.083-0.25-0.167-0.5-0.25-0.75
				c-1.029-3.088-5.394-1.822-4.821,1.329c0.768,4.224,3.159,8.183,3.536,12.46c1.553-0.421,3.106-0.841,4.659-1.262
				c-3.162-4.946-3.321-11.194-3.659-16.863c-0.158-2.657-4.466-3.593-4.911-0.665c-0.647,4.259,0.988,9.199,0,13.25
				c1.523-0.199,3.046-0.398,4.569-0.597c-3.398-6.9,1.059-14.686,3.617-21.266c2.401-6.174,5.401-11.886,8.508-17.711
				c1.522-2.854-2.571-5.229-4.317-2.524c-3.202,4.962-5.729,10.238-8.125,15.625c-1.105,2.486-1.951,5.108-2.863,7.669
				c-0.728,2.044-1.406,6.755-3.246,8.2c1.309,0.169,2.618,0.337,3.926,0.506c-0.605-1.159,0.999-4.758,1.328-5.93
				c0.606-2.157,1.403-4.255,2.22-6.338c1.743-4.444,3.775-9.035,6.702-12.833C40.313,70.443,35.966,67.958,34.027,70.473
				L34.027,70.473z"/>
		</g>
	</g>
	<g>
		<g>
			<path fill="#FFFFFF" d="M31.152,80.973c-1.462,2.925-3.844,10.524-1.625,13.524c1.075,1.453,3.304,1.763,4.317,0
				c4.396-7.646,11.311-12.814,18.478-17.853c-1.14-1.14-2.28-2.28-3.42-3.42c-0.897,1.217-5.061,6.28-6.591,6.137
				c-1.66-0.156-5.164,0.143-5.75,0.125c0.833,0.833,1.667,1.667,2.5,2.5c0-2.555,4.049-7.029,5.518-8.857
				c1.66-2.067-0.465-5.585-3.03-3.926c-2.892,1.869-4.956,5.551-6.842,8.332c-1.425,2.101-4.22,5.393-2.93,8.089
				c0.759,1.586,2.774,1.429,3.926,0.506c2.489-1.994,4.256-4.97,6.466-7.282c2.742-2.868,5.8-5.685,9.153-7.827
				c-1.14-1.14-2.28-2.28-3.42-3.42c-0.726,1.574-2.99,3.103-4.141,4.462c-1.413,1.667-3.198,3.271-4.109,5.288
				c-1.029,2.279,1.071,4.595,3.42,3.42c1.447-0.724,2.371-2.181,3.45-3.359c2.249-2.452,5.026-4.392,7.556-6.532
				c2.465-2.086-1.09-5.604-3.536-3.536c-2.17,1.836-4.423,3.557-6.5,5.5c-1.049,0.981-2.297,3.011-3.494,3.609
				c1.14,1.14,2.28,2.28,3.42,3.42c1.769-3.919,6.515-5.991,8.25-9.75c0.972-2.106-1.125-4.887-3.42-3.42
				c-3.247,2.074-6.126,4.703-8.904,7.357c-2.738,2.616-4.802,6.192-7.727,8.534c1.309,0.169,2.618,0.337,3.926,0.506
				c0.786,1.644-0.015,1.825,0.978,0.056c0.762-1.358,1.649-2.65,2.522-3.938c1.197-1.765,2.641-4.509,4.478-5.697
				c-1.01-1.309-2.02-2.618-3.03-3.926c-2.533,3.155-6.982,8.085-6.982,12.393c0,1.395,1.138,2.457,2.5,2.5
				c2.16,0.068,5.282,0.372,7.415-0.214c1.396-0.384,2.366-1.551,3.353-2.518c2.062-2.021,4.159-3.656,5.891-6.006
				c1.478-2.005-1.419-4.828-3.42-3.42c-7.868,5.532-15.442,11.247-20.272,19.647c1.439,0,2.878,0,4.317,0
				c-0.89-1.203,1.118-7.462,1.625-8.476C36.907,80.622,32.594,78.089,31.152,80.973L31.152,80.973z"/>
		</g>
	</g>
	<g>
		<g>
			<path fill="#FFFFFF" d="M46.652,72.872c1.896,3.831,5.053,5.603,9.228,6.062c3.727,0.41,6.197-3.951,3.948-6.842
				c-1.723-2.215-5.017-4.604-7.886-2.923c-3.759,2.202-0.079,7.072,2.231,8.6c2.688,1.778,7.567,0.59,8.483-2.739
				c1.189-4.321-4.667-5.833-7.721-5.669c-2.828,0.152-6.935,3.011-7.536,5.835c-0.812,3.817,4.092,4.837,6.786,4.915
				c0-1.667,0-3.333,0-5c-2.117-0.021-3.723,0.125-5.377,1.482c-0.983,0.806-0.983,2.729,0,3.536
				c3.044,2.498,6.129-0.122,9.69,0.076c1.887,0.105,3.812-0.49,5.688-0.594c2.668-0.147,5.679,0.979,8.375,1.25
				c2.744,0.276,3.033-3.362,1.262-4.659c-3.097-2.267-6.836-3.527-10.125-5.5c-1.727-1.036-4.541,0.712-3.672,2.823
				c1.631,3.965,5.104,6.782,9.246,7.871c3.148,0.828,4.348-3.777,1.329-4.821c-2.395-0.828-5.008-1.173-7.54-1.339
				c-2.85-0.188-3.36,4.22-0.665,4.911c3.723,0.954,8.183,2.678,11.262,4.893c3.779,2.718,4.312,6.977,5.742,11.111
				c2.677,7.742,0.824,16.072,0.911,24.085c0.021,1.985,0.176,4.524,2.113,5.659c1.5,0.879,3.838,0.163,4.584-1.425
				c3.274-6.96,1.068-16.126-0.912-23.148c-0.875-3.103-5.604-1.8-4.821,1.329c0.042,0.167,0.083,0.333,0.125,0.5
				c0.782,3.127,5.604,1.8,4.821-1.329c-0.042-0.167-0.083-0.333-0.125-0.5c-1.607,0.443-3.214,0.886-4.821,1.329
				c1.059,3.755,1.866,7.502,2.166,11.4c0.165,2.151,0.063,4.264-0.291,6.395c-0.437,1.119,0.287,1.319,2.174,0.6
				c-0.016-0.841-0.027-1.682-0.032-2.524c-0.072-6.622,1.704-13.707-0.251-20.174c-0.708-2.34-1.238-4.788-1.944-7.153
				c-0.699-2.34-1.576-6.167-3.518-7.884c-4.564-4.036-9.974-6.481-15.853-7.987c-0.222,1.637-0.443,3.274-0.665,4.911
				c2.108,0.139,4.217,0.471,6.21,1.161c0.443-1.607,0.886-3.214,1.329-4.821c-2.249-0.592-4.822-2.114-5.754-4.379
				c-1.224,0.941-2.448,1.882-3.672,2.823c3.289,1.973,7.028,3.233,10.125,5.5c0.421-1.553,0.841-3.106,1.262-4.659
				c-3.473-0.349-6.865-1.582-10.382-1.087c-0.595,0.084-10.76,1.06-9.834,1.819c0,1.179,0,2.357,0,3.536
				c0.614-0.006,1.228-0.012,1.842-0.018c3.231,0.033,3.215-4.907,0-5c-0.904-0.275-1.481,0.106-1.732,1.143
				c1.339-1.646,3.133-2.054,5.382-1.224c0.214-0.811,0.429-1.622,0.643-2.432c-0.954-0.202-1.909-0.403-2.863-0.605
				c-0.582,0.582-1.164,1.164-1.746,1.746c1.084-0.309,1.864,1.343,1.969,2.052c0.214-0.811,0.429-1.622,0.643-2.432
				c-2.11,2.215-4.865-1.704-5.511-3.01C49.539,67.458,45.227,69.993,46.652,72.872L46.652,72.872z"/>
		</g>
	</g>
	<g>
		<g>
			<path fill="#FFFFFF" d="M34.525,122.525c0.319,1.823,1.627,3.67,2.377,5.347c1.11,2.482,2.093,5.258,4.141,7.131
				c1.905,1.742,4.669,0.019,4.178-2.432c-0.595-2.975-2.847-5.991-4.307-8.628c-1.516-2.739-2.113-7.398-4.461-9.475
				c-2.187-1.935-5.134,0.463-3.926,3.03c2.195,4.664,5.255,9.635,8.516,13.631c2.8,3.432,5.672,8.458,9.978,10.143
				c2.061,0.807,3.955-1.931,2.823-3.672c-3.175-4.882-8.3-8.239-11.125-13.375c-0.72,1.254-1.439,2.508-2.159,3.762
				c1.623,0.103,4.109,3.894,5.264,4.951c2.118,1.938,4.546,3.569,6.975,5.083c2.497,1.556,4.885-1.881,3.03-3.926
				c-2.351-2.59-5.597-4.766-7.484-7.744c-1.14,1.14-2.28,2.28-3.42,3.42c3.898,2.993,7.99,7.214,12.5,9.25
				c1.761,0.795,4.539-0.536,3.672-2.823c-1.627-4.296-6.904-5.864-10.018-8.978c-2.282-2.282-5.817,1.254-3.536,3.536
				c1.131,1.131,2.199,2.101,3.506,3.016c1.265,0.886,4.655,2.248,5.226,3.756c1.224-0.941,2.448-1.882,3.672-2.823
				c-4.533-2.046-8.555-6.221-12.5-9.25c-2.037-1.564-4.692,1.415-3.42,3.42c2.153,3.397,5.584,5.801,8.266,8.756
				c1.01-1.309,2.02-2.618,3.03-3.926c-3.401-2.119-6.529-4.499-9.156-7.54c-1.637-1.894-3.097-3.017-5.606-3.177
				c-1.964-0.125-3.02,2.196-2.159,3.762c2.841,5.166,7.955,8.5,11.125,13.375c0.941-1.224,1.882-2.448,2.823-3.673
				c-3.092-1.21-6.512-7.157-8.343-9.673c-2.64-3.629-5.253-7.742-7.163-11.803c-1.309,1.01-2.618,2.02-3.926,3.03
				c1.012,0.895,2.076,5.504,2.949,7.15c1.404,2.646,3.941,5.787,4.533,8.747c1.393-0.811,2.786-1.622,4.178-2.432
				c-1.334-1.22-1.998-3.115-2.729-4.712c-0.7-1.528-2.212-3.9-2.503-5.56C38.792,118.024,33.974,119.372,34.525,122.525
				L34.525,122.525z"/>
		</g>
	</g>
	<g>
		<g>
			<path fill="#FFFFFF" d="M36.277,122.372c0.74,1.202,1.8,2.151,2.83,3.095c1.018,0.933,2.325,1.572,3.185,2.661
				c0.846,1.071,2.656,0.879,3.536,0c1.047-1.047,0.844-2.467,0-3.536c-1.457-1.843-3.977-2.701-5.234-4.744
				C38.908,117.108,34.582,119.618,36.277,122.372L36.277,122.372z"/>
		</g>
	</g>
	<g>
		<g>
			<path fill="#FFFFFF" d="M51.186,134.36c1.309,0.01,2.203,0.333,3.5,0.25c1.819-0.116,3.21-2.057,2.159-3.762
				c-0.858-1.392-2.057-1.803-3.397-2.647c-0.421,1.553-0.841,3.106-1.262,4.659c8.158,0.607,15.43-2.052,22.046-6.495
				c5.086-3.415,12.554-9.716,10.74-16.67c-0.682-2.614-3.949-2.134-4.821,0c-0.782,1.912-1.189,3.53-2.535,5.278
				c-1.437,1.865-1.665,4.053-2.963,6c-1.794,2.691,2.539,5.192,4.317,2.524c2.588-3.882,4.259-8.209,6.002-12.472
				c-1.607,0-3.214,0-4.821,0c0.625,2.394-2.985,6.618-4.381,8.231c-1.586,1.833-4.466,3.031-6.438,4.441
				c-4.657,3.329-11.48,4.585-17.146,4.163c-2.609-0.194-3.235,3.416-1.262,4.659c0.318,0.2,1.455,0.612,1.603,0.853
				c0.72-1.254,1.439-2.508,2.159-3.762c-1.072,0.069-2.397-0.241-3.5-0.25C47.961,129.334,47.963,134.334,51.186,134.36
				L51.186,134.36z"/>
		</g>
	</g>
	<g>
		<g>
			<path fill="#FFFFFF" d="M57.823,138.144c5.384-3.111,11.757-4.798,17.25-7.875c4.559-2.553,10.401-5.426,13.756-9.516
				c2.027-2.471-1.489-6.03-3.536-3.536c-3.447,4.201-9.638,6.994-14.319,9.616c-4.984,2.791-10.797,4.175-15.675,6.993
				C52.509,135.439,55.026,139.76,57.823,138.144L57.823,138.144z"/>
		</g>
	</g>
	<g>
		<g>
			<path fill="#FFFFFF" d="M86.097,163.196c-0.042-0.208-0.083-0.417-0.125-0.625c-0.548-2.741-5.287-2.134-4.911,0.665
				c0.951,7.083,2.306,13.912,6.242,19.993c2.185,3.375,7.034,10.29,11.826,8.23c0.995-0.428,1.442-1.853,1.149-2.823
				c-1.339-4.428-6.035-7.91-8.177-12.077c-3.196-6.218-5.715-12.235-4.505-19.408c-1.637-0.222-3.274-0.443-4.911-0.665
				c0.313,2.364-0.807,4.834,0.466,7.012c1.036,1.771,4.132,1.585,4.569-0.597c1.271-6.338,3.598-12.552,7.982-17.397
				c2.565-2.835,5.396-5.461,8.25-8c1.631-1.451,1.569-4.758-1.372-2.575c-1.075,0.798-1.952,1.876-3.032,2.648
				c-2.599,1.857-0.106,6.196,2.524,4.317c2.184-1.56,7.169-4.51,7.169-7.631c0-4.003-4.691-3.532-6.901-1.956
				c-9.969,7.105-17.039,17.288-19.44,29.264c1.523-0.199,3.046-0.398,4.569-0.597c-0.342-0.584,0.323-3.684,0.216-4.488
				c-0.334-2.52-4.396-3.713-4.911-0.665c-0.931,5.519-0.703,12.676,2.127,17.676c1.556,2.75,2.844,5.634,4.388,8.39
				c1.533,2.735,5.284,5.162,6.166,8.077c0.383-0.941,0.766-1.882,1.149-2.823c0.717-0.308-2.227-2.956-2.346-3.085
				c-1.713-1.862-3.091-3.956-4.339-6.145c-2.464-4.319-3.209-9.831-3.86-14.676c-1.637,0.222-3.274,0.443-4.911,0.665
				c0.042,0.208,0.083,0.417,0.125,0.625C81.907,167.685,86.726,166.344,86.097,163.196L86.097,163.196z"/>
		</g>
	</g>
	<g>
		<g>
			<path fill="#FFFFFF" d="M104.924,138.519c0.995,0.56,1.966,0.55,3.054,0.372c0.638-0.104,1.234-0.385,1.872-0.495
				c1.344-0.231,2.08-1.86,1.746-3.075c-0.388-1.409-1.734-1.977-3.075-1.746c-0.416,0.072-0.815,0.208-1.218,0.33
				c-0.216,0.065-0.433,0.119-0.654,0.165c0.401-0.043,0.467-0.056,0.199-0.039c-0.049-0.002-0.097-0.003-0.146-0.005
				c0.265-0.009,0.513,0.05,0.746,0.176c-1.188-0.668-2.724-0.292-3.42,0.897C103.347,136.259,103.738,137.852,104.924,138.519
				L104.924,138.519z"/>
		</g>
	</g>
	<g>
		<g>
			<path fill="#FFFFFF" d="M101.561,136.86c-1.105-0.038-2.162,0.379-3.059,0.997c-0.468,0.322-0.907,0.689-1.347,1.048
				c-0.068,0.056-0.625,0.481-0.139,0.116c-0.149,0.112-0.307,0.21-0.467,0.304c-1.171,0.692-1.588,2.24-0.897,3.42
				c0.686,1.17,2.247,1.591,3.42,0.897c0.7-0.414,1.318-0.962,1.949-1.472c-0.225,0.17-0.224,0.171,0.003,0.003
				c0.167-0.122,0.344-0.229,0.523-0.332c0.256-0.128,0.236-0.122-0.06,0.017c0.559-0.201-0.514-0.02,0.073,0
				c1.363,0.047,2.5-1.173,2.5-2.5C104.061,137.962,102.923,136.907,101.561,136.86L101.561,136.86z"/>
		</g>
	</g>
	<g>
		<g>
			<path fill="#FFFFFF" d="M80.65,168.9c1.793,4.483,5.587,8.789,9.649,11.369c1.844,1.171,4.306-0.755,3.672-2.823
				c-0.387-1.265-0.787-2.543-1.377-3.722c-1.309-2.618-5.212-0.745-4.569,1.926c0.978,4.066,4.434,5.434,7.051,8.412
				c1.1,1.252,2.13,2.427,3.51,3.387c0.696,0.484,4.176,2.144,4.439,3.075c0.214-0.811,0.429-1.622,0.643-2.432
				c-0.732-0.716-1.464-1.431-2.197-2.147c-1.393,0.811-2.786,1.622-4.178,2.432c2.22,2.115,6.929,8.577,10.792,4.715
				c3.842-3.842-4.76-9.968-7.131-11.875c-1.01,1.309-2.02,2.618-3.03,3.926c4.624,3.253,8.333,5.003,14.027,5.654
				c3.945,0.451,12.226,0.042,14.555-3.935c1.879-3.208-0.301-6.391-3.696-6.503c-2.446-0.08-5.572,1.883-8.044,2.372
				c-3.008,0.595-7.144,1.961-9.813-0.264c-2.457-2.049-6.015,1.468-3.536,3.536c4.807,4.008,10.659,2.345,16.27,1.236
				c1.551-0.307,2.873-0.884,4.324-1.491c-1.294-0.906-2.625-1.006-3.991-0.298c-1.483,0.393-2.994,0.567-4.533,0.524
				c-5.092-0.038-9.048-2.338-13.041-5.147c-2.314-1.628-5.239,2.149-3.03,3.926c0.932,0.749,6.67,5.467,6.488,5.907
				c0.582-0.582,1.164-1.164,1.746-1.746c-1.773,0.602-3.784-3.081-4.824-4.072c-1.891-1.801-4.652,0.02-4.178,2.432
				c0.997,5.076,6.317,7.742,10.553,4.353c0.671-0.537,0.864-1.649,0.643-2.432c-0.6-2.127-2.469-3.269-4.274-4.369
				c-1.949-1.188-3.491-2.584-4.961-4.3c-1.469-1.715-5.234-3.999-5.765-6.206c-1.523,0.642-3.046,1.284-4.569,1.926
				c0.277,0.553,0.697,1.952,0.873,2.528c1.224-0.941,2.448-1.882,3.672-2.823c-2.787-1.77-6.128-5.323-7.351-8.381
				C84.29,164.615,79.452,165.904,80.65,168.9L80.65,168.9z"/>
		</g>
	</g>
	<g>
		<g>
			<path fill="#FFFFFF" d="M122.329,187.253c0.507-0.583,0.913-1.215,1.328-1.863c0.279-0.435,0.937-0.779,1.318-1.133
				c0.463-0.43,0.77-1.085,1.27-1.464c0.746-0.566,1.348-1.117,1.849-1.921c1.709-2.746-2.618-5.254-4.317-2.524
				c-0.251,0.403-0.78,0.675-1.133,0.983c-0.54,0.471-0.923,1.129-1.454,1.622c-0.422,0.392-0.884,0.707-1.272,1.139
				c-0.42,0.467-0.787,1.236-1.125,1.625c-0.893,1.028-1.014,2.522,0,3.536C119.706,188.166,121.434,188.282,122.329,187.253
				L122.329,187.253z"/>
		</g>
	</g>
	<g>
		<g>
			<path fill="#FFFFFF" d="M123.525,140.071c-0.715,4.551,2.296,7.864,4.76,11.421c4.268,6.161,4.191,13.149,1.365,19.954
				c-1.237,2.977,3.603,4.262,4.821,1.329c2.164-5.209,2.585-10.571,1.75-16.079c-0.428-2.821-2.05-5.415-3.619-7.727
				c-1.249-1.84-4.628-5.201-4.256-7.569C128.842,138.247,124.025,136.893,123.525,140.071L123.525,140.071z"/>
		</g>
	</g>
	<g>
		<g>
			<path fill="#FFFFFF" d="M138.436,98.985c0.343,8.679,0.639,19.844,6.482,26.893c1.413,1.705,4.33,0.294,4.268-1.768
				c-0.201-6.647-4.919-13.058-4.5-19.875c-1.637,0.222-3.274,0.443-4.911,0.665c2.767,7.094,2.51,18.697,9.899,23.119
				c1.95,1.167,4.159-0.738,3.673-2.823c-1.572-6.739-5.719-12.518-6.452-19.554c-0.729-6.999-0.653-14.005,2.95-20.269
				c1.61-2.8-2.711-5.317-4.317-2.524c-3.822,6.645-4.267,13.719-3.763,21.199c0.554,8.226,4.943,14.685,6.761,22.477
				c1.224-0.941,2.448-1.882,3.673-2.823c-2.853-1.708-4.111-7.054-5.013-9.927c-1.057-3.367-1.303-6.909-2.588-10.204
				c-1.017-2.606-4.731-2.257-4.911,0.665c-0.179,2.911,0.805,5.904,1.466,8.717c0.818,3.48,2.926,7.616,3.034,11.158
				c1.423-0.589,2.845-1.179,4.268-1.768c-4.846-5.846-4.735-16.205-5.018-23.357C143.309,95.772,138.308,95.76,138.436,98.985
				L138.436,98.985z"/>
		</g>
	</g>
	<g>
		<g>
			<path fill="#FFFFFF" d="M152.811,80.235c3.494-0.148,6.535-0.98,9.637-2.591c-0.841-1.439-1.682-2.878-2.524-4.317
				c-4.395,2.925-8.783,6.138-12.779,9.59c-2.683,2.317-4.798,7.274-4.12,10.733c0.365,1.863,2.939,2.387,4.178,1.103
				c2.574-2.668,4.282-5.781,7.078-8.359c2.145-1.978,4.872-3.144,7.534-4.223c1.759-0.713,4.325-2.348,6.245-2.31
				c-0.222-1.637-0.443-3.274-0.665-4.911c-2.964,0.975-5.641,2.281-8.625,3.234c-1.991,0.636-3.277,0.541-4.494,2.415
				c-0.83,1.279-0.064,3.385,1.494,3.672c2.816,0.519,6.788-0.433,9.454-1.375c3.019-1.066,1.719-5.898-1.329-4.821
				c-1.448,0.511-5.262,1.657-6.796,1.375c0.498,1.224,0.996,2.448,1.494,3.672c-0.582,0.354-0.455,0.403,0.381,0.149
				c1.198-0.196,2.325-0.639,3.523-0.856c2.31-0.42,4.023-1.919,6.227-2.644c2.663-0.876,2.216-4.854-0.665-4.911
				c-4.099-0.08-9.574,3.113-13.179,5.013c-2.385,1.257-4.4,3.253-6.386,5.031c-2.014,1.803-2.983,4.4-4.828,6.312
				c1.393,0.368,2.786,0.735,4.178,1.103c-0.549-2.801,3.891-6.87,5.675-8.188c2.947-2.178,5.878-4.461,8.926-6.489
				c2.679-1.783,0.35-5.81-2.524-4.317c-2.332,1.211-4.484,1.798-7.113,1.909C149.599,75.371,149.586,80.371,152.811,80.235
				L152.811,80.235z"/>
		</g>
	</g>
	<g>
		<g>
			<path fill="#FFFFFF" d="M163.424,78.269c2.641,1.981,7.187,2.699,10.347,3.752c0-1.607,0-3.214,0-4.821
				c-2.457,0.546-5.079-0.873-7.625-0.5c-1.794,0.263-2.48,3.061-1.103,4.178c4.605,3.737,11.395,1.773,16.131,5.266
				c0.841-1.439,1.682-2.878,2.524-4.317c-1.878-0.976-3.508-1.86-5.637-1.966c-1.207-0.06-1.992,0.832-2.411,1.835
				c-0.049,0.118-0.099,0.237-0.148,0.355c-0.462,1.108,0.336,2.2,1.149,2.823c3.399,2.609,8.674,3.421,10.359,8.057
				c1.814,4.992,2.312,10.124,3.016,15.344c0.362,2.683,4.094,2.062,4.821,0c1.497-4.245,0.635-9.163,0.427-13.572
				c-0.123-2.617,0.434-6.791-2.326-8.251c-1.079-0.571-2.116-0.352-3.03,0.391c-2.075,1.689-1.517,4.438-1.336,6.807
				c0.409,5.35,0.625,9.834-0.182,15.171c-0.507,3.353-1.052,8.118-3.982,10.397c-2.693,2.095-5.612,4.563-8.125,6.875
				c-2.378,2.187,1.168,5.714,3.536,3.536c4.822-4.436,11.237-7.574,12.721-14.681c0.808-3.868,1.5-7.937,1.765-11.876
				c0.13-1.936-2.163-11.633-0.861-12.693c-1.01,0.13-2.02,0.261-3.03,0.391c-0.421-0.464-0.542-0.35-0.363,0.341
				c0.039,1.788,0.213,3.587,0.297,5.375c0.159,3.378,0.805,7.235-0.333,10.46c1.607,0,3.214,0,4.821,0
				c-0.811-6.011-1.082-12.904-4.377-18.222c-2.69-4.341-7.587-5.32-11.295-8.166c0.383,0.941,0.766,1.882,1.149,2.823
				c0.049-0.118,0.099-0.237,0.148-0.355c-0.804,0.612-1.607,1.224-2.411,1.835c1.103,0.276,2.141,0.704,3.113,1.284
				c2.917,1.515,5.078-2.434,2.524-4.317c-2.092-1.543-3.857-2.516-6.512-2.73c-2.103-0.17-6.824-0.307-8.607-1.754
				c-0.368,1.393-0.735,2.786-1.103,4.178c2.47-0.362,5.034,1.076,7.625,0.5c2.554-0.568,2.213-4.084,0-4.821
				c-2.505-0.835-8.111-2.467-9.153-3.248C163.366,72.015,160.878,76.359,163.424,78.269L163.424,78.269z"/>
		</g>
	</g>
	<g>
		<g>
			<path fill="#FFFFFF" d="M182.561,127.985c3.224,0,3.224-5,0-5C179.337,122.985,179.337,127.985,182.561,127.985L182.561,127.985z
				"/>
		</g>
	</g>
	<g>
		<g>
			<path fill="#FFFFFF" d="M148.293,122.253c2.719,3.444,5.73,8.712,10.103,10.143c2.579,0.844,3.911-2.404,2.432-4.178
				c-1.327-1.593-3.059-3.254-4.625-4.625c-0.811,1.393-1.622,2.786-2.432,4.178c3.356,0.71,5.95,3.464,9.43,3.824
				c4.874,0.504,9.488-0.797,14.149-2.074c3.106-0.851,1.786-5.675-1.329-4.821c-3.942,1.08-10.048,3.605-13.933,1.361
				c-2.077-1.199-4.615-2.61-6.988-3.111c-2.274-0.481-4.446,2.417-2.432,4.178c1.538,1.346,3.322,3.061,4.625,4.625
				c0.811-1.393,1.622-2.786,2.432-4.178c-2.88-0.942-6.102-6.583-7.897-8.857C149.832,116.188,146.319,119.752,148.293,122.253
				L148.293,122.253z"/>
		</g>
	</g>
	<g>
		<g>
			<path fill="#FFFFFF" d="M198.097,48.9c0.264-1.71,0.198-3.174-0.21-4.863c-0.204-0.847-0.581-1.666-0.915-2.466
				c-0.141-0.396-0.324-0.771-0.548-1.126c-0.26-0.868-0.484-0.857-0.67,0.032c-0.589,0.244-1.179,0.488-1.768,0.732
				c-0.855-0.063,0.873,1.578,1.127,1.883c1.018,1.224,2.226,2.195,3.132,3.526c1.825,2.681,3.242,5.338,4.657,8.255
				c1.309-1.01,2.618-2.02,3.926-3.03c-2.804-2.673-5.407-5.612-8-8.5c-2.158-2.404-5.683,1.144-3.536,3.536
				c2.593,2.888,5.196,5.827,8,8.5c2.129,2.03,5.146-0.516,3.926-3.03c-1.575-3.244-3.22-6.144-5.25-9.125
				c-0.752-1.104-1.746-2.024-2.641-3.006c-0.966-1.06-1.887-2.533-3.111-3.32c-2.16-1.389-4.657-0.403-5.191,2.137
				c-0.635,3.016,2.736,5.386,2.249,8.536C192.788,50.724,197.605,52.079,198.097,48.9L198.097,48.9z"/>
		</g>
	</g>
	<g>
		<g>
			<path fill="#FFFFFF" d="M150.418,40.467c-2.008,2.549-2.649,6.167-3.487,9.244c-0.673,2.47-1.926,5.626-0.654,8.036
				c0.708,1.342,2.911,1.724,3.926,0.506c2.59-3.106,3.485-7.303,4.934-11.021c2.345-6.018,6.779-10.96,10.207-16.36
				c-1.523-0.642-3.046-1.284-4.569-1.926c-1.446,3.511-4.278,6.677-6.003,10.107c-1.109,2.205-3.083,5.638-2.372,8.223
				c1.993,7.247,8.62-1.264,10.194-4.028c1.598-2.806-2.722-5.324-4.317-2.524c-0.265,0.466-0.531,0.932-0.796,1.398
				c-2.185,1.486-2.151,2.488,0.102,3.005c0.645-2.296,1.958-4.499,3.1-6.583c1.542-2.814,3.691-5.299,4.914-8.268
				c1.121-2.722-3.119-4.212-4.569-1.926c-2.714,4.276-5.847,8.261-8.438,12.618c-2.46,4.136-2.871,10.093-5.921,13.751
				c1.309,0.169,2.618,0.337,3.926,0.506c-0.29-0.549,1.345-4.868,1.557-5.646c0.422-1.549,0.814-4.321,1.802-5.575
				C155.926,41.5,152.413,37.936,150.418,40.467L150.418,40.467z"/>
		</g>
	</g>
	<g>
		<g>
			<path fill="#FFFFFF" d="M155.93,34.092c0.11-0.045,0.219-0.09,0.329-0.134c-2.432-0.643-4.865-1.286-7.297-1.929
				c6.011,5.309,13.067,19.181,22.715,18.002c3.296-0.403,6.367-1.987,7.232-5.506c1.913-7.782-7.108-12.547-9.241-19.409
				c-3.673,2.823-7.345,5.647-11.017,8.47c4.894,3.068,9.214,9.686,12.424,14.382c3.462,5.066,7.859,10.14,10.51,15.677
				c0.897-3.42,1.794-6.841,2.691-10.261c-0.179,0.081-0.358,0.161-0.537,0.242c1.262-0.341,2.524-0.683,3.785-1.024
				c-0.3-0.03-3.799-1.405-4.95-1.841c-3.332-1.265-6.416-3.135-9.353-5.127c-2.524,4.317-5.047,8.635-7.571,12.952
				c8.908,3.805,16.489,9.971,25.228,14.071c4.443,2.085,10.328,2.355,13.17-2.496c2.765-4.719,0.201-9.714-2.09-14.008
				c-2.54-4.762-5.62-9.246-8.517-13.792c-3.193-5.012-5.882-10.079-9.871-14.54c-3.698-4.136-8.55-7.606-13.247-10.503
				c-4.088-2.521-8.85-3.73-12.978-6.059c1.238,2.159,2.476,4.317,3.715,6.476c-0.017-0.228-0.034-0.457-0.051-0.685
				c-1.238,2.159-2.476,4.317-3.715,6.476c-0.25,0.127-0.5,0.254-0.75,0.381c-1.262-0.341-2.524-0.683-3.785-1.024
				c2.953,1.349,5.844,3.008,8.766,4.453c7.251,3.588,15.857-5.884,9.089-11.779c-3.682-3.207-7.075-5.272-11.393-7.548
				c-8.549-4.506-16.13,8.44-7.571,12.952c3.121,1.645,5.721,2.906,8.357,5.202c3.03-3.926,6.059-7.853,9.089-11.779
				c-6.559-3.245-12.012-7.259-19.372-3.81c-2.202,1.032-3.893,4.075-3.715,6.476c0.471,6.342,4.906,7.76,10.014,9.909
				c5.429,2.284,10.208,5.294,14.608,9.204c4.809,4.273,7.478,10.033,10.887,15.385c1.709,2.683,3.438,5.351,5.093,8.068
				c0.823,1.352,1.617,2.727,2.393,4.107c0.223,0.419,0.447,0.837,0.67,1.256c0.723,1.905,0.945,1.705,0.664-0.598
				c1.149-1.494,2.298-2.988,3.447-4.482c-0.168,0.1-0.335,0.199-0.503,0.299c1.262-0.341,2.524-0.683,3.785-1.024
				c1.281-0.043-0.835-0.615-1.348-0.916c-2.478-1.452-4.994-2.824-7.444-4.329c-4.906-3.012-9.748-6.029-15.056-8.296
				c-8.755-3.74-15.749,7.405-7.571,12.952c6.637,4.502,18.059,11.419,26.196,7.75c3.94-1.777,4.305-6.89,2.691-10.261
				c-3.128-6.532-8.35-12.625-12.501-18.556c-4.175-5.965-9.584-12.979-15.814-16.885c-5.521-3.461-12.955,2.236-11.017,8.47
				c0.997,3.206,2.609,6.044,4.374,8.882c0.954,1.533,2.04,2.975,3.132,4.41c0.671,0.907,1.374,1.788,2.11,2.643
				c1.106,1.23,1.277,1.474,0.515,0.732c-0.252-1.926-0.504-3.853-0.756-5.779c-0.045,0.182-0.09,0.364-0.134,0.546
				c2.411-1.835,4.821-3.671,7.232-5.506c1.72-0.21,1.14,0.427-0.562-1.1c-1.569-1.407-2.997-3.027-4.436-4.564
				c-2.42-2.584-4.451-5.596-7.11-7.945c-1.85-1.634-4.792-2.952-7.297-1.929c-0.11,0.045-0.219,0.09-0.329,0.134
				c-3.781,1.545-6.42,4.928-5.238,9.226C147.691,32.442,152.138,35.641,155.93,34.092L155.93,34.092z"/>
		</g>
	</g>
	<g>
		<g>
			<path fill="#FFFFFF" d="M170.346,13.009c-0.995-0.675-2.142-0.994-3.292-1.256c-1.996-0.456-3.985-0.295-5.779,0.756
				c-1.677,0.982-2.931,2.608-3.447,4.482c-1.066,3.876,1.276,8.226,5.238,9.226c0.467,0.118,0.928,0.258,1.375,0.438
				c-0.597-0.252-1.194-0.504-1.792-0.756c0.259,0.11,0.509,0.23,0.735,0.399c-0.506-0.391-1.012-0.782-1.518-1.173
				c0.064,0.054,0.119,0.107,0.173,0.171c-0.391-0.506-0.782-1.012-1.173-1.518c0.028,0.037,0.051,0.077,0.068,0.119
				c-0.252-0.597-0.504-1.194-0.756-1.792c0.006,0.02,0.012,0.041,0.018,0.061c-0.089-0.665-0.179-1.329-0.268-1.994
				c0.002,0.021,0.004,0.041,0.006,0.062c0.089,0.665,0.179,1.329,0.268,1.994c0.356,1.271,0.999,2.374,1.929,3.31
				c1.4,1.4,3.322,2.197,5.303,2.197c1.981,0,3.903-0.797,5.303-2.197c1.287-1.287,2.382-3.423,2.197-5.303
				c-0.198-2.009-0.187-2.118-1.048-3.909c-0.307-0.639-0.834-1.154-1.29-1.696c-0.538-0.641-1.377-1.215-2.169-1.594
				c-1.081-0.517-2.208-0.99-3.375-1.284c-1.329,4.821-2.658,9.643-3.988,14.464c0.352,0.08,0.707,0.131,1.05,0.25
				c-0.597-0.252-1.194-0.504-1.792-0.756c0.162,0.071,0.303,0.15,0.45,0.25c1.611,1.093,3.95,1.259,5.779,0.756
				c1.875-0.516,3.5-1.77,4.482-3.447c1.015-1.732,1.289-3.843,0.756-5.779C173.249,15.514,172.004,14.134,170.346,13.009
				L170.346,13.009z"/>
		</g>
	</g>
	<g>
		<g>
			<path fill="#FFFFFF" d="M168.317,30.717c-1.889-0.369-0.774-0.901,0.737,0.399c0.915,0.787,1.788,1.621,2.784,2.345
				c-2.595-1.887,0.599,1.061,1.1,1.651c0.959,1.13,2.392,1.981,3.712,2.599c6.237,2.915,12.128-1.782,11.017-8.47
				c-0.439-2.643-2.515-5.312-4.304-7.185c-5.787-6.056-16.82,2.075-11.779,9.089c2.032,2.827,3.676,5.833,6.391,8.096
				c3.014,2.512,4.094,4.97,7.299,7.345c4.361,3.232,11.882-1.071,11.285-6.476c-0.5-4.53-2.753-9.12-6.072-12.303
				c-5.947-5.705-16.882,1.94-11.779,9.089c2.979,4.173,5.471,8.625,8.673,12.643c2.552,3.202,7.961,2.646,10.607,0
				c3.132-3.132,2.545-7.412,0-10.607c-0.961-1.206-1.714-2.684-2.355-4.079c-0.971-2.112-2.638-3.659-3.972-5.528
				c-3.926,3.03-7.853,6.059-11.779,9.089c0.986,0.946,2.019,4.783,1.678,1.697c3.762-2.159,7.524-4.317,11.285-6.476
				c-0.216-0.16-0.432-0.32-0.648-0.48c0.897,0.897,1.794,1.794,2.691,2.691c-3.078-4.475-7.182-7.859-10.352-12.27
				c-3.926,3.03-7.853,6.059-11.779,9.089c0.452,0.473,0.662,1.865,0.446,0.565c3.673-2.823,7.345-5.647,11.017-8.47
				c-1.391-0.651-4.044-3.649-4.56-4.249c-1.63-1.895-4.893-3.776-7.356-4.257C162.857,14.41,158.828,28.866,168.317,30.717
				L168.317,30.717z"/>
		</g>
	</g>
	<g>
		<g>
			<path fill="#FFFFFF" d="M183.186,57.11c9.673,0,9.673-15,0-15C173.513,42.11,173.513,57.11,183.186,57.11L183.186,57.11z"/>
		</g>
	</g>
	<g>
		<g>
			<path fill="#FFFFFF" d="M204.293,51.616c-0.125-0.375-0.25-0.75-0.375-1.125c-4.569,1.926-9.139,3.853-13.708,5.779
				c2.76,4.649,3.291,11.432,4.454,16.684c1.043,4.71,2.296,13.099,6.344,16.334c5.316,4.248,12.078,1.487,12.803-5.303
				c0.559-5.234-1.511-10.308-1.625-15.5c-0.095-4.317-1.651-10.307-3.899-14.035c-4.302-7.135-16.424-2.486-13.708,5.779
				c2.636,8.02,6.618,16.682,6.982,25.209c0.177,4.152,0.762,8.119,0.5,12.297c-0.101,1.611-0.594,3.139-0.75,4.75
				c-0.259,2.683,0.151,5.492-0.232,8.131c-0.586,4.043,0.934,8.042,5.238,9.226c3.566,0.981,8.638-1.185,9.226-5.238
				c0.705-4.857,0.726-9.739,1.268-14.619c0.49-4.411,0.324-8.567-0.184-12.967c-1.245-10.799-4.193-20.458-7.584-30.777
				c-4.569,1.926-9.139,3.853-13.708,5.779c1.226,2.033,1.832,5.613,1.882,7.886c0.104,4.737,2.104,9.3,1.594,14.078
				c4.268-1.768,8.536-3.536,12.803-5.303c0.71,1.405,0.853,1.591,0.429,0.56c-0.616-1.639-1.05-3.38-1.548-5.058
				c-0.86-2.9-1.512-5.84-2.149-8.795c-1.2-5.561-2.24-11.73-5.184-16.689c-4.259-7.173-16.453-2.456-13.708,5.779
				c0.125,0.375,0.25,0.75,0.375,1.125C192.872,64.733,207.361,60.819,204.293,51.616L204.293,51.616z"/>
		</g>
	</g>
	<g>
		<g>
			<path fill="#FFFFFF" d="M192.829,60.604c0.97,3.352,1.656,6.68,3.677,9.602c1.275,1.694,1.549,2.035,0.823,1.023
				c0.354,0.843,0.71,1.685,1.069,2.526c0.892,2.097,3.242,2.968,5.17,3.712c2.273,0.878,5.737-0.079,7.297-1.929
				c2.638-3.128,3.169-6.337,2.304-10.297c-2.089-9.56-16.066-5.385-14.464,3.988c1.271,7.437,2.188,14.617,2.857,22.131
				c0.851,9.555,15.858,9.638,15,0c-0.787-8.844-1.897-17.368-3.393-26.119c-4.821,1.329-9.643,2.658-14.464,3.988
				c0.518-1.432,1.036-2.865,1.554-4.297c2.432-0.643,4.865-1.286,7.297-1.929c-0.229-0.089-0.458-0.177-0.688-0.266
				c1.494,1.149,2.988,2.298,4.482,3.447c-1.098-2.581-3.047-6.081-4.056-9.568C204.609,47.343,190.133,51.291,192.829,60.604
				L192.829,60.604z"/>
		</g>
	</g>
	<g>
		<g>
			<path fill="#FFFFFF" d="M194.579,114.241c-1.643,4.834-3.228,9.692-5.369,14.333c-2.356,5.106-5.21,9.95-7.309,15.18
				c-2.732,6.806-3.688,18.356,6.91,18.356c10.473,0,13.339-12.483,16.769-20.058c2.09-4.616,4.594-8.563,5.947-13.537
				c1.503-5.526,2.059-11.081,2.409-16.78c0.594-9.665-14.41-9.608-15,0c-0.42,6.839-1.199,13.921-4.744,19.929
				c-1.662,2.818-2.892,5.795-4.113,8.827c-0.478,1.188-1.042,2.314-1.619,3.458c-0.487,0.993-0.937,2.002-1.352,3.028
				c-0.382,0.945-0.479,1.078-0.291,0.401c1.329,0,2.658,0,3.988,0c5.038,1.044,3.198,7.772,4.133,4.246
				c0.193-0.728,0.471-1.439,0.73-2.145c1.268-3.464,3.174-6.737,4.852-10.013c3.496-6.827,6.06-13.99,8.523-21.237
				C212.165,109.045,197.674,105.136,194.579,114.241L194.579,114.241z"/>
		</g>
	</g>
	<g>
		<g>
			<path fill="#FFFFFF" d="M125.901,199.836c4.636,2.908,10.784,3.674,16.16,4.274c3.029,0.338,6.504-1.423,9.461-1.935
				c3.463-0.599,6.822-2.761,9.852-4.432c5.167-2.85,9.867-6.404,14.172-10.438c4.837-4.533,8.032-10.152,11.491-15.785
				c-4.569-1.926-9.139-3.853-13.708-5.779c-0.746,2.237-2.835,4.194-3.625,6.625c-1.957,6.023,5.614,12.243,11.017,8.47
				c3.984-2.782,6.579-6.987,9.113-11.066c2.528-4.07,5.208-8.059,7.703-12.125c-4.569-1.926-9.139-3.853-13.708-5.779
				c1.58-2.433,1.582-2.572,0.006-0.417c-0.465,1.095-0.926,2.192-1.381,3.292c-0.679,1.629-1.853,3.797-2.946,5.191
				c-2.52,3.214-3.149,7.457,0,10.607c2.629,2.629,8.079,3.223,10.607,0c2.149-2.741,3.696-5.608,5.454-8.596
				c0.19-0.322,2.977-5.045,0.562-2.045c1.056-1.312,1.653-2.445,2.163-4.044c2.65-8.303-9.352-12.878-13.708-5.779
				c-1.859,3.029-3.838,6.143-5.875,9.125c-1.62,2.372-3.199,7.036-5.559,8.684c3.673,2.823,7.345,5.647,11.017,8.47
				c-0.458,1.41,0.073-0.263,0.418-0.649c1.596-1.778,2.461-3.739,3.207-5.976c2.763-8.289-9.368-12.846-13.708-5.779
				c-1.134,1.847-2.406,3.585-3.625,5.375c-1.134,1.666-1.662,3.675-3.064,5.16c-3.109,3.295-6.849,6.162-10.621,8.65
				c-6.428,4.24-16.025,8.316-23.304,3.75C125.251,181.728,117.73,194.711,125.901,199.836L125.901,199.836z"/>
		</g>
	</g>
	<g>
		<g>
			<path fill="#FFFFFF" d="M59.954,176.604c1.955,5.752,4.238,11.394,6.882,16.865c2.884,5.967,8.186,8.672,13.994,11.152
				c2.624,1.12,4.961,2.576,7.737,3.346c3.407,0.946,7.147,1.473,10.641,2.031c6.711,1.072,13.351,0.562,20.103,0.487
				c-0.665-4.911-1.329-9.821-1.994-14.732c-1.488,0.583-2.4,0.676-3.978,0.477c1.262,0.341,2.524,0.683,3.785,1.024
				c-0.218-0.165-0.435-0.33-0.653-0.495c-3.265-2.478-8.382-0.518-10.261,2.691c-2.254,3.847-0.559,7.795,2.691,10.261
				c3.292,2.498,8.784,1.926,12.404,0.506c7.492-2.938,7.014-14.833-1.994-14.732c-4.856,0.054-9.698,0.409-14.553,0.156
				c-4.548-0.237-10.794-1.054-14.787-3.257c-3.747-2.068-7.987-2.504-10.183-6.486c-2.289-4.151-3.851-8.811-5.37-13.282
				C71.323,163.511,56.832,167.42,59.954,176.604L59.954,176.604z"/>
		</g>
	</g>
	<g>
		<g>
			<path fill="#FFFFFF" d="M109.383,207.664c3.176,3.712,8.6,4.174,13.178,3.806c5.304-0.426,10.068-0.7,15.244-2.127
				c9.689-2.671,19.671-6.558,26.31-14.429c6.194-7.344-4.362-18.011-10.607-10.607c-4.249,5.038-10.464,8.03-16.755,9.803
				c-2.808,0.791-5.9,2.014-8.816,2.126c-1.833,0.07-3.535-0.012-5.375,0.234c-1.143,0.166-2.289,0.187-3.438,0.062
				c-1.294-0.319-1.006-0.144,0.866,0.525C113.691,189.695,103.132,200.357,109.383,207.664L109.383,207.664z"/>
		</g>
	</g>
	<g>
		<g>
			<path fill="#FFFFFF" d="M49.239,160.682c-5.426-5.295-8.674-11.979-13.75-17.5c-3.557-3.869-11.637-2.277-12.535,3.309
				c-0.848,5.278,2.018,10.027,4.35,14.623c2.79,5.499,5.668,10.95,8.531,16.406c3.926-3.03,7.853-6.059,11.779-9.089
				c-6.234-5.997-12.556-14.189-14.571-22.691c-2.231-9.41-16.694-5.418-14.464,3.988c2.594,10.942,10.399,21.585,18.429,29.31
				c6.257,6.019,15.722-1.575,11.779-9.089c-2.028-3.865-3.996-7.745-6-11.625c-1.88-3.639-4.363-7.33-5.455-11.298
				c0,1.329,0,2.658,0,3.988c0.029-0.178,0.057-0.357,0.086-0.535c-4.178,1.103-8.357,2.206-12.535,3.31
				c2.302,2.504,3.798,5.594,5.817,8.317c2.405,3.243,5.043,6.363,7.933,9.183C45.557,178.046,56.171,167.447,49.239,160.682
				L49.239,160.682z"/>
		</g>
	</g>
	<g>
		<g>
			<path fill="#FFFFFF" d="M16.061,147.86c-0.636,7.655,5.225,14.222,10.137,19.433c5.106,5.417,10.593,10.232,15.81,15.529
				c5.642,5.728,12.261,9.126,19.268,12.89c7.466,4.01,14.422,8.453,22.542,11.131c9.213,3.039,13.129-11.449,3.988-14.464
				c-6.185-2.04-11.75-5.382-17.321-8.693c-5.743-3.413-11.758-5.713-16.619-10.378c-4.082-3.917-8.414-7.578-12.431-11.537
				c-2.924-2.882-10.742-9.466-10.373-13.91C31.863,138.215,16.856,138.292,16.061,147.86L16.061,147.86z"/>
		</g>
	</g>
	<g>
		<g>
			<path fill="#FFFFFF" d="M16.311,140.36c0,0.083,0,0.167,0,0.25c4.659-1.262,9.317-2.524,13.976-3.785
				c-3.743-6.383-5.346-14.098-7.596-21.104c-2.487-7.746-2.556-15.833-2.88-23.86c-0.343-8.482-12.212-10.184-14.732-1.994
				c-1.523,4.951-1.176,10.492-1.356,15.621c-0.221,6.292,0.53,12.091,1.856,18.242c2.378,11.033,9.936,20.222,12,31.25
				c4.178-2.432,8.357-4.865,12.535-7.297c-1.311-1.19-1.734-3.244-2.452-4.857c-1.245-2.796-2.591-5.504-3.713-8.365
				c-2.145-5.471-2.666-11.492-4.406-17.094c-2.176-7.005-12.428-7.307-14.464,0c-2.873,10.31,3.631,23.35,8.506,32.029
				c4.317-2.524,8.635-5.047,12.952-7.571c-3.731-6.185-5.638-12.458-7.239-19.458c-0.805-3.52-1.61-7.023-1.862-10.631
				c-0.19-2.716,0.135-5.256-0.268-7.994c-1.19-8.089-12.201-6.142-14.464,0c-1.649,4.475-0.462,10.005,0.027,14.588
				c0.545,5.114,1.012,10.454,3.479,15.067c4.563,8.532,17.513,0.955,12.952-7.571c-1.337-2.501-1.301-6.28-1.601-9.09
				c-0.28-2.63-1.19-6.843-0.393-9.006c-4.821,0-9.643,0-14.464,0c0.34,2.311-0.214,5.249,0.09,7.748
				c0.516,4.244,1.473,8.402,2.426,12.564c1.74,7.607,4.324,14.655,8.365,21.354c4.994,8.278,17.697,0.878,12.952-7.571
				c-1.939-3.452-3.886-7.041-5.141-10.804c-0.779-2.337-2.539-7.207-1.853-9.666c-4.821,0-9.643,0-14.464,0
				c2.101,6.762,2.935,13.715,5.703,20.281c2.253,5.345,4.335,12.669,8.726,16.653c5.778,5.243,13.911,0.05,12.535-7.297
				c-1.779-9.506-8.057-17.409-10.844-26.531c-1.495-4.896-2.686-10.276-2.612-15.399c0.069-4.782-0.447-10.649,0.956-15.207
				c-4.911-0.665-9.821-1.329-14.732-1.994c0.357,8.843,0.815,17.543,2.934,26.192c2.136,8.717,5.038,18.581,9.59,26.344
				c3.775,6.438,13.976,3.69,13.976-3.785c0-0.083,0-0.167,0-0.25C31.311,130.687,16.311,130.687,16.311,140.36L16.311,140.36z"/>
		</g>
	</g>
	<g>
		<g>
			<path fill="#FFFFFF" d="M15.561,108.235c-0.172-8.842,2.002-17.812,4.461-26.304c1.333-4.602,3.314-8.525,5.7-12.656
				c2.568-4.447,4.571-8.595,8.142-12.362c6.65-7.014-3.94-17.639-10.607-10.607c-7.334,7.736-13.073,18.228-16.634,28.249
				c-3.719,10.467-6.279,22.588-6.063,33.679C0.749,117.895,15.75,117.914,15.561,108.235L15.561,108.235z"/>
		</g>
	</g>
	<g>
		<g>
			<path fill="#FFFFFF" d="M25.383,57.307c-3.442,3.374-6.44,7.393-9.208,11.326c-2.782,3.953-6.315,7.393-6.739,12.227
				c-0.358,4.079,3.682,7.5,7.5,7.5c4.359,0,7.143-3.429,7.5-7.5c0.008-0.088,0.015-0.176,0.023-0.264
				c-0.341,1.262-0.683,2.524-1.024,3.785c-1.408,2.202,1.782-2.491,2.069-2.898c1.232-1.741,2.435-3.508,3.622-5.28
				c1.97-2.942,4.337-5.815,6.863-8.29C42.907,61.135,32.293,50.535,25.383,57.307L25.383,57.307z"/>
		</g>
	</g>
	<g>
		<g>
			<path fill="#FFFFFF" d="M37.793,53.104c0.108-0.745,0.27-1.458,0.481-2.181c0.117-0.372,0.248-0.739,0.394-1.101
				c-0.373,0.885-0.377,0.947-0.014,0.186c0.18-0.343,0.372-0.68,0.576-1.01c-1.953,1.577-2.384,2.027-1.294,1.351
				c0.683-0.422,1.325-0.901,1.928-1.436c1.28-1-1.521,0.907-0.018,0.173c3.672-1.794,4.64-6.934,2.691-10.261
				c-2.179-3.719-6.588-4.485-10.261-2.691c-0.285,0.117-0.551,0.268-0.797,0.453c0.767-0.508-3.831,2.558-1.113,0.811
				c-1.747,1.123-2.956,2.266-4.087,4.031c-1.448,2.258-2.562,5.024-2.949,7.688c-0.587,4.042,0.934,8.042,5.238,9.226
				C32.133,59.323,37.205,57.157,37.793,53.104L37.793,53.104z"/>
		</g>
	</g>
	<g>
		<g>
			<path fill="#FFFFFF" d="M42.668,46.854c0.717-1.771,4.476-4.608,6.526-5.944c3.952-2.575,7.956-5.092,11.963-7.583
				c3.603-2.24,7.19-4.733,10.506-7.379c2.692-2.149,5.785-3.372,8.684-5.111c8.282-4.969,0.745-17.942-7.571-12.952
				c-7.087,4.252-15.854,10.355-23.669,15.277c-8.218,5.177-17.091,10.292-20.903,19.705c-1.537,3.796,1.642,8.237,5.238,9.226
				C37.731,53.272,41.135,50.64,42.668,46.854L42.668,46.854z"/>
		</g>
	</g>
	<g>
		<g>
			<path fill="#FFFFFF" d="M87.686,22.235c0.232-1.796,1.186-3.155,2.785-3.899c-1.262,0.341-2.524,0.683-3.785,1.024
				c2.652-0.305,5.182-0.466,7.681-1.471c2.491-1.002,3.991-1.88,6.663-1.464c2.818,0.439,5.407,0.494,8.237,0.113
				c3.363-0.453,6.143-0.18,9.512,0.239c4.892,0.607,10.027-0.362,15,0.33c4.962,0.691,10.298,2.047,14.914,3.985
				c3.777,1.586,8.247-1.679,9.226-5.238c1.19-4.327-1.472-7.645-5.238-9.226c-6.392-2.683-13.451-3.87-20.302-4.693
				c-3.585-0.431-7.334-0.325-10.942-0.325c-4.3,0-8.459-0.746-12.775-0.04c-3.555,0.581-6.565-0.345-10.1-0.585
				C94.364,0.7,90.738,3.894,86.686,4.36c-8.92,1.027-12.981,9.998-14,17.875c-0.526,4.065,3.81,7.5,7.5,7.5
				C84.671,29.735,87.161,26.289,87.686,22.235L87.686,22.235z"/>
		</g>
	</g>
	<g>
		<g>
			<path fill="#FFFFFF" d="M207.527,186.372c1.365,2.472,3.184,4.783,5.156,6.8c1.537,1.572,3.887,4.023,6.252,3.938
				c1.673-0.06,2.776-1.545,2.411-3.165c-0.779-3.449-4.053-5.975-6.977-7.643c-2.3-1.311-6.942-2.833-8.682,0.138
				c-1.307,2.231,0.57,4.463,2.136,5.916c2.479,2.301,5.393,4.607,8.351,6.224c2.634,1.441,4.742-1.78,3.03-3.926
				c-2.306-2.889-5.746-4.56-8.689-6.7c-2.025-1.473-5.379-3.288-7.596-1.237c-0.865,0.8-0.875,2.041-0.391,3.03
				c1.263,2.58,3.928,2.735,5.953,4.381c0.589-1.423,1.179-2.845,1.768-4.268c-1.006,0-2.414-0.533-3.107-1.268
				c-1.01,1.309-2.02,2.618-3.03,3.926c4.408,2.379,8.784,4.754,13.188,7.125c0.199-1.523,0.398-3.046,0.597-4.569
				c-0.649,0.097-2.227-1.353-2.949-1.81c-1.589-1.007-3.249-1.436-4.682-2.734c-2.383-2.159-5.929,1.366-3.536,3.536
				c0.862,0.781,1.809,1.466,2.756,2.141c1.036,0.738,2.483,0.941,3.494,1.734c1.888,1.482,3.84,2.316,6.245,1.955
				c2.186-0.328,2.369-3.615,0.597-4.569c-4.403-2.371-8.779-4.746-13.188-7.125c-2.514-1.357-4.995,1.841-3.03,3.926
				c1.575,1.672,4.363,2.732,6.643,2.732c2.018,0,3.529-2.837,1.768-4.268c-1.384-1.124-4.402-1.797-5.172-3.369
				c-0.13,1.01-0.261,2.02-0.391,3.03c0.07-0.064,0.139-0.129,0.209-0.193c-0.589,0.244-1.179,0.488-1.768,0.732
				c1.713,0.021,3.355,1.685,4.686,2.602c2.167,1.493,4.424,2.712,6.088,4.797c1.01-1.309,2.02-2.618,3.03-3.926
				c-2.741-1.499-5.43-3.671-7.734-5.809c-0.128-0.128-0.256-0.257-0.383-0.385c-0.624-0.84-1.074-0.282-1.35,1.673
				c0.767-0.057,1.983,0.571,2.616,0.877c1.796,0.868,4.216,2.605,4.679,4.654c0.804-1.055,1.607-2.11,2.411-3.165
				c1.119-0.04-1.009-0.94-1.406-1.276c-0.679-0.575-1.309-1.196-1.93-1.831c-1.48-1.513-2.735-3.307-3.755-5.155
				C210.286,181.026,205.968,183.547,207.527,186.372L207.527,186.372z"/>
		</g>
	</g>
	<g>
		<g>
			<path fill="#FFFFFF" d="M207.51,188.702c-1.254-0.676-6.053-3.638-2.012-3.904c-0.421-1.553-0.841-3.106-1.262-4.659
				c-1.852,1.111-3.718,2.549-3.024,5.073c0.795,2.889,4.291,4.633,7.085,3.864c7.258-1.997,2.998-12.176-2.588-10.314
				c-0.995,0.332-1.93,1.273-1.835,2.411c0.051,0.614,0.127,1.192,0.277,1.79c1.393-0.811,2.786-1.622,4.178-2.432
				c0.089,0.159,0.179,0.319,0.268,0.478c-0.582,1.025-1.164,2.05-1.746,3.075c1.364-0.482,4.739,3.661,6.261,4.56
				c2.248,1.329,4.534-1.253,3.42-3.42c-0.861-1.677-2.128-2.868-3.453-4.193c-1.01,1.309-2.02,2.618-3.03,3.926
				c3.971,2.417,5.564,7.823,9.812,10.25c1.809,1.033,4.412-0.679,3.673-2.823c-0.979-2.84-3.563-5.321-5.518-7.541
				c-1.01,1.309-2.02,2.618-3.03,3.926c5.889,3.541,8.824,8.513,15.97,9.631c6.376,0.997,12.694-2.014,18.178-4.756
				c2.884-1.442,0.351-5.755-2.524-4.317c-4.951,2.475-10.237,4.891-15.949,3.998c-5.109-0.799-8.786-6.247-13.153-8.873
				c-2.531-1.522-4.854,1.855-3.03,3.926c1.318,1.497,3.567,3.404,4.232,5.334c1.224-0.941,2.448-1.882,3.673-2.823
				c-4.224-2.413-5.644-7.713-9.812-10.25c-2.45-1.491-5.03,1.926-3.03,3.926c1.023,1.023,1.995,1.864,2.672,3.182
				c1.14-1.14,2.28-2.28,3.42-3.42c-3.098-1.831-5.936-6.542-10.114-5.065c-1.216,0.43-2.218,1.721-1.746,3.075
				c0.24,0.688,0.533,1.185,1.018,1.728c1.733,1.943,4.758-0.116,4.178-2.432c-0.033-0.153-0.065-0.307-0.098-0.46
				c-0.612,0.804-1.224,1.607-1.835,2.411c0.498-0.166-3.058,2.541-0.278,0.873c2.035-1.221,1.306-4.827-1.262-4.659
				c-3.023,0.199-6.225,0.932-7.14,4.259c-1.07,3.889,3.814,7.446,6.628,8.962C207.825,194.548,210.349,190.231,207.51,188.702
				L207.51,188.702z"/>
		</g>
	</g>
	<g>
		<g>
			<path fill="#FFFFFF" d="M211.777,195.247c3.571,4.685,8.045,7.421,13.432,9.586c5.265,2.116,12.188,3.686,17.551,1.373
				c3.355-1.447,3.237-6.392-0.396-7.262c-3.313-0.793-6.742-0.877-10.061-1.722c-4.083-1.04-7.604-3.396-10.918-5.896
				c-2.035-1.535-4.723,1.41-3.42,3.42c4.249,6.558,19.41,13.099,26.114,6.693c0.747-0.714,1.037-2.151,0.391-3.03
				c-1.512-2.057-4.425-2.538-6.846-2.613c-3.275-0.102-3.144,4.688,0,5c4.933,0.49,9.112-1.051,13.727-2.589
				c-0.642-1.523-1.284-3.046-1.926-4.569c-2.16,0.982-5.332,3.864-6.272,6.084c-0.694,1.638,0.068,3.821,2.159,3.762
				c2.336-0.066,4.911-1.99,5.971-4.051c1.124-2.185-1.169-4.717-3.42-3.42c-2.193,1.263-6.361,3.996-6.301,6.846
				c0.09,4.219,5.259,2.82,7.602,1.973c2.483-0.898,2.316-5.197-0.665-4.911c-2.611,0.251-5.317,0.913-7.852,1.589
				c-2.534,0.676-2.227,4.014,0,4.821c0.838,0.304,1.335,0.351,2.227,0.277c3.19-0.263,3.215-5.265,0-5
				c-0.299-0.033-0.599-0.065-0.898-0.098c0,1.607,0,3.214,0,4.821c2.032-0.542,4.444-1.211,6.523-1.411
				c-0.222-1.637-0.443-3.274-0.665-4.911c-0.339,0.122-0.677,0.245-1.016,0.367c-1.838,0.134-2.063,1.321-0.677,3.561
				c1.276-1.276,2.67-2.703,4.244-3.609c-1.14-1.14-2.28-2.28-3.42-3.42c-0.273,0.531-1.194,1.561-1.654,1.574
				c0.72,1.254,1.439,2.508,2.159,3.762c0.576-1.36,3.116-3.671,4.478-4.291c2.589-1.177,0.74-5.458-1.926-4.569
				c-4.167,1.389-7.921,2.856-12.398,2.411c0,1.667,0,3.333,0,5c1.634,0.051,3.86,1.947,2.529,0.137
				c0.13-1.01,0.261-2.02,0.391-3.03c-3.966,3.789-15.774-1.842-18.261-5.682c-1.14,1.14-2.28,2.28-3.42,3.42
				c2.687,2.027,5.495,3.976,8.66,5.19c2.307,0.885,4.573,1.538,7,2c0.799,0.152,5.882,0.329,6.131,0.789c0-0.841,0-1.682,0-2.524
				c-1.527,3.376-11.747-0.229-14.114-1.086c-4.079-1.478-7.783-3.797-10.443-7.289
				C214.168,190.195,209.822,192.681,211.777,195.247L211.777,195.247z"/>
		</g>
	</g>
	<g>
		<g>
			<path fill="#FFFFFF" d="M251.146,192.012c-0.062,0.021-0.125,0.042-0.188,0.062c1.025,1.025,2.05,2.05,3.075,3.075
				c0.452-2.489,1.902-5.711-1.024-7.198c0.169,1.309,0.337,2.618,0.506,3.926c0.083-0.083,0.167-0.167,0.25-0.25
				c2.289-2.289-1.179-5.724-3.536-3.536c-0.758,0.704-1.202,1.222-1.766,2.068c-1.631,2.446,1.914,4.903,3.926,3.03
				c2.469-2.299,4.713-4.671,6.641-7.443c1.159-1.667,1.942-3.572,2.754-5.42c0.571-1.299,1.171-4.685,2.795-2.327
				c2.74,3.979-0.899,10.029-3.443,12.993c-2.845,3.313-7.284,6.728-11.366,8.331c-2.93,1.151-1.807,5.809,1.329,4.821
				c2.359-0.743,3.337-3.369,4.525-5.336c1.953-3.233,3.369-6.768,5.406-9.938c1.543-2.4-1.985-5.088-3.926-3.03
				c-2.41,2.556-5.896,7.776-4.659,11.437c0.365,1.08,1.246,1.811,2.411,1.835c6.033,0.126,9.738-11.711,11.239-16.215
				c0.845-2.535-2.423-3.975-4.178-2.432c-2.209,1.941-7.932,10.211-11.403,8.796c0.582,1.025,1.164,2.05,1.746,3.075
				c0.803-3.408,7.314-5.142,9.971-6.558c1.126-0.6,1.848-1.639,2.589-2.627c0.282-0.547,0.436-1.131,0.463-1.753
				c0.493-2.704-0.622,0.335-1.848,0.335c-0.804-0.612-1.607-1.224-2.411-1.835c0.021,0.078,0.042,0.156,0.062,0.233
				c-0.594,3.151,4.224,4.495,4.821,1.329c0.208-1.105,0.26-1.808-0.062-2.892c-0.319-1.069-1.281-1.835-2.411-1.835
				c-1.303,0-2.294,0.456-2.971,1.613c-1.29,2.202,0.627,2.623-2.978,4.166c-3.74,1.6-9.016,4.123-10.046,8.495
				c-0.341,1.449,0.447,2.545,1.746,3.075c6.35,2.591,12.485-6.758,16.267-10.081c-1.393-0.811-2.786-1.622-4.178-2.432
				c-0.686,2.059-1.525,4.003-2.459,5.963c-0.375,0.787-3.052,6.6-3.959,6.581c0.804,0.612,1.607,1.224,2.411,1.835
				c-0.516-1.527,2.328-5.463,3.373-6.572c-1.309-1.01-2.618-2.02-3.926-3.03c-1.165,1.812-2.032,3.755-2.992,5.68
				c-0.553,1.108-3.161,7.048-3.951,7.296c0.443,1.607,0.886,3.214,1.329,4.821c10.141-3.983,21.888-14.916,18.6-26.861
				c-1.086-3.945-5.948-7.82-9.532-4.236c-1.958,1.958-2.815,5.078-3.95,7.525c-1.68,3.622-4.485,6.403-7.362,9.082
				c1.309,1.01,2.618,2.02,3.926,3.03c0.328-0.352,0.656-0.704,0.984-1.057c-1.179-1.179-2.357-2.357-3.536-3.536
				c-0.083,0.083-0.167,0.167-0.25,0.25c-1.089,1.089-0.945,3.189,0.506,3.926c-0.235-0.298-0.469-0.596-0.704-0.894
				c-0.28,0.793-0.471,1.609-0.57,2.445c-0.317,1.743,1.118,3.728,3.075,3.075c0.062-0.021,0.125-0.042,0.188-0.062
				C255.519,195.819,254.214,190.989,251.146,192.012L251.146,192.012z"/>
		</g>
	</g>
	<g>
		<g>
			<path fill="#FFFFFF" d="M102.891,27.44c-0.262,0.225,1.32-0.33,1.209-0.295c-0.811-1.393-1.622-2.786-2.432-4.178
				c-0.167,0.167-0.333,0.333-0.5,0.5c-1.769,1.769,0.014,4.85,2.432,4.178c2.003-0.556,3.774-1.184,5.875-1.512
				c2.043-0.319,4.363-0.018,6.312-0.613c3.074-0.939,1.763-5.766-1.329-4.821c0.352-0.107-1.447,0.02-1.812,0.078
				c-1.211,0.193-2.412,0.243-3.625,0.413c-2.399,0.336-4.466,1-6.75,1.634c0.811,1.393,1.622,2.786,2.432,4.178
				c0.167-0.167,0.333-0.333,0.5-0.5c1.722-1.722-0.003-4.962-2.432-4.178c-1.32,0.425-2.339,0.657-3.416,1.58
				C96.904,26.007,100.457,29.527,102.891,27.44L102.891,27.44z"/>
		</g>
	</g>
	<g>
		<g>
			<path fill="#FFFFFF" d="M93.788,19.825c-0.016-0.003-0.031-0.005-0.047-0.008c0.368,1.393,0.735,2.786,1.103,4.178
				c0.016-0.018,0.031-0.036,0.047-0.055c0.886-1.034,1.018-2.517,0-3.536c-0.908-0.908-2.648-1.035-3.536,0
				c-0.016,0.018-0.031,0.036-0.047,0.055c-0.593,0.692-0.894,1.52-0.643,2.432c0.213,0.773,0.913,1.607,1.746,1.746
				c0.016,0.003,0.031,0.005,0.047,0.008c1.343,0.224,2.686-0.332,3.075-1.746C95.867,21.69,95.134,20.049,93.788,19.825
				L93.788,19.825z"/>
		</g>
	</g>
</g>
<g id="Layer_2">
	<g>
		<path fill="#FFFFFF" d="M217.175,80.222c-2.697-23.376-15.469-44.456-33.674-59.078c-13.807-11.09-30.252-17.413-47.722-19.71
			c-7.793-1.025-15.633-1.133-23.461-0.651c-0.797-0.14-1.545-0.258-2.15-0.365c-2.966-0.527-6.01-0.464-9.003-0.301
			C94.127,0.5,87.202,2.586,80.607,4.931c-0.631,0.224-1.251,0.479-1.878,0.714c-0.507,0.103-1.014,0.206-1.52,0.31
			c-0.403,0.201-0.823,0.368-1.259,0.497c-0.805,0.495-1.655,0.916-2.515,1.252c-0.114,0.138-0.256,0.265-0.45,0.368
			c-0.365,0.193-0.721,0.345-1.108,0.485c-0.168,0.061-0.329,0.085-0.483,0.083c0.002,0.003,0.003,0.007,0.005,0.011
			c-9.46,4.266-18.4,9.693-26.721,15.87C24.064,39.821,7.649,61.261,1.992,86.61c-11.349,50.852,27.555,98.329,72.25,116.864
			c22.325,9.258,47.278,12.576,70.488,4.545c23.596-8.165,41.68-27.352,53.918-48.517
			C212.558,135.445,220.392,108.113,217.175,80.222z M102.94,1.626c-3.877,0.451-7.744,1.015-11.596,1.661
			C95.176,2.352,99.056,1.764,102.94,1.626z M198.597,155.882c-12.778,23.954-33.399,44.691-60.021,52.201
			c-25.545,7.206-53.243,0.107-76-12.188c-23.991-12.962-43.936-33.318-54.137-58.797c-10.803-26.984-7.357-56.117,8.068-80.479
			c13.745-21.708,35.904-38.385,59.739-48.2c13.002-2.696,26.297-4.918,39.506-5.436c0.999,0.26,1.996,0.545,2.988,0.885
			c0.212,0.072,0.355-0.144,0.327-0.327c-0.056-0.362-0.065-0.535-0.106-0.649c16.269-0.287,32.36,2.172,47.561,9.719
			c22.698,11.269,39.904,32.021,46.695,56.405C221.439,98.532,212.551,129.724,198.597,155.882z"/>
	</g>
	<g>
		<path fill="#FFFFFF" d="M54.311,81.165c-13.56,0.493-24.554,10.073-22.015,24.543c2.554,14.556,15.213,25.772,30.315,22.353
			c15.692-3.553,22.127-20.262,17.459-34.527C75.03,78.138,59.662,78.776,46.311,80.497c-1.603,0.207-1.307,2.417,0.296,2.187
			c10.696-1.539,23.293-3.26,29.871,7.413c7.949,12.898,1.83,29.634-11.736,35.233c-12.989,5.361-25.391-3.799-29.564-15.966
			c-4.974-14.503,5.153-25.64,19.133-27.31C54.865,81.989,54.898,81.144,54.311,81.165L54.311,81.165z"/>
	</g>
	<g>
		<path fill="#FFFFFF" d="M134.365,40.146c-2.898-12.777-16.683-20.098-28.872-15.189c-0.296,0.119-0.498,0.317-0.626,0.547
			c-9.979,4.233-18.233,15.031-16.359,26.245c2.315,13.848,14.697,24.326,28.613,18.758
			C129.759,65.451,137.433,53.669,134.365,40.146z M119.296,67.353c-13.108,7.799-25.594-1.415-28.822-14.795
			c-2.393-9.919,4.461-19.856,12.858-24.936c1.838-2.056,6.272-2.81,8.392-2.629c1.22,0.104,2.34,0.362,3.374,0.743
			c7.657,0.522,14.337,5.729,17.072,13.67C136.306,51.418,129.261,61.423,119.296,67.353z"/>
	</g>
	<g>
		<path fill="#FFFFFF" d="M105.699,138.703c-10.604,4.215-21.471,15.7-18.397,27.837c2.678,10.57,15.616,19.994,26.462,18.423
			c10.211-1.479,21.349-15.17,19.345-25.611c-2.809-14.639-16.44-23.086-30.798-22.215c-1.261,0.077-1.244,1.841,0,1.945
			c5.707,0.479,10.911,0.797,16.187,3.257c5.745,2.678,9.979,8.795,12.004,14.62c3.683,10.596-6.392,22.731-16.091,25.671
			c-10.354,3.138-21.924-7.689-24.99-16.675c-3.816-11.182,8.274-21.443,16.603-26.481
			C106.419,139.235,106.156,138.522,105.699,138.703L105.699,138.703z"/>
	</g>
	<g>
		<path fill="#FFFFFF" d="M166.954,82.59c-11.826-1.879-21.568,7.787-21.934,19.364c-0.335,10.589,8.208,24.527,19.462,25.665
			c11.497,1.163,24.543-7.784,25.941-19.675c0.711-6.051-0.925-13.003-5.023-17.674c-5.07-5.78-13.085-7.89-20.327-9.61
			c-1.267-0.301-1.671,1.43-0.523,1.898c5.177,2.115,10.771,2.844,15.624,5.791c5.217,3.169,7.733,9.721,8.297,15.517
			c1.148,11.787-10.485,21.107-21.357,21.763c-10.914,0.659-17.439-10.877-19.53-19.966c-2.703-11.751,7.345-23.054,19.227-22.016
			C167.414,83.702,167.554,82.686,166.954,82.59L166.954,82.59z"/>
	</g>
	<g>
		<path fill="#FFFFFF" d="M268.792,172.858c-4.726-5.882-10.087-0.158-12.604,4.638c-3.237,6.167-6.519,10.298-13.248,13.019
			c-6.972,2.82-13.624,1.946-19.468-2.667c-5.777-4.561-13.868-13.947-22.291-8.987c-2.215,1.304-6.119,3.586-4.993,6.882
			c0.465,1.362,1.227,2.492,2.153,3.482c1.27,0.883,2.567,1.91,3.529,3.112c0.217,0.145,0.427,0.301,0.635,0.459
			c0.16,0.122,0.299,0.262,0.451,0.39c6.862,4.139,13.548,8.693,20.921,11.75c9.164,3.799,17.733,3.846,27.002,0.486
			C262.369,201.257,279.539,186.233,268.792,172.858z M243.409,205.691c-14.498,3.239-26.649-6.143-38.814-13.127
			c0.233-0.402,0.206-0.955-0.311-1.264c-1.419-0.849-2.668-1.712-3.934-2.803c-5.02-4.322,2.176-8.398,5.696-8.678
			c5.42-0.431,10.007,4.282,13.669,7.561c5.399,4.834,10.247,7.403,17.596,6.577c6.418-0.721,12.252-4.09,16.637-8.712
			c1.996-2.105,3.035-5.476,4.371-8.012c1.269-2.41,3.013-4.872,6.036-5.208c2.664-0.297,4.096,3.739,4.726,5.55
			C274.339,192.705,255.258,203.044,243.409,205.691z"/>
	</g>
</g>
</svg>
