<?xml version="1.0" encoding="utf-8"?>
<!-- Generator: Adobe Illustrator 17.0.0, SVG Export Plug-In . SVG Version: 6.00 Build 0)  -->
<!DOCTYPE svg PUBLIC "-//W3C//DTD SVG 1.1//EN" "http://www.w3.org/Graphics/SVG/1.1/DTD/svg11.dtd">
<svg version="1.1" xmlns="http://www.w3.org/2000/svg" xmlns:xlink="http://www.w3.org/1999/xlink" x="0px" y="0px"
	 width="58.732px" height="60.461px" viewBox="0 0 58.732 60.461" enable-background="new 0 0 58.732 60.461" xml:space="preserve">
<g id="Layer_4">
	<g>
		<g>
			<path fill="#F59494" d="M11.733,29.198c0.039-0.126,0.106,0.159,0.112,0.177c0.031,0.094,0.091,0.161,0.157,0.231
				c0.12,0.126,0.351,0.211,0.512,0.113c0.573-0.348,0.014-0.833-0.348-1.039c-0.299-0.17-0.584,0.055-0.623,0.358
				c-0.069,0.534,0.523,0.846,0.965,0.898c0.428,0.051,0.682-0.594,0.357-0.861c-0.295-0.243-0.564-0.478-0.929-0.612
				c-0.465-0.171-0.756,0.39-0.582,0.757c0.193,0.406,0.552,0.643,0.996,0.681c0.417,0.035,0.677-0.49,0.472-0.823
				c-0.221-0.359-0.617-0.823-1.053-0.896c-0.385-0.065-0.791,0.317-0.543,0.706c0.141,0.221,0.553,0.366,0.596,0.612
				c0.224-0.224,0.449-0.449,0.673-0.673c-0.128-0.028-0.233-0.144-0.332-0.23c-0.121,0.293-0.243,0.586-0.364,0.879
				c0.057-0.004,0.206,0.037,0.222,0.092c0.207-0.207,0.414-0.414,0.621-0.621c-0.167-0.03-0.282-0.068-0.393-0.2
				c-0.061,0.231-0.122,0.461-0.183,0.692c0.415-0.135-0.147-0.393-0.342-0.333c-0.01,0.003-0.017,0.012-0.017,0.022
				c0,0.023,0.001,0.046,0.001,0.069C11.71,29.208,11.729,29.211,11.733,29.198L11.733,29.198z"/>
		</g>
	</g>
	<g>
		<g>
			<path fill="#F59494" d="M27.862,29.972c-0.403-0.022-0.598,0.301-0.586,0.673c0.017,0.485,0.387,0.94,0.853,1.055
				c0.525,0.13,1.031-0.38,0.868-0.903c-0.156-0.5-0.607-0.975-1.138-1.064c-0.308-0.051-0.636,0.076-0.719,0.408
				c-0.232,0.93,0.671,1.858,1.518,1.164c0.677-0.555-0.311-1.709-0.967-1.686c-0.399,0.014-0.879,0.284-0.842,0.751
				c0.036,0.455,0.274,0.793,0.647,1.044c0.489,0.328,1.831,0.157,1.395-0.69c-0.221-0.429-1.127-1.053-1.463-0.369
				c-0.374,0.76,0.416,1.582,1.205,1.384c0.944-0.237,0.305-1.671-0.495-1.451c-1.021,0.281-0.178,1.62,0.588,1.614
				c0.21-0.002,0.444-0.151,0.485-0.369c0.29-1.536-1.917-0.555-1.114,0.248c0.378,0.378,1.087,0.227,1.169-0.334
				c0.074-0.502-0.196-1.09-0.63-1.357c-0.352-0.217-0.761,0.004-0.887,0.361c-0.212,0.598,0.287,0.955,0.819,1.01
				c0.429,0.044,0.654-0.422,0.591-0.776c-0.078-0.441-0.389-0.765-0.744-1.013c-0.224-0.156-0.586-0.097-0.767,0.099
				c-0.77,0.834,0.318,1.971,1.248,1.481c0.301-0.159,0.422-0.603,0.233-0.89c-0.192-0.291-0.413-0.588-0.641-0.852
				c-0.216,0.371-0.432,0.743-0.649,1.114c0.38,0.092,0.531,0.676,0.675,1.003c0.278,0.631,1.35,0.177,1.114-0.47
				c-0.285-0.782-0.568-1.549-1.434-1.819c-0.622-0.194-1.154,0.672-0.649,1.114c0.143,0.125,0.347,0.223,0.396,0.41
				c0.151-0.267,0.303-0.533,0.454-0.8c0.288-0.006,0.371,0.152,0.247,0.474c-0.238,0.097-0.476,0.194-0.714,0.291
				c0.009,0.007,0.018,0.013,0.027,0.02c0.259-0.197,0.517-0.394,0.776-0.591c0.068,0.118,0.137,0.237,0.205,0.355
				c-0.255,0.194-0.51,0.388-0.765,0.582c-0.077-0.018,0.011,0.033,0.035,0.097c0.856,2.299,0.805-1.493,0.085-0.146
				c0.189-0.077,0.379-0.154,0.568-0.231c-0.276-0.085-0.466-0.442-0.666,0.124c0.072-0.094,0.144-0.187,0.216-0.281
				c0.054-0.038-0.042-0.016-0.122-0.059c-0.041-0.022-0.108-0.086-0.106-0.082c-0.036,0.07-0.073,0.141-0.109,0.211
				c0.406-0.15,0.502-0.24,0.288-0.27c-0.106-0.024-0.204-0.084-0.307-0.119c0.035,0.012-0.107-0.084-0.123-0.1
				c-0.131-0.128-0.137,0.378-0.265,0.315c0.048,0.024,0.084,0.148,0.074,0.056c0.334-0.413,0.519-0.514,0.553-0.302
				c-0.021-0.034-0.022-0.07-0.004-0.11c-0.195,0.195-0.389,0.389-0.584,0.584c0.123,0.004,0.244,0.152,0.301,0.245
				c0.064-0.118,0.128-0.236,0.193-0.354c-0.05-0.014-0.094-0.04-0.132-0.077c-0.016-0.014-0.195-0.225-0.14-0.24
				C28.203,30.379,28.135,29.987,27.862,29.972L27.862,29.972z"/>
		</g>
	</g>
</g>
<g id="Layer_3">
	<g>
		<g>
			<path fill="#FFFFFF" d="M6.79,56.487c-3.369-3.504-5.011-7.015-5.314-11.888c-0.338-5.427,4.162-9.92,7.291-13.793
				c0.309-0.382-0.224-0.932-0.547-0.547c-4.133,4.927-8.104,9.232-7.774,16.021c0.173,3.555,2.242,9.429,6.196,10.461
				C6.791,56.781,6.896,56.598,6.79,56.487L6.79,56.487z"/>
		</g>
	</g>
	<g>
		<g>
			<path fill="#FFFFFF" d="M10.607,28.297c0.163,0.639,0.557,1.542,1.263,1.743c0.654,0.186,1.371-0.294,1.545-0.94
				c0.308-1.144-1.939-1.389-2.605-1.144c-0.687,0.253-0.146,1.237,0.361,0.857c0.417-0.312,1.371-0.442,1.73,0.039
				c0.089,0.119,0.012,0.258-0.054,0.366c-0.18,0.298-0.52,0.502-0.866,0.416c-0.56-0.139-0.893-0.944-1.035-1.43
				C10.883,27.986,10.551,28.077,10.607,28.297L10.607,28.297z"/>
		</g>
	</g>
	<g>
		<g>
			<path fill="#FFFFFF" d="M27.096,29.137c-0.446,0.354-0.753,0.576-0.776,1.177c-0.02,0.517,0.256,1.032,0.507,1.463
				c0.475,0.818,1.242,1.34,2.169,0.911c0.966-0.448,1.103-1.586,0.626-2.406c-0.542-0.932-1.753-1.456-2.8-1.28
				c-0.406,0.068-0.309,0.736,0.097,0.714c0.64-0.035,1.182-0.053,1.773,0.245c0.358,0.181,0.632,0.479,0.857,0.804
				c0.403,0.583-0.145,1.188-0.608,1.473c-0.674,0.414-1.273-0.243-1.626-0.744c-0.486-0.69-0.746-1.548-0.1-2.241
				C27.286,29.174,27.177,29.072,27.096,29.137L27.096,29.137z"/>
		</g>
	</g>
	<g>
		<g>
			<path fill="#FFFFFF" d="M30.742,58.756c3.512,2.327,7.332,0.297,10.561-1.641c3.495-2.097,5.417-6.273,4.902-10.205
				c-0.076-0.58-0.933-0.623-0.938,0c-0.029,3.863-1.304,6.987-4.458,9.359c-2.648,1.991-6.736,3.835-9.842,2.102
				C30.714,58.23,30.504,58.598,30.742,58.756L30.742,58.756z"/>
		</g>
	</g>
	<g>
		<g>
			<path fill="#FFFFFF" d="M36.322,19.15c-0.025-0.004-0.05-0.009-0.075-0.013c-0.106-0.019-0.203,0.063-0.175,0.175
				c0.947,3.838,2.878,7.3,4.59,10.83c2.727,5.621,4.048,11.548,5.027,17.677c0.081,0.507,0.966,0.388,0.898-0.121
				c-0.644-4.812-1.49-9.814-3.416-14.313c-0.565-1.319-6.15-14.109-6.849-13.987C36.445,19.377,36.445,19.171,36.322,19.15
				L36.322,19.15z"/>
		</g>
	</g>
	<g>
		<g>
			<path fill="#FFFFFF" d="M46.233,46.596c0.018,0.79,0.513,1.473,0.911,2.128c0.299,0.493,0.652,1.543,1.347,1.535
				c0.119-0.001,0.186-0.09,0.199-0.199c0.065-0.527-0.458-1.138-0.746-1.545c-0.47-0.666-0.897-1.329-1.318-2.025
				C46.52,46.314,46.228,46.381,46.233,46.596L46.233,46.596z"/>
		</g>
	</g>
	<g>
		<g>
			<path fill="#FFFFFF" d="M48.585,49.273c0.031-1.485-0.045-2.97,0.264-4.433c-0.115,0.03-0.231,0.061-0.346,0.091
				c0.723,0.894,0.892,2.332,1.942,2.929c0.195,0.111,0.358-0.135,0.227-0.294c-0.747-0.911-1.118-2.036-1.876-2.927
				c-0.097-0.114-0.319-0.057-0.346,0.091c-0.28,1.505-0.103,3.026-0.051,4.543C48.402,49.393,48.583,49.394,48.585,49.273
				L48.585,49.273z"/>
		</g>
	</g>
	<g>
		<g>
			<path fill="#FFFFFF" d="M44.695,53.042c0.285,0.636,0.299,1.4,0.79,1.914c0.171,0.179,0.425,0.105,0.557-0.072
				c0.243-0.328,1.171-2.006,1.825-1.278c0.42,0.467,0.788,0.899,1.29,1.285c0.193,0.148,0.544-0.002,0.583-0.237
				c0.128-0.766,0.005-1.531,0.157-2.298c0.018-0.092,0.133-1.052,0.402-0.92c0.564,0.275,1.108,0.879,1.602,1.277
				c0.464,0.375,0.988-0.314,0.497-0.644c-0.576-0.387-1.988-1.889-2.731-1.146c-0.792,0.792-0.468,2.556-0.693,3.521
				c0.194-0.079,0.389-0.158,0.583-0.237c-0.444-0.339-1.449-1.965-2.192-1.682c-0.921,0.35-1.425,1.22-1.936,2.003
				c0.186-0.024,0.371-0.048,0.557-0.072c-0.353-0.327-0.548-1.256-0.785-1.708C45.023,52.407,44.544,52.705,44.695,53.042
				L44.695,53.042z"/>
		</g>
	</g>
	<g>
		<g>
			<path fill="#FFFFFF" d="M50.703,47.525c0.779-1.268,1.186-2.669,1.693-4.058c0.627-1.718,1.407-3.177,1.364-5.06
				c-0.01-0.43-0.652-0.535-0.76-0.103c-0.729,2.928-1.228,6.287-2.783,8.937C50.033,47.555,50.513,47.833,50.703,47.525
				L50.703,47.525z"/>
		</g>
	</g>
	<g>
		<g>
			<path fill="#FFFFFF" d="M53.12,38.66c0.948,0.779,1.306,2.518,1.882,3.567c0.753,1.372,1.144,2.914,1.631,4.389
				c0.126,0.381,0.791,0.339,0.737-0.1c-0.205-1.668-0.963-3.189-1.689-4.686c-0.531-1.093-1.236-2.838-2.262-3.557
				C53.191,38.113,52.905,38.483,53.12,38.66L53.12,38.66z"/>
		</g>
	</g>
	<g>
		<g>
			<path fill="#FFFFFF" d="M51.669,52.288c0.879-0.235,1.466-1.011,1.985-1.716c1.086-1.474,2.261-2.874,3.424-4.287
				c0.313-0.38-0.236-0.803-0.534-0.412c-0.771,1.013-1.55,2.021-2.303,3.048c-0.686,0.936-1.502,2.712-2.628,3.163
				C51.49,52.134,51.534,52.324,51.669,52.288L51.669,52.288z"/>
		</g>
	</g>
	<g>
		<g>
			<path fill="#FFFFFF" d="M25.807,42.659c0.017-0.071,0.035-0.141,0.052-0.212c0.079-0.037,0.114-0.129,0.12-0.209
				c0.003-0.043,0.006-0.087,0.01-0.13c0.022-0.306-0.398-0.311-0.495-0.067c-0.169,0.427-0.581,1.438-0.112,1.813
				c0.593,0.474,1.452,0.272,2.105,0.022c0.433-0.166,0.245-0.868-0.193-0.701c-0.4,0.153-0.878,0.305-1.308,0.209
				c-0.305-0.068-0.058-0.991-0.007-1.209c-0.165-0.022-0.33-0.045-0.495-0.067c0.003,0.043,0.006,0.087,0.01,0.13
				c0.006,0.08,0.041,0.172,0.12,0.209c0.017,0.071,0.035,0.141,0.052,0.212C25.678,42.749,25.795,42.749,25.807,42.659
				L25.807,42.659z"/>
		</g>
	</g>
	<g>
		<g>
			<path fill="#FFFFFF" d="M5.86,39.169c0.152,0.48,0.33,0.981,0.559,1.431c0.172,0.338,0.482,0.956,0.937,0.956
				c0.371,0,0.516-0.364,0.635-0.653c0.244-0.597,0.493-1.215,0.872-1.74c0.174-0.242-0.187-0.466-0.387-0.298
				c-0.631,0.531-0.819,1.283-1.13,2.017c-0.043,0.128-0.067,0.122-0.07-0.018C7.2,40.771,7.13,40.676,7.067,40.575
				c-0.112-0.168-0.204-0.35-0.301-0.527c-0.185-0.34-0.378-0.683-0.543-1.033C6.128,38.809,5.793,38.956,5.86,39.169L5.86,39.169z"
				/>
		</g>
	</g>
	<g>
		<g>
			<path fill="#FFFFFF" d="M30.737,34.279c1.326-0.725,2.784-1.168,4.104-1.895c0.467-0.257,0.056-0.939-0.414-0.708
				c-1.338,0.657-2.69,1.364-3.927,2.199C30.251,34.042,30.469,34.425,30.737,34.279L30.737,34.279z"/>
		</g>
	</g>
	<g>
		<g>
			<path fill="#FFFFFF" d="M16.366,28.766c0.067,0.17,0.116,0.322,0.128,0.508c0.017,0.271,0.408,0.221,0.368-0.05
				c-0.03-0.211-0.103-0.395-0.197-0.584C16.584,28.474,16.298,28.593,16.366,28.766L16.366,28.766z"/>
		</g>
	</g>
	<g>
		<g>
			<path fill="#FFFFFF" d="M16.843,29.199c0.157-0.157,0.315-0.315,0.472-0.472c0.107-0.107-0.059-0.273-0.166-0.166
				c-0.157,0.157-0.315,0.315-0.472,0.472C16.571,29.14,16.737,29.306,16.843,29.199L16.843,29.199z"/>
		</g>
	</g>
	<g>
		<g>
			<path fill="#FFFFFF" d="M17.398,28.529c0.318,0.236,0.579,0.548,0.927,0.739c0.177,0.097,0.351-0.13,0.213-0.276
				c-0.281-0.298-0.639-0.514-0.998-0.706C17.377,28.199,17.255,28.423,17.398,28.529L17.398,28.529z"/>
		</g>
	</g>
	<g>
		<g>
			<path fill="#FFFFFF" d="M18.486,29.903c0.002,0.023,0.005,0.046,0.007,0.069c0.007,0.07,0.045,0.147,0.122,0.161
				c0.023,0.004,0.045,0.008,0.068,0.013c0.09,0.016,0.184-0.023,0.209-0.118c0.087-0.333,0.123-0.676,0.197-1.013
				c0.06-0.271-0.37-0.375-0.407-0.112c-0.048,0.344-0.057,0.693-0.118,1.035c0.055-0.042,0.109-0.083,0.164-0.125
				c-0.023-0.002-0.046-0.005-0.069-0.007c0.054,0.041,0.107,0.082,0.161,0.122c-0.004-0.023-0.008-0.045-0.013-0.068
				C18.775,29.679,18.467,29.72,18.486,29.903L18.486,29.903z"/>
		</g>
	</g>
	<g>
		<g>
			<path fill="#FFFFFF" d="M17.92,27.504c-0.012-0.03-0.021-0.061-0.027-0.093c-0.023-0.098-0.142-0.171-0.239-0.136
				c-0.245,0.088-0.289,0.256-0.309,0.503c-0.018,0.228,0.249,0.33,0.424,0.243c0.303-0.151,0.419-0.479,0.331-0.803
				c-0.08-0.294-0.439-0.297-0.598-0.078c-0.026,0.036-0.052,0.071-0.078,0.107c-0.071,0.098-0.059,0.253,0,0.352
				c0.022,0.038,0.045,0.075,0.067,0.113c0.178-0.137,0.355-0.274,0.533-0.411c0-0.002,0-0.004,0-0.005
				c-0.037-0.277-0.495-0.329-0.605-0.079c-0.079,0.18-0.102,0.284-0.02,0.468c0.047,0.106,0.186,0.171,0.296,0.17
				c0.096-0.001,0.171-0.017,0.262-0.047c0.225-0.073,0.325-0.315,0.214-0.525c-0.131-0.247-0.298-0.303-0.566-0.26
				c-0.472,0.077-0.266,0.882,0.199,0.723c0-0.002,0-0.005-0.001-0.007c-0.105-0.061-0.211-0.121-0.316-0.182
				c0.022,0.029,0.044,0.057,0.066,0.086c0.043-0.163,0.085-0.326,0.128-0.489c-0.026,0.009-0.052,0.018-0.078,0.028
				c0.129,0.052,0.258,0.105,0.387,0.157c-0.008-0.012-0.016-0.024-0.024-0.036c0.011,0.087,0.023,0.174,0.034,0.261
				c0.008-0.031,0.015-0.061,0.023-0.092c-0.217-0.029-0.433-0.059-0.65-0.088c0.016,0.136,0.033,0.217,0.117,0.329
				c0.21,0.279,0.779,0.125,0.62-0.261c-0.004-0.02-0.008-0.039-0.012-0.059c-0.182,0.048-0.365,0.096-0.547,0.144
				c-0.023-0.001-0.045-0.002-0.068-0.002c0.141,0.081,0.283,0.162,0.424,0.243c-0.004-0.105-0.005-0.21-0.008-0.315
				c-0.082,0.063-0.164,0.125-0.246,0.188c0.032,0.006,0.063,0.015,0.093,0.027C17.846,27.711,17.953,27.603,17.92,27.504
				L17.92,27.504z"/>
		</g>
	</g>
	<g>
		<g>
			<path fill="#FFFFFF" d="M27.543,26.829c-0.369,0.368-0.22,0.908,0.071,1.276c0.15,0.189,0.437,0.097,0.551-0.071
				c0.576-0.851-0.927-1.566-1.056-0.443c-0.056,0.485,0.414,0.995,0.883,0.673c0.43-0.295,0.458-0.977,0.052-1.298
				c-0.161-0.127-0.363-0.151-0.522,0c-0.274,0.26-0.31,0.77-0.033,1.047c0.333,0.333,0.945,0.152,0.945-0.354
				c0-0.775-1.323-1.044-1.245-0.107c0.076,0.909,1.199,0.943,1.279,0.016c0.028-0.326-0.395-0.766-0.735-0.639
				c-0.422,0.157-0.625,0.637-0.482,1.062c0.125,0.37,0.582,0.719,0.983,0.609c0.527-0.145,0.486-0.752,0.292-1.136
				c-0.156-0.309-0.449-0.703-0.838-0.661c-0.437,0.048-0.625,0.503-0.543,0.894c0.082,0.389,0.302,0.767,0.668,0.947
				c0.438,0.215,0.937-0.09,0.969-0.575c0.058-0.877-1.101-1.541-1.637-0.69c-0.295,0.468,0.033,1.162,0.505,1.354
				c0.607,0.247,1.043-0.328,1.064-0.876c0.018-0.481-0.506-1.023-0.984-1.023c-0.702,0-0.835,0.825-0.548,1.317
				c0.269,0.461,1.036,0.536,1.319,0.051c0.279-0.478,0.143-0.985-0.186-1.391c-0.348-0.428-0.949-0.174-1.198,0.198
				c-0.364,0.545,0.166,1.157,0.675,1.302c0.249,0.071,0.489-0.048,0.626-0.255c0.456-0.688-0.147-1.876-1.024-1.617
				c-0.554,0.164-0.637,0.87-0.555,1.343c0.096,0.55,0.702,0.952,1.171,1.144c0.18,0.074,0.485-0.005,0.604-0.16
				c0.203-0.262,0.326-0.492,0.316-0.833c-0.024-0.778-1.136-0.761-1.195,0c0-0.015,0.001-0.03,0.001-0.045
				c0.201-0.053,0.403-0.106,0.604-0.16c-0.121-0.049-0.298-0.191-0.304-0.326c-0.018-0.392-0.43,0.258-0.561-0.058
				c0.053,0.128-0.03,0.163,0.072,0.04c0.18-0.048,0.36-0.095,0.539-0.143c0.081,0.226,0.121,0.269,0.12,0.128
				c-0.042,0.219-0.214,0.275-0.516,0.167c-0.002,0.033-0.002,0.067,0.001,0.1c0.414-0.152,0.421-0.132,0.022,0.058
				c0.253,0.212-0.138,0.08,0.226,0.083c-0.025,0.036-0.026,0.075-0.002,0.116c0.093-0.032,0.187-0.063,0.28-0.095
				c-0.039-0.032-0.075-0.069-0.106-0.109c-0.066-0.073-0.163-0.171-0.175-0.276c-0.251,0.046-0.305,0.124-0.161,0.231
				c0.013,0.038,0.027,0.077,0.04,0.115c0.006,0.176,0.111,0.164,0.315-0.036c0.006,0.005-0.268-0.384-0.306-0.144
				c0.042,0.078,0.04,0.068-0.007-0.029c-0.007-0.028-0.014-0.056-0.021-0.083c-0.227,0.074-0.242,0.044-0.045-0.092
				c0.107,0.014,0.213,0.028,0.32,0.042c-0.009,0.023-0.018,0.045-0.027,0.068c-0.174,0-0.348,0-0.522,0
				c0.048,0.016,0.064,0.043,0.047,0.082c-0.074,0.113,0.007,0.124,0.242,0.034c-0.067-0.159-0.115-0.074-0.198,0.004
				c0.165,0,0.331,0,0.496,0c-0.042-0.052-0.152-0.23-0.087-0.299C28.326,26.992,27.855,26.518,27.543,26.829L27.543,26.829z"/>
		</g>
	</g>
	<g>
		<g>
			<path fill="#FFFFFF" d="M13.616,25.793c-0.188-0.381-0.718-0.58-0.98-0.133c-0.221,0.377-0.159,0.835,0.133,1.155
				c0.33,0.362,0.938,0.113,1.049-0.318c0.119-0.463,0.043-0.933-0.389-1.199c-0.4-0.245-0.86,0.111-0.86,0.541
				c0.001,0.491,0.241,0.983,0.783,1.029c1.001,0.085,1.055-1.448,0.132-1.6c-0.392-0.065-0.663,0.203-0.758,0.563
				c-0.116,0.442,0.109,0.878,0.481,1.108c0.366,0.226,0.842,0.045,0.987-0.347c0.129-0.347-0.007-0.769-0.227-1.049
				c-0.2-0.254-0.513-0.406-0.836-0.323c-0.402,0.103-0.432,0.585-0.384,0.914c0.129,0.88,1.501,0.922,1.479-0.023
				c-0.013-0.541-0.545-0.835-1.01-0.897c-0.692-0.091-0.661,1.193,0.137,1.013c0.026-0.004,0.051-0.008,0.077-0.012
				c-0.14-0.114-0.1-0.219,0.118-0.314c-0.221,0.021,0.088,0.121,0.002-0.021c-0.143-0.236-0.165,0.119-0.161,0.242
				c0.007,0.195-0.082-0.128,0.276-0.053c-0.063-0.013-0.046,0.011-0.052-0.041c0.058,0.529-0.951-0.182-0.195-0.204
				c0.136-0.004,0.135,0.033,0.086,0.12c-0.094,0.072-0.188,0.145-0.283,0.217c-0.412,0.171-0.287-0.363-0.359-0.036
				c0.192-0.031,0.383-0.062,0.575-0.092c-0.031-0.06-0.026-0.047,0.015,0.042C13.597,26.057,13.684,25.931,13.616,25.793
				L13.616,25.793z"/>
		</g>
	</g>
	<g>
		<g>
			<path fill="#FFFFFF" d="M6.58,57.053c-0.257,0.909,0.229,2.2,1.355,1.97c0.894-0.183,1.621-1.458,1.877-2.246
				c0.144-0.443-0.467-0.636-0.707-0.298c-0.33,0.464-0.55,0.983-0.939,1.409c-0.158,0.173-0.398,0.41-0.638,0.271
				c-0.277-0.16-0.32-0.644-0.269-0.919C7.339,56.8,6.704,56.611,6.58,57.053L6.58,57.053z"/>
		</g>
	</g>
	<g>
		<g>
			<path fill="#FFFFFF" d="M9.864,57.867c5.6,1.125,11.399,0.559,17.054,0.375c0.498-0.016,0.499-0.764,0-0.773
				c-2.994-0.055-5.96,0.247-8.948,0.348c-2.69,0.09-5.363-0.452-8.059-0.294C9.722,57.533,9.66,57.826,9.864,57.867L9.864,57.867z"
				/>
		</g>
	</g>
	<g>
		<g>
			<path fill="#FFFFFF" d="M27.772,57.764c-1.046,0.186-1.687,2.07-0.589,2.599c0.627,0.302,1.328-0.155,1.834-0.498
				c0.674-0.457,0.98-1.152,1.243-1.891c0.171-0.481-0.574-0.78-0.814-0.343c-0.372,0.679-0.754,1.225-1.412,1.647
				c-0.23,0.148-0.534,0.317-0.54-0.057c-0.005-0.273,0.178-0.714,0.458-0.802C28.376,58.285,28.199,57.688,27.772,57.764
				L27.772,57.764z"/>
		</g>
	</g>
	<g display="none">
		<g display="inline">
			<path fill="#F59494" d="M27.728,29.858c-0.985,0.314-0.021,2.156,0.88,1.559c0.225-0.149,0.234-0.403,0.078-0.604
				c-0.184-0.236-0.39-0.395-0.687-0.46c-0.317-0.069-0.659,0.147-0.65,0.495c0.015,0.583,0.681,0.974,1.209,0.73
				c0.699-0.324,0.23-1.073-0.182-1.39c-0.429-0.329-1.238,0.009-1.214,0.577c0.026,0.6,0.794,1.245,1.39,0.886
				c1.167-0.702-0.745-2.31-1.202-1.255c-0.201,0.462-0.026,0.94,0.377,1.233c0.503,0.365,1.135-0.021,1.088-0.624
				c-0.035-0.447-0.654-0.693-0.895-0.243c0.033-0.062,0.301-0.148,0.352-0.079c-0.259-0.342-0.481,0.175-0.434,0.346
				c0.495-0.186,0.625-0.332,0.39-0.438c-0.194-0.07-0.177-0.084,0.051-0.041c0.076-0.004,0.022,0.012-0.054-0.067
				c-0.035,0.269-0.069,0.538-0.104,0.807c-0.023,0.065,0.009,0.107,0.098,0.125c-0.046-0.175-0.092-0.351-0.138-0.526
				c-0.035,0.049-0.638-0.5-0.242-0.626C28.098,30.182,27.988,29.775,27.728,29.858L27.728,29.858z"/>
		</g>
	</g>
	<g>
		<g>
			<path fill="#FFFFFF" d="M9.101,31.799c0.007,0.032,0.013,0.063,0.02,0.095c0.023,0.108,0.202,0.056,0.163-0.045
				c-0.969-2.486-1.456-5.705-0.271-8.174c1.204-2.51,3.01-4.67,4.143-7.245c0.15-0.342-0.352-0.641-0.506-0.296
				c-1.375,3.08-3.899,5.734-4.846,8.964c-0.279,0.953-0.112,6.37,1.325,6.673C9.111,31.767,9.097,31.781,9.101,31.799L9.101,31.799
				z"/>
		</g>
	</g>
	<g>
		<g>
			<path fill="#FFFFFF" d="M14.197,16.079c-0.936-0.383-1.312-4.971-1.474-5.883c-0.558-3.132-0.634-6.594-0.22-9.74
				c0.057-0.436-0.663-0.521-0.76-0.103c-1.029,4.431-0.468,11.993,2.058,15.936c0.047,0.073,0.132,0.112,0.217,0.088
				c0.059-0.017,0.119-0.033,0.178-0.05C14.33,16.29,14.308,16.125,14.197,16.079L14.197,16.079z"/>
		</g>
	</g>
	<g>
		<g>
			<path fill="#FFFFFF" d="M12.267,1.253c4.292,2.179,6.722,7.46,7.777,11.894c0.091,0.381,0.724,0.305,0.691-0.093
				c-0.198-2.373-1.651-5.365-3.021-7.299c-1.137-1.605-3.365-4.203-5.438-4.523C12.264,1.23,12.254,1.247,12.267,1.253
				L12.267,1.253z"/>
		</g>
	</g>
	<g>
		<g>
			<path fill="#FFFFFF" d="M12.452,7.621c-0.067-0.015-0.109-0.018-0.179-0.012c-0.409,0.033-0.236,0.646,0.126,0.464
				c1.43-0.722,1.775-2.819,2.092-4.219c0.097-0.427-0.531-0.602-0.655-0.181c-0.375,1.269-0.556,3.1-1.688,3.97
				c0.125,0.072,0.25,0.143,0.374,0.215c0.006-0.07,0.003-0.112-0.012-0.179C12.503,7.651,12.479,7.627,12.452,7.621L12.452,7.621z"
				/>
		</g>
	</g>
	<g>
		<g>
			<path fill="#FFFFFF" d="M18.967,14.45c4.868-1.58,9.994,0.327,14.842,1.148c0.549,0.093,0.78-0.749,0.231-0.836
				c-4.847-0.77-10.448-2.869-15.235-0.899C18.453,14.007,18.585,14.574,18.967,14.45L18.967,14.45z"/>
		</g>
	</g>
	<g>
		<g>
			<path fill="#FFFFFF" d="M31.733,15.154c1.2-1.98,4.726-3.397,6.776-4.139c2.437-0.881,5.059-1.116,7.588-1.604
				c0.515-0.099,0.4-0.989-0.125-0.921c-3.284,0.424-6.537,1.073-9.568,2.44c-1.443,0.651-4.906,2.249-4.868,4.17
				C31.538,15.206,31.678,15.245,31.733,15.154L31.733,15.154z"/>
		</g>
	</g>
	<g>
		<g>
			<path fill="#FFFFFF" d="M36.445,18.379c4.893,0.305,10.563-4.748,12.391-8.982c0.199-0.461-0.409-0.849-0.688-0.402
				c-2.511,4.019-6.715,8.578-11.716,9.286C36.373,18.289,36.392,18.376,36.445,18.379L36.445,18.379z"/>
		</g>
	</g>
	<g>
		<g>
			<path fill="#FFFFFF" d="M41.832,15.843c0.648-0.61,0.958-1.495,1.417-2.246c0.737-1.208,1.57-2.362,2.346-3.545
				c0.209-0.318-0.296-0.606-0.506-0.296c-0.718,1.061-1.387,2.131-1.999,3.258c-0.483,0.891-0.782,1.927-1.332,2.772
				C41.728,15.832,41.794,15.878,41.832,15.843L41.832,15.843z"/>
		</g>
	</g>
	<g>
		<g>
			<path fill="#FFFFFF" d="M45.646,9.169c0.622,0.393,1.376,0.391,2.085,0.502c0.71,0.111,0.843-0.915,0.131-0.967
				c-0.684-0.05-1.365-0.092-2.047-0.156C45.465,8.514,45.387,9.005,45.646,9.169L45.646,9.169z"/>
		</g>
	</g>
</g>
</svg>
