<?xml version="1.0" encoding="utf-8"?>
<!-- Generator: Adobe Illustrator 17.0.0, SVG Export Plug-In . SVG Version: 6.00 Build 0)  -->
<!DOCTYPE svg PUBLIC "-//W3C//DTD SVG 1.1//EN" "http://www.w3.org/Graphics/SVG/1.1/DTD/svg11.dtd">
<svg version="1.1" id="lines" xmlns="http://www.w3.org/2000/svg" xmlns:xlink="http://www.w3.org/1999/xlink" x="0px" y="0px"
	 width="286.977px" height="180.973px" viewBox="0 0 286.977 180.973" enable-background="new 0 0 286.977 180.973"
	 xml:space="preserve">
<g>
	<path fill="#FFFFFF" stroke="#FFFFFF" stroke-miterlimit="10" d="M4.411,81.278c-0.163-0.032-0.309-0.139-0.381-0.286
		c-0.119-0.028-0.074-0.034-0.01-0.032c-0.001-0.002-0.001-0.004-0.002-0.007c-0.047-0.007-0.077-0.033-0.115-0.05
		c-0.5,13.344-0.154,26.759-0.165,40.108c-0.012,13.916-0.359,27.882,0.05,41.792c0.014,0.468,0.713,0.468,0.727,0
		c0.409-13.909,0.062-27.876,0.05-41.792C4.552,107.788,4.891,94.499,4.411,81.278z"/>
</g>
<g>
	<path fill="#FFFFFF" stroke="#FFFFFF" stroke-miterlimit="10" d="M86.484,163.47v-1.04c-28.562,0.104-57.124,0.32-85.667,0.379
		c-0.423,0.001-0.423,0.655,0,0.656c28.556,0.059,57.13,0.274,85.705,0.378C86.513,163.718,86.484,163.598,86.484,163.47z"/>
</g>
<g>
	<path fill="#FFFFFF" stroke="#FFFFFF" stroke-miterlimit="10" d="M85.545,81.407c-27.798,0.017-55.596,0.043-83.395,0.092
		c-0.393,0.001-0.393,0.609,0,0.609c27.837,0.05,55.675,0.075,83.512,0.092C85.603,81.938,85.564,81.673,85.545,81.407z"/>
</g>
<g>
	<path fill="#FFFFFF" stroke="#FFFFFF" stroke-miterlimit="10" d="M85.687,79.827c-0.029-0.111-0.044-0.229-0.036-0.357
		c0.005-0.09,0.022-0.162,0.03-0.248c-0.078,0.113-0.156,0.226-0.235,0.338c-0.084,0.13-0.179,0.236-0.278,0.329
		c-0.271,32.634-0.307,65.285,0,97.914c0.004,0.408,0.629,0.408,0.633,0c0.298-31.667,0.267-63.355,0.017-95.029
		C85.484,81.821,85.439,80.794,85.687,79.827z"/>
</g>
<g>
	<path fill="#FFFFFF" stroke="#FFFFFF" stroke-miterlimit="10" d="M84.484,179.897c18.582,1.051,37.391,0.34,56,0.352
		c19.331,0.012,38.67,0.199,58,0c0.574-0.006,0.574-0.885,0-0.891c-18.663-0.192-37.336-0.013-56-0.001
		c-19.273,0.012-38.755-0.735-58,0.353C84.363,179.717,84.363,179.89,84.484,179.897L84.484,179.897z"/>
</g>
<g>
	<path fill="#FFFFFF" stroke="#FFFFFF" stroke-miterlimit="10" d="M198.877,82.686c-0.117-0.7-0.113-1.375-0.017-2.071
		c0-0.021-0.001-0.041-0.001-0.062c0.002,0,0.004,0.001,0.007,0.001c0.007-0.045,0.004-0.089,0.011-0.134
		c0.003-0.02,0.02-0.025,0.025-0.043c0.009-5.286,0.027-10.572,0.033-15.858c-0.006-0.024-0.017-0.042-0.022-0.067
		c-0.15-0.802-0.15-1.495,0-2.298c0.006-0.034,0.019-0.06,0.027-0.092c0-0.253,0.001-0.506,0.002-0.76
		c0.001-0.589-0.915-0.589-0.914,0c0.001,0.66,0.003,1.32,0.004,1.981c0.103,0.262,0.128,0.569,0.024,0.918
		c-0.007,0.032-0.015,0.065-0.022,0.097c0.005,4.756,0.022,9.511,0.03,14.267c0.021,0.084,0.047,0.161,0.062,0.255
		c0.046,0.139,0.093,0.278,0.139,0.417c0.159,0.477,0.05,0.901-0.197,1.227c0.053,32.613,0.15,65.225,0.324,97.838
		c0.001,0.121,0.187,0.121,0.188,0c0.169-31.857,0.264-63.713,0.319-95.57C198.891,82.717,198.88,82.705,198.877,82.686z"/>
</g>
<g>
	<path fill="#FFFFFF" stroke="#FFFFFF" stroke-miterlimit="10" d="M137.26,28.08c-11.517,11.38-22.988,22.808-34.398,34.295
		c0.439-0.054,0.875-0.122,1.308-0.203c11.232-11.162,22.407-22.38,33.537-33.644C137.995,28.237,137.551,27.793,137.26,28.08z"/>
</g>
<g>
	<path fill="#FFFFFF" stroke="#FFFFFF" stroke-miterlimit="10" d="M141.865,23.831c-0.081,0.046-0.155,0.099-0.243,0.136
		c-1.9,1.925-3.802,3.847-5.696,5.778c-0.074,0.076,0.04,0.19,0.116,0.116c1.988-1.951,3.969-3.91,5.951-5.866
		C141.946,23.944,141.909,23.885,141.865,23.831z"/>
</g>
<g>
	<path fill="#FFFFFF" stroke="#FFFFFF" stroke-miterlimit="10" d="M185.409,67.729c-0.619-0.627-1.236-1.255-1.855-1.883
		c-0.694,0.123-1.486-0.197-1.767-1.019c-0.064-0.187-0.127-0.373-0.191-0.56c-0.481-0.224-0.828-0.689-0.853-1.274
		c-12.918-13.095-25.873-26.154-38.911-39.13c-0.2,0.114-0.428,0.182-0.661,0.22c-0.015,0.024-0.028,0.051-0.044,0.075
		c-0.076,0.117-0.16,0.225-0.249,0.328c12.882,12.945,25.848,25.809,38.848,38.636c0.109,0.065,0.216,0.143,0.318,0.245l0.75,0.75
		c0.053,0.053,0.092,0.109,0.136,0.164c0.159,0.158,0.315,0.318,0.489,0.461c0.099,0.081,0.174,0.178,0.238,0.282
		c1.159,1.143,2.32,2.283,3.479,3.427C185.22,68.209,185.315,67.968,185.409,67.729z"/>
</g>
<g>
	<path fill="#FFFFFF" stroke="#FFFFFF" stroke-miterlimit="10" d="M97.567,7.862c-0.005,0.373-0.008,0.745-0.014,1.118
		c0.127,0.357,0.112,0.697-0.013,0.992c-0.17,11.594-0.134,23.2-0.018,34.804c0.012,0.119,0.014,0.239,0.004,0.358
		c0.059,5.836,0.138,11.668,0.213,17.499c0.164-0.001,0.328-0.003,0.492-0.004c0.233-17.971,0.465-35.972,0.177-53.938
		C98.108,8.431,97.823,8.163,97.567,7.862z"/>
</g>
<g>
	<path fill="#FFFFFF" stroke="#FFFFFF" stroke-miterlimit="10" d="M98.683,9.105c-2.335-2.421-4.676-4.839-7.023-7.251
		c-0.079-0.04-0.157-0.085-0.23-0.141c-0.136,0.027-0.265,0.063-0.394,0.101c-0.08,0.073-0.16,0.145-0.241,0.218
		c-0.043,0.039-0.088,0.055-0.132,0.088c2.052,1.998,4.11,3.989,6.17,5.977c0.234,0.124,0.437,0.305,0.573,0.547
		c0.003,0.006,0.007,0.012,0.01,0.019c0.29,0.28,0.579,0.562,0.869,0.842C98.546,9.754,98.935,9.366,98.683,9.105z"/>
</g>
<g>
	<path fill="#FFFFFF" stroke="#FFFFFF" stroke-miterlimit="10" d="M91.429,1.712c-0.099,0.02-0.193,0.047-0.288,0.074
		c-2.246,2.312-4.493,4.624-6.723,6.952c-0.084,0.087,0.045,0.216,0.133,0.133c2.413-2.312,4.806-4.644,7.202-6.974
		C91.641,1.848,91.531,1.79,91.429,1.712z"/>
</g>
<g>
	<path fill="#FFFFFF" stroke="#FFFFFF" stroke-miterlimit="10" d="M185.288,8.327c-0.116-0.495,0.022-0.939,0.29-1.273
		c-0.002-0.34-0.001-0.68-0.004-1.019c-0.43,0.52-0.874,1.028-1.363,1.496c-0.11,0.105-0.225,0.182-0.343,0.247
		c-0.103,17.802,0.249,35.638,0.355,53.422c0.298,0.245,0.51,0.607,0.51,1.104v2.125c0,0.493-0.201,0.85-0.488,1.094
		c0.002,0.51,0.006,1.021,0.008,1.531c0.001,0.62,0.96,0.62,0.961,0c0.015-6.611,0.078-13.231,0.15-19.855
		c-0.126-0.221-0.214-0.465-0.214-0.729c0-0.754,0.048-1.495,0.22-2.232c0.006-0.026,0.019-0.049,0.027-0.074
		c0.13-11.672,0.243-23.352,0.188-35.02C185.461,8.902,185.359,8.633,185.288,8.327z"/>
</g>
<g>
	<path fill="#FFFFFF" stroke="#FFFFFF" stroke-miterlimit="10" d="M198.827,44.907c0.111-11.022,0.139-22.046,0.141-33.07
		c-0.134-0.211-0.222-0.47-0.234-0.784c-0.037-1.039-0.225-2.031-0.505-3.005c-0.077-0.117-0.151-0.239-0.227-0.357
		c0,12.463,0.013,24.926,0.14,37.387c0.001,0.02,0.009,0.038,0.008,0.058c0,0.055-0.006,0.107-0.007,0.162
		c0.065,6.336,0.151,12.671,0.293,19.005c0.001,0.06,0.092,0.06,0.094,0c0.133-5.962,0.216-11.925,0.281-17.888
		C198.682,45.925,198.703,45.439,198.827,44.907z"/>
</g>
<g>
	<path fill="#FFFFFF" stroke="#FFFFFF" stroke-miterlimit="10" d="M191.187,0.682c-0.116,0.105-0.228,0.218-0.349,0.315
		c-2.376,2.431-4.744,4.869-7.123,7.292c-0.031,0.138-0.056,0.277-0.101,0.41c0.071,0.06,0.175,0.081,0.261-0.003
		c2.581-2.536,5.179-5.061,7.767-7.596C191.484,0.966,191.336,0.823,191.187,0.682z"/>
</g>
<g>
	<path fill="#FFFFFF" stroke="#FFFFFF" stroke-miterlimit="10" d="M198.15,8.138c-2.295-2.51-4.661-4.948-7.064-7.351
		c-0.225,0.195-0.459,0.374-0.702,0.536c2.431,2.432,4.896,4.826,7.435,7.147C198.042,8.673,198.354,8.361,198.15,8.138z"/>
</g>
<g>
	<path fill="#FFFFFF" stroke="#FFFFFF" stroke-miterlimit="10" d="M37.177,45.497C25.231,57.546,13.162,69.491,1.443,81.762
		c-0.052,0.055,0.028,0.135,0.083,0.083c0.678-0.648,1.346-1.306,2.022-1.956c-0.011-0.139,0.026-0.277,0.137-0.371
		c0.069-0.058,0.134-0.103,0.213-0.146c0.048-0.026,0.094-0.033,0.141-0.043c0.038-0.017,0.077-0.034,0.091-0.046
		c0.024-0.019,0.056-0.023,0.083-0.037C15.541,68.342,26.626,57.179,37.791,46.11C38.188,45.716,37.572,45.099,37.177,45.497z"/>
</g>
<g>
	<path fill="#FFFFFF" stroke="#FFFFFF" stroke-miterlimit="10" d="M84.984,46.658v-0.333c0-0.048,0.017-0.089,0.021-0.135
		c0.008-0.208,0.025-0.416,0.042-0.623c-16.854,0.019-33.709,0.044-50.563,0.052c-0.348,0-0.522,0.27-0.522,0.539
		c0,0.27,0.174,0.54,0.522,0.539c16.836,0.007,33.672,0.032,50.509,0.051C84.991,46.717,84.984,46.69,84.984,46.658z"/>
	<path fill="#FFFFFF" stroke="#FFFFFF" stroke-miterlimit="10" d="M120.319,46.659c0.183-0.198,0.382-0.389,0.581-0.573
		c0.167-0.187,0.333-0.376,0.508-0.556c-7.964,0.009-15.927,0.015-23.891,0.024c-0.01,0.09-0.011,0.18-0.034,0.27
		c-0.018,0.147-0.057,0.28-0.105,0.405c-0.019,0.173-0.038,0.346-0.054,0.52c0,0.004-0.001,0.008-0.001,0.012
		c7.615,0.009,15.229,0.015,22.843,0.023C120.219,46.743,120.26,46.691,120.319,46.659z"/>
	<path fill="#FFFFFF" stroke="#FFFFFF" stroke-miterlimit="10" d="M185.151,46.824c0-0.456,0.031-0.907,0.083-1.355
		c-7.938,0.005-15.876,0.01-23.814,0.019c0.09,0.103,0.18,0.206,0.272,0.306c0.397,0.351,0.8,0.695,1.208,1.035
		c7.418,0.007,14.837,0.012,22.255,0.017C185.154,46.838,185.151,46.832,185.151,46.824z"/>
</g>
<g>
	<path fill="#FFFFFF" stroke="#FFFFFF" stroke-miterlimit="10" d="M135.451,91.27c-0.167,0.167-0.333,0.333-0.5,0.5
		c-0.043,0.043,0.023,0.109,0.066,0.066c0.167-0.167,0.333-0.333,0.5-0.5C135.56,91.294,135.494,91.228,135.451,91.27L135.451,91.27
		z"/>
</g>
<g>
	<path fill="#FFFFFF" stroke="#FFFFFF" stroke-miterlimit="10" d="M179.211,62.463c1.305,1.711,2.941,3.384,4.542,4.822
		c0.484,0.435,1.147-0.228,0.713-0.713c-1.437-1.601-3.11-3.236-4.822-4.542C179.396,61.842,179.022,62.216,179.211,62.463
		L179.211,62.463z"/>
</g>
<g>
	<path fill="#FFFFFF" stroke="#FFFFFF" stroke-miterlimit="10" d="M99.795,66.49c1.678-1.656,3.355-3.311,5.033-4.967
		c0.366-0.361-0.202-0.93-0.563-0.563c-1.656,1.678-3.311,3.355-4.967,5.033C98.979,66.315,99.472,66.808,99.795,66.49L99.795,66.49
		z"/>
</g>
<g>
	<path fill="#FFFFFF" stroke="#FFFFFF" stroke-miterlimit="10" d="M98.306,67.185c0.215-1.669-0.014-3.485-0.049-5.131
		c-0.006-0.272-0.416-0.272-0.422,0c-0.033,1.549-0.233,3.246-0.078,4.832C97.953,66.939,98.139,67.037,98.306,67.185z"/>
</g>
<g>
	<path fill="#FFFFFF" stroke="#FFFFFF" stroke-miterlimit="10" d="M85.151,80.815c0.015,0,0.015-0.023,0-0.023
		S85.136,80.815,85.151,80.815L85.151,80.815z"/>
</g>
<g>
	<path fill="#FFFFFF" stroke="#FFFFFF" stroke-miterlimit="10" d="M85.399,81.137c0.818-11.679,0.269-23.565,0.301-35.27
		c0.035-12.405,0.197-24.827-0.044-37.23c-0.008-0.438-0.671-0.438-0.68,0c-0.228,11.75-0.082,23.518-0.049,35.27
		c0.035,12.354-0.556,24.904,0.307,37.23C85.243,81.243,85.392,81.243,85.399,81.137L85.399,81.137z"/>
</g>
<g>
	<path fill="#FFFFFF" stroke="#FFFFFF" stroke-miterlimit="10" d="M85.558,80.515c0.007-0.06,0.015-0.119,0.024-0.179
		c0.032-1.067,0.064-2.133,0.09-3.2c0.006-0.242-0.381-0.242-0.375,0c0.027,1.111,0.061,2.222,0.094,3.333
		C85.393,80.571,85.514,80.583,85.558,80.515z"/>
</g>
<g>
	<path fill="#FFFFFF" stroke="#FFFFFF" stroke-miterlimit="10" d="M141.87,23.836c-0.177,0.105-0.37,0.192-0.58,0.24
		c-1.463,1.495-2.892,3.03-4.263,4.603c-0.149,0.171,0.077,0.398,0.249,0.249c1.717-1.497,3.396-3.057,5.018-4.663
		C142.136,24.138,141.996,23.994,141.87,23.836z"/>
</g>
<g>
	<path fill="#FFFFFF" d="M98.151,67.637c0.667-0.667,1.333-1.333,1.833-1.833"/>
	<g>
		<path fill="#FFFFFF" d="M98.416,67.902c0.641-0.581,1.283-1.161,1.924-1.742c0.483-0.437-0.276-1.195-0.713-0.713
			c-0.581,0.641-1.161,1.283-1.742,1.924C97.561,67.731,98.057,68.227,98.416,67.902L98.416,67.902z"/>
	</g>
</g>
<g>
	<path fill="#FFFFFF" d="M97.901,67.72c0,0.083,0,0.083,0,0.167c0-0.583,0-1.083,0-1.667"/>
	<g>
		<path fill="#FFFFFF" d="M97.833,67.701c-0.012,0.052-0.024,0.105-0.036,0.157c-0.031,0.135,0.176,0.192,0.207,0.057
			c0.125-0.548,0.096-1.136,0.119-1.695c0.012-0.287-0.457-0.287-0.445,0c0.023,0.559-0.006,1.148,0.119,1.695
			c0.031,0.135,0.238,0.078,0.207-0.057c-0.012-0.052-0.024-0.105-0.036-0.157C97.953,67.634,97.848,67.634,97.833,67.701
			L97.833,67.701z"/>
	</g>
</g>
<g>
	<path fill="#FFFFFF" stroke="#FFFFFF" stroke-miterlimit="10" d="M198.065,163.47v-1.04c28.562,0.104,57.124,0.32,85.667,0.379
		c0.423,0.001,0.423,0.655,0,0.656c-28.556,0.059-57.13,0.274-85.705,0.378C198.037,163.718,198.065,163.598,198.065,163.47z"/>
</g>
<g>
	<path fill="#FFFFFF" stroke="#FFFFFF" stroke-miterlimit="10" d="M284.316,81.453c-0.128,0.001-0.249-0.03-0.358-0.106
		c-0.05-0.015-0.096-0.038-0.141-0.043c-0.011-0.001-0.019-0.007-0.03-0.009c-0.478,13.209-0.14,26.486-0.152,39.698
		c-0.012,13.915-0.359,27.882,0.05,41.792c0.014,0.468,0.713,0.468,0.727,0c0.409-13.909,0.062-27.876,0.05-41.792
		C284.451,107.834,284.786,94.61,284.316,81.453z"/>
</g>
<g>
	<path fill="#FFFFFF" stroke="#FFFFFF" stroke-miterlimit="10" d="M286.033,81.347c-0.051-0.015-0.098-0.038-0.145-0.043
		c-0.041-0.005-0.073-0.019-0.108-0.03c-5.989,0.05-11.977,0.096-17.964,0.1c-23.325,0.014-46.649,0.03-69.974,0.122
		c-0.177,0.001-0.177,0.609,0,0.609c23.025,0.091,46.051,0.108,69.076,0.122c6.51,0.004,13.021,0.056,19.533,0.112
		c-0.015-0.297-0.015-0.593-0.012-0.888C286.293,81.464,286.155,81.431,286.033,81.347z"/>
</g>
<g>
	<path fill="#FFFFFF" stroke="#FFFFFF" stroke-miterlimit="10" d="M249.853,46.231c11.947,12.049,24.016,23.994,35.735,36.265
		c0.052,0.055-0.028,0.135-0.083,0.083c-0.678-0.648-1.346-1.306-2.022-1.956c0.011-0.139-0.026-0.277-0.137-0.371
		c-0.069-0.058-0.134-0.103-0.213-0.146c-0.048-0.026-0.094-0.033-0.141-0.043c-0.038-0.017-0.077-0.034-0.091-0.046
		c-0.024-0.019-0.056-0.023-0.083-0.037c-11.328-10.904-22.413-22.067-33.578-33.136C248.843,46.45,249.459,45.833,249.853,46.231z"
		/>
</g>
<g>
	<path fill="#FFFFFF" stroke="#FFFFFF" stroke-miterlimit="10" d="M249.049,46.658v-0.333c0-0.048,0.017-0.089,0.021-0.135
		c0.008-0.208,0.025-0.416,0.042-0.623c-16.854,0.019-33.709,0.044-50.563,0.052c-0.348,0-0.522,0.27-0.522,0.539
		c0,0.27,0.174,0.54,0.522,0.539c16.836,0.007,33.672,0.032,50.509,0.051C249.056,46.717,249.049,46.69,249.049,46.658z"/>
</g>
<g>
	<path fill="#FFFFFF" d="M248.734,45.804c0.25,0.25,0.625,0.625,0.875,0.875"/>
	<g>
		<path fill="#FFFFFF" d="M248.461,45.963c0.287,0.386,0.559,0.965,1.039,1.111c0.296,0.09,0.594-0.209,0.505-0.505
			c-0.146-0.481-0.725-0.752-1.111-1.039C248.644,45.344,248.275,45.713,248.461,45.963L248.461,45.963z"/>
	</g>
</g>
</svg>
