<?xml version="1.0" encoding="utf-8"?>
<!-- Generator: Adobe Illustrator 17.0.0, SVG Export Plug-In . SVG Version: 6.00 Build 0)  -->
<!DOCTYPE svg PUBLIC "-//W3C//DTD SVG 1.1//EN" "http://www.w3.org/Graphics/SVG/1.1/DTD/svg11.dtd">
<svg version="1.1" id="Layer_1" xmlns="http://www.w3.org/2000/svg" xmlns:xlink="http://www.w3.org/1999/xlink" x="0px" y="0px"
	 width="273.568px" height="222.617px" viewBox="0 0 273.568 222.617" enable-background="new 0 0 273.568 222.617"
	 xml:space="preserve">
<g id="Layer_3">
	<g>
		<g>
			<path fill="#333333" d="M148.521,127.233c11.222,0.194,17.22-12.198,22.476-20.215c5.321-8.116-7.673-15.623-12.952-7.571
				c-1.837,2.802-3.516,5.697-5.441,8.443c-0.618,0.882-1.785,2.265-3.016,3.483c-0.696,0.588-0.754,0.673-0.175,0.254
				c-0.369,0.27-0.754,0.516-1.153,0.739c0.821-0.28,0.833-0.292,0.037-0.036c1.012-0.075,1.086-0.107,0.224-0.098
				C138.843,112.066,138.859,127.066,148.521,127.233L148.521,127.233z"/>
		</g>
	</g>
	<g>
		<g>
			<path fill="#333333" d="M149.254,123.227c0.583-4.045,3.482-7.888,5.596-11.316c2.413-3.912,4.616-7.92,6.87-11.923
				c4.961-8.81,9.428-17.879,14.778-26.469c-4.317-2.524-8.635-5.047-12.952-7.571c-7.156,12.031-16.032,23.007-22.002,35.729
				c-3.735,7.959-8.861,20.725-1.755,28.32c4.333,4.631,11.215,2.481,15.846-0.249c6.168-3.637,10.992-10.134,15.007-15.892
				c7.657-10.981,15.334-24.297,18.153-37.467c1.195-5.584,1.373-12.28-4.22-15.549c-5.135-3.001-10.754,0.536-14.334,4.198
				c-8.969,9.176-13.446,22.83-17.449,34.695c-2.731,8.095-6.905,18.383-3.072,26.69c6.511,14.11,21.079-0.053,26.764-6.726
				c7.206-8.46,13.832-18.108,18.737-28.077c2.126-4.321,3.539-8.869,5.36-13.278c1.765-4.272,2.289-9.866-1.257-13.412
				c-16.153-16.153-35.264,36.681-38.851,46.038c-3.521,9.187-8.482,22.964-2.742,32.16c5.892,9.44,16.866,3.057,22.835-2.378
				c8.427-7.672,14.526-18.325,19.586-28.396c5.481-10.908,10.95-22.433,12.6-34.628c0.861-6.364-4.685-11.834-11.017-8.47
				c-6.113,3.248-9.766,9.669-13.579,15.207c-4.584,6.658-8.169,14.01-11.726,21.248c-3.246,6.605-5.581,13.965-9.305,20.282
				c-3.145,5.335-5.766,11.625-2.581,17.524c1.915,3.547,6.86,4.764,10.261,2.691c9.171-5.59,14.264-17.622,19.691-26.441
				c3.186-5.178,6.119-10.498,9.148-15.769c3.189-5.548,6.799-10.775,9.108-16.773c2.671-6.941-7.803-12.921-12.535-7.297
				c-10.488,12.464-16.59,27.456-21.132,42.958c-2.665,9.094-8.552,34.291,8.716,31.796c7.918-1.144,13.295-12.56,16.673-18.758
				c6.341-11.633,11.366-23.746,14.279-36.699c0.739-3.284-0.433-6.737-3.447-8.47c-9.412-5.411-16.807,6.037-20.677,12.901
				c-5.074,8.998-9.412,19.317-11.192,29.536c-0.752,4.316-1.102,8.853,1.108,12.824c2.357,4.237,8.486,4.743,12.41,2.613
				c3.3-1.792,5.368-4.646,7.542-7.613c5.584-7.619,9.795-16.856,13.5-25.5c4.141-9.662,8.608-19.249,11.756-29.292
				c2.568-8.191-9.537-13.123-13.708-5.779c-5.957,10.489-8.883,23.315-12.53,34.845c-2.435,7.697-8.554,22.22,0.22,27.916
				c3.157,2.05,8.644,0.925,10.261-2.691c8.074-18.055,14.668-37.481,13.952-57.525c-0.211-5.911-0.854-12.987-4.501-17.895
				c-5.972-8.036-15.23-6.062-22.27-0.56c-7.417,5.796-16.249,10.661-24.286,15.574c-4.201,2.568-8.55,4.914-13.191,6.579
				c-4.738,1.7-4.974,2.597-6.611-1.871c-1.782-4.866-2.92-10.052-4.269-15.052c-1.255-4.651-2.682-9.399-2.673-14.244
				c0.016-7.874,4.858-15.172,11.657-18.814c-3.672-2.823-7.345-5.647-11.017-8.47c-2.742,12.543-6.455,24.74-8.059,37.52
				c-1.222,9.731,0.071,20.907,10.357,25.048c13.915,5.603,18.847-11.978,22.202-21.572c3.118-8.918,4.48-18.626,3.531-28.059
				c-0.427-4.247-1.351-8.599-4.504-11.705c-4.205-4.142-10.977-3.278-14.681,0.988c-7.69,8.856-9.131,23.65-4.354,33.944
				c2.451,5.282,5.815,9.305,11.247,11.561c6.201,2.574,12.476-3.841,15.47-8.299c5.882-8.758,11.236-25.998,1.846-34.478
				c-4.188-3.781-10.153-4.748-14.912-1.268c-4.239,3.1-6.392,8.415-8.093,12.398c-4.491,10.516-13.135,27.575-3.183,37.718
				c4.308,4.39,11.305,8.545,17.413,5.051c5.552-3.177,9.145-10.44,12.413-15.749c3.537-5.745,6.264-12.181,7.266-18.869
				c0.852-5.68,1.158-13.777-3.261-18.254c-7.632-7.734-16.903,0.478-21.898,6.795c-7.386,9.341-11.878,20.127-5.544,31.509
				c2.87,5.158,9.482,9.446,15.223,10.252c6.879,0.966,12.894-2.231,17.686-6.95c8.761-8.629,15.754-23.798,14.567-36.088
				c-0.511-5.291-2.17-12.082-8.194-13.632c-7.09-1.824-12.218,3.154-14.011,9.608c-1.267,4.561-0.52,10.247-0.206,14.123
				c0.535,6.604,1.105,13.339,3.871,19.444c6.007,13.26,25.071,14.373,31.158,0.498c2.539-5.788,2.447-11.723,3.004-17.879
				c0.658-7.284-2.09-12.808-7.836-17.137c-4.273-3.22-9.388,0.506-11.017,4.482c-3.201,7.81-2.314,16.375-0.812,24.466
				c1.331,7.17,4.362,14.176,11.259,17.504c3.984,1.922,10.112,0.627,11.017-4.482c1.413-7.973,2.792-16.011,0.711-23.999
				c-2.042-7.836-8.867-13.758-16.842-14.637c-7.695-0.849-14.698,4.442-14.323,12.52c0.37,7.985,7.639,15.124,15.409,16.217
				c8.95,1.259,16.544-5.538,15.783-14.712c-0.644-7.767-5.993-14.484-11.24-19.859c-6.619-6.781-15.609-10.466-25.019-10.741
				c-4.91-0.143-9.547,2.203-14.46,1.09c-3.068-0.695-6.27-0.927-9.405-0.886c-2.186,0.029-5.193,1.106-6.905,1.089
				c1.768,0.732,3.536,1.464,5.303,2.197c-0.153-0.155-0.307-0.309-0.46-0.464c0.732,1.768,1.464,3.536,2.197,5.303
				c-1.976,2.448-2.136,3.1-0.48,1.958c0.704-0.395,1.676-0.545,2.447-0.76c2.721-0.761,5.511-0.832,8.321-0.918
				c6.01-0.184,12.175-0.075,18.174,0.371c4.186,0.311,8.95,1.386,12.287,4.082c4.968,4.013,5.302,9.995,5.292,15.907
				c-0.021,13.307,0.661,26.567,0.812,39.859c0.155,13.525-8.541,20.995-18.137,29.086c-7.405,6.244,3.262,16.799,10.607,10.607
				c10.745-9.06,20.406-18.507,22.125-33.187c0.793-6.769,0.076-13.535-0.172-20.316c-0.297-8.134-0.287-16.286-0.248-24.425
				c0.066-13.7-3.506-26.544-16.841-32.831c-5.394-2.543-11.216-3.446-17.116-3.884c-7.422-0.552-15.197-0.598-22.601,0.083
				c-4.884,0.449-10.271,1.596-14.313,4.515c-5.382,3.887-7.787,12.807-0.982,16.794c2.801,1.641,5.917,0.992,8.839,0.18
				c3.696-1.027,7.364,0.458,11.006,0.768c7.052,0.599,13.634-2.234,20.569-0.268c4.827,1.368,8.389,4.992,11.551,8.675
				c1.434,1.67,2.548,3.596,3.537,5.553c1.416,2.801-0.536,0.1,2.44,0.518c-1.537-0.216-2.686-1.22-3.456-2.478
				c1.267,2.071-3.769,3.21-1.451,3.256c0.574,0.011,1.27,0.639,2.364,1.752c1.435,1.461,1.455,4.315,1.527,6.199
				c0.152,3.972-0.623,7.91-1.312,11.798c3.672-1.494,7.345-2.988,11.017-4.482c-3.743-1.806-3.965-6.379-4.655-10.099
				c-0.941-5.069-0.863-10.135,1.102-14.931c-3.672,1.494-7.345,2.988-11.017,4.482c1.612,1.215,0.308,9.115,0.042,11.061
				c-0.426,3.118-2.377,9.508-5.311,4.113c-2.182-4.012-2.086-9.712-2.445-14.15c-0.536-6.614,0.075,1.112-0.278-2.381
				c-0.105-1.036-0.141-2.076-0.174-3.117c-0.035-1.129,0.04-2.251,0.128-3.375c0.145-1.836,1.078-1.013-0.39-0.151
				c-1.262,0.341-2.524,0.683-3.785,1.024c-2.837-3.151-3.852-3.645-3.043-1.481c0.016-0.445,0.03-0.285,0.043,0.481
				c0.137,3.028,0.061,5.428-0.732,8.381c-1.268,4.721-3.805,9.113-6.41,13.21c-1.774,2.791-4.051,5.765-7.352,6.676
				c-4.075,1.125-6.625-5.78-6.038-8.653c1.021-4.998,5.678-10.078,9.37-13.331c-0.418,0.331-0.28,0.26,0.413-0.213
				c-1.741,1.088-5.16-1.15-5.698-1.954c0.143,0.213,0.137,3.748,0.096,4.961c-0.179,5.316-3.023,10.49-5.641,14.955
				c-1.118,1.907-2.372,3.734-3.621,5.556c-0.613,0.881-1.234,1.756-1.863,2.625c-2.431,3.392-0.142,0.358,0.977,1.034
				c-3.639-2.197-0.999-8.77-0.013-11.928c1.351-4.326,3.481-8.364,5.203-12.545c0.571-1.387,1.263-2.703,2.032-3.989
				c-0.38,0.636-5.223-3.813-3.943-0.184c1.431,4.058-0.497,8.474-2.257,12.112c-0.778,1.608-1.661,3.143-2.656,4.625
				c-0.188,0.161-0.375,0.324-0.559,0.489c2.785-1.904,4.179,1.704,2.13-1.415c-2.645-4.027-3.166-8.167-1.816-12.753
				c0.47-1.596,1.042-3.221,1.596-4.795c0.268-0.763,1.694-2.217,0.885-1.861c-1.262,0.341-2.524,0.683-3.785,1.024
				c2.251,0.021,1.074-0.747-3.532-2.305c0.954,1.3-0.182-0.865,0.32,0.999c0.291,1.082,0.346,2.3,0.418,3.726
				c0.158,3.115-0.015,6.256-0.28,9.36c-0.682,7.97-4.09,17.226-8.046,24.2c0.341-0.601,2.085-1.479,2.48-0.925
				c-0.515-0.724-0.738-1.563-0.846-2.588c-0.332-3.148,0.064-6.385,0.565-9.493c1.777-11.022,4.956-21.624,7.336-32.511
				c1.416-6.475-5.058-11.662-11.017-8.47c-8.344,4.469-13.835,11.871-17.11,20.607c-3.649,9.731-1.303,19.736,1.232,29.391
				c2.297,8.747,3.958,21.233,11.99,26.818c8.51,5.918,20.247-0.07,28.253-4.18c9.2-4.723,17.712-10.906,26.354-16.554
				c1.925-1.258,4.176-2.229,5.87-3.802c1.974-1.834,3.629-0.817,0.703-2.061c-1.252-0.532-0.14-0.11,0.124,0.624
				c0.544,1.512,0.809,3.128,1.062,4.708c2.83,17.688-4.535,37.691-11.668,53.641c3.42-0.897,6.841-1.794,10.261-2.691
				c0.927,1.143,1.854,2.286,2.781,3.429c0.14,1.236,0.194,1.396,0.165,0.48c0-0.173,0.247-2.215,0.031-0.788
				c0.271-1.786,0.713-3.548,1.151-5.298c1.046-4.181,2.365-8.297,3.7-12.392c2.975-9.128,5.139-19.35,9.863-27.669
				c-4.569-1.926-9.139-3.853-13.708-5.779c-3.14,10.014-7.615,19.574-11.744,29.208c-2.108,4.919-4.753,9.67-7.37,14.331
				c-1.171,2.085-2.416,4.128-3.673,6.161c-0.47,0.815-0.991,1.594-1.565,2.338c-0.493,0.673-1.886,1.116-0.809,0.878
				c1.329,0,2.658,0,3.988,0c-0.367-0.051-0.734-0.103-1.101-0.154c1.494,1.149,2.988,2.298,4.482,3.447
				c0.971,1.745,0.379,1.055,0.203,0.259c0.485,2.19,0.126-0.12,0.151-0.759c0.075-1.89-0.038-0.257,0.182-1.521
				c0.19-1.089,0.452-2.166,0.716-3.239c1.091-4.443,2.652-8.841,4.459-13.041c1.89-4.394,4.073-8.681,6.644-12.716
				c1.256-1.972,0.889-1.515,2.333-3.067c1.421-1.526-0.305,0.02,0.474-0.479c-1.029,0.659-3.184,0.825-4.924-0.176
				c-1.149-2.823-2.298-5.647-3.447-8.47c-2.431,10.812-6.385,20.553-11.347,30.412c-2.265,4.499-5.03,9.612-7.978,13.203
				c-0.343,0.408-0.7,0.802-1.071,1.184c-1.493,1.59,1.011-0.488-0.512,0.488c2.323-1.225,4.696-0.585,7.116,1.921
				c0.53,0.824,0.247-2.316,0.26-2.499c0.375-5.585,2.234-11.355,3.872-16.659c3.59-11.632,8.279-23.343,16.196-32.753
				c-4.178-2.432-8.357-4.865-12.535-7.297c-1.57,4.079-4.449,7.824-6.658,11.576c-2.753,4.677-5.364,9.437-8.086,14.133
				c-2.867,4.946-6.004,9.756-9,14.625c-1.955,3.178-3.992,7.662-7.309,9.684c3.42,0.897,6.841,1.794,10.261,2.691
				c0.15,2.598,0.406,2.981,0.766,1.15c0.269-0.904,0.83-1.754,1.273-2.579c1.077-2.004,2.057-3.895,2.918-6.022
				c2.546-6.286,5.525-12.408,8.543-18.478c2.57-5.169,5.274-10.265,8.296-15.185c2.492-4.057,5.698-10.332,10.013-12.624
				c-3.672-2.823-7.345-5.647-11.017-8.47c-1.71,12.646-7.537,24.468-13.459,35.639c-4.474,8.439-10.395,19.191-19.158,23.866
				c0.977-1.605,2.602-0.845,4.875,2.282c-0.434-1.12-0.453-2.626-0.293-3.799c0.456-3.357,1.514-6.739,2.411-9.999
				c1.691-6.147,4.348-12.027,6.786-17.901c2.263-5.453,4.825-10.786,7.714-15.935c2.039-3.636,5.07-9.883,8.901-11.775
				c-1.262,0.341-2.524,0.683-3.785,1.024c0.306-0.008,0.613-0.015,0.919-0.023c-1.262-0.341-2.524-0.683-3.785-1.024
				c-1.29-5.12-2.165-6.342-2.625-3.667c0.05-0.19-1.115,2.883-0.54,1.594c-1.032,2.312-1.764,4.719-2.664,7.084
				c-2,5.255-5.103,10.178-8.169,14.861c-2.94,4.49-6.168,8.949-9.538,13.124c-1.921,2.38-6.162,8.075-9.038,8.589
				c1.329,0,2.658,0,3.988,0c2.862,0.626,2.272,4.231,2.455,0.466c0.091-1.879,0.73-3.826,1.217-5.639
				c1.07-3.99,2.456-7.924,3.792-11.83c2.109-6.167,4.511-12.148,7.682-17.851c1.119-2.013,3.627-5.697,4.289-6.521
				c0.569-0.708,1.239-1.326,1.904-1.94c-0.199,0.184-1.241,0.47-1.377,0.452c-1.262-0.341-2.524-0.683-3.785-1.024
				c-1.868-4.515-2.696-5.368-2.484-2.559c-0.131,0.927-0.308,1.845-0.53,2.755c-0.558,2.606-1.459,5.215-2.5,7.665
				c-2.138,5.034-4.929,9.79-7.686,14.501c-2.579,4.406-5.08,8.78-8.099,12.909c-1.561,2.135-3.543,3.968-5.416,5.821
				c-0.689,0.7-1.431,1.337-2.226,1.912c-4.595,3.31,0.454-3.529,3.253,4.199c0.291,0.803,0.047-1.664,0.096-2.253
				c0.018-0.215,0.473-2.13,0.68-2.937c1.27-4.935,3.742-9.539,6.219-13.954c5.493-9.792,12.447-18.687,18.185-28.333
				c4.965-8.347-7.854-15.755-12.952-7.571c-5.348,8.586-9.876,17.63-14.778,26.469c-2.502,4.511-5.047,8.967-7.756,13.359
				c-2.487,4.032-5.539,8.717-6.222,13.463c-0.582,4.043,0.931,8.041,5.238,9.226C143.59,129.445,148.67,127.281,149.254,123.227
				L149.254,123.227z"/>
		</g>
	</g>
	<g>
		<g>
			<path fill="#333333" d="M123.863,147.395c-1.805-1.22-1.789-1.15,0.048,0.209c-1.28-1.039-2.453-2.221-3.634-3.367
				c-2.418-2.347-4.792-4.718-7.28-6.993c-5.336-4.878-10.926-9.466-16.213-14.4c-2.106-1.965-4.084-4.036-5.979-6.205
				c-3.72-4.258,2.139,3.063-1.2-1.516c-1.023-1.403-1.97-2.86-2.92-4.312c-1.896-2.898-3.619-5.909-5.326-8.921
				c-0.523-0.924-1.32-1.792-1.926-2.667c-3.635-5.25,2.1-2.642-0.108,8.693c-9.548,3.885-19.097,7.769-28.645,11.654
				c1.269,0.564,2.409,1.232,3.586,1.969c-5.372-3.362,4.232,3.141,5.414,4.031c2.533,1.908,4.946,3.815,7.521,5.849
				c7.932,6.266,15.796,12.611,24.147,18.316c7.37,5.035,14.805,9.967,22.517,14.466c8.785,5.125,20.276,12.544,30.658,12.031
				c15.138-0.748,23.795-15.889,16.838-29.342c-3.171-6.131-8.213-9.861-13.049-14.447c-5.45-5.168-10.515-10.786-15.75-16.172
				c-5.328-5.481-10.49-11.039-15.442-16.867c-2.496-2.937-4.917-5.937-7.308-8.961c-0.966-1.222-2.04-2.373-3.05-3.56
				c3.201,3.759-0.964-3.318,1.065,2.164c-9.548,7.341-19.097,14.681-28.645,22.022c19.626,9.95,37.054,23.976,57.096,33.102
				c6.727,3.063,12.391,4.859,19.709,5.709c9.74,1.131,19.278-7.46,21.718-16.331c3.201-11.635-3.893-22.269-12.129-29.725
				c-8.688-7.865-19.419-12.424-30.688-15.186c-10.16-2.49-20.072-5.664-30.191-8.287c-6.151-1.595-12.53-2.286-18.844-2.855
				c-2.299-0.241-2.239-0.222,0.18,0.058c-1.096-0.197-2.174-0.466-3.234-0.805c2.07,0.961,2.093,0.858,0.068-0.309
				c-1.501-0.956-2.991-1.929-4.476-2.911c-0.574-0.379-6.296-4.58-3.304-2.223c-2.159-1.701-4.269-3.46-6.041-5.563
				c-1.733-2.056-3.378-3.985-5.331-5.844c-0.896-0.853-6.205-6.343-3.353-2.508c-6.33-8.511-16.743-12.816-26.68-6.996
				c-8.409,4.926-13.354,18.13-6.996,26.68c3.907,5.253,8.546,8.969,12.823,13.776c4.931,5.541,10.176,9.936,16.254,14.33
				c6.074,4.392,12.478,8.389,19.902,9.98c3.874,0.83,7.92,1.131,11.869,1.487c5.628,0.507-4.252-0.78,1.566,0.178
				c1.76,0.29,3.496,0.717,5.229,1.132c5.833,1.399,11.516,3.416,17.258,5.136c5.724,1.715,11.62,2.716,17.378,4.307
				c1.208,0.334,8.445,3.209,3.828,1.138c1.392,0.624,2.712,1.391,4.026,2.16c0.68,0.398,4.558,3.509,1.18,0.702
				c1.181,0.981,2.252,2.112,3.306,3.225c2.607,2.752-2.669-3.91-0.453-0.675c2.828,4.129-0.942-10.016-1.45-5.586
				c0.887-3.281,1.775-6.561,2.662-9.842c1.739-1.704,3.478-3.407,5.217-5.111c3.281-0.887,6.561-1.775,9.842-2.662
				c-1.999,0.15-1.514,0.272,1.455,0.363c-1.366-0.327-2.715-0.806-4.036-1.271c1.952,0.896,1.893,0.871-0.176-0.073
				c-1.645-0.749-3.239-1.613-4.834-2.461c-5.941-3.159-11.692-6.67-17.406-10.22c-10.954-6.805-21.744-13.856-33.261-19.695
				c-6.321-3.205-13.391-3.686-19.684,0c-7.055,4.133-11.963,13.91-8.961,22.022c3.16,8.54,8.81,14.621,14.401,21.603
				c5.185,6.474,10.571,12.939,16.426,18.82c5.314,5.336,10.49,10.81,15.75,16.198c2.182,2.235,4.349,4.453,6.737,6.469
				c1.04,0.878,2.072,1.756,3.083,2.668c0.673,0.622,1.311,1.278,1.913,1.97c-1.61-2.195-1.891-2.384-0.845-0.569
				c5.613-9.781,11.225-19.561,16.838-29.342c1.094-0.054,6.03,2.03,1.975,0.084c-1.667-0.8-3.306-1.664-4.948-2.514
				c-3.823-1.977-7.583-4.009-11.283-6.212c-7.673-4.57-15.034-9.656-22.402-14.696c-1.502-1.027-2.955-2.132-4.415-3.218
				c-4.766-3.543,2.899,2.303-1.735-1.329c-3.248-2.546-6.46-5.139-9.707-7.686c-2.232-1.751-4.486-3.476-6.737-5.203
				c3.768,2.891-5.013-3.891-5.907-4.564c-0.5-0.377-1-0.753-1.5-1.13c2.289,1.659,1.289,0.868-3-2.37
				c-1.496-0.87-2.915-1.795-4.5-2.5c-5.003-2.223-9.535-3.476-15.026-1.966c-6.167,1.696-12.349,7.099-13.62,13.62
				c-1.418,7.28-0.264,12.47,2.728,19.149c1.24,2.768,3.433,5.242,4.95,7.874c4.567,7.925,9.938,15.48,16.135,22.214
				c5.638,6.127,12.338,11.321,18.554,16.836c6.679,5.925,12.528,12.562,20.094,17.449c8.938,5.773,21.49,1.863,26.68-6.996
				C136.412,164.596,132.774,153.151,123.863,147.395L123.863,147.395z"/>
		</g>
	</g>
	<g>
		<g>
			<path fill="#333333" d="M99.521,213.233c12.745,0.186,23.388-9.17,34.174-14.783c10.678-5.557,21.706-10.192,31.826-16.782
				c10.083-6.567,19.498-14.462,27.288-23.646c3.952-4.659,7.966-9.27,11.743-14.074c2.519-3.203,5.079-6.414,7.244-9.872
				c0.936-1.495,1.898-2.97,2.874-4.438c0.271-0.408,3.8-4.839,1.138-1.616c-10.864-6.324-21.728-12.648-32.592-18.972
				c-0.678,2.055-0.609,2.002,0.208-0.158c-0.651,1.405-1.432,2.739-2.113,4.13c-1.148,2.344-2.173,4.647-3.57,6.861
				c-0.64,0.989-1.298,1.966-1.976,2.929c-0.22,0.319-3.765,4.927-1.209,1.698c-1.809,2.286-3.736,4.478-5.671,6.657
				c-3.61,4.066-7.481,7.93-11.439,11.656c-1.958,1.843-4.005,3.585-6.085,5.289c1.801-1.359,1.805-1.371,0.015-0.039
				c-1.371,1.013-2.795,1.951-4.218,2.888c-10.179,6.702-20.606,12.801-31.573,18.13c-2.742,1.332-5.527,2.571-8.282,3.876
				c-1.123,0.542-2.248,1.081-3.375,1.617c-5.411,2.584,3.392-1.124-2.092,0.847c-6.835,2.456-12.539,4.686-18.105,9.515
				c-6.552,5.685-7.242,16.473-3.049,23.631c4.54,7.75,13.46,10.979,22.022,8.961c5.458-1.286,10.897-2.609,16.26-4.256
				c4-1.228,7.825-2.855,11.676-4.483c-2.816,1.223-1.687,0.753,3.388-1.411c1.674-0.716,3.338-1.448,5-2.191
				c1.11-0.501,2.221-0.999,3.333-1.495c0.556-0.244,1.111-0.489,1.667-0.733c-2.874,1.232-1.763,0.766,3.333-1.396
				c2.041-0.895,2.015-0.894-0.077,0.001c2.585-1.076,5.167-2.152,7.746-3.242c5.031-2.126,9.457-4.751,14.053-7.667
				c10.891-6.911,19.167-16.137,27.724-25.642c2.583-2.869,4.926-5.857,7.289-8.923c0.633-0.845,1.26-1.694,1.88-2.548
				c3.115-4.256-2.588,3.029,0.831-1.029c5.875-6.975,9.262-12.487,10.211-21.789c1.081-10.595-9.688-19.5-19.5-19.5
				c-11.446,0-18.421,8.929-19.5,19.5c-0.075-3.145,0.918-5.764,2.978-7.856c-0.601,0.679-1.19,1.368-1.767,2.067
				c-2.085,2.483-4.044,5.066-5.997,7.655c-0.497,0.659-4.686,5.984-1.763,2.393c-1.85,2.272-3.965,4.37-5.932,6.543
				c-3.359,3.71-6.785,7.355-10.308,10.909c-0.725,0.732-5.668,4.67-1.878,1.939c-2.128,1.533-4.397,2.882-6.606,4.294
				c-1.787,1.143-3.505,2.275-5.387,3.264c-0.722,0.38-7.108,3.131-2.898,1.387c-3.098,1.283-6.189,2.58-9.273,3.896
				c3.036-1.259,1.977-0.807-3.178,1.354c-1.674,0.716-3.338,1.448-5,2.191c-0.633,0.283-7.354,3.168-3.675,1.659
				c-5.042,2.187-6.195,2.658-3.458,1.413c-1.734,0.684-3.511,1.255-5.282,1.832c-5.326,1.733-10.813,2.972-16.26,4.256
				c6.324,10.864,12.648,21.728,18.972,32.592c-2.258,1.6-2.469,1.863-0.633,0.79c-4.364,2.341-0.892,0.505,0.361,0.102
				c3.728-1.197,7.306-2.801,10.888-4.374c6.151-2.702,12.234-5.676,18.235-8.693c11.196-5.628,22.156-12.138,32.239-19.59
				c20.401-15.076,40.829-36.623,48.424-61.341c2.56-8.33-1.589-17.703-8.961-22.022c-7.019-4.112-18.124-3.619-23.631,3.049
				c-4.065,4.922-7.668,10.046-11.049,15.447c-0.695,1.002-1.409,1.991-2.142,2.966c2.32-3.148-1.376,1.629-1.531,1.817
				c-1.945,2.362-3.954,4.672-5.94,6.999c-3.31,3.878-6.605,7.685-10.283,11.224c-1.971,1.896-4.06,3.665-6.171,5.401
				c-1.728,1.376-1.705,1.36,0.07-0.047c-1.305,0.981-2.65,1.907-3.993,2.833c-8.906,6.137-18.717,10.565-28.401,15.292
				c-4.802,2.344-9.519,4.839-14.104,7.584c-2.073,1.241-4.151,2.459-6.196,3.748c-0.82,0.518-1.655,1.01-2.506,1.474
				c0.705-0.269,1.41-0.538,2.116-0.807c-2.153,0.594-1.679,0.547,1.421-0.142c-10.631-0.155-19.5,8.987-19.5,19.5
				C80.021,204.48,88.894,213.078,99.521,213.233L99.521,213.233z"/>
		</g>
	</g>
	<g>
		<g>
			<path fill="#333333" d="M118.838,118.537c5.845,1.843,11.337,3.214,17.519,3.661c8.562,0.619,16.338-3.468,22.744-8.636
				c8.351-6.738,14.95-15.778,21.71-24.039c6.724-8.217,13.994-16.199,18.84-25.727c6.078-11.948,6.962-23.963,3.487-36.871
				c0,3.456,0,6.912,0,10.368c0.065-0.276,0.13-0.552,0.195-0.828c-2.987,3.885-5.974,7.769-8.961,11.654
				c-3.726,0.502-7.452,1.005-11.177,1.507c-2.821-1.281-3.334-1.45-1.538-0.507c1.017,0.561,1.967,1.192,2.994,1.747
				c0.677,0.365,4.682,3.618,1.395,0.845c1.251,1.056,2.386,2.25,3.524,3.424c3.63,3.749-1.916-3.241,0.982,1.127
				c0.891,1.343,1.61,2.792,2.327,4.232c-2.041-4.097,0.068,0.476,0.335,1.292c0.495,1.516,0.842,3.078,1.192,4.633
				c0.189,0.837,0.862,6.096,0.283,1.131c0.185,1.587,0.263,3.184,0.345,4.779c0.167,3.25,0.059,6.512-0.105,9.759
				c-0.188,3.704-0.502,7.397-0.918,11.083c0.484-4.292-0.357,1.716-0.432,2.127c-0.332,1.822-0.779,3.62-1.229,5.415
				c-0.453,1.806-1.04,3.574-1.63,5.338c-1.727,5.161,1.763-3.314-0.731,1.438c-0.769,1.464-1.701,2.842-2.616,4.216
				c-0.322,0.484-3.679,4.806-0.949,1.369c-5.128,6.454-10.017,12.991-14.8,19.702c-0.193,0.271-3.757,4.965-1.253,1.777
				c-0.975,1.241-6.548,8.113-3.216,4.028c-2.101,2.576-4.548,4.86-7.034,7.054c-0.444,0.392-4.772,3.748-1.227,1.075
				c-1.316,0.992-2.675,1.926-4.031,2.863c-2.677,1.85-5.435,3.584-8.184,5.324c-8.964,5.673-12.511,17.265-6.996,26.68
				c5.227,8.922,17.69,12.685,26.68,6.996c12.252-7.754,23.624-16.056,32.476-27.659c-1.259,1.688-1.187,1.624,0.215-0.193
				c1.764-2.247,3.497-4.513,5.195-6.81c2.149-2.907,4.186-5.897,6.284-8.84c0.215-0.302,3.984-5.001,1.348-1.834
				c1.069-1.284,2.117-2.583,3.157-3.892c2.757-3.47,5.458-6.974,7.8-10.739c8.464-13.604,10.191-30.917,11.09-46.519
				c0.853-14.819-1.447-29.381-8.089-42.713c-6.371-12.789-19.178-22.362-32.277-27.355c-11.29-4.304-25.32,3.412-28.031,14.907
				c-0.947,4.016-0.794,7.417,0.273,11.383c0.286,1.064,1.043,5.267,0.405,0.488c0.128,0.958,0.033,6.073,0.778,1.248
				c-0.233,1.507-0.713,2.97-1.176,4.417c-0.769,2.049-0.715,1.932,0.164-0.35c-0.671,1.444-1.491,2.817-2.298,4.187
				c-0.82,1.394-1.748,2.724-2.665,4.054c-0.363,0.527-3.666,4.808-0.852,1.232c-4.223,5.368-8.699,10.561-13.064,15.814
				c-4.155,5.001-8.343,10.09-13.111,14.524c-2.839,2.64,0.825-0.237,1.82-0.613c0.701-0.046,1.402-0.092,2.103-0.138
				c-2.245-0.057-2.072,0.07,0.518,0.381c-3.141-0.464-6.206-1.671-9.221-2.622c-10.137-3.197-21.248,3.661-23.987,13.62
				C102.321,105.082,108.709,115.343,118.838,118.537L118.838,118.537z"/>
		</g>
	</g>
	<g>
		<g>
			<path fill="#333333" d="M130.521,181.233c-0.533-17.376-10.511-29.506-21.759-41.675c-2.35-2.542-4.539-5.203-6.702-7.903
				c-0.153-0.191-3.823-4.911-1.451-1.827c-1.514-1.969-3.006-3.955-4.5-5.94c-3.054-4.057-6.171-8.049-9.409-11.961
				c-1.051-1.27-2.097-2.543-3.138-3.822c-1.374-1.734-1.383-1.725-0.029,0.028c-0.671-0.885-1.328-1.781-1.971-2.687
				c-0.976-1.354-1.872-2.762-2.762-4.174c-0.583-0.95-1.14-1.915-1.67-2.896c0.912,2.503,1.049,2.873,0.409,1.11
				c-0.379-1.046-0.633-2.125-0.875-3.208c0.345,3.421,0.48,4.107,0.405,2.059c-0.008,2.234-0.578,4.313-1.712,6.237
				c-1.584,3.15-5.891,6.52-9.723,6.617c2.263,0.151,2.169,0.102-0.282-0.146c1.104,0.22,2.199,0.478,3.284,0.776
				c3.771,0.961,7.428,2.338,11.185,3.357c18.145,4.923,36.791,1.15,55.199,1.554c10.63,0.233,19.5-9.047,19.5-19.5
				c0-11.014-8.886-18.992-19.5-19.5c-2.389-0.136-2.396-0.115-0.019,0.064c-1.239-0.261-2.481-0.506-3.725-0.737
				c-4.242-0.814-8.585-1.179-12.898-1.303c-2.498-0.072-4.987-0.019-7.484-0.158c-2.34-0.233-2.36-0.214-0.062,0.058
				c-1.718-0.262-3.416-0.654-5.11-1.032c-5.039-1.126-9.969-2.679-14.955-4.006c-1.029-0.274-2.047-0.584-3.055-0.93
				c4.021,1.301-0.142-0.452-1.02-1.006c-2.273-1.436-4.578-2.816-6.829-4.286c-8.911-5.816-21.509-1.831-26.68,6.996
				c-5.572,9.512-1.888,20.882,6.996,26.68c5.567,3.633,10.914,6.845,17.166,9.224c5.202,1.979,10.926,3.168,16.317,4.53
				c6.79,1.715,13.857,2.776,20.859,2.909c1.286-0.004,2.571,0.004,3.857,0.023c0.252,0.003,6.527,0.46,2.53-0.09
				c4.718,0.649,9.323,1.838,14.112,2.067c0-13,0-26,0-39c-9.351-0.205-18.662,0.707-28,1.016c-4.37,0.145-8.73,0.022-13.084-0.358
				c3.943,0.344-2.891-0.617-3.747-0.819c-2.13-0.502-4.216-1.225-6.3-1.888c-11.334-3.604-22.118-4.935-33.17,0.252
				C38.8,81.533,36.776,96.422,39.296,107.72c2.136,9.577,8.7,17.837,14.622,25.365c2.709,3.444,5.53,6.795,8.304,10.187
				c-2.623-3.208,2.022,2.707,2.46,3.285c2.119,2.805,4.27,5.587,6.424,8.366c4.686,6.044,9.657,11.692,14.809,17.333
				c1.254,1.373,2.457,2.787,3.636,4.225c-3.383-4.126,0.271,0.67,0.869,1.65c0.455,0.774,0.876,1.565,1.265,2.375
				c-1.041-2.622-1.207-2.927-0.497-0.914c0.265,0.866,0.48,1.745,0.645,2.635c-0.333-2.904-0.438-3.235-0.314-0.993
				c0.326,10.622,8.624,19.5,19.5,19.5C121.405,200.733,130.848,191.862,130.521,181.233L130.521,181.233z"/>
		</g>
	</g>
	<g>
		<g>
			<path fill="#333333" d="M54.617,84.947c-4.997-1.834-9.362-7.654-12.477-11.743c-3.495-4.588-7.402-9.756-12.09-13.153
				c-4.145-3.003-10.653,1.995-8.814,6.776c1.79,4.653,5.204,8.544,8.297,12.411c3.417,4.273,8.571,7.956,10.808,13.022
				c2.736-2.736,5.473-5.473,8.209-8.209c-1.323-0.74-1.77-2.016-2.786-3.062c-1.705-1.756-3.351-3.562-5-5.37
				c-3.372-3.697-6.454-7.635-9.062-11.915c-3.454,2.019-6.908,4.038-10.362,6.057c2.807,4.533,6.029,8.748,9.29,12.958
				c3.033,3.915,5.798,7.788,9.862,10.694c5.845,4.18,11.513-4.581,7.271-9.423C38.43,73.334,27.076,61.358,26.521,46.233
				c-3.727,1.009-7.454,2.019-11.181,3.028c3.747,6.977,9.022,28.475,20.776,24.257c2.286-0.82,4.757-3.045,4.405-5.786
				c-0.873-6.804-5.327-13.079-8.617-19.028c-1.498-2.709-6.964-8.588-6.883-10.972c-3.009,1.727-6.019,3.454-9.028,5.181
				c4.792,2.492,7.928,7.635,11.64,11.437c4.097,4.196,8.034,8.388,13.793,10.168c3.27,1.011,6.344-1.177,7.381-4.191
				c1.777-5.17-2.87-10.18-6.003-13.69c-4.276-4.791-8.107-10.009-12.54-14.647c-2.424,3.141-4.847,6.282-7.271,9.423
				c10.77,7.956,18.177,19.813,30.933,25.105c5.247,2.176,8.973-4.675,6.776-8.814c-3.721-7.008-11.87-10.309-16.938-16.214
				c-2.424,3.141-4.847,6.282-7.271,9.423c13.292,9.492,26.651,18.989,42.246,24.292c7.934,2.698,15.893,4.875,24.023,6.876
				c3.662,0.901,7.445,1.222,11.136,2.037c3.871,0.855,7.634,2.163,11.528,2.899c7.561,1.431,10.788-10.134,3.19-11.571
				c-7.066-1.337-13.833-3.488-21-4.5c-7.537-1.064-15.059-3.902-22.279-6.205c-15.925-5.081-29.3-14.558-42.787-24.189
				c-5.88-4.199-11.439,4.567-7.271,9.423c4.227,4.925,12.033,8.08,15.062,13.786c2.259-2.938,4.517-5.876,6.776-8.814
				c-5.141-2.132-9.289-6.807-13.352-10.457c-4.976-4.469-9.308-9.444-14.714-13.438c-5.658-4.179-11.811,4.673-7.271,9.423
				c3.546,3.711,6.154,8.147,9.777,11.757c1.203,1.198,2.36,2.438,3.49,3.705c0.601,0.673,1.124,1.334,1.641,2.07
				c1.065,1.514,0.075,0.507,0.549-0.869c2.46-1.397,4.92-2.794,7.381-4.191c-4.41-1.363-8.139-6.553-11.144-9.885
				c-3.502-3.884-6.685-8.047-11.423-10.51c-4.088-2.125-8.87,0.508-9.028,5.181c-0.162,4.768,3.229,9.169,5.911,12.817
				c1.654,2.25,2.926,4.751,4.243,7.212c0.787,1.47,1.484,2.979,2.165,4.5c0.804,1.795,2.921,3.446,3.181,5.472
				c1.468-1.929,2.937-3.857,4.405-5.786c0.133-0.048,1.974-0.024,2.453,0.411c-0.667-0.605-1.108-1.376-1.588-2.127
				c-1.305-2.042-2.348-4.259-3.378-6.447c-1.639-3.483-2.889-7.187-4.711-10.579c-2.804-5.222-11.398-2.9-11.181,3.028
				c0.683,18.625,13.155,32.997,24.757,46.243c2.424-3.141,4.847-6.282,7.271-9.423c-3.006-2.149-5.188-5.937-7.434-8.818
				c-2.644-3.392-5.149-6.873-7.414-10.53c-4.063-6.561-14.402-0.575-10.362,6.057c2.747,4.509,6.006,9.21,9.688,13.001
				c3.66,3.768,6.836,9.062,11.464,11.651c5.645,3.158,10.537-2.937,8.209-8.209c-1.759-3.984-5.162-6.947-7.938-10.214
				c-3.148-3.704-8.167-7.698-9.957-12.352c-2.938,2.259-5.876,4.517-8.814,6.776c2.111,1.529,3.538,4.151,5.286,6.062
				c2.606,2.849,4.7,6.164,7.396,8.913c4.465,4.553,8.641,8.887,14.752,11.13C58.708,99.191,61.818,87.591,54.617,84.947
				L54.617,84.947z"/>
		</g>
	</g>
	<g>
		<g>
			<path fill="#333333" d="M50.521,115.733c1.627,0.719,1.819,0.638,0.576-0.243c-0.796-0.684-1.655-1.275-2.577-1.776
				c-2.344-1.44-4.247-3.351-6.039-5.408c-2.977-3.418-6.166-7.321-10.265-9.421c-4.545-2.328-10.328,1.475-8.814,6.776
				c2.543,8.901,10.873,15.436,16.543,22.314c1.946-3.343,3.892-6.686,5.838-10.028c-4.3-1.484-7.155-6.186-9.588-9.751
				c-3.203-4.693-6.275-9.476-9.492-14.158c-2.259,2.938-4.517,5.876-6.776,8.814c8.274,1.306,19.218,6.996,25.443-1.424
				c4.607-6.232-5.816-12.206-10.362-6.057c1.938-1.193,2.028-1.691,0.268-1.495c-1.259-0.07-2.458-0.367-3.692-0.612
				c-2.839-0.563-5.629-1.536-8.467-1.984c-4.647-0.734-10.098,3.979-6.776,8.814c7.076,10.299,13.634,25.069,26.252,29.424
				c6.211,2.144,9.311-5.815,5.838-10.028c-2.077-2.519-4.529-4.66-6.664-7.136c-2.198-2.549-5.854-6.597-6.793-9.883
				c-2.938,2.259-5.876,4.517-8.814,6.776c4.664,2.389,7.354,7.769,11.322,11.059c3.446,2.858,8.299,7.725,13.04,7.427
				C58.206,127.25,58.253,115.247,50.521,115.733L50.521,115.733z"/>
		</g>
	</g>
	<g>
		<g>
			<path fill="#333333" d="M34.493,92.552c-0.3,0.021-0.6,0.041-0.9,0.062c1.541,3.656,3.082,7.311,4.623,10.966
				c4.409-3.189,7.421-6.655,7.208-12.398c-0.255-6.88-5.064-14.34-8.283-20.195c-3.816-6.941-7.798-13.744-11.356-20.824
				c-3.285-6.537-1.828-14.84-0.931-21.763c0.993-7.658-11.02-7.563-12,0c-0.703,5.424-1.248,10.905-0.784,16.4
				c0.537,6.354,3.54,12.062,6.47,17.6c3.21,6.066,6.796,11.927,10.049,17.971c1.367,2.54,2.614,5.143,3.714,7.809
				c0.573,1.388,1.111,2.752,1.167,4.26c-0.04-1.081-0.547,0.226-1.311,0.779c-5.648,4.085-2.173,12.063,4.623,10.966
				c1.383-0.223,2.491-0.71,3.767-1.272C47.619,99.803,41.506,89.467,34.493,92.552L34.493,92.552z"/>
		</g>
	</g>
	<g>
		<g>
			<path fill="#333333" d="M44.593,153.519c3.861,1.506,7.05,5.136,10.77,7.093c4.232,2.226,8.519,4.35,12.766,6.547
				c4.092,2.117,8.35,3.907,12.478,5.952c3.427,1.698,7.551,2.788,10.005,5.864c1.946-3.343,3.892-6.686,5.838-10.028
				c-1.297-0.301-2.499-1.981-3.567-2.728c-2.535-1.775-4.807-3.815-7.083-5.906c-4.286-3.937-8.18-8.09-11.827-12.628
				c-7.677-9.555-13.947-19.798-19.605-30.648c-3.579-6.863-13.935-0.795-10.362,6.057c6.166,11.823,13.244,22.594,21.481,33.076
				c4.347,5.531,9.275,10.362,14.498,15.055c3.549,3.188,8.485,8.181,13.273,9.293c6.226,1.446,9.489-5.452,5.838-10.028
				c-2.534-3.177-6.17-4.911-9.825-6.48c-4.578-1.966-9.066-4.302-13.564-6.459c-4.814-2.308-9.548-4.843-14.289-7.302
				c-4.813-2.497-8.541-6.316-13.636-8.303C40.564,139.132,37.466,150.74,44.593,153.519L44.593,153.519z"/>
		</g>
	</g>
	<g>
		<g>
			<path fill="#333333" d="M42.521,214.4c1.575,0.167,3.179,1.099,4.738,1.452c2.26,0.512,4.685,0.672,6.992,0.844
				c5.069,0.376,10.318-0.355,15.371-0.731c11.559-0.859,22.974-1.217,34.494-2.78c3.247-0.441,4.969-4.55,4.191-7.381
				c-0.953-3.465-4.142-4.63-7.381-4.191c-10.442,1.417-20.822,1.625-31.304,2.351c-5.116,0.355-10.236,0.882-15.371,0.731
				c-4.092-0.12-7.701-1.868-11.731-2.296C34.83,201.583,34.909,213.591,42.521,214.4L42.521,214.4z"/>
		</g>
	</g>
	<g>
		<g>
			<path fill="#333333" d="M57.216,213.914c9.912-6.484,20.944-10.74,31.41-16.199c10.027-5.23,17.396-12.978,24.076-21.954
				c4.626-6.216-5.798-12.188-10.362-6.057c-6.246,8.392-13.33,14.474-22.691,19.137c-9.59,4.778-19.493,8.824-28.49,14.71
				C44.713,207.77,50.719,218.164,57.216,213.914L57.216,213.914z"/>
		</g>
	</g>
	<g>
		<g>
			<path fill="#333333" d="M78.117,207.852c6.007-1.545,11.797-3.689,17.433-6.272c2.974-1.363,3.681-5.601,2.153-8.209
				c-1.773-3.027-5.236-3.515-8.209-2.153c-4.685,2.147-9.579,3.779-14.567,5.062C67.437,198.207,70.616,209.781,78.117,207.852
				L78.117,207.852z"/>
		</g>
	</g>
	<g>
		<g>
			<path fill="#333333" d="M61.493,218.247c2.508,1.286,4.982,1.609,7.755,1.927c-0.635-0.1-0.631-0.097,0.012,0.011
				c1.017,0.175,1.934,0.212,2.944,0.266c1.33,0.072,2.651,0.246,3.984,0.281c7.743,0.204,7.723-11.797,0-12
				c-0.85-0.022-1.694-0.093-2.542-0.167c-0.244-0.021-2.968-0.258-1.682-0.036c-1.101-0.19-2.218-0.299-3.328-0.426
				c1.023,0.117-2.279-0.83-1.086-0.219c-2.911-1.492-6.49-0.783-8.209,2.153C57.757,212.741,58.585,216.756,61.493,218.247
				L61.493,218.247z"/>
		</g>
	</g>
	<g>
		<g>
			<path fill="#333333" d="M72.926,211.519c11.369,2.681,22.891,4.895,34.624,4.419c12.628-0.513,24.941-5.053,36.57-9.648
				c10.773-4.256,21.326-8.753,30.847-15.431c9.137-6.409,16.895-14.356,24.178-22.757c14.819-17.094,27.145-36.732,32.636-58.862
				c5.856-23.602,3.467-48.323,0.74-72.173c-0.869-7.596-12.878-7.681-12,0c2.479,21.678,4.712,43.83,0.475,65.434
				c-4.118,20.999-15.626,39.605-29.217,55.803c-6.476,7.718-13.472,15.158-21.544,21.23c-8.401,6.319-17.836,10.504-27.507,14.46
				c-10.586,4.331-21.862,8.696-33.323,9.816c-11.223,1.097-22.431-1.303-33.289-3.863C68.59,198.173,65.396,209.743,72.926,211.519
				L72.926,211.519z"/>
		</g>
	</g>
	<g>
		<g>
			<path fill="#333333" d="M147.307,51.328c3.776-16.395,20.261-28.464,35.136-34.602c9.533-3.934,16.34,0.382,23.66,6.333
				c6.956,5.655,15.316,10.329,20.237,18.036c4.15,6.5,14.539,0.487,10.362-6.057c-5.862-9.181-14.991-14.675-23.266-21.402
				c-9.333-7.586-18.61-12.54-30.896-9.574c-10.958,2.646-21.675,10.688-30.192,17.814c-8.138,6.809-14.22,15.879-16.612,26.262
				C134.001,55.67,145.571,58.868,147.307,51.328L147.307,51.328z"/>
		</g>
	</g>
	<g>
		<g>
			<path fill="#333333" d="M235.55,39.581c5.605-4.199,11.233-8.373,16.548-12.938c2.483-2.133,2.181-6.305,0-8.485
				c-2.442-2.442-6.007-2.129-8.485,0c-4.542,3.902-9.33,7.473-14.119,11.062c-2.612,1.957-3.948,5.144-2.153,8.209
				C228.852,40.008,232.926,41.547,235.55,39.581L235.55,39.581z"/>
		</g>
	</g>
	<g>
		<g>
			<path fill="#333333" d="M236.64,57.328c-0.962,1.199-1.034,1.376-0.215,0.533c0.337-0.321,1.23-0.708,1.643-0.944
				c1.336-0.761,2.725-1.446,4.084-2.164c4.106-2.167,8.149-3.914,11.612-7.111c5.696-5.26-2.811-13.725-8.485-8.485
				c-5.379,4.967-18.693,6.5-20.21,14.981C223.716,61.703,235.28,64.937,236.64,57.328L236.64,57.328z"/>
		</g>
	</g>
	<g>
		<g>
			<path fill="#333333" d="M227.521,36.066c-0.113,7.211,3.868,12.729,7.819,18.362c1.874,2.672,5.211,3.909,8.209,2.153
				c2.646-1.55,4.034-5.527,2.152-8.209c-2.575-3.67-6.255-7.577-6.181-12.305C239.643,28.324,227.643,28.336,227.521,36.066
				L227.521,36.066z"/>
		</g>
	</g>
	<g>
		<g>
			<path fill="#333333" d="M231.736,39.661c0.664,3.116,1.038,6.286,2,9.333c0.984,3.116,4.139,5.082,7.381,4.191
				c3.064-0.843,5.175-4.262,4.191-7.381c-0.962-3.047-1.336-6.217-2-9.333c-0.682-3.199-4.369-5.019-7.381-4.191
				C232.638,33.185,231.054,36.466,231.736,39.661L231.736,39.661z"/>
		</g>
	</g>
	<g>
		<g>
			<path fill="#333333" d="M17.111,21.773c2.004,5.436,7.77,10.203,12.477,13.333c6.791,4.516,13.121,9.934,20.172,14.036
				c3.483,2.026,7.29,3.302,10.712,5.45c3.274,2.056,6.283,4.395,9.748,6.147c3.319,1.678,7.006,2.73,10.495,3.986
				c4.374,1.575,8.497,3.75,12.892,5.294c3.05,1.071,4.35-3.76,1.329-4.821c-6.601-2.318-13.015-5.257-19.583-7.706
				c-7.153-2.667-12.992-7.929-19.974-11.059c-6.096-2.732-11.345-7.276-16.665-11.233c-2.717-2.021-5.807-3.604-8.425-5.734
				c-2.726-2.218-7.109-5.638-8.357-9.022C20.827,17.445,15.993,18.741,17.111,21.773L17.111,21.773z"/>
		</g>
	</g>
	<g>
		<g>
			<path fill="#333333" d="M17.629,56.715c0.118-0.048,0.235-0.095,0.353-0.143c0.941,0.383,1.882,0.766,2.823,1.149
				c-1.808-2.411-3.194-6.615-4.123-9.403c-0.847-2.54-5.21-2.275-4.911,0.665c0.508,4.993,3.536,9.591,5.089,14.29
				c1.393-0.811,2.786-1.622,4.178-2.432c-2.567-2.735-4.54-6.887-5.232-10.522c-1.607,0.443-3.214,0.886-4.821,1.329
				c1.039,4.156,2.691,7.584,4.377,11.472c1.309-1.01,2.618-2.02,3.926-3.03c-2.135-2.087-2.266-5.664-2.718-8.448
				c-0.587-3.611-0.769-7.264-1.639-10.824c-0.682-2.791-4.868-2.119-4.911,0.665c-0.06,3.953,0.744,7.694,1.589,11.54
				c1.607-0.443,3.214-0.886,4.821-1.329c-1.777-5.097-2.295-11.405-1.343-16.759c0.487-2.737,0.765-5.582,2.091-8.065
				c0.641-1.201,1.885-3.922,2.978-4.728c2.564-1.892,0.075-6.235-2.524-4.317c-4.282,3.159-6.126,9.294-7.056,14.249
				c-1.285,6.848-1.283,14.307,1.032,20.95c1.057,3.034,5.518,1.838,4.821-1.329c-0.749-3.408-1.464-6.695-1.411-10.21
				c-1.637,0.222-3.274,0.443-4.911,0.665c1.636,6.699,0.32,16.273,5.643,21.478c2.168,2.119,5.004-0.544,3.926-3.03
				c-1.5-3.46-2.952-6.596-3.873-10.278c-0.79-3.16-5.417-1.799-4.821,1.329c0.863,4.536,3.362,9.365,6.518,12.728
				c1.684,1.794,4.966-0.049,4.178-2.432c-1.39-4.203-4.46-8.531-4.911-12.96c-1.637,0.222-3.274,0.443-4.911,0.665
				c1.136,3.408,2.487,7.743,4.627,10.597c0.74,0.986,1.597,1.353,2.823,1.149c0.821-0.137,1.322-0.523,1.853-1.143
				C23.25,57.817,19.73,54.263,17.629,56.715L17.629,56.715z"/>
		</g>
	</g>
	<g>
		<g>
			<path fill="#333333" d="M21.357,27.769c2.599,0.715,4.427,3.184,6.651,4.66c3.045,2.021,6.286,3.681,9.275,5.816
				c6.631,4.735,13.305,8.527,18.721,14.756c2.119,2.437,5.641-1.114,3.536-3.536c-5.414-6.226-11.891-9.645-18.381-14.516
				c-3.396-2.549-6.96-4.71-10.627-6.838c-2.909-1.689-4.468-4.235-7.845-5.164C19.572,22.09,18.252,26.914,21.357,27.769
				L21.357,27.769z"/>
		</g>
	</g>
	<g>
		<g>
			<path fill="#333333" d="M81.01,65.142c4.116,2.166,8.82,1.986,12.815,4.153c4.263,2.312,9.603,1.97,14,4.204
				c4.076,2.071,9.506,2.384,13.972,3.077c5.068,0.786,9.176,3.147,14.475,2.783c3.198-0.22,3.22-5.222,0-5
				c-5.249,0.361-9.731-2.074-14.82-2.864c-4.559-0.708-8.855-1.691-13.141-3.297c-4.253-1.594-9.241-1.744-13.218-3.901
				c-3.652-1.981-7.838-1.513-11.56-3.472C80.683,59.324,78.156,63.64,81.01,65.142L81.01,65.142z"/>
		</g>
	</g>
	<g>
		<g>
			<path fill="#333333" d="M59.129,58.626c5.105,4.106,11.264,1.446,16.918,3.555c2.796,1.043,5.469,2.455,8.088,3.836
				c3.317,1.749,7.695,2.684,11.285,3.756c3.867,1.155,7.799,2.153,11.688,3.246c3.83,1.076,7.7,1.041,11.507,2.422
				c3.528,1.28,7.382,1.682,10.998,2.754c3.269,0.969,7.154,2.299,10.535,2.538c3.219,0.228,3.197-4.774,0-5
				c-2.919-0.206-6.296-1.729-9.206-2.36c-3.608-0.782-7.491-1.603-10.998-2.754c-2.878-0.945-5.474-1.671-8.5-1.964
				c-4.435-0.43-8.711-2.166-13.007-3.27c-6.037-1.551-12.019-3.671-17.528-6.56c-2.444-1.282-5.91-3.178-8.702-3.202
				c-3.066-0.027-6.826,1.654-9.542-0.532C60.177,53.09,56.616,56.605,59.129,58.626L59.129,58.626z"/>
		</g>
	</g>
	<g>
		<g>
			<path fill="#333333" d="M135.43,78.745c0.592-1.184,2.501-2.304,3.484-3.244c-1.01,0.13-2.02,0.261-3.03,0.391
				c-0.469-0.362,0.445,2.501,0.603,2.853c0.948,2.112,3.974,1.268,4.569-0.597c1.027-3.218,0.714-7.782,0.125-11.079
				c-0.463-2.59-4.123-2.176-4.821,0c-0.752,2.345-1.052,4.831-1.5,7.25c1.637,0.222,3.274,0.443,4.911,0.665
				c0.203-6.995-0.203-13.68,1.286-20.585c0.678-3.144-4.142-4.481-4.821-1.329c-1.583,7.342-1.248,14.465-1.464,21.915
				c-0.081,2.781,4.392,3.467,4.911,0.665c0.448-2.419,0.748-4.905,1.5-7.25c-1.607,0-3.214,0-4.821,0
				c0.401,2.244,0.578,6.217-0.125,8.421c1.523-0.199,3.046-0.398,4.569-0.597c-0.802-1.787-0.752-3.378-2.397-4.647
				c-0.889-0.686-2.294-0.312-3.03,0.391c-1.516,1.45-3.259,2.242-4.266,4.256C129.675,79.096,133.988,81.629,135.43,78.745
				L135.43,78.745z"/>
		</g>
	</g>
	<g>
		<g>
			<path fill="#333333" d="M138.932,72.569c-1.4-7.052-1.02-15.123,0.062-22.202c0.557-3.644,1.978-6.959,3.792-10.139
				c1.417-2.484,3.447-4.726,4.02-7.58c0.397-1.976-1.71-4.153-3.672-2.823c-4.904,3.323-8.204,8.146-9.024,14.041
				c-0.532,3.821-1.078,7.36-1.341,11.243c-0.312,4.603,0.991,8.144,1.252,12.625c1.553-0.421,3.106-0.841,4.659-1.262
				c-0.76-1.461-0.833-3.511-1.034-5.113c-0.394-3.155-5.399-3.194-5,0c0.322,2.577,0.505,5.306,1.716,7.637
				c1.131,2.175,4.803,1.208,4.659-1.262c-0.125-2.141-0.449-3.986-1.121-6.04c-1.018-3.114-0.016-7.061,0.011-10.273
				c0.056-6.45,2.206-13.524,7.746-17.279c-1.224-0.941-2.448-1.882-3.673-2.823c-0.652,3.247-3.587,6.365-5.092,9.292
				c-1.615,3.139-2.439,6.585-2.969,10.05c-1.141,7.463-1.287,15.82,0.186,23.238C134.738,77.059,139.557,75.717,138.932,72.569
				L138.932,72.569z"/>
		</g>
	</g>
	<g>
		<g>
			<path fill="#333333" d="M141.43,36.096c-0.572-1.106,8.407-8.339,9.621-9.367c4.249-3.598,8.747-7.029,12.792-10.849
				c4.172-3.938,10.959-6.087,16.231-8.253c6.45-2.65,11.601-1.938,17.311,1.889c2.687,1.801,5.187-2.532,2.524-4.317
				c-5.641-3.78-11.287-5.324-17.961-3.552c-3.467,0.92-6.848,2.686-10.094,4.177c-3.691,1.696-7.322,2.913-10.468,5.526
				c-5.93,4.924-11.707,10.046-17.632,14.99c-3.044,2.54-8.947,7.824-6.641,12.28C138.595,41.484,142.91,38.955,141.43,36.096
				L141.43,36.096z"/>
		</g>
	</g>
	<g>
		<g>
			<path fill="#333333" d="M146.432,31.444c0.082,0.564,1.666-2.193,1.902-2.566c0.934-1.472,2.241-2.62,3.52-3.78
				c2.411-2.188,5.076-4.292,7.804-6.081c2.684-1.76,0.181-6.091-2.524-4.317c-3.677,2.411-7.071,5.212-10.279,8.21
				c-2.413,2.255-5.749,6.386-5.245,9.863C142.072,35.954,146.889,34.596,146.432,31.444L146.432,31.444z"/>
		</g>
	</g>
	<g>
		<g>
			<path fill="#333333" d="M190.396,5.233c16.743,1.943,38.528,9.641,41.214,28.665c0.449,3.182,5.266,1.823,4.821-1.329
				c-3.036-21.501-27.199-30.149-46.036-32.335C187.197-0.138,187.233,4.866,190.396,5.233L190.396,5.233z"/>
		</g>
	</g>
	<g>
		<g>
			<path fill="#333333" d="M232.033,26.574c-1.707-0.772-3.384-3.377-4.72-4.676c-2.141-2.08-4.819-3.667-7.28-5.324
				c-2.994-2.017-6.588-3.303-9.875-4.75c-1.728-0.761-5.668-1.537-6.869-2.984c-0.368,1.393-0.735,2.786-1.103,4.178
				c5.459-1.365,10.905,2.942,14.514,6.358c4.158,3.935,7.968,7.343,10.412,12.618c1.354,2.923,5.663,0.382,4.317-2.524
				c-3.21-6.93-8.999-12.064-14.814-16.884c-3.997-3.314-10.58-5.685-15.759-4.39c-1.964,0.491-2.248,2.798-1.103,4.178
				c1.457,1.756,4.11,2.15,6.131,3.016c3.387,1.452,6.766,2.913,10.043,4.601c3.286,1.692,6.44,4.071,9.076,6.633
				c1.436,1.395,2.656,3.429,4.506,4.266C232.423,32.21,234.967,27.902,232.033,26.574L232.033,26.574z"/>
		</g>
	</g>
	<g>
		<g>
			<path fill="#333333" d="M227.932,23.319c-0.599-1.805-1.236-3.522-2.347-5.081c-1.16-1.629-2.511-3.118-3.796-4.647
				c-2.077-2.471-5.596,1.085-3.536,3.536c2.03,2.415,3.851,4.49,4.857,7.522C224.121,27.693,228.95,26.388,227.932,23.319
				L227.932,23.319z"/>
		</g>
	</g>
	<g>
		<g>
			<path fill="#333333" d="M236.146,27.608c-0.078-0.954,1.209-1.786,1.768-2.357c1.802-1.841-0.024-4.721-2.432-4.178
				c-0.515,0.042-1.031,0.083-1.546,0.125c0.582,0.582,1.164,1.164,1.746,1.746c-0.066-0.181-0.133-0.361-0.199-0.542
				c-0.214,0.811-0.429,1.622-0.643,2.432c0.446-0.469,3.373-0.202,4.188-0.357c2.327-0.442,4.445-1.193,6.609-2.163
				c5.329-2.389,10.767-4.463,16.174-6.671c-0.811-1.393-1.622-2.786-2.432-4.178c-2.73,2.799-5.573,5.546-8.217,8.43
				c-2.116,2.308-3.573,5.244-5.382,7.785c-2.97,4.174-9.444,10.636-5.542,16.19c1.838,2.616,6.176,0.121,4.317-2.524
				c-2.299-3.272,5.497-11.013,7.286-13.654c3.21-4.739,7.08-8.597,11.073-12.691c1.616-1.657,0.006-5.174-2.432-4.178
				c-5.249,2.143-10.572,4.077-15.727,6.439c-3.107,1.424-5.874,2.379-9.296,2.55c-1.626,0.081-3.011,0.285-4.154,1.487
				c-0.579,0.609-0.949,1.599-0.643,2.432c1.051,2.859,3.506,2.758,6.149,2.163c-0.811-1.393-1.622-2.786-2.432-4.178
				c-1.81,1.85-3.467,3.016-3.232,5.893C231.407,30.798,236.409,30.824,236.146,27.608L236.146,27.608z"/>
		</g>
	</g>
	<g>
		<g>
			<path fill="#333333" d="M246.18,39.721c-0.304-0.525-0.692-0.995-1.099-1.443c-0.495-0.544-0.522-0.56-0.917-1.063
				c-0.713-0.909-1.457-1.789-2.109-2.744c-0.767-1.123-2.182-1.622-3.42-0.897c-1.113,0.652-1.667,2.293-0.897,3.42
				c0.747,1.094,1.585,2.121,2.414,3.153c0.535,0.667,1.35,1.473,1.711,2.097C243.477,45.034,247.799,42.517,246.18,39.721
				L246.18,39.721z"/>
		</g>
	</g>
	<g>
		<g>
			<path fill="#333333" d="M237.771,26.233c-0.059,0.606,1.299-0.971,1.58-1.232c0.945-0.878,1.924-2.109,3.166-2.576
				c0.776-0.292,1.648-0.231,2.442-0.507c1.046-0.364,2.061-0.83,3.073-1.276c2.79-1.229,0.644-4.998-1.926-4.569
				c-1.111,0.185-1.983,0.691-2.861,1.381c-0.894,0.703-2.459,1.08-3.53,1.447c-1.893,0.648-4.334-0.045-4.855,2.668
				c-0.606,3.15,4.213,4.494,4.821,1.329c-1.241,0.774-1.527,1.137-0.857,1.089c0.319,0.003,0.638-0.013,0.956-0.048
				c0.858-0.061,1.659-0.313,2.438-0.666c0.789-0.358,1.625-0.608,2.418-0.958c0.959-0.423,1.774-1.25,2.799-1.421
				c-0.642-1.523-1.284-3.046-1.926-4.569c-2.521,1.111-5.082,1.219-7.303,2.985c-2.219,1.764-5.143,3.936-5.435,6.924
				C232.458,29.442,237.461,29.412,237.771,26.233L237.771,26.233z"/>
		</g>
	</g>
	<g>
		<g>
			<path fill="#333333" d="M246.164,36.751c3.332-2.924,7.289-5.856,9.812-9.552c2.513-3.681,5.186-7.2,7.579-10.954
				c1.739-2.728-2.59-5.233-4.317-2.524c-1.967,3.086-4.226,5.919-6.255,8.963c-2.746,4.122-6.654,7.284-10.354,10.531
				C240.201,35.346,243.751,38.868,246.164,36.751L246.164,36.751z"/>
		</g>
	</g>
	<g>
		<g>
			<path fill="#333333" d="M235.646,55.608c0.059,2.207,0.669,5.755,3.246,6.464c2.543,0.699,3.77-1.897,5.17-3.403
				c1.073-1.154,2.892-1.779,4.179-2.661c1.875-1.284,3.72-2.63,5.542-3.991c3.174-2.371,6.318-4.932,8.522-8.272
				c1.782-2.7-2.55-5.201-4.317-2.524c-2.703,4.096-7.299,7.116-11.353,9.728c-1.596,1.029-3.193,2.073-4.781,3.125
				c-0.732,0.484-2.396,3.052-2.961,3.176c0.811,0.214,1.622,0.429,2.432,0.643c-0.226-0.762-0.453-1.523-0.679-2.285
				C240.561,52.39,235.56,52.382,235.646,55.608L235.646,55.608z"/>
		</g>
	</g>
	<g>
		<g>
			<path fill="#333333" d="M254.146,45.358c-0.096,0.869,2.339-0.297,2.901-0.567c1.235-0.591,2.055-1.347,2.882-2.422
				c1.184-1.538-0.431-3.798-2.159-3.762c-0.386,0.007-0.771,0.016-1.157,0.029c-0.662,0.019-1.366-0.434-1.008,0.221
				c0.084,0.642,0.168,1.284,0.252,1.926c-1.635,0.932-1.934,1.338-0.897,1.217c0.459,0.032,0.591,0.038,0.396,0.017
				c1.067,0.191,2.094,0.239,3.167,0.083c2.374-0.345,4.808-1.078,7.037-1.958c-0.642-1.523-1.284-3.046-1.926-4.569
				c-0.614,0.31-4.778,1.663-4.127,2.51c0.084,0.642,0.168,1.284,0.252,1.926c0.014-0.098,0.029-0.196,0.043-0.293
				c-0.383,0.498-0.766,0.996-1.149,1.494c0.247-0.181,0.767-0.147,1.032-0.192c0.304-0.052,0.608-0.105,0.912-0.157
				c1.386,0.042,1.39-0.489,0.013-1.591c-0.258,1.105-3.03,2.591-3.857,3.445c-2.244,2.315,1.288,5.854,3.536,3.536
				c2.255-2.327,5.229-3.615,5.357-7.225c0.15-4.249-4.609-3.023-7.057-2.895c-2.837,0.148-5.129,2.952-2.711,5.37
				c2.774,2.774,7.564-0.238,10.28-1.609c2.506-1.265,0.72-5.615-1.926-4.569c-2.179,0.861-5.424,2.255-7.792,1.831
				c-1.529-0.274-3.248-0.274-4.501,0.752c-1.329,1.088-1.24,3.166-0.06,4.346c1.539,1.539,3.897,1.399,5.893,1.357
				c-0.72-1.254-1.439-2.508-2.159-3.762c-0.786,1.022-2.863,0.986-3.941,1.612c-1.609,0.936-2.324,2.066-2.525,3.899
				C248.795,48.561,253.798,48.527,254.146,45.358L254.146,45.358z"/>
		</g>
	</g>
	<g>
		<g>
			<path fill="#333333" d="M254.789,49.876c0.814-0.835,1.593-1.745,2.532-2.445c1.241-0.925,2.798-1.413,4.087-2.289
				c-1.224-0.941-2.448-1.882-3.672-2.823c-0.029,0.096-1.353,1.059-1.646,1.569c-0.879,1.531-2.143,2.225-3.461,3.327
				c-2.708,2.266-5.348,4.531-8.125,6.75c-2.519,2.012,1.043,5.526,3.536,3.536c3.055-2.44,5.89-5.054,9.033-7.363
				c1.218-0.895,2.324-1.886,3.048-3.226c0.691-1.281,1.961-1.704,2.437-3.264c0.617-2.02-1.842-4.069-3.672-2.823
				c-1.301,0.886-2.729,1.499-4.087,2.289c-1.367,0.796-2.455,2.11-3.544,3.227C249.001,48.648,252.534,52.187,254.789,49.876
				L254.789,49.876z"/>
		</g>
	</g>
	<g>
		<g>
			<path fill="#333333" d="M234.738,53.971c-2.384,3.25-1.962,9.214-2.19,13.056c-0.204,3.429-0.461,8.22,2.712,10.365
				c0.889,0.601,2.317,0.398,3.03-0.391c1.902-2.106,1.761-5.367,2.376-8.009c1.033-4.436,2.289-9.078,4.14-13.247
				c-1.553-0.421-3.106-0.841-4.659-1.262c0,0.083,0,0.167,0,0.25c0,3.224,5,3.224,5,0c0-0.083,0-0.167,0-0.25
				c0-2.327-3.608-3.628-4.659-1.262c-1.49,3.357-2.608,6.945-3.627,10.472c-0.631,2.184-1.126,4.408-1.625,6.625
				c-0.186,0.828,0.078,2.527-0.482,3.147c1.01-0.13,2.02-0.261,3.03-0.391c-0.977-0.66-0.209-6.506-0.145-7.578
				c0.156-2.629-0.18-6.823,1.417-9.001C240.965,53.89,236.623,51.4,234.738,53.971L234.738,53.971z"/>
		</g>
	</g>
	<g>
		<g>
			<path fill="#333333" d="M239.236,57.444c-1.097,3.16-6.373,15.654-0.633,17.233c2.678,0.737,3.887-2.293,4.454-4.279
				c1.151-4.027,1.472-8.215,2.625-12.25c0.888-3.107-3.937-4.424-4.821-1.329c-0.682,2.387-1.145,4.775-1.534,7.226
				c-0.338,2.134-0.559,4.988-1.839,6.802c0.498-0.383,0.996-0.766,1.494-1.149c-0.126,0.053-0.253,0.105-0.379,0.158
				c0.642,0.084,1.284,0.168,1.926,0.252c-0.084-0.061-0.169-0.123-0.253-0.184c0.383,0.498,0.766,0.996,1.149,1.494
				c-1.393-3.579,1.461-9.273,2.632-12.645C245.118,55.719,240.287,54.418,239.236,57.444L239.236,57.444z"/>
		</g>
	</g>
	<g>
		<g>
			<path fill="#333333" d="M239.932,78.398c0.083-0.292,0.167-0.583,0.25-0.875c-1.607,0-3.214,0-4.821,0
				c0.204,1.039-1.077,3.056-1.479,4.017c-0.732,1.75-1.309,3.48-0.896,5.358c0.478,2.177,3.504,2.372,4.569,0.597
				c2.569-4.282,1.954-9.774,3.627-14.347c-1.224,0.498-2.448,0.996-3.672,1.494c-0.693-0.527-0.422,1.161-0.483,1.719
				c-0.156,1.417-0.13,2.82-0.13,4.247c0,3.233,4.888,3.212,5,0c0.11-3.135,0.953-5.891,1.911-8.835
				c1-3.075-3.828-4.382-4.821-1.329c-1.094,3.362-1.965,6.601-2.089,10.165c1.667,0,3.333,0,5,0c0-3.473,1.306-7.874-1.863-10.284
				c-1.386-1.054-3.178,0.142-3.673,1.494c-1.5,4.099-0.835,9.34-3.123,13.153c1.523,0.199,3.046,0.398,4.569,0.597
				c-0.255-1.162,1.266-3.602,1.725-4.711c0.656-1.585,0.985-2.964,0.65-4.664c-0.495-2.517-4.176-2.261-4.821,0
				c-0.083,0.292-0.167,0.583-0.25,0.875C234.223,80.175,239.048,81.492,239.932,78.398L239.932,78.398z"/>
		</g>
	</g>
	<g>
		<g>
			<path fill="#333333" d="M235.611,82.898c0.434,3.202-0.194,7.282-1.623,10.199c1.523,0.199,3.046,0.398,4.569,0.597
				c-0.303-1.919,0.019-3.92,0.375-5.796c-1.637-0.222-3.274-0.443-4.911-0.665c-0.437,9.466-2.206,19.347-4.786,28.46
				c-0.88,3.109,3.945,4.427,4.821,1.329c2.7-9.539,4.506-19.871,4.964-29.79c0.129-2.794-4.382-3.449-4.911-0.665
				c-0.541,2.848-0.83,5.579-0.375,8.454c0.336,2.122,3.663,2.447,4.569,0.597c2.126-4.339,2.77-9.301,2.127-14.051
				C240.001,78.386,235.184,79.746,235.611,82.898L235.611,82.898z"/>
		</g>
	</g>
	<g>
		<g>
			<path fill="#333333" d="M226.646,134.983c-0.3-2.737,1.279-5.246,2.286-7.71c1.406-3.441,2.31-6.849,3-10.5
				c0.595-3.151-4.223-4.495-4.821-1.329c-0.69,3.655-1.609,7.051-3,10.5c-1.185,2.939-2.824,5.761-2.464,9.04
				C221.994,138.152,226.998,138.186,226.646,134.983L226.646,134.983z"/>
		</g>
	</g>
	<g>
		<g>
			<path fill="#333333" d="M228.432,132.398c0.5-2.808,1.537-5.924,2.683-8.528c1.373-3.119,1.668-6.652,2.031-10.012
				c0.346-3.204-4.658-3.17-5,0c-0.352,3.261-0.905,6.164-2.096,9.21c-0.982,2.511-1.966,5.343-2.44,8
				C223.049,134.221,227.867,135.568,228.432,132.398L228.432,132.398z"/>
		</g>
	</g>
	<g>
		<g>
			<path fill="#333333" d="M199.43,175.37c1.986-3.973,6.018-6.991,8.908-10.337c2.747-3.18,5.052-6.707,7.127-10.351
				c4.256-7.472,7.085-15.73,10.342-23.66c1.225-2.983-3.614-4.269-4.821-1.329c-3.323,8.091-6.327,16.301-10.668,23.923
				c-2.172,3.814-4.882,7.243-7.821,10.488c-2.588,2.857-5.636,5.247-7.384,8.742C193.675,175.721,197.988,178.254,199.43,175.37
				L199.43,175.37z"/>
		</g>
	</g>
	<g>
		<g>
			<path fill="#333333" d="M205.18,166.87c3.163-6.075,7.308-11.691,10.75-17.625c1.621-2.795-2.701-5.311-4.317-2.524
				c-3.442,5.934-7.587,11.55-10.75,17.625C199.376,167.202,203.691,169.731,205.18,166.87L205.18,166.87z"/>
		</g>
	</g>
	<g>
		<g>
			<path fill="#333333" d="M214.807,156.398c0.744-3.425,4.16-6.535,5.998-9.528c2.037-3.316,2.654-7.275,5-10.375
				c-1.523-0.642-3.046-1.284-4.569-1.926c-0.174,0.862-0.549,1.621-1.123,2.278c-1.846,2.655,2.491,5.15,4.317,2.524
				c0.82-1.179,1.344-2.068,1.627-3.472c0.586-2.903-2.88-4.159-4.569-1.926c-2.565,3.389-3.339,7.67-5.56,11.287
				c-1.965,3.199-5.109,5.981-5.942,9.81C209.302,158.212,214.122,159.548,214.807,156.398L214.807,156.398z"/>
		</g>
	</g>
	<g>
		<g>
			<path fill="#333333" d="M162.158,203.392c7.946-4.772,14.829-10.553,22.133-16.244c6.394-4.982,13.874-10.023,18.639-16.652
				c1.886-2.624-2.454-5.116-4.317-2.524c-4.469,6.218-11.93,10.887-17.857,15.641c-6.864,5.505-13.573,10.93-21.121,15.463
				C156.875,200.732,159.387,205.056,162.158,203.392L162.158,203.392z"/>
		</g>
	</g>
	<g>
		<g>
			<path fill="#333333" d="M141.561,212.394c4.411-0.651,8.821-3.482,12.88-5.252c5.021-2.19,10.083-4.246,14.899-6.87
				c9.302-5.069,16.96-13.226,23.95-21.021c2.146-2.393-1.379-5.941-3.536-3.536c-6.436,7.177-13.217,14.113-21.387,19.328
				c-4.046,2.582-8.582,4.407-12.982,6.281c-4.717,2.009-10.094,5.501-15.153,6.248
				C137.051,208.042,138.408,212.859,141.561,212.394L141.561,212.394z"/>
		</g>
	</g>
	<g>
		<g>
			<path fill="#333333" d="M186.283,187.517c5.232-3.755,9.556-8.42,13.756-13.266c2.101-2.424-1.42-5.976-3.536-3.536
				c-3.896,4.495-7.886,8.998-12.744,12.484C181.165,185.061,183.658,189.401,186.283,187.517L186.283,187.517z"/>
		</g>
	</g>
	<g>
		<g>
			<path fill="#333333" d="M181.936,191.519c1.445-0.221,2.662-1.563,3.644-2.564c1.381-1.408,2.558-3.04,3.6-4.709
				c1.713-2.743-2.614-5.251-4.317-2.524c-0.682,1.091-1.411,2.124-2.258,3.093c-0.378,0.432-0.785,0.824-1.205,1.214
				c-0.228,0.212-0.448,0.43-0.677,0.64c-0.018,0.017,0.581-0.077-0.116,0.029c-1.349,0.206-2.075,1.879-1.746,3.075
				C179.253,191.2,180.59,191.724,181.936,191.519L181.936,191.519z"/>
		</g>
	</g>
	<g>
		<g>
			<path fill="#333333" d="M137.896,211.358c2.223-0.105,3.933-1.372,5.819-2.411c2.979-1.642,5.76-3.641,8.567-5.555
				c2.646-1.804,0.149-6.139-2.524-4.317c-2.052,1.399-4.097,2.807-6.194,4.139c-1.038,0.659-2.104,1.268-3.181,1.861
				c-0.743,0.41-1.611,1.242-2.488,1.284C134.687,206.51,134.672,211.511,137.896,211.358L137.896,211.358z"/>
		</g>
	</g>
	<g>
		<g>
			<path fill="#333333" d="M101.885,217.392c6.049,4.377,15.91,2.863,22.762,1.514c9.624-1.894,17.597-6.296,26.011-11.139
				c2.793-1.608,0.276-5.929-2.524-4.317c-6.36,3.661-12.585,7.473-19.703,9.482c-3.749,1.058-7.666,1.761-11.556,1.841
				c-4.296,0.089-8.754,0.988-12.467-1.698C101.791,211.181,99.299,215.521,101.885,217.392L101.885,217.392z"/>
		</g>
	</g>
	<g>
		<g>
			<path fill="#333333" d="M114.646,216.608c7.334-0.609,14.279-4.138,21.117-6.628c7.276-2.649,14.049-5.457,20.77-9.338
				c2.79-1.611,0.274-5.933-2.524-4.317c-6.318,3.649-12.722,6.362-19.575,8.834c-6.332,2.284-13.005,5.886-19.788,6.449
				C111.457,211.873,111.431,216.875,114.646,216.608L114.646,216.608z"/>
		</g>
	</g>
	<g>
		<g>
			<path fill="#333333" d="M129.021,213.483c4.96-0.041,9.13-3.2,13.512-5.091c2.953-1.275,0.404-5.581-2.524-4.317
				c-3.477,1.501-7.065,4.376-10.988,4.409C125.799,208.51,125.796,213.51,129.021,213.483L129.021,213.483z"/>
		</g>
	</g>
	<g>
		<g>
			<path fill="#333333" d="M136.936,214.519c4.881-1.29,9.003-2.909,13.597-5.127c4.707-2.273,10.046-3.595,14.375-6.625
				c2.62-1.834,0.125-6.171-2.524-4.317c-3.512,2.459-7.796,3.703-11.681,5.412c-5.084,2.236-9.74,4.42-15.097,5.836
				C132.492,210.521,133.815,215.344,136.936,214.519L136.936,214.519z"/>
		</g>
	</g>
	<g>
		<g>
			<path fill="#333333" d="M144.771,212.358c2.628-0.238,4.495-1.545,6.5-3.164c1.01-0.816,2.055-1.52,3.184-2.161
				c1.082-0.614,2.725-0.8,3.553-1.766c1.095-1.277,0.909-3.843-1.103-4.178c-0.031-0.005-0.062-0.01-0.094-0.016
				c-3.153-0.526-4.504,4.292-1.329,4.821c0.031,0.005,0.062,0.01,0.094,0.016c-0.368-1.393-0.735-2.786-1.103-4.178
				c0.639-0.745-1.531,0.481-1.818,0.613c-0.977,0.448-1.882,1.042-2.769,1.644c-1.518,1.031-3.194,3.197-5.114,3.371
				C141.587,207.646,141.559,212.648,144.771,212.358L144.771,212.358z"/>
		</g>
	</g>
	<g>
		<g>
			<path fill="#333333" d="M153.771,207.608c0-0.042,0-0.083,0-0.125c0-1.363-1.137-2.5-2.5-2.5s-2.5,1.137-2.5,2.5
				c0,0.042,0,0.083,0,0.125c0,1.363,1.137,2.5,2.5,2.5S153.771,208.971,153.771,207.608L153.771,207.608z"/>
		</g>
	</g>
	<g>
		<g>
			<path fill="#333333" d="M27.646,211.483c1.726,0.003,3.164,0.228,4.829,0.64c1.305,0.323,2.948,1.024,4.296,0.985
				c3.217-0.093,3.226-5.093,0-5c-0.186,0.005-0.802-0.317-1.085-0.411c-0.802-0.266-1.691-0.349-2.512-0.552
				c-1.859-0.46-3.606-0.659-5.528-0.662C24.422,206.478,24.422,211.478,27.646,211.483L27.646,211.483z"/>
		</g>
	</g>
	<g>
		<g>
			<path fill="#333333" d="M26.357,212.519c3.255,0.706,6.551,0.972,9.843,1.449c3.892,0.564,7.677,2.539,11.626,3.254
				c7.015,1.269,14.484,1.929,21.607,2.189c3.168,0.116,6.423,1.287,9.589,1.697c3.971,0.514,8.218,0.005,12.218-0.005
				c7.226-0.017,14.81,0.416,21.697-2.085c3.006-1.092,1.709-5.925-1.329-4.821c-6.942,2.521-14.802,1.893-22.095,1.91
				c-3.499,0.008-6.995,0.194-10.491,0.001c-3.206-0.177-6.392-1.301-9.589-1.697c-7.303-0.905-14.814-1.022-22.076-2.336
				c-3.415-0.618-6.488-2.145-9.828-2.929c-3.214-0.754-6.603-0.747-9.843-1.449C24.543,207.016,23.206,211.836,26.357,212.519
				L26.357,212.519z"/>
		</g>
	</g>
	<g>
		<g>
			<path fill="#333333" d="M90.021,210.858c-4.054,0.053-8.076,0.585-12.125,0.75c-2.86,0.117-3.352,4.018-0.665,4.911
				c2.285,0.759,4.53,1.229,6.936,1.355c2.779,0.146,5.377-0.374,8.189,0.02c3.152,0.441,4.511-4.376,1.329-4.821
				c-5.144-0.719-10.122,0.286-15.125-1.375c-0.222,1.637-0.443,3.274-0.665,4.911c4.049-0.165,8.071-0.697,12.125-0.75
				C93.243,215.816,93.247,210.816,90.021,210.858L90.021,210.858z"/>
		</g>
	</g>
	<g>
		<g>
			<path fill="#333333" d="M38.146,206.358c-3.039,0.181-6.066-1.002-9.04-0.536c-1.584,0.248-3.194-0.011-4.773-0.167
				c0.122,0.012-3.889-0.442-3.42-0.065c-2.487-2.001-6.048,1.514-3.536,3.536c2.079,1.673,5.473,1.382,8.037,1.637
				c2.065,0.205,4.509-0.364,6.441,0.256c1.857,0.597,4.375,0.453,6.29,0.339C41.35,211.167,41.369,206.166,38.146,206.358
				L38.146,206.358z"/>
		</g>
	</g>
	<g>
		<g>
			<path fill="#333333" d="M23.658,204.824c-0.167-0.125-0.333-0.25-0.5-0.375c-0.421,1.553-0.841,3.106-1.262,4.659
				c5.615-0.327,11.21-0.303,16.79-1.089c6.141-0.865,11.911-3.438,17.734-5.453c10.91-3.775,18.513-9.924,26.994-17.565
				c2.4-2.163-1.147-5.687-3.536-3.536c-3.859,3.477-7.614,7.062-11.818,10.128c-4.416,3.221-9.511,4.955-14.624,6.724
				c-4.788,1.657-9.46,3.581-14.434,4.622c-5.579,1.169-11.444,0.84-17.107,1.169c-2.625,0.153-3.227,3.185-1.262,4.659
				c0.167,0.125,0.333,0.25,0.5,0.375C23.717,211.078,26.205,206.734,23.658,204.824L23.658,204.824z"/>
		</g>
	</g>
	<g>
		<g>
			<path fill="#333333" d="M65.805,199.37c2.697-5.366,9.149-7.064,13.484-10.619c2.495-2.046-1.064-5.562-3.536-3.536
				c-2.289,1.877-5.216,2.746-7.548,4.575c-2.431,1.906-5.308,4.252-6.718,7.056C60.044,199.719,64.357,202.251,65.805,199.37
				L65.805,199.37z"/>
		</g>
	</g>
	<g>
		<g>
			<path fill="#333333" d="M77.539,191.876c4.557-4.606,10.705-7.92,13.268-14.228c0.347-0.853-0.112-1.795-0.643-2.432
				c-0.026-0.031-0.052-0.062-0.078-0.094c-0.726-0.871-2.108-0.894-3.03-0.391c-0.057,0.031-0.115,0.062-0.172,0.094
				c-2.831,1.544-0.308,5.862,2.524,4.317c0.057-0.031,0.115-0.062,0.172-0.094c-1.01-0.13-2.02-0.261-3.03-0.391
				c0.026,0.031,0.052,0.062,0.078,0.094c-0.214-0.811-0.429-1.622-0.643-2.432c-0.95,2.338-3.339,4.446-5.097,6.175
				c-2.152,2.117-4.756,3.695-6.885,5.847C71.735,190.634,75.269,194.17,77.539,191.876L77.539,191.876z"/>
		</g>
	</g>
	<g>
		<g>
			<path fill="#333333" d="M84.432,182.273c1.141-2.725,2.562-5.315,3.5-8.125c1.024-3.067-3.806-4.372-4.821-1.329
				c-0.934,2.799-2.361,5.407-3.5,8.125c-0.528,1.259,0.559,2.749,1.746,3.075C82.798,184.415,83.906,183.529,84.432,182.273
				L84.432,182.273z"/>
		</g>
	</g>
	<g>
		<g>
			<path fill="#333333" d="M81.555,185.995c0.353-0.467,0.545-1.063,0.661-1.632c0.041-0.203,0.078-0.407,0.128-0.608
				c0.113-0.454-0.291,0.567-0.081,0.16c-0.086,0.106-0.172,0.212-0.258,0.318c0.176-0.174,0.102-0.121-0.222,0.16
				c1.142-0.739,1.609-2.205,0.897-3.42c-0.665-1.135-2.275-1.638-3.42-0.897c-0.883,0.571-1.441,1.341-1.737,2.351
				c-0.07,0.238-0.104,0.489-0.153,0.732c-0.025,0.123-0.059,0.244-0.095,0.364c0.206-0.684,0.134-0.276-0.037-0.05
				c-0.824,1.09-0.174,2.793,0.897,3.42c0.577,0.338,1.281,0.43,1.926,0.252C80.746,186.955,81.144,186.539,81.555,185.995
				L81.555,185.995z"/>
		</g>
	</g>
	<g>
		<g>
			<path fill="#333333" d="M38.988,149.995c1.771,3.454,4.778,6.615,7.897,8.897c4.023,2.943,7.049,6.869,11.25,9.625
				c3.662,2.403,7.147,3.695,11.419,4.576c4.774,0.985,11.326,2.503,12.932,7.555c0.973,3.061,5.801,1.752,4.821-1.329
				c-1.174-3.695-2.063-5.338-5.524-7.119c-4.35-2.239-9.038-3.613-13.837-4.506c-5.284-0.983-10.114-5.163-13.432-9.16
				c-3.442-4.147-8.593-5.96-11.209-11.062C41.834,144.601,37.52,147.132,38.988,149.995L38.988,149.995z"/>
		</g>
	</g>
	<g>
		<g>
			<path fill="#333333" d="M80.408,170.574c-3.707-1.733-7.351-2.152-10.782-4.593c-4.478-3.185-8.73-4.849-11.946-9.636
				c-1.788-2.661-6.121-0.161-4.317,2.524c2.669,3.972,5.772,6.836,9.934,9.161c2.252,1.258,4.326,2.667,6.463,4.111
				c2.4,1.622,5.555,1.549,8.125,2.75C80.787,176.249,83.327,171.939,80.408,170.574L80.408,170.574z"/>
		</g>
	</g>
	<g>
		<g>
			<path fill="#333333" d="M33.238,145.245c1.129,1.913,2.646,3.127,4.354,4.471c0.734,0.578,1.269,1.48,1.912,2.16
				c0.713,0.754,1.535,1.375,2.25,2.125c0.811-1.393,1.622-2.786,2.432-4.178c0.522,0.144-0.318-0.453-0.422-0.572
				c-0.497-0.571-0.928-1.207-1.403-1.796c-0.554-0.688-1.321-1.144-2.046-1.629c-0.55-0.368-0.967-0.979-1.532-1.375
				c-2.459-1.721-4.785,1.901-3.03,3.926c0.661,0.763,1.362,1.464,2.125,2.125c0.762,0.66,1.263,1.738,1.964,2.487
				c1.181,1.261,2.905,2.805,4.639,3.156c3.148,0.637,4.488-4.182,1.329-4.821c-0.992-0.201-2.439-1.717-3.007-2.528
				c-1.037-1.482-2.338-2.595-3.515-3.954c-1.01,1.309-2.02,2.618-3.03,3.926c1.197,0.838,2.451,2.06,3.353,3.228
				c0.877,1.136,1.803,2.252,3.244,2.649c2.457,0.677,4.141-2.385,2.432-4.178c-1.257-1.319-2.595-2.437-3.75-3.875
				c-1.198-1.491-2.964-2.141-3.984-3.869C35.918,139.947,31.595,142.462,33.238,145.245L33.238,145.245z"/>
		</g>
	</g>
	<g>
		<g>
			<path fill="#333333" d="M41.664,143.965c-0.642-0.727-1.178-1.506-1.875-2.25c-0.368,1.393-0.735,2.786-1.103,4.178
				c2.66-0.473,5.626-0.001,8.375-0.375c2.126-0.289,4.948-0.666,6.847-1.752c1.369-0.782,1.722,2.353,2.328,3.766
				c0.777,1.815,2.567,3.068,4.149,4.109c0.642-1.523,1.284-3.046,1.926-4.569c-0.771-0.3-6.076-2.983-6.165-3.964
				c-1.553,0.421-3.106,0.841-4.659,1.262c2.066,2.921,6.798,11.723,11.448,10.024c1.029-0.376,1.875-1.237,1.835-2.411
				c-0.07-2.101-1.347-3.514-2.554-5.141c-1.459-1.966-2.349-4.598-4.559-5.892c-2.505-1.467-5.147-0.133-7.753-1.065
				c-2.337-0.835-4.494-0.023-6.883,0.223c-3.175,0.327-3.206,5.33,0,5c1.287-0.132,2.472-0.13,3.727-0.464
				c1.549-0.413,4.13,0.864,5.869,0.753c2.761-0.176,3.26,0.818,4.5,2.811c0.487,0.782,2.621,2.782,2.654,3.775
				c0.612-0.804,1.224-1.607,1.835-2.411c0.879-0.321-0.36-0.89-1.143-1.655c-1.815-1.773-3.199-4.008-4.658-6.071
				c-1.291-1.825-4.902-1.448-4.659,1.262c0.391,4.347,6.277,7.402,9.835,8.786c2.767,1.076,4.174-3.091,1.926-4.569
				c-3.601-2.369-3.069-9.583-8.512-9.216c-2.306,0.155-4.933,1.859-7.29,2.39c-3.289,0.742-6.485-0.006-9.75,0.574
				c-1.945,0.346-2.284,2.918-1.103,4.178c1.035,1.104,0.657,0.869,1.875,2.25C40.266,149.923,43.789,146.373,41.664,143.965
				L41.664,143.965z"/>
		</g>
	</g>
	<g>
		<g>
			<path fill="#333333" d="M52.664,143.751c0.605-0.51,1.419-0.688,2.004-1.266c0.77-0.761,1.37-1.77,1.39-2.886
				c0.046-2.587-1.922-4.072-2.501-6.406c-0.777-3.128-5.598-1.801-4.821,1.329c0.354,1.426,1.016,2.666,1.877,3.847
				c0.169,0.273,0.314,0.559,0.435,0.856c0.402-0.492,0.379-0.574-0.07-0.245c-0.665,0.38-1.258,0.736-1.85,1.235
				C46.661,142.297,50.216,145.815,52.664,143.751L52.664,143.751z"/>
		</g>
	</g>
	<g>
		<g>
			<path fill="#333333" d="M56.146,134.483c-12.675-0.548-18.684-13.142-23.966-23.012c-1.522-2.844-5.838-0.318-4.317,2.524
				c6.344,11.855,13.366,24.843,28.284,25.488C59.372,139.623,59.358,134.622,56.146,134.483L56.146,134.483z"/>
		</g>
	</g>
	<g>
		<g>
			<path fill="#333333" d="M51.283,131.574c-4.38-2.92-6.959-9.098-9.853-13.353c-1.802-2.649-6.136-0.151-4.317,2.524
				c3.461,5.088,6.393,11.644,11.647,15.147C51.451,137.686,53.952,133.353,51.283,131.574L51.283,131.574z"/>
		</g>
	</g>
	<g>
		<g>
			<path fill="#333333" d="M46.658,131.699c-13.217-5.69-19.784-19.841-24.351-32.631c-1.076-3.014-5.908-1.715-4.821,1.329
				c4.975,13.931,12.245,29.418,26.649,35.619C47.063,137.277,49.612,132.971,46.658,131.699L46.658,131.699z"/>
		</g>
	</g>
	<g>
		<g>
			<path fill="#333333" d="M31.18,119.596c-2.991-4.98-6.457-9.575-9.181-14.722c-1.233-2.331-2.496-4.646-3.716-6.985
				c-0.941-1.804-1.419-3.758-1.976-5.696c-0.279-0.971-0.073-1.903-0.676-0.61c-0.941,0.383-1.882,0.766-2.823,1.149
				c1.412,0.337,3.223,2.394,4.452,3.284c2.053,1.487,4.736-1.391,3.42-3.42c-0.093-0.143-2.99-0.793,0.38,0.594
				c1.507,0.621,3.171,0.829,4.764,1.092c3.373,0.556,6.693,0.436,10.032,1.361c3.113,0.862,4.432-3.962,1.329-4.821
				c-2.992-0.829-5.948-1.174-9.04-1.339c-3.36-0.18-6.274-2.125-9.5-2.125c-4.291,0-3.849,5.347-2.284,7.762
				c1.14-1.14,2.28-2.28,3.42-3.42c-1.83-1.326-3.373-3.245-5.646-3.788c-1.016-0.243-2.344,0.122-2.823,1.149
				c-1.683,3.607,1.652,9.434,3.315,12.622c3.71,7.114,8.119,13.586,12.234,20.438C28.521,124.88,32.845,122.368,31.18,119.596
				L31.18,119.596z"/>
		</g>
	</g>
	<g>
		<g>
			<path fill="#333333" d="M20.135,93.142c1.546,1.036,3.118,1.05,4.899,0.798c0.965-0.137,2.781-0.81,3.601-0.423
				c2.899,1.367,5.439-2.943,2.524-4.317c-1.171-0.552-2.407-0.744-3.697-0.695c-1.398,0.054-3.586,1.135-4.803,0.32
				C19.971,87.023,17.472,91.357,20.135,93.142L20.135,93.142z"/>
		</g>
	</g>
	<g>
		<g>
			<path fill="#333333" d="M39.039,87.965c-4.534-3.515-8.479-9.21-11.703-13.947c-4.111-6.04-7.554-11.589-9.154-18.825
				c-0.696-3.148-5.516-1.813-4.821,1.329c1.567,7.085,4.703,12.584,8.696,18.565c3.812,5.709,7.996,12.187,13.446,16.413
				C38.018,93.451,41.585,89.939,39.039,87.965L39.039,87.965z"/>
		</g>
	</g>
	<g>
		<g>
			<path fill="#333333" d="M35.289,83.465c-9.318-8.01-16.483-18.064-19.482-30.147c-0.776-3.128-5.598-1.801-4.821,1.329
				C14.184,67.535,21.805,78.448,31.754,87C34.185,89.091,37.738,85.571,35.289,83.465L35.289,83.465z"/>
		</g>
	</g>
	<g>
		<g>
			<path fill="#333333" d="M15.914,55.465c-0.546-0.631-0.658-2.854-0.814-3.649c-0.348-1.775-0.791-3.379-0.829-5.208
				c-0.066-3.22-5.066-3.226-5,0c0.051,2.518,0.671,4.824,1.152,7.274c0.356,1.814,0.719,3.692,1.955,5.119
				C14.494,61.442,18.014,57.89,15.914,55.465L15.914,55.465z"/>
		</g>
	</g>
	<g>
		<g>
			<path fill="#333333" d="M24.245,25.694c-0.193-0.548-0.363-1.091-0.51-1.652c-0.245-0.936,0.514-0.311-0.446,0.46
				c-0.589,0.244-1.179,0.488-1.768,0.732c-0.842-0.432-1.036-0.447-0.58-0.045c0.231,0.273,0.465,0.544,0.704,0.81
				c0.657,0.745,1.36,1.458,2.035,2.187c1.454,1.57,3.232,2.703,4.761,4.19c2.311,2.249,5.85-1.284,3.536-3.536
				c-1.53-1.489-3.301-2.633-4.761-4.19c-1.131-1.207-2.308-3.068-3.768-3.896c-1.698-0.962-3.859-0.501-4.537,1.475
				c-0.538,1.568-0.013,3.299,0.513,4.793C20.486,30.043,25.318,28.743,24.245,25.694L24.245,25.694z"/>
		</g>
	</g>
	<g>
		<g>
			<path fill="#333333" d="M20.924,22.018c-0.35-0.271-0.612-1.211-0.763-1.627c-0.191-0.527-0.09-1.126-0.318-1.644
				c-0.171-0.388-0.423-0.722-0.815-0.904c-0.137-0.064-0.292-0.098-0.444-0.106c0.2,0.01,0.342-0.687,0.374-0.811
				c0.084-0.327-0.383-0.444-0.497-0.137c-0.164,0.443-0.64,0.906-0.496,1.429c0.039,0.142,0.143,0.216,0.261,0.289
				c0.419,0.26,0.406,0.076,0.639,0.652c0.464,1.147,0.361,2.8,1.478,3.613C20.781,23.093,21.354,22.351,20.924,22.018
				L20.924,22.018z"/>
		</g>
	</g>
	<g>
		<g>
			<path fill="#333333" d="M17.884,18.095c0.339-0.315,0.42-0.845,0.815-1.103c-0.114-0.066-0.229-0.131-0.343-0.197
				c0.027,0.343,0.108,1.576,0.831,1.096c0.58-0.385,0.055-1.254-0.099-1.746c-0.2,0.084-0.4,0.169-0.6,0.253
				c0.299,0.435,0.43,0.936,0.779,1.339c0.177,0.204,0.541,0.093,0.602-0.159c0.11-0.457-0.067-0.82-0.267-1.226
				c-0.205-0.416-0.768-0.104-0.699,0.295c0.162,0.927,0.704,1.564,1.327,2.236c0.715,0.772,1.117,1.802,2.097,2.309
				c0.391,0.203,0.772-0.281,0.469-0.607c-0.291-0.313-0.605-0.603-0.906-0.907c-0.28-0.283-0.426-0.651-0.686-0.946
				c-0.636-0.723-1.366-1.295-1.563-2.288c-0.233,0.098-0.466,0.196-0.699,0.295c0.101,0.193,0.27,0.419,0.233,0.649
				c0.201-0.053,0.401-0.106,0.602-0.159c-0.336-0.332-0.459-0.779-0.721-1.161c-0.202-0.294-0.717-0.12-0.6,0.253
				c0.08,0.255,0.182,0.504,0.266,0.758c0.153,0.463,0.139-0.16,0.083-0.343c-0.049-0.161-0.258-0.227-0.381-0.101
				c-0.387,0.398-0.332,0.937-0.65,1.376C17.725,18.077,17.828,18.147,17.884,18.095L17.884,18.095z"/>
		</g>
	</g>
	<g>
		<g>
			<path fill="#333333" d="M19.622,16.858c-0.131-0.351-0.214-0.766-0.441-1.068c-0.118-0.157-0.427-0.184-0.471,0.062
				c-0.085,0.467,0.179,0.933,0.52,1.234C19.391,17.228,19.711,17.095,19.622,16.858L19.622,16.858z"/>
		</g>
	</g>
	<g>
		<g>
			<path fill="#333333" d="M262.173,13.322c0.312-0.653,0.922-1.387,1.487-1.822c0.297-0.229,0.657-0.455,0.774-0.829
				c0.034-0.11-0.04-0.271-0.163-0.288c-0.884-0.12-1.985,0.41-2.678,0.938c-0.324,0.247-0.291,0.957,0.241,0.89
				c0.717-0.089,1.857-0.875,1.624-1.723c-0.259-0.942-1.716-0.282-2.147,0.097c-0.291,0.256-0.077,0.864,0.336,0.811
				c0.493-0.064,0.786-0.237,1.177-0.548c-0.208,0.027-0.417,0.054-0.625,0.081c0.956,0.713,2.546-2.022,3.573-1.966
				c-0.154-0.202-0.308-0.404-0.462-0.606c-0.119,0.458-0.613,1.111-0.826,1.563c-0.183,0.389-0.33,0.805-0.463,1.213
				c-0.36,1.109-0.322,2.312-0.757,3.399c0.344,0.047,0.688,0.093,1.032,0.14c-0.099-1.687,0.745-2.979,0.957-4.562
				c0.051-0.383-0.441-0.574-0.726-0.417c-1.024,0.565-1.841,2.158-1.942,3.292c-0.039,0.44,0.61,0.582,0.811,0.22
				c0.483-0.872,0.704-2.091,0.935-3.054c0.103-0.431-0.471-0.67-0.707-0.298c-0.529,0.834-1.443,1.517-1.763,2.457
				c-0.145,0.425,0.415,0.684,0.71,0.413c0.519-0.475,0.809-1.124,1.315-1.623c0.314-0.31-0.158-0.774-0.481-0.481
				c-0.483,0.438-0.818,1.06-1.349,1.436c0.208,0.16,0.416,0.32,0.624,0.48c0.313-0.804,1.151-1.544,1.612-2.293
				c-0.236-0.099-0.471-0.199-0.707-0.298c-0.155,0.649-0.364,2.26-0.872,2.733c0.242,0.141,0.485,0.282,0.727,0.423
				c0.133-0.796,0.82-2.179,1.574-2.574c-0.236-0.182-0.473-0.363-0.709-0.545c-0.099,0.634-0.457,1.248-0.654,1.864
				c-0.297,0.93-0.469,1.852-0.406,2.827c0.04,0.614,0.817,0.687,1.032,0.14c0.376-0.957,0.437-2.022,0.639-3.026
				c0.121-0.6,0.349-1.181,0.597-1.739c0.231-0.52,0.586-0.873,0.72-1.435c0.073-0.309-0.144-0.595-0.462-0.606
				c-0.699-0.023-1.2,0.433-1.741,0.817c-0.305,0.217-0.595,0.457-0.893,0.684c-0.126,0.096-0.254,0.19-0.384,0.281
				c-0.378,0.271-0.31,0.042-0.034,0.251c-0.183-0.139-0.474-0.067-0.625,0.081c-0.191,0.115-0.383,0.229-0.574,0.344
				c0.154,0.265,0.308,0.529,0.462,0.794c0.074-0.057,0.147-0.114,0.221-0.171c0.386-0.015,0.478-0.111,0.277-0.287
				c-0.187,0.223-0.499,0.385-0.773,0.474c0.155,0.266,0.31,0.532,0.465,0.798c0.339-0.354,0.742-0.472,1.109-0.766
				c0.884-0.707,0.329-0.303-0.053,0.009c-0.523,0.426-1.091,1.231-1.358,1.83C261.779,13.348,262.075,13.528,262.173,13.322
				L262.173,13.322z"/>
		</g>
	</g>
	<g>
		<g>
			<path fill="#333333" d="M264.237,14.383c0.695-1.814,1.555-3.59,1.963-5.504c0.087-0.407-0.456-0.536-0.608-0.168
				c-0.442,1.07-0.669,2.259-0.968,3.377c-0.259,0.97-0.217,2.083-0.946,2.863c0.176,0.073,0.352,0.146,0.527,0.218
				c-0.088-1.334,0.794-2.675,1.195-3.913c0.131-0.405-0.498-0.572-0.633-0.174c-0.443,1.309-1.312,2.666-1.18,4.087
				c0.023,0.245,0.332,0.439,0.527,0.218c0.614-0.691,0.818-1.537,0.983-2.429c0.247-1.34,0.637-2.801,1.103-4.081
				c-0.203-0.056-0.405-0.112-0.608-0.168c-0.262,1.933-0.982,3.766-1.537,5.621C264.021,14.451,264.194,14.494,264.237,14.383
				L264.237,14.383z"/>
		</g>
	</g>
	<g>
		<g>
			<path fill="#333333" d="M246.283,40.657c-0.001-0.035-0.002-0.07-0.003-0.105c-0.03,0.151-0.061,0.301-0.091,0.452
				c-0.081,0.069-0.066,0.057,0.046-0.036c0.105-0.084,0.195-0.183,0.27-0.296c0.137-0.242,0.233-0.492,0.276-0.766
				c0.01-0.124,0.011-0.249,0.003-0.373c-0.032-0.288-0.169-0.203-0.41,0.257c0.246-0.191,0.475-0.34,0.631-0.618
				c0.263-0.468-0.052-0.753-0.483-0.896c-0.062-0.021-0.125-0.042-0.188-0.062c0.1,0.372,0.199,0.745,0.299,1.117
				c-0.039,0.032-0.078,0.064-0.117,0.096c-0.365,0.126-0.73,0.253-1.095,0.379c0.035-0.006,0.071-0.012,0.106-0.019
				c0.567-0.099,1.493-0.35,1.635-1.029c0.136-0.652-0.848-0.774-1.272-0.7c-0.608,0.106-1.147,0.28-1.605,0.706
				c-0.492,0.457-0.269,0.927,0.299,1.117c0.062,0.021,0.125,0.042,0.188,0.062c-0.161-0.299-0.322-0.598-0.483-0.896
				c0.285-0.243,0.345-0.299,0.18-0.168c-0.14,0.109-0.433,0.319-0.51,0.499c-0.121,0.284-0.212,0.501-0.104,0.808
				c0.031,0.063,0.03,0.128-0.004,0.197c-0.05,0.328,0.154-0.079-0.06,0.097c-0.317,0.26-0.418,0.564-0.405,0.956
				c0.021,0.645,1.327,0.491,1.66,0.401C245.616,41.683,246.305,41.324,246.283,40.657L246.283,40.657z"/>
		</g>
	</g>
	<g>
		<g>
			<path fill="#333333" d="M252.099,38.566c0.047-0.024,0.094-0.048,0.141-0.072c-0.235,0.096-0.471,0.193-0.706,0.289
				c-0.111,0.017-0.223,0.033-0.334,0.05c0.65-0.009,1.509-0.218,1.917-0.777c0.402-0.551-0.339-0.804-0.771-0.798
				c-0.738,0.01-1.368,0.179-2.025,0.517c-0.391,0.201-0.882,0.804-0.269,1.076C250.698,39.138,251.513,38.867,252.099,38.566
				L252.099,38.566z"/>
		</g>
	</g>
	<g>
		<g>
			<path fill="#333333" d="M262.394,36.574c1.125-0.701,3.037-1.358,4.333-1.654c1.674-0.383,3.413-0.929,4.957-1.686
				c-0.658-0.114-1.316-0.228-1.973-0.341c-1.024,0.64-1.635,1.73-2.451,2.6c-1.015,1.083-2.008,2.206-3.123,3.19
				c0.918-0.104,1.837-0.208,2.755-0.311c0.701-1.032,1.067-2.255,1.75-3.312c0.433-0.671-2.115-0.093-2.285-0.013
				c0.013-0.013,0.027-0.026,0.04-0.039c0.394,0.122,0.788,0.243,1.182,0.365c0.129-0.342,0.321-0.642,0.575-0.9
				c0.708-0.851-2.05-0.343-2.443-0.017c-0.483,0.4-0.893,0.747-1.249,1.265c-0.044,0.11-0.02,0.202,0.074,0.275
				c1.663,0.829,3.613-0.17,5.149-0.886c0.875-0.408,0.612-0.893-0.239-0.893c-0.021,0-0.042,0-0.062,0
				c-0.463,0-1.923,0.277-2.046,0.879c-0.24,1.184-1.328,2.49-2.098,3.439c-0.932,1.148-1.588,2.746-2.727,3.711
				c-0.534,0.453,0.463,0.582,0.709,0.568c0.691-0.039,1.402-0.267,1.933-0.717c1-0.848,1.848-2.292,2.55-3.413
				c0.856-1.365,2.173-2.451,2.5-4.062c-0.682,0.293-1.364,0.586-2.046,0.879c0.021,0,0.042,0,0.062,0
				c-0.08-0.298-0.159-0.595-0.239-0.893c-0.156,0.073-0.312,0.146-0.469,0.219c-0.775,0.341-0.627,0.277,0.442-0.19
				c-0.814-0.006-1.629-0.011-2.443-0.017c-0.33,0.397-0.608,0.748-0.8,1.225c-0.217,0.537,0.989,0.387,1.182,0.365
				c0.807-0.095,1.433-0.319,2.165-0.664c-0.762-0.004-1.523-0.009-2.285-0.013c-0.683,1.058-1.049,2.28-1.75,3.312
				c-0.263,0.387,0.702,0.412,0.822,0.405c0.681-0.038,1.416-0.26,1.933-0.717c0.814-0.718,1.531-1.493,2.232-2.319
				c0.413-0.487,0.935-0.918,1.374-1.387c0.541-0.577,0.881-1.323,1.57-1.754c1.281-0.8-1.507-0.57-1.973-0.341
				c-1.592,0.781-3.405,1.006-5.071,1.577c-1.567,0.538-3.356,1.205-4.763,2.082c-0.494,0.308-0.345,0.687,0.196,0.731
				C261.05,37.18,261.801,36.943,262.394,36.574L262.394,36.574z"/>
		</g>
	</g>
	<g>
		<g>
			<path fill="#333333" d="M270.658,35.657c0.029,0.08-0.083,0.388,0.03,0.146c0.047-0.1,0.105-0.196,0.158-0.292
				c0.049-0.089,0.086-0.185,0.126-0.279c0.024-0.056,0.206-0.264,0.086-0.163c0.484-0.411,0.745-1.132,0.135-1.576
				c-0.586-0.426-1.548-0.3-2.083,0.154c-0.457,0.387-0.777,0.842-1.009,1.394c-0.188,0.448-0.527,0.874-0.341,1.393
				c0.251,0.701,1.085,0.835,1.73,0.662C270.041,36.948,270.909,36.356,270.658,35.657L270.658,35.657z"/>
		</g>
	</g>
	<g>
		<g>
			<path fill="#333333" d="M243.096,59.422c0.98,0.536,2.048,0.405,3.046-0.081c0.909-0.442,1.242-1.413,1.373-2.356
				c0.073-0.525-0.88-0.367-1.169-0.316c-0.379,0.066-0.757,0.179-1.104,0.347c-0.138,0.067-0.562,0.266-0.589,0.464
				c-0.063,0.45-0.168,0.875-0.359,1.289c-0.485,1.055-0.188-0.539,1.87-0.191c-0.122-0.021-0.236-0.102-0.342-0.16
				c-0.531-0.29-1.35-0.048-1.872,0.144C243.842,58.603,242.611,59.157,243.096,59.422L243.096,59.422z"/>
		</g>
	</g>
	<g>
		<g>
			<path fill="#333333" d="M242.135,58.934c0.052,0.525,0.089,1.044,0.188,1.562c0.102,0.536,0.369,0.88,0.353,1.458
				c-0.034,1.236-0.306,2.304-0.962,3.355c-0.804,1.289,2.143,1.181,2.741,0.222c0.758-1.214,1.045-2.439,1.141-3.856
				c0.079-1.172-0.447-2.342-0.563-3.518C244.916,56.975,242.008,57.655,242.135,58.934L242.135,58.934z"/>
		</g>
	</g>
	<g>
		<g>
			<path fill="#333333" d="M216.823,147.496c0.765,1.903-0.432,3.44-1.625,4.887c-1.43,1.736-2.511,3.338-4.315,4.761
				c-1.245,0.982,1.66,0.789,2.277,0.302c1.957-1.544,3.165-3.207,4.703-5.126c1.33-1.659,2.727-3.437,1.857-5.601
				C219.367,145.842,216.519,146.74,216.823,147.496L216.823,147.496z"/>
		</g>
	</g>
	<g>
		<g>
			<path fill="#333333" d="M205.306,163.664c-0.32,1.328-0.635,2.609-1.233,3.846c-0.612,1.264-2.112,2.128-3.133,3.068
				c-2.061,1.896-3.923,3.791-6.247,5.396c-1.62,1.119,0.769,2.055,1.907,1.268c2.838-1.96,5.011-4.434,7.634-6.617
				c2.43-2.022,3.275-4.173,4.003-7.198C208.568,162.052,205.605,162.421,205.306,163.664L205.306,163.664z"/>
		</g>
	</g>
	<g>
		<g>
			<path fill="#333333" d="M158.757,204.534c-2.104,2.216-5.913,3.226-8.842,3.382c-1.598,0.085-2.269,2.116-0.287,2.011
				c3.929-0.209,8.749-1.686,11.533-4.618C162.405,203.997,159.6,203.646,158.757,204.534L158.757,204.534z"/>
		</g>
	</g>
	<g>
		<g>
			<path fill="#333333" d="M21.804,206.709c-1.179-0.104-2.338-0.529-3.5-0.75c-0.533-0.101-1.043-0.144-1.585-0.141
				c-0.361,0.002-0.89,0.18-1.165,0.141c-0.595-0.085-1.262,0.086-1.782,0.374c-0.321,0.178-0.943,0.753-0.293,0.985
				c0.908,0.325,1.871,0.613,2.75,1c0.762,0.335,3.426-0.814,2.335-1.294c-0.879-0.387-1.842-0.675-2.75-1
				c-0.692,0.453-1.383,0.906-2.075,1.359c1.008,0.144,1.939-0.201,2.94,0.048c1.079,0.269,2.202,0.605,3.31,0.702
				c0.699,0.061,1.487-0.109,2.049-0.549C22.479,207.237,22.405,206.762,21.804,206.709L21.804,206.709z"/>
		</g>
	</g>
	<g>
		<g>
			<path fill="#333333" d="M4.733,204.337c0.644,0.069,1.35,0.649,1.935,0.9c0.786,0.337,1.797,0.297,2.612,0.517
				c2.082,0.561,4.061,1.456,6.203,1.771c0.759,0.112,2.788-0.814,1.677-1.672c-1.397-1.078-3.062-1.64-4.709-2.233
				c-0.578,0.576-1.155,1.152-1.733,1.728c3.138,0.74,6.614,0.461,9.688,1.375c1.049,0.312,3.423-1.226,1.733-1.728
				c-3.083-0.917-6.552-0.635-9.688-1.375c-0.989-0.233-3.461,1.106-1.733,1.728c1.507,0.543,2.899,1.039,4.166,2.017
				c0.559-0.557,1.118-1.115,1.677-1.672c-2.162-0.318-4.25-1.318-6.359-1.886c-1.473-0.397-2.879-1.14-4.391-1.302
				C4.571,202.372,2.774,204.127,4.733,204.337L4.733,204.337z"/>
		</g>
	</g>
	<g>
		<g>
			<path fill="#333333" d="M65.631,162.709c-0.25,0-0.5,0-0.75,0c-0.245,0-2.407,0.48-2.059,1.037
				c1.429,2.288,2.916,4.788,4.823,6.704c0.972,0.977,1.661,2.145,2.735,3.023c1.212,0.991,2.825,1.085,4.211,1.672
				c0.787-0.4,1.573-0.8,2.36-1.2c-1.672-0.599-3.451-0.782-5.188-1.188c-1.678-0.392-3.217-1.791-4.195-3.164
				c-0.436-0.612-3.228,0.315-2.72,1.028c0.845,1.186,2.021,2.272,3.356,2.901c2.012,0.948,4.322,0.883,6.387,1.623
				c0.663,0.238,3.36-0.777,2.36-1.2c-1.305-0.552-2.621-0.73-3.852-1.5c-0.953-0.596-1.573-1.694-2.281-2.539
				c-1.854-2.212-3.561-4.476-5.098-6.937c-0.686,0.346-1.373,0.692-2.059,1.037c0.25,0,0.5,0,0.75,0
				C65.27,164.007,67.567,162.709,65.631,162.709L65.631,162.709z"/>
		</g>
	</g>
	<g>
		<g>
			<path fill="#333333" d="M36.189,145.89c-0.647-0.492-1.031-1.363-1.419-2.065c-0.484-0.876-0.818-1.856-1.175-2.793
				c-0.874,0.34-1.747,0.68-2.621,1.02c0.654,0.19,1.182,0.385,1.883,0.425c0.897,0.051,1.745-0.151,2.625-0.055
				c0.685,0.075,1.496-0.132,2.049-0.549c0.457-0.346,0.359-0.767-0.223-0.831c-0.653-0.071-1.268-0.205-1.93-0.07
				c-0.8,0.163-1.309,0.034-2.062-0.184c-0.449-0.13-2.956,0.14-2.621,1.02c0.358,0.938,0.695,1.914,1.175,2.793
				c0.431,0.789,0.877,1.795,1.606,2.349C34.204,147.502,36.813,146.364,36.189,145.89L36.189,145.89z"/>
		</g>
	</g>
	<g>
		<g>
			<path fill="#333333" d="M32.875,140.07c-0.035-0.007-0.069-0.014-0.104-0.021c0.16,0.1,0.32,0.199,0.479,0.299
				c0.011,0.02,0.022,0.04,0.033,0.06c-0.137-0.683-1.21-0.644-1.691-0.515c-0.559,0.15-1.336,0.603-1.207,1.292
				c0.134,0.718,1.246,1.194,1.82,1.528c0.625,0.363,1.503,0.191,2.069-0.207c0.447-0.314,0.81-1.014,0.189-1.376
				c-0.258-0.15-0.512-0.307-0.762-0.469c-0.095-0.062-0.19-0.125-0.284-0.188c-0.047-0.031-0.094-0.062-0.141-0.094
				c-0.174-0.122-0.171-0.113,0.008,0.028c-0.966,0.259-1.932,0.518-2.898,0.776c0.078,0.388,0.405,0.637,0.783,0.713
				c0.717,0.143,1.526,0.01,2.049-0.549C33.629,140.906,33.537,140.202,32.875,140.07L32.875,140.07z"/>
		</g>
	</g>
	<g>
		<g>
			<path fill="#333333" d="M35.726,140.776c-0.113,0.015-0.212-0.021-0.298-0.107c-0.575,0.496-1.151,0.992-1.726,1.489
				c0.021,0,0.042,0,0.062,0c0.6,0,1.265-0.182,1.726-0.58c0.327-0.282,0.434-0.681-0.001-0.909
				c-0.229-0.12-0.444-0.228-0.688-0.312c-0.668-0.232-1.45-0.077-2.05,0.28c-0.399,0.238-0.869,0.787-0.263,1.097
				c0.653,0.334,1.277,0.176,1.952,0.331c0.336,0.077,0.708,0.076,1.052,0.089c0.196,0.007,0.779-0.075,0.871-0.045
				c0.679,0.218,1.44,0.083,2.05-0.28c0.317-0.189,0.947-0.877,0.263-1.097c-0.603-0.194-1.163-0.174-1.787-0.175
				c-0.327-0.001-0.619-0.02-0.937-0.094c-0.377-0.087-0.817,0.065-1.152-0.107c-0.771,0.459-1.542,0.918-2.313,1.377
				c0.244,0.085,0.459,0.193,0.688,0.312c0.575-0.496,1.151-0.992,1.726-1.489c-0.021,0-0.042,0-0.062,0
				c-0.6,0-1.265,0.182-1.726,0.58c-0.334,0.288-0.426,0.672,0.001,0.909c0.26,0.145,0.53,0.235,0.827,0.268
				c0.707,0.079,1.495-0.071,2.049-0.549C36.42,141.396,36.349,140.845,35.726,140.776L35.726,140.776z"/>
		</g>
	</g>
	<g>
		<g>
			<path fill="#333333" d="M32.09,141.978c0.642,0,3.314-1.241,1.864-1.241C33.311,140.738,30.639,141.978,32.09,141.978
				L32.09,141.978z"/>
		</g>
	</g>
	<g>
		<g>
			<path fill="#333333" d="M32.864,140.895c-0.025,0-0.051,0.001-0.076,0.001c0.234,0.019,0.467,0.039,0.701,0.058
				c0.069,0.019,0.124,0.058,0.163,0.114c-0.084-0.073-0.148-0.17-0.211-0.26c-0.047-0.067-0.069-0.332-0.083-0.15
				c0.079-1.038-1.483-0.911-2.076-0.62c-0.034,0.017-0.068,0.033-0.102,0.05c0.49-0.049,0.981-0.099,1.471-0.148
				c-0.034-0.009-0.068-0.018-0.102-0.026c0.159,0.098,0.319,0.196,0.478,0.294c0.002,0.004,0.004,0.008,0.006,0.012
				c-0.303-1.221-3.203-0.456-2.898,0.776c0.255,1.027,1.64,0.918,2.377,0.556c-0.692-0.207-1.384-0.413-2.076-0.62
				c-0.034,0.451,0.149,0.829,0.403,1.192c0.404,0.577,1.054,0.707,1.716,0.696c0.596-0.01,1.51-0.441,1.615-1.101
				C34.286,140.992,33.36,140.886,32.864,140.895L32.864,140.895z"/>
		</g>
	</g>
	<g>
		<g>
			<path fill="#333333" d="M31.166,140.296c-0.001-0.016-0.003-0.031-0.004-0.047c-0.035-0.382-0.558-0.382-0.593,0
				c-0.001,0.016-0.003,0.031-0.004,0.047c-0.02,0.216,0.24,0.32,0.406,0.233c0.015-0.008,0.03-0.016,0.045-0.024
				c-0.1,0-0.2,0-0.299,0c0.015,0.008,0.03,0.016,0.045,0.024C30.926,140.615,31.186,140.511,31.166,140.296L31.166,140.296z"/>
		</g>
	</g>
	<g>
		<g>
			<path fill="#333333" d="M30.709,140.561c0.423,0,0.423-0.656,0-0.656S30.286,140.561,30.709,140.561L30.709,140.561z"/>
		</g>
	</g>
	<g>
		<g>
			<path fill="#333333" d="M23.975,116.177c-1.921-0.641-2.549-3.702-3.713-5.121c-1.943-2.371-3.13-5.758-4.05-8.631
				c-0.184-0.574-0.967-0.328-0.881,0.243c0.546,3.625,2.543,6.68,4.547,9.648c1.013,1.501,1.86,4.178,4.081,3.976
				C24.024,116.286,24.039,116.198,23.975,116.177L23.975,116.177z"/>
		</g>
	</g>
	<g>
		<g>
			<path fill="#333333" d="M11.256,89.796c-0.144-1.123-0.194-2.247-0.283-3.375c-0.015-0.193-0.216-2.595-0.223-2.592
				c0.319-0.148,0.131-0.593-0.166-0.611c-0.062-0.004-0.124-0.008-0.187-0.012c-0.164-0.01-0.321,0.122-0.362,0.275
				c-0.071,0.271-0.029,0.459,0.062,0.727c0.215,0.633,0.127,1.61,0.234,2.3c0.16,1.033,0.179,2.467,0.844,3.321
				C11.2,89.86,11.261,89.835,11.256,89.796L11.256,89.796z"/>
		</g>
	</g>
	<g>
		<g>
			<path fill="#333333" d="M10.652,83.853c1.114,0.89,2.299,1.572,3.555,2.249c1.421,0.766,2.914,1.022,4.021,2.3
				c0.434,0.501,1.1-0.213,0.713-0.713c-0.805-1.037-1.958-1.544-3.148-2.025c-0.847-0.342-1.682-0.703-2.511-1.087
				c-0.64-0.296-1.745-0.636-2.264-1.089C10.764,83.268,10.395,83.648,10.652,83.853L10.652,83.853z"/>
		</g>
	</g>
	<g>
		<g>
			<path fill="#333333" d="M11.776,89.305c-0.24-1.279-0.439-3.286,0.043-4.518c-0.281,0-0.563,0-0.844,0
				c0.48,1.455,0.313,4.198,1.697,5.143c0.184,0.126,0.516,0.052,0.609-0.16c0.261-0.591,0.188-1.156,0.077-1.782
				c-0.119-0.673-0.003-1.392-0.459-1.945c-0.154-0.187-0.471-0.16-0.63,0c-0.672,0.677-1.375,3.393-0.03,3.723
				c0.219,0.054,0.461-0.107,0.453-0.345c-0.015-0.469-0.155-0.847-0.513-1.157c-0.141-0.122-0.395-0.128-0.488,0.063
				c-0.154,0.315-0.165,0.368-0.2,0.719c0.141-0.081,0.282-0.162,0.423-0.243c-0.332-0.235-0.2-0.748-0.611-0.962
				c-0.212-0.111-0.456,0.027-0.466,0.268c-0.018,0.426,0.322,1.009,0.249,1.386c0.126,0.017,0.253,0.034,0.379,0.051
				c-0.121-1.354-0.014-2.707-0.1-4.062c-0.031-0.484-0.606-1.251-0.034-0.443c0.147,0.207,0.274,0.429,0.405,0.647
				c0.807,1.35,1.607,2.69,3.172,3.21c0.406,0.135,0.733-0.432,0.418-0.719c-0.872-0.795-2.154-1.706-2.53-2.869
				c-0.17,0.17-0.339,0.339-0.509,0.509c1.715,0.628,2.221,3.146,4.173,3.32c0.328,0.029,0.48-0.362,0.351-0.612
				c-0.264-0.516-0.695-0.942-1.084-1.367c-0.276-0.302-1.207-0.887-1.292-1.292c-0.176,0.176-0.352,0.352-0.528,0.528
				c0.89,0.166,1.542,0.938,2.222,1.478c0.342,0.272,0.847,0.27,1.159,0.591c0.075-0.283,0.149-0.565,0.224-0.848
				c-0.46,0.108-2.103-1.428-2.358-1.644c-0.669-0.567-1.482-0.981-2.33-1.199c-0.328-0.084-0.755,0.104-0.821,0.466
				c-0.129,0.704,0.187,1.254,0.621,1.799c0.837,1.05,1.707,2.052,2.464,3.168c0.411,0.607,1.39,0.053,0.992-0.58
				c-0.51-0.811-1.043-1.61-1.641-2.36c-0.266-0.333-1.243-1.242-1.149-1.673c-0.274,0.155-0.547,0.311-0.821,0.466
				c1.344,0.304,2.368,1.273,3.501,1.997c0.567,0.362,1.116,0.757,1.811,0.536c0.346-0.11,0.518-0.579,0.224-0.848
				c-0.502-0.458-1.18-0.515-1.738-0.905c-0.692-0.484-1.278-1.108-2.132-1.275c-0.332-0.065-0.594,0.195-0.528,0.528
				c0.082,0.413,0.424,0.708,0.746,0.955c0.635,0.486,1.371,1.172,1.754,1.887c0.117-0.204,0.234-0.408,0.351-0.612
				c-0.907-0.064-1.867-1.449-2.429-2.049c-0.476-0.508-0.873-0.989-1.524-1.256c-0.302-0.124-0.587,0.233-0.509,0.509
				c0.387,1.373,1.709,2.339,2.72,3.256c0.139-0.24,0.279-0.479,0.418-0.719c-1.34-0.442-1.969-1.684-2.667-2.809
				c-0.286-0.461-0.628-1.225-1.174-1.43c-0.467-0.175-0.741,0.178-0.805,0.604c-0.077,0.514,0.133,1.115,0.238,1.609
				c0.246,1.153,0.336,2.329,0.351,3.503c0.002,0.18,0.275,0.279,0.36,0.097c0.277-0.597,0.024-0.894,0.018-1.535
				c-0.155,0.089-0.311,0.178-0.466,0.268c0.281,0.129,0.334,0.711,0.639,0.913c0.146,0.097,0.377,0.005,0.413-0.168
				c0.062-0.16,0.123-0.32,0.185-0.48c-0.163,0.021-0.325,0.042-0.488,0.063c0.079,0.239,0.158,0.478,0.237,0.718
				c0.151-0.115,0.302-0.23,0.453-0.345c-0.532-0.17,0.225-2.155,0.47-2.402c-0.21,0-0.42,0-0.63,0
				c0.273,0.332,0.38,2.337,0.243,2.648c0.203-0.053,0.406-0.107,0.609-0.16c-0.557-0.38-0.633-1.75-0.764-2.353
				c-0.163-0.748-0.264-1.537-0.538-2.254c-0.148-0.387-0.72-0.446-0.844,0c-0.398,1.429,0.003,3.451,0.418,4.857
				C11.465,89.66,11.823,89.555,11.776,89.305L11.776,89.305z"/>
		</g>
	</g>
</g>
<g id="Layer_2">
	<g>
		<g>
			<path fill="#333333" d="M19.006,15.506c1.738,4.026,5.66,7.016,8.824,9.906c4.008,3.661,8.396,6.829,12.824,9.958
				c8.938,6.316,17.827,13.087,27.376,18.446c9.322,5.231,19.753,8.442,29.939,11.5c11.605,3.484,23.029,6.534,34.994,8.565
				c1.065,0.181,1.519-1.448,0.449-1.627c-10.126-1.699-19.988-3.909-29.798-6.936c-10.772-3.325-21.628-6.34-31.806-11.288
				c-9.303-4.523-17.466-11.137-26.062-16.822c-9.101-6.019-20.308-12.579-26.375-21.913C19.219,15.06,18.9,15.261,19.006,15.506
				L19.006,15.506z"/>
		</g>
	</g>
	<g>
		<g>
			<path fill="#333333" d="M134.725,73.677c-2.941-12.886-3.245-25.364,2.486-37.533c5.242-11.131,15.618-18.629,25.637-25.173
				C173.935,3.73,186.02,0.004,199.249,2.11c12.312,1.96,23.554,8.94,31.384,18.512c0.641,0.783,1.75-0.335,1.11-1.11
				c-8.192-9.938-19.481-16.407-32.114-18.782c-13.585-2.555-26.086,1.87-37.465,9.07c-10.431,6.599-20.387,14.516-26.063,25.695
				c-6.214,12.239-5.412,25.465-1.783,38.294C134.392,74.052,134.785,73.942,134.725,73.677L134.725,73.677z"/>
		</g>
	</g>
	<g>
		<g>
			<path fill="#333333" d="M245.855,60.447c0.06,0,0.06-0.094,0-0.094S245.794,60.447,245.855,60.447L245.855,60.447z"/>
		</g>
	</g>
	<g>
		<g>
			<path fill="#333333" d="M245.505,60.303c-3.61,13.557-5.644,27.445-8.481,41.17c-2.726,13.184-6.979,25.931-12.861,38.046
				c-11.609,23.914-30.294,43.914-52.328,58.585c-23.656,15.752-50.449,22.575-78.699,22.67
				c-28.288,0.096-57.096-5.092-83.353-15.658c-1.178-0.474-1.687,1.432-0.523,1.898c26.541,10.634,55.339,15.481,83.876,15.6
				c28.024,0.117,54.549-6.981,78.151-22.178c22.005-14.168,40.401-34.099,52.578-57.248c13.587-25.83,16.327-54.589,22.34-82.694
				C246.303,60.041,245.626,59.848,245.505,60.303L245.505,60.303z"/>
		</g>
	</g>
	<g>
		<g>
			<path fill="#333333" d="M1.023,202.683c4.003,1.712,8.476,2.966,12.185,5.253c0.763,0.47,1.36-0.874,0.479-1.135
				c-4.201-1.247-8.338-3.098-12.411-4.717C0.931,201.946,0.682,202.537,1.023,202.683L1.023,202.683z"/>
		</g>
	</g>
	<g>
		<g>
			<path fill="#333333" d="M2.188,204.09c0.03,0,0.03-0.047,0-0.047S2.158,204.09,2.188,204.09L2.188,204.09z"/>
		</g>
	</g>
	<g>
		<g>
			<path fill="#333333" d="M11.976,205.959c-3.919-0.771-7.006-3.651-10.891-4.396c-1.086-0.208-1.558,1.406-0.461,1.672
				c3.842,0.932,7.216,3.44,11.231,3.621C12.366,206.88,12.484,206.059,11.976,205.959L11.976,205.959z"/>
		</g>
	</g>
	<g>
		<g>
			<path fill="#333333" d="M1.465,202.27c15,3.25,30.622,3.994,45.473-0.557c13.403-4.107,25.572-12.328,34.823-22.799
				c0.572-0.647,0.032-1.737-0.866-1.487c-0.096,0.027-0.191,0.053-0.287,0.08c-1.294,0.36-0.472,2.359,0.713,1.692
				c0.086-0.049,0.173-0.097,0.259-0.146c-0.406-0.406-0.812-0.812-1.217-1.217c-2.684,5.118-9.76,9.646-14.297,12.822
				c-5.967,4.177-12.648,7.274-19.537,9.577c-14.591,4.878-30.057,3.291-45.009,1.62C1.284,201.829,1.235,202.22,1.465,202.27
				L1.465,202.27z"/>
		</g>
	</g>
	<g>
		<g>
			<path fill="#333333" d="M29.849,139.827c0.816,4.392,4.444,9.023,7.508,12.19c4.135,4.273,9.119,7.596,13.196,11.959
				c7.605,8.138,18.936,12.557,29.968,13.081c0.733,0.035,0.906-1.154,0.174-1.289c-11.034-2.039-21.023-4.44-29.133-12.801
				c-7.123-7.343-17.561-13.109-21.035-23.326C30.38,139.207,29.767,139.383,29.849,139.827L29.849,139.827z"/>
		</g>
	</g>
	<g>
		<g>
			<path fill="#333333" d="M29.855,140.085c4.132,0.182,8.186,0.97,12.333,0.864c3.152-0.081,6.393-1.103,9.477-1.695
				c0.595-0.114,0.462-1.112-0.143-1.059c-2.733,0.241-5.379,0.991-8.076,1.475c-4.481,0.806-9.09-0.233-13.591-0.288
				C29.4,139.376,29.404,140.065,29.855,140.085L29.855,140.085z"/>
		</g>
	</g>
	<g>
		<g>
			<path fill="#333333" d="M51.334,138.733c-0.006,0.161-0.048,0.327,0.063,0.458c0.059,0.069,0.19,0.069,0.249,0
				c0.111-0.131,0.069-0.297,0.063-0.458C51.7,138.491,51.343,138.491,51.334,138.733L51.334,138.733z"/>
		</g>
	</g>
	<g>
		<g>
			<path fill="#333333" d="M10.024,83.066c-0.988,13.382,5.61,24.754,13.242,35.176c7.073,9.659,16.888,17.767,28.374,21.27
				c0.072-0.529,0.143-1.059,0.215-1.588c-0.102-0.047-0.204-0.095-0.306-0.142c-0.706-0.476-1.381,0.543-0.866,1.123
				c0.339,0.382,0.471,0.49,0.957,0.608c1.014,0.246,1.429-1.261,0.43-1.559c-11.709-3.503-21.331-11.974-28.601-21.649
				c-7.582-10.09-12.455-20.478-13.117-33.238C10.341,82.854,10.04,82.856,10.024,83.066L10.024,83.066z"/>
		</g>
	</g>
	<g>
		<g>
			<path fill="#333333" d="M8.87,83.123c1.662-0.465,4.714,1.901,6.131,2.626c1.83,0.936,3.794,1.633,5.743,2.265
				c3.848,1.247,8.08,1.801,12.11,1.996c0.802,0.039,0.758-1.127,0-1.219c-5.54-0.668-10.866-1.273-16.108-3.282
				c-1.939-0.743-5.672-3.575-7.922-2.493C8.764,83.045,8.808,83.14,8.87,83.123L8.87,83.123z"/>
		</g>
	</g>
	<g>
		<g>
			<path fill="#333333" d="M33.354,89.234c-5.057-5.24-10.087-9.793-13.858-16.126c-3.464-5.819-6.625-12.163-8.263-18.754
				c-3.396-13.66-0.482-29.085,8.995-39.581c0.455-0.504-0.291-1.253-0.746-0.746c-9.304,10.37-11.581,23.759-9.759,37.291
				c0.988,7.339,4.599,14.314,8.159,20.703c3.912,7.022,9.311,12.098,15.14,17.544C33.243,89.772,33.564,89.452,33.354,89.234
				L33.354,89.234z"/>
		</g>
	</g>
	<g>
		<g>
			<path fill="#333333" d="M231.615,21.072c5.716-1.241,11.361-3.77,16.958-5.52c6.201-1.939,12.317-4.113,17.947-7.394
				c0.548-0.32,0.056-1.163-0.497-0.85c-5.617,3.179-11.585,5.339-17.706,7.315c-5.593,1.806-11.181,4.441-16.889,5.771
				C230.985,20.497,231.174,21.168,231.615,21.072L231.615,21.072z"/>
		</g>
	</g>
	<g>
		<g>
			<path fill="#333333" d="M243.127,38.867c5.805-1.757,10.5-7.554,14.289-11.975c4.311-5.03,8.742-12.428,9.83-19.028
				c0.101-0.614-0.806-0.89-0.949-0.262c-1.332,5.846-4.664,11.081-7.852,16.092c-3.326,5.228-9.534,12.299-15.529,14.404
				C242.436,38.267,242.631,39.018,243.127,38.867L243.127,38.867z"/>
		</g>
	</g>
	<g>
		<g>
			<path fill="#333333" d="M242.271,38.538c10.158-0.04,20.211-2.258,29.631-6.08c0.575-0.233,0.343-1.17-0.262-0.949
				c-9.444,3.452-19.285,6.146-29.369,6.42C241.88,37.939,241.878,38.539,242.271,38.538L242.271,38.538z"/>
		</g>
	</g>
	<g>
		<g>
			<path fill="#333333" d="M245.528,60.49c4.794-4.562,10.423-8.279,15.229-12.917c4.898-4.726,9.507-9.521,12.74-15.562
				c0.335-0.625-0.604-1.177-0.951-0.556c-3.29,5.898-7.755,10.67-12.54,15.366c-4.753,4.664-10.303,8.512-14.991,13.155
				C244.681,60.307,245.189,60.813,245.528,60.49L245.528,60.49z"/>
		</g>
	</g>
</g>
</svg>
