<svg xmlns="http://www.w3.org/2000/svg" width="66.794" height="66.357" viewBox="0 0 66.794 66.357"><g fill="#333"><circle cx="58.442" cy="9" r="7.915"/><circle cx="7.915" cy="9" r="7.915"/></g><path d="M3.991 37.978h62.453c.227-1.568.35-3.169.35-4.8C66.794 14.854 51.94 0 33.616 0S.438 14.854.438 33.178c0 1.631.123 3.232.35 4.8h3.203zm43.104-7.687a2.333 2.333 0 1 1 0 4.666 2.333 2.333 0 0 1 0-4.666zm-27.75 0a2.333 2.333 0 1 1 0 4.666 2.333 2.333 0 0 1 0-4.666zm-18.247 9.5c3.065 15.156 16.458 26.566 32.517 26.566s29.452-11.41 32.517-26.566H1.098z" fill="#333"/></svg>