<svg xmlns="http://www.w3.org/2000/svg" width="255.273" height="289.291" viewBox="64.244 49.178 255.273 289.291"><path fill="#333" d="M179.232 270.34l-.181-1.104v3.988c.797-5.83 4.549-11.692 7.759-16.479 3.888-5.799 5.92-12.459 9.667-18.292l-13.976-3.785c-.504 6.894-2.849 13.926-3.962 20.768-1.114 6.848-3.48 15.619.986 21.684 3.004 4.079 7.835 4.886 11.779 1.518 6.526-5.572 7.975-15.469 9.712-23.397 1.502-6.856 4.869-15.42-.379-21.543-3.591-4.19-11.418-2.008-12.535 3.31-1.956 9.309-3.375 18.9-3.282 28.434.06 6.182.761 13.882 6.664 17.355 9.706 5.71 16.206-6.822 18.738-13.992 3.534-10.006 4.628-23.156 2.011-33.464-1.719-6.768-13.332-7.571-14.464 0-1.981 13.239-3.37 31.275 5.595 42.297 2.187 2.689 6.299 2.585 9.089 1.173 6.107-3.092 8.235-9.526 8.987-15.888.862-7.298 1.079-14.311-.207-21.582-1.473-8.328-15.35-6.404-14.732 1.994.654 8.886 3.318 17.311 5.939 25.772 1.885 6.083 5.775 14.8 13.561 14.061 3.254-.309 6.434-2.049 7.232-5.506 1.621-7.024-.871-12.829-2-19.654l-13.708 5.779c2.267 4.397 4.084 8.95 5.911 13.542 1.51 3.795 4.955 6.413 9.226 5.238 3.615-.994 6.752-5.421 5.238-9.226-2.302-5.786-4.567-11.585-7.423-17.125-4.179-8.106-15.005-2.063-13.708 5.779.611 3.694 2.862 7.944 2 11.679l7.232-5.506c2.126-.202 3.689 2.78 2.454.764-.446-.728-.603-1.132-.909-1.931-.606-1.585-1.062-3.23-1.516-4.864-1.734-6.235-4.049-12.292-4.528-18.802l-14.732 1.994c.851 4.811.355 9.488-.008 14.311-.092 1.228-.219 2.397-.455 3.603-.165.762-.381 1.51-.646 2.244-.155.478 1.162-.61-.778.372l9.089 1.173c-2.336-2.872-1.947-7.915-2.137-11.363-.298-5.421-.407-10.955.399-16.34H197.77c1.634 6.433.58 13.48-.603 19.917-.576 3.137-1.471 6.198-2.83 9.083-1.907 4.05 1.356-3.465 6.174 3.056.783 1.059-.165-.522-.284-.984-2.11-8.212.506-20.682 2.339-29.405l-12.535 3.31c-2.613-3.049-1.436-4.031-2.215.294-.504 2.797-1.029 5.586-1.638 8.362-1.031 4.703-1.621 11.775-5.48 15.07l11.779 1.518c-1.15-1.562-.185-4.935.05-6.977.383-3.325 1.075-6.609 1.737-9.885 1.194-5.903 2.797-12.013 3.237-18.02.576-7.87-10.21-9.648-13.976-3.785-2.005 3.122-3.391 6.498-4.879 9.884-1.741 3.962-4.208 7.527-6.596 11.114-4.048 6.079-8.496 15.047-7.281 22.447 1.564 9.527 16.017 5.471 14.463-3.988z"/><path fill="#333" d="M180.476 316.215c-.443-.975-.648-5.378-.911-7.208-.75-5.226-1.41-10.396-1.732-15.673-.3-4.904-.252-9.806.181-14.699.255-2.877-.005-7.606 1.461-10.183l-13.708-1.792c1.998 10.778 2.427 21.977 4.188 32.839 1.472 9.082 3.345 20.811 13.05 24.4 3.352 1.24 6.592-.882 8.47-3.447 4.69-6.404 3.837-15.646 3.725-23.188-.138-9.32-1.027-18.61-.368-27.931l-14.732 1.994c1.572 8.526 2.494 17.18 3.633 25.772 1.083 8.171 1.983 17.411 6.123 24.686 2.305 4.051 8.54 5.108 11.779 1.518 4.84-5.363 3.838-13.341 3.862-20.113.031-8.366-.281-16.868.668-25.19l-11.285 6.476c-1.915-3.563-2.508-3.835-1.78-.816.248 1.163.479 2.33.693 3.5.441 2.322.785 4.663 1.135 7 .391 2.605.77 5.209 1.197 7.809.918 5.586 2.591 13.902 9.214 15.263 3.72.765 8.456-1.029 9.226-5.238 2.13-11.646-.086-23.387 1.667-35h-14.464c3.128 10.747 2.938 22.868 8.423 32.792 1.762 3.187 5.155 3.949 8.47 3.447 11.93-1.808 7.484-23.233 6.238-30.893-1.167-7.175-13.327-7.206-14.464 0-1.05 6.65.451 12.532.872 19.122.387 6.048 1.149 11.756 6.575 15.348 2.799 1.853 6.796 1.103 9.089-1.173 4.161-4.129 5.056-9.592 5.351-15.221.376-7.155.594-14.276-.154-21.416-.988-9.422-15.532-9.798-15 0 .438 8.061 1.01 16.117 1.476 24.174.389 6.709 1.992 16.382 10.69 16.326 3.511-.023 6.117-2.308 7.232-5.506 3.407-9.771 2.618-21.809 1.935-31.994-.534-7.963-13.203-10.786-14.732-1.994-1.054 6.062.279 12.866 1.098 18.919.808 5.964.953 10.793 4.83 15.712 2.535 3.216 7.972 2.635 10.607 0 3.144-3.144 2.529-7.399 0-10.607-.583-.739-.694-7.012-.913-8.811-.379-3.121-1.613-8.609-1.159-11.225L223.5 282c.595 8.862 1.566 19.506-1.399 28.006l7.232-5.506c3.603-.023 5.422 4.519 4.814 2.364.035.125-.385-2.116-.344-1.76-.219-1.896-.274-3.815-.3-5.722-.095-6.794-.968-13.597-1.337-20.382h-15c.594 5.671.63 11.309.333 17-.121 2.333.633 7.274-1.137 9.03l9.089-1.173c2.143 1.419 1.219 1.877 1.006-.144-.142-1.345-.164-2.701-.292-4.047-.41-4.344-1.961-8.95-1.268-13.34h-14.464c.398 2.449.527 3.599.821 7.09.166 1.966.236 3.936.227 5.908-.004.875-.072 1.745-.151 2.616.078-.727.034-.685-.132.126.536-1.571 1.694-2.67 3.474-3.299l8.47 3.447c-2.127-3.849-2.631-8.244-3.244-12.542-.79-5.544-2.103-11.292-3.667-16.667-1.916-6.585-13.298-7.726-14.464 0-1.753 11.615.437 23.496-1.667 35l9.226-5.238c2.721 2.697 3.593 3.22 2.614 1.569.294.52.256.311-.115-.627-.387-1.253-.637-2.552-.895-3.836-.395-1.966-.647-3.957-.978-5.934-.697-4.171-1.237-8.36-2.028-12.517-.805-4.234-1.088-7.719-5.473-9.899-5.456-2.712-10.628.71-11.285 6.476-.75 6.576-.533 13.168-.574 19.774-.019 3.043-.089 6.087-.119 9.131a145.758 145.758 0 0 1-.184 5.571c-.163 3.42-.301 1.374.74.22l11.779 1.518c-3.338-5.866-3.599-14.295-4.577-20.875-1.288-8.66-2.078-17.384-3.667-26-1.621-8.79-14.169-5.969-14.732 1.994-.53 7.502-.109 14.982.251 22.482.175 3.637.163 7.294.162 10.935-.001 3.41.35 7.301-1.723 10.131l8.47-3.447c1.653.611 1.275 1.051.617-.723-.755-2.037-1.34-4.104-1.864-6.211-1.142-4.596-1.754-9.375-2.472-14.052-1.312-8.543-1.469-17.287-3.043-25.776-1.214-6.545-10.68-7.114-13.708-1.792-2.293 4.03-2.814 8.665-3.01 13.227-.279 6.474-1.002 12.703-.68 19.225.297 6.015 1.049 12.005 1.978 17.951.562 3.595.881 8.468 2.713 12.501 1.691 3.723 7.01 4.595 10.261 2.691 3.794-2.22 4.382-6.537 2.692-10.259z"/><path fill="#333" d="M81.03 249.637c12.909 12.477 25.359 30.042 43.864 34.285 19.003 4.357 39.669-4.206 55.225-14.446 8.041-5.293.535-18.288-7.571-12.952-12.843 8.454-29.421 16.2-45.221 12.577-6.766-1.551-12.154-7.063-17.232-11.447-6.651-5.742-12.155-12.531-18.458-18.624-6.955-6.722-17.573 3.874-10.607 10.607z"/><path fill="#333" d="M158.191 273.548l2.024-2.024 11.017 8.47c7.357-19.686 15.804-38.333 26.537-56.445 10.941-18.462 24.339-34.875 37.04-52.097 2.432-3.298.554-8.361-2.691-10.261-3.811-2.232-7.84-.592-10.261 2.691-13.071 17.723-26.698 34.645-37.956 53.642-11.072 18.684-19.548 38.185-27.133 58.482-2.23 5.967 5.806 12.26 11.017 8.47 1.389-1.01 2.432-1.877 3.357-3.357 5.143-8.228-7.839-15.752-12.951-7.571z"/><path fill="#333" d="M204 165c.024-1.775.093-3.536.209-5.308.285-2.808.19-2.362-.283 1.338.179-1.184.385-2.364.618-3.538.756-4.063 1.959-8.011 3.242-11.933.52-1.59 1.086-3.159 1.681-4.722-3.658 9.614-.066.335 1.221-2.931 2.854-7.243 1.852-16.281-2.1-22.858-6.994-11.638-22.358-15.948-34.205-8.969-14.416 8.493-24.633 21.737-32.969 35.969-8.11 13.846-15.707 29.882-14.669 46.378.772 12.273 5.974 23.285 16.521 30.104 9.797 6.335 22.404 6.881 33.154 2.755 16.305-6.257 29.758-17.263 41.444-30.065 12.551-13.748 22.89-29.115 24.736-48.024 1.117-11.442-6.79-25.691-17.325-30.286-14.221-6.204-28.6-3.581-40.2 6.691-14.008 12.405-18.388 32.054-19.335 49.916-1.028 19.399 5.356 39.091 21.347 50.808 18.076 13.244 42.383 4.452 58.715-7.065a119.551 119.551 0 0 0 3.723-2.767c-1.659 1.269 12.965-9.947 3.755-2.922 5.325-4.062 10.467-8.118 15.011-13.048 10.465-11.352 16.083-23.816 17.376-39.192 1.143-13.6-12.237-25-25-25-14.492 0-23.859 11.426-25 25-.258 2.821-.158 2.178.3-1.93-.286 1.666-2.177 6.412.655-.209-.646 1.511-1.576 2.909-2.435 4.303-.756 1.227-4.387 5.575-.136.393-2.151 2.623-4.638 4.96-7.164 7.212-1.016.906-5.652 4.492-.171.311a573.023 573.023 0 0 0-6.64 5.159c7.371-5.801.263-.311-1.546.933-2.133 1.466-4.352 2.797-6.616 4.05-1.14.632-2.319 1.189-3.498 1.741 6.951-3.253 3.04-1.298 1.227-.704-1.161.38-2.355.626-3.551.861 7.5-1.479 4.356-.538 2.021-.59 4.76.804 5.869.926 3.327.365-4.326-1.013 5.717 3.006 1.847.631l3.16 2.394c-1.692-1.789-1.276-1.152 1.248 1.91-1.033-1.411-2.881-6.075-.206.593-.86-2.145-2.388-12.08-1.396-3.82-.377-3.134-.453-6.268-.354-9.419.055-1.754.225-3.502.396-5.247-.695 7.063-.075 1.185.222-.298.344-1.719.829-3.404 1.317-5.085.574-1.978 3.178-6.192-.121-.107.664-1.225 1.399-2.403 2.151-3.575 2.786-4.343-3.903 4.352-.324.68l-2.894 2.147c2.263-1.302 1.538-1.056-2.175.74-7.353 2.512-15.548-2.669-19.527-8.489a14.959 14.959 0 0 1-2.187-7.086c-.062-6.319.467-3.416-.393-.811 2.179-6.594.942-2.194.141-.545-.694 1.431-1.49 2.793-2.301 4.161-.869 1.467-1.842 2.87-2.81 4.273-3.372 4.89 3.493-4.26-.238.382-2.156 2.682-4.485 5.224-6.826 7.743a137.35 137.35 0 0 1-7.404 7.356c-1.29 1.192-2.638 2.317-3.988 3.44 5.076-4.223.565-.483-.529.284-2.645 1.854-5.467 3.424-8.349 4.872-4.804 2.414 5.544-1.956.315-.248l-1.48.384a12.687 12.687 0 0 1 7.517.142c3.761.586 6.793 4.03 8.769 6.954l1.539 3.783c-.651-2.545-.591-1.525.181 3.059-.311-2.524 1.211-10.214-.316-2.146.64-3.382 1.749-6.664 2.954-9.88-2.396 6.395-.379 1.015.247-.286.737-1.53 1.562-3.017 2.383-4.503 3.105-5.62 6.552-11.134 10.35-16.311-4.141 5.645-.852 1.229.128.105 1.046-1.2 2.181-2.316 3.318-3.428 1.084-1.06 5.425-4.385-.199-.15 1.271-.957 2.64-1.769 4.008-2.575l-34.205-8.969.244.406-3.413-12.618c-.21-6.412 1.292-6.501.229-3.458l2.024-4.753a152.584 152.584 0 0 0-2.604 6.159c-1.518 3.613-2.748 7.344-3.854 11.103-2.634 8.951-3.915 18.567-4.039 27.877-.181 13.629 11.509 25 25 25C192.765 190 203.819 178.625 204 165z"/><path fill="#333" d="M121.56 196.687l-.193.855c2.139-7.173 7.196-12.086 15.172-14.738l5.532-.779c5.556 1.047 7.136 1.201 4.739.461 7.252 2.379 5.302 2.379 3.13 1.038-1.65-1.018-4.535-3.638 2.072 1.694-2.996-2.418-5.689-5.283-8.123-8.26 5.688 6.958 3.827 5.112 2.697 3.423-3.003-4.49 1.548 5.461.172.58 1.819 6.451.354 3.477.257.903-.064-1.704-.02-3.418-.031-5.123-.022-3.654-.052-7.306 0-10.959.026-1.851.113-3.7.207-5.548.072-1.239.165-2.476.281-3.711-.583 3.866-.673 4.534-.269 2.004.463-2.849 1.166-5.645 2.005-8.404.506-1.664 2.673-6.194-.414.604.592-1.304 1.335-2.528 2.083-3.745 2.704-4.402-3.897 4.386-.351.617 3.51-3.73-4.883 3.057-.429.333 4.483-2.743-5.547 1.876-.516.307 1.906-.595 3.901-.926 5.862-1.276 6.612-1.18 12.773-2.495 19.106-4.832 7.339-2.708 14.404-6.149 21.838-8.598a175.994 175.994 0 0 1 10.554-3.091c1.772-.463 3.561-.849 5.352-1.231 1.309-.279 7.55-1.235.567-.298 3.54-.475 7.104-.569 10.671-.589 1.529-.009 3.055.106 4.578.221 2.729.291 2.027.189-2.105-.308 1.003.17 2.001.366 2.993.589 2.986.629 5.884 1.61 8.728 2.701-6.782-2.603-1.921-.719-.445.038 1.356.696 2.652 1.501 3.946 2.305 1.319.82 5.533 4.129-.117-.334 1.202.949 2.319 2 3.433 3.048 1.121 1.055 2.145 2.207 3.167 3.356a51.654 51.654 0 0 1 1.95 2.404c-2.178-2.888-2.496-3.24-.954-1.056.929 1.351 1.715 2.793 2.497 4.23 2.731 5.02-1.916-5.36.059-.016.563 1.523.954 3.102 1.343 4.675 1.384 5.601-.458-5.968.067-.177.155 1.709.074 3.444.012 5.154-.217 5.965 1.182-5.629-.118.133-1.249 5.536 2.296-4.358.311-.068a20.68 20.68 0 0 1-1.328 2.294c2.667-3.196 3.107-3.884 1.321-2.065 4.291-4.148 10.14-5.957 15.843-4.538l3.637 1.424c3.234 2.708 3.923 3.163 2.067 1.365 4.551 4.619 2.044 2.759.832.716-.638-1.075-1.145-2.227-1.655-3.366 2.662 5.948.281.31-.122-.882-.581-1.718-1.038-3.477-1.501-5.23-.46-1.745-.826-3.514-1.198-5.279a163.118 163.118 0 0 1-.678-3.535c.465 3.873.542 4.47.233 1.79-1.135-9.988-2.376-20.23-9.921-27.775-6.677-6.677-17.133-9.601-26.281-7.085-6.095 1.676-11.098 5.614-15.318 10.154-10.68 11.493-18.15 26.203-26.654 39.275-10.489 16.122-20.928 35.728-10.932 54.738 4.301 8.179 12.215 14.027 20.52 17.69 2.828 1.247 12.326 5.201 3.98 1.677 3.041 1.284 6.074 2.585 9.129 3.835 3.19 1.306 6.446 2.275 9.844 2.848 11.718 1.974 20.938-.013 31.701-4.574 6.227-2.639 11.929-6.783 17.524-10.526 7.022-4.697 14.18-9.725 19.725-16.153 7.587-8.795 11.141-18.557 12.301-29.964 1.389-13.657-3.004-27.44-7.831-40.033C291.416 114.567 279.96 90.214 257 93c-6.913.839-12.556 2.201-17.678 7.322A25.101 25.101 0 0 0 232 118c0 12.383 11.439 26.646 25 25 4.497-.365 1.911-1.293-7.759-2.783-3.335-2.885-4.085-3.398-2.252-1.539-4.609-4.904-.223.153.736 1.89.743 1.345 3.771 8.542.967 1.701.763 1.861 1.471 3.745 2.185 5.625a147.593 147.593 0 0 1 3.804 11.308c.574 1.979 1.023 3.989 1.44 6.006.466 2.715.401 2.015-.195-2.1.111 1.003.188 2.009.232 3.018.119 1.991-.757 8.815.456.73-.304 2.028-2.859 7.834.289.948-1.291 2.19-.831 1.809 1.379-1.14a37.13 37.13 0 0 1-2.298 2.542c-.979 1.034-7.078 5.971-1.606 1.788-7.166 5.477-15.08 10.651-23.226 14.53 3.559-1.437 4.07-1.744 1.532-.919-2.683.566-2.03.49 1.959-.23-2.753-.125-2.195.01 1.673.403a35.572 35.572 0 0 1-3.308-.835c-1.434-.399-8.782-3.378-2.057-.527l-7.267-3.067c3.737 1.6 4.378 1.863 1.924.789-1.839-.811-3.575-1.782-5.271-2.855 4.344 2.748 6.378 7.236 6.683 12.273-.778 4.29-.884 5.106-.317 2.448a24.967 24.967 0 0 1 1.005-2.988c-2.439 6.625.478-.524 1.226-1.911 4.519-8.386 9.981-16.473 15.195-24.442 2.702-4.13 5.453-8.226 8.125-12.375.813-1.263 5.354-7.209.857-1.483a34.046 34.046 0 0 1 2.125-2.398c2.056-1.905 1.439-1.457-1.852 1.344l-19.264 2.52-4.015-1.865-8.969-8.969c-3.121-4.846-1.725-4.817-.91-2.121.461 1.524 1.034 7.171.095-.399.625 5.039 1.247 10.053 2.231 15.036 1.76 8.91 4.916 17.406 8.903 25.561 4.704 9.622 13.002 16.268 22.757 20.137 12.197 4.838 25.954-.059 34.947-8.754 14.4-13.922 16.049-37.931 10.816-56.143-5.071-17.648-17.499-31.864-32.245-42.213-27.895-19.577-65.072-14.497-94.717-2.358-6.689 2.739-13.331 5.537-20.274 7.582-6.336 1.867-13.004 1.916-19.25 4.215-18.441 6.788-29.758 22.634-33.963 41.449-2.792 12.494-2.558 25.207-2.526 37.908.033 13.301 4.393 23.792 12.958 33.669 6.34 7.31 13.981 12.73 22.875 16.415 15.423 6.389 33.421-4.837 36.94-20.438 2.997-13.282-3.873-27.015-17.461-30.753-12.665-3.488-27.753 4.164-30.752 17.457z"/><path fill="#333" d="M158.678 135.322c6.878 8.629 5.203 10.563 4.096 5.698-.527-2.316-1.45-4.572-1.975-6.914-1.019-4.541-1.971-8.964-3.483-13.378-1.31-3.824-2.896-7.549-4.055-11.424-.3-1.139-.543-2.29-.729-3.454.476 3.726.569 4.166.281 1.319a78.464 78.464 0 0 0-1.039-8.484c-.518-2.768-.442-2.22.226 1.646l-46.587 12.618c4.499 6.8 7.977 14.222 14.151 19.805 11.536 10.433 27.47 12.874 41.107 4.814 8.123-4.801 13.627-12.726 18.791-20.37 1.204-1.782 4.637-6.223-1.118 1.144 5.859-7.105 5.14-6.81-2.156.885-13.991.683-17.944 1.386-11.861 2.107 6.395.917 9.935 1.074 16.387-.165 1.785-.343 8.562-1.428.919-.667 4.093-.407 8.251-.139 12.358-.407 2.464-.161 4.923-.417 7.385-.61 1.723-.135 9.674.335 2.323-.789 4.319.66 8.432 2.683 12.485 4.216 4.484 1.695 9.119 3.008 13.776 4.123 5.908 1.413 12.183 2.637 18.257 2.449 7.895-.244 14.341-2.789 21.347-6.187 10.268-4.98 19.048-12.52 25.353-22.013 7.549-11.366 2.278-27.617-8.969-34.205-12.555-7.354-26.318-2.108-34.205 8.969-7.027 9.869-4.75 20.916-3.187 31.931.669 4.713 2.647 9.567 5.48 13.345 1.88 2.506 3.72 4.879 5.746 7.223-2.347-3.272-2.805-3.804-1.373-1.596-1.535-3.826-1.871-4.449-1.008-1.868 2.282 7.331 5.035 14.506 7.122 21.891.982 3.477 1.801 6.994 2.519 10.535.277 1.366 1.079 7.547.21.482.286 2.326.375 4.667.411 7.008.215 13.624 11.21 25 25 25 13.466 0 25.215-11.371 25-25-.247-15.678-4.494-30.367-9.486-45.039-1.084-3.186-2.013-6.407-3.013-9.618-2.017-6.48-4.84-10.933-9.117-16.061-1.039-1.245-4.18-5.317.306.663l1.183 3.075a40.396 40.396 0 0 1-.765-3.333c-.307-1.48-.829-7.311-.035-.053-.776-7.096-5.335 11.589-1.819 6.65l-43.174-25.236c-2.863 4.311 3.97-4.382.224-.55-1.144 1.17-5.356 4.069.274-.007-2.86 2.07-6.027 3.718-9.196 5.255l2.941-1.254c-2.687.687-1.944.684 2.23-.008a19.86 19.86 0 0 1-3.017-.023c4.038.565 4.586.603 1.643.112-4.214-.749-8.349-1.917-12.43-3.19-8.631-2.691-16.472-6.786-25.75-7.05-8.413-.24-16.929.821-25.349 1.072a62.055 62.055 0 0 0-14.475 2.186c-6.527 1.788 12.546 1.102 5.643.072-6.202-.925-10.05-1.229-16.283.248-2.434.577-6.078 2.242-8.351 3.992a24.305 24.305 0 0 0-6.017 4.933c-4.764 6.14-5.217 6.743-1.357 1.807a190.2 190.2 0 0 0-7.464 10.202c-.673.989-1.372 1.959-2.079 2.924 4.827-6.592 1.45-1.981.02-.544-3.171 3.187 5.271-3.479 1.582-1.299 5.558-3.285 11.726-2.782 17.327-.046-4.107-2.006 4.5 4.15 1.252.767 5.196 5.412 1.306 1.692.063-.302-1.572-2.522-2.952-5.152-4.593-7.632-6.23-9.417-16.963-14.589-28.233-11.489-10.245 2.818-19.006 13.1-18.354 24.107.124 2.791.455 5.562.992 8.313.395 2.713.335 2.221-.179-1.475.364 4.591.988 9.178 1.826 13.705.935 5.052 3.354 9.908 5.014 14.753 1.709 4.987 2.467 10.173 3.771 15.263 1.912 7.462 5.072 13.729 9.898 19.785 8.507 10.673 26.534 8.821 35.355 0A25.062 25.062 0 0 0 166 153c0-7.221-2.998-12.253-7.322-17.678z"/><path fill="#333" d="M117.333 84.5h-.667l7.232 5.506c-1.072-6.992-.965-14.555-3-21.333-1.766-5.883-10.659-7.823-13.708-1.792-3.964 7.842-2.53 18.647-1.69 27.119l14.732-1.994c-2.389-7.512-2.49-16.444-6.089-23.458-2.844-5.542-12.55-4.575-13.708 1.792-1.447 7.955 1.077 16.281 3 23.988l14.464-3.988c-2.379-7.147-2.854-17.001-1-24.346l-7.232 5.506c-1.557-.039 2.586 2.058 3.128 2.396 2.403 1.496 4.78 3.008 7.221 4.444 4.486 2.639 9.595 4.435 14.657 5.559 7.464 1.658 12.345-6.877 7.297-12.535-3.524-3.951-8.268-6.278-12.966-8.535-4.255-2.045-10.283-3.201-12.861-7.614L109.667 66.5c2.39-.211 6.854 3.041 9.145 4.04 5.009 2.184 9.763 4.647 14.502 7.37 4.382 2.518 8.363 5.444 12.567 8.233 1.73 1.147 3.108 2.228 5.073 3.006 2.265.897 4.273.447 6.515.591l-3.785-1.024 1.198.76c8.193 5.201 15.711-7.785 7.571-12.952-2.013-1.278-3.753-1.705-6.119-1.857-2.42.319-2.659.355-.715.107-1.221-.73-2.341-1.699-3.528-2.486-4.789-3.176-9.397-6.308-14.404-9.159-4.587-2.612-9.368-4.655-14.173-6.81-4.375-1.962-8.857-5.259-13.847-4.819-5.512.486-9.542 6.039-6.476 11.285 2.677 4.581 7.367 8.345 12.159 10.386 5.361 2.284 12.045 4.349 16.014 8.798l7.297-12.535c-5.703-1.266-10.518-3.591-15.455-6.664-4.252-2.646-8.332-6.141-13.538-6.271-3.27-.081-6.433 2.341-7.232 5.506-2.49 9.864-2.209 22.679 1 32.321 3.038 9.128 16.821 5.456 14.464-3.988-1.14-4.568-3.865-11.257-3-16.012l-13.708 1.792c.974 1.899 1.145 5.394 1.577 7.542.841 4.176 1.707 8.266 3 12.333 2.453 7.714 15.601 6.767 14.732-1.994-.319-3.22-.611-6.43-.667-9.667-.044-2.558-.676-7.932.309-9.881l-13.708-1.792c2.013 6.708 1.936 14.391 3 21.333.498 3.246 4.192 5.506 7.232 5.506h.667c9.672.002 9.672-14.998-.001-14.998z"/><path fill="#333" d="M108.524 98.215c-9.479 14.576-20.504 27.129-20.696 45.415-.09 8.518 1.419 17.334 2.384 25.791 1.004 8.796 2.838 17.068 6.529 25.144 6.033 13.2 17.491 23.601 30.483 29.731 7.665 3.617 15.646 5.33 23.974 6.637 9.439 1.482 18.559 3.189 27.809 5.632 5.352 1.414 10.98-3.667 9.226-9.226-.779-2.469-1.954-4.465-3.391-6.592a60.956 60.956 0 0 0-1.267-2.131c-.446-.73-1.108-3.442-1.075-1.284l-9.494 7.232c4.002 1.174 7.071 4.857 11.069 6.36 1.973.742 4.264 1.065 5.954 2.378 2.273 1.766 4.354 3.848 6.55 5.714 4.261 3.62 8.188 7.586 12.413 11.249 3.895 3.376 7.69 5.778 11.037 9.704 5.291 6.205 13.831-.583 12.535-7.297-.62-3.213-2.64-5.506-4.423-8.125-2.814-4.133-5.06-8.602-8-12.667-2.544-3.518-6.045-6.6-9.579-9.099a41.234 41.234 0 0 0-5.445-3.259 13.192 13.192 0 0 0-2.594-.999c-1.824-.732-1.507-.28.952 1.356l-8.47 11.017c7.361 2.466 11.822 9.173 16.001 15.302 4.608 6.759 8.806 16.431 16.759 19.672 2.523 1.028 5.426-.307 7.297-1.929 6.274-5.437.24-17.945-2.41-23.895-2.034-4.568-4.387-8.944-6.908-13.26-1.883-3.226-4.482-6.629-4.913-10.455l-13.976 3.785 4 9c1.661 3.737 7.031 4.583 10.261 2.691 3.814-2.234 4.351-6.525 2.691-10.261l-4-9c-2.97-6.681-14.796-3.496-13.976 3.785.844 7.492 4.155 13.221 7.892 19.622 2.182 3.737 4.269 7.593 5.937 11.591 1.257 3.015 3.287 7.468 2.998 10.747l2.197-5.303-.4.347 7.297-1.929c3.461 1.41-.567-1.902-1.4-3.055-1.322-1.827-2.523-3.745-3.739-5.643-2.238-3.493-4.546-6.928-7.022-10.257-5.447-7.325-11.824-13.08-20.599-16.019-6.119-2.05-12.076 5.618-8.47 11.017 2.035 3.047 4.591 4.443 8.013 5.537 2.906.93 5.495 3.602 7.616 5.663 2.993 2.909 4.969 6.664 7.085 10.221 1.288 2.166 4.4 5.383 4.864 7.787l12.535-7.297c-3.391-3.977-7.043-6.402-11.037-9.704-4.754-3.93-9.054-8.394-13.758-12.392-4.813-4.09-8.741-7.954-14.909-9.82-5.112-1.546-8.71-5.813-13.939-7.347-4.64-1.361-9.569 2.405-9.494 7.232.092 5.884 4.655 8.882 6.268 13.994l9.226-9.226c-8.022-2.119-15.941-3.938-24.161-5.094-7.373-1.037-14.753-2.178-21.773-4.73-11.553-4.201-20.975-12.903-26.583-23.73-3.331-6.43-4.645-13.7-5.459-20.833-.847-7.422-1.809-14.942-2.156-22.402-.731-15.691 10.582-27.175 18.615-39.528 5.292-8.13-7.7-15.64-12.951-7.565z"/><path fill="#333" d="M104.309 185.381c-3.344-5.416-6.908-11.256-7.512-17.767-.608-6.551-.316-14.036.619-20.536 1.742-12.115 4.655-26.162 13.221-35.442 6.548-7.095-4.033-17.729-10.607-10.607-10.968 11.883-15.097 28.283-17.339 43.878-1.138 7.918-1.469 16.498-.729 24.475.793 8.547 4.972 16.404 9.396 23.569 5.069 8.213 18.048.686 12.951-7.57z"/><path fill="#333" d="M84.833 177.833c-.32 4.301 2.759 9.271 5.211 12.577 1.577 2.125 3.29 4.118 4.839 6.266 1.157 1.605 3.51 3.454 4.218 5.318l11.017-8.47c-3.347-2.104-8.615-8.702-10.053-13.018-3.043-9.129-17.532-5.215-14.464 3.988 2.71 8.131 9.683 17.416 16.947 21.982 5.274 3.315 13.392-2.219 11.017-8.47-1.539-4.052-4.19-6.766-6.673-10.208-1.544-2.141-3.277-4.124-4.846-6.24a15.57 15.57 0 0 1-1.564-2.566l-.417-.986c-.924-2.334-1.002-2.391-.232-.173.718-9.654-14.287-9.585-15 0z"/><path fill="#333" d="M89.191 193.452c1.494 2.56 2.968 5.14 5.23 7.101 1.916 1.661 5.502 2.724 6.937 4.732l10.261-10.261c-1.983-1.446-3.308-3.493-5.5-4.833-6.389-3.907-14.198 3.864-10.261 10.261 2.014 3.273 4.116 6.284 7.006 8.851l9.089-11.779c-1.88-1.277-3.813-3.117-5.143-4.976l-11.779 9.089c3.347 3.83 6.92 7.774 10.735 11.136 3.711 3.271 8.019 5.848 11.811 9.051 7.138 6.029 14.31 10.579 23.598 11.908 4.044.579 8.04-.928 9.226-5.238.979-3.56-1.184-8.646-5.238-9.226-2.991-.428-6.978-.97-9.461-2.707-3.442-2.407-6.777-4.717-9.99-7.434-3.395-2.871-7.27-5.139-10.591-8.066-3.372-2.972-6.523-6.646-9.481-10.031-5.572-6.376-16.744 2.145-11.779 9.089 2.914 4.076 6.372 7.538 10.524 10.357 7.056 4.791 15.437-6.141 9.089-11.779-1.986-1.764-3.28-3.572-4.661-5.815l-10.261 10.261c1.976 1.209 3.576 3.43 5.5 4.833 6.007 4.38 14.549-4.259 10.261-10.261-2.079-2.911-4.08-4.913-7.191-6.691-2.63-1.503-3.465-2.553-4.976-5.143-4.875-8.347-17.842-.801-12.955 7.571z"/><path fill="#333" d="M132.697 230.97c5.667 4.477 13.001 5.001 19.81 6.929 3.453.978 7.281.792 10.827.768 3.948-.027 7.883.267 11.833.167 9.655-.245 9.679-15.245 0-15-5.693.144-11.457-.038-17.149-.203-2.943-.085-5.998-1.532-8.857-2.196-1.338-.311-4.864-.287-5.857-1.071-3.205-2.532-7.465-3.141-10.607 0-2.637 2.636-3.214 8.067 0 10.606z"/><path fill="#333" d="M168.333 272.833c.492-5.794 4.118-10.839 5.732-16.34 2.385-8.126-9.669-13.322-13.708-5.779-1.925 3.594-3.974 6.959-5.423 10.792-2.997 7.93 10.261 13.522 13.708 5.779 2.353-5.284 4.611-10.609 7.581-15.586 2.442-4.093 4.518-8.696 5.509-13.372 1.999-9.435-12.46-13.448-14.464-3.988-.855 4.035-2.646 7.525-4.744 11.042-2.707 4.537-4.689 9.518-6.833 14.333l13.708 5.779c.959-2.538 2.633-4.823 3.911-7.208l-13.708-5.779c-.931 3.174-2.58 5.704-3.728 8.796-1.369 3.687-2.207 7.617-2.54 11.531-.82 9.644 14.187 9.564 14.999 0zm-75.232-77.506c.71 2.35 1.824 4.373 2.881 6.562l-1.024-3.785c-.142-2.478-.162 3.669-.292 2.062.172 2.131.516 3.8 1.649 5.64 1.713 2.782 4.063 5.783 6.637 7.774 6.397 4.949 13.632 8.564 20.095 13.395 3.283 2.453 8.37.538 10.261-2.691 2.242-3.828.577-7.819-2.691-10.261-7.187-5.372-17.068-8.833-21.898-16.677l1.024 3.785c.052.645.265-2.132.214-3.029-.151-2.647-1.667-4.361-2.393-6.765-2.788-9.232-17.268-5.294-14.463 3.99zm47.074 27.268c.577 1.348 1.022 2.751 1.551 4.119.36.929 1.494 2.557 1.197 3.288-.321.79-.395 1.622-.167 2.454.152.551 1.494 2.013 1.447 1.792l.252-1.926c-.251.491-.548.911-.78 1.416-.647 1.408-.197 3.264 1.494 3.672 2.342.565 4.921 1.056 7.331 1.256 3.215.267 3.189-4.735 0-5-1.917-.159-4.127-.625-6.002-1.077l1.494 3.672c.526-1.144 1.325-1.982 1.032-3.342-.122-.569-.299-1.085-.73-1.506-.847-.828-.722.34-.28-.749.488-1.201-.371-3.025-.856-4.093-.971-2.135-1.742-4.341-2.667-6.5-1.265-2.956-5.571-.406-4.316 2.524z"/><path fill="#333" d="M159.238 236.659c1.032.782 2.231 1.252 3.493 1.514.58.121 1.594.141 1.908.526l-.643-1.103.093.235 3.075-3.075c-1.372-.463-2.707-.85-4.165-.923-.499-.025-1.027.103-1.52.163a8.493 8.493 0 0 1-.694.053c-.689.038-.106-.103.148.183-2.143-2.418-5.666 1.132-3.536 3.536 1.036 1.169 2.609 1.37 4.081 1.229.558-.054 1.19-.245 1.754-.169.889.12 1.757.465 2.602.75 1.696.572 3.768-1.316 3.075-3.075-1.314-3.337-4.75-2.344-7.149-4.161-1.089-.825-2.793-.174-3.42.897-.749 1.281-.186 2.599.898 3.42z"/><path fill="#333" d="M158.667 235.333c.106 1.548 1.049 2.668 2.322 3.471 1.473.93 3.271.955 4.613-.203 1.032-.891.91-2.625 0-3.536-1.016-1.016-2.505-.89-3.536 0 .411-.355.767-.507 1.309-.552-.409.035.7.137.274.042-.186-.041-.568-.228.178.1a3.048 3.048 0 0 1-.314-.168c-.158-.092-.513-.379.113.114a3.347 3.347 0 0 1-.257-.234c-.317-.313.364.526.125.179-.126-.219-.083-.101.128.354-.071-.245-.056-.1.045.434-.093-1.359-1.067-2.5-2.5-2.5-1.293-.001-2.593 1.138-2.5 2.499zm-75.326 16.095c4.83 9.373 9.666 21.148 19.397 26.397 2.838 1.531 5.362-2.786 2.524-4.317-8.745-4.717-13.248-16.152-17.603-24.603-1.478-2.867-5.792-.337-4.318 2.523z"/><path fill="#333" d="M90.899 262.101c9.731 9.79 19.314 17.342 32.303 22.428 5.909 2.314 13.381 2.435 19.642 2.75 3.135.158 6.222-.405 9.19-1.366 1.547-.501 5.405-2.724 6.713-.322a49.034 49.034 0 0 1 2.843 6.24l4.821-1.329-.333-.833c-1.182-2.955-6.02-1.667-4.821 1.329l.333.833c1.174 2.936 5.957 1.722 4.821-1.329-1.462-3.928-3.202-10.18-7.913-11.079-2.633-.503-5.405.767-7.793 1.669-4.276 1.615-8.766 1.239-13.205.741-3.818-.428-7.575-.723-11.335-1.577-4.16-.946-8.238-3.547-12.007-5.489-7.774-4.005-13.634-10.076-19.723-16.202-2.276-2.289-5.811 1.248-3.536 3.536z"/><path fill="#333" d="M156.256 277.835c-.744 4.465-.063 9.219-.305 13.757-.212 3.979-.092 9.268 1.891 12.836 1.114 2.005 3.886 1.355 4.569-.597 1.391-3.974.916-9.163.923-13.331h-5c.601 8.944 3.168 17.889 4.923 26.665l4.821-1.329c-1.412-5.449-.782-13.448-4.085-18.097-1.046-1.473-3.329-1.751-4.317 0-1.937 3.432-.986 8.316-.688 12.043.325 4.069-.161 9.408 1.688 13.147 1.362 2.754 4.96.653 4.569-1.926-.515-3.4-1.408-6.72-2.284-10.043-.58-2.201-.633-4.56-1.801-6.554-1.313-2.242-4.506-1.149-4.659 1.262-.369 5.839-.581 12.413.589 18.165.593 2.916 4.72 2.003 4.911-.665.216-3.018-.664-6.185-1.089-9.165-.407-2.851-4.911-2.076-4.911.665 0 2.882-.454 6.161.089 8.998.606 3.165 5.425 1.821 4.821-1.329-.442-2.308.089-5.321.089-7.669l-4.911.665c.363 2.543 1.094 5.273.911 7.835l4.911-.665c-1.067-5.246-.747-11.512-.411-16.835l-4.659 1.262c1.144 1.954 1.179 4.909 1.748 7.069.726 2.755 1.407 5.515 1.833 8.333l4.569-1.926c-1.117-2.26-.668-6.413-.825-8.905-.188-2.973-1.733-8.478-.175-11.238h-4.317c1.492 2.101 1.468 5.614 1.915 8.069.539 2.963.91 5.912 1.667 8.833.816 3.148 5.448 1.802 4.821-1.329-1.662-8.311-4.175-16.874-4.744-25.335-.214-3.186-4.995-3.253-5 0-.006 3.693.488 8.481-.744 12.002l4.569-.597c-1.55-2.79-1.343-7.281-1.208-10.313.178-3.999-.527-8.504.127-12.427.526-3.154-4.292-4.506-4.821-1.331z"/><path fill="#333" d="M160 329.5c-.169-6.253-.747-12.467-.431-18.732.389-7.705 1.06-15.405 1.597-23.101.225-3.22-4.777-3.198-5 0l-1.5 21.5c-.475 6.804.15 13.54.333 20.333.088 3.218 5.088 3.226 5.001 0z"/><path fill="#333" d="M159.411 298.831c.961-6.497.419-12.588-1.5-18.829-.945-3.072-5.772-1.761-4.821 1.329 1.642 5.339 2.325 10.589 1.5 16.171-.467 3.153 4.35 4.51 4.821 1.329z"/><path fill="#333" d="M104.066 272.268c3.309 3.439 5.524 6.886 9.673 9.558 3.727 2.4 8.335 3.51 12.544 4.731 4.508 1.307 8.725 1.572 13.385 1.277 5.507-.349 11.162-2.848 16.238.659 2.661 1.838 5.157-2.498 2.524-4.317-7.427-5.131-16.66-.935-24.826-1.197-4.587-.148-9.499-2.233-13.792-3.721-5.687-1.971-8.307-6.468-12.209-10.524-2.241-2.329-5.772 1.211-3.537 3.534zm51.517-3.351c-.063.309-.062.322.003.039.094-.269.085-.264-.028.016.112-.253.249-.482.399-.714.075-.114.152-.227.232-.338-.185.232-.188.242-.008.029.089-.098.183-.19.283-.277-.256.19-.268.213-.036.071 1.186-.667 1.577-2.26.897-3.42-.697-1.19-2.232-1.565-3.42-.897-1.876 1.054-3.211 3.372-3.322 5.492-.071 1.362 1.191 2.5 2.5 2.5 1.417-.001 2.429-1.141 2.5-2.501z"/><path fill="#333" d="M87.506 260.248c.421 2.017 1.389 3.464 2.502 5.181 1.324 2.041 2.14 4.307 3.771 6.175 3.215 3.683 6.864 7.466 11.21 9.805 1.594.858 5.258 2.002 6.662.218 2.458-3.12-.397-6.202-2.325-8.806-1.896-2.56-6.239-.071-4.317 2.524l1.667 2.25c.876 1.182 2.799.07 1.274-.376-2.262-.661-4.097-2.587-5.764-4.154-2.199-2.067-4.341-4.118-5.984-6.671-1.38-2.145-3.356-5-3.873-7.476-.66-3.155-5.48-1.816-4.823 1.33z"/><path fill="#333" d="M108.732 282.101c4.698 4.82 12.858 7.194 19.434 7.732 4.141.339 8.829.169 12.915-.673 3.239-.667 13.01-4.705 15.734-1.726 2.181 2.384 5.707-1.162 3.536-3.536-4.837-5.288-13.452-1.194-19.266.166-8.654 2.023-22.226 1.264-28.818-5.499-2.253-2.312-5.786 1.227-3.535 3.536z"/><path fill="#333" d="M157.917 283.917c-4.193.531-8.546.851-12.665 1.839-4.726 1.134-10.639 3.403-15.24 1.085-2.872-1.446-5.404 2.867-2.524 4.317 5.339 2.689 8.784 1.058 14.28.539 2.559-.241 4.939-1.271 7.48-1.621 2.882-.396 5.782-.795 8.669-1.161 3.154-.398 3.193-5.403 0-4.998z"/><path fill="#333" d="M101.732 279.518c2.96 3.454 6.877 5.962 11.142 7.488 4.436 1.587 9.476 4.021 14.209 4.494 3.208.321 3.177-4.682 0-5-4.025-.402-7.724-3.092-11.669-3.994-3.945-.903-7.545-3.488-10.147-6.524-2.101-2.452-5.621 1.102-3.535 3.536z"/><path fill="#333" d="M88.839 262.581c3.696 9.118 8.041 17.671 17.829 21.329 3.026 1.131 4.321-3.703 1.329-4.821-7.768-2.903-11.427-10.658-14.337-17.837-1.194-2.948-6.033-1.66-4.821 1.329zm-22.414-26.569c1.065 2.009 2.407 2.925 4.48 3.814 3.2 1.371 5.839 3.155 8.714 5.091 2.978 2.006 6.886 2.727 8.873-.822 2.139-3.821-1.969-7.892-5.198-9.174-2.241-.889-4.554-1.068-6.95-1.109-.482-.008-6.601-1.308-6.685-1.491-1.081-2.341-4.659-1.083-4.659 1.262 0 2.18.648 3.19 1.841 4.928l3.42-3.42-.018-.506-4.821 1.329c2.288 5.543 7.022 4.896 10.893 8.687 2.492 2.44 7.392 4.874 9.778.563 1.96-3.542.933-7.063-1.789-9.86-1.521-1.563-3.912-2.242-5.974-2.631-2.722-.513-5.541-1.552-8.331-1.423l1.768 4.268c.316-.306 4.321.391 5.124.451 3.15.237 6.351 1.37 9.199 2.698 4.422 2.062 8.015 7.625 11.225 11.184 2.164 2.399 5.689-1.148 3.536-3.536-4.148-4.599-8.117-10.517-14.103-12.81-3.253-1.246-6.382-2.198-9.856-2.537-3.062-.299-6.273-1.301-8.66 1.013-1.523 1.476-.427 4.369 1.768 4.268 1.985-.092 3.611.803 5.548 1.102.918.122 1.835.25 2.751.387l1.887.733c2.428 1.348 2.592 2.521.492 3.519-1.346-1.082-1.982-2.125-3.583-2.899-2.045-.988-5.9-2.202-6.851-4.506-1.219-2.953-5.398-1.896-4.821 1.329.289 1.616.974 2.595 2.316 3.494 2.049 1.373 4.832-1.366 3.42-3.42-.57-.83-1.159-1.334-1.159-2.405l-4.659 1.262c1.006 2.179 2.479 2.675 4.825 2.741 2.571.073 4.793 1.203 7.417 1.247 1.768.03 3.311.398 4.861 1.247 4.364 2.392.135.813-.932.094-1.802-1.214-3.532-2.486-5.441-3.531-1.774-.971-4.281-1.18-5.328-3.156-1.512-2.848-5.828-.322-4.318 2.525z"/><path fill="#333" d="M89.512 244.341c-1.291-.974-2.375-2.336-3.491-3.498-1.245-1.296-2.889-1.84-4.003-3.278-.836-1.079-2.663-.872-3.536 0-1.054 1.054-.834 2.459 0 3.536 1.231 1.589 3.013 2.247 4.363 3.653 1.324 1.378 2.613 2.751 4.143 3.905 1.091.823 2.792.175 3.42-.897.75-1.28.189-2.602-.896-3.421zm11.5 5.917c-.178-.101-.349-.295.288.234a3.116 3.116 0 0 1-.273-.266c-.405-.427.292.426.077.109a1.496 1.496 0 0 1-.089-.156c.758 1.366-.07 2.446-2.484 3.24-.437-.214-.548-.256-.333-.126-.363-.292-.452-.355-.266-.188.102.094.2.189.307.277.63.512 1.329.914 2.176.867 1.107-.06 2.12-.717 2.411-1.835a3.191 3.191 0 0 0-.013-1.677c-.064-.242-.26-.64-.324-.784-.102-.231-.057-.123.134.325-.302-.92-.645-.127-1.029 2.38l-3.42-.897a7.144 7.144 0 0 0-.065-.152c.099.248.203.493.315.735.562 1.242 2.338 1.531 3.42.897 1.265-.741 1.459-2.179.897-3.42.147.357.169.408.065.152a14.895 14.895 0 0 0-.315-.735c-.254-.561-.924-.992-1.494-1.149-.696-.191-1.294-.041-1.926.252-.865.401-1.482 1.493-1.407 2.439.053.664.159.911.427 1.513.1.227.056.121-.132-.319.205.494-.277.354.046-.888l2.411-1.835c.494-.027.921.242 1.282.535-.081-.066-.155-.142-.23-.214-.275-.261-.577-.524-.919-.691-1.378-.673-3.081-.416-3.907.981-1.007 1.703.314 3.841 1.846 4.715 1.184.675 2.727.287 3.42-.897.684-1.168.286-2.748-.896-3.422zm7.496 12.504c2.902 4.792 6.673 5.977 11.991 6.97 5.834 1.09 11.338 2.486 17.334 2.935 5.431.407 11.713.159 16.439-2.768 4.641-2.875 7.557-7.826 9.138-12.9.962-3.087-3.865-4.397-4.821-1.329-1.275 4.091-3.403 7.301-6.841 9.912-3.516 2.671-10.745 2.597-14.954 1.888-4.059-.684-8.202-.532-12.151-1.759-4.45-1.383-9.123-1.024-11.818-5.471-1.667-2.755-5.992-.244-4.317 2.522zm53.331 58.153c.922 4.74 3.058 9.002 5.335 13.181l3.926-3.03c-1.626-1.339-3.161-2.812-4.749-4.201-1.601-1.4-2.495-3.28-3.61-5.043-1.352-2.138-4.545-1.232-4.659 1.262-.182 3.978 3.577 9.198 7.169 10.661 2.56 1.043 3.848-2.488 2.432-4.178-1.587-1.895-5.332-6.926-8.189-4.069-3.459 3.459 2.948 8.668 5.326 10.413l1.926-4.569c-1.77-.421-2.993-1.907-4.313-3.024-2.001-1.692-4.563-.056-4.178 2.432.252 1.627 1.609 2.365 2.252 3.764l3.42-3.421c-.972-.538-1.854-1.36-2.661-2.109-2.359-2.19-5.903 1.337-3.536 3.536 1.124 1.044 2.324 2.145 3.673 2.891 2.329 1.288 4.436-1.212 3.42-3.421-.4-.869-1.606-1.653-1.748-2.569l-4.178 2.432c2.007 1.698 3.852 3.674 6.52 4.31 2.893.689 4.154-2.935 1.926-4.569-.486-.357-3.909-2.877-3.671-3.663l-1.149 1.494.213-.1-1.926.252c1.143.282 2.659 2.716 3.337 3.526l2.432-4.178c-1.141-.465-3.573-4.197-3.498-5.839l-4.659 1.262c1.187 1.877 2.261 3.734 3.724 5.423 1.513 1.746 3.631 3.363 5.417 4.833 2.14 1.761 5.349-.42 3.926-3.03-2.078-3.812-3.99-7.661-4.831-11.986-.612-3.166-5.431-1.823-4.819 1.327z"/><path fill="#333" d="M155.925 331.345c1.166 2.126 3.049 2.866 4.891 4.339l2.432-4.178-.923-.768-3.926 3.03c2.524 2.336 5.217 4.482 8.768 4.482 5.763 0 11.846.287 17.583-.333 3.17-.343 3.204-5.346 0-5-3.531.382-7.013.238-10.554.096-5.009-.201-8.246.936-12.262-2.78-2.04-1.888-5.459.54-3.926 3.03.997 1.619 2.135 2.399 3.911 3.066 2.288.859 4.368-2.63 2.432-4.178-1.086-.869-3.458-2.139-4.109-3.327-1.55-2.83-5.868-.307-4.317 2.521z"/><path fill="#333" d="M175.768 332.482c-2.969-2.497-5.588-6.43-5.684-10.399l-4.659 1.262c2.5 3.939 6.506 11.881 12.009 11.814 1.177-.014 2.03-.766 2.411-1.835 1.007-2.832-2.357-6.54-3.267-8.905l-4.178 2.432c2.15 2.713 3.679 6.395 7.27 7.393 2.001.556 3.354-1.262 3.075-3.075-.429-2.787-2.869-5.272-2.494-8.169l-3.762 2.159c3.09 2.352 3.365 8.352 8.343 7.502 4.504-.769.921-10.247.669-12.411l-4.659 1.262c2.015 3.772 2.475 11.139 7.909 11.405 6.067.297 3.094-12.942 2.75-15.75-.381-3.108-5-3.312-5 0 0 3.873 1.069 7.514 2.841 10.928 1.485 2.863 5.8.334 4.317-2.524-1.371-2.642-2.159-5.415-2.159-8.405h-5c.255 2.078.468 4.156.64 6.243.065.962.133 1.925.203 2.887-.411 1.326.069 1.824 1.441 1.494-1.795-2.519-2.161-6.061-3.625-8.802-1.114-2.086-4.953-1.257-4.659 1.262.208 1.784.491 3.521.851 5.282.126.732.287 1.456.482 2.172.063 1.479.801 1.37 2.214-.327-1.661-2.317-2.723-4.775-5.036-6.536-1.703-1.297-3.552.541-3.762 2.159-.451 3.486 2.167 6.214 2.673 9.498l3.075-3.075c-2.068-.574-3.759-4.46-5.063-6.107-1.536-1.938-5.057.15-4.178 2.432.437 1.136 3.367 5.966 3.267 6.247l2.411-1.835c-2.802.034-6.37-7.255-7.692-9.338-1.289-2.031-4.721-1.314-4.659 1.262.129 5.284 3.133 10.556 7.149 13.934 2.45 2.061 6.006-1.457 3.536-3.536zm61.147 5.345c2.519-.876 4.203-2.197 5.827-4.316.754-.983 1.078-2.093 2-2.945.931-.86 1.445-1.912 1.592-3.151.161-1.356-1.259-2.5-2.5-2.5-1.484 0-2.34 1.147-2.5 2.5l-.033.275.341-1.262c-.279.503-.628.78-1.05 1.17-.756.699-1.154 1.674-1.611 2.571-.715 1.402-1.958 2.336-3.395 2.836-3.026 1.053-1.725 5.885 1.329 4.822z"/><path fill="#333" d="M244.994 330.998c.528-1.848 2.057-2.917 2.077-5.069.028-3.036-.199-6.069-.417-9.096-.226-3.155-.881-7.262-4.544-7.727-.868-.11-1.725.561-2.159 1.238-2.692 4.199-.835 11.197-1.768 15.929l-.783 2.217c-1.94 1.239-1.962 2.019-.067 2.342.02-2.135 1.289-4.58 2.123-6.449 1.038-2.324 2.11-4.923 1.659-7.514-.611-3.512-3.505-5.7-6.445-2.845-1.775 1.724-2.471 5.607-3.248 7.81-.56 1.59-.917 3.285-1.333 4.917-.238.933-1.165 3.825-.921 3.754l2.823 1.149c-.48-.987 1.305-5.579 1.554-6.751.413-1.946.46-3.847.287-5.821-.201-2.3-3.406-3.637-4.659-1.262-.976 1.851-1.223 3.807-1.656 5.847-.532 2.503-1.721 4.788-2.346 7.25h4.821c-.779-5.194-.249-10.479-1-15.667-.387-2.672-4.092-2.077-4.821 0-1.732 4.932-2.299 10.559-2.756 15.748l4.911-.665c-1.857-5.255-3.199-11.535-7.726-15.186l-.506-.391c-1.113-1.137-1.947-.727-2.502 1.232 1.079.972 1.81 2.669 2.498 3.938.897 1.656 1.425 3.629 3.23 4.48.985.464 2.237.492 3.03-.391 1.992-2.22.539-4.052 1.143-6.52l-1.746 1.746c2.627-1.082 5.257-2.18 7.917-3.177-3.962 1.486-8.195 1.579-12.369 1.591-4.946.014-12.96-3.42-17.3.475-2.058 1.847-3.027 5.684.457 6.642 5.125 1.41 8.645-6.22 13.214-5.692 3.2.37 3.164-4.634 0-5-2.408-.279-3.543.446-5.587 1.807-.765.509-5.553 4.39-6.195 4.062l1.238 2.159c-.081-1.451 8.915.197 10.319.349 3.685.4 7.439.201 11.12-.118 5.027-.436 8.488-2.358 8.83-7.67.292-4.528-4.774-3.571-7.307-2.542-1.981.805-5.234 1.398-6.77 2.935-1.522 1.522.235 4.597-.5 5.417l3.03-.391c-.698-.329-1.585-2.961-2.044-3.808-.974-1.798-2.138-3.347-3.655-4.714-2.019-1.819-4.692-2.217-6.738-.389-2.089 1.867.008 4.921 1.543 6.213 2.047 1.722 3.812 2.53 5.14 5.036 1.505 2.838 2.346 6.211 3.415 9.236.962 2.723 4.662 2.16 4.911-.665.416-4.734.993-9.909 2.577-14.419h-4.821c.75 5.176.221 10.471 1 15.667.378 2.523 4.249 2.257 4.821 0 .367-1.445.988-2.819 1.472-4.228.829-2.415.841-5.429 2.026-7.674l-4.659-1.262c.405 4.625-3.256 10.785-1.159 15.095.48.987 1.811 1.443 2.823 1.149 4.769-1.385 4.979-9.986 6.333-13.826l.605-1.645c1.213-1.487.78-2.341-1.299-2.561.692 2.039-1.27 5.085-1.968 6.772-.997 2.41-2.5 5.83-1.756 8.535 1.391 5.057 6.377 2.699 8.493-.399 1.733-2.537 2.407-5.3 2.699-8.345.279-2.919-.934-8.496.665-10.99l-2.159 1.238c-1.904-.241-.669 1.048-.456 2.727.19 1.495.211 3.038.294 4.542.1 1.833.44 4.047-.357 5.78-.461 1.002-1.12 1.469-1.419 2.514-.886 3.109 3.939 4.426 4.823 1.331z"/><path fill="#333" d="M180.738 335.075c3.157 1.824 5.624 2.832 9.238 1.996 2.045-.473 4.896.468 7.048.62 2.696.191 5.533-.145 8.26-.047 4.454.159 8.964-.148 13.395-.579 4.996-.486 10.02.919 15.07.435 3.18-.305 3.21-5.308 0-5-3.909.375-7.775.006-11.667-.407-4.311-.458-9.006.377-13.333.574-3.909.178-7.809-.169-11.725.025-2.062.102-4.264-.695-6.358-.775-2.651-.101-4.877.302-7.405-1.159-2.796-1.616-5.313 2.705-2.523 4.317z"/><path fill="#333" d="M225.831 330.839c-9.335-2.456-18.151-.552-27.665-.933-.904-.036-7.611.273-6.993-2.097-1.637.37-1.794.922-.473 1.657.453.371.898.752 1.333 1.144 1.524 1.352 3.13 2.49 5.214 2.051 1.458-.307 1.923-1.795 1.746-3.075-.624-4.503-8.711-4.185-10.508-7.684l-.897 3.42c1.693-1.04 9.75 5.997 11.097 7.033 1.721 1.323 3.712 2.666 5.826 1.47 1.051-.595 1.328-1.712 1.149-2.823-.384-2.375-3.31-5.602-2.333-7.921l-3.673 1.494c-.63-.936-.979-.799-1.047.409a12.942 12.942 0 0 1-2.293 2.248l4.178 1.103c-.467-1.196 1.533-4.1 4.025-5.018 1.302-.48 4.975-2.095 5.733-1.823l-1.103-4.178c-3.418 2.917-13.911 9.997-8.25 15.452.829.798 2.025.94 3.03.391 5.395-2.948 8.426-11.018 14.986-12.081l-2.432-.643.504.405-.643-2.432c-1.09 2.861-15.091 8.733-9.709 14.115 4.897 4.897 11.56-6.878 15.772-7.168l-2.5-2.5c.14 1.215-.826 4.361-1.733 5.168l2.432-.643c-2.201-.678-2.209-3.427-2.023-5.296.32-3.208-4.684-3.177-5 0-.449 4.512 1.005 8.672 5.693 10.117 3.867 1.192 5.897-7.03 5.629-9.347-.147-1.277-1.027-2.602-2.5-2.5-1.966.136-3.574.806-5.122 2.045-1.089.871-7.172 6.442-7.621 6.197l1.238 2.159c-.403-4.434 8.741-7.023 10.263-11.018.284-.746-.015-1.928-.643-2.432-6.426-5.164-14.578 9.057-19.117 11.537l3.03.391c-1.506-1.451 6.994-7.309 8.25-8.381 1.543-1.317.518-3.597-1.103-4.178-3.415-1.224-9.961 1.964-12.74 3.954-2.37 1.696-4.275 6.201-3.168 9.038.71 1.818 2.657 2.388 4.178 1.103 2.116-1.787 7.158-8.463 2.327-10.51-1.62-.686-2.992-.121-3.673 1.494-1.498 3.558 1.786 7.191 2.333 10.579l1.149-2.823c1.329-.752-.355-1.144-1.143-1.75a108.735 108.735 0 0 0-6.917-4.917c-2.503-1.631-6.014-3.588-8.863-1.836-1.207.742-1.53 2.188-.897 3.42 1.017 1.98 3.079 2.957 4.966 3.994.32.176 5.004 2.242 5.039 2.496l1.746-3.075c1.476-.311-.005-.459-.734-1.107-.824-.731-1.623-1.453-2.396-2.24-1.067-1.086-2.389-1.479-3.862-1.074-2.911.801-3.673 5.911-2.36 8.152 2.48 4.234 9.166 3.238 13.259 3.402 8.543.342 16.254-1.529 24.677.688 3.125.82 4.448-4.003 1.332-4.823zm19.687-20.523c1.449 1.242.592 1.922.566-.399-.019-1.695.099-3.387.083-5.083-.029-3.134-1.036-6.324-1.487-9.415-.909-6.218-1.45-12.926-5.354-18.014-1.725-2.248-5.084-.973-4.569 1.926.915 5.16 1.645 10.26 2.269 15.477.638 5.335 1.977 10.289 3.065 15.523.656 3.156 5.475 1.817 4.821-1.329-1.121-5.393-2.45-10.551-3.109-16.054a264.684 264.684 0 0 0-2.225-14.946l-4.569 1.926c4.099 5.341 4.352 13.649 5.357 20.202.567 3.696.687 6.997.728 10.713.011 1.021.05 2.288.888 3.007 2.434 2.087 5.988-1.433 3.536-3.534z"/><path fill="#333" d="M247.333 312.5c.039-2.523.026-5.02-.042-7.542-.07-2.581-1.016-4.85-1.168-7.414-.248-4.195.499-8.223-1.215-12.222-1.111-2.592-5.633-.694-4.569 1.926 1.856 4.572.926 9.379 1.833 14.083.61 3.164 5.429 1.821 4.821-1.329-.914-4.741.044-9.46-1.833-14.083l-4.569 1.926c1.594 3.719.008 8.098.716 11.951.795 4.326 1.095 8.279 1.026 12.704-.05 3.226 4.95 3.221 5 0zm0-33.583c.213-3.39-.415-6.566-.833-9.917-.317-2.543.006-5.126-.371-7.696-.213-1.454-1.605-3.102-2.264-4.396-.718-1.41-1.855-3.037-3.645-3.037-4.39 0-4.469 6.543-4.703 9.529-.448 5.697.558 11.493 4.465 15.784 1.17 1.285 3.902.763 4.178-1.103.278-1.878-.044-3.548-.417-5.413-.695-3.476-.871-7.134-1.077-10.669-.187-3.204-5.188-3.222-5 0 .154 2.643.385 5.276.688 7.906.239 2.075 1.288 4.804.985 6.846l4.178-1.103c-3.087-3.391-3.114-7.9-3-12.249.037-1.408.205-3.593.787-4.951-2.134-.513-2.696-.125-1.686 1.164.15.386.308.769.473 1.149 1.315 2.465 1.477 4.066 1.39 6.988-.111 3.754 1.09 7.374.852 11.167-.202 3.222 4.799 3.203 5 .001z"/><path fill="#333" d="M230.923 262.498c2.971 9.994 9.684 18.708 11.583 28.917l4.821-1.329c-.782-3.845.01-8.127.256-12.002.205-3.221-4.797-3.202-5 0-.28 4.412-.966 8.96-.077 13.331.645 3.172 5.406 1.811 4.821-1.329-1.913-10.284-8.602-18.89-11.583-28.917-.917-3.083-5.743-1.769-4.821 1.329zm-4.082-28.07c2.502 4.784 3.952 10.475 5.748 15.569 1.064 3.019 5.896 1.72 4.821-1.329-1.946-5.521-3.536-11.571-6.252-16.764-1.494-2.857-5.809-.329-4.317 2.524z"/><path fill="#333" d="M243.262 254.758c-1.072-.793-2.527-3.458-3.197-4.624-.652-1.136-1.182-2.36-1.792-3.521-.094-.18-1.807-2.714-1.529-1.861l-.643 2.432c.734-.76.947-1.399 1.066-2.434l-4.268 1.768c1.813 2.127 2.94 4.579 4.419 6.935 2.026 3.227 3.952 5.801 4.771 9.628.675 3.152 5.495 1.815 4.821-1.329-.773-3.613-2.4-6.862-4.572-9.83-2.141-2.926-3.537-6.163-5.904-8.94-1.578-1.851-4.048-.157-4.268 1.768l-.042.365.732-1.768-.292.302c-.6.621-.92 1.584-.643 2.432.258.792.561 1.337 1.143 1.936 1.234 1.272 1.905 3.072 2.682 4.64 1.081 2.182 3.044 4.978 4.991 6.418 2.598 1.92 5.087-2.423 2.525-4.317z"/><path fill="#333" d="M247.661 270.252c-.165-.972-.009-2.021.006-3.002.021-1.378-.39-2.847-.756-4.165-.861-3.103-5.685-1.783-4.821 1.329.3 1.08.588 2.152.571 3.28-.02 1.327-.044 2.569.179 3.887.228 1.345 1.863 2.08 3.075 1.746 1.411-.388 1.973-1.733 1.746-3.075zm-12-25.917c-.244-1.317-.964-2.38-.911-3.752l-4.659 1.262c.598.935 1.071 1.831 1.808 2.673 1.402 1.602 4.42.367 4.268-1.768-.094-1.321-1.356-3.104-1.089-4.335h-4.821c.296.708.358 1.437.583 2.167.645 2.085 3.412 2.461 4.569.597.56-.902.602-1.938.597-2.974-.009-2.067.658-3.9 1.155-5.873.787-3.128-4.035-4.455-4.821-1.329-.36 1.433-.828 2.815-1.077 4.275-.125.735.063 3.001-.171 3.378l4.569.597c-.233-.753-.279-1.439-.583-2.167-.856-2.052-4.238-2.69-4.821 0-.191.883-.303 1.852-.083 2.746.231.941.926 1.968.994 2.919l4.268-1.768c-.43-.491-.673-1.11-1.026-1.661-1.353-2.116-4.56-1.249-4.659 1.262-.074 1.888.758 3.294 1.089 5.081.586 3.167 5.404 1.822 4.821-1.33z"/><path fill="#333" d="M235.827 238.831c.272-.754 2.902-1.58 3.608-1.865 1.589-.641 3.203-1.22 4.812-1.806 3.005-1.093 1.708-5.927-1.329-4.821-2.503.911-4.929 2.109-7.417 3-2.182.782-3.696 1.942-4.496 4.163-1.095 3.041 3.738 4.339 4.822 1.329z"/><path fill="#333" d="M240.75 235.25c10.722 1.198 18.585-4.474 26.898-10.389 3.995-2.843 7.843-5.848 11.37-9.26 1.747-1.691 3.382-3.504 5.093-5.232.887-.896 6.278-6.225 7.261-5.709l-1.149-2.823c-.46 2.854-6.711 6.746-8.76 8.485-3.781 3.211-7.256 6.877-11.226 9.853-4.351 3.262-12.822 4.64-15.243 10.062-.705 1.579-.117 3.04 1.494 3.672 2.597 1.02 5.857-1.611 7.939-2.833a196.023 196.023 0 0 0 12.458-7.978c8.458-5.877 15.847-12.841 21.689-21.335 1.833-2.664-2.503-5.161-4.317-2.524-5.081 7.387-11.407 13.299-18.603 18.603-3.014 2.221-6.229 4.076-9.367 6.104-1.069.691-7.222 5.632-8.469 5.142l1.494 3.673c1.281-2.869 6.802-4.749 9.418-6.03 3.622-1.774 6.481-4.083 9.428-6.805 3.525-3.256 7.215-6.311 10.816-9.479 2.165-1.904 5.58-4.242 6.07-7.28.174-1.082-.085-2.265-1.149-2.823-6.618-3.473-15.857 9.249-19.681 12.949-4.445 4.3-9.738 7.736-14.774 11.292-5.722 4.04-11.575 6.462-18.691 5.666-3.201-.359-3.166 4.645.001 4.999z"/><path fill="#333" d="M233.816 236.351c3.25 3.135 4.977 2.443 9.099 1.56 5.484-1.175 10.283-2.789 15.5-4.833 2.967-1.163 1.677-5.999-1.329-4.821-3.472 1.361-6.837 3.149-10.542 3.75-1.682.273-3.302.691-4.958 1.083-2.028.481-2.764 1.145-4.234-.274-2.321-2.238-5.861 1.293-3.536 3.535z"/><path fill="#333" d="M233.399 233.982c-1.065 1.094-.981 2.89.198 3.868.315.261.645.503.987.727.259.169.783.647-.019-.059.849.749 2.013.986 3.03.391 1.183-.693 1.573-2.237.897-3.42-.345-.603-.896-1.062-1.577-1.232-1.321-.33-2.708.41-3.075 1.746-.355 1.29.424 2.745 1.746 3.075l.042.01-1.494-1.149.042.073 3.926-3.03a8.224 8.224 0 0 0-.993-.723 12.143 12.143 0 0 1-.333-.225c-.202-.148-.104-.073.293.226-.399-.331.205-.386.476.882v1.329l.008-.031-.643 1.103.025-.026c.95-.976.973-2.562 0-3.536-.954-.952-2.586-.975-3.536.001zm31.266-2.488c4.942-.794 9.333-4.886 13.514-7.419 4.528-2.743 9.145-6.136 13.173-9.578 6.977-5.963 13.832-16.714 12.982-26.164-.178-1.974-2.7-3.565-4.268-1.768-3.302 3.785-4.41 9.983-6.808 14.423-1.532 2.837 2.785 5.361 4.317 2.524 1.341-2.483 2.343-5.131 3.583-7.667.827-1.69 1.267-4.397 2.442-5.744l-4.268-1.768c.8 8.894-6.301 18.169-12.728 23.663-3.282 2.806-7.309 5.427-10.95 7.762-3.592 2.304-8.056 6.229-12.319 6.915-3.177.51-1.824 5.328 1.33 4.821z"/><path fill="#333" d="M276.331 225.994c3.335-1.164 6.29-4.011 8.961-6.288 3.664-3.123 7.898-5.273 10.745-9.256 3.222-4.506 6.972-7.982 9.513-12.939 1.779-3.471 4.688-8.236 3.564-12.275-.31-1.113-1.289-1.779-2.411-1.835-3.074-.155-5.21 4.329-3.218 6.681 3.24 3.826 6.539-.383 6.931-3.833l-4.911.665c1.203 4.744-5.087 12.282-7.903 15.741-3.793 4.659-7.849 8.559-12.454 12.41-2.476 2.071 1.08 5.589 3.536 3.536 5.586-4.671 10.43-9.556 14.786-15.409 3.498-4.7 8.418-11.449 6.857-17.606-.743-2.932-4.611-1.976-4.911.665l1.287 2.151-2.411-1.835c.882 3.168-3.298 8.912-4.702 11.589-1.149 2.192-3.34 3.881-4.942 5.744-1.254 1.458-2.247 3.149-3.429 4.664-2.057 2.636-5.41 4.285-7.984 6.398-2.295 1.883-5.338 5.201-8.233 6.212-3.024 1.054-1.723 5.885 1.329 4.82z"/><path fill="#333" d="M311.75 184.917c.055-.566.554-1.176.825-1.655.528-.93.998-1.89 1.5-2.833l-4.569-1.926c-.468 2.749-1.249 5.515-2 8.167-.894 3.155 3.71 4.294 4.821 1.329.752-2.005 1.344-4.07 2.083-6.083 1.114-3.034-3.72-4.33-4.821-1.329-.739 2.014-1.332 4.078-2.083 6.083l4.821 1.329c.756-2.667 1.532-5.416 2-8.167.448-2.634-3.148-4.596-4.569-1.926-1.183 2.222-2.758 4.461-3.008 7.012-.133 1.359 1.238 2.5 2.5 2.5 1.463-.001 2.367-1.146 2.5-2.501z"/><path fill="#333" d="M315.242 178.595c.338-.791.708-1.573.835-2.431.104-.697.119-1.293-.252-1.926a2.516 2.516 0 0 0-1.494-1.149c-1.192-.328-2.875.396-3.075 1.746-.044.296-.112.58-.201.865-.049.156-.42 1.048-.13.371-.277.649-.448 1.215-.252 1.926.172.625.59 1.167 1.149 1.494 1.064.624 2.884.358 3.42-.896zm-10.069-61.18c1.185 2.852 2.844 5.212 4.419 7.847 2.481 4.151 2.709 10.24 3.325 14.905 1.061 8.034 2.012 15.695 1 23.833-.397 3.194 4.608 3.156 5 0 1.099-8.843-.104-17.048-1.253-25.75-.514-3.892-1.07-7.783-2.139-11.566-1.117-3.954-3.981-6.869-5.531-10.599-1.219-2.932-6.059-1.648-4.821 1.33z"/><path fill="#333" d="M295.006 107.581c.827 1.987 2.481 3.44 4.143 4.77.906.725 2.002 1.093 2.889 1.833 1.192.995 2.194 2.226 3.278 3.334 1.961 2.006 5.509-.626 3.926-3.03-1.041-1.581-1.976-3.239-3-4.833-1.736-2.703-6.066-.198-4.317 2.524 1.024 1.594 1.959 3.253 3 4.833l3.926-3.03c-1.568-1.604-3.033-3.21-4.839-4.558-.692-.516-1.498-.714-2.15-1.317-.486-.449-1.79-1.269-2.034-1.855-.523-1.257-1.636-2.142-3.075-1.746-1.191.327-2.271 1.815-1.747 3.075zm-18.655-39.313c1.871-2.159 4.623-3.508 6.879-5.224 1.442-1.097 3.106-2.39 4.934-2.717l-3.165-2.411c-.087 1.215-2.707 3.915-3.381 4.994-1.333 2.134-2.522 4.495-3.196 6.924-.508 1.831 1.24 3.59 3.075 3.075 5.836-1.638 8.518-8.833 13.764-11.585l-3.673-2.823c-.937 3.612-8.07 17.85-2.886 20.886 6.087 3.566 8.406-13.368 6.999-16.641-.435-1.013-1.844-1.418-2.823-1.149-4.059 1.115-6.821 6.197-9.204 9.39l4.317 2.524c1.57-2.712 3.268-5.248 5.276-7.661.959-.868.872-1.042-.262-.52.516 1.924.682 3.854.827 5.835.325 4.435-.057 11.126 2.508 15.012 1.237 1.874 4.968 1.403 4.659-1.262-.6-5.172-1.162-10.305-1.583-15.5-.258-3.179-4.912-3.26-5 0-.129 4.768.045 9.667.728 14.39.874 6.038 1.059 12.459 2.611 18.358.821 3.119 5.603 1.799 4.821-1.329l-.083-.333c-.782-3.127-5.604-1.8-4.821 1.329l.083.333 4.821-1.329c-1.242-4.721-1.296-9.833-2.056-14.67-.868-5.533-1.257-11.146-1.105-16.749h-5c.422 5.195.983 10.328 1.583 15.5l4.659-1.262c-2.325-3.523-1.647-10.045-1.945-14.125-.183-2.505-.291-6.578-2.208-8.495-5.038-5.038-10.987 6.768-12.831 9.954-1.657 2.862 2.438 5.042 4.317 2.524 1.44-1.93 3.743-6.413 6.216-7.092l-2.823-1.149c.365.85-2.249 9.421-1.42 9.459l2.159 1.238c-.498-.934.68-4.301.914-5.275.886-3.693 2.421-7.189 3.373-10.861.567-2.187-1.743-3.836-3.673-2.823-1.936 1.016-3.411 2.678-5.003 4.166-2.058 1.923-4.776 6.133-7.567 6.916l3.075 3.075c1.3-4.685 6.418-8.51 6.756-13.248.125-1.748-1.68-2.676-3.165-2.411-2.258.403-4.33 1.893-6.128 3.221-2.65 1.955-5.726 3.507-7.891 6.005-2.098 2.424 1.423 5.977 3.538 3.536z"/><path fill="#333" d="M303 99.417c.14-6.467-.539-12.201-1.589-18.581-.884-5.368-1.078-10.838-2-16.167-.549-3.173-5.367-1.823-4.821 1.329.829 4.79.851 9.735 1.702 14.558 1.125 6.376 1.849 12.385 1.709 18.861-.071 3.226 4.929 3.219 4.999 0z"/><path fill="#333" d="M293.077 59.502c-.22-.926-.409-2.805.44-3.484l-1.768.732c.684-.008 1.505.324 2.204.404-.78-.672-1.015-.604-.706.203.091.707.203 1.313.412 1.997.82 2.678 2.213 4.553 2.257 7.479.048 3.221 5.048 3.226 5 0-.044-2.942-.745-5.34-2.055-7.958-1.138-2.275-.529-5.727-3.623-6.579-2.059-.566-4.637-1.105-6.018.988-1.437 2.179-1.551 5.083-.965 7.547.747 3.136 5.568 1.806 4.822-1.329z"/><path fill="#333" d="M248.244 82.831c.729-2.042 2.962-9.8 5.839-10.165l-2.159-3.762c-1.716 3.432-4.399 6.59-4.341 10.678.034 2.39 3.483 3.542 4.659 1.262 1.895-3.674 3.53-7.849 6.346-10.935 2.3-2.521 6.857-3.697 9.865-5.159 3.312-1.609 7.027-2.182 10.352-3.781 3.13-1.505 7.667-4.79 11.354-4.205l-1.746-3.075c.015-.045-4.351 1.677-4.765 1.861a137.293 137.293 0 0 0-7.803 3.775c-4.835 2.533-9.253 5.788-13.529 9.157-2.532 1.994 1.033 5.507 3.536 3.536 4.881-3.845 10.028-7.236 15.628-9.942 3.345-1.616 10.482-3.154 11.754-7.057.388-1.19-.442-2.868-1.746-3.075-3.186-.506-6.744.587-9.62 1.924-4.741 2.203-9.616 3.793-14.376 5.881-3.703 1.625-8.426 3.154-11.513 5.825-3.831 3.315-5.779 8.338-8.054 12.748l4.659 1.262c-.044-3.136 2.36-5.558 3.659-8.155.746-1.491-.121-4.02-2.159-3.762-6.366.806-8.782 8.576-10.661 13.835-1.088 3.044 3.745 4.343 4.821 1.329z"/><path fill="#333" d="M237.577 78.998a6.348 6.348 0 0 1 .5-2.167c-1.343-.324-1.839-.019-1.488.917.221 1.039.527 2.154 1.31 2.937 1.936 1.936 4.934.271 6.608-1.062 1.526-1.216 4.069-3.09 3.449-5.409-.239-.893-.473-1.812-1.361-2.288-.412-.221-3.794-.984-3.77-.936l-2.159 3.762c-1.215.135.993 1.276 1.595 1.442 1.241.341 2.539.167 3.667-.45 1.805-.987 3.786-.651 5.568-1.577 2.103-1.092 3.714-3.055 5.919-3.921l-2.823-3.673c-.525.754-11.218 4.771-11.432 4.574l.643 2.432c-.256.412.003.384.779-.084 2.679-.82 2.205-4.911-.665-4.911h-.167c-3.224 0-3.224 5 0 5h.167l-.665-4.911c-1.956.599-3.907 1.341-4.271 3.576-.352 2.163 1.571 3.731 3.602 3.918 3.651.336 6.442-2.442 9.915-3.173 2.327-.49 5.048-1.94 6.411-3.899 1.202-1.728-.805-4.465-2.823-3.672-3.137 1.232-5.478 4.398-8.919 4.577-1.208.063-3.135 1.586-3.982.795-.701-.654-1.531-1.154-2.518-1.045-1.903.211-3.088 1.954-2.159 3.762.514 1 1.538 1.92 2.671 2.159a22.94 22.94 0 0 0 2.321.344c-.241-1.493-.692-1.782-1.351-.867-.659 1.141-1.487 1.564-2.482 1.268l2.159 1.238c-1.126-2.099-.723-5.603-4.19-5.603-3.208 0-4.498 2.897-4.879 5.617-.443 3.153 4.374 4.512 4.82 1.33z"/><path fill="#333" d="M229.066 72.101c3.682 3.285 9.589 7.37 14.849 5.726 1.165-.364 1.697-1.255 1.835-2.411.637-5.312-11.898-5.79-14.835-4.07-5.476 3.208 1.529 9.195 5.847 6.979 1.06-.544 1.332-1.752 1.149-2.823-.718-4.191-7.599-5.797-11.002-6.474-2.032-.405-3.842-.11-5.827-.772-1.886-.629-8.262.466-9.166-.959l-.897 3.42c1.576-.843 6.213-.527 7.734-.307 2.785.403 5.594.62 8.382 1.07 5.511.89 10.792 2.356 16.118 4.013 2.428.755 4.166-2.445 2.432-4.178l-.083-.083c-2.282-2.282-5.817 1.254-3.536 3.536l.083.083 2.432-4.178a139.197 139.197 0 0 0-19.585-4.57c-4.787-.766-12.019-2.1-16.502.298-1.169.625-1.607 2.302-.897 3.42 2.256 3.554 6.401 3.052 10.059 2.94 2.243-.069 3.902 1.392 6.135 1.125 1.54-.184 8.959.969 9.298 2.946l1.149-2.823c-1.955 1.004 1.119 1.584 2.343 1.622 1.701.053 3.952 1.596 4.169-.214l1.835-2.411c-3.403 1.063-7.709-2.411-9.984-4.44-2.397-2.14-5.946 1.384-3.535 3.535z"/><path fill="#333" d="M239.083 72.083v.083c0 .844.467 1.762 1.238 2.159.519.267 1.024.465 1.598.557.312.043.623.084.935.124-.354-.046.36.295-.024.026.93.654 2.071.715 3.169.718 1.363.004 2.5-1.14 2.5-2.5 0-1.365-1.137-2.496-2.5-2.5-.102 0-1.031-.051-.669.006.247.114.255.1.023-.041a2.041 2.041 0 0 0-.773-.376c-.48-.177-.946-.228-1.455-.296-.315-.038-.363-.047-.144-.025-.296-.082-.341-.086-.137-.01l1.238 2.159v-.083c0-1.363-1.137-2.5-2.5-2.5-1.361-.001-2.499 1.137-2.499 2.499zm-82.982 4.518c1.993-1.766 4.425-1.18 6.813-1.69 2.071-.443 4.03-1.144 6.056-1.747 4.407-1.313 9.509-.957 14.059-1.941 5.12-1.107 10.172-2.008 15.41-2.377 2.478-.174 4.965-.17 7.447-.147.048 0 4.14.024 4.179.069l.506-3.926c-3.944 2.31-10.466 2.377-14.885 3.198-5.842 1.086-11.69 2.138-17.518 3.3-3.161.63-1.819 5.449 1.329 4.821 6.475-1.291 12.973-2.455 19.464-3.661 4.418-.821 10.18-1.025 14.133-3.341 1.463-.857 1.554-2.722.506-3.926-1.897-2.181-7.075-1.528-9.578-1.551-6.398-.059-12.741.747-19.005 1.984-5.78 1.141-11.618 1.562-17.377 2.677-3.175.615-6.143 1.612-9.389 2.087-2.388.349-3.899 1.053-5.687 2.637-2.416 2.141 1.133 5.664 3.537 3.534z"/><path fill="#333" d="M157.934 76.018c.517-.463 1.525-.444 2.168-.693 1.108-.429 1.874-.899 2.665-1.785-.474.153-.557.185-.251.096.35-.043.693-.083 1.045-.105.873-.054 1.816-.16 2.533-.706 2.229-1.697.98-5.146-1.926-4.569-.978.194-1.894.544-2.84.851-1.024.332-2.116.344-3.16.566-3.153.669-1.816 5.488 1.329 4.821.836-.177 1.734-.278 2.583-.417 1.167-.191 2.251-.769 3.417-1l-1.926-4.569c-.003.002-.831.098-1.055.127-1.005.131-2.204.218-2.951 1.013-.763.813-1.133 1.005-2.243 1.252-1.138.253-2.066.814-2.924 1.581-2.407 2.155 1.141 5.679 3.536 3.537z"/><path fill="#333" d="M111.583 55.083c3.93.41 7.674 2.006 11.295 3.465 3.523 1.42 6.946 2.054 10.323 3.97 6.344 3.6 16.934 6.93 19.221 14.396.942 3.074 5.768 1.762 4.821-1.329-2.837-9.259-12.568-12.108-20.232-16.661-3.715-2.207-7.267-3.616-11.42-4.752-4.771-1.305-8.975-3.564-14.008-4.089-3.205-.334-3.173 4.669 0 5zm-5.339 42.586c-2.3-9.201-.923-18.631-.327-27.919.207-3.221-4.795-3.201-5 0-.626 9.754-1.907 19.595.506 29.248.781 3.127 5.603 1.8 4.821-1.329z"/><path fill="#333" d="M104.083 85.417c-.328-5.269.578-10.328.978-15.562.389-5.076.245-10.856 3.264-15.176 1.852-2.65-2.485-5.145-4.317-2.524-2.82 4.036-3.328 9.12-3.675 13.928-.466 6.465-1.654 12.841-1.25 19.333.2 3.203 5.201 3.222 5 .001z"/><path fill="#333" d="M107.167 55.417a2.434 2.434 0 0 1-.017-.475c-.038.236-.023.201.044-.104a.65.65 0 0 1-.218.28c.24-.29.475-.487.692-.823.712-1.104.51-2.186-.018-3.299l.341 1.262.009-.09-.341 1.262.058-.085-.897.897c-.276.187-1.104.165-.374.203.532.028-.526-.106.129.029.402.083.812.123 1.22.17-.435-.05.424.137.54.185 1.261.524 2.748-.556 3.075-1.746.396-1.438-.489-2.553-1.746-3.075a3.857 3.857 0 0 0-.958-.246 25.487 25.487 0 0 0-.911-.118c.234.041.27.044.109.009a8.003 8.003 0 0 0-1.817-.216c-1.101.003-2.061.474-2.687 1.386-.312.455-.355.904-.409 1.436.001.451.115.872.341 1.262.109.233.084.171-.076-.187v-1.329c.158-.675.458-.751.06-.27s-.658.937-.86 1.532c-.231.682-.35 1.434-.289 2.153.117 1.357 1.049 2.5 2.5 2.5 1.274-.003 2.616-1.144 2.5-2.503z"/><g fill="#333"><path d="M65.414 231.185c-4.942 9.895 7.777 10.512 13.037 15.648 7.281 7.11 9.422 18.436 14.32 27.086 2.072 3.659 4.829 6.787 8.338 9.105 4.723 3.12 11.071 3.889 16.24 6.06 5.361 2.251 10.579 3.998 16.417 4.279 7.208.347 14.357-3.633 21.356-2.595 1.005.149 1.437-1.387.424-1.537-4.135-.609-7.694.56-11.694 1.549-6.587 1.627-13.376 1.247-19.808-.764-4.915-1.537-9.571-3.768-14.503-5.307-6.499-2.027-10.951-4.667-14.757-10.374-4.734-7.1-6.798-15.629-11.204-22.921a27.371 27.371 0 0 0-7.426-8.08c-4.938-3.567-13.538-2.742-10.204-11.923.113-.312-.389-.521-.536-.226z"/><path d="M64.785 232.429c11.972-4.159 23.45.038 31.379 9.531 5.851 7.006 9.929 15.132 17.699 20.352 7.267 4.882 18.125 6.094 26.672 6.181 6.013.061 12.608-.336 15.527-6.401.47-.977-.989-1.833-1.457-.852-3.872 8.122-17.393 5.876-24.536 4.724-4.785-.772-9.782-2.072-14.136-4.217-4.83-2.379-8.439-6.933-11.631-11.119-4.643-6.088-8.454-12.414-14.977-16.727-7.375-4.877-16.656-5.295-24.777-2.331-.533.195-.309 1.049.237.859z"/><path d="M155.202 262.548c-.895-1.588 1.79-6.43 2.39-8.016 1.875-4.958 4.766-9.801 9.043-13.016.608-.457.012-1.497-.603-1.032-4.548 3.433-7.596 8.424-9.477 13.762-.485 1.377-3.36 7.497-1.673 8.623.202.135.431-.125.32-.321z"/><path d="M155.246 264c.443-5.012 2.728-9.533 4.833-14.029 1.806-3.859 3.737-7.49 7.229-10.112.62-.466.014-1.525-.615-1.052-6.815 5.118-11.623 16.891-11.939 25.193-.012.321.465.311.492 0z"/><path d="M165.667 239.158c-8.135-.397-16.058-1.171-23.791-3.836-7.532-2.596-14.623-6.466-21.512-10.425-13.598-7.813-23.595-18.104-30.48-32.228-7.422-15.225-9.454-32.258-6.578-48.859a213.622 213.622 0 0 1 5.468-23.55c2.497-8.504 6.866-14.855 13.522-20.629.869-.754-.397-2.009-1.26-1.26-5.905 5.127-10.168 10.675-12.863 18.038-3.145 8.59-4.876 17.965-6.564 26.933a80.394 80.394 0 0 0 5.405 47.175c6.46 14.675 16.139 25.66 29.739 34.07 6.764 4.183 13.931 7.847 21.306 10.814 9.023 3.631 17.951 4.472 27.607 4.109.228-.009.227-.341.001-.352z"/><path d="M102.017 98.903c-2.218-8.167-2.355-16.538-1.848-24.934.475-7.863.152-15.548 3.963-22.697.335-.628-.524-1.09-.931-.544-4.455 5.975-3.869 14.549-4.155 21.605-.37 9.127-.579 17.961 2.271 26.763.143.444.823.262.7-.193z"/><path d="M103.405 50.26c5.095-.974 9.519.612 14.381 1.833 5.022 1.261 9.539 2.891 14.188 5.215 4.485 2.242 8.865 4.693 13.285 7.057 3.375 1.805 6.747 3.078 9.195 6.182.547.693 1.691-.209 1.215-.937-2.045-3.128-5.277-4.516-8.547-6.097-5.426-2.623-10.623-5.718-16.042-8.366-7.861-3.842-19.055-7.375-27.817-5.407-.343.077-.196.584.142.52z"/><path d="M154.442 71.729c3.235-1.132 6.188-2.404 9.644-2.781 3.749-.409 7.488-.836 11.232-1.3 7.373-.914 14.797-1.893 22.221-2.203 7.761-.325 15.592-.584 23.346.011 4.549.349 8.898 1.823 13.331 2.768 3.965.845 7.89 1.263 11.638 2.931 1.108.493 2.075-1.143.958-1.639-6.26-2.78-13.72-3.635-20.397-5.081-8.224-1.781-16.976-1.262-25.328-.984-8.168.272-16.298 1.158-24.394 2.264-3.749.512-7.494.998-11.242 1.503-4.382.59-7.207 2.107-11.226 3.723-.48.19-.29.965.217.788z"/><path d="M245.559 71.226l-.359.308c-.162.14.05.412.228.295 7.254-4.766 14.81-8.256 22.906-11.35 7.548-2.884 15.219-6.075 23.08-7.995 7.425-1.813 7.115 4.363 7.793 9.382.658 4.871 1.324 9.744 1.878 14.629.87 7.668 2.584 17.831.01 25.256-.405 1.167 1.357 1.581 1.808.498 1.699-4.082 1.108-8.782 1-13.109-.136-5.455-.721-10.898-1.406-16.307-.711-5.615-1.509-11.221-2.247-16.833-.234-1.78-.686-4.699-2.855-5.259-3.897-1.006-7.664.179-11.363 1.452-5.53 1.903-11.017 3.862-16.441 6.054-8.065 3.26-18.522 7.03-23.817 13.193.129-.148-.066-.343-.215-.214z"/><path d="M236 239.586c30.197-2.417 59.04-18.875 74.087-45.5 8.278-14.647 10.325-32.985 9.106-49.521-1.22-16.55-8.389-31.919-18.756-44.668-.881-1.083-2.455.473-1.541 1.541 21.499 25.14 25.167 64.246 8.912 93.153-14.983 26.645-43 39.347-71.963 43.845-.653.1-.5 1.202.155 1.15z"/><path d="M248.453 309.329c-.017-.295-.029-.594-.047-.889-.545-8.872-.486-17.884-.533-26.774-.041-7.756 1.109-15.365-.927-22.978-.933-3.491-3.105-6.495-5.057-9.472-.784-1.195-6.539-7.777-5.941-9.472.114-.322-.367-.501-.536-.226-.819 1.338-.091 2.399.836 3.577 3.349 4.255 6.743 9.416 8.765 14.438 2.007 4.983 1.648 10.748 1.424 16.001-.217 5.086-.326 10.128-.236 15.219.186 10.54.852 21.055 1.072 31.58.011.53.031 1.076.057 1.627l.594.045c.032-4.243.158-8.465.529-12.676zm-130.786-38.341H117c-.015 0-.015.023 0 .023h.667c.015.001.015-.023 0-.023zm36.313 54.575c.15.46.267.936.311 1.437.138 1.558.431 2.939 1.024 4.296.066-5.681.023-11.367.038-17.046.021-7.673.588-15.673-.608-23.272-.012-.079-.146-.079-.158 0-1.099 6.977-.633 14.287-.614 21.333.013 4.415-.001 8.834.007 13.252z"/><path d="M248.282 311.496c-.218-7.314-.551-14.62-.726-21.829-.007-.287-.438-.287-.445 0-.328 13.536-1.266 27.409-.838 41.047.025-.097.053-.194.073-.293a4.714 4.714 0 0 1 .692-1.546c.376-1.063.653-2.144.875-3.237-.003-4.738.048-9.448.369-14.142zm-43.835 25.581c-14.442.014-29.017-.488-43.482-.063.908.463 1.808.938 2.736 1.363 12.915.267 25.905-.135 38.788-.123 12.056.012 24.148.285 36.211.088a6.687 6.687 0 0 1 1.697-1.141c.066-.059.126-.121.197-.179-12.04-.243-24.111.043-36.147.055z"/><path d="M164.667 337.266c-4.5-.106-8.293-5.165-10.146-8.723-.01-.019-.024-.028-.035-.044.21 1.191.556 2.298 1.117 3.404 2.199 3.099 5.471 6.14 9.065 5.831.296-.025.305-.461-.001-.468zm82.37-8.392c.259-.734.472-1.476.655-2.224-.209-.148-.533-.153-.67.119-1.291 2.57-2.719 4.852-4.74 6.925-1.518 1.557-2.974 3.479-5.208 3.967-.396.086-.295.686.093.691 2.22.028 4.081-2.165 5.491-3.624 1.444-1.494 2.812-3.083 3.878-4.858.139-.362.3-.7.501-.996z"/></g></svg>