<svg xmlns="http://www.w3.org/2000/svg" width="273.568" height="222.617" viewBox="0 0 273.568 222.617"><path fill="#333" d="M148.521 127.233c11.222.194 17.22-12.198 22.476-20.215 5.321-8.116-7.673-15.623-12.952-7.571-1.837 2.802-3.516 5.697-5.441 8.443-.618.882-1.785 2.265-3.016 3.483-.696.588-.754.673-.175.254-.369.27-.754.516-1.153.739.821-.28.833-.292.037-.036 1.012-.075 1.086-.107.224-.098-9.678-.166-9.662 14.834 0 15.001z"/><path fill="#333" d="M149.254 123.227c.583-4.045 3.482-7.888 5.596-11.316 2.413-3.912 4.616-7.92 6.87-11.923 4.961-8.81 9.428-17.879 14.778-26.469l-12.952-7.571c-7.156 12.031-16.032 23.007-22.002 35.729-3.735 7.959-8.861 20.725-1.755 28.32 4.333 4.631 11.215 2.481 15.846-.249 6.168-3.637 10.992-10.134 15.007-15.892 7.657-10.981 15.334-24.297 18.153-37.467 1.195-5.584 1.373-12.28-4.22-15.549-5.135-3.001-10.754.536-14.334 4.198-8.969 9.176-13.446 22.83-17.449 34.695-2.731 8.095-6.905 18.383-3.072 26.69 6.511 14.11 21.079-.053 26.764-6.726 7.206-8.46 13.832-18.108 18.737-28.077 2.126-4.321 3.539-8.869 5.36-13.278 1.765-4.272 2.289-9.866-1.257-13.412-16.153-16.153-35.264 36.681-38.851 46.038-3.521 9.187-8.482 22.964-2.742 32.16 5.892 9.44 16.866 3.057 22.835-2.378 8.427-7.672 14.526-18.325 19.586-28.396 5.481-10.908 10.95-22.433 12.6-34.628.861-6.364-4.685-11.834-11.017-8.47-6.113 3.248-9.766 9.669-13.579 15.207-4.584 6.658-8.169 14.01-11.726 21.248-3.246 6.605-5.581 13.965-9.305 20.282-3.145 5.335-5.766 11.625-2.581 17.524 1.915 3.547 6.86 4.764 10.261 2.691 9.171-5.59 14.264-17.622 19.691-26.441 3.186-5.178 6.119-10.498 9.148-15.769 3.189-5.548 6.799-10.775 9.108-16.773 2.671-6.941-7.803-12.921-12.535-7.297-10.488 12.464-16.59 27.456-21.132 42.958-2.665 9.094-8.552 34.291 8.716 31.796 7.918-1.144 13.295-12.56 16.673-18.758 6.341-11.633 11.366-23.746 14.279-36.699.739-3.284-.433-6.737-3.447-8.47-9.412-5.411-16.807 6.037-20.677 12.901-5.074 8.998-9.412 19.317-11.192 29.536-.752 4.316-1.102 8.853 1.108 12.824 2.357 4.237 8.486 4.743 12.41 2.613 3.3-1.792 5.368-4.646 7.542-7.613 5.584-7.619 9.795-16.856 13.5-25.5 4.141-9.662 8.608-19.249 11.756-29.292 2.568-8.191-9.537-13.123-13.708-5.779-5.957 10.489-8.883 23.315-12.53 34.845-2.435 7.697-8.554 22.22.22 27.916 3.157 2.05 8.644.925 10.261-2.691 8.074-18.055 14.668-37.481 13.952-57.525-.211-5.911-.854-12.987-4.501-17.895-5.972-8.036-15.23-6.062-22.27-.56-7.417 5.796-16.249 10.661-24.286 15.574-4.201 2.568-8.55 4.914-13.191 6.579-4.738 1.7-4.974 2.597-6.611-1.871-1.782-4.866-2.92-10.052-4.269-15.052-1.255-4.651-2.682-9.399-2.673-14.244.016-7.874 4.858-15.172 11.657-18.814l-11.017-8.47c-2.742 12.543-6.455 24.74-8.059 37.52-1.222 9.731.071 20.907 10.357 25.048 13.915 5.603 18.847-11.978 22.202-21.572 3.118-8.918 4.48-18.626 3.531-28.059-.427-4.247-1.351-8.599-4.504-11.705-4.205-4.142-10.977-3.278-14.681.988-7.69 8.856-9.131 23.65-4.354 33.944 2.451 5.282 5.815 9.305 11.247 11.561 6.201 2.574 12.476-3.841 15.47-8.299 5.882-8.758 11.236-25.998 1.846-34.478-4.188-3.781-10.153-4.748-14.912-1.268-4.239 3.1-6.392 8.415-8.093 12.398-4.491 10.516-13.135 27.575-3.183 37.718 4.308 4.39 11.305 8.545 17.413 5.051 5.552-3.177 9.145-10.44 12.413-15.749 3.537-5.745 6.264-12.181 7.266-18.869.852-5.68 1.158-13.777-3.261-18.254-7.632-7.734-16.903.478-21.898 6.795-7.386 9.341-11.878 20.127-5.544 31.509 2.87 5.158 9.482 9.446 15.223 10.252 6.879.966 12.894-2.231 17.686-6.95 8.761-8.629 15.754-23.798 14.567-36.088-.511-5.291-2.17-12.082-8.194-13.632-7.09-1.824-12.218 3.154-14.011 9.608-1.267 4.561-.52 10.247-.206 14.123.535 6.604 1.105 13.339 3.871 19.444 6.007 13.26 25.071 14.373 31.158.498 2.539-5.788 2.447-11.723 3.004-17.879.658-7.284-2.09-12.808-7.836-17.137-4.273-3.22-9.388.506-11.017 4.482-3.201 7.81-2.314 16.375-.812 24.466 1.331 7.17 4.362 14.176 11.259 17.504 3.984 1.922 10.112.627 11.017-4.482 1.413-7.973 2.792-16.011.711-23.999-2.042-7.836-8.867-13.758-16.842-14.637-7.695-.849-14.698 4.442-14.323 12.52.37 7.985 7.639 15.124 15.409 16.217 8.95 1.259 16.544-5.538 15.783-14.712-.644-7.767-5.993-14.484-11.24-19.859-6.619-6.781-15.609-10.466-25.019-10.741-4.91-.143-9.547 2.203-14.46 1.09-3.068-.695-6.27-.927-9.405-.886-2.186.029-5.193 1.106-6.905 1.089l5.303 2.197-.46-.464 2.197 5.303c-1.976 2.448-2.136 3.1-.48 1.958.704-.395 1.676-.545 2.447-.76 2.721-.761 5.511-.832 8.321-.918 6.01-.184 12.175-.075 18.174.371 4.186.311 8.95 1.386 12.287 4.082 4.968 4.013 5.302 9.995 5.292 15.907-.021 13.307.661 26.567.812 39.859.155 13.525-8.541 20.995-18.137 29.086-7.405 6.244 3.262 16.799 10.607 10.607 10.745-9.06 20.406-18.507 22.125-33.187.793-6.769.076-13.535-.172-20.316-.297-8.134-.287-16.286-.248-24.425.066-13.7-3.506-26.544-16.841-32.831-5.394-2.543-11.216-3.446-17.116-3.884-7.422-.552-15.197-.598-22.601.083-4.884.449-10.271 1.596-14.313 4.515-5.382 3.887-7.787 12.807-.982 16.794 2.801 1.641 5.917.992 8.839.18 3.696-1.027 7.364.458 11.006.768 7.052.599 13.634-2.234 20.569-.268 4.827 1.368 8.389 4.992 11.551 8.675 1.434 1.67 2.548 3.596 3.537 5.553 1.416 2.801-.536.1 2.44.518-1.537-.216-2.686-1.22-3.456-2.478 1.267 2.071-3.769 3.21-1.451 3.256.574.011 1.27.639 2.364 1.752 1.435 1.461 1.455 4.315 1.527 6.199.152 3.972-.623 7.91-1.312 11.798l11.017-4.482c-3.743-1.806-3.965-6.379-4.655-10.099-.941-5.069-.863-10.135 1.102-14.931l-11.017 4.482c1.612 1.215.308 9.115.042 11.061-.426 3.118-2.377 9.508-5.311 4.113-2.182-4.012-2.086-9.712-2.445-14.15-.536-6.614.075 1.112-.278-2.381-.105-1.036-.141-2.076-.174-3.117-.035-1.129.04-2.251.128-3.375.145-1.836 1.078-1.013-.39-.151l-3.785 1.024c-2.837-3.151-3.852-3.645-3.043-1.481.016-.445.03-.285.043.481.137 3.028.061 5.428-.732 8.381-1.268 4.721-3.805 9.113-6.41 13.21-1.774 2.791-4.051 5.765-7.352 6.676-4.075 1.125-6.625-5.78-6.038-8.653 1.021-4.998 5.678-10.078 9.37-13.331-.418.331-.28.26.413-.213-1.741 1.088-5.16-1.15-5.698-1.954.143.213.137 3.748.096 4.961-.179 5.316-3.023 10.49-5.641 14.955-1.118 1.907-2.372 3.734-3.621 5.556-.613.881-1.234 1.756-1.863 2.625-2.431 3.392-.142.358.977 1.034-3.639-2.197-.999-8.77-.013-11.928 1.351-4.326 3.481-8.364 5.203-12.545.571-1.387 1.263-2.703 2.032-3.989-.38.636-5.223-3.813-3.943-.184 1.431 4.058-.497 8.474-2.257 12.112a37.834 37.834 0 0 1-2.656 4.625c-.188.161-.375.324-.559.489 2.785-1.904 4.179 1.704 2.13-1.415-2.645-4.027-3.166-8.167-1.816-12.753.47-1.596 1.042-3.221 1.596-4.795.268-.763 1.694-2.217.885-1.861l-3.785 1.024c2.251.021 1.074-.747-3.532-2.305.954 1.3-.182-.865.32.999.291 1.082.346 2.3.418 3.726.158 3.115-.015 6.256-.28 9.36-.682 7.97-4.09 17.226-8.046 24.2.341-.601 2.085-1.479 2.48-.925-.515-.724-.738-1.563-.846-2.588-.332-3.148.064-6.385.565-9.493 1.777-11.022 4.956-21.624 7.336-32.511 1.416-6.475-5.058-11.662-11.017-8.47-8.344 4.469-13.835 11.871-17.11 20.607-3.649 9.731-1.303 19.736 1.232 29.391 2.297 8.747 3.958 21.233 11.99 26.818 8.51 5.918 20.247-.07 28.253-4.18 9.2-4.723 17.712-10.906 26.354-16.554 1.925-1.258 4.176-2.229 5.87-3.802 1.974-1.834 3.629-.817.703-2.061-1.252-.532-.14-.11.124.624.544 1.512.809 3.128 1.062 4.708 2.83 17.688-4.535 37.691-11.668 53.641l10.261-2.691a12111403330253608 12111403330253608 0 0 0 2.946 3.909c0-.173.247-2.215.031-.788.271-1.786.713-3.548 1.151-5.298 1.046-4.181 2.365-8.297 3.7-12.392 2.975-9.128 5.139-19.35 9.863-27.669l-13.708-5.779c-3.14 10.014-7.615 19.574-11.744 29.208-2.108 4.919-4.753 9.67-7.37 14.331-1.171 2.085-2.416 4.128-3.673 6.161-.47.815-.991 1.594-1.565 2.338-.493.673-1.886 1.116-.809.878h3.988l-1.101-.154 4.482 3.447c.971 1.745.379 1.055.203.259.485 2.19.126-.12.151-.759.075-1.89-.038-.257.182-1.521.19-1.089.452-2.166.716-3.239 1.091-4.443 2.652-8.841 4.459-13.041 1.89-4.394 4.073-8.681 6.644-12.716 1.256-1.972.889-1.515 2.333-3.067 1.421-1.526-.305.02.474-.479-1.029.659-3.184.825-4.924-.176l-3.447-8.47c-2.431 10.812-6.385 20.553-11.347 30.412-2.265 4.499-5.03 9.612-7.978 13.203-.343.408-.7.802-1.071 1.184-1.493 1.59 1.011-.488-.512.488 2.323-1.225 4.696-.585 7.116 1.921.53.824.247-2.316.26-2.499.375-5.585 2.234-11.355 3.872-16.659 3.59-11.632 8.279-23.343 16.196-32.753l-12.535-7.297c-1.57 4.079-4.449 7.824-6.658 11.576-2.753 4.677-5.364 9.437-8.086 14.133-2.867 4.946-6.004 9.756-9 14.625-1.955 3.178-3.992 7.662-7.309 9.684l10.261 2.691c.15 2.598.406 2.981.766 1.15.269-.904.83-1.754 1.273-2.579 1.077-2.004 2.057-3.895 2.918-6.022 2.546-6.286 5.525-12.408 8.543-18.478 2.57-5.169 5.274-10.265 8.296-15.185 2.492-4.057 5.698-10.332 10.013-12.624l-11.017-8.47c-1.71 12.646-7.537 24.468-13.459 35.639-4.474 8.439-10.395 19.191-19.158 23.866.977-1.605 2.602-.845 4.875 2.282-.434-1.12-.453-2.626-.293-3.799.456-3.357 1.514-6.739 2.411-9.999 1.691-6.147 4.348-12.027 6.786-17.901 2.263-5.453 4.825-10.786 7.714-15.935 2.039-3.636 5.07-9.883 8.901-11.775l-3.785 1.024.919-.023-3.785-1.024c-1.29-5.12-2.165-6.342-2.625-3.667.05-.19-1.115 2.883-.54 1.594-1.032 2.312-1.764 4.719-2.664 7.084-2 5.255-5.103 10.178-8.169 14.861a164.702 164.702 0 0 1-9.538 13.124c-1.921 2.38-6.162 8.075-9.038 8.589h3.988c2.862.626 2.272 4.231 2.455.466.091-1.879.73-3.826 1.217-5.639 1.07-3.99 2.456-7.924 3.792-11.83 2.109-6.167 4.511-12.148 7.682-17.851 1.119-2.013 3.627-5.697 4.289-6.521.569-.708 1.239-1.326 1.904-1.94-.199.184-1.241.47-1.377.452l-3.785-1.024c-1.868-4.515-2.696-5.368-2.484-2.559a28.359 28.359 0 0 1-.53 2.755c-.558 2.606-1.459 5.215-2.5 7.665-2.138 5.034-4.929 9.79-7.686 14.501-2.579 4.406-5.08 8.78-8.099 12.909-1.561 2.135-3.543 3.968-5.416 5.821-.689.7-1.431 1.337-2.226 1.912-4.595 3.31.454-3.529 3.253 4.199.291.803.047-1.664.096-2.253.018-.215.473-2.13.68-2.937 1.27-4.935 3.742-9.539 6.219-13.954 5.493-9.792 12.447-18.687 18.185-28.333 4.965-8.347-7.854-15.755-12.952-7.571-5.348 8.586-9.876 17.63-14.778 26.469-2.502 4.511-5.047 8.967-7.756 13.359-2.487 4.032-5.539 8.717-6.222 13.463-.582 4.043.931 8.041 5.238 9.226 3.557.984 8.637-1.18 9.221-5.234z"/><path fill="#333" d="M123.863 147.395c-1.805-1.22-1.789-1.15.048.209-1.28-1.039-2.453-2.221-3.634-3.367-2.418-2.347-4.792-4.718-7.28-6.993-5.336-4.878-10.926-9.466-16.213-14.4a84.385 84.385 0 0 1-5.979-6.205c-3.72-4.258 2.139 3.063-1.2-1.516-1.023-1.403-1.97-2.86-2.92-4.312-1.896-2.898-3.619-5.909-5.326-8.921-.523-.924-1.32-1.792-1.926-2.667-3.635-5.25 2.1-2.642-.108 8.693L50.68 119.57c1.269.564 2.409 1.232 3.586 1.969-5.372-3.362 4.232 3.141 5.414 4.031 2.533 1.908 4.946 3.815 7.521 5.849 7.932 6.266 15.796 12.611 24.147 18.316 7.37 5.035 14.805 9.967 22.517 14.466 8.785 5.125 20.276 12.544 30.658 12.031 15.138-.748 23.795-15.889 16.838-29.342-3.171-6.131-8.213-9.861-13.049-14.447-5.45-5.168-10.515-10.786-15.75-16.172-5.328-5.481-10.49-11.039-15.442-16.867-2.496-2.937-4.917-5.937-7.308-8.961-.966-1.222-2.04-2.373-3.05-3.56 3.201 3.759-.964-3.318 1.065 2.164l-28.645 22.022c19.626 9.95 37.054 23.976 57.096 33.102 6.727 3.063 12.391 4.859 19.709 5.709 9.74 1.131 19.278-7.46 21.718-16.331 3.201-11.635-3.893-22.269-12.129-29.725-8.688-7.865-19.419-12.424-30.688-15.186-10.16-2.49-20.072-5.664-30.191-8.287-6.151-1.595-12.53-2.286-18.844-2.855-2.299-.241-2.239-.222.18.058a25.3 25.3 0 0 1-3.234-.805c2.07.961 2.093.858.068-.309a311.378 311.378 0 0 1-4.476-2.911c-.574-.379-6.296-4.58-3.304-2.223-2.159-1.701-4.269-3.46-6.041-5.563-1.733-2.056-3.378-3.985-5.331-5.844-.896-.853-6.205-6.343-3.353-2.508-6.33-8.511-16.743-12.816-26.68-6.996-8.409 4.926-13.354 18.13-6.996 26.68 3.907 5.253 8.546 8.969 12.823 13.776 4.931 5.541 10.176 9.936 16.254 14.33 6.074 4.392 12.478 8.389 19.902 9.98 3.874.83 7.92 1.131 11.869 1.487 5.628.507-4.252-.78 1.566.178 1.76.29 3.496.717 5.229 1.132 5.833 1.399 11.516 3.416 17.258 5.136 5.724 1.715 11.62 2.716 17.378 4.307 1.208.334 8.445 3.209 3.828 1.138 1.392.624 2.712 1.391 4.026 2.16.68.398 4.558 3.509 1.18.702 1.181.981 2.252 2.112 3.306 3.225 2.607 2.752-2.669-3.91-.453-.675 2.828 4.129-.942-10.016-1.45-5.586l2.662-9.842 5.217-5.111 9.842-2.662c-1.999.15-1.514.272 1.455.363-1.366-.327-2.715-.806-4.036-1.271 1.952.896 1.893.871-.176-.073-1.645-.749-3.239-1.613-4.834-2.461-5.941-3.159-11.692-6.67-17.406-10.22-10.954-6.805-21.744-13.856-33.261-19.695-6.321-3.205-13.391-3.686-19.684 0-7.055 4.133-11.963 13.91-8.961 22.022 3.16 8.54 8.81 14.621 14.401 21.603 5.185 6.474 10.571 12.939 16.426 18.82 5.314 5.336 10.49 10.81 15.75 16.198 2.182 2.235 4.349 4.453 6.737 6.469 1.04.878 2.072 1.756 3.083 2.668a25.229 25.229 0 0 1 1.913 1.97c-1.61-2.195-1.891-2.384-.845-.569l16.838-29.342c1.094-.054 6.03 2.03 1.975.084-1.667-.8-3.306-1.664-4.948-2.514-3.823-1.977-7.583-4.009-11.283-6.212-7.673-4.57-15.034-9.656-22.402-14.696-1.502-1.027-2.955-2.132-4.415-3.218-4.766-3.543 2.899 2.303-1.735-1.329-3.248-2.546-6.46-5.139-9.707-7.686-2.232-1.751-4.486-3.476-6.737-5.203 3.768 2.891-5.013-3.891-5.907-4.564l-1.5-1.13c2.289 1.659 1.289.868-3-2.37-1.496-.87-2.915-1.795-4.5-2.5-5.003-2.223-9.535-3.476-15.026-1.966-6.167 1.696-12.349 7.099-13.62 13.62-1.418 7.28-.264 12.47 2.728 19.149 1.24 2.768 3.433 5.242 4.95 7.874 4.567 7.925 9.938 15.48 16.135 22.214 5.638 6.127 12.338 11.321 18.554 16.836 6.679 5.925 12.528 12.562 20.094 17.449 8.938 5.773 21.49 1.863 26.68-6.996 5.553-9.478 1.915-20.923-6.996-26.679z"/><path fill="#333" d="M99.521 213.233c12.745.186 23.388-9.17 34.174-14.783 10.678-5.557 21.706-10.192 31.826-16.782 10.083-6.567 19.498-14.462 27.288-23.646 3.952-4.659 7.966-9.27 11.743-14.074 2.519-3.203 5.079-6.414 7.244-9.872.936-1.495 1.898-2.97 2.874-4.438.271-.408 3.8-4.839 1.138-1.616l-32.592-18.972c-.678 2.055-.609 2.002.208-.158-.651 1.405-1.432 2.739-2.113 4.13-1.148 2.344-2.173 4.647-3.57 6.861a90.386 90.386 0 0 1-1.976 2.929c-.22.319-3.765 4.927-1.209 1.698-1.809 2.286-3.736 4.478-5.671 6.657-3.61 4.066-7.481 7.93-11.439 11.656-1.958 1.843-4.005 3.585-6.085 5.289 1.801-1.359 1.805-1.371.015-.039-1.371 1.013-2.795 1.951-4.218 2.888-10.179 6.702-20.606 12.801-31.573 18.13-2.742 1.332-5.527 2.571-8.282 3.876a653.905 653.905 0 0 1-3.375 1.617c-5.411 2.584 3.392-1.124-2.092.847-6.835 2.456-12.539 4.686-18.105 9.515-6.552 5.685-7.242 16.473-3.049 23.631 4.54 7.75 13.46 10.979 22.022 8.961 5.458-1.286 10.897-2.609 16.26-4.256 4-1.228 7.825-2.855 11.676-4.483-2.816 1.223-1.687.753 3.388-1.411a336.208 336.208 0 0 0 5-2.191c1.11-.501 2.221-.999 3.333-1.495l1.667-.733c-2.874 1.232-1.763.766 3.333-1.396 2.041-.895 2.015-.894-.077.001 2.585-1.076 5.167-2.152 7.746-3.242 5.031-2.126 9.457-4.751 14.053-7.667 10.891-6.911 19.167-16.137 27.724-25.642 2.583-2.869 4.926-5.857 7.289-8.923a211.48 211.48 0 0 0 1.88-2.548c3.115-4.256-2.588 3.029.831-1.029 5.875-6.975 9.262-12.487 10.211-21.789 1.081-10.595-9.688-19.5-19.5-19.5-11.446 0-18.421 8.929-19.5 19.5-.075-3.145.918-5.764 2.978-7.856a78.912 78.912 0 0 0-1.767 2.067c-2.085 2.483-4.044 5.066-5.997 7.655-.497.659-4.686 5.984-1.763 2.393-1.85 2.272-3.965 4.37-5.932 6.543a331.782 331.782 0 0 1-10.308 10.909c-.725.732-5.668 4.67-1.878 1.939-2.128 1.533-4.397 2.882-6.606 4.294-1.787 1.143-3.505 2.275-5.387 3.264-.722.38-7.108 3.131-2.898 1.387a940.748 940.748 0 0 0-9.273 3.896c3.036-1.259 1.977-.807-3.178 1.354a336.208 336.208 0 0 0-5 2.191c-.633.283-7.354 3.168-3.675 1.659-5.042 2.187-6.195 2.658-3.458 1.413-1.734.684-3.511 1.255-5.282 1.832-5.326 1.733-10.813 2.972-16.26 4.256a78626372005038740 78626372005038740 0 0 0 18.339 33.382c-4.364 2.341-.892.505.361.102 3.728-1.197 7.306-2.801 10.888-4.374 6.151-2.702 12.234-5.676 18.235-8.693 11.196-5.628 22.156-12.138 32.239-19.59 20.401-15.076 40.829-36.623 48.424-61.341 2.56-8.33-1.589-17.703-8.961-22.022-7.019-4.112-18.124-3.619-23.631 3.049-4.065 4.922-7.668 10.046-11.049 15.447a95.726 95.726 0 0 1-2.142 2.966c2.32-3.148-1.376 1.629-1.531 1.817-1.945 2.362-3.954 4.672-5.94 6.999-3.31 3.878-6.605 7.685-10.283 11.224-1.971 1.896-4.06 3.665-6.171 5.401-1.728 1.376-1.705 1.36.07-.047-1.305.981-2.65 1.907-3.993 2.833-8.906 6.137-18.717 10.565-28.401 15.292-4.802 2.344-9.519 4.839-14.104 7.584-2.073 1.241-4.151 2.459-6.196 3.748-.82.518-1.655 1.01-2.506 1.474l2.116-.807c-2.153.594-1.679.547 1.421-.142-10.631-.155-19.5 8.987-19.5 19.5.002 10.748 8.875 19.346 19.502 19.501z"/><path fill="#333" d="M118.838 118.537c5.845 1.843 11.337 3.214 17.519 3.661 8.562.619 16.338-3.468 22.744-8.636 8.351-6.738 14.95-15.778 21.71-24.039 6.724-8.217 13.994-16.199 18.84-25.727 6.078-11.948 6.962-23.963 3.487-36.871v10.368l.195-.828-8.961 11.654-11.177 1.507c-2.821-1.281-3.334-1.45-1.538-.507 1.017.561 1.967 1.192 2.994 1.747.677.365 4.682 3.618 1.395.845 1.251 1.056 2.386 2.25 3.524 3.424 3.63 3.749-1.916-3.241.982 1.127.891 1.343 1.61 2.792 2.327 4.232-2.041-4.097.068.476.335 1.292.495 1.516.842 3.078 1.192 4.633.189.837.862 6.096.283 1.131.185 1.587.263 3.184.345 4.779.167 3.25.059 6.512-.105 9.759a180.296 180.296 0 0 1-.918 11.083c.484-4.292-.357 1.716-.432 2.127-.332 1.822-.779 3.62-1.229 5.415-.453 1.806-1.04 3.574-1.63 5.338-1.727 5.161 1.763-3.314-.731 1.438-.769 1.464-1.701 2.842-2.616 4.216-.322.484-3.679 4.806-.949 1.369-5.128 6.454-10.017 12.991-14.8 19.702-.193.271-3.757 4.965-1.253 1.777-.975 1.241-6.548 8.113-3.216 4.028-2.101 2.576-4.548 4.86-7.034 7.054-.444.392-4.772 3.748-1.227 1.075-1.316.992-2.675 1.926-4.031 2.863-2.677 1.85-5.435 3.584-8.184 5.324-8.964 5.673-12.511 17.265-6.996 26.68 5.227 8.922 17.69 12.685 26.68 6.996 12.252-7.754 23.624-16.056 32.476-27.659-1.259 1.688-1.187 1.624.215-.193a295.36 295.36 0 0 0 5.195-6.81c2.149-2.907 4.186-5.897 6.284-8.84.215-.302 3.984-5.001 1.348-1.834a218.747 218.747 0 0 0 3.157-3.892c2.757-3.47 5.458-6.974 7.8-10.739 8.464-13.604 10.191-30.917 11.09-46.519.853-14.819-1.447-29.381-8.089-42.713-6.371-12.789-19.178-22.362-32.277-27.355-11.29-4.304-25.32 3.412-28.031 14.907-.947 4.016-.794 7.417.273 11.383.286 1.064 1.043 5.267.405.488.128.958.033 6.073.778 1.248-.233 1.507-.713 2.97-1.176 4.417-.769 2.049-.715 1.932.164-.35-.671 1.444-1.491 2.817-2.298 4.187-.82 1.394-1.748 2.724-2.665 4.054-.363.527-3.666 4.808-.852 1.232-4.223 5.368-8.699 10.561-13.064 15.814-4.155 5.001-8.343 10.09-13.111 14.524-2.839 2.64.825-.237 1.82-.613l2.103-.138c-2.245-.057-2.072.07.518.381-3.141-.464-6.206-1.671-9.221-2.622-10.137-3.197-21.248 3.661-23.987 13.62-2.897 10.531 3.491 20.792 13.62 23.986z"/><path fill="#333" d="M130.521 181.233c-.533-17.376-10.511-29.506-21.759-41.675-2.35-2.542-4.539-5.203-6.702-7.903-.153-.191-3.823-4.911-1.451-1.827-1.514-1.969-3.006-3.955-4.5-5.94-3.054-4.057-6.171-8.049-9.409-11.961a606.529 606.529 0 0 1-3.138-3.822c-1.374-1.734-1.383-1.725-.029.028a105.773 105.773 0 0 1-1.971-2.687c-.976-1.354-1.872-2.762-2.762-4.174a60.684 60.684 0 0 1-1.67-2.896c.912 2.503 1.049 2.873.409 1.11-.379-1.046-.633-2.125-.875-3.208.345 3.421.48 4.107.405 2.059a12.158 12.158 0 0 1-1.712 6.237c-1.584 3.15-5.891 6.52-9.723 6.617 2.263.151 2.169.102-.282-.146 1.104.22 2.199.478 3.284.776 3.771.961 7.428 2.338 11.185 3.357 18.145 4.923 36.791 1.15 55.199 1.554 10.63.233 19.5-9.047 19.5-19.5 0-11.014-8.886-18.992-19.5-19.5-2.389-.136-2.396-.115-.019.064a158.107 158.107 0 0 0-3.725-.737c-4.242-.814-8.585-1.179-12.898-1.303-2.498-.072-4.987-.019-7.484-.158-2.34-.233-2.36-.214-.062.058-1.718-.262-3.416-.654-5.11-1.032-5.039-1.126-9.969-2.679-14.955-4.006a45.341 45.341 0 0 1-3.055-.93c4.021 1.301-.142-.452-1.02-1.006-2.273-1.436-4.578-2.816-6.829-4.286-8.911-5.816-21.509-1.831-26.68 6.996-5.572 9.512-1.888 20.882 6.996 26.68 5.567 3.633 10.914 6.845 17.166 9.224 5.202 1.979 10.926 3.168 16.317 4.53 6.79 1.715 13.857 2.776 20.859 2.909 1.286-.004 2.571.004 3.857.023.252.003 6.527.46 2.53-.09 4.718.649 9.323 1.838 14.112 2.067v-39c-9.351-.205-18.662.707-28 1.016-4.37.145-8.73.022-13.084-.358 3.943.344-2.891-.617-3.747-.819-2.13-.502-4.216-1.225-6.3-1.888-11.334-3.604-22.118-4.935-33.17.252C38.8 81.533 36.776 96.422 39.296 107.72c2.136 9.577 8.7 17.837 14.622 25.365 2.709 3.444 5.53 6.795 8.304 10.187-2.623-3.208 2.022 2.707 2.46 3.285a850.701 850.701 0 0 0 6.424 8.366c4.686 6.044 9.657 11.692 14.809 17.333a104.375 104.375 0 0 1 3.636 4.225c-3.383-4.126.271.67.869 1.65a32.12 32.12 0 0 1 1.265 2.375c-1.041-2.622-1.207-2.927-.497-.914.265.866.48 1.745.645 2.635-.333-2.904-.438-3.235-.314-.993.326 10.622 8.624 19.5 19.5 19.5 10.386-.001 19.829-8.872 19.502-19.501z"/><path fill="#333" d="M54.617 84.947c-4.997-1.834-9.362-7.654-12.477-11.743-3.495-4.588-7.402-9.756-12.09-13.153-4.145-3.003-10.653 1.995-8.814 6.776 1.79 4.653 5.204 8.544 8.297 12.411 3.417 4.273 8.571 7.956 10.808 13.022l8.209-8.209c-1.323-.74-1.77-2.016-2.786-3.062-1.705-1.756-3.351-3.562-5-5.37-3.372-3.697-6.454-7.635-9.062-11.915L21.34 69.761c2.807 4.533 6.029 8.748 9.29 12.958 3.033 3.915 5.798 7.788 9.862 10.694 5.845 4.18 11.513-4.581 7.271-9.423-9.333-10.656-20.687-22.632-21.242-37.757L15.34 49.261c3.747 6.977 9.022 28.475 20.776 24.257 2.286-.82 4.757-3.045 4.405-5.786-.873-6.804-5.327-13.079-8.617-19.028-1.498-2.709-6.964-8.588-6.883-10.972l-9.028 5.181c4.792 2.492 7.928 7.635 11.64 11.437 4.097 4.196 8.034 8.388 13.793 10.168 3.27 1.011 6.344-1.177 7.381-4.191 1.777-5.17-2.87-10.18-6.003-13.69-4.276-4.791-8.107-10.009-12.54-14.647l-7.271 9.423c10.77 7.956 18.177 19.813 30.933 25.105 5.247 2.176 8.973-4.675 6.776-8.814-3.721-7.008-11.87-10.309-16.938-16.214l-7.271 9.423c13.292 9.492 26.651 18.989 42.246 24.292 7.934 2.698 15.893 4.875 24.023 6.876 3.662.901 7.445 1.222 11.136 2.037 3.871.855 7.634 2.163 11.528 2.899 7.561 1.431 10.788-10.134 3.19-11.571-7.066-1.337-13.833-3.488-21-4.5-7.537-1.064-15.059-3.902-22.279-6.205-15.925-5.081-29.3-14.558-42.787-24.189-5.88-4.199-11.439 4.567-7.271 9.423 4.227 4.925 12.033 8.08 15.062 13.786l6.776-8.814c-5.141-2.132-9.289-6.807-13.352-10.457-4.976-4.469-9.308-9.444-14.714-13.438-5.658-4.179-11.811 4.673-7.271 9.423 3.546 3.711 6.154 8.147 9.777 11.757a85.99 85.99 0 0 1 3.49 3.705 22.18 22.18 0 0 1 1.641 2.07c1.065 1.514.075.507.549-.869l7.381-4.191c-4.41-1.363-8.139-6.553-11.144-9.885-3.502-3.884-6.685-8.047-11.423-10.51-4.088-2.125-8.87.508-9.028 5.181-.162 4.768 3.229 9.169 5.911 12.817 1.654 2.25 2.926 4.751 4.243 7.212.787 1.47 1.484 2.979 2.165 4.5.804 1.795 2.921 3.446 3.181 5.472l4.405-5.786c.133-.048 1.974-.024 2.453.411-.667-.605-1.108-1.376-1.588-2.127-1.305-2.042-2.348-4.259-3.378-6.447-1.639-3.483-2.889-7.187-4.711-10.579-2.804-5.222-11.398-2.9-11.181 3.028.683 18.625 13.155 32.997 24.757 46.243l7.271-9.423c-3.006-2.149-5.188-5.937-7.434-8.818-2.644-3.392-5.149-6.873-7.414-10.53-4.063-6.561-14.402-.575-10.362 6.057 2.747 4.509 6.006 9.21 9.688 13.001 3.66 3.768 6.836 9.062 11.464 11.651 5.645 3.158 10.537-2.937 8.209-8.209-1.759-3.984-5.162-6.947-7.938-10.214-3.148-3.704-8.167-7.698-9.957-12.352l-8.814 6.776c2.111 1.529 3.538 4.151 5.286 6.062 2.606 2.849 4.7 6.164 7.396 8.913 4.465 4.553 8.641 8.887 14.752 11.13 7.281 2.67 10.391-8.93 3.19-11.574z"/><path fill="#333" d="M50.521 115.733c1.627.719 1.819.638.576-.243a14.737 14.737 0 0 0-2.577-1.776c-2.344-1.44-4.247-3.351-6.039-5.408-2.977-3.418-6.166-7.321-10.265-9.421-4.545-2.328-10.328 1.475-8.814 6.776 2.543 8.901 10.873 15.436 16.543 22.314l5.838-10.028c-4.3-1.484-7.155-6.186-9.588-9.751-3.203-4.693-6.275-9.476-9.492-14.158l-6.776 8.814c8.274 1.306 19.218 6.996 25.443-1.424 4.607-6.232-5.816-12.206-10.362-6.057 1.938-1.193 2.028-1.691.268-1.495-1.259-.07-2.458-.367-3.692-.612-2.839-.563-5.629-1.536-8.467-1.984-4.647-.734-10.098 3.979-6.776 8.814 7.076 10.299 13.634 25.069 26.252 29.424 6.211 2.144 9.311-5.815 5.838-10.028-2.077-2.519-4.529-4.66-6.664-7.136-2.198-2.549-5.854-6.597-6.793-9.883l-8.814 6.776c4.664 2.389 7.354 7.769 11.322 11.059 3.446 2.858 8.299 7.725 13.04 7.427 7.684-.483 7.731-12.486-.001-12z"/><path fill="#333" d="M34.493 92.552l-.9.062 4.623 10.966c4.409-3.189 7.421-6.655 7.208-12.398-.255-6.88-5.064-14.34-8.283-20.195-3.816-6.941-7.798-13.744-11.356-20.824-3.285-6.537-1.828-14.84-.931-21.763.993-7.658-11.02-7.563-12 0-.703 5.424-1.248 10.905-.784 16.4.537 6.354 3.54 12.062 6.47 17.6 3.21 6.066 6.796 11.927 10.049 17.971a84.479 84.479 0 0 1 3.714 7.809c.573 1.388 1.111 2.752 1.167 4.26-.04-1.081-.547.226-1.311.779-5.648 4.085-2.173 12.063 4.623 10.966 1.383-.223 2.491-.71 3.767-1.272 7.07-3.11.957-13.446-6.056-10.361zm10.1 60.967c3.861 1.506 7.05 5.136 10.77 7.093 4.232 2.226 8.519 4.35 12.766 6.547 4.092 2.117 8.35 3.907 12.478 5.952 3.427 1.698 7.551 2.788 10.005 5.864l5.838-10.028c-1.297-.301-2.499-1.981-3.567-2.728-2.535-1.775-4.807-3.815-7.083-5.906a113.912 113.912 0 0 1-11.827-12.628c-7.677-9.555-13.947-19.798-19.605-30.648-3.579-6.863-13.935-.795-10.362 6.057 6.166 11.823 13.244 22.594 21.481 33.076 4.347 5.531 9.275 10.362 14.498 15.055 3.549 3.188 8.485 8.181 13.273 9.293 6.226 1.446 9.489-5.452 5.838-10.028-2.534-3.177-6.17-4.911-9.825-6.48-4.578-1.966-9.066-4.302-13.564-6.459-4.814-2.308-9.548-4.843-14.289-7.302-4.813-2.497-8.541-6.316-13.636-8.303-7.218-2.814-10.316 8.794-3.189 11.573zM42.521 214.4c1.575.167 3.179 1.099 4.738 1.452 2.26.512 4.685.672 6.992.844 5.069.376 10.318-.355 15.371-.731 11.559-.859 22.974-1.217 34.494-2.78 3.247-.441 4.969-4.55 4.191-7.381-.953-3.465-4.142-4.63-7.381-4.191-10.442 1.417-20.822 1.625-31.304 2.351-5.116.355-10.236.882-15.371.731-4.092-.12-7.701-1.868-11.731-2.296-7.69-.816-7.611 11.192.001 12.001z"/><path fill="#333" d="M57.216 213.914c9.912-6.484 20.944-10.74 31.41-16.199 10.027-5.23 17.396-12.978 24.076-21.954 4.626-6.216-5.798-12.188-10.362-6.057-6.246 8.392-13.33 14.474-22.691 19.137-9.59 4.778-19.493 8.824-28.49 14.71-6.446 4.219-.44 14.613 6.057 10.363z"/><path fill="#333" d="M78.117 207.852c6.007-1.545 11.797-3.689 17.433-6.272 2.974-1.363 3.681-5.601 2.153-8.209-1.773-3.027-5.236-3.515-8.209-2.153-4.685 2.147-9.579 3.779-14.567 5.062-7.49 1.927-4.311 13.501 3.19 11.572z"/><path fill="#333" d="M61.493 218.247c2.508 1.286 4.982 1.609 7.755 1.927-.635-.1-.631-.097.012.011 1.017.175 1.934.212 2.944.266 1.33.072 2.651.246 3.984.281 7.743.204 7.723-11.797 0-12a41.595 41.595 0 0 1-2.542-.167c-.244-.021-2.968-.258-1.682-.036-1.101-.19-2.218-.299-3.328-.426 1.023.117-2.279-.83-1.086-.219-2.911-1.492-6.49-.783-8.209 2.153-1.584 2.704-.756 6.719 2.152 8.21z"/><path fill="#333" d="M72.926 211.519c11.369 2.681 22.891 4.895 34.624 4.419 12.628-.513 24.941-5.053 36.57-9.648 10.773-4.256 21.326-8.753 30.847-15.431 9.137-6.409 16.895-14.356 24.178-22.757 14.819-17.094 27.145-36.732 32.636-58.862 5.856-23.602 3.467-48.323.74-72.173-.869-7.596-12.878-7.681-12 0 2.479 21.678 4.712 43.83.475 65.434-4.118 20.999-15.626 39.605-29.217 55.803-6.476 7.718-13.472 15.158-21.544 21.23-8.401 6.319-17.836 10.504-27.507 14.46-10.586 4.331-21.862 8.696-33.323 9.816-11.223 1.097-22.431-1.303-33.289-3.863-7.526-1.774-10.72 9.796-3.19 11.572z"/><path fill="#333" d="M147.307 51.328c3.776-16.395 20.261-28.464 35.136-34.602 9.533-3.934 16.34.382 23.66 6.333 6.956 5.655 15.316 10.329 20.237 18.036 4.15 6.5 14.539.487 10.362-6.057-5.862-9.181-14.991-14.675-23.266-21.402-9.333-7.586-18.61-12.54-30.896-9.574-10.958 2.646-21.675 10.688-30.192 17.814-8.138 6.809-14.22 15.879-16.612 26.262-1.735 7.532 9.835 10.73 11.571 3.19z"/><path fill="#333" d="M235.55 39.581c5.605-4.199 11.233-8.373 16.548-12.938 2.483-2.133 2.181-6.305 0-8.485-2.442-2.442-6.007-2.129-8.485 0-4.542 3.902-9.33 7.473-14.119 11.062-2.612 1.957-3.948 5.144-2.153 8.209 1.511 2.579 5.585 4.118 8.209 2.152zm1.09 17.747c-.962 1.199-1.034 1.376-.215.533.337-.321 1.23-.708 1.643-.944 1.336-.761 2.725-1.446 4.084-2.164 4.106-2.167 8.149-3.914 11.612-7.111 5.696-5.26-2.811-13.725-8.485-8.485-5.379 4.967-18.693 6.5-20.21 14.981-1.353 7.565 10.211 10.799 11.571 3.19z"/><path fill="#333" d="M227.521 36.066c-.113 7.211 3.868 12.729 7.819 18.362 1.874 2.672 5.211 3.909 8.209 2.153 2.646-1.55 4.034-5.527 2.152-8.209-2.575-3.67-6.255-7.577-6.181-12.305.123-7.743-11.877-7.731-11.999-.001z"/><path fill="#333" d="M231.736 39.661c.664 3.116 1.038 6.286 2 9.333.984 3.116 4.139 5.082 7.381 4.191 3.064-.843 5.175-4.262 4.191-7.381-.962-3.047-1.336-6.217-2-9.333-.682-3.199-4.369-5.019-7.381-4.191-3.289.905-4.873 4.186-4.191 7.381zM17.111 21.773c2.004 5.436 7.77 10.203 12.477 13.333 6.791 4.516 13.121 9.934 20.172 14.036 3.483 2.026 7.29 3.302 10.712 5.45 3.274 2.056 6.283 4.395 9.748 6.147 3.319 1.678 7.006 2.73 10.495 3.986 4.374 1.575 8.497 3.75 12.892 5.294 3.05 1.071 4.35-3.76 1.329-4.821-6.601-2.318-13.015-5.257-19.583-7.706-7.153-2.667-12.992-7.929-19.974-11.059-6.096-2.732-11.345-7.276-16.665-11.233-2.717-2.021-5.807-3.604-8.425-5.734-2.726-2.218-7.109-5.638-8.357-9.022-1.105-2.999-5.939-1.703-4.821 1.329z"/><path fill="#333" d="M17.629 56.715l.353-.143 2.823 1.149c-1.808-2.411-3.194-6.615-4.123-9.403-.847-2.54-5.21-2.275-4.911.665.508 4.993 3.536 9.591 5.089 14.29l4.178-2.432c-2.567-2.735-4.54-6.887-5.232-10.522l-4.821 1.329c1.039 4.156 2.691 7.584 4.377 11.472l3.926-3.03c-2.135-2.087-2.266-5.664-2.718-8.448-.587-3.611-.769-7.264-1.639-10.824-.682-2.791-4.868-2.119-4.911.665-.06 3.953.744 7.694 1.589 11.54l4.821-1.329c-1.777-5.097-2.295-11.405-1.343-16.759.487-2.737.765-5.582 2.091-8.065.641-1.201 1.885-3.922 2.978-4.728 2.564-1.892.075-6.235-2.524-4.317-4.282 3.159-6.126 9.294-7.056 14.249-1.285 6.848-1.283 14.307 1.032 20.95 1.057 3.034 5.518 1.838 4.821-1.329-.749-3.408-1.464-6.695-1.411-10.21l-4.911.665c1.636 6.699.32 16.273 5.643 21.478 2.168 2.119 5.004-.544 3.926-3.03-1.5-3.46-2.952-6.596-3.873-10.278-.79-3.16-5.417-1.799-4.821 1.329.863 4.536 3.362 9.365 6.518 12.728 1.684 1.794 4.966-.049 4.178-2.432-1.39-4.203-4.46-8.531-4.911-12.96l-4.911.665c1.136 3.408 2.487 7.743 4.627 10.597.74.986 1.597 1.353 2.823 1.149.821-.137 1.322-.523 1.853-1.143 2.091-2.436-1.429-5.99-3.53-3.538z"/><path fill="#333" d="M21.357 27.769c2.599.715 4.427 3.184 6.651 4.66 3.045 2.021 6.286 3.681 9.275 5.816 6.631 4.735 13.305 8.527 18.721 14.756 2.119 2.437 5.641-1.114 3.536-3.536-5.414-6.226-11.891-9.645-18.381-14.516-3.396-2.549-6.96-4.71-10.627-6.838-2.909-1.689-4.468-4.235-7.845-5.164-3.115-.857-4.435 3.967-1.33 4.822zM81.01 65.142c4.116 2.166 8.82 1.986 12.815 4.153 4.263 2.312 9.603 1.97 14 4.204 4.076 2.071 9.506 2.384 13.972 3.077 5.068.786 9.176 3.147 14.475 2.783 3.198-.22 3.22-5.222 0-5-5.249.361-9.731-2.074-14.82-2.864-4.559-.708-8.855-1.691-13.141-3.297-4.253-1.594-9.241-1.744-13.218-3.901-3.652-1.981-7.838-1.513-11.56-3.472-2.85-1.501-5.377 2.815-2.523 4.317z"/><path fill="#333" d="M59.129 58.626c5.105 4.106 11.264 1.446 16.918 3.555 2.796 1.043 5.469 2.455 8.088 3.836 3.317 1.749 7.695 2.684 11.285 3.756 3.867 1.155 7.799 2.153 11.688 3.246 3.83 1.076 7.7 1.041 11.507 2.422 3.528 1.28 7.382 1.682 10.998 2.754 3.269.969 7.154 2.299 10.535 2.538 3.219.228 3.197-4.774 0-5-2.919-.206-6.296-1.729-9.206-2.36-3.608-.782-7.491-1.603-10.998-2.754-2.878-.945-5.474-1.671-8.5-1.964-4.435-.43-8.711-2.166-13.007-3.27-6.037-1.551-12.019-3.671-17.528-6.56-2.444-1.282-5.91-3.178-8.702-3.202-3.066-.027-6.826 1.654-9.542-.532-2.488-2.001-6.049 1.514-3.536 3.535z"/><path fill="#333" d="M135.43 78.745c.592-1.184 2.501-2.304 3.484-3.244l-3.03.391c-.469-.362.445 2.501.603 2.853.948 2.112 3.974 1.268 4.569-.597 1.027-3.218.714-7.782.125-11.079-.463-2.59-4.123-2.176-4.821 0-.752 2.345-1.052 4.831-1.5 7.25l4.911.665c.203-6.995-.203-13.68 1.286-20.585.678-3.144-4.142-4.481-4.821-1.329-1.583 7.342-1.248 14.465-1.464 21.915-.081 2.781 4.392 3.467 4.911.665.448-2.419.748-4.905 1.5-7.25h-4.821c.401 2.244.578 6.217-.125 8.421l4.569-.597c-.802-1.787-.752-3.378-2.397-4.647-.889-.686-2.294-.312-3.03.391-1.516 1.45-3.259 2.242-4.266 4.256-1.438 2.872 2.875 5.405 4.317 2.521z"/><path fill="#333" d="M138.932 72.569c-1.4-7.052-1.02-15.123.062-22.202.557-3.644 1.978-6.959 3.792-10.139 1.417-2.484 3.447-4.726 4.02-7.58.397-1.976-1.71-4.153-3.672-2.823-4.904 3.323-8.204 8.146-9.024 14.041-.532 3.821-1.078 7.36-1.341 11.243-.312 4.603.991 8.144 1.252 12.625l4.659-1.262c-.76-1.461-.833-3.511-1.034-5.113-.394-3.155-5.399-3.194-5 0 .322 2.577.505 5.306 1.716 7.637 1.131 2.175 4.803 1.208 4.659-1.262-.125-2.141-.449-3.986-1.121-6.04-1.018-3.114-.016-7.061.011-10.273.056-6.45 2.206-13.524 7.746-17.279l-3.673-2.823c-.652 3.247-3.587 6.365-5.092 9.292-1.615 3.139-2.439 6.585-2.969 10.05-1.141 7.463-1.287 15.82.186 23.238.629 3.16 5.448 1.818 4.823-1.33z"/><path fill="#333" d="M141.43 36.096c-.572-1.106 8.407-8.339 9.621-9.367 4.249-3.598 8.747-7.029 12.792-10.849 4.172-3.938 10.959-6.087 16.231-8.253 6.45-2.65 11.601-1.938 17.311 1.889 2.687 1.801 5.187-2.532 2.524-4.317-5.641-3.78-11.287-5.324-17.961-3.552-3.467.92-6.848 2.686-10.094 4.177-3.691 1.696-7.322 2.913-10.468 5.526-5.93 4.924-11.707 10.046-17.632 14.99-3.044 2.54-8.947 7.824-6.641 12.28 1.482 2.864 5.797.335 4.317-2.524z"/><path fill="#333" d="M146.432 31.444c.082.564 1.666-2.193 1.902-2.566.934-1.472 2.241-2.62 3.52-3.78 2.411-2.188 5.076-4.292 7.804-6.081 2.684-1.76.181-6.091-2.524-4.317-3.677 2.411-7.071 5.212-10.279 8.21-2.413 2.255-5.749 6.386-5.245 9.863.462 3.181 5.279 1.823 4.822-1.329zm43.964-26.211c16.743 1.943 38.528 9.641 41.214 28.665.449 3.182 5.266 1.823 4.821-1.329C233.395 11.068 209.232 2.42 190.395.234c-3.198-.372-3.162 4.632.001 4.999z"/><path fill="#333" d="M232.033 26.574c-1.707-.772-3.384-3.377-4.72-4.676-2.141-2.08-4.819-3.667-7.28-5.324-2.994-2.017-6.588-3.303-9.875-4.75-1.728-.761-5.668-1.537-6.869-2.984l-1.103 4.178c5.459-1.365 10.905 2.942 14.514 6.358 4.158 3.935 7.968 7.343 10.412 12.618 1.354 2.923 5.663.382 4.317-2.524-3.21-6.93-8.999-12.064-14.814-16.884-3.997-3.314-10.58-5.685-15.759-4.39-1.964.491-2.248 2.798-1.103 4.178 1.457 1.756 4.11 2.15 6.131 3.016 3.387 1.452 6.766 2.913 10.043 4.601 3.286 1.692 6.44 4.071 9.076 6.633 1.436 1.395 2.656 3.429 4.506 4.266 2.914 1.32 5.458-2.988 2.524-4.316z"/><path fill="#333" d="M227.932 23.319c-.599-1.805-1.236-3.522-2.347-5.081-1.16-1.629-2.511-3.118-3.796-4.647-2.077-2.471-5.596 1.085-3.536 3.536 2.03 2.415 3.851 4.49 4.857 7.522 1.011 3.044 5.84 1.739 4.822-1.33zm8.214 4.289c-.078-.954 1.209-1.786 1.768-2.357 1.802-1.841-.024-4.721-2.432-4.178l-1.546.125 1.746 1.746-.199-.542-.643 2.432c.446-.469 3.373-.202 4.188-.357 2.327-.442 4.445-1.193 6.609-2.163 5.329-2.389 10.767-4.463 16.174-6.671l-2.432-4.178c-2.73 2.799-5.573 5.546-8.217 8.43-2.116 2.308-3.573 5.244-5.382 7.785-2.97 4.174-9.444 10.636-5.542 16.19 1.838 2.616 6.176.121 4.317-2.524-2.299-3.272 5.497-11.013 7.286-13.654 3.21-4.739 7.08-8.597 11.073-12.691 1.616-1.657.006-5.174-2.432-4.178-5.249 2.143-10.572 4.077-15.727 6.439-3.107 1.424-5.874 2.379-9.296 2.55-1.626.081-3.011.285-4.154 1.487-.579.609-.949 1.599-.643 2.432 1.051 2.859 3.506 2.758 6.149 2.163l-2.432-4.178c-1.81 1.85-3.467 3.016-3.232 5.893.26 3.189 5.262 3.215 4.999-.001z"/><path fill="#333" d="M246.18 39.721c-.304-.525-.692-.995-1.099-1.443-.495-.544-.522-.56-.917-1.063-.713-.909-1.457-1.789-2.109-2.744-.767-1.123-2.182-1.622-3.42-.897-1.113.652-1.667 2.293-.897 3.42.747 1.094 1.585 2.121 2.414 3.153.535.667 1.35 1.473 1.711 2.097 1.614 2.79 5.936.273 4.317-2.523zm-8.409-13.488c-.059.606 1.299-.971 1.58-1.232.945-.878 1.924-2.109 3.166-2.576.776-.292 1.648-.231 2.442-.507 1.046-.364 2.061-.83 3.073-1.276 2.79-1.229.644-4.998-1.926-4.569-1.111.185-1.983.691-2.861 1.381-.894.703-2.459 1.08-3.53 1.447-1.893.648-4.334-.045-4.855 2.668-.606 3.15 4.213 4.494 4.821 1.329-1.241.774-1.527 1.137-.857 1.089.319.003.638-.013.956-.048.858-.061 1.659-.313 2.438-.666.789-.358 1.625-.608 2.418-.958.959-.423 1.774-1.25 2.799-1.421l-1.926-4.569c-2.521 1.111-5.082 1.219-7.303 2.985-2.219 1.764-5.143 3.936-5.435 6.924-.313 3.208 4.69 3.178 5-.001z"/><path fill="#333" d="M246.164 36.751c3.332-2.924 7.289-5.856 9.812-9.552 2.513-3.681 5.186-7.2 7.579-10.954 1.739-2.728-2.59-5.233-4.317-2.524-1.967 3.086-4.226 5.919-6.255 8.963-2.746 4.122-6.654 7.284-10.354 10.531-2.428 2.131 1.122 5.653 3.535 3.536zm-10.518 18.857c.059 2.207.669 5.755 3.246 6.464 2.543.699 3.77-1.897 5.17-3.403 1.073-1.154 2.892-1.779 4.179-2.661 1.875-1.284 3.72-2.63 5.542-3.991 3.174-2.371 6.318-4.932 8.522-8.272 1.782-2.7-2.55-5.201-4.317-2.524-2.703 4.096-7.299 7.116-11.353 9.728a460.22 460.22 0 0 0-4.781 3.125c-.732.484-2.396 3.052-2.961 3.176l2.432.643-.679-2.285c-.085-3.218-5.086-3.226-5 0z"/><path fill="#333" d="M254.146 45.358c-.096.869 2.339-.297 2.901-.567 1.235-.591 2.055-1.347 2.882-2.422 1.184-1.538-.431-3.798-2.159-3.762a74.44 74.44 0 0 0-1.157.029c-.662.019-1.366-.434-1.008.221l.252 1.926c-1.635.932-1.934 1.338-.897 1.217.459.032.591.038.396.017 1.067.191 2.094.239 3.167.083 2.374-.345 4.808-1.078 7.037-1.958l-1.926-4.569c-.614.31-4.778 1.663-4.127 2.51l.252 1.926.043-.293-1.149 1.494c.247-.181.767-.147 1.032-.192l.912-.157c1.386.042 1.39-.489.013-1.591-.258 1.105-3.03 2.591-3.857 3.445-2.244 2.315 1.288 5.854 3.536 3.536 2.255-2.327 5.229-3.615 5.357-7.225.15-4.249-4.609-3.023-7.057-2.895-2.837.148-5.129 2.952-2.711 5.37 2.774 2.774 7.564-.238 10.28-1.609 2.506-1.265.72-5.615-1.926-4.569-2.179.861-5.424 2.255-7.792 1.831-1.529-.274-3.248-.274-4.501.752-1.329 1.088-1.24 3.166-.06 4.346 1.539 1.539 3.897 1.399 5.893 1.357l-2.159-3.762c-.786 1.022-2.863.986-3.941 1.612-1.609.936-2.324 2.066-2.525 3.899-.352 3.203 4.651 3.169 4.999 0z"/><path fill="#333" d="M254.789 49.876c.814-.835 1.593-1.745 2.532-2.445 1.241-.925 2.798-1.413 4.087-2.289l-3.672-2.823c-.029.096-1.353 1.059-1.646 1.569-.879 1.531-2.143 2.225-3.461 3.327-2.708 2.266-5.348 4.531-8.125 6.75-2.519 2.012 1.043 5.526 3.536 3.536 3.055-2.44 5.89-5.054 9.033-7.363 1.218-.895 2.324-1.886 3.048-3.226.691-1.281 1.961-1.704 2.437-3.264.617-2.02-1.842-4.069-3.672-2.823-1.301.886-2.729 1.499-4.087 2.289-1.367.796-2.455 2.11-3.544 3.227-2.254 2.307 1.279 5.846 3.534 3.535z"/><path fill="#333" d="M234.738 53.971c-2.384 3.25-1.962 9.214-2.19 13.056-.204 3.429-.461 8.22 2.712 10.365.889.601 2.317.398 3.03-.391 1.902-2.106 1.761-5.367 2.376-8.009 1.033-4.436 2.289-9.078 4.14-13.247l-4.659-1.262v.25c0 3.224 5 3.224 5 0v-.25c0-2.327-3.608-3.628-4.659-1.262-1.49 3.357-2.608 6.945-3.627 10.472-.631 2.184-1.126 4.408-1.625 6.625-.186.828.078 2.527-.482 3.147l3.03-.391c-.977-.66-.209-6.506-.145-7.578.156-2.629-.18-6.823 1.417-9.001 1.909-2.605-2.433-5.095-4.318-2.524z"/><path fill="#333" d="M239.236 57.444c-1.097 3.16-6.373 15.654-.633 17.233 2.678.737 3.887-2.293 4.454-4.279 1.151-4.027 1.472-8.215 2.625-12.25.888-3.107-3.937-4.424-4.821-1.329-.682 2.387-1.145 4.775-1.534 7.226-.338 2.134-.559 4.988-1.839 6.802l1.494-1.149-.379.158 1.926.252-.253-.184 1.149 1.494c-1.393-3.579 1.461-9.273 2.632-12.645 1.061-3.054-3.77-4.355-4.821-1.329z"/><path fill="#333" d="M239.932 78.398l.25-.875h-4.821c.204 1.039-1.077 3.056-1.479 4.017-.732 1.75-1.309 3.48-.896 5.358.478 2.177 3.504 2.372 4.569.597 2.569-4.282 1.954-9.774 3.627-14.347l-3.672 1.494c-.693-.527-.422 1.161-.483 1.719-.156 1.417-.13 2.82-.13 4.247 0 3.233 4.888 3.212 5 0 .11-3.135.953-5.891 1.911-8.835 1-3.075-3.828-4.382-4.821-1.329-1.094 3.362-1.965 6.601-2.089 10.165h5c0-3.473 1.306-7.874-1.863-10.284-1.386-1.054-3.178.142-3.673 1.494-1.5 4.099-.835 9.34-3.123 13.153l4.569.597c-.255-1.162 1.266-3.602 1.725-4.711.656-1.585.985-2.964.65-4.664-.495-2.517-4.176-2.261-4.821 0l-.25.875c-.889 3.106 3.936 4.423 4.82 1.329z"/><path fill="#333" d="M235.611 82.898c.434 3.202-.194 7.282-1.623 10.199l4.569.597c-.303-1.919.019-3.92.375-5.796l-4.911-.665c-.437 9.466-2.206 19.347-4.786 28.46-.88 3.109 3.945 4.427 4.821 1.329 2.7-9.539 4.506-19.871 4.964-29.79.129-2.794-4.382-3.449-4.911-.665-.541 2.848-.83 5.579-.375 8.454.336 2.122 3.663 2.447 4.569.597 2.126-4.339 2.77-9.301 2.127-14.051-.429-3.181-5.246-1.821-4.819 1.331z"/><path fill="#333" d="M226.646 134.983c-.3-2.737 1.279-5.246 2.286-7.71 1.406-3.441 2.31-6.849 3-10.5.595-3.151-4.223-4.495-4.821-1.329-.69 3.655-1.609 7.051-3 10.5-1.185 2.939-2.824 5.761-2.464 9.04.347 3.168 5.351 3.202 4.999-.001z"/><path fill="#333" d="M228.432 132.398c.5-2.808 1.537-5.924 2.683-8.528 1.373-3.119 1.668-6.652 2.031-10.012.346-3.204-4.658-3.17-5 0-.352 3.261-.905 6.164-2.096 9.21-.982 2.511-1.966 5.343-2.44 8-.561 3.153 4.257 4.5 4.822 1.33z"/><path fill="#333" d="M199.43 175.37c1.986-3.973 6.018-6.991 8.908-10.337 2.747-3.18 5.052-6.707 7.127-10.351 4.256-7.472 7.085-15.73 10.342-23.66 1.225-2.983-3.614-4.269-4.821-1.329-3.323 8.091-6.327 16.301-10.668 23.923-2.172 3.814-4.882 7.243-7.821 10.488-2.588 2.857-5.636 5.247-7.384 8.742-1.438 2.875 2.875 5.408 4.317 2.524z"/><path fill="#333" d="M205.18 166.87c3.163-6.075 7.308-11.691 10.75-17.625 1.621-2.795-2.701-5.311-4.317-2.524-3.442 5.934-7.587 11.55-10.75 17.625-1.487 2.856 2.828 5.385 4.317 2.524z"/><path fill="#333" d="M214.807 156.398c.744-3.425 4.16-6.535 5.998-9.528 2.037-3.316 2.654-7.275 5-10.375l-4.569-1.926a4.869 4.869 0 0 1-1.123 2.278c-1.846 2.655 2.491 5.15 4.317 2.524.82-1.179 1.344-2.068 1.627-3.472.586-2.903-2.88-4.159-4.569-1.926-2.565 3.389-3.339 7.67-5.56 11.287-1.965 3.199-5.109 5.981-5.942 9.81-.684 3.142 4.136 4.478 4.821 1.328zm-52.649 46.994c7.946-4.772 14.829-10.553 22.133-16.244 6.394-4.982 13.874-10.023 18.639-16.652 1.886-2.624-2.454-5.116-4.317-2.524-4.469 6.218-11.93 10.887-17.857 15.641-6.864 5.505-13.573 10.93-21.121 15.463-2.76 1.656-.248 5.98 2.523 4.316z"/><path fill="#333" d="M141.561 212.394c4.411-.651 8.821-3.482 12.88-5.252 5.021-2.19 10.083-4.246 14.899-6.87 9.302-5.069 16.96-13.226 23.95-21.021 2.146-2.393-1.379-5.941-3.536-3.536-6.436 7.177-13.217 14.113-21.387 19.328-4.046 2.582-8.582 4.407-12.982 6.281-4.717 2.009-10.094 5.501-15.153 6.248-3.181.47-1.824 5.287 1.329 4.822z"/><path fill="#333" d="M186.283 187.517c5.232-3.755 9.556-8.42 13.756-13.266 2.101-2.424-1.42-5.976-3.536-3.536-3.896 4.495-7.886 8.998-12.744 12.484-2.594 1.862-.101 6.202 2.524 4.318z"/><path fill="#333" d="M181.936 191.519c1.445-.221 2.662-1.563 3.644-2.564 1.381-1.408 2.558-3.04 3.6-4.709 1.713-2.743-2.614-5.251-4.317-2.524-.682 1.091-1.411 2.124-2.258 3.093a16.43 16.43 0 0 1-1.205 1.214c-.228.212-.448.43-.677.64-.018.017.581-.077-.116.029-1.349.206-2.075 1.879-1.746 3.075.392 1.427 1.729 1.951 3.075 1.746zm-44.04 19.839c2.223-.105 3.933-1.372 5.819-2.411 2.979-1.642 5.76-3.641 8.567-5.555 2.646-1.804.149-6.139-2.524-4.317-2.052 1.399-4.097 2.807-6.194 4.139a59.071 59.071 0 0 1-3.181 1.861c-.743.41-1.611 1.242-2.488 1.284-3.208.151-3.223 5.152.001 4.999z"/><path fill="#333" d="M101.885 217.392c6.049 4.377 15.91 2.863 22.762 1.514 9.624-1.894 17.597-6.296 26.011-11.139 2.793-1.608.276-5.929-2.524-4.317-6.36 3.661-12.585 7.473-19.703 9.482-3.749 1.058-7.666 1.761-11.556 1.841-4.296.089-8.754.988-12.467-1.698-2.617-1.894-5.109 2.446-2.523 4.317z"/><path fill="#333" d="M114.646 216.608c7.334-.609 14.279-4.138 21.117-6.628 7.276-2.649 14.049-5.457 20.77-9.338 2.79-1.611.274-5.933-2.524-4.317-6.318 3.649-12.722 6.362-19.575 8.834-6.332 2.284-13.005 5.886-19.788 6.449-3.189.265-3.215 5.267 0 5z"/><path fill="#333" d="M129.021 213.483c4.96-.041 9.13-3.2 13.512-5.091 2.953-1.275.404-5.581-2.524-4.317-3.477 1.501-7.065 4.376-10.988 4.409-3.222.026-3.225 5.026 0 4.999z"/><path fill="#333" d="M136.936 214.519c4.881-1.29 9.003-2.909 13.597-5.127 4.707-2.273 10.046-3.595 14.375-6.625 2.62-1.834.125-6.171-2.524-4.317-3.512 2.459-7.796 3.703-11.681 5.412-5.084 2.236-9.74 4.42-15.097 5.836-3.114.823-1.791 5.646 1.33 4.821z"/><path fill="#333" d="M144.771 212.358c2.628-.238 4.495-1.545 6.5-3.164a23.363 23.363 0 0 1 3.184-2.161c1.082-.614 2.725-.8 3.553-1.766 1.095-1.277.909-3.843-1.103-4.178a3.705 3.705 0 0 1-.094-.016c-3.153-.526-4.504 4.292-1.329 4.821l.094.016-1.103-4.178c.639-.745-1.531.481-1.818.613-.977.448-1.882 1.042-2.769 1.644-1.518 1.031-3.194 3.197-5.114 3.371-3.185.286-3.213 5.288-.001 4.998z"/><path fill="#333" d="M153.771 207.608v-.125c0-1.363-1.137-2.5-2.5-2.5s-2.5 1.137-2.5 2.5v.125c0 1.363 1.137 2.5 2.5 2.5s2.5-1.137 2.5-2.5zm-126.125 3.875c1.726.003 3.164.228 4.829.64 1.305.323 2.948 1.024 4.296.985 3.217-.093 3.226-5.093 0-5-.186.005-.802-.317-1.085-.411-.802-.266-1.691-.349-2.512-.552-1.859-.46-3.606-.659-5.528-.662-3.224-.005-3.224 4.995 0 5z"/><path fill="#333" d="M26.357 212.519c3.255.706 6.551.972 9.843 1.449 3.892.564 7.677 2.539 11.626 3.254 7.015 1.269 14.484 1.929 21.607 2.189 3.168.116 6.423 1.287 9.589 1.697 3.971.514 8.218.005 12.218-.005 7.226-.017 14.81.416 21.697-2.085 3.006-1.092 1.709-5.925-1.329-4.821-6.942 2.521-14.802 1.893-22.095 1.91-3.499.008-6.995.194-10.491.001-3.206-.177-6.392-1.301-9.589-1.697-7.303-.905-14.814-1.022-22.076-2.336-3.415-.618-6.488-2.145-9.828-2.929-3.214-.754-6.603-.747-9.843-1.449-3.143-.681-4.48 4.139-1.329 4.822z"/><path fill="#333" d="M90.021 210.858c-4.054.053-8.076.585-12.125.75-2.86.117-3.352 4.018-.665 4.911 2.285.759 4.53 1.229 6.936 1.355 2.779.146 5.377-.374 8.189.02 3.152.441 4.511-4.376 1.329-4.821-5.144-.719-10.122.286-15.125-1.375l-.665 4.911c4.049-.165 8.071-.697 12.125-.75 3.223-.043 3.227-5.043.001-5.001zm-51.875-4.5c-3.039.181-6.066-1.002-9.04-.536-1.584.248-3.194-.011-4.773-.167.122.012-3.889-.442-3.42-.065-2.487-2.001-6.048 1.514-3.536 3.536 2.079 1.673 5.473 1.382 8.037 1.637 2.065.205 4.509-.364 6.441.256 1.857.597 4.375.453 6.29.339 3.205-.191 3.224-5.192.001-5z"/><path fill="#333" d="M23.658 204.824l-.5-.375-1.262 4.659c5.615-.327 11.21-.303 16.79-1.089 6.141-.865 11.911-3.438 17.734-5.453 10.91-3.775 18.513-9.924 26.994-17.565 2.4-2.163-1.147-5.687-3.536-3.536-3.859 3.477-7.614 7.062-11.818 10.128-4.416 3.221-9.511 4.955-14.624 6.724-4.788 1.657-9.46 3.581-14.434 4.622-5.579 1.169-11.444.84-17.107 1.169-2.625.153-3.227 3.185-1.262 4.659l.5.375c2.584 1.936 5.072-2.408 2.525-4.318z"/><path fill="#333" d="M65.805 199.37c2.697-5.366 9.149-7.064 13.484-10.619 2.495-2.046-1.064-5.562-3.536-3.536-2.289 1.877-5.216 2.746-7.548 4.575-2.431 1.906-5.308 4.252-6.718 7.056-1.443 2.873 2.87 5.405 4.318 2.524z"/><path fill="#333" d="M77.539 191.876c4.557-4.606 10.705-7.92 13.268-14.228.347-.853-.112-1.795-.643-2.432a7.788 7.788 0 0 1-.078-.094c-.726-.871-2.108-.894-3.03-.391l-.172.094c-2.831 1.544-.308 5.862 2.524 4.317l.172-.094-3.03-.391.078.094-.643-2.432c-.95 2.338-3.339 4.446-5.097 6.175-2.152 2.117-4.756 3.695-6.885 5.847-2.268 2.293 1.266 5.829 3.536 3.535z"/><path fill="#333" d="M84.432 182.273c1.141-2.725 2.562-5.315 3.5-8.125 1.024-3.067-3.806-4.372-4.821-1.329-.934 2.799-2.361 5.407-3.5 8.125-.528 1.259.559 2.749 1.746 3.075 1.441.396 2.549-.49 3.075-1.746z"/><path fill="#333" d="M81.555 185.995c.353-.467.545-1.063.661-1.632.041-.203.078-.407.128-.608.113-.454-.291.567-.081.16l-.258.318c.176-.174.102-.121-.222.16 1.142-.739 1.609-2.205.897-3.42-.665-1.135-2.275-1.638-3.42-.897-.883.571-1.441 1.341-1.737 2.351-.07.238-.104.489-.153.732a4.14 4.14 0 0 1-.095.364c.206-.684.134-.276-.037-.05-.824 1.09-.174 2.793.897 3.42.577.338 1.281.43 1.926.252.685-.19 1.083-.606 1.494-1.15z"/><path fill="#333" d="M38.988 149.995c1.771 3.454 4.778 6.615 7.897 8.897 4.023 2.943 7.049 6.869 11.25 9.625 3.662 2.403 7.147 3.695 11.419 4.576 4.774.985 11.326 2.503 12.932 7.555.973 3.061 5.801 1.752 4.821-1.329-1.174-3.695-2.063-5.338-5.524-7.119-4.35-2.239-9.038-3.613-13.837-4.506-5.284-.983-10.114-5.163-13.432-9.16-3.442-4.147-8.593-5.96-11.209-11.062-1.471-2.871-5.785-.34-4.317 2.523z"/><path fill="#333" d="M80.408 170.574c-3.707-1.733-7.351-2.152-10.782-4.593-4.478-3.185-8.73-4.849-11.946-9.636-1.788-2.661-6.121-.161-4.317 2.524 2.669 3.972 5.772 6.836 9.934 9.161 2.252 1.258 4.326 2.667 6.463 4.111 2.4 1.622 5.555 1.549 8.125 2.75 2.902 1.358 5.442-2.952 2.523-4.317zm-47.17-25.329c1.129 1.913 2.646 3.127 4.354 4.471.734.578 1.269 1.48 1.912 2.16.713.754 1.535 1.375 2.25 2.125l2.432-4.178c.522.144-.318-.453-.422-.572-.497-.571-.928-1.207-1.403-1.796-.554-.688-1.321-1.144-2.046-1.629-.55-.368-.967-.979-1.532-1.375-2.459-1.721-4.785 1.901-3.03 3.926a20.897 20.897 0 0 0 2.125 2.125c.762.66 1.263 1.738 1.964 2.487 1.181 1.261 2.905 2.805 4.639 3.156 3.148.637 4.488-4.182 1.329-4.821-.992-.201-2.439-1.717-3.007-2.528-1.037-1.482-2.338-2.595-3.515-3.954l-3.03 3.926c1.197.838 2.451 2.06 3.353 3.228.877 1.136 1.803 2.252 3.244 2.649 2.457.677 4.141-2.385 2.432-4.178-1.257-1.319-2.595-2.437-3.75-3.875-1.198-1.491-2.964-2.141-3.984-3.869-1.635-2.776-5.958-.261-4.315 2.522z"/><path fill="#333" d="M41.664 143.965c-.642-.727-1.178-1.506-1.875-2.25l-1.103 4.178c2.66-.473 5.626-.001 8.375-.375 2.126-.289 4.948-.666 6.847-1.752 1.369-.782 1.722 2.353 2.328 3.766.777 1.815 2.567 3.068 4.149 4.109l1.926-4.569c-.771-.3-6.076-2.983-6.165-3.964l-4.659 1.262c2.066 2.921 6.798 11.723 11.448 10.024 1.029-.376 1.875-1.237 1.835-2.411-.07-2.101-1.347-3.514-2.554-5.141-1.459-1.966-2.349-4.598-4.559-5.892-2.505-1.467-5.147-.133-7.753-1.065-2.337-.835-4.494-.023-6.883.223-3.175.327-3.206 5.33 0 5 1.287-.132 2.472-.13 3.727-.464 1.549-.413 4.13.864 5.869.753 2.761-.176 3.26.818 4.5 2.811.487.782 2.621 2.782 2.654 3.775l1.835-2.411c.879-.321-.36-.89-1.143-1.655-1.815-1.773-3.199-4.008-4.658-6.071-1.291-1.825-4.902-1.448-4.659 1.262.391 4.347 6.277 7.402 9.835 8.786 2.767 1.076 4.174-3.091 1.926-4.569-3.601-2.369-3.069-9.583-8.512-9.216-2.306.155-4.933 1.859-7.29 2.39-3.289.742-6.485-.006-9.75.574-1.945.346-2.284 2.918-1.103 4.178 1.035 1.104.657.869 1.875 2.25 2.139 2.422 5.662-1.128 3.537-3.536z"/><path fill="#333" d="M52.664 143.751c.605-.51 1.419-.688 2.004-1.266.77-.761 1.37-1.77 1.39-2.886.046-2.587-1.922-4.072-2.501-6.406-.777-3.128-5.598-1.801-4.821 1.329.354 1.426 1.016 2.666 1.877 3.847.169.273.314.559.435.856.402-.492.379-.574-.07-.245-.665.38-1.258.736-1.85 1.235-2.467 2.082 1.088 5.6 3.536 3.536z"/><path fill="#333" d="M56.146 134.483c-12.675-.548-18.684-13.142-23.966-23.012-1.522-2.844-5.838-.318-4.317 2.524 6.344 11.855 13.366 24.843 28.284 25.488 3.225.14 3.211-4.861-.001-5z"/><path fill="#333" d="M51.283 131.574c-4.38-2.92-6.959-9.098-9.853-13.353-1.802-2.649-6.136-.151-4.317 2.524 3.461 5.088 6.393 11.644 11.647 15.147 2.691 1.794 5.192-2.539 2.523-4.318z"/><path fill="#333" d="M46.658 131.699c-13.217-5.69-19.784-19.841-24.351-32.631-1.076-3.014-5.908-1.715-4.821 1.329 4.975 13.931 12.245 29.418 26.649 35.619 2.928 1.261 5.477-3.045 2.523-4.317z"/><path fill="#333" d="M31.18 119.596c-2.991-4.98-6.457-9.575-9.181-14.722-1.233-2.331-2.496-4.646-3.716-6.985-.941-1.804-1.419-3.758-1.976-5.696-.279-.971-.073-1.903-.676-.61l-2.823 1.149c1.412.337 3.223 2.394 4.452 3.284 2.053 1.487 4.736-1.391 3.42-3.42-.093-.143-2.99-.793.38.594 1.507.621 3.171.829 4.764 1.092 3.373.556 6.693.436 10.032 1.361 3.113.862 4.432-3.962 1.329-4.821-2.992-.829-5.948-1.174-9.04-1.339-3.36-.18-6.274-2.125-9.5-2.125-4.291 0-3.849 5.347-2.284 7.762l3.42-3.42c-1.83-1.326-3.373-3.245-5.646-3.788-1.016-.243-2.344.122-2.823 1.149-1.683 3.607 1.652 9.434 3.315 12.622 3.71 7.114 8.119 13.586 12.234 20.438 1.66 2.759 5.984.247 4.319-2.525z"/><path fill="#333" d="M20.135 93.142c1.546 1.036 3.118 1.05 4.899.798.965-.137 2.781-.81 3.601-.423 2.899 1.367 5.439-2.943 2.524-4.317-1.171-.552-2.407-.744-3.697-.695-1.398.054-3.586 1.135-4.803.32-2.688-1.802-5.187 2.532-2.524 4.317zm18.904-5.177c-4.534-3.515-8.479-9.21-11.703-13.947-4.111-6.04-7.554-11.589-9.154-18.825-.696-3.148-5.516-1.813-4.821 1.329 1.567 7.085 4.703 12.584 8.696 18.565 3.812 5.709 7.996 12.187 13.446 16.413 2.515 1.951 6.082-1.561 3.536-3.535z"/><path fill="#333" d="M35.289 83.465c-9.318-8.01-16.483-18.064-19.482-30.147-.776-3.128-5.598-1.801-4.821 1.329C14.184 67.535 21.805 78.448 31.754 87c2.431 2.091 5.984-1.429 3.535-3.535z"/><path fill="#333" d="M15.914 55.465c-.546-.631-.658-2.854-.814-3.649-.348-1.775-.791-3.379-.829-5.208-.066-3.22-5.066-3.226-5 0 .051 2.518.671 4.824 1.152 7.274.356 1.814.719 3.692 1.955 5.119 2.116 2.441 5.636-1.111 3.536-3.536zm8.331-29.771a20.86 20.86 0 0 1-.51-1.652c-.245-.936.514-.311-.446.46l-1.768.732c-.842-.432-1.036-.447-.58-.045.231.273.465.544.704.81.657.745 1.36 1.458 2.035 2.187 1.454 1.57 3.232 2.703 4.761 4.19 2.311 2.249 5.85-1.284 3.536-3.536-1.53-1.489-3.301-2.633-4.761-4.19-1.131-1.207-2.308-3.068-3.768-3.896-1.698-.962-3.859-.501-4.537 1.475-.538 1.568-.013 3.299.513 4.793 1.062 3.021 5.894 1.721 4.821-1.328z"/><path fill="#333" d="M20.924 22.018c-.35-.271-.612-1.211-.763-1.627-.191-.527-.09-1.126-.318-1.644-.171-.388-.423-.722-.815-.904a1.21 1.21 0 0 0-.444-.106c.2.01.342-.687.374-.811.084-.327-.383-.444-.497-.137-.164.443-.64.906-.496 1.429.039.142.143.216.261.289.419.26.406.076.639.652.464 1.147.361 2.8 1.478 3.613.438.321 1.011-.421.581-.754z"/><path fill="#333" d="M17.884 18.095c.339-.315.42-.845.815-1.103l-.343-.197c.027.343.108 1.576.831 1.096.58-.385.055-1.254-.099-1.746l-.6.253c.299.435.43.936.779 1.339.177.204.541.093.602-.159.11-.457-.067-.82-.267-1.226-.205-.416-.768-.104-.699.295.162.927.704 1.564 1.327 2.236.715.772 1.117 1.802 2.097 2.309.391.203.772-.281.469-.607-.291-.313-.605-.603-.906-.907-.28-.283-.426-.651-.686-.946-.636-.723-1.366-1.295-1.563-2.288l-.699.295c.101.193.27.419.233.649l.602-.159c-.336-.332-.459-.779-.721-1.161-.202-.294-.717-.12-.6.253.08.255.182.504.266.758.153.463.139-.16.083-.343-.049-.161-.258-.227-.381-.101-.387.398-.332.937-.65 1.376-.049.066.054.136.11.084z"/><path fill="#333" d="M19.622 16.858c-.131-.351-.214-.766-.441-1.068-.118-.157-.427-.184-.471.062-.085.467.179.933.52 1.234.161.142.481.009.392-.228zm242.551-3.536c.312-.653.922-1.387 1.487-1.822.297-.229.657-.455.774-.829.034-.11-.04-.271-.163-.288-.884-.12-1.985.41-2.678.938-.324.247-.291.957.241.89.717-.089 1.857-.875 1.624-1.723-.259-.942-1.716-.282-2.147.097-.291.256-.077.864.336.811.493-.064.786-.237 1.177-.548l-.625.081c.956.713 2.546-2.022 3.573-1.966l-.462-.606c-.119.458-.613 1.111-.826 1.563-.183.389-.33.805-.463 1.213-.36 1.109-.322 2.312-.757 3.399l1.032.14c-.099-1.687.745-2.979.957-4.562.051-.383-.441-.574-.726-.417-1.024.565-1.841 2.158-1.942 3.292-.039.44.61.582.811.22.483-.872.704-2.091.935-3.054.103-.431-.471-.67-.707-.298-.529.834-1.443 1.517-1.763 2.457-.145.425.415.684.71.413.519-.475.809-1.124 1.315-1.623.314-.31-.158-.774-.481-.481-.483.438-.818 1.06-1.349 1.436l.624.48c.313-.804 1.151-1.544 1.612-2.293l-.707-.298c-.155.649-.364 2.26-.872 2.733l.727.423c.133-.796.82-2.179 1.574-2.574l-.709-.545c-.099.634-.457 1.248-.654 1.864-.297.93-.469 1.852-.406 2.827.04.614.817.687 1.032.14.376-.957.437-2.022.639-3.026.121-.6.349-1.181.597-1.739.231-.52.586-.873.72-1.435a.486.486 0 0 0-.462-.606c-.699-.023-1.2.433-1.741.817-.305.217-.595.457-.893.684-.126.096-.254.19-.384.281-.378.271-.31.042-.034.251-.183-.139-.474-.067-.625.081l-.574.344.462.794.221-.171c.386-.015.478-.111.277-.287-.187.223-.499.385-.773.474l.465.798c.339-.354.742-.472 1.109-.766.884-.707.329-.303-.053.009-.523.426-1.091 1.231-1.358 1.83-.091.203.205.383.303.177z"/><path fill="#333" d="M264.237 14.383c.695-1.814 1.555-3.59 1.963-5.504.087-.407-.456-.536-.608-.168-.442 1.07-.669 2.259-.968 3.377-.259.97-.217 2.083-.946 2.863l.527.218c-.088-1.334.794-2.675 1.195-3.913.131-.405-.498-.572-.633-.174-.443 1.309-1.312 2.666-1.18 4.087.023.245.332.439.527.218.614-.691.818-1.537.983-2.429.247-1.34.637-2.801 1.103-4.081l-.608-.168c-.262 1.933-.982 3.766-1.537 5.621-.034.121.139.164.182.053zm-17.954 26.274l-.003-.105-.091.452c-.081.069-.066.057.046-.036a1.29 1.29 0 0 0 .27-.296c.137-.242.233-.492.276-.766a2.58 2.58 0 0 0 .003-.373c-.032-.288-.169-.203-.41.257.246-.191.475-.34.631-.618.263-.468-.052-.753-.483-.896a10.344 10.344 0 0 0-.188-.062l.299 1.117-.117.096-1.095.379.106-.019c.567-.099 1.493-.35 1.635-1.029.136-.652-.848-.774-1.272-.7-.608.106-1.147.28-1.605.706-.492.457-.269.927.299 1.117l.188.062-.483-.896c.285-.243.345-.299.18-.168-.14.109-.433.319-.51.499-.121.284-.212.501-.104.808a.212.212 0 0 1-.004.197c-.05.328.154-.079-.06.097-.317.26-.418.564-.405.956.021.645 1.327.491 1.66.401.57-.154 1.259-.513 1.237-1.18zm5.816-2.091l.141-.072-.706.289-.334.05c.65-.009 1.509-.218 1.917-.777.402-.551-.339-.804-.771-.798a4.373 4.373 0 0 0-2.025.517c-.391.201-.882.804-.269 1.076.646.287 1.461.016 2.047-.285zm10.295-1.992c1.125-.701 3.037-1.358 4.333-1.654 1.674-.383 3.413-.929 4.957-1.686l-1.973-.341c-1.024.64-1.635 1.73-2.451 2.6-1.015 1.083-2.008 2.206-3.123 3.19l2.755-.311c.701-1.032 1.067-2.255 1.75-3.312.433-.671-2.115-.093-2.285-.013l.04-.039 1.182.365c.129-.342.321-.642.575-.9.708-.851-2.05-.343-2.443-.017-.483.4-.893.747-1.249 1.265-.044.11-.02.202.074.275 1.663.829 3.613-.17 5.149-.886.875-.408.612-.893-.239-.893h-.062c-.463 0-1.923.277-2.046.879-.24 1.184-1.328 2.49-2.098 3.439-.932 1.148-1.588 2.746-2.727 3.711-.534.453.463.582.709.568.691-.039 1.402-.267 1.933-.717 1-.848 1.848-2.292 2.55-3.413.856-1.365 2.173-2.451 2.5-4.062l-2.046.879h.062l-.239-.893-.469.219c-.775.341-.627.277.442-.19l-2.443-.017c-.33.397-.608.748-.8 1.225-.217.537.989.387 1.182.365.807-.095 1.433-.319 2.165-.664l-2.285-.013c-.683 1.058-1.049 2.28-1.75 3.312-.263.387.702.412.822.405.681-.038 1.416-.26 1.933-.717.814-.718 1.531-1.493 2.232-2.319.413-.487.935-.918 1.374-1.387.541-.577.881-1.323 1.57-1.754 1.281-.8-1.507-.57-1.973-.341-1.592.781-3.405 1.006-5.071 1.577-1.567.538-3.356 1.205-4.763 2.082-.494.308-.345.687.196.731.706.058 1.457-.179 2.05-.548z"/><path fill="#333" d="M270.658 35.657c.029.08-.083.388.03.146.047-.1.105-.196.158-.292.049-.089.086-.185.126-.279.024-.056.206-.264.086-.163.484-.411.745-1.132.135-1.576-.586-.426-1.548-.3-2.083.154a3.59 3.59 0 0 0-1.009 1.394c-.188.448-.527.874-.341 1.393.251.701 1.085.835 1.73.662.551-.148 1.419-.74 1.168-1.439zm-27.562 23.765c.98.536 2.048.405 3.046-.081.909-.442 1.242-1.413 1.373-2.356.073-.525-.88-.367-1.169-.316a4.196 4.196 0 0 0-1.104.347c-.138.067-.562.266-.589.464-.063.45-.168.875-.359 1.289-.485 1.055-.188-.539 1.87-.191-.122-.021-.236-.102-.342-.16-.531-.29-1.35-.048-1.872.144-.108.041-1.339.595-.854.86z"/><path fill="#333" d="M242.135 58.934c.052.525.089 1.044.188 1.562.102.536.369.88.353 1.458-.034 1.236-.306 2.304-.962 3.355-.804 1.289 2.143 1.181 2.741.222.758-1.214 1.045-2.439 1.141-3.856.079-1.172-.447-2.342-.563-3.518-.117-1.182-3.025-.502-2.898.777zm-25.312 88.562c.765 1.903-.432 3.44-1.625 4.887-1.43 1.736-2.511 3.338-4.315 4.761-1.245.982 1.66.789 2.277.302 1.957-1.544 3.165-3.207 4.703-5.126 1.33-1.659 2.727-3.437 1.857-5.601-.353-.877-3.201.021-2.897.777zm-11.517 16.168c-.32 1.328-.635 2.609-1.233 3.846-.612 1.264-2.112 2.128-3.133 3.068-2.061 1.896-3.923 3.791-6.247 5.396-1.62 1.119.769 2.055 1.907 1.268 2.838-1.96 5.011-4.434 7.634-6.617 2.43-2.022 3.275-4.173 4.003-7.198.331-1.375-2.632-1.006-2.931.237zm-46.549 40.87c-2.104 2.216-5.913 3.226-8.842 3.382-1.598.085-2.269 2.116-.287 2.011 3.929-.209 8.749-1.686 11.533-4.618 1.244-1.312-1.561-1.663-2.404-.775zm-136.953 2.175c-1.179-.104-2.338-.529-3.5-.75a8.105 8.105 0 0 0-1.585-.141c-.361.002-.89.18-1.165.141-.595-.085-1.262.086-1.782.374-.321.178-.943.753-.293.985.908.325 1.871.613 2.75 1 .762.335 3.426-.814 2.335-1.294-.879-.387-1.842-.675-2.75-1l-2.075 1.359c1.008.144 1.939-.201 2.94.048 1.079.269 2.202.605 3.31.702.699.061 1.487-.109 2.049-.549.441-.347.367-.822-.234-.875z"/><path fill="#333" d="M4.733 204.337c.644.069 1.35.649 1.935.9.786.337 1.797.297 2.612.517 2.082.561 4.061 1.456 6.203 1.771.759.112 2.788-.814 1.677-1.672-1.397-1.078-3.062-1.64-4.709-2.233l-1.733 1.728c3.138.74 6.614.461 9.688 1.375 1.049.312 3.423-1.226 1.733-1.728-3.083-.917-6.552-.635-9.688-1.375-.989-.233-3.461 1.106-1.733 1.728 1.507.543 2.899 1.039 4.166 2.017l1.677-1.672c-2.162-.318-4.25-1.318-6.359-1.886-1.473-.397-2.879-1.14-4.391-1.302-1.24-.133-3.037 1.622-1.078 1.832zm60.898-41.628h-.75c-.245 0-2.407.48-2.059 1.037 1.429 2.288 2.916 4.788 4.823 6.704.972.977 1.661 2.145 2.735 3.023 1.212.991 2.825 1.085 4.211 1.672l2.36-1.2c-1.672-.599-3.451-.782-5.188-1.188-1.678-.392-3.217-1.791-4.195-3.164-.436-.612-3.228.315-2.72 1.028.845 1.186 2.021 2.272 3.356 2.901 2.012.948 4.322.883 6.387 1.623.663.238 3.36-.777 2.36-1.2-1.305-.552-2.621-.73-3.852-1.5-.953-.596-1.573-1.694-2.281-2.539-1.854-2.212-3.561-4.476-5.098-6.937l-2.059 1.037h.75c.859.001 3.156-1.297 1.22-1.297zM36.189 145.89c-.647-.492-1.031-1.363-1.419-2.065-.484-.876-.818-1.856-1.175-2.793l-2.621 1.02c.654.19 1.182.385 1.883.425.897.051 1.745-.151 2.625-.055.685.075 1.496-.132 2.049-.549.457-.346.359-.767-.223-.831-.653-.071-1.268-.205-1.93-.07-.8.163-1.309.034-2.062-.184-.449-.13-2.956.14-2.621 1.02.358.938.695 1.914 1.175 2.793.431.789.877 1.795 1.606 2.349.728.552 3.337-.586 2.713-1.06z"/><path fill="#333" d="M32.875 140.07l-.104-.021.479.299.033.06c-.137-.683-1.21-.644-1.691-.515-.559.15-1.336.603-1.207 1.292.134.718 1.246 1.194 1.82 1.528.625.363 1.503.191 2.069-.207.447-.314.81-1.014.189-1.376a18.519 18.519 0 0 1-1.046-.657l-.141-.094c-.174-.122-.171-.113.008.028l-2.898.776c.078.388.405.637.783.713.717.143 1.526.01 2.049-.549.411-.441.319-1.145-.343-1.277z"/><path fill="#333" d="M35.726 140.776a.34.34 0 0 1-.298-.107l-1.726 1.489h.062c.6 0 1.265-.182 1.726-.58.327-.282.434-.681-.001-.909a4.887 4.887 0 0 0-.688-.312c-.668-.232-1.45-.077-2.05.28-.399.238-.869.787-.263 1.097.653.334 1.277.176 1.952.331.336.077.708.076 1.052.089.196.007.779-.075.871-.045.679.218 1.44.083 2.05-.28.317-.189.947-.877.263-1.097-.603-.194-1.163-.174-1.787-.175a4.034 4.034 0 0 1-.937-.094c-.377-.087-.817.065-1.152-.107l-2.313 1.377c.244.085.459.193.688.312l1.726-1.489h-.062c-.6 0-1.265.182-1.726.58-.334.288-.426.672.001.909.26.145.53.235.827.268.707.079 1.495-.071 2.049-.549.43-.368.359-.919-.264-.988z"/><path fill="#333" d="M32.09 141.978c.642 0 3.314-1.241 1.864-1.241-.643.001-3.315 1.241-1.864 1.241z"/><path fill="#333" d="M32.864 140.895l-.076.001.701.058a.286.286 0 0 1 .163.114c-.084-.073-.148-.17-.211-.26-.047-.067-.069-.332-.083-.15.079-1.038-1.483-.911-2.076-.62l-.102.05 1.471-.148-.102-.026.478.294.006.012c-.303-1.221-3.203-.456-2.898.776.255 1.027 1.64.918 2.377.556l-2.076-.62c-.034.451.149.829.403 1.192.404.577 1.054.707 1.716.696.596-.01 1.51-.441 1.615-1.101.116-.727-.81-.833-1.306-.824z"/><path fill="#333" d="M31.166 140.296l-.004-.047a.297.297 0 0 0-.593 0l-.004.047c-.02.216.24.32.406.233l.045-.024h-.299l.045.024c.164.086.424-.018.404-.233z"/><path fill="#333" d="M30.709 140.561c.423 0 .423-.656 0-.656s-.423.656 0 .656zm-6.734-24.384c-1.921-.641-2.549-3.702-3.713-5.121-1.943-2.371-3.13-5.758-4.05-8.631-.184-.574-.967-.328-.881.243.546 3.625 2.543 6.68 4.547 9.648 1.013 1.501 1.86 4.178 4.081 3.976.065-.006.08-.094.016-.115zM11.256 89.796c-.144-1.123-.194-2.247-.283-3.375-.015-.193-.216-2.595-.223-2.592.319-.148.131-.593-.166-.611l-.187-.012c-.164-.01-.321.122-.362.275-.071.271-.029.459.062.727.215.633.127 1.61.234 2.3.16 1.033.179 2.467.844 3.321.025.031.086.006.081-.033z"/><path fill="#333" d="M10.652 83.853c1.114.89 2.299 1.572 3.555 2.249 1.421.766 2.914 1.022 4.021 2.3.434.501 1.1-.213.713-.713-.805-1.037-1.958-1.544-3.148-2.025a54.623 54.623 0 0 1-2.511-1.087c-.64-.296-1.745-.636-2.264-1.089-.254-.22-.623.16-.366.365z"/><path fill="#333" d="M11.776 89.305c-.24-1.279-.439-3.286.043-4.518h-.844c.48 1.455.313 4.198 1.697 5.143.184.126.516.052.609-.16.261-.591.188-1.156.077-1.782-.119-.673-.003-1.392-.459-1.945-.154-.187-.471-.16-.63 0-.672.677-1.375 3.393-.03 3.723.219.054.461-.107.453-.345-.015-.469-.155-.847-.513-1.157-.141-.122-.395-.128-.488.063-.154.315-.165.368-.2.719l.423-.243c-.332-.235-.2-.748-.611-.962a.313.313 0 0 0-.466.268c-.018.426.322 1.009.249 1.386l.379.051c-.121-1.354-.014-2.707-.1-4.062-.031-.484-.606-1.251-.034-.443.147.207.274.429.405.647.807 1.35 1.607 2.69 3.172 3.21.406.135.733-.432.418-.719-.872-.795-2.154-1.706-2.53-2.869l-.509.509c1.715.628 2.221 3.146 4.173 3.32.328.029.48-.362.351-.612-.264-.516-.695-.942-1.084-1.367-.276-.302-1.207-.887-1.292-1.292l-.528.528c.89.166 1.542.938 2.222 1.478.342.272.847.27 1.159.591l.224-.848c-.46.108-2.103-1.428-2.358-1.644a5.909 5.909 0 0 0-2.33-1.199c-.328-.084-.755.104-.821.466-.129.704.187 1.254.621 1.799.837 1.05 1.707 2.052 2.464 3.168.411.607 1.39.053.992-.58-.51-.811-1.043-1.61-1.641-2.36-.266-.333-1.243-1.242-1.149-1.673l-.821.466c1.344.304 2.368 1.273 3.501 1.997.567.362 1.116.757 1.811.536.346-.11.518-.579.224-.848-.502-.458-1.18-.515-1.738-.905-.692-.484-1.278-1.108-2.132-1.275-.332-.065-.594.195-.528.528.082.413.424.708.746.955.635.486 1.371 1.172 1.754 1.887l.351-.612c-.907-.064-1.867-1.449-2.429-2.049-.476-.508-.873-.989-1.524-1.256-.302-.124-.587.233-.509.509.387 1.373 1.709 2.339 2.72 3.256l.418-.719c-1.34-.442-1.969-1.684-2.667-2.809-.286-.461-.628-1.225-1.174-1.43-.467-.175-.741.178-.805.604-.077.514.133 1.115.238 1.609.246 1.153.336 2.329.351 3.503.002.18.275.279.36.097.277-.597.024-.894.018-1.535l-.466.268c.281.129.334.711.639.913.146.097.377.005.413-.168l.185-.48-.488.063.237.718.453-.345c-.532-.17.225-2.155.47-2.402h-.63c.273.332.38 2.337.243 2.648l.609-.16c-.557-.38-.633-1.75-.764-2.353-.163-.748-.264-1.537-.538-2.254-.148-.387-.72-.446-.844 0-.398 1.429.003 3.451.418 4.857.073.252.431.147.384-.103z"/><g fill="#333"><path d="M19.006 15.506c1.738 4.026 5.66 7.016 8.824 9.906 4.008 3.661 8.396 6.829 12.824 9.958 8.938 6.316 17.827 13.087 27.376 18.446 9.322 5.231 19.753 8.442 29.939 11.5 11.605 3.484 23.029 6.534 34.994 8.565 1.065.181 1.519-1.448.449-1.627-10.126-1.699-19.988-3.909-29.798-6.936-10.772-3.325-21.628-6.34-31.806-11.288-9.303-4.523-17.466-11.137-26.062-16.822-9.101-6.019-20.308-12.579-26.375-21.913-.152-.235-.471-.034-.365.211z"/><path d="M134.725 73.677c-2.941-12.886-3.245-25.364 2.486-37.533 5.242-11.131 15.618-18.629 25.637-25.173C173.935 3.73 186.02.004 199.249 2.11c12.312 1.96 23.554 8.94 31.384 18.512.641.783 1.75-.335 1.11-1.11C223.551 9.574 212.262 3.105 199.629.73c-13.585-2.555-26.086 1.87-37.465 9.07-10.431 6.599-20.387 14.516-26.063 25.695-6.214 12.239-5.412 25.465-1.783 38.294.074.263.467.153.407-.112zm111.13-13.23c.06 0 .06-.094 0-.094s-.061.094 0 .094z"/><path d="M245.505 60.303c-3.61 13.557-5.644 27.445-8.481 41.17-2.726 13.184-6.979 25.931-12.861 38.046-11.609 23.914-30.294 43.914-52.328 58.585-23.656 15.752-50.449 22.575-78.699 22.67-28.288.096-57.096-5.092-83.353-15.658-1.178-.474-1.687 1.432-.523 1.898 26.541 10.634 55.339 15.481 83.876 15.6 28.024.117 54.549-6.981 78.151-22.178 22.005-14.168 40.401-34.099 52.578-57.248 13.587-25.83 16.327-54.589 22.34-82.694.098-.453-.579-.646-.7-.191z"/><path d="M1.023 202.683c4.003 1.712 8.476 2.966 12.185 5.253.763.47 1.36-.874.479-1.135-4.201-1.247-8.338-3.098-12.411-4.717-.345-.138-.594.453-.253.599zm1.165 1.407c.03 0 .03-.047 0-.047s-.03.047 0 .047z"/><path d="M11.976 205.959c-3.919-.771-7.006-3.651-10.891-4.396-1.086-.208-1.558 1.406-.461 1.672 3.842.932 7.216 3.44 11.231 3.621.511.024.629-.797.121-.897z"/><path d="M1.465 202.27c15 3.25 30.622 3.994 45.473-.557 13.403-4.107 25.572-12.328 34.823-22.799.572-.647.032-1.737-.866-1.487l-.287.08c-1.294.36-.472 2.359.713 1.692l.259-.146-1.217-1.217c-2.684 5.118-9.76 9.646-14.297 12.822-5.967 4.177-12.648 7.274-19.537 9.577-14.591 4.878-30.057 3.291-45.009 1.62-.236-.026-.285.365-.055.415zm28.384-62.443c.816 4.392 4.444 9.023 7.508 12.19 4.135 4.273 9.119 7.596 13.196 11.959 7.605 8.138 18.936 12.557 29.968 13.081.733.035.906-1.154.174-1.289-11.034-2.039-21.023-4.44-29.133-12.801-7.123-7.343-17.561-13.109-21.035-23.326-.147-.434-.76-.258-.678.186z"/><path d="M29.855 140.085c4.132.182 8.186.97 12.333.864 3.152-.081 6.393-1.103 9.477-1.695.595-.114.462-1.112-.143-1.059-2.733.241-5.379.991-8.076 1.475-4.481.806-9.09-.233-13.591-.288-.455-.006-.451.683 0 .703z"/><path d="M51.334 138.733c-.006.161-.048.327.063.458.059.069.19.069.249 0 .111-.131.069-.297.063-.458-.009-.242-.366-.242-.375 0z"/><path d="M10.024 83.066c-.988 13.382 5.61 24.754 13.242 35.176 7.073 9.659 16.888 17.767 28.374 21.27l.215-1.588-.306-.142c-.706-.476-1.381.543-.866 1.123.339.382.471.49.957.608 1.014.246 1.429-1.261.43-1.559-11.709-3.503-21.331-11.974-28.601-21.649-7.582-10.09-12.455-20.478-13.117-33.238-.011-.213-.312-.211-.328-.001z"/><path d="M8.87 83.123c1.662-.465 4.714 1.901 6.131 2.626 1.83.936 3.794 1.633 5.743 2.265 3.848 1.247 8.08 1.801 12.11 1.996.802.039.758-1.127 0-1.219-5.54-.668-10.866-1.273-16.108-3.282-1.939-.743-5.672-3.575-7.922-2.493-.06.029-.016.124.046.107z"/><path d="M33.354 89.234c-5.057-5.24-10.087-9.793-13.858-16.126-3.464-5.819-6.625-12.163-8.263-18.754-3.396-13.66-.482-29.085 8.995-39.581.455-.504-.291-1.253-.746-.746-9.304 10.37-11.581 23.759-9.759 37.291.988 7.339 4.599 14.314 8.159 20.703 3.912 7.022 9.311 12.098 15.14 17.544.221.207.542-.113.332-.331zm198.261-68.162c5.716-1.241 11.361-3.77 16.958-5.52 6.201-1.939 12.317-4.113 17.947-7.394.548-.32.056-1.163-.497-.85-5.617 3.179-11.585 5.339-17.706 7.315-5.593 1.806-11.181 4.441-16.889 5.771-.443.103-.254.774.187.678z"/><path d="M243.127 38.867c5.805-1.757 10.5-7.554 14.289-11.975 4.311-5.03 8.742-12.428 9.83-19.028.101-.614-.806-.89-.949-.262-1.332 5.846-4.664 11.081-7.852 16.092-3.326 5.228-9.534 12.299-15.529 14.404-.48.169-.285.92.211.769z"/><path d="M242.271 38.538c10.158-.04 20.211-2.258 29.631-6.08.575-.233.343-1.17-.262-.949-9.444 3.452-19.285 6.146-29.369 6.42-.391.01-.393.61 0 .609z"/><path d="M245.528 60.49c4.794-4.562 10.423-8.279 15.229-12.917 4.898-4.726 9.507-9.521 12.74-15.562.335-.625-.604-1.177-.951-.556-3.29 5.898-7.755 10.67-12.54 15.366-4.753 4.664-10.303 8.512-14.991 13.155-.334.331.174.837.513.514z"/></g></svg>