<?xml version="1.0" encoding="utf-8"?>
<!-- Generator: Adobe Illustrator 17.0.0, SVG Export Plug-In . SVG Version: 6.00 Build 0)  -->
<!DOCTYPE svg PUBLIC "-//W3C//DTD SVG 1.1//EN" "http://www.w3.org/Graphics/SVG/1.1/DTD/svg11.dtd">
<svg version="1.1" xmlns="http://www.w3.org/2000/svg" xmlns:xlink="http://www.w3.org/1999/xlink" x="0px" y="0px"
	 width="298.765px" height="318.138px" viewBox="0 0 298.765 318.138" enable-background="new 0 0 298.765 318.138"
	 xml:space="preserve">
<g id="Layer_1">
	<g id="colors">
		<g>
			<g>
				<path fill="#C0DBED" d="M189.986,107.81c-1.295-1.57-2.623-3.123-3.826-4.753c-0.835-1.131-1.534-2.357-2.601-3.289
					c-0.717-0.625-1.291-1.24-1.724-2.055c-2.695-2.363-5.64-4.474-8.484-6.478c-4.549-3.206-9.298-6.186-14.21-8.823
					c-0.427,0.432-1.079,0.636-1.765,0.263c-2.823-1.534-6.873-2.208-10.014-2.664c-3.314-0.481-6.113-1.754-9.278-1.882
					c-1.147,0.227-2.242,0.341-3.451,0.313c-0.316-0.007-0.588-0.107-0.809-0.266c-0.202,0.008-0.403,0.016-0.605,0.024
					c-0.034,0.008-0.064,0.003-0.097,0.008c-0.167,0.15-0.374,0.266-0.653,0.304c-2.055,0.279-4.181,1.071-6.278,1.414
					c-1.414,0.64-2.805,1.338-4.173,2.086c-1.916-0.002-3.841,0.091-5.778,0.278c-0.838,0.34-1.689,0.658-2.583,0.909
					c-0.543,0.152-1.018-0.02-1.358-0.341c-4.167,2.026-8.107,4.257-12.158,6.565c-0.236,0.134-0.473,0.191-0.701,0.196
					c-0.833,0.711-1.498,1.542-2.284,2.306c-0.991,0.963-2.33,1.553-3.266,2.56c-0.586,0.631-1.149,1.421-1.937,1.812
					c-0.233,0.116-0.461,0.164-0.678,0.167c-0.324,0.405-0.643,0.814-0.954,1.229c-4.577,6.106-7.815,12.961-10.519,20.046
					c0.63,0.124,1.201,0.592,1.248,1.409c0.074,1.273,0.089,2.535,0.446,3.768c0.18,0.62-0.025,1.117-0.393,1.442
					c-0.255,0.791-1.157,1.316-1.905,1.077c-1.201,2.354-2.071,4.772-2.618,7.362c-0.096,0.457-0.338,0.753-0.644,0.917
					c-0.916,4.634-1.39,9.296-1.452,13.984c0.229,1.648,0.566,3.292,1.042,4.93c0.473,1.629,1.245,2.848,2.185,3.719
					c0.026,0.205,0.041,0.409,0.069,0.614c0.782,5.728,1.513,12.322,4.021,17.831c0.798-0.072,1.658,0.404,1.665,1.438
					c0.005,0.676,0.099,1.339,0.251,1.993c0.66,0.966,1.395,1.879,2.236,2.714c0.624,0.619,1.317,1.085,2.049,1.419
					c1.4,3.83,3.599,6.94,6.324,9.475c0.703,0.47,1.422,0.924,2.148,1.382c1.523,0.962,2.939,2.06,4.351,3.166
					c5.152,2.74,11.109,4.341,16.927,5.264c21.758,3.449,41.056-6.264,56.079-20.922c0.92,0.824,1.992,1.44,2.997,1.583
					c0.146,0.021,0.292,0.042,0.438,0.062c1.209,0.173,2.319,0.166,3.35-0.014c-0.251-0.777,0.226-1.677,1.034-1.9
					c1.684-0.465,2.668-1.909,3.716-3.232c1.287-1.625,2.349-3.412,3.622-5.049c0.276-0.355,0.602-0.505,0.925-0.517
					c0.002-0.004,0.004-0.008,0.007-0.013c0.113-0.193,0.249-0.34,0.397-0.452c3.524-6.895,5.781-14.227,6.673-21.964
					c-0.054-0.188-0.047-0.383-0.013-0.577c-0.091-0.425-0.02-0.896,0.19-1.269c0.128-1.424,0.231-2.856,0.259-4.309
					C197.654,131.35,195.725,118.297,189.986,107.81z M166.373,166.945c-7.811,8.016-16.746,15.42-27.535,18.924
					c-8.554,2.778-19.518,2.384-28.21-1.255c1.883-2.297,2.592-5.714,1.104-8.76c-2.626-5.377-5.928-10.375-8.651-15.7
					c-1.543-3.017-2.393-6.123-2.8-9.3c0.81-12.067,4.438-24.094,11.529-33.958c6.34-8.818,17.183-14.433,26.941-18.526
					c0.032-0.013,0.062-0.03,0.094-0.044c6.302,0.718,12.344,2.615,18.257,6.56c10.072,6.719,16.821,17.962,19.987,29.433
					C180.646,147.208,175.261,157.824,166.373,166.945z"/>
			</g>
		</g>
		<g>
			<g>
				<path fill="#C0DBED" d="M176.975,160.158c-5.198,3.206-9.72,7.946-13.518,12.673c-0.971,1.209-2.16,2.29-3.434,3.276
					c-7.274,3.239-15.785,4.573-22.762,5.01c-15.089,0.945-28.84-5.495-39.197-16.285c-1.326-1.381-3.019-2.049-4.736-2.141
					c-0.022-0.185-0.047-0.371-0.067-0.556c-0.444-4.063-3.076-7.5-7.5-7.5c-3.752,0-7.945,3.427-7.5,7.5
					c0.478,4.378,1.233,8.902,2.428,13.297c0.689-1.072,2.765-0.806,2.776,0.804c0.028,3.934,2.827,7.472,5.136,10.771
					c0.397,0.046,0.786,0.24,1.076,0.638c1.789,2.456,4.272,3.978,6.796,5.572c2.175,1.374,4.137,3.019,6.176,4.575
					c2.639-1.668,4.195-4.98,3.048-8.719c10.12,5.184,21.449,7.676,33.289,6.934c1.849-0.116,3.688-0.301,5.52-0.525
					c1.364,1.452,3.229,2.382,5.254,2.153c3.591-0.405,7.028-1.729,10.261-3.503c0.103-0.075,0.217-0.136,0.339-0.185
					c2.703-1.516,5.261-3.339,7.639-5.201c7.485-3.739,15.968-10.606,19.236-18.326
					C189.927,164.062,184.044,155.798,176.975,160.158z"/>
			</g>
		</g>
		<g>
			<g>
				<path fill="#C0DBED" d="M83.466,176.236c0.008,1.155,0.258,2.276,0.662,3.368c0.52,0.277,1.059,0.537,1.639,0.764
					c3.813,1.489,8.226-1.605,9.226-5.238c1.022-3.718-0.84-6.852-3.867-8.574c-0.091-0.145-0.2-0.31-0.333-0.502
					c-0.338-0.613-0.618-1.25-0.84-1.913c-0.905-2.515-1.56-5.119-2.202-7.71c-1.453-5.867-1.485-11.782-1.49-17.795
					c-0.004-5.653-5.127-7.996-9.384-7.042c-0.103,0.401-0.211,0.799-0.298,1.208c-0.096,0.456-0.339,0.746-0.642,0.909
					c-1.407,7.111-1.78,14.29-1.221,21.526c0.06,0.782-0.729,1.545-1.5,1.5c-0.197-0.011-0.402-0.031-0.606-0.048
					c0.387,2.29,0.875,4.579,1.481,6.879c1.213,4.601,2.708,9.084,5.576,12.451c0.127-0.078,0.248-0.166,0.376-0.243
					c0.194-0.117,0.386-0.184,0.57-0.211C81.209,174.339,83.454,174.562,83.466,176.236z"/>
			</g>
		</g>
		<g>
			<g>
				<path fill="#C0DBED" d="M133.824,78.178c-0.202,0.008-0.403,0.016-0.605,0.024c-0.026,0.006-0.05,0.002-0.076,0.007
					c-0.168,0.155-0.389,0.267-0.674,0.306c-2.671,0.363-5.462,1.6-8.154,1.579c-1.165-0.009-2.226,0.002-3.25,0.065
					c-2.47,1.08-4.78,2.307-7.408,3.043c-0.546,0.153-1.024-0.022-1.364-0.347c-1.151,0.564-2.289,1.14-3.412,1.731
					c-2.575,2.943-4.198,6.509-4.121,10.547c0.078,4.087,3.353,7.5,7.5,7.5h1c5.246,0.001,7.641-4.408,7.198-8.445
					c0.647-0.677,0.974-0.788,2.023-1.442c0.685-0.427,1.412-0.783,2.135-1.14c-1.108,0.546,1.122-0.405,1.106-0.399
					c0.68-0.234,1.38-0.398,2.079-0.559c0.023-0.005,0.036-0.009,0.058-0.014c0.092,0.004,0.214,0.005,0.401-0.001
					c6.955-0.223,8.899-8.07,5.823-12.323C133.993,78.272,133.901,78.234,133.824,78.178z"/>
				<polygon fill="#C0DBED" points="119.763,94.976 119.76,94.98 119.763,94.976 				"/>
			</g>
		</g>
		<g>
			<g>
				<path fill="#FFFFFF" d="M86.769,91.301c-0.02-0.048-0.042-0.096-0.062-0.145C80.414,82.688,72.646,75.59,66.72,66.738
					c-6.066-9.061-11.886-17.916-20.674-24.579c-0.758-0.575-1.618-0.902-2.513-1.039c-0.472-1.139-0.835-2.299-1.04-3.479
					c-1.655-9.517-16.109-5.47-14.464,3.988c0.312,1.793,0.87,3.497,1.591,5.138c-0.066,0.169-0.124,0.342-0.175,0.518
					c-2.766,0.965-4.936,3.352-4.683,6.849c0.162,2.232,0.64,4.321,1.338,6.326c-1.189,1.639-1.701,3.781-1.071,6.168
					c0.129,0.491,0.274,0.97,0.429,1.443c-1.133,2.159-1.372,4.87-0.172,7.348c4.321,8.929,12.078,15.186,19.89,20.957
					c3.763,2.781,7.558,5.639,11.596,8.005c4.91,2.876,10.295,4.833,15.205,7.729c6.442,3.8,12.886-3.027,10.666-9.299
					c4.263-1.421,7.657-6.381,4.746-10.726C87.135,91.913,86.914,91.658,86.769,91.301z"/>
			</g>
		</g>
		<g>
			<g>
				<path fill="#FFFFFF" d="M70.6,61.74c-0.822-1.248-1.802-2.652-2.723-4.147c-0.169,0.198-0.327,0.407-0.45,0.649
					c-0.879,1.724-3.467,0.205-2.59-1.514c0.377-0.74,0.922-1.329,1.528-1.859c-0.351-0.716-0.669-1.442-0.922-2.175
					c-3.316-4.293-5.955-9.051-8.782-13.68c-1.921-1.375-3.226-4.155-4.611-5.808c-2.833-3.383-5.638-6.771-7.971-10.514
					c-1.436-1.651-2.889-3.304-4.351-4.951c-3.726-1.888-7.101-5.836-9.435-9.776c-0.543-0.466-0.984-1.009-1.309-1.633
					c-1.587-1.556-3.189-3.084-4.828-4.536c-0.287-0.254-0.422-0.558-0.449-0.866c-0.394,0.009-0.784,0.052-1.168,0.118
					c-0.21,1.19-0.568,2.335-0.876,3.586c-0.852,3.456-1.26,7.018-1.674,10.552c-0.749,6.406-1.51,12.811-2.273,19.216
					c-0.156,1.312-1.64,1.726-2.465,1.221c-0.284,6.275-0.287,12.531,0.502,18.616c-0.498,4.337,1.069,8.164,2.801,11.961
					c0.755,2.111,1.651,4.188,2.73,6.219c1.076,2.027,2.837,3.1,4.758,3.434c2.662,4.29,6.118,8.461,11.224,9.514
					c9.442,1.945,13.461-12.513,3.99-14.465c-0.153-0.042-0.283-0.076-0.395-0.104c-0.498-0.488-0.867-1.012-1.289-1.623
					c-1.158-1.679-2.116-3.505-3.12-5.278c-2.172-3.837-4.434-7.063-5.798-11.286c-0.568-4.849-0.428-9.832-0.253-14.697
					c0.015-0.409,0.036-0.817,0.052-1.226c1.278,1.667,2.755,3.167,4.524,4.422c1.163,0.825,2.403,1.174,3.621,1.174
					c3.294,3.55,6.361,7.199,9.039,11.409C54.649,64.72,63.004,74.705,70.651,85.27c1.207,1.719,2.404,3.446,3.633,5.151
					c3.363,4.665,9.384,3.867,12.422,0.732C82.557,80.96,76.648,70.922,70.6,61.74z"/>
			</g>
		</g>
		<g>
			<g>
				<path fill="#FFFFFF" d="M50.629,193.148c3.692-1.01,7.112-2.185,10.509-3.65c1.06-1.631,1.491-3.675,0.854-5.857
					c-0.104-0.354-0.241-0.697-0.373-1.043c0.038-0.06,0.082-0.117,0.118-0.177c2.245-3.833,0.572-7.813-2.691-10.261
					c-0.742-0.557-1.478-1.122-2.217-1.682c-2.022-2.729-4.898-5.054-7.023-7.434c-2.026-2.269-3.884-4.81-6.048-6.748
					c-2.224-0.155-4.424-0.289-6.626-0.445c-0.094,0.039-0.188,0.068-0.282,0.11c-1.962,0.867-3.742,1.497-5.884,1.275
					c-0.359-0.037-0.704-0.225-0.981-0.483c-0.056,0.019-0.113,0.038-0.169,0.057c-0.151,0.248-0.298,0.499-0.42,0.761
					c-0.188-0.145-0.382-0.285-0.581-0.422c-2.951,0.987-6.19,2.066-8.126,4.17c0.049,0.338-0.026,0.674-0.202,0.96
					c0.046,0.441,0.102,0.895,0.156,1.346c0.671-0.1,1.385,0.196,1.603,1.045c0.895,3.476,1.73,7,2.866,10.414
					c0.303,0.318,0.583,0.654,0.845,1.013c0.306,0.125,0.584,0.346,0.804,0.632c0.165,0.215,0.316,0.44,0.477,0.659
					c2.12,2.009,3.268,4.952,4.755,7.611c0.255-0.068,0.526-0.088,0.789-0.042c2.51,0.441,4.064,2.958,5.579,4.767
					c0.025,0.03,0.057,0.065,0.082,0.095c1.514-0.034,2.867,0.971,4.285,1.364c2.494,0.691,4.996,1.447,7.554,1.857
					C50.414,193.061,50.523,193.103,50.629,193.148z"/>
			</g>
		</g>
		<g>
			<g>
				<path fill="#FFFFFF" d="M70.168,181.679c0.492,0.116,0.986,0.177,1.477,0.209c2.598-2.05,5.188-4.115,7.967-5.836
					c0.085-0.449,0.142-0.918,0.148-1.416c0.03-2.349-0.614-4.583-1.578-6.751c0.121-2.088-0.702-4.229-2.118-6.052
					c-1.326-1.706-2.604-3.449-3.889-5.186c-2.053-0.219-4.342-0.769-6.292-1.743c-0.087,0.042-0.169,0.09-0.268,0.112
					c-1.64,0.36-3.194,0.102-4.763-0.457c-0.206-0.074-0.417-0.155-0.628-0.236c-1.074,0.938-2.596,1.102-4.291,0.938
					c-1.243,0.386-2.471,0.817-3.801,0.975c-2.309,0.274-4.514,0.343-6.833,0.167c-0.284-0.022-0.561-0.038-0.844-0.058
					c-0.622,0.316-1.199,0.708-1.703,1.175c-5.896,0.214-10.767,7.105-5.296,12.42c0,0,0.001,0.001,0.001,0.001l-0.001,0.001
					c0.004,0.003,0.008,0.007,0.012,0.01c5.205,5.058,12.391,14.099,20.291,14.185c0.939,0.01,1.814-0.171,2.619-0.477
					c0.054,0.023,0.102,0.053,0.157,0.075C64.072,185.154,67.742,184.088,70.168,181.679z"/>
			</g>
		</g>
		<g>
			<g>
				<path fill="#FFFFFF" d="M217.606,232.409c-2.488-2.665-4.013-5.994-6.019-9c-0.502-0.751-0.203-1.474,0.364-1.875
					c-0.572-0.617-1.098-1.295-1.606-1.995c-1.41-1.7-3.326-2.926-5.503-3.726c-0.863-1.104-1.804-2.121-2.779-2.982
					c-2.079-1.836-4.762-2.543-7.231-1.912c-2.266-1.808-5.565-2.559-8.199-1.728c-0.293-0.473-0.592-0.925-0.897-1.342
					c-1.395-1.91-3.801-3.266-6.219-3.577c-1.789-4.523-4.89-8.431-10.257-8.637c-2.321-0.089-4.493,1.121-5.9,2.919
					c0.472,3.359,0.378,7.076,0.659,10.181c0.547,6.035,0.899,11.914,2.694,17.687c0.996,1.239,2.144,2.259,3.502,2.922
					c0.442,0.567,0.904,1.099,1.383,1.6c0.114-0.026,0.234-0.042,0.366-0.042c0.993,0,1.465,0.79,1.438,1.559
					c3.124,1.338,6.924,1.957,10.148,2.258c0.507-0.125,0.989-0.272,1.438-0.448c0.166,0.209,0.351,0.403,0.531,0.602
					c0.148,0.009,0.301,0.02,0.445,0.029c2.001,0.116,3.921,0.413,5.802,0.851c0.372-0.316,0.88-0.475,1.347-0.298
					c0.526,0.2,1.045,0.417,1.566,0.627c4.201-0.294,8.325-1.314,12.535-1.472c2.874-0.108,5.276-0.092,8.018-1.136
					c1.12-0.427,1.395-0.493,2.347-0.13c0.148-0.191,0.286-0.389,0.418-0.591C217.86,232.65,217.726,232.538,217.606,232.409z"/>
			</g>
		</g>
		<g>
			<g>
				<path fill="#FFFFFF" d="M211.587,223.409c-0.502-0.751-0.203-1.474,0.364-1.875c-2.114-2.281-3.727-5.244-5.309-8.032
					c-0.131-0.031-0.254-0.072-0.388-0.1c-0.527-0.11-1.08-0.16-1.642-0.165c-0.071-0.099-0.152-0.19-0.22-0.292
					c-2.097-3.109-4.163-6.37-7.442-8.286c-0.542-1.33-1.23-2.651-2.041-3.887c-0.172-0.544-0.364-1.076-0.58-1.585
					c-0.646-1.524-1.81-2.854-3.254-3.931c-0.24-1.168-0.657-2.31-1.217-3.383c-1.931-1.789-3.923-3.618-5.709-5.563
					c-0.391-0.18-0.79-0.344-1.204-0.477c-3.168-2.805-7.305-4.268-11.686-2.803c-5.29,1.769-8.338,7.022-8.354,12.422
					c-0.001,0.305,0.02,0.612,0.05,0.919c0.36,1.459,0.545,3.044,0.661,4.655c0.161,0.537,0.347,1.067,0.573,1.582
					c1.033,2.354,2.758,4.073,4.835,5.22c0.628,1.099,1.4,2.091,2.29,2.9c1.613,1.466,3.91,2.305,6.248,2.44
					c0.914,0.6,1.894,1.119,2.943,1.534c0.825,0.326,1.669,0.454,2.508,0.442c1.162,1.234,2.515,2.261,3.95,2.965
					c0.551,0.942,1.163,1.868,1.812,2.797c0.002,0.004,0.004,0.008,0.006,0.013c0.001,0,0.001-0.001,0.002-0.001
					c0,0,0.001,0.001,0.001,0.001c1.666,2.38,3.796,3.457,5.879,3.578c1.549,1.507,3.196,2.888,4.118,4.921c0,0,0,0,0.001,0
					c0,0.001,0.001,0.002,0.001,0.003c3.797,7.043,12.577,3.33,13.613-2.947c0.232-0.229,0.446-0.473,0.65-0.724
					C212.576,224.959,212.097,224.174,211.587,223.409z"/>
			</g>
		</g>
		<g>
			<g>
				<path fill="#FFFFFF" d="M297.297,93.26c-0.753-0.531-1.702-0.752-2.606-1.061c-0.286,0.297-0.662,0.511-1.058,0.537
					c-3.53,0.229-7.12,0.404-10.622,0.893c-0.23,0.032-0.458,0.06-0.684,0.087c-1.703,0.595-3.451,1.237-5.169,1.522
					c-0.017,0.019-0.029,0.041-0.048,0.059c-2.256,2.132-5.644,2.378-8.918,2.891c-0.475,0.689-0.877,1.494-1.161,2.452
					c-0.03,0.1-0.05,0.204-0.077,0.306c-0.201,0.091-0.39,0.204-0.582,0.313c-0.481-0.722-1.063-1.318-1.705-1.808
					c-0.798,0.273-1.617,0.494-2.469,0.649c-0.448,0.081-0.846-0.019-1.161-0.222c-0.635,0.27-1.275,0.53-1.932,0.753
					c-0.727,0.247-1.487,0.472-2.246,0.628c-1.111,0.466-2.243,0.839-3.398,1.135c-0.251,0.58-0.455,1.209-0.581,1.91
					c-1.338-0.427-2.769-0.503-4.109-0.237c-1.176,0.623-2.355,1.235-3.538,1.846c-0.981,0.983-1.682,2.322-1.894,4.044
					c-0.347,0.212-0.68,0.453-0.996,0.727c-2.824-0.77-6.202,0.089-8.256,2.501c-2.312,0.615-4.397,2.232-5.339,4.801
					c-0.192,0.039-0.382,0.083-0.571,0.137c-3.439-1.66-8.093-0.897-10.029,2.872c-1.93,0.274-3.698,1.265-4.782,2.996
					c-0.025,0.005-0.049,0.011-0.073,0.016c-1.285-0.826-2.792-1.304-4.284-1.36c-1.013,1.115-2.196,1.981-3.454,2.801
					c-0.645,0.42-1.266,0.261-1.686-0.144c-1.497,0.871-2.929,1.849-4.261,2.993c-1.355,1.164-2.998-0.315-2.365-1.717
					c-0.103-0.224-0.187-0.462-0.244-0.718c-0.031-0.137-0.05-0.277-0.074-0.416c-0.15,0.07-0.308,0.128-0.45,0.21
					c-3.805,2.231-4.367,6.535-2.692,10.264c0.512,1.141,0.28,2.968,0.383,4.178c0.229,2.685,0.891,4.925,2.117,7.322
					c0.201,0.393,0.43,0.739,0.672,1.063c-0.1-0.864,0.398-1.855,1.426-1.747c5.966,0.625,10.842,3.102,16.482,4.804
					c2.157,0.651,4.465,0.899,6.653,1.475c1.013,0.037,2.053-0.138,3.078-0.557c0.485,0.938,1.11,1.718,1.839,2.333
					c0.682,0.248,1.371,0.479,2.068,0.682c0.408,0.022,0.813,0.03,1.213,0.013c1.166-0.047,2.839-0.344,3.982-0.03
					c0.299,0.082,0.585,0.208,0.864,0.351c0.162-0.065,0.324-0.124,0.485-0.199c0.896-0.416,1.658-0.954,2.325-1.571
					c1.091,0.736,2.386,1.162,3.889,1.095c3.072-0.137,5.177-1.417,6.641-3.316c1.843-0.847,3.387-2.431,4.091-4.691
					c0.014-0.045,0.026-0.091,0.04-0.136c2.985,0.412,6.383-1.126,8.204-3.574c0.954-1.282,1.556-2.791,1.94-4.394
					c0.401-0.455,0.763-0.979,1.06-1.605c0.538-1.135,0.965-2.276,1.31-3.427c1.239,0.327,2.532,0.327,3.708-0.126
					c3.45-1.329,5.337-3.698,6.459-6.631c1.194-0.595,2.257-1.517,3.023-2.815c1.048-1.776,1.643-3.57,2.01-5.377
					c2.702-0.576,5.181-2.708,6.246-5.416c0.378-0.961,0.678-1.934,0.942-2.915c0.38-0.228,0.757-0.481,1.129-0.775
					c1.106-0.874,1.858-1.908,2.405-3.035c0.381-0.278,0.752-0.586,1.095-0.965c0.254-0.281,0.464-0.559,0.66-0.836
					c-0.188-0.503-0.149-1.105,0.265-1.59C294.096,101.626,297.561,96.619,297.297,93.26z"/>
			</g>
		</g>
		<g>
			<g>
				<path fill="#FFFFFF" d="M281.621,93.962c-1.479,0.519-2.982,1.03-4.465,1.276c-0.017,0.018-0.029,0.04-0.047,0.058
					c-2.474,2.338-6.309,2.403-9.862,3.045c-1.595,0.832-3.252,1.431-5.05,1.758c-0.448,0.081-0.846-0.019-1.161-0.222
					c-0.635,0.27-1.275,0.53-1.932,0.753c-0.723,0.246-1.48,0.469-2.234,0.623c-1.923,0.807-3.902,1.34-5.975,1.673
					c-6.412,3.443-12.916,6.743-19.465,9.806c-1.321,0.618-6.345,3.376-9.476,3.46c-0.571,0.547-1.332,0.782-2.09,0.99
					c-0.333,0.091-0.672,0.054-0.972-0.073c-2.8,1.625-5.6,3.249-8.381,4.906c-0.578,0.344-1.167,0.63-1.762,0.893
					c-0.955,0.986-2.039,1.787-3.193,2.539c-0.645,0.42-1.266,0.261-1.686-0.144c-1.497,0.871-2.929,1.849-4.261,2.993
					c-1.024,0.88-2.217,0.25-2.465-0.716c-6.229,4.865-5.971,15.26,1.83,18.353c0.393,0.39,0.848,0.753,1.366,1.085
					c5.103,0.894,9.514,3.01,14.523,4.521c2.785,0.84,5.823,1.003,8.529,2.076c1.637,0.649,3.349,1.342,5.1,1.855
					c0.411,0.021,0.82,0.032,1.222,0.016c1.166-0.047,2.839-0.344,3.982-0.03c0.592,0.163,1.134,0.479,1.668,0.814
					c2.148,0.058,4.322,0.15,6.433,0.007c4.008-0.271,6.071-1.904,9.094-4.211c0.765-0.584,1.601-1.033,2.451-1.451
					c0.261-0.293,0.625-0.497,1.069-0.516c0.351-0.167,0.702-0.336,1.048-0.512c0.291-0.259,0.576-0.524,0.86-0.792
					c0.735-0.696,1.502-1.39,2.497-1.673c0.017-0.005,0.033-0.005,0.05-0.009c1.851-1.752,3.604-3.6,5.455-5.355
					c0.122-0.115,0.25-0.196,0.379-0.262c2.36-4.155,4.398-8.577,6.684-12.187c5.295-8.364,12.42-16.506,15.108-26.18
					C287.553,99.316,285.126,95.233,281.621,93.962z M260.324,118.816c-4.243,6.446-7.785,13.258-11.797,19.834
					c-1.513,2.479-5.211,3.02-7.76,3.754c-3.805,1.097-8.089,1.319-11.967,0.578c-3.681-0.703-6.964-2.518-10.282-4.153
					c-1.425-0.702-2.88-1.27-4.331-1.835c2.259-1.056,4.398-2.323,6.546-3.613c6.215-3.735,12.516-7.466,18.909-10.884
					c7.777-4.158,16.082-6.7,24.453-9.063C262.784,115.262,261.484,117.054,260.324,118.816z"/>
			</g>
		</g>
		<g>
			<g>
				<path fill="#FFFFFF" d="M211.587,223.409c-0.502-0.751-0.203-1.474,0.364-1.875c-3.068-3.31-5.081-8.063-7.473-11.619
					c-1.812-2.694-3.893-5.2-5.315-7.995c-0.041-0.02-0.081-0.033-0.121-0.057c-1.081-0.644-1.739-1.891-2.457-2.883
					c-1.342-1.852-3.033-3.601-4.68-5.185c-2.642-2.542-5.64-5.102-8.153-7.917c-0.177-0.041-0.36-0.125-0.543-0.265
					c-0.418-0.32-0.764-0.729-1.035-1.178c-0.602-0.466-1.003-1.104-1.42-1.777c-0.135-0.218-0.197-0.456-0.203-0.694
					c-5.315,0.469-9.864,7.667-5.093,12.972c5.605,6.233,11.532,12.168,17.172,18.364c1.711,1.879,2.877,4.026,3.999,6.238
					c-2.96-1.039-5.82-2.494-8.65-4.695c-6.095-4.74-10.752-10.956-14.74-17.495c-2.401-3.938-7.373-4.425-10.693-2.346
					c1.421,4.051,1.088,9.47,1.475,13.732c0.568,6.266,0.909,12.366,2.892,18.351c0.005,0.014,0.005,0.027,0.009,0.041
					c0.547,0.787,1.125,1.555,1.735,2.304c0.242,0.058,0.483,0.183,0.703,0.41c0.496,0.51,1.069,0.966,1.695,1.379
					c0.23-0.19,0.527-0.318,0.911-0.318c0.994,0,1.466,0.789,1.436,1.558c3.949,1.692,8.991,2.235,12.564,2.442
					c2.002,0.116,3.922,0.412,5.803,0.85c0.372-0.315,0.879-0.474,1.346-0.297c0.526,0.2,1.045,0.417,1.566,0.627
					c4.201-0.294,8.325-1.314,12.535-1.472c2.867-0.108,5.264-0.093,7.997-1.129c0.323-0.549,0.591-1.16,0.782-1.852
					c0.085-0.31,0.141-0.634,0.179-0.964C214.47,228.369,213.176,225.79,211.587,223.409z"/>
			</g>
		</g>
		<g>
			<g>
				<path fill="#FFFFFF" d="M80.964,175.121c0.066-0.917-0.061-1.909-0.469-2.98c-1.482-3.887-4.024-7.021-5.756-10.792
					c-0.716-1.558-1.443-3.113-2.177-4.666c-2.149-0.191-4.623-0.734-6.702-1.77c-0.08,0.037-0.155,0.082-0.245,0.102
					c-1.64,0.36-3.194,0.102-4.763-0.457c-0.206-0.074-0.417-0.155-0.628-0.236c-1.074,0.938-2.596,1.102-4.291,0.938
					c-1.243,0.386-2.471,0.817-3.801,0.975c-2.309,0.274-4.514,0.343-6.833,0.167c-2.759-0.209-5.456-0.359-8.167-0.551
					c-0.094,0.039-0.188,0.068-0.282,0.11c-1.524,0.674-2.942,1.199-4.502,1.297c-0.065,0.062-0.137,0.115-0.201,0.179
					c-0.072-0.06-0.147-0.108-0.221-0.164c-0.314,0.004-0.632-0.004-0.961-0.038c-0.359-0.037-0.699-0.228-0.974-0.486
					c-3.23,1.112-7.102,2.188-9.299,4.58c0.045,0.334-0.031,0.665-0.206,0.948c0.046,0.441,0.102,0.895,0.156,1.346
					c0.671-0.1,1.385,0.196,1.603,1.045c0.895,3.476,1.73,7,2.866,10.414c0.303,0.318,0.583,0.654,0.845,1.013
					c0.306,0.125,0.584,0.346,0.804,0.632c0.165,0.215,0.316,0.44,0.477,0.659c2.12,2.009,3.268,4.952,4.755,7.611
					c0.255-0.068,0.526-0.088,0.789-0.042c2.51,0.441,4.064,2.958,5.579,4.767c0.025,0.03,0.057,0.065,0.082,0.095
					c1.514-0.034,2.867,0.971,4.285,1.364c2.494,0.691,4.996,1.447,7.554,1.857c0.136,0.022,0.258,0.057,0.367,0.103
					c3.832-1.049,7.367-2.277,10.896-3.822c0.035-0.408,0.257-0.797,0.748-1.047c6.404-3.25,11.578-8.791,17.75-12.5
					c0.192-0.115,0.379-0.168,0.561-0.196C80.691,175.393,80.815,175.241,80.964,175.121z"/>
			</g>
		</g>
		<g>
			<g>
				<path fill="#FFFFFF" d="M127.029,121.641c-0.821,5.501-0.329,10.729,1.573,15.976c1.693,4.669,5.288,11.154,10.798,12
					c13.03,2.001,15.436-11.45,11.152-20.869c-3.675-8.082-14.183-16.69-21.251-6.633c-6.02,8.565-1.095,22.535,6.157,28.823
					c3.665,3.177,9.139,2.827,11.779-1.518c4.922-8.101-1.866-18.179-7.192-24.17c-3.661-4.119-12.108-4.898-16.088-0.918
					c-4.068,4.068-5.213,10.306-4.697,15.803c0.966,10.281,4.895,22.502,16.669,23.863c9.83,1.136,11.704-12.042,10.831-18.863
					c-0.827-6.461-4.482-15.283-10.561-18.362c-4.505-2.281-9.546-1.011-12.824,2.719c-3.614,4.114-3.121,9.75-1.483,14.601
					c3.544,10.496,14.96,18.258,23.224,7.282c3.598-4.779,2.027-12.448,0.527-17.636c-1.871-6.468-5.649-11.251-12.39-12.837
					c-3.434-0.808-6.547,0.54-8.47,3.447c-5.794,8.758-5.774,18.832,1.86,26.535c7.041,7.105,19.169,4.173,22.958-4.781
					c3.258-7.699,2.455-18.095-5.085-23.086c-9.156-6.062-19.912-0.583-23.615,8.935c-3.27,8.403-0.675,20.363,7.572,25.158
					c8.189,4.761,18.282,2.764,23.259-5.481c4.938-8.181-0.273-17.511-6.993-22.496c-7.461-5.534-16.838-2.668-21.956,4.215
					c-2.445,3.288-0.544,8.367,2.691,10.261c3.822,2.239,7.827,0.583,10.261-2.691c-0.558,0.75-0.956-0.135,0.534,0.611
					c1.145,0.573,2.227,1.643,2.295,2.952c0.01,0.197-1.023,0.47-1.52,0.256c-2.105-0.907-2.866-4.069-2.553-6.111
					c0.17-1.107,0.597-2.055,1.323-2.898c0.916-1.066,0.039-0.441,0.257-0.34c0.633,0.292,0.487,2.392,0.405,2.888
					c-0.011,0.064-0.238,1.438-0.434,1.68c0.275-0.339,1.203,0.561,0.693-0.109c-2.319-3.048-0.888-5.075,1-7.929
					c-2.823,1.149-5.647,2.298-8.47,3.447c2.259,0.531,0.763-0.734,1.372,0.789c0.747,1.869,1.34,3.946,1.562,5.951
					c0.036,0.356,0.071,0.713,0.107,1.069c-0.719,2.3,1.062,2.083,5.344-0.652c-0.651-0.521-1.003-1.672-1.294-2.417
					c-0.285-0.728-0.69-1.753-0.768-2.535c0.287,2.861-5.501,3.888-6.855,2.054c1.309,1.772,1.99,3.543,2.688,5.534
					c0.19,0.542,0.356,1.092,0.518,1.643c-0.69-2.352,0.022,0.396,0.06,1.153c0.023,0.471-0.032,2.766,0.019,2.417
					c-0.38,2.58,3.279-2.912,5.558-0.908c-3.734-3.284-4.658-12.218-1.841-16.044c-1.494,1.149-2.988,2.298-4.482,3.447
					c-0.931,0.227-3.156-2.049-0.297,1.071c1.28,1.396-0.644-1.094,0.868,1.154c0.627,0.932,1.141,1.932,1.652,2.931
					c0.952,1.861-0.246,1.561,0.807-0.173c3.926-0.506,7.853-1.012,11.779-1.518c-1.549-1.343-2.655-2.875-3.415-4.804
					c-0.38-0.965-0.763-2.114-0.885-3.152c-0.396-3.395,1.04-0.632-2.294-0.121c-1.329,0-2.658,0-3.988,0
					c1.978,0.289-2.113-1.955-0.279-0.081c0.52,0.531,1.1,1.689,1.542,2.468c0.658,1.16,0.742,1.356,0.995,2.024
					c0.776,2.048-1.046-0.79,2.561-1.375c1.329,0,2.658,0,3.988,0c-1.96-0.301-3.093-7.694-2.799-9.663
					c0.603-4.04-0.946-8.045-5.238-9.226C132.677,115.419,127.633,117.591,127.029,121.641L127.029,121.641z"/>
			</g>
		</g>
		<g>
			<g>
				<path fill="#C0DBED" d="M120.255,114.903c-6.383-2.184-12.403,1.881-13.814,8.223c-1.3,5.84-0.085,12.632,1.229,18.37
					c1.437,6.278,5.024,12.648,10.168,16.555c4.947,3.758,14.623,1.927,15.608-5.238c0.733-5.332-1.208-8.999-2.68-13.8
					c-1.835-5.983-6.518-12.009-12.797-13.721c-6.327-1.725-12.118,0.756-15.183,6.557c-3.452,6.536-0.945,14.039,1.666,20.29
					c2.237,5.355,4.243,10.111,9.106,13.58c4.539,3.238,13.616,2.609,17.507-1.282c9.134-9.134-1.74-22.984-9.512-28.508
					c-5.452-3.875-11.435-2.117-15.907,2.152c-5.068,4.837-6.113,11.194-4.173,17.738c3.045,10.272,15.045,27.108,27.593,21.514
					c6.026-2.687,6.99-10.011,6.132-15.766c-0.635-4.259-4.345-8.836-6.836-12.313c-4.952-6.914-14.545-17.01-23.697-10.516
					c-11.263,7.991-5.269,22.542,1.461,31.178c5.431,6.968,21.357,16.793,29.33,8.359c8.939-9.455,2.803-25.464-8.81-29.371
					c-12.312-4.142-26.858,7.343-20.541,20.435c4.097,8.491,17.407,14.413,25.072,7.205c8.797-8.273-1.994-27.288-11.472-30.042
					c-0.799-0.269-1.616-0.468-2.449-0.598c-3.95-0.789-8.157,1.072-9.226,5.238c-2.742,10.683,4.427,18.625,11.429,25.797
					c7.169,7.344,19.068,7.013,26.072-0.269c5.628-5.851,6.238-15.737,3.562-23.042c-2.696-7.359-9.947-16.313-18.744-11.451
					c-7.721,4.268-8.385,13.698-7.326,21.544c1.093,8.103,9.173,18.867,18.734,15.146c8.391-3.265,12.641-10.919,13.006-19.732
					c0.199-4.791-2.411-10.312-3.638-14.869c-1.498-5.563-6.609-8.086-11.862-8.631c-3.542-0.368-6.065,2.621-7.232,5.506
					c-3.046,7.53-2.404,16.373,0.711,23.808c2.816,6.723,8.64,14.297,17.007,12.174c7.377-1.872,11.66-8.264,13.07-15.468
					c0.852-4.351-0.257-8.479-1.024-12.766c-0.747-4.172-2.345-8.366-6.531-10.181c-17.396-7.54-23.707,26.803-12.767,35.802
					c5.717,4.703,13.835,3.051,18.24-2.569c3.707-4.73,5.465-10.52,6.758-16.312c2.103-9.423-12.358-13.427-14.464-3.988
					c-0.681,3.053-1.805,9.516-3.929,10.971c2.686-1.84,4.231,3.627,3.293-0.119c-0.302-1.204-0.126-2.733-0.106-3.947
					c0.06-3.706,1.429-6.592,3.45-9.626c-2.159,1.238-4.317,2.476-6.476,3.715c-2.228-3.294-2.972-3.796-2.232-1.506
					c0.192,1.143,0.392,2.284,0.6,3.424c0.243,1.356,0.773,2.865,0.507,4.226c-0.282,1.439-0.826,2.538-1.574,3.766
					c-0.202,0.331,1.13-0.454,2.186,0.424c-4.666-3.882-4.224-12.97-2.254-17.841c-2.411,1.835-4.821,3.671-7.232,5.506
					c-0.744-0.335-1.488-0.671-2.232-1.006c0.408,1.094,0.767,2.204,1.076,3.329c0.633,2.123,1.039,4.324,1.522,6.484
					c0.196,0.877-0.093,1.919-0.439,2.728c-0.555,1.296-2.411,2.316-0.745,2.12c0.13-0.015-0.717-2.849-0.799-3.704
					c-0.124-1.291-0.23-2.787-0.046-4.074c0.525-3.677,0.55,1.345-4.033-1.008c2.811,1.443,2.176,8.854,0.963,11.017
					c-2.505,4.467-12.858-8.183-12.034-11.393c-3.075,1.746-6.151,3.492-9.226,5.238c2.021,0.404,2.47,0.607,3.55,2.473
					c0.555,0.96,1.109,1.975,1.537,2.999c0.117,0.279,0.718,3.839,1.015,1.865c1.115-2.388,2.494-3.301,4.135-2.738
					c-0.128-0.021-1.816-0.61-1.692-0.549c-0.898-0.436-2.242-1.5-2.195-1.107c0.054-0.355-0.012-0.306-0.197,0.147
					c0.366-0.447,1.059-0.539,1.591-0.568c1.716-0.095,2.858,1.769,3.563,3.016c0.117,0.403,0.179,0.813,0.188,1.232
					c0.182,2.942-2.184-0.625,2.531-0.936c-1.661,0.11-3.989-1.322-5.411-2.064c-3.405-1.776-5.813-5.52-7.571-8.804
					c-0.755-1.412-1.008-2.873-0.977-4.44c0.008-0.422,1.843-1.288-0.453,0.341c0.051-0.036-1.92,0.831-2.452,0.548
					c2.491,1.328,4.413,4.196,5.983,6.47c0.742,1.074,1.394,2.206,2.07,3.322c0.689,1.139,1.422,2.237,2.08,3.395
					c0.732,1.288-1.518,0.507,0.933-0.585c1.262-0.341,2.524-0.683,3.785-1.024c-3.38,0.226-6.375-5.682-7.743-8.141
					c-1.155-2.075-3.742-6.305-0.782-6.85c-1.329,0-2.658,0-3.988,0c2.422,0.602,5.201,4.034,6.158,6.426
					c0.21,0.469,0.343,0.954,0.398,1.458c-0.417-6.085,6.283-2.968,1.898-3.639c-0.53-0.081-1.51-2.537-1.854-3.358
					c-0.889-2.121-1.867-4.217-2.615-6.39c-0.497-1.444-0.584-2.663-0.574-4.171c-0.012,1.908-4.782-0.282-1.561,1.577
					c1.552,0.895,2.037,3.848,2.412,5.359c0.276,1.112,0.964,2.1,1.484,3.108c1.444,2.795-2.427,0.231,2.079-2.535
					c1.262-0.341,2.524-0.683,3.785-1.024c-0.306,0-0.612,0-0.918,0c1.262,0.341,2.524,0.683,3.785,1.024
					c-3.454-1.532-4.735-7.049-5.496-10.374c-0.407-1.779-0.549-3.698-0.698-5.512c-0.063-0.901-0.09-1.803-0.079-2.706
					c-0.026-3.106,0.874-0.404-1.301,0.751c-1.262,0.341-2.524,0.683-3.785,1.024c0.127-0.006,0.254-0.012,0.381-0.018
					C125.445,132.507,129.352,118.015,120.255,114.903L120.255,114.903z"/>
			</g>
		</g>
		<g>
			<g>
				<path fill="#C0DBED" d="M143.285,144.85c-6.424,9.023-11.391,20.85-5.444,31.409c5.844,10.377,19.36,5.747,24.751-2.229
					c6.772-10.019,0.976-20.09-10.434-21.445c-10.022-1.19-17.073,12.167-15.964,20.625c1.679,12.808,15.391,12.077,22.49,4.043
					c6.137-6.946,9.422-17.876,7.401-26.971c-2.133-9.599-11.898-17.572-21.642-12.799c-8.531,4.178-10.843,15.767-7.914,24.148
					c1.209,3.459,3.676,5.111,7.232,5.506c6.625,0.736,9.971-4.686,10.5-10.5c-0.341,1.262-0.683,2.524-1.024,3.785
					c1.283-2.312,3.857-6.573,3.524-9.285c-0.444-3.613-0.988-7.197-1.669-10.773c-1.341-7.041-3.351-12.645-9.077-17.273
					c-4.659-3.765-10.637-6.479-16.489-3.714c-7.197,3.401-6.978,11.895-6.448,18.731c0.52,6.713,1.843,11.516,6.568,16.598
					c3.923,4.219,12.421,6.252,16.521,0.984c8.888-11.418,4.775-23.847-3.606-34.097c-3.7-4.525-10.12-6.38-15.442-3.781
					c-5.984,2.923-8.387,9.035-8.358,15.387c0.054,11.682,10.766,27.415,22.755,16.643c9.243-8.305,5.551-24.336,0.882-33.929
					c-5.174-10.631-19.389-14.695-26.294-3.291c-5.07,8.373-2.696,22.146,3.057,29.458c3.929,4.992,10.917,4.39,15.974,2.023
					c5.649-2.645,7.341-9.989,7.232-15.573c-0.207-10.643-6.308-23.879-18.715-22.797c-12.33,1.076-13.003,16.495-10.384,25.745
					c3.547,12.527,20.457,17.603,28.344,6.194c6.779-9.807,5.231-23.537-3.81-31.413c-10.121-8.817-24.797-5.509-29.076,7.347
					c-3.064,9.205,2.653,23.415,13.996,22.114c12.222-1.402,19.75-16.318,17.564-27.568c-1.827-9.403-13.196-20.103-21.903-10.697
					c-6.439,6.956-3.478,19.718-0.098,27.468c4.365,10.006,15.047,19.941,26.376,14.418c4.637-2.261,7.769-8.268,8.748-13.074
					c1.302-6.39-1.212-13.908-3.857-19.669c-2.408-5.246-7.276-8.62-13.046-8.839c-6.105-0.232-10.086,5.501-11.587,10.667
					c-1.784,6.141,0.989,11.81,2.48,17.66c1.641,6.441,7.969,10.881,14.42,10.743c14.176-0.303,15.561-18.449,14.174-28.685
					c0,1.329,0,2.658,0,3.988c0.965-6.237,0.312-11.776-4.329-16.417c-5.199-5.199-13.673-4.125-17.646,2.068
					c-3.203,4.992-3.335,12.436-3.221,18.188c0.142,7.167,1.498,15.615,5.363,21.765c3.194,5.084,8.601,8.088,14.571,6.478
					c5.289-1.427,9.288-6.882,11.43-11.611c2.485-5.484,2.201-13.038,1.26-18.912c-0.945-5.898-7.014-14.977-14.155-12.785
					c-5.222,1.603-9.446,5.139-10.294,10.774c-0.479,3.184-0.217,6.424-0.448,9.64c-0.324,4.498-0.85,8.264,0.166,12.728
					c2.211,9.717,12.427,27.719,24.653,18.832c8.087-5.879,8.493-18.882,6.334-27.718c-1.497-6.126-5.461-12.17-10.114-16.328
					c-5.092-4.55-12.056-1.932-15.505,3.097c-3.704,5.401-2.583,14.604-1.667,20.706c1.437,9.579,5.905,20.331,15.707,23.917
					c11.827,4.327,18.517-7.057,18.06-17.371c-0.235-5.307-1.237-11.079-3.035-16.078c-1.903-5.291-5.887-8.1-10.87-10.201
					c-3.056-1.289-6.926,0.835-8.47,3.447c-5.058,8.555-4.092,18.729-2.524,28.18c1.344,8.102,3.928,18.001,12.321,21.434
					c7.77,3.179,13.043-4.715,14.529-11.179c2.078-9.041,0.516-18.138-3.373-26.435c-1.003-2.14-4.105-3.978-6.476-3.715
					c-6.445,0.716-9.784,4.055-10.5,10.5c0.341-1.262,0.683-2.524,1.024-3.785c-4.445,9.967-4.004,21.688,0.5,31.571
					c1.047,2.298,4.056,3.765,6.476,3.715c14.559-0.303,14.343-22.505,5.803-29.803c-3.079-2.632-7.581-3.089-10.607,0
					c-5.986,6.111-6.761,15.919-2.173,23.089c1.8,2.812,5.15,4.417,8.47,3.447c9.428-2.757,10.242-13.091,10.031-21.398
					c-0.286-11.249-6.038-21.661-16.531-26.066c-3.137-1.317-6.825,0.882-8.47,3.447c-3.858,6.015-4.216,13.376,0.964,18.913
					c6.011,6.425,15.863,3.31,18.377-4.89c1.999-6.521,0.584-14.559-3.515-20.023c-4.717-6.29-8.885-12.936-17.845-10.447
					c-2.438,0.677-4.658,2.718-5.238,5.238c-1.905,8.269-1.808,16.374,1.532,24.247c3.037,7.157,10.71,10.236,17.446,6.138
					c11.093-6.747,8.99-24.119,2.23-33.177c-3.512-4.705-9.467-4.869-12.952,0c-5.334,7.451-3.444,23.143,7.016,25.587
					c10.197,2.383,15.824-7.02,13.893-16.056c-1.802-8.433-9.755-14.599-17.957-9.789c-7.229,4.24-6.571,14.391-6.476,21.543
					c0.128,9.665,15.128,9.678,15,0c-0.029-2.208-0.12-4.408-0.055-6.617c0.03-1.013,0.088-1.437,0.292-2.419
					c0.481-2.315-1.12,0.317,0.334-0.346c-1.262,0.341-2.524,0.683-3.785,1.024c-1.861,0.232-3.311-2.71-2.095-0.473
					c0.219,0.403,0.377,1.531,0.477,1.997c-0.568-2.66,6.828-0.286,5.71-2.947c-0.785-1.868-0.48-2.427,0.598-3.933
					c-4.317,0-8.635,0-12.952,0c2.48,3.323,4.255,7.954,3.218,12.113c-0.122,0.491-0.48,0.783-0.739,1.046
					c4.469,1.966,5.89,1.888,4.264-0.232c-0.327-0.358-0.506-0.759-0.535-1.205c-1.443-3.983-0.923-8.505,0-12.512
					c-1.746,1.746-3.492,3.492-5.238,5.238c-2.759-1.56-3.207-1.376-1.345,0.553c1.125,1.5,2.25,3,3.375,4.5
					c0.53,0.706,1.761,5.277,1.357,5.479c1.262-0.341,2.524-0.683,3.785-1.024c-0.347,0.003-0.694,0.006-1.042,0.009
					c1.262,0.341,2.524,0.683,3.785,1.024c0.475,0.243-0.384,1.271,1.066-0.989c-2.823,1.149-5.647,2.298-8.47,3.447
					c3.424,1.438,5.465,7.783,5.501,10.88c0.021,1.814,0.079,3.62,0.025,5.435c-0.02,0.681-0.095,1.538-0.214,2.183
					c-0.341,1.852-0.195,0.442,1.188,0.037c2.823,1.149,5.647,2.298,8.47,3.447c-0.942-1.473-1.565-3.49-0.173-4.911
					c-3.536,0-7.071,0-10.607,0c1.847,1.579,1.523,2.792,1.303,5.197c-0.054,0.69-0.033,0.746,0.065,0.166
					c-0.387,2.719-0.402-1.086,3.435-1.166c2.159,1.238,4.317,2.476,6.476,3.715c-1.392-3.054-1.437-6.305-1.474-9.593
					c-0.047-4.228,1.661-7.593,2.118-11.702c-0.341,1.262-0.683,2.524-1.024,3.785c-0.297,0.297-0.594,0.594-0.891,0.891
					c-1.262,0.341-2.524,0.683-3.785,1.024c0.36-0.04,0.72-0.08,1.08-0.12c-2.159-1.238-4.317-2.476-6.476-3.715
					c2.063,4.401,2.592,8.928,1.976,13.715c-0.083,0.649,0.002,0.654-0.333,2.113c-0.5,0.556-0.568,0.881-0.205,0.977
					c-1.41,3.333,7.193,1.133,5.415-1.574c-2.116-3.223-2.691-8.137-3.062-11.89c-0.502-5.075-1.545-10.762,1.162-15.34
					c-2.823,1.149-5.647,2.298-8.47,3.447c0.838,0.354,0.872,1.179,1.066,1.971c0.799,3.262,1.568,6.478,1.826,9.844
					c0.116,1.51,0.158,2.597-0.238,4.035c-0.137,0.497,1.389-0.88,2.393-0.679c-1.876-0.375-3.155-3.021-3.953-4.476
					c-1.785-3.25-2.56-7.742-2.607-11.437c-0.021-1.616-0.069-3.224-0.018-4.841c0.056-1.789-0.149-0.036,0.18-1.741
					c0.075-0.283,0.15-0.566,0.224-0.849c-0.888,2.343-3.249,2.753-7.083,1.229c3.819,3.412,5.753,8.797,5.696,13.806
					c-0.017,1.511-0.174,2.771-0.387,3.869c-0.158,0.818-1.565,3.261-0.221,2.284c0.87-0.427,1.766-0.523,2.69-0.287
					c-0.739-0.629-1.025-1.105-1.344-1.953c-1.267-3.365-2.915-6.224-3.726-9.787c-0.648-2.849,0.823-7.501,0.965-10.503
					c0.036-0.768-0.251-2.476-0.135-3.245c-0.019,0.126-1.216,1.03-0.342,0.762c-1.926-0.252-3.853-0.504-5.779-0.756
					c2.717,1.775,1.285,8.159,1.285,10.985c0,0.873-0.629,1.594-1.064,2.334c-0.241,0.479-0.55,0.905-0.927,1.277
					c-2.071,2.427-0.449-1.391,2.836,1.331c-3.085-2.556-3.355-9.072-3.702-12.742c-0.266-2.812-0.114-5.61,0.17-8.411
					c0.122-0.921,0.262-1.84,0.42-2.756c0.479-2.97-3.133,0.909-0.238,0.238c-1.926-0.252-3.853-0.504-5.779-0.756
					c1.795,1.029,0.785,1.167,0.785,4.024c0,2.939,0.515,5.701,0.108,8.674c-0.128,0.935-0.383,1.922-0.799,2.77
					c-0.654,1.333-0.461-0.434,1.273,0.46c-1.116-0.575-2.161-7.274-2.494-8.597c-0.192-0.765,0.137-1.382,0.348-2.109
					c0.352-1.211-4.857-0.224-3.645,1.639c0.633,0.973,0.733,2.858,1.233,3.949c0.7,1.526,1.073,3.095,1.429,4.727
					c0.337,1.541-0.312,3.792-1.624,4.739c1.169-0.843,1.701,0.19-0.395-1.134c-0.978-0.618-1.821-1.857-2.566-2.716
					c-2.678-3.088-3.463-7.002-4.193-11.067c-0.159-0.884-0.506-3.549-0.238-4.18c-2.921,6.887-7.163-1.742-4.765,1.969
					c0.928,1.435,0.274,0.175,0.598,1.372c0.686,2.534-0.35,5.13-1.564,7.299c-0.516,0.921-1.27,1.877-2.116,2.52
					c-1.631,1.239-0.189,0.181,1.401,0.853c0.61,0.258-0.209-0.559-0.282-1.475c-0.098-1.219,0.149-3.259,1.025-3.572
					c3.428-1.228,6.545,3.891,6.896,6.65c0.241,1.89-0.169,3.525-0.986,5.224c-0.152,0.316-0.574,1.208-0.996,1.493
					c1.356-0.917,1.573,0.168-0.468-1.021c-2.192-1.277-1.283-7.733-1.146-9.739c-0.052,0.768,0.015,1.554-2.532,1.776
					c0.803-0.07-0.338-0.749,0.149-0.09c1.398,1.891,1.866,4.338,2.324,6.591c0.244,1.2,0.472,3.2-0.075,4.351
					c1.088-2.288,3.184,1.877,2.211-1.394c-0.809-2.722-1.562-7.159-0.314-9.902c-0.545,1.198-2.616-0.805-0.786,1.184
					c0.919,0.998,1.507,2.686,1.985,3.964c1.086,2.901,4.058,12.2,0.11,14.163c1.262-0.341,2.524-0.683,3.785-1.024
					c1.55,1.169,1.96,1.225,1.229,0.169c-0.574-0.923-0.735-1.55-1.055-2.545c-0.454-1.411-0.796-3.08-0.531-4.57
					c0.038-0.212-4.039-1.658-1.841,0.666c0.969,1.025,1.633,2.504,2.331,3.722c1.206,2.103,2.224,3.694,2.234,6.144
					c-0.169,0.785-0.414,1.547-0.734,2.285c1.711-3.803,6.529,1.966,3.677-1.101c-2.96-3.184-1.63-11.12-1.201-15.113
					c-0.341,1.262-0.683,2.524-1.024,3.785c-2.16,3.13-3.87,0.125-0.887,2.537c1.061,0.858,2.321,1.917,2.815,3.228
					c1.539,4.084,2.066,9.135,2.596,13.45c0.341-1.262,0.683-2.524,1.024-3.785c-0.639,1.419-1.217,2.859-1.828,4.289
					c-0.583,0.949-1.059,1.95-1.428,3.003c-0.935,3.906,0.475,3.07,4.232-2.506c2.411,1.835,4.821,3.671,7.232,5.506
					c-0.781-2.233-0.803-4.096-0.127-6.369c0.069-0.233,0.188-0.342,0.389-0.405c-1.822,0.568-1.957-1.098-0.599,1.023
					c2.802,4.376-0.052,11.896-3.411,15.697c-0.339,0.469-0.762,0.827-1.269,1.073c3.768,4.459,5.44,5.449,5.017,2.97
					c0.189-1.324,0.664-2.504,1.295-3.661c0.518-0.949,0.423-0.1-0.161-0.355c-3.265-1.424-0.336-3.516-2.83-0.982
					c-1.794,1.823-0.815-0.094,1.049,1.404c-0.272-0.218-0.305-2.728-0.167-3.591c0.709-4.454,3.503-8.434,6.059-12.023
					C161.861,144.522,148.844,137.042,143.285,144.85L143.285,144.85z"/>
			</g>
		</g>
		<g>
			<g>
				<path fill="#FFFFFF" d="M83.958,232.438c-0.191-0.152-1.46-2.963-1.019-1.52c0.36,1.179,0.765,2.215,1.253,3.372
					c0.822,1.948,2.399,3.568,4.25,4.574c4.893,2.658,9.742,1.165,12.984-3.082c1.874-2.455,1.817-6.801,0.778-9.537
					c-1.71-4.504-5.079-7.257-9.943-7.611c-3.372-0.246-6.293,2.484-7.232,5.506c-1.333,4.289-0.081,8.684,2.945,11.906
					c2.712,2.888,7.787,4.476,11.544,2.946c4.659-1.897,7.469-6.06,7.228-11.2c-0.106-2.255-0.74-4.707-2.086-6.548
					c-2.171-2.97-6.51-5.921-10.408-4.283c-3.15,1.324-5.294,3.028-6.252,6.419c-0.627,2.218-0.302,4.836,0.582,6.933
					c2.595,6.163,8.543,9.166,14.799,5.971c4.425-2.26,6.703-8.29,5.615-12.959c-1.377-5.912-8.401-9.068-13.727-6.128
					c-2.323,1.282-3.675,3.873-3.715,6.476c-0.133,8.771,12.416,13.03,16.685,4.746c1.531-2.97,1.348-6.671-1.173-9.089
					c-2.192-2.102-4.295-2.807-7.303-3.197c-4.065-0.526-7.5,3.81-7.5,7.5c0,4.485,3.447,6.975,7.5,7.5
					c0.221,0.029,0.443,0.057,0.664,0.086c-1.262-0.341-2.524-0.683-3.785-1.024c0.768,0.372,0.707,0.286-0.182-0.259
					c-0.391-3.03-0.782-6.059-1.173-9.089c0.182-0.233,0.364-0.466,0.546-0.699c1.103-0.643,2.206-1.286,3.31-1.929
					c-0.137,0.029-0.273,0.057-0.41,0.086c1.329,0,2.658,0,3.988,0c2.841,2.396,3.777,2.983,2.807,1.762
					c0.341,1.262,0.683,2.524,1.024,3.785c0.001-0.06,0.002-0.121,0.003-0.181c-1.238,2.159-2.476,4.317-3.715,6.476
					c0.057-0.032,0.114-0.063,0.171-0.095c-1.262,0.341-2.524,0.683-3.785,1.024c0.701-0.031,0.394-0.083-0.92-0.157
					c-1.112-0.58-1.388-0.684-0.829-0.312c-0.897-0.897-1.794-1.794-2.691-2.691c-0.315-0.683-0.477-1.4-0.486-2.153
					c0.233-1.215,0.247-1.414,0.042-0.596c0.472-1.017,0.508-1.172,0.109-0.465c0.316-0.592,0.769-1.049,1.358-1.374
					c2.631-1.831,5.969-0.014,7.035,2.517c-0.127-0.331-0.229-0.669-0.305-1.015c0.438,1.715-0.026,3.325-1.392,4.831
					c-1.103,0.643-2.206,1.286-3.31,1.929c-1.936-0.78-3.872-1.559-5.808-2.339c-0.343-0.988-0.397-1.101-0.162-0.338
					c-0.471-1.611-0.091-1.168-0.127-0.209c0.048-1.291,0.531-1.888,1.298-2.87c0.925-1.184,2.201-1.26,3.183-1.301
					c0.434,0.064,0.868,0.129,1.302,0.193c-0.733-0.204-0.477-0.069,0.766,0.404c-1.679-0.738,0.806,0.853,0.028,0.025
					c0.24,0.297,0.479,0.594,0.719,0.89c-0.36-0.687-0.261-0.453,0.297,0.699c0.112,1.324,0.16,1.574,0.143,0.749
					c-0.214,1.243-0.208,1.453,0.017,0.629c-2.411,1.835-4.821,3.671-7.232,5.506c-1.3-0.095-2.417-0.425-3.389-1.338
					c-0.756-1.068-0.936-1.273-0.538-0.615c-0.468-1.224-0.585-1.466-0.35-0.726c0.416,1.395-0.102-1.928-0.102-0.516
					c0-1.948,1.099-3.764,4.184-4.992c2.519-1.003,4.199,0.46,5.534,2.218c-0.374-0.704-0.334-0.597,0.118,0.32
					c-0.11-0.351-0.215-0.703-0.315-1.056c-0.521-1.785-1.33-3.893-2.839-5.099c-3.19-2.55-7.477-3.129-10.607,0
					C81.308,224.481,80.759,229.882,83.958,232.438L83.958,232.438z"/>
			</g>
		</g>
		<g>
			<g>
				<path fill="#FFFFFF" d="M61.261,208.635c0,0.015-0.001,0.029-0.003,0.044c0.089-0.665,0.179-1.329,0.268-1.994
					c-0.009,0.061-0.024,0.114-0.044,0.172c0.252-0.597,0.504-1.194,0.756-1.792c-0.02,0.049-0.047,0.094-0.082,0.134
					c0.391-0.506,0.782-1.012,1.173-1.518c-0.021,0.02-0.042,0.039-0.063,0.059c0.506-0.391,1.012-0.782,1.518-1.173
					c-0.027,0.016-0.054,0.032-0.082,0.048c0.597-0.252,1.194-0.504,1.792-0.756c-0.034,0.011-0.068,0.021-0.102,0.032
					c0.665-0.089,1.329-0.179,1.994-0.268c-0.041,0.004-0.083,0.008-0.124,0.012c-0.665,0.089-1.329,0.179-1.994,0.268
					c-1.271,0.356-2.374,0.999-3.31,1.929c-1.4,1.4-2.197,3.322-2.197,5.303c0,1.981,0.797,3.903,2.197,5.303
					c1.293,1.293,3.417,2.373,5.303,2.197c1.615-0.151,2.596-0.239,4.012-1.068c1.429-0.836,1.888-1.491,2.836-2.797
					c0.795-1.095,1.111-2.824,1.153-4.135c0.132-4.088-3.511-7.5-7.5-7.5c-1.981,0-3.903,0.797-5.303,2.197
					C62.02,204.769,61.326,206.625,61.261,208.635L61.261,208.635z"/>
			</g>
		</g>
		<g>
			<g>
				<path fill="#FFFFFF" d="M27.261,214.635c-0.333,0-0.667,0-1,0c-4.088,0-7.5,3.412-7.5,7.5s3.412,7.5,7.5,7.5
					c0.333,0,0.667,0,1,0c4.088,0,7.5-3.412,7.5-7.5S31.349,214.635,27.261,214.635L27.261,214.635z"/>
			</g>
		</g>
		<g>
			<g>
				<path fill="#FFFFFF" d="M37.458,254.938c0.128,0.128,0.256,0.255,0.371,0.395c-0.391-0.506-0.782-1.012-1.173-1.518
					c0.033,0.043,0.061,0.089,0.082,0.139c-0.252-0.597-0.504-1.194-0.756-1.792c0.019,0.048,0.031,0.097,0.037,0.148
					c-0.089-0.665-0.179-1.329-0.268-1.994c0.009,0.106,0.01,0.211,0.01,0.318c0.012,4.088,3.402,7.5,7.5,7.5
					c4.079,0,7.512-3.411,7.5-7.5c-0.007-2.488-0.955-4.556-2.697-6.303c-2.885-2.894-7.72-2.886-10.607,0
					C34.565,247.225,34.572,252.045,37.458,254.938L37.458,254.938z"/>
			</g>
		</g>
		<g>
			<g>
				<path fill="#FFFFFF" d="M50.761,283.135c9.673,0,9.673-15,0-15S41.088,283.135,50.761,283.135L50.761,283.135z"/>
			</g>
		</g>
		<g>
			<g>
				<path fill="#FFFFFF" d="M57.261,312.635c0.333,0,0.667,0,1,0c4.088,0,7.5-3.412,7.5-7.5s-3.412-7.5-7.5-7.5
					c-0.333,0-0.667,0-1,0c-4.088,0-7.5,3.412-7.5,7.5C49.761,309.223,53.172,312.635,57.261,312.635L57.261,312.635z"/>
			</g>
		</g>
		<g>
			<g>
				<path fill="#FFFFFF" d="M18.261,315.635c9.673,0,9.673-15,0-15S8.588,315.635,18.261,315.635L18.261,315.635z"/>
			</g>
		</g>
		<g>
			<g>
				<path fill="#FFFFFF" d="M90.261,204.635c3.224,0,3.224-5,0-5S87.037,204.635,90.261,204.635L90.261,204.635z"/>
			</g>
		</g>
		<g>
			<g>
				<path fill="#FFFFFF" d="M38.261,286.635c0.167,0,0.333,0,0.5,0c1.363,0,2.5-1.137,2.5-2.5s-1.137-2.5-2.5-2.5
					c-0.167,0-0.333,0-0.5,0c-1.363,0-2.5,1.137-2.5,2.5C35.761,285.498,36.898,286.635,38.261,286.635L38.261,286.635z"/>
			</g>
		</g>
		<g>
			<g>
				<path fill="#FFFFFF" d="M38.761,240.635c3.224,0,3.224-5,0-5C35.537,235.635,35.537,240.635,38.761,240.635L38.761,240.635z"/>
			</g>
		</g>
		<g>
			<g>
				<path fill="#FFFFFF" d="M2.761,317.135c3.224,0,3.224-5,0-5S-0.463,317.135,2.761,317.135L2.761,317.135z"/>
			</g>
		</g>
		<g>
			<g>
				<path fill="#FFFFFF" d="M36.261,286.135c3.224,0,3.224-5,0-5C33.037,281.135,33.037,286.135,36.261,286.135L36.261,286.135z"/>
			</g>
		</g>
		<g>
			<g>
				<path fill="#FFFFFF" d="M58.761,104.135c9.673,0,9.673-15,0-15S49.088,104.135,58.761,104.135L58.761,104.135z"/>
			</g>
		</g>
		<g>
			<g>
				<path fill="#FFFFFF" d="M76.029,97.139c-0.212,0.652-0.51,1.233-0.845,1.797c-1.475-1.306-3.117-1.753-4.694-1.576
					c-0.778-0.293-1.563-0.586-2.358-0.885c-5.381-2.022-9.267-5.06-13.834-8.491c-4.648-3.493-8.95-6.774-12.763-11.231
					c-2.143-2.505-4.012-5.207-6.222-7.673c-1.106-1.234-2.192-2.475-3.25-3.75c-0.272-0.264-0.543-0.528-0.815-0.792
					c-0.211-0.262-0.376-0.454-0.511-0.6c-0.526-8.32-12.83-8.708-14.725-1.199c0.147,0.619,0.286,1.256,0.431,1.899
					c0.713-0.181,1.486,0.096,1.636,1.033c0.371,2.315,1.096,5.054,2.182,7.539c1.177,1.575,2.462,3.066,3.765,4.549
					c0.422,0.48,0.466,1.034,0.297,1.509c0.128,0.14,0.258,0.28,0.385,0.421c1.315,1.468,2.566,2.96,3.807,4.45
					c0.309,0.088,0.601,0.273,0.83,0.591c3.032,4.211,7.224,7.042,11.284,10.165c3.283,2.524,6.419,5.211,9.845,7.547
					c0.392,0.267,0.595,0.628,0.655,1.002c1.462,0.903,2.901,1.892,4.428,2.582c3.149,1.423,6.268,2.911,9.417,4.333
					c0.411,0.186,0.637,0.47,0.729,0.786c0.191,0.065,0.382,0.13,0.573,0.197c2.942,3.058,7.885,6.16,12.294,5.62
					c2.684,0.256,5.368-0.683,6.669-3.54c0.393-0.863,0.757-1.732,1.11-2.606c1.183-1.901,2.117-4.011,2.911-6.128
					c0.551-1.134,0.972-2.248,1.234-3.554c0-0.001,0.001-0.002,0.001-0.003c0,0,0,0,0,0c0,0,0-0.001,0-0.001
					C92.384,91.673,79.042,87.894,76.029,97.139z"/>
			</g>
		</g>
		<g>
			<g>
				<path fill="#FFFFFF" d="M21.049,34.402c0-0.111,0-0.222,0-0.333c0-2.691-3.25-3.139-4.659-1.262
					c-0.167,0.222-0.333,0.444-0.5,0.667c1.523,0.642,3.046,1.284,4.569,1.926c0.489-2.033,1.272-3.945,1.667-6
					c0.408-2.124,0.016-4.35,0.333-6.5c0.629-4.267,0.771-9.114,2.167-13.167c1.053-3.057-3.778-4.359-4.821-1.329
					c-1.452,4.215-1.296,8.812-2.167,13.167c-0.369,1.844-0.383,3.667-0.371,5.54c0.016,2.463-1.065,4.615-1.629,6.96
					c-0.7,2.913,2.923,4.121,4.569,1.926c0.167-0.222,0.333-0.444,0.5-0.667c-1.553-0.421-3.106-0.841-4.659-1.262
					c0,0.111,0,0.222,0,0.333C16.049,37.627,21.049,37.627,21.049,34.402L21.049,34.402z"/>
			</g>
		</g>
		<g>
			<g>
				<path fill="#FFFFFF" d="M64.972,59.734c1.183,3.094,2.788,5.713,4.808,8.338c0.999,1.298,3.008,2.838,3.103,4.497
					c0.076,1.335,0.263,2.064,0.841,3.262c1.795,3.718,4.133,7.169,6.169,10.755c1.812,3.192,2.611,6.251,4.972,9.001
					c2.104,2.45,5.624-1.103,3.536-3.536c-1.619-1.886-2.276-4.202-3.381-6.471c-1.792-3.678-4.146-7.089-6.137-10.66
					c-1.356-2.431-1.07-4.609-2.839-6.913c-2.368-3.084-4.844-5.925-6.25-9.603C68.654,55.424,63.818,56.717,64.972,59.734
					L64.972,59.734z"/>
			</g>
		</g>
		<g>
			<g>
				<path fill="#FFFFFF" d="M58.89,54.747c1.157,1.514,2.412,2.848,4.062,3.838c1.169,0.702,2.738,0.268,3.42-0.897
					c0.695-1.186,0.27-2.72-0.897-3.42c-0.238-0.143-0.468-0.293-0.695-0.452c0.229,0.185,0.235,0.189,0.015,0.012
					c-0.161-0.13-0.314-0.27-0.466-0.41c-0.255-0.233-0.492-0.485-0.725-0.74c-0.092-0.103-0.183-0.207-0.272-0.313
					c-0.054-0.062-0.481-0.606-0.125-0.142c-0.826-1.08-2.135-1.65-3.42-0.897C58.721,51.952,58.061,53.662,58.89,54.747
					L58.89,54.747z"/>
			</g>
		</g>
		<g>
			<g>
				<path fill="#FFFFFF" d="M82.799,92.319c0.048,0.573,0.132,1.01,0.425,1.512c0.444,0.761,1.278,1.238,2.159,1.238
					c1.162,0,2.05-0.773,2.411-1.835c0.256-0.753,0.223-1.552,0.03-2.314c-0.102-0.404-0.3-0.766-0.363-1.182
					c-0.206-1.349-1.88-2.075-3.075-1.746c-1.428,0.393-1.951,1.729-1.746,3.075c0.049,0.323,0.164,0.619,0.278,0.924
					c0.048,0.128,0.085,0.257,0.118,0.389c-0.041-0.442-0.058-0.528-0.052-0.256c0.074-0.421,0.07-0.494-0.011-0.219
					c1.523-0.199,3.046-0.398,4.569-0.597c-0.024-0.042-0.049-0.083-0.073-0.125c0.114,0.421,0.228,0.841,0.341,1.262
					c-0.003-0.042-0.007-0.083-0.01-0.125c-0.113-1.358-1.052-2.5-2.5-2.5C84.022,89.819,82.686,90.959,82.799,92.319L82.799,92.319
					z"/>
			</g>
		</g>
	</g>
	<g>
		<g>
			<path fill="#FFFFFF" d="M62.224,57.081c0.346,0.575,0.782,1.092,1.206,1.611c0.169,0.212,0.149,0.182-0.061-0.088
				c0.16,0.221,0.326,0.438,0.497,0.65c-0.944-1.097,0.133,0.175,0.18,0.235c1.173,1.492,3.577,1.639,4.58-0.157
				c0.664-1.19,0.295-2.722-0.897-3.42c-1.158-0.678-2.757-0.291-3.42,0.897c0.105-0.137,0.211-0.274,0.316-0.411
				c0.368-0.214,0.735-0.429,1.103-0.643c0.188-0.028,0.376-0.056,0.564-0.084c0.421,0.114,0.841,0.228,1.262,0.341
				c-0.204-0.092-0.095,0,0.327,0.278c-0.069-0.056-0.128-0.129-0.186-0.196c-0.266-0.305,0.402,0.532,0.183,0.24
				c-0.148-0.198-0.305-0.417-0.457-0.593c0.823,0.957-0.307-0.4-0.234-0.308c-0.11-0.138-0.22-0.276-0.332-0.412
				c-0.083-0.101-0.442-0.583-0.036-0.038c-0.101-0.136-0.19-0.279-0.277-0.424c-0.701-1.166-2.234-1.592-3.42-0.897
				C61.957,54.342,61.521,55.912,62.224,57.081L62.224,57.081z"/>
		</g>
	</g>
	<g>
		<g>
			<path fill="#FFFFFF" d="M77.71,74.321c-0.549-1.346,0.379-0.229-0.643,0.682c-0.811,0.214-1.622,0.429-2.432,0.643
				c-0.381-0.052,0.469,0.912,0.647,1.107c0.722,0.794,1.075,1.713,1.692,2.577c1.213,1.698,1.667,3.744,2.165,5.736
				c0.781,3.127,5.603,1.8,4.821-1.329c-0.521-2.085-1.11-4.089-2.088-6.011c-0.859-1.687-2.062-3.119-3.099-4.679
				c-0.993-1.494-2.856-3.072-4.735-1.971c-1.636,0.958-1.811,2.952-1.149,4.573C74.09,78.594,78.929,77.307,77.71,74.321
				L77.71,74.321z"/>
		</g>
	</g>
	<g>
		<g>
			<path fill="#FFFFFF" d="M72.216,111.736c0.149,1.806,1.364,3.014,2.566,4.268c0.519,0.541,0.95,1.155,1.517,1.649
				c0.27,0.236,0.565,0.403,0.84,0.618c0.343,0.268,0.575,0.82,0.893,1.149c2.244,2.322,5.776-1.217,3.536-3.536
				c-0.421-0.436-0.667-0.972-1.16-1.358c-0.515-0.403-0.917-0.708-1.34-1.201c-0.715-0.833-1.688-1.601-2.171-2.594
				c0.114,0.421,0.228,0.841,0.341,1.262c-0.007-0.086-0.014-0.172-0.021-0.258c-0.112-1.358-1.052-2.5-2.5-2.5
				C73.438,109.236,72.103,110.376,72.216,111.736L72.216,111.736z"/>
		</g>
	</g>
	<g>
		<g>
			<path fill="#FFFFFF" d="M18.871,58.744c-2.947,2.26-3.377,6.817-1.089,9.676c0.853,1.066,2.652,0.883,3.536,0
				c1.043-1.043,0.85-2.472,0-3.536c0.181,0.226-0.116-0.473-0.024-0.23c-0.093-0.245-0.019-0.278,0.039-0.539
				c0.064-0.292,0.132-0.583,0.207-0.873c0.09-0.348,0.45-0.638-0.145-0.181c1.079-0.827,1.651-2.134,0.897-3.42
				C21.667,58.575,19.955,57.912,18.871,58.744L18.871,58.744z"/>
		</g>
	</g>
	<g>
		<g>
			<path fill="#FFFFFF" d="M20.71,35.567c0.255-1.4,0.441-2.696,0.405-4.123c-0.016-0.617-0.141-1.261-0.049-1.877
				c0.102-0.685,0.498-1.314,0.645-2c0.674-3.144-4.146-4.481-4.821-1.329c-0.311,1.45-0.827,2.636-0.839,4.165
				c-0.01,1.335,0.08,2.511-0.161,3.835C15.315,37.389,20.134,38.736,20.71,35.567L20.71,35.567z"/>
		</g>
	</g>
	<g>
		<g>
			<path fill="#FFFFFF" d="M24.466,10.986c0.002-0.282-0.012-0.281-0.044,0.005c0.033-0.159,0.075-0.316,0.125-0.471
				c0.093-0.319,0.222-0.629,0.341-0.938c0.338-0.883,0.591-1.728,0.662-2.679c0.102-1.361-1.215-2.5-2.5-2.5
				c-1.44,0-2.398,1.142-2.5,2.5c0.027-0.364-0.197,0.544-0.239,0.663c-0.108,0.307-0.216,0.612-0.332,0.915
				c-0.306,0.8-0.549,1.638-0.513,2.505c0.058,1.361,1.094,2.5,2.5,2.5C23.285,13.486,24.523,12.348,24.466,10.986L24.466,10.986z"
				/>
		</g>
	</g>
	<g>
		<g>
			<path fill="#FFFFFF" d="M83.458,120.258c4.058-6.005,5.511-12.966,8.583-19.427c0.819-1.723-0.162-3.685-2.159-3.762
				c0.024,0.005,0.048,0.01,0.072,0.015c0.498,1.224,0.996,2.448,1.494,3.672c0.031-0.059,0.062-0.117,0.093-0.176
				c1.5-2.85-2.815-5.378-4.317-2.524c-0.031,0.059-0.062,0.117-0.093,0.176c-0.696,1.322-0.167,3.367,1.494,3.672
				c0.417,0.077,0.833,0.147,1.257,0.163c-0.72-1.254-1.439-2.508-2.159-3.762c-3.064,6.443-4.543,13.45-8.583,19.427
				C77.329,120.414,81.663,122.913,83.458,120.258L83.458,120.258z"/>
		</g>
	</g>
	<g>
		<g>
			<path fill="#FFFFFF" d="M26.311,165.744c-0.439-0.253,0.423,0.407,0.068,0.047c-0.353-0.359,0.338,0.479,0.078,0.1
				c-0.767-1.123-2.182-1.622-3.42-0.897c-1.113,0.652-1.667,2.294-0.897,3.42c0.456,0.667,0.937,1.238,1.647,1.647
				c1.181,0.681,2.729,0.283,3.42-0.897C27.893,167.994,27.49,166.423,26.311,165.744L26.311,165.744z"/>
		</g>
	</g>
	<g>
		<g>
			<path fill="#FFFFFF" d="M21.39,160.724c-0.073,0.132-0.146,0.264-0.219,0.396c0.72-0.413,1.439-0.825,2.159-1.238
				c-0.177,0.007-0.354,0.014-0.531,0.021c0.421,1.553,0.841,3.106,1.262,4.659c0.056-0.028,0.111-0.056,0.167-0.083
				c-1.224-0.498-2.448-0.996-3.672-1.494c2.599,13.643,13.339,25.509,26.163,30.496c3.009,1.17,4.3-3.666,1.329-4.821
				c-11.161-4.34-20.43-15.239-22.671-27.004c-0.32-1.681-2.335-2.163-3.672-1.494c-0.056,0.028-0.111,0.056-0.167,0.083
				c-2.23,1.115-1.169,4.754,1.262,4.659c1.371-0.054,2.228-0.423,2.909-1.655C27.268,160.423,22.95,157.902,21.39,160.724
				L21.39,160.724z"/>
		</g>
	</g>
	<g>
		<g>
			<path fill="#FFFFFF" d="M44.307,189.747c0.464,0.83,1.136,1.407,1.854,1.999c0.776,0.639,1.455,1.454,2.376,1.898
				c0.823,0.397,1.705,0.479,2.524,0c0.688-0.403,1.344-1.315,1.238-2.159c-0.102-0.814-0.269-1.31-0.816-1.934
				c-0.898-1.026-2.62-0.915-3.536,0c-1.011,1.011-0.897,2.511,0,3.536c0.024,0.028,0.049,0.056,0.073,0.083
				c-0.244-0.589-0.488-1.179-0.732-1.768c0.003,0.028,0.007,0.056,0.01,0.083c1.254-0.72,2.508-1.439,3.762-2.159
				c-0.115-0.049-0.223-0.108-0.326-0.18c0.467,0.289-0.107-0.096-0.176-0.156c-0.248-0.213-0.475-0.439-0.718-0.657
				c-0.239-0.215-0.498-0.41-0.745-0.616c-0.149-0.124-0.287-0.258-0.424-0.395c-0.431-0.432,0.245,0.424-0.048-0.099
				c-0.664-1.188-2.262-1.576-3.42-0.897C44.013,187.025,43.642,188.558,44.307,189.747L44.307,189.747z"/>
		</g>
	</g>
	<g>
		<g>
			<path fill="#FFFFFF" d="M25.466,166.319c-0.028,0.002-0.057,0.005-0.085,0.007c0.333-0.001,0.644,0.08,0.934,0.242
				c0.368,0.307,0.46,0.374,0.275,0.201c-0.163-0.183-0.105-0.104,0.173,0.239c-0.211-0.287-0.362-0.621-0.507-0.945
				c0.347,0.78-0.06-0.191-0.134-0.397c-0.081-0.227-0.155-0.456-0.247-0.679c-0.517-1.26-1.641-2.141-3.075-1.746
				c-1.194,0.329-2.264,1.812-1.746,3.075c0.362,0.883,0.641,1.788,1.061,2.65c0.605,1.24,1.857,2.48,3.349,2.353
				c1.357-0.116,2.5-1.05,2.5-2.5C27.966,167.544,26.826,166.203,25.466,166.319L25.466,166.319z"/>
		</g>
	</g>
	<g>
		<g>
			<path fill="#FFFFFF" d="M26.043,165.404c-0.138-0.526-0.351-1.024-0.585-1.514c-0.588-1.229-2.319-1.542-3.42-0.897
				c-1.247,0.73-1.485,2.191-0.897,3.42c0.122,0.26,0.104,0.213-0.054-0.139c0.057,0.149,0.095,0.305,0.135,0.458
				c0.345,1.318,1.774,2.104,3.075,1.746C25.622,168.115,26.388,166.722,26.043,165.404L26.043,165.404z"/>
		</g>
	</g>
	<g>
		<g>
			<path fill="#FFFFFF" d="M28.644,166.41c-1.253-0.965-1.142-2.419-1.447-3.783c-0.256-1.146-0.874-1.958-1.983-2.386
				c-0.256-0.099-0.771-0.146-0.917-0.167c-1.34-0.186-0.062-0.004,0.319,0.542c0.114,0.421,0.228,0.841,0.341,1.262
				c0.001,0.035,0.001,0.07,0.002,0.105c-0.214,0.368-0.429,0.735-0.643,1.103c0.217-0.222,0.686-0.223,0.98-0.274
				c3.173-0.545,1.824-5.363-1.329-4.821c-1.879,0.323-4.293,1.623-4.01,3.887c0.149,1.196,0.664,1.84,1.619,2.543
				c0.777,0.572,1.829,0.457,2.308,0.642c-0.498-0.383-0.996-0.766-1.494-1.149c-0.288-0.504,0.062,1.065,0.081,1.153
				c0.181,0.805,0.431,1.589,0.793,2.333c0.676,1.392,1.643,2.394,2.856,3.327c1.083,0.834,2.797,0.167,3.42-0.897
				C30.296,168.542,29.722,167.24,28.644,166.41L28.644,166.41z"/>
		</g>
	</g>
	<g>
		<g>
			<path fill="#FFFFFF" d="M25.15,161.218c-1.303,1.831-1.31,2.557-0.02,2.178c0.394-0.165,0.788-0.332,1.181-0.502
				c1.339-0.574,2.724-0.702,4.153-0.915c2.997-0.445,5.925-0.632,8.917-1.167c-0.443-1.607-0.886-3.214-1.329-4.821
				c-1.663,0.487-3.462,0.165-5.083,0.75c-3.009,1.085-1.711,5.918,1.329,4.821c1.559-0.563,3.444-0.27,5.083-0.75
				c3.14-0.92,1.8-5.381-1.329-4.821c-4.461,0.797-9.469,0.53-13.681,2.335c-1.04,0.446-2.692,0.463-3.58,1.979
				c-0.889,1.518-0.509,3.372,0.825,4.448C24.1,166.757,27.661,163.242,25.15,161.218L25.15,161.218z"/>
		</g>
	</g>
	<g>
		<g>
			<path fill="#FFFFFF" d="M41.88,155.575c-1.714-0.406-3.618-0.014-5.329,0.287c-0.834,0.147-1.684,0.476-2.5,0.713
				c-0.791,0.229-1.482,0.218-2.264,0.585c-2.917,1.369-0.377,5.679,2.524,4.317c-0.603,0.283,0.771-0.039,1.069-0.081
				c0.662-0.094,1.37-0.372,2-0.589c0.81-0.278,2.333-0.61,3.171-0.411C43.687,161.14,45.017,156.318,41.88,155.575L41.88,155.575z"
				/>
		</g>
	</g>
	<g>
		<g>
			<path fill="#FFFFFF" d="M43.817,160.837c1.3-1.403,3.093-0.771,4.899-0.851c2.198-0.097,4.327-0.365,6.502,0.161
				c3.133,0.757,4.462-4.064,1.329-4.821c-2.862-0.692-5.639-0.436-8.54-0.308c-3.253,0.143-5.343-0.286-7.726,2.284
				C38.093,159.662,41.621,163.206,43.817,160.837L43.817,160.837z"/>
		</g>
	</g>
	<g>
		<g>
			<path fill="#FFFFFF" d="M63.549,159.652c3.68-0.455,6.613-0.493,9.227,2.498c1.041,1.192,6.307,8.448,4.345,9.843
				c-2.604,1.851-0.111,6.19,2.524,4.317c5.238-3.723,1.823-10.119-0.948-14.478c-3.728-5.863-8.249-8.034-15.147-7.181
				C60.392,155.043,60.354,160.047,63.549,159.652L63.549,159.652z"/>
		</g>
	</g>
	<g>
		<g>
			<path fill="#C0DBED" d="M135.537,201.228c5.454,2.361,10.467-2.988,15.76-3.915c-1.025-1.025-2.05-2.05-3.075-3.075
				c0.269-0.914-1.308-0.114-1.934,0.173c-1.394,0.638-2.808,0.809-4.322,0.992c-3.159,0.381-3.197,5.386,0,5
				c2.191-0.264,4.227-0.504,6.259-1.406c0.976-0.433,2.05-0.259,3.003-0.818c1.022-0.599,1.496-1.525,1.816-2.611
				c0.58-1.971-1.28-3.389-3.075-3.075c-1.975,0.346-3.808,1.314-5.698,1.969c-1.401,0.485-4.781,3.068-6.209,2.45
				C135.134,195.643,132.585,199.95,135.537,201.228L135.537,201.228z"/>
		</g>
	</g>
	<g>
		<g>
			<path fill="#FFFFFF" d="M167.224,227.831c0.028,0.056,0.056,0.111,0.083,0.167c1.309-1.01,2.618-2.02,3.926-3.03
				c-1.261-1.302-1.67-5.017-1.851-6.732c-0.292-2.759-0.48-5.542-0.652-8.313c-0.309-4.988-1.877-11.224-0.521-16.106
				c0.865-3.112-3.96-4.432-4.821-1.329c-1.75,6.3,0.063,14.249,0.571,20.69c0.375,4.744,0.211,11.684,3.738,15.326
				c2.057,2.124,5.159-0.564,3.926-3.03c-0.028-0.056-0.056-0.111-0.083-0.167C170.099,222.423,165.786,224.956,167.224,227.831
				L167.224,227.831z"/>
		</g>
	</g>
	<g>
		<g>
			<path fill="#FFFFFF" d="M198.891,212.997c0.762,1.229,1.595,2.724,2.814,3.564c2.037,1.403,2.511,3.492,3.56,5.529
				c1.062,2.061,2.89,3.612,4.145,5.577c1.222,1.913,1.716,3.9,3.289,5.586c2.203,2.363,5.731-1.181,3.536-3.536
				c-1.375-1.475-2.147-4.01-3.239-5.719c-1.276-1.997-2.883-3.407-3.816-5.628c-1.371-3.266-4.183-5.013-5.971-7.897
				C201.512,207.741,197.186,210.249,198.891,212.997L198.891,212.997z"/>
		</g>
	</g>
	<g>
		<g>
			<path fill="#FFFFFF" d="M196.704,234.061c3.425,1.472,6.504,1.242,10.145,0.784c2.904-0.365,5.82-0.549,8.698-0.949
				c3.182-0.442,1.823-5.259-1.329-4.821c-2.021,0.281-4.203,0.444-6.252,0.661c-2.815,0.297-6.018,1.177-8.738,0.008
				C196.299,228.485,193.749,232.791,196.704,234.061L196.704,234.061z"/>
		</g>
	</g>
	<g>
		<g>
			<path fill="#FFFFFF" d="M166.799,189.236c-0.056,0-0.111,0-0.167,0c0.804,1.055,1.607,2.11,2.411,3.165
				c0.302-0.817,2.04-1.766,2.67-2.367c1.198-1.141,2.549-2.097,3.853-3.113c1.433-1.116,0.645-3.881-1.103-4.178
				c-0.82-0.14-1.509-0.117-2.331-0.089c0.589,1.423,1.179,2.845,1.768,4.268c0.75-0.594,3.238-1.31,4.054-0.692
				c2.573,1.947,5.06-2.398,2.524-4.317c-2.797-2.117-7.699-0.437-10.113,1.474c-1.745,1.382-0.265,4.337,1.768,4.268
				c0.338,0.01,0.672-0.02,1.002-0.089c-0.368-1.393-0.735-2.786-1.103-4.178c-2.684,2.09-6.587,4.382-7.81,7.687
				c-0.573,1.548,0.891,3.165,2.411,3.165c0.056,0,0.111,0,0.167,0C170.024,194.236,170.024,189.236,166.799,189.236
				L166.799,189.236z"/>
		</g>
	</g>
	<g>
		<g>
			<path fill="#C0DBED" d="M170.041,166.974c-0.516-1.088-1.334-2.038-2.224-2.839c-1.012-0.911-2.535-1.001-3.536,0
				c-0.926,0.926-1.013,2.623,0,3.536c0.331,0.298,0.644,0.609,0.936,0.946c0.17,0.208,0.142,0.169-0.083-0.117
				c0.065,0.089,0.128,0.179,0.188,0.272c0.155,0.23,0.283,0.477,0.402,0.727c0.584,1.231,2.322,1.54,3.42,0.897
				C170.394,169.662,170.625,168.205,170.041,166.974L170.041,166.974z"/>
		</g>
	</g>
	<g>
		<g>
			<path fill="#FFFFFF" d="M260.615,135.67c1.258,1.474,2.999,2.654,5.034,2.319c2.672-0.441,3.753-2.527,5.143-4.658
				c1.498-2.297,2.898-4.705,4.358-7.034c1.846-2.945,4.166-4.977,6.418-7.543c-1.423-0.589-2.845-1.179-4.268-1.768
				c0.005-0.206-1.255,1.136-1.268,1.149c-2.26,2.301,1.273,5.839,3.536,3.536c1.368-1.392,2.681-2.645,2.732-4.684
				c0.052-2.1-2.817-3.421-4.268-1.768c-2.544,2.9-5.124,5.237-7.2,8.555c-1.052,1.682-2.178,3.313-3.218,5.003
				c-0.632,1.028-1.991,5.083-3.464,3.358C262.054,129.678,258.534,133.232,260.615,135.67L260.615,135.67z"/>
		</g>
	</g>
	<g>
		<g>
			<path fill="#FFFFFF" d="M284.049,112.902c1.339,0.027,2.476-0.627,3.416-1.529c0.138-0.132,0.261-0.281,0.385-0.427
				c0.172-0.213,0.34-0.428,0.504-0.647c-0.191,0.268-0.188,0.3,0.008,0.094c0.229-0.211,0.511-0.561,0.654-0.798
				c-0.335,0.378-0.271,0.282,0.193-0.29c0.132-0.218,0.086-0.158-0.139,0.182c-0.368,0.214-0.735,0.429-1.103,0.643
				c0.055-0.023,0.109-0.045,0.164-0.068c1.258-0.522,2.142-1.637,1.746-3.075c-0.328-1.191-1.814-2.269-3.075-1.746
				c-0.832,0.345-1.338,0.683-1.842,1.425c0.695-1.024-0.569,0.759,0.004,0.054c-0.123,0.151-0.291,0.28-0.432,0.414
				c-0.13,0.169-0.261,0.337-0.391,0.506c0.215-0.275,0.233-0.304,0.053-0.086c-0.126,0.149-0.265,0.285-0.406,0.42
				c-0.457,0.438,0.411-0.246-0.12,0.065c0.116-0.068,0.87-0.128,0.382-0.138c-1.363-0.028-2.5,1.158-2.5,2.5
				C281.549,111.786,282.687,112.875,284.049,112.902L284.049,112.902z"/>
		</g>
	</g>
	<g>
		<g>
			<path fill="#FFFFFF" d="M206.133,131.152c-0.038-0.618-0.269,0.353,0.022-0.155c0.089-0.141,0.183-0.278,0.284-0.411
				c-0.399,0.55,0.84-1.1,0.459-0.589c0.231-0.31,0.403-0.614,0.564-0.963c0.065-0.138,0.137-0.273,0.215-0.405
				c0.042-0.065,0.083-0.129,0.125-0.194c-0.13,0.271-0.354,0.453-0.671,0.545c3.124-0.792,1.798-5.614-1.329-4.821
				c-1.603,0.406-2.181,1.649-2.944,2.928c-0.378,0.632,0.286-0.335-0.192,0.272c-0.287,0.364-0.573,0.729-0.828,1.116
				c-0.507,0.77-0.76,1.764-0.704,2.679c0.083,1.36,1.074,2.5,2.5,2.5C204.932,133.652,206.216,132.514,206.133,131.152
				L206.133,131.152z"/>
		</g>
	</g>
	<g>
		<g>
			<path fill="#C0DBED" d="M190.555,123.067c1.513,4.045,0.835,7.647,1.207,11.832c0.326,3.668,1.741,9.636,0.293,13.088
				c-1.247,2.972,3.594,4.256,4.821,1.329c1.544-3.683,0.291-9.21,0.006-13.081c-0.374-5.082,0.312-9.637-1.506-14.498
				C194.258,118.746,189.424,120.041,190.555,123.067L190.555,123.067z"/>
		</g>
	</g>
	<g>
		<g>
			<path fill="#C0DBED" d="M190.055,121.4c3.593,9.162,3.168,18.959,1.083,28.421c-0.692,3.142,4.128,4.478,4.821,1.329
				c2.275-10.325,2.843-21.067-1.083-31.079C193.713,117.105,188.877,118.395,190.055,121.4L190.055,121.4z"/>
		</g>
	</g>
	<path fill="#C0DBED" d="M172.466,123.236c2.467,2.123,2.913,6.065,5.507,8.145c0.011-0.076,0.009-0.152-0.007-0.228"/>
	<g>
		<g>
			<path fill="#C0DBED" d="M169.888,121.654c-0.32,0.958-0.051,1.841,0.342,2.718c-0.386-0.86,0.451,1.052,0.41,0.958
				c0.336,0.784,0.686,1.561,1.048,2.333c0.904,1.928,1.877,3.759,3.682,4.98c2.679,1.812,5.178-2.522,2.524-4.317
				c-0.788-0.533-1.196-1.782-1.603-2.603c-0.586-1.183-1.456-2.748-1.651-3.86c0,0.443,0,0.886,0,1.329
				c0.023-0.07,0.047-0.14,0.07-0.209C175.735,119.917,170.906,118.613,169.888,121.654L169.888,121.654z"/>
		</g>
	</g>
	<g>
		<g>
			<path fill="#C0DBED" d="M180.125,134.724c-0.962-1.256-1.253-3.126-1.664-4.626c-0.632-2.31-1.073-4.673-1.501-7.027
				c-0.577-3.169-5.395-1.822-4.821,1.329c0.43,2.359,0.905,4.703,1.501,7.027c0.486,1.895,0.956,4.238,2.168,5.82
				C177.739,139.77,182.086,137.285,180.125,134.724L180.125,134.724z"/>
		</g>
	</g>
	<g>
		<g>
			<path fill="#C0DBED" d="M82.966,128.986c-0.007-0.302-0.016-0.341-0.027-0.117c0.042-0.167,0.087-0.332,0.134-0.498
				c0.031-0.112,0.301-0.948,0.135-0.624c0.149-0.233,0.161-0.264,0.035-0.094c0.111-0.131,0.219-0.264,0.324-0.4
				c0.226-0.286,0.589-0.47,0.833-0.75c0.895-1.026,1.012-2.523,0-3.536c-0.914-0.914-2.639-1.028-3.536,0
				c-0.674,0.773-1.433,1.339-1.974,2.256c-0.58,0.983-0.996,2.63-0.925,3.762c0.086,1.359,1.072,2.5,2.5,2.5
				C81.763,131.486,83.052,130.347,82.966,128.986L82.966,128.986z"/>
		</g>
	</g>
	<g>
		<g>
			<path fill="#FFFFFF" d="M79.049,121.069c0.001,0.009,0.001,0.017,0.002,0.026c0.087,1.121,0.7,2.098,1.835,2.411
				c1.111,0.306,2.22-0.198,2.823-1.149c0.173-0.272,0.239-0.498,0.294-0.779c0.074-0.381,0.288-0.495-0.129,0.17
				c0.725-1.155,0.25-2.748-0.897-3.42c-1.203-0.705-2.698-0.255-3.42,0.897c-0.158,0.252-0.268,0.558-0.339,0.851
				c-0.013,0.057-0.025,0.115-0.036,0.173c-0.066,0.327-0.118,0.102,0.21-0.415c1.553,0.421,3.106,0.841,4.659,1.262
				c-0.001-0.009-0.001-0.017-0.002-0.026c-0.105-1.358-1.058-2.5-2.5-2.5C80.266,118.569,78.944,119.709,79.049,121.069
				L79.049,121.069z"/>
		</g>
	</g>
	<g>
		<g>
			<path fill="#C0DBED" d="M81.704,127.327c-0.278,0.194-0.556,0.389-0.833,0.583c1.254,0.72,2.508,1.439,3.762,2.159
				c0.092-0.897,0.229-1.786,0.411-2.669c0.418-2.265-2.371-4.457-4.178-2.432c-2.224,2.491-4.99,6.042-5.726,9.353
				c-0.584,2.628,3.415,4.648,4.569,1.926c2.565-6.05,5.238-12.907,11.52-16.02c2.889-1.432,0.355-5.744-2.524-4.317
				c-7.118,3.527-10.395,10.931-13.314,17.814c1.523,0.642,3.046,1.284,4.569,1.926c0.546-2.456,2.834-5.348,4.44-7.147
				c-1.393-0.811-2.786-1.622-4.178-2.432c-0.251,1.361-0.543,2.612-0.589,3.998c-0.06,1.798,2.207,3.247,3.762,2.159
				c0.278-0.194,0.556-0.389,0.833-0.583C86.848,129.81,84.353,125.473,81.704,127.327L81.704,127.327z"/>
		</g>
	</g>
	<g>
		<g>
			<path fill="#C0DBED" d="M127.633,80.694c-0.042,0-0.083,0-0.125,0c0.804,1.055,1.607,2.11,2.411,3.165
				c0.394-1.246,10.968-0.229,12.527-0.227c5.95,0.007,11.865,2.683,17.176,5.159c2.903,1.353,5.444-2.956,2.524-4.317
				c-6.875-3.204-13.652-5.834-21.293-5.843c-5.167-0.006-13.744-2.467-15.754,3.9c-0.493,1.561,0.831,3.165,2.411,3.165
				c0.042,0,0.083,0,0.125,0C130.857,85.694,130.857,80.694,127.633,80.694L127.633,80.694z"/>
		</g>
	</g>
	<g>
		<g>
			<path fill="#C0DBED" d="M157.468,82.783c1.022-0.34,1.792,0.422,0.995-0.091c-0.287-0.184-0.498-0.27-0.853-0.409
				c-0.29-0.114-0.564-0.179-0.87-0.237c0.058,0.011,0.43,0.348-0.075-0.071c-1.316-1.093-2.794-1.576-4.418-0.815
				c-1.234,0.578-1.538,2.326-0.897,3.42c0.734,1.254,2.187,1.475,3.42,0.897c0.051-0.024,0.101-0.047,0.152-0.071
				c-0.421,0.114-0.841,0.228-1.262,0.341c-0.168-0.016-0.327-0.064-0.476-0.145c0.634,0.331-0.181-0.198,0.355,0.248
				c0.67,0.557,1.308,0.908,2.172,1.074c0.795,0.153-0.197-0.189,0.229,0.085c0.168,0.108,0.335,0.208,0.512,0.3
				c0.716,0.37,1.562,0.556,2.346,0.295c1.292-0.43,2.122-1.709,1.746-3.075C160.196,83.268,158.761,82.353,157.468,82.783
				L157.468,82.783z"/>
		</g>
	</g>
</g>
<g id="Layer_3">
	<g id="lines">
		<g>
			<g>
				<path d="M75.41,155.669c-1.949-5.171-0.973-11.544-0.315-16.867c0.349-2.825,1.013-5.526,1.982-8.2
					c0.989-2.73,2.385-4.785,3.95-7.214c0.35-0.544-0.516-1.045-0.863-0.505c-1.407,2.184-2.993,4.183-3.845,6.666
					c-0.932,2.715-1.76,5.503-2.114,8.363c-0.709,5.736-1.863,12.441,0.241,18.023C74.671,156.532,75.638,156.273,75.41,155.669
					L75.41,155.669z"/>
			</g>
		</g>
		<g>
			<g>
				<path d="M16.779,66.601c0.919,3.137,2.933,5.852,4.595,8.634c1.721,2.882,3.982,5.42,6.201,7.92
					c2.565,2.89,5.069,5.829,7.917,8.45c2.873,2.643,6.113,4.76,8.862,7.577c2.149,2.202,4.872,3.711,7.617,5.048
					c1.743,0.849,3.29,1.954,4.943,2.959c1.676,1.02,3.486,1.817,5.165,2.854c3.155,1.951,6.363,3.751,9.597,5.565
					c2.549,1.43,7.332,3.847,7.752,7.193c0.079,0.631,1.08,0.639,1,0c-0.638-5.07-8.187-7.995-11.914-10.098
					c-3.25-1.834-6.353-3.949-9.667-5.667c-1.741-0.902-3.336-1.961-5-3c-1.518-0.948-3.257-1.565-4.801-2.49
					c-3.047-1.826-5.34-4.525-7.99-6.85c-1.548-1.359-3.311-2.438-4.857-3.798c-1.568-1.38-2.991-2.924-4.392-4.471
					c-2.813-3.106-5.698-6.221-8.177-9.604c-2.225-3.036-4.826-6.863-5.887-10.487C17.562,65.718,16.597,65.981,16.779,66.601
					L16.779,66.601z"/>
			</g>
		</g>
		<g>
			<g>
				<path d="M18.076,68.002c-2.069-5.299-1.698-11.288-2.315-16.867c-0.598-5.402-0.322-11.134,0.238-16.526
					c0.635-6.115,1.747-12.274,2.744-18.341c0.909-5.53,1.883-10.917,5.283-15.547c0.382-0.521-0.486-1.019-0.863-0.505
					c-3.07,4.18-4.391,9.189-5.174,14.246c-0.99,6.397-1.827,12.819-2.876,19.207c-0.936,5.694-0.67,11.732-0.351,17.466
					c0.167,3.011,0.634,5.974,0.667,9c0.029,2.666,0.723,5.67,1.685,8.133C17.344,68.862,18.311,68.604,18.076,68.002L18.076,68.002
					z"/>
			</g>
		</g>
		<g>
			<g>
				<path d="M88.67,91.365c-1.105-2.576-2.301-5.105-3.562-7.608c-0.305-0.606-0.623-1.208-0.935-1.812
					c-0.028-0.042-0.061-0.072-0.086-0.119c-0.418-0.763-0.808-1.538-1.186-2.317c-1.678-3.158-3.417-6.289-5.151-9.409
					c-2.258-4.061-4.746-7.98-7.6-11.649c-3.023-3.887-4.967-8.488-8.017-12.346C55.56,37.79,49.88,28.822,42.947,20.781
					c-3.587-4.159-8.183-7.455-11.422-11.922c-0.019-0.027-0.042-0.051-0.061-0.078c-1.526-0.752-2.452-1.984-2.941-3.491
					c-0.252-0.265-0.487-0.545-0.747-0.802c-1.093-1.081-3.098-2.355-3.701-3.819c-0.241-0.588-1.209-0.331-0.963,0.266
					c1.045,2.537,4.364,4.537,6.107,6.581c1.727,2.024,3.252,4.108,5.11,6.03c1.937,2.004,3.979,3.904,5.944,5.88
					c7.883,7.928,13.833,17.745,20.555,26.628c2.969,3.923,5.105,8.363,8,12.333c3.077,4.22,5.941,8.41,8.484,12.984
					c2.52,4.533,5.021,9.097,7.355,13.729c1.337,2.655,2.783,5.413,3.681,8.249c0.558,1.764,1.001,3.382,2.225,4.805
					c0.421,0.49,1.125-0.221,0.707-0.707C89.791,95.716,89.544,93.403,88.67,91.365z"/>
			</g>
		</g>
		<g>
			<g>
				<path d="M19.261,159.968c0.727,8.015,5.874,15.834,10.433,22.22c4.843,6.784,11.26,10.244,19.267,12.096
					c0.315,0.073,0.633-0.147,0.633-0.482c0-0.056,0-0.111,0-0.167c0-0.645-1-0.645-1,0c0,0.056,0,0.111,0,0.167
					c0.211-0.161,0.422-0.321,0.633-0.482c-7.805-1.805-13.865-5.126-18.67-11.636c-4.514-6.118-9.595-13.984-10.297-21.715
					C20.203,159.332,19.203,159.326,19.261,159.968L19.261,159.968z"/>
			</g>
		</g>
		<g>
			<g>
				<path d="M19.68,160.233c3.586-2.034,8.329-2.283,12.338-2.972c5.042-0.867,10.069-1.221,15.165-1.512
					c4.346-0.248,8.692-0.481,13.041-0.655c4.655-0.187,8.883,0.268,13.404,1.356c0.627,0.151,0.893-0.813,0.266-0.964
					c-4.307-1.037-8.296-1.584-12.741-1.427c-4.967,0.176-9.93,0.46-14.892,0.743c-4.879,0.278-9.682,0.7-14.509,1.495
					c-4.124,0.679-8.887,0.98-12.577,3.073C18.614,159.688,19.118,160.552,19.68,160.233L19.68,160.233z"/>
			</g>
		</g>
		<g>
			<g>
				<path d="M48.428,194.302c3.133,0,5.11-1.507,8.066-2.345c3.345-0.948,6.22-2.791,9.054-4.761
					c5.915-4.111,11.879-8.1,17.567-12.541c0.508-0.397-0.205-1.099-0.707-0.707c-5.393,4.211-11.181,7.732-16.62,11.843
					c-2.647,2-5.597,3.921-8.759,4.975c-2.854,0.951-5.558,2.535-8.6,2.535C47.783,193.302,47.783,194.302,48.428,194.302
					L48.428,194.302z"/>
			</g>
		</g>
		<g>
			<g>
				<path d="M82.279,174.935c1.24,7.003,5.981,12.211,11.196,16.729c5.732,4.966,12.618,8.558,20.017,10.235
					c4.02,0.911,8.196,1.033,12.299,0.985c4.357-0.051,8.823-0.153,13.14-0.773c8.867-1.274,16.692-5.378,24.749-9.044
					c0.586-0.267,0.078-1.128-0.505-0.863c-7.393,3.364-14.635,7.193-22.699,8.666c-3.901,0.712-7.9,0.777-11.851,0.935
					c-4.348,0.174-8.693,0.135-13.003-0.519c-7.424-1.127-14.323-4.68-20.176-9.283c-5.63-4.428-10.917-10.065-12.203-17.332
					C83.131,174.035,82.167,174.304,82.279,174.935L82.279,174.935z"/>
			</g>
		</g>
		<g>
			<g>
				<path d="M162.779,192.502c-1.191,5.822-0.158,12.464,0.397,18.323c0.285,3.007,0.855,5.983,1.169,8.989
					c0.165,1.583,0.691,3.137,0.77,4.722c0.034,0.686,0.131,1.458,0.548,2.018c0.381,0.51,1.249,0.013,0.863-0.505
					c-0.45-0.604-0.33-1.356-0.45-2.047c-0.288-1.667-0.639-3.298-0.815-4.984c-0.287-2.744-0.77-5.452-1.086-8.192
					c-0.654-5.679-1.588-12.41-0.432-18.058C163.872,192.139,162.908,191.871,162.779,192.502L162.779,192.502z"/>
			</g>
		</g>
		<g>
			<g>
				<path d="M165.445,226.601c0.399,1.121,1.53,1.678,2.428,2.387c1.804,1.423,3.713,2.646,5.787,3.636
					c4.121,1.968,8.758,2.658,13.267,3.011c5.415,0.423,10.798,0.753,16.222,0.269c4.594-0.41,9.592-0.821,14.077-1.953
					c0.625-0.158,0.36-1.122-0.266-0.964c-3.927,0.991-8.092,1.091-12.095,1.688c-4.656,0.695-9.389,0.556-14.072,0.26
					c-4.518-0.286-9.017-0.67-13.378-1.949c-2.218-0.65-4.291-1.65-6.249-2.864c-1.238-0.767-4.235-2.317-4.757-3.786
					C166.195,225.732,165.229,225.992,165.445,226.601L165.445,226.601z"/>
			</g>
		</g>
		<g>
			<g>
				<path d="M180.074,182.655c3.145,3.971,7.265,7.133,10.754,10.795c3.966,4.162,7.62,8.677,10.84,13.44
					c1.357,2.007,2.486,4.128,3.682,6.229c1.324,2.326,3.061,4.386,4.423,6.686c1.341,2.265,2.544,4.616,3.915,6.857
					c1.328,2.169,2.775,4.222,3.807,6.559c0.111,0.251,0.468,0.303,0.684,0.179c0.212-0.121,0.336-0.222,0.396-0.465
					c0.156-0.626-0.808-0.891-0.964-0.266c0.021-0.044,0.042-0.088,0.063-0.132c0.228,0.06,0.456,0.12,0.684,0.179
					c-1.029-2.33-2.449-4.415-3.807-6.559c-1.404-2.217-2.556-4.605-3.915-6.857c-1.381-2.289-3.032-4.401-4.423-6.686
					c-1.417-2.328-2.663-4.721-4.194-6.986c-2.917-4.314-6.288-8.411-9.846-12.208c-3.67-3.916-8.059-7.262-11.393-11.472
					C180.381,181.443,179.678,182.156,180.074,182.655L180.074,182.655z"/>
			</g>
		</g>
		<g>
			<g>
				<path d="M180.847,182.067c5.593-4.107,9.337-9.701,11.914-16.058c1.424-3.512,2.632-6.876,3.345-10.608
					c0.584-3.057,1.775-6.087,1.304-9.232c-0.095-0.636-1.059-0.365-0.964,0.266c0.468,3.125-0.879,6.477-1.464,9.535
					c-0.602,3.149-1.683,5.991-2.86,8.958c-2.54,6.398-6.149,12.142-11.78,16.276C179.828,181.581,180.326,182.449,180.847,182.067
					L180.847,182.067z"/>
			</g>
		</g>
		<g>
			<g>
				<path d="M196.928,147.468c0.645,0,0.645-1,0-1S196.283,147.468,196.928,147.468L196.928,147.468z"/>
			</g>
		</g>
		<g>
			<g>
				<path d="M196.961,147.117c0.821,0.159,1.551,0.549,2.333,0.833c0.916,0.333,2.212,0.325,3.2,0.571
					c2.173,0.54,4.356,1.3,6.518,1.916c2.268,0.646,4.475,1.501,6.73,2.192c2.487,0.763,5.076,1.182,7.591,1.849
					c4.687,1.243,9.641,1.821,14.483,2.11c1.451,0.087,5.331,0.975,6.465-0.101c0.469-0.445-0.24-1.151-0.707-0.707
					c-0.472,0.448-2.522-0.022-3.115-0.076c-1.765-0.162-3.54-0.156-5.309-0.322c-4.795-0.449-9.361-1.374-14.026-2.493
					c-4.311-1.034-8.434-2.446-12.692-3.659c-3.685-1.05-7.455-2.354-11.205-3.079C196.597,146.031,196.329,146.995,196.961,147.117
					L196.961,147.117z"/>
			</g>
		</g>
		<g>
			<g>
				<path d="M243.795,156.617c1.634,0.554,4.156-1.636,5.385-2.55c3.196-2.377,6.469-4.629,9.699-6.96
					c5.794-4.181,9.774-10.333,14.001-15.969c2.607-3.476,5.321-6.834,8.071-10.197c2.426-2.967,4.444-6.26,6.998-9.118
					c2.37-2.653,3.964-5.251,5.501-8.473c1.401-2.938,3.085-5.822,4.128-8.914c0.207-0.613-0.759-0.874-0.964-0.266
					c-1.003,2.974-2.587,5.889-4.027,8.675c-0.816,1.579-1.456,3.204-2.423,4.706c-1.007,1.565-2.271,2.837-3.501,4.214
					c-2.15,2.406-3.826,5.225-5.834,7.747c-2.169,2.724-4.479,5.335-6.585,8.11c-4.287,5.647-8.173,11.807-13.423,16.622
					c-2.559,2.347-5.585,4.178-8.42,6.167c-1.455,1.021-2.835,2.133-4.26,3.194c-0.687,0.511-3.185,2.354-4.079,2.051
					C243.448,155.445,243.187,156.411,243.795,156.617L243.795,156.617z"/>
			</g>
		</g>
		<g>
			<g>
				<path d="M197.68,129.733c3.52-2.443,7.463-4.208,11.084-6.499c3.86-2.442,7.703-4.433,11.984-6.039
					c3.723-1.397,7.484-2.525,11.123-4.16c4.206-1.89,8.227-4.182,12.331-6.279c8.264-4.223,16.866-6.365,25.791-8.651
					c4.305-1.103,8.548-2.444,12.862-3.512c4.467-1.106,10.373-2.857,14.654-0.527c0.567,0.308,1.071-0.555,0.505-0.863
					c-3.241-1.764-6.612-1.201-10.107-0.642c-4.609,0.737-9.058,2.082-13.545,3.331c-9.22,2.568-18.588,4.296-27.323,8.359
					c-4.212,1.959-8.265,4.245-12.403,6.351c-4.312,2.195-8.775,3.77-13.335,5.334c-4.087,1.401-7.812,3.161-11.473,5.444
					c-4.148,2.587-8.641,4.706-12.652,7.489C196.649,129.235,197.149,130.102,197.68,129.733L197.68,129.733z"/>
			</g>
		</g>
		<g>
			<g>
				<path d="M91.407,96.282c-0.056,0.056-0.111,0.111-0.167,0.167c-0.457,0.457,0.247,1.159,0.707,0.707
					c16.324-16.014,41.15-22.182,62.993-15.467c10.244,3.149,19.734,9.809,27.113,17.475c7.829,8.133,12.99,18.499,14.892,29.605
					c0.056,0.326,0.476,0.447,0.734,0.299c0.212-0.121,0.336-0.222,0.396-0.465c0.156-0.626-0.808-0.891-0.964-0.266
					c0.021-0.044,0.042-0.088,0.063-0.132c0.245,0.1,0.49,0.199,0.734,0.299c-3.767-22-20.958-40.334-41.886-47.512
					c-22.135-7.593-48.225-0.786-64.783,15.458c0.236,0.236,0.471,0.471,0.707,0.707c0.056-0.056,0.111-0.111,0.167-0.167
					C92.571,96.532,91.864,95.825,91.407,96.282L91.407,96.282z"/>
			</g>
		</g>
		<g>
			<g>
				<path d="M89.258,198.703c-2.57,1.624-1.007,6.509,2.174,5.769c1.761-0.41,2.939-2.255,1.944-3.919
					c-0.87-1.456-3.012-1.8-4.483-2.275c-0.615-0.199-0.877,0.767-0.266,0.964c0.95,0.307,1.922,0.54,2.822,0.981
					c1.353,0.662,1.811,2.134,0.371,3.057c-2.166,1.387-4.012-2.478-2.058-3.713C90.307,199.223,89.805,198.358,89.258,198.703
					L89.258,198.703z"/>
			</g>
		</g>
		<g>
			<g>
				<path d="M64.883,204.203c-3.12,2.129-2.166,6.529-0.35,9.205c2.25,3.316,6.001,3.37,8.751,0.741
					c2.504-2.395,3.042-6.521,0.213-8.832c-2.532-2.069-6.638-1.651-9.62-1.164c-0.635,0.104-0.365,1.067,0.266,0.964
					c3.908-0.638,11.525-0.594,10.129,5.448c-0.741,3.208-4.303,5.626-7.332,3.845c-2.723-1.601-4.662-7.222-1.553-9.343
					C65.917,204.706,65.418,203.839,64.883,204.203L64.883,204.203z"/>
			</g>
		</g>
		<g>
			<g>
				<path d="M86.383,219.828c-5.568,3.592-3.93,12.522-0.554,16.934c1.958,2.559,4.591,4.756,7.93,4.906
					c3.731,0.169,6.899-3.097,9.38-5.422c4.802-4.5,9.131-12.129,3.1-17.497c-6.198-5.516-15.019-1.756-20.981,1.953
					c-0.546,0.34-0.045,1.205,0.505,0.863c5.314-3.306,11.486-6.181,17.681-3.422c2.722,1.212,4.599,3.63,4.817,6.616
					c0.256,3.51-2.041,6.683-4.244,9.163c-1.807,2.035-3.913,3.984-6.211,5.436c-3.795,2.397-7.37,0.936-10.232-2.054
					c-3.648-3.812-6.222-13.042-0.685-16.613C87.428,220.344,86.927,219.478,86.383,219.828L86.383,219.828z"/>
			</g>
		</g>
		<g>
			<g>
				<path d="M40.008,243.703c-6.314,4.153,2.522,12.736,7.443,7.904c1.808-1.776,2.12-5.617-0.043-7.254
					c-2.397-1.814-5.819-0.734-8.405,0.05c-0.615,0.186-0.353,1.152,0.266,0.964c3.366-1.019,9.714-2.184,8.486,3.631
					c-1.561,7.394-13.458-0.342-7.242-4.431C41.049,244.214,40.549,243.348,40.008,243.703L40.008,243.703z"/>
			</g>
		</g>
		<g>
			<g>
				<path d="M38.508,235.703c-1.275,0.569-1.566,2.357-1.252,3.573c0.358,1.386,1.881,2.067,3.18,1.573
					c1.147-0.436,2.42-2.062,1.79-3.323c-0.604-1.209-2.115-1.686-3.333-1.998c-0.625-0.16-0.89,0.804-0.266,0.964
					c0.684,0.176,1.343,0.394,1.96,0.744c0.344,0.195,0.655,0.466,0.784,0.849c0.194,0.577-0.524,1.326-0.922,1.626
					c-2.008,1.512-3.293-2.315-1.436-3.145C39.601,236.304,39.092,235.443,38.508,235.703L38.508,235.703z"/>
			</g>
		</g>
		<g>
			<g>
				<path d="M24.628,214.403c-2.704,0.909-2.591,6.006-1.824,8.179c0.841,2.386,4.041,4.734,6.612,3.54
					c2.5-1.161,4.16-4.239,3.501-6.955c-0.852-3.514-6.794-4.519-9.656-4.156c-0.631,0.08-0.639,1.081,0,1
					c2.47-0.313,4.893,0.297,7.035,1.552c2.74,1.605,1.85,4.665,0.148,6.627c-2.08,2.398-5.157,0.759-6.483-1.473
					c-0.885-1.49-1.085-6.671,0.933-7.349C25.502,215.163,25.241,214.197,24.628,214.403L24.628,214.403z"/>
			</g>
		</g>
		<g>
			<g>
				<path d="M36.636,281.385c-2.88,0.318-1.461,5.198,0.875,5.25c1.719,0.038,2.739-1.686,2.482-3.258
					c-0.275-1.679-2.409-1.946-3.724-2.224c-0.629-0.133-0.897,0.831-0.266,0.964c0.841,0.178,1.717,0.27,2.464,0.727
					c1.05,0.643,0.556,2.328-0.446,2.735c-1.493,0.607-2.849-3.033-1.385-3.195C37.27,282.315,37.276,281.314,36.636,281.385
					L36.636,281.385z"/>
			</g>
		</g>
		<g>
			<g>
				<path d="M46.758,269.078c-3.245,1.688-3.251,6.684-2.188,9.699c1.375,3.901,5.888,4.149,8.971,2.22
					c3.258-2.037,4.497-6.586,2.132-9.713c-2.141-2.831-6.624-3.007-9.795-2.507c-0.636,0.1-0.365,1.064,0.266,0.964
					c2.423-0.382,4.952-0.221,7.171,0.887c3.59,1.793,3.011,6.165,0.674,8.705c-2.657,2.888-7.299,2.453-8.645-1.364
					c-0.857-2.432-0.591-6.723,1.919-8.029C47.835,269.644,47.33,268.781,46.758,269.078L46.758,269.078z"/>
			</g>
		</g>
		<g>
			<g>
				<path d="M56.383,298.328c-2.81,1.6-3.178,4.391-2.514,7.366c0.538,2.413,3.876,2.971,5.878,2.46
					c2.406-0.614,3.966-3.44,3.185-5.782c-0.359-1.075-1.636-1.671-2.544-2.169c-1.471-0.807-3.077-1.245-4.752-1.193
					c-0.643,0.02-0.645,1.02,0,1c1.995-0.061,3.723,0.694,5.396,1.714c2.523,1.539,0.449,4.728-1.55,5.465
					c-2.084,0.769-4.52-0.457-4.809-2.643c-0.296-2.246,0.12-4.161,2.216-5.355C57.448,298.873,56.945,298.009,56.383,298.328
					L56.383,298.328z"/>
			</g>
		</g>
		<g>
			<g>
				<path d="M16.628,303.153c-2.165,0.698-2.213,3.98-1.764,5.797c0.589,2.383,2.778,4.413,5.301,3.469
					c2.061-0.771,4.153-3.9,3.554-6.142c-0.901-3.37-5.509-2.82-8.208-3.017c-0.644-0.047-0.639,0.953,0,1
					c1.98,0.145,5.08-0.213,6.696,1.159c1.831,1.556-0.468,4.737-1.787,5.726c-1.952,1.463-3.779-0.275-4.475-2.091
					c-0.461-1.202-0.654-4.419,0.95-4.936C17.505,303.92,17.243,302.955,16.628,303.153L16.628,303.153z"/>
			</g>
		</g>
		<g>
			<g>
				<path d="M1.008,313.453c-1.087,0.595-1.226,1.832-0.746,2.898c0.589,1.309,1.675,2.132,3.128,1.647
					c1.438-0.48,2.25-2.226,1.774-3.636c-0.444-1.312-2.081-1.78-3.27-2.084c-0.625-0.16-0.89,0.805-0.266,0.964
					c1.523,0.39,3.711,1.372,2.2,3.259c-1.66,2.073-3.841-1.348-2.315-2.185C2.079,314.007,1.574,313.143,1.008,313.453
					L1.008,313.453z"/>
			</g>
		</g>
	</g>
</g>
</svg>
