<?xml version="1.0" encoding="utf-8"?>
<!-- Generator: Adobe Illustrator 17.0.0, SVG Export Plug-In . SVG Version: 6.00 Build 0)  -->
<!DOCTYPE svg PUBLIC "-//W3C//DTD SVG 1.1//EN" "http://www.w3.org/Graphics/SVG/1.1/DTD/svg11.dtd">
<svg version="1.1" id="Layer_1" xmlns="http://www.w3.org/2000/svg" xmlns:xlink="http://www.w3.org/1999/xlink" x="0px" y="0px"
	 width="91.044px" height="86.767px" viewBox="0 0 91.044 86.767" enable-background="new 0 0 91.044 86.767" xml:space="preserve">
<g>
	<path fill="#FFFFFF" d="M16.401,57.871c3.799-0.291,6.645-3.692,8.937-6.426c3.721-4.439,7.238-8.801,11.958-12.23
		c4.469-3.246,9.153-6.26,13.691-9.412c2.854-1.983,7.338-3.936,7.248-7.932c-0.015-0.644-1.015-0.645-1,0
		c0.06,2.672-2.133,3.822-4.08,5.169c-1.88,1.301-3.729,2.638-5.549,4.022c-3.69,2.807-7.771,5.078-11.522,7.803
		c-3.684,2.675-6.52,5.97-9.369,9.485c-2.458,3.033-6.118,8.198-10.313,8.52C15.762,56.92,15.757,57.921,16.401,57.871
		L16.401,57.871z"/>
</g>
<g>
	<path fill="#FFFFFF" d="M66.915,28.581c-5.463,3.56-10.954,7.255-15.942,11.436c-5.294,4.437-10.801,8.74-15.72,13.594
		c-1.663,1.641-3.384,3.635-4.183,5.866c-1.138,3.177-0.421,6.341-0.309,9.623c0.126,3.705-1.292,7.516-3.804,10.206
		c-1.47,1.573-3.38,2.771-5.384,3.524c-1.41,0.53-2.74,0.357-3.976-0.161c-0.038-0.009-0.082-0.008-0.119-0.019
		c-0.185-0.04-0.363-0.104-0.533-0.197c-0.109-0.016-0.218-0.041-0.325-0.086c-0.413-0.173-0.754-0.45-0.973-0.807
		c-0.247-0.174-0.488-0.356-0.725-0.542c-0.115-0.091-0.238-0.104-0.357-0.093c-0.006,0.534,0.22,1.031,0.552,1.452
		c1.739,1.213,3.529,1.957,5.785,1.661c2.784-0.365,5.452-2.621,7.292-4.59c1.961-2.099,2.88-4.933,3.344-7.704
		c0.631-3.774-0.764-7.572,0.245-11.294c1.001-3.691,4.55-6.599,7.261-9.071c2.917-2.661,6.092-5.037,9.095-7.598
		c6.49-5.534,13.359-10.5,20.515-15.144c0.026-0.017,0.039-0.04,0.061-0.06C68.113,28.524,67.516,28.614,66.915,28.581z"/>
</g>
<g>
	<path fill="#FFFFFF" d="M4.004,72.435c-1.787-2.29-3.326-4.48-2.878-7.557c0.343-2.354,2.065-4.551,3.75-6.127
		c2.451-2.292,5.885-1.559,8.793-0.845c1.675,0.411,3.179,0.116,4.781-0.427c0.607-0.206,0.347-1.172-0.266-0.964
		c-3.305,1.121-6.171-0.438-9.501-0.319c-2.49,0.089-4.414,1.515-5.928,3.364c-1.615,1.973-2.659,4.167-2.752,6.735
		c-0.095,2.634,1.775,4.901,3.294,6.848C3.693,73.65,4.396,72.937,4.004,72.435L4.004,72.435z"/>
</g>
<g>
	<path fill="#FFFFFF" d="M23.734,74.097c0.005-3.401-2.957-6.66-5.368-8.72c-2.481-2.121-5.867-2.437-8.737-0.972
		c-3.019,1.541-4.621,5.252-5.993,8.131c-0.276,0.579,0.586,1.087,0.863,0.505c2.272-4.769,5.894-10.925,12.112-7.67
		c3.01,1.576,7.734,7.151,5.552,10.678c0.083,0.035,0.172,0.063,0.303,0.085c0.201,0.035,0.369,0.136,0.519,0.259
		C23.101,75.63,23.397,74.84,23.734,74.097z"/>
</g>
<g>
	<path fill="#FFFFFF" d="M22.835,74.155c-0.395,1.52-1.071,2.745-2.679,3.156c-1.26,0.322-2.553,0.275-3.806,0.661
		c-1.252,0.386-1.666,1.431-1.783,2.546c-0.004,0.05,0.006,0.096-0.003,0.148c-0.08,0.485,0.066,0.943,0.307,1.353
		c0.292,0.092,0.66-0.043,0.653-0.44c-0.002-0.079,0.004-0.145,0.005-0.22c-0.076-0.182-0.127-0.378-0.127-0.599
		c0-0.507,0.223-0.893,0.545-1.157c0.338-0.48,0.903-0.772,1.793-0.957c1.039-0.216,2.091-0.22,3.125-0.485
		c0.965-0.247,1.63-0.893,2.107-1.687c0.108-0.802,0.421-1.638,0.778-2.419C23.557,73.725,22.96,73.675,22.835,74.155z"/>
</g>
<g>
	<path fill="#FFFFFF" d="M84.596,10.039c-1.41-0.731-2.807,0.762-3.946,2.64c-0.198,0.558-0.496,1.062-0.847,1.537
		c-0.754,1.494-1.318,2.93-1.584,3.487c-0.183,0.384,0.135,0.722,0.451,0.745c0.179-0.357,0.373-0.705,0.578-1.046
		c0.121-0.207,0.249-0.41,0.382-0.61c0.171-0.264,0.348-0.527,0.529-0.789c0.407-0.812,0.824-1.619,1.272-2.411
		c0.346-0.611,1.938-3.418,3.091-2.402c0.436,0.384,0.594,1.118,0.753,1.648c0.756,2.522,0.676,5.387,0.052,7.909
		c-0.952,3.843-4.478,6.536-8.043,7.775c-3.432,1.193-6.674-0.101-10.133,0.099c-0.641,0.037-0.645,1.037,0,1
		c2.727-0.157,5.333,0.682,8.077,0.38c2.088-0.229,4.045-1.077,5.815-2.168c3.868-2.383,5.661-6.386,5.756-10.799
		C86.843,14.997,86.684,11.121,84.596,10.039z"/>
</g>
<g>
	<path fill="#FFFFFF" d="M70.075,0.916c-4.501-2.409-9.687,0.283-12.631,4.042c-1.341,1.712-2.629,4.192-2.792,6.4
		c-0.295,3.992,2.104,7.019,2.499,10.848c0.065,0.635,1.066,0.641,1,0c-0.212-2.059-1.024-3.818-1.761-5.731
		c-1.223-3.176-0.838-6.116,0.674-9.08c2.338-4.586,8.364-8.484,13.252-5.174c0.263,0.178,0.516,0.058,0.644-0.151
		C70.649,1.696,70.35,1.315,70.075,0.916z"/>
</g>
<g>
	<path fill="#FFFFFF" d="M70.277,1.194c-0.054,0.041-0.103,0.097-0.141,0.175c-0.39,0.81-0.767,1.616-1.217,2.395
		c-0.963,1.667-2.345,1.287-3.424,2.409c-1.424,1.479-2.44,3.302-3.07,5.248c-1.368,4.226,0.28,7.596,3.69,9.964
		c0.206,0.07,0.398,0.18,0.568,0.331c0.451,0.063,0.773-0.636,0.303-0.942c-2.044-1.328-3.753-2.938-3.994-5.492
		c-0.206-2.178,0.503-4.339,1.562-6.199c0.646-1.135,1.517-2.284,2.771-2.812c0.566-0.238,1.109-0.401,1.54-0.867
		c0.926-0.999,1.476-2.161,2.059-3.376C70.7,1.757,70.486,1.477,70.277,1.194z"/>
</g>
<g>
	<path fill="#FFFFFF" d="M80.227,13.577c-0.183,0.301-0.382,0.594-0.599,0.876c-0.951,2.503-2.169,4.162-4.48,5.737
		c-2.23,1.519-5.661,2.103-7.995,0.75c-0.43-0.249-0.822,0.204-0.728,0.574c0.132,0.079,0.258,0.173,0.37,0.288
		c0.028,0.014,0.057,0.027,0.086,0.037c0.243,0.003,0.484,0.051,0.694,0.196c0.143,0.1,0.266,0.2,0.384,0.305
		c0.002,0.001,0.005,0.002,0.007,0.002c0.078,0.025,0.15,0.058,0.222,0.093c2.249,0.649,4.503,0.004,6.794-1.014
		c1.633-0.726,2.826-1.809,3.757-3.102c0.153-0.299,0.314-0.593,0.486-0.881c0.211-0.372,0.435-0.735,0.683-1.083
		c0.336-0.698,0.629-1.43,0.892-2.185C80.941,13.764,80.56,13.52,80.227,13.577z"/>
</g>
<g>
	<g>
		<path fill="#FFFFFF" d="M3.61,73.246c2.291,2.03,4.636,2.417,6.509-0.275c0.761-1.093,1.032-2.131,2.207-2.98
			c0.965-0.697,2.685-0.581,3.838-0.626c3.97-0.155,5.7,4.536,4.442,7.707c-0.238,0.6,0.729,0.858,0.964,0.266
			c1.386-3.495-0.287-7.65-3.935-8.791c-1.429-0.447-3.81-0.28-5.189,0.312c-0.718,0.308-1.342,0.675-1.803,1.326
			c-0.39,0.552-0.722,1.114-1.05,1.705c-1.231,2.215-3.684,2.061-5.277,0.649C3.836,72.113,3.126,72.817,3.61,73.246L3.61,73.246z"
			/>
	</g>
</g>
<g>
	<path fill="#FFFFFF" d="M37.964,55.351c-1.781,2.22-3.862,4.463-4.926,7.143c-1.446,3.645-0.143,7.191-0.804,10.973
		c-0.292,1.67-0.513,3.328-1.065,4.938c-0.685,1.997-2.353,3.474-3.844,4.878c-2.118,1.994-4.046,2.851-6.94,2.294
		c-2.237-0.43-3.862-1.62-4.479-3.688c-0.298-0.291-0.502-0.659-0.502-1.129c0-0.012,0.004-0.021,0.004-0.032
		c-0.309-0.069-0.722,0.184-0.656,0.609c0.507,3.269,3.018,4.932,6.207,5.358c3.991,0.533,6.575-2.011,9.151-4.764
		c2.686-2.87,3.238-7.384,3.457-11.144c0.058-0.995-0.085-1.965-0.217-2.945c-0.282-2.093,0.039-3.767,0.925-5.65
		c1.068-2.27,2.841-4.196,4.396-6.135C39.07,55.561,38.367,54.848,37.964,55.351z"/>
</g>
<g>
	<path fill="#FFFFFF" d="M80.577,32.229c0.183-0.152,0.378-0.292,0.609-0.402c0.07-0.033,0.142-0.058,0.214-0.083
		c0.014-0.006,0.026-0.016,0.04-0.022c0.139-0.379-0.263-0.879-0.708-0.615c-3.921,2.324-8.252-0.34-12.478,0.766
		c-1.409,0.369-2.45,1.694-3.456,2.646c-1.735,1.641-3.689,3.084-5.483,4.665c-3.612,3.183-7.548,6.016-11.282,9.056
		c-1.91,1.555-3.884,2.839-5.995,4.09c-1.89,1.12-3.306,2.65-5.056,3.944c-0.513,0.379-0.015,1.247,0.505,0.863
		c1.52-1.123,2.794-2.487,4.386-3.531c1.809-1.186,3.682-2.184,5.408-3.502c3.567-2.723,7.013-5.616,10.552-8.377
		c1.959-1.528,3.725-3.281,5.668-4.828c1.766-1.406,3.484-3.661,5.71-4.243c2.358-0.617,4.936,0.379,7.273,0.549
		c1.285,0.094,2.382-0.155,3.466-0.623C80.138,32.418,80.349,32.305,80.577,32.229z"/>
</g>
<g>
	<path fill="#FFFFFF" d="M83.047,10.101c-0.389,0.503,0.313,1.217,0.707,0.707c2.482-3.207,5.087,0.211,5.985,2.764
		c0.969,2.754-0.308,5.935-1.414,8.452c-1.789,4.073-4.638,7.418-8.594,9.499c-0.565,0.297-0.076,1.14,0.486,0.869
		c0.069-0.04,0.136-0.083,0.209-0.114c0.07-0.041,0.141-0.08,0.211-0.12c0.166-0.125,0.348-0.236,0.548-0.331
		c0.033-0.016,0.068-0.025,0.101-0.039c0.009-0.005,0.017-0.01,0.026-0.015c5.231-3.224,8.797-9.034,9.676-15.099
		C91.599,12.464,87,4.993,83.047,10.101z"/>
</g>
<g>
	<path fill="#FFFFFF" d="M71.923,3.182c-0.16-0.176-0.303-0.368-0.434-0.567c-0.082-0.055-0.167-0.104-0.232-0.183
		c-0.383-0.465-0.766-0.931-1.114-1.423c-0.22,0.08-0.39,0.287-0.307,0.579c0.164,0.577,0.214,0.61,0.616,1.091
		c1.287,1.537,1.163,3.281,0.012,4.672c-1.366,1.653-3.623,2.459-4.841,4.317c-2.197,3.354-0.427,7.164,1.385,10.238
		c0.103,0.076,0.205,0.154,0.319,0.211c0.051,0.025,0.061,0.03,0.083,0.041c0.132,0.046,0.265,0.088,0.398,0.13
		c0.22-0.124,0.358-0.39,0.191-0.671c-1.38-2.315-2.531-4.453-2.294-7.218c0.252-2.939,3.452-4.594,5.466-6.343
		c0.675-0.586,1.469-2.042,1.526-2.94c0.05-0.782-0.216-1.301-0.563-1.764C72.06,3.303,71.986,3.251,71.923,3.182z"/>
</g>
<g>
	<g>
		<path fill="#FFFFFF" d="M22.281,71.926c0.389,0.895,0.522,1.735,0.387,2.708c-0.073,0.529-0.844,1.842-1.333,2.076
			c-0.581,0.278-0.074,1.14,0.505,0.863c0.8-0.383,1.362-1.538,1.663-2.331c0.482-1.275,0.162-2.625-0.358-3.822
			C22.888,70.831,22.027,71.341,22.281,71.926L22.281,71.926z"/>
	</g>
</g>
</svg>
